<?xml version="1.0" encoding="UTF-8" standalone="no"?>
<svg xmlns:xlink="http://www.w3.org/1999/xlink" xmlns="http://www.w3.org/2000/svg" contentScriptType="text/ecmascript"
     width="284mm" zoomAndPan="magnify" contentStyleType="text/css" height="330mm" viewBox="0 0 569 661"
     preserveAspectRatio="xMidYMid meet" version="1.0">
    <title>CYB_COSMOZONE_012</title>
    <svg contentScriptType="text/ecmascript" zoomAndPan="magnify" contentStyleType="text/css" class="Page"
         preserveAspectRatio="xMidYMid meet" version="1.0">
        <image x="0" y="0" fill-opacity="0.5" width="569" xlink:href="../Pages/CYB_COSMOZONE_012.jpg"
               xlink:type="simple" xlink:actuate="onLoad" height="661" opacity="0.5" preserveAspectRatio="xMidYMid meet"
               xlink:show="embed"/>
        <metadata collectionTitle="Cosmozone" editorName="Studio Cyborga" doublePage="false"
                  website="http://cosmozone.webcomics.fr/archives" albumTitle="Volume 1" drawerName="Cyborg 07"
                  language="french" resolution="" ISBN="" readingDirection="leftToRight" writerName="Cyborg 07"
                  releaseDate="2008" pageNumber="12"/>
    </svg>
    <style type="text/css" xml:space="preserve">
        * { stroke-width: 0; stroke-linejoin: round; }
        .Unclassified { fill: orange; stroke: none; opacity: 1.0; visibility: hidden; }
        .Noise { fill: pink; stroke: none; opacity: 0.2; visibility: hidden; }
        .Panel { fill: red; stroke: none; opacity: 0.3; visibility: visible; image-rendering: optimizeSpeed; }
        .Line { fill: green; stroke: none; opacity: 0.5; visibility: visible; image-rendering: optimizeSpeed; }
        .TextArea { fill: grey; stroke: none; opacity: 0.2; visibility: visible; image-rendering: optimizeSpeed; }
        .Balloon { fill: cyan; stroke: none; opacity: 0.5; visibility: visible; image-rendering: optimizeSpeed; }
        .Letter { fill: blue; stroke: none; opacity: 0.2; visibility: hidden; }
        .Character { fill: yellow; stroke: none; opacity: 0.3; visibility: visible; image-rendering: optimizeSpeed; }
        .Page { fill: white; stroke: none; opacity: 0.5; visibility: visible; }
        .linkSBSC { fill: blue; stroke: none; opacity: 0.5; visibility: visible; }
        polygon:hover { stroke:red;stroke-width:2; } 
    </style>
    <svg contentScriptType="text/ecmascript" zoomAndPan="magnify" contentStyleType="text/css" class="Panel"
         preserveAspectRatio="xMidYMid meet" version="1.0">
        <polygon points="8,147 276,147 276,355 8,355 8,147" id="CYB_COSMOZONE_012_panel_0">
            <metadata viewAngle="" shot="" rank="1"/>
        </polygon>
        <polygon points="291,90 559,90 559,355 291,355 291,90" id="CYB_COSMOZONE_012_panel_1">
            <metadata viewAngle="" shot="" rank="2"/>
        </polygon>
        <polygon points="8,368 276,368 276,634 8,634 8,368" id="CYB_COSMOZONE_012_panel_2">
            <metadata viewAngle="" shot="" rank="3"/>
        </polygon>
        <polygon points="289,367 561,367 561,635 289,635 289,367" id="CYB_COSMOZONE_012_panel_3">
            <metadata viewAngle="" shot="" rank="4"/>
        </polygon>
    </svg>
    <svg contentScriptType="text/ecmascript" zoomAndPan="magnify" contentStyleType="text/css" class="TextArea"
         preserveAspectRatio="xMidYMid meet" version="1.0"/>
    <svg contentScriptType="text/ecmascript" zoomAndPan="magnify" contentStyleType="text/css" class="Balloon"
         preserveAspectRatio="xMidYMid meet" version="1.0">
        <polygon id="CYB_COSMOZONE_012_balloon_0"
                 points="26,172 16,164 10,157 10,83 278,83 277,148 274,162 266,172 254,179 239,184 222,187 208,186 191,187 179,187 169,187 156,186 151,192 149,196 152,200 147,205 134,222 134,217 139,209 141,202 138,199 139,193 142,187 135,187 120,187 100,187 82,184 62,182 26,171 26,172">
            <metadata borderStyle="smooth" tailTip="134,222" boundingBox="" tailDirection="SW" rank="1"/>
        </polygon>
        <polygon
                points="283,84 295,80 304,81 321,85 338,84 349,82 377,83 376,93 377,104 379,105 376,115 374,120 375,127 375,137 369,135 359,134 347,134 343,134 338,137 330,134 318,136 305,137 298,135 294,134 290,132 283,134 283,84"
                id="CYB_COSMOZONE_012_balloon_1">
            <metadata borderStyle="smooth" tailTip="" boundingBox="" tailDirection="none" rank="2"/>
        </polygon>
        <polygon
                points="358,148 373,148 385,149 400,154 410,163 417,172 422,186 420,197 417,207 410,216 403,224 392,227 381,229 385,235 392,243 383,241 377,238 371,229 351,229 335,227 320,223 307,215 301,206 299,190 302,179 312,168 320,159 333,154 358,148"
                id="CYB_COSMOZONE_012_balloon_2">
            <metadata borderStyle="smooth" tailTip="392,243" boundingBox="" tailDirection="SE" rank="3"/>
        </polygon>
        <polygon
                points="402,381 413,381 422,382 434,384 441,387 451,393 458,401 462,414 464,425 462,433 454,447 444,456 433,460 424,461 426,466 434,474 431,476 423,473 416,467 412,462 398,461 381,459 365,457 352,450 341,434 341,421 345,412 350,404 356,398 366,390 380,385 402,381"
                id="CYB_COSMOZONE_012_balloon_3">
            <metadata borderStyle="smooth" tailTip="434,474" boundingBox="" tailDirection="SE" rank="4"/>
        </polygon>
    </svg>
    <svg contentScriptType="text/ecmascript" zoomAndPan="magnify" contentStyleType="text/css" class="Character"
         preserveAspectRatio="xMidYMid meet" version="1.0">
        <polygon points="176,202 265,202 265,354 176,354 176,202" id="CYB_COSMOZONE_012_character_0">
            <metadata uri="" area="" fillingPcent=""/>
        </polygon>
        <polygon points="31,199 145,199 145,355 31,355 31,199" id="CYB_COSMOZONE_012_character_1">
            <metadata uri="" area="" fillingPcent=""/>
        </polygon>
        <polygon points="84,495 159,495 159,632 84,632 84,495" id="CYB_COSMOZONE_012_character_2">
            <metadata uri="" area="" fillingPcent=""/>
        </polygon>
        <polygon points="13,504 78,504 78,633 13,633 13,504" id="CYB_COSMOZONE_012_character_3">
            <metadata uri="" area="" fillingPcent=""/>
        </polygon>
        <polygon points="295,503 363,503 363,632 295,632 295,503" id="CYB_COSMOZONE_012_character_4">
            <metadata uri="" area="" fillingPcent=""/>
        </polygon>
        <polygon points="371,497 441,497 441,633 371,633 371,497" id="CYB_COSMOZONE_012_character_5">
            <metadata uri="" area="" fillingPcent=""/>
        </polygon>
        <polygon points="465,497 544,497 544,633 465,633 465,497" id="CYB_COSMOZONE_012_character_6">
            <metadata uri="" area="" fillingPcent=""/>
        </polygon>
        <polygon points="181,495 264,495 264,634 181,634 181,495" id="CYB_COSMOZONE_012_character_7">
            <metadata uri="" area="" fillingPcent=""/>
        </polygon>
    </svg>
    <svg contentScriptType="text/ecmascript" zoomAndPan="magnify" contentStyleType="text/css" class="Line"
         preserveAspectRatio="xMidYMid meet" version="1.0">
        <polygon points="68,33 194,33 194,67 68,67 68,33" id="CYB_COSMOZONE_012_line_0">
            <metadata method="" typography="" textType="note">Studio cyboRGa</metadata>
        </polygon>
        <polygon points="168,53 238,53 238,70 168,70 168,53" id="CYB_COSMOZONE_012_line_1">
            <metadata method="" typography="" textType="note">présente :</metadata>
        </polygon>
        <polygon points="37,87 256,87 256,103 37,103 37,87" id="CYB_COSMOZONE_012_line_2">
            <metadata method="" typography="" idBalloon="CYB_COSMOZONE_012_balloon_0" textType="speech">L'institut
                spatiale enseigne I'art du
            </metadata>
        </polygon>
        <polygon points="42,101 250,101 250,115 42,115 42,101" id="CYB_COSMOZONE_012_line_3">
            <metadata method="" typography="" idBalloon="CYB_COSMOZONE_012_balloon_0" textType="speech">commandement,
                pas le pilotage.
            </metadata>
        </polygon>
        <polygon points="30,113 263,113 263,125 30,125 30,113" id="CYB_COSMOZONE_012_line_4">
            <metadata method="" typography="" idBalloon="CYB_COSMOZONE_012_balloon_0" textType="speech">Mais si vous
                n'avez vraiment aucune
            </metadata>
        </polygon>
        <polygon points="38,126 256,126 256,137 38,137 38,126" id="CYB_COSMOZONE_012_line_5">
            <metadata method="" typography="" idBalloon="CYB_COSMOZONE_012_balloon_0" textType="speech">base, et qu'on
                vous a donne votre
            </metadata>
        </polygon>
        <polygon points="34,137 259,137 259,151 34,151 34,137" id="CYB_COSMOZONE_012_line_6">
            <metadata method="" typography="" idBalloon="CYB_COSMOZONE_012_balloon_0" textType="speech">diplome, ca pose
                probleme. Un seul
            </metadata>
        </polygon>
        <polygon points="33,149 259,149 259,164 33,164 33,149" id="CYB_COSMOZONE_012_line_7">
            <metadata method="" typography="" idBalloon="CYB_COSMOZONE_012_balloon_0" textType="speech">homme peut
                maintenant prendre la
            </metadata>
        </polygon>
        <polygon points="98,161 193,161 193,177 98,177 98,161" id="CYB_COSMOZONE_012_line_8">
            <metadata method="" typography="" idBalloon="CYB_COSMOZONE_012_balloon_0" textType="speech">juste
                decision,
            </metadata>
        </polygon>
        <polygon points="303,91 353,91 353,103 303,103 303,91" id="CYB_COSMOZONE_012_line_9">
            <metadata method="" typography="" idBalloon="CYB_COSMOZONE_012_balloon_1" textType="narrative">DANS LE
            </metadata>
        </polygon>
        <polygon points="298,103 360,103 360,114 298,114 298,103" id="CYB_COSMOZONE_012_line_10">
            <metadata method="" typography="" idBalloon="CYB_COSMOZONE_012_balloon_1" textType="narrative">BUREAU DU
            </metadata>
        </polygon>
        <polygon points="299,114 359,114 359,126 299,126 299,114" id="CYB_COSMOZONE_012_line_11">
            <metadata method="" typography="" idBalloon="CYB_COSMOZONE_012_balloon_1" textType="narrative">PRESIDENT
            </metadata>
        </polygon>
        <polygon points="327,164 400,164 400,176 327,176 327,164" id="CYB_COSMOZONE_012_line_12">
            <metadata method="" typography="" idBalloon="CYB_COSMOZONE_012_balloon_2" textType="speech">Monsieur le
            </metadata>
        </polygon>
        <polygon points="317,175 410,175 410,189 317,189 317,175" id="CYB_COSMOZONE_012_line_13">
            <metadata method="" typography="" idBalloon="CYB_COSMOZONE_012_balloon_2" textType="speech">precident de
                la
            </metadata>
        </polygon>
        <polygon points="320,187 406,187 406,201 320,201 320,187" id="CYB_COSMOZONE_012_line_14">
            <metadata method="" typography="" idBalloon="CYB_COSMOZONE_012_balloon_2" textType="speech">8eme galaxie,
            </metadata>
        </polygon>
        <polygon points="323,198 405,198 405,212 323,212 323,198" id="CYB_COSMOZONE_012_line_15">
            <metadata method="" typography="" idBalloon="CYB_COSMOZONE_012_balloon_2" textType="speech">que decidez-
            </metadata>
        </polygon>
        <polygon points="342,211 384,211 384,222 342,222 342,211" id="CYB_COSMOZONE_012_line_16">
            <metadata method="" typography="" idBalloon="CYB_COSMOZONE_012_balloon_2" textType="speech">vous?</metadata>
        </polygon>
        <polygon points="369,398 443,398 443,413 369,413 369,398" id="CYB_COSMOZONE_012_line_17">
            <metadata method="" typography="" idBalloon="CYB_COSMOZONE_012_balloon_3" textType="speech">...!Je...!?...
            </metadata>
        </polygon>
        <polygon points="377,410 431,410 431,426 377,426 377,410" id="CYB_COSMOZONE_012_line_18">
            <metadata method="" typography="" idBalloon="CYB_COSMOZONE_012_balloon_3" textType="speech">Je suis ...
            </metadata>
        </polygon>
        <polygon points="365,423 446,423 446,436 365,436 365,423" id="CYB_COSMOZONE_012_line_19">
            <metadata method="" typography="" idBalloon="CYB_COSMOZONE_012_balloon_3" textType="speech">sense savoir
            </metadata>
        </polygon>
        <polygon points="367,435 444,435 444,447 367,447 367,435" id="CYB_COSMOZONE_012_line_20">
            <metadata method="" typography="" idBalloon="CYB_COSMOZONE_012_balloon_3" textType="speech">decider ?!...
            </metadata>
        </polygon>
        <polygon points="425,639 560,639 560,648 425,648 425,639" id="CYB_COSMOZONE_012_line_21">
            <metadata method="" typography="" textType="speech">2008/2009 copyright Cyborg 07</metadata>
        </polygon>
    </svg>
    <svg contentScriptType="text/ecmascript" zoomAndPan="magnify" contentStyleType="text/css" class="linkSBSC"
         preserveAspectRatio="xMidYMid meet" version="1.0">
        <polygon points="144,152 145,152 89,277 88,277 144,152" idCharacter="CYB_COSMOZONE_012_character_1"
                 idBalloon="CYB_COSMOZONE_012_balloon_0"/>
        <polygon points="402,428 403,428 505,565 504,565 402,428" idCharacter="CYB_COSMOZONE_012_character_6"
                 idBalloon="CYB_COSMOZONE_012_balloon_3"/>
    </svg>
    <metadata method="GroundTruth" lastModificationDate="Sat Jan 25 18:04:02 CET 2014" lastStepModified="Balloon_Rank"/>
</svg>