<?xml version="1.0" encoding="UTF-8" standalone="no"?>
<svg xmlns="http://www.w3.org/2000/svg" xmlns:xlink="http://www.w3.org/1999/xlink" contentScriptType="text/ecmascript" width="375mm" zoomAndPan="magnify" contentStyleType="text/css" height="530mm" viewBox="0 0 750 1060" preserveAspectRatio="xMidYMid meet" version="1.0">
    <title>CYB_BUBBLEGOM_T01_007</title>
    <svg contentScriptType="text/ecmascript" zoomAndPan="magnify" contentStyleType="text/css" class="Page" preserveAspectRatio="xMidYMid meet" version="1.0">
        <image x="0" y="0" width="750" xlink:href="../Pages/CYB_BUBBLEGOM_T01_007.jpg" xlink:type="simple" xlink:actuate="onLoad" height="1060" preserveAspectRatio="xMidYMid meet" xlink:show="embed"/>
        <metadata collectionTitle="Bubblegôm Gôm" editorName="Studio Cyborga" doublePage="false" website="http://bubblegom.webcomics.fr/page/bubbleg%C3%B4m-la-couv#page" albumTitle="La Légende des Yaouanks" drawerName="Cyborg 07" language="french" resolution="" ISBN="979-10-90655-01-0" readingDirection="leftToRight" writerName="Cyborg 07" releaseDate="2009" pageNumber="7"/>
    </svg>
	<style type="text/css" xml:space="preserve">
        * { stroke-width: 0; stroke-linejoin: round; }
        .Unclassified { fill: orange; stroke: none; opacity: 1.0; visibility: hidden; }
        .Noise { fill: pink; stroke: none; opacity: 0.2; visibility: hidden; }
        .Panel { fill: red; stroke: none; opacity: 0.3; visibility: visible; image-rendering: optimizeSpeed; }
        .Line { fill: green; stroke: none; opacity: 0.5; visibility: visible; image-rendering: optimizeSpeed; }
        .TextArea { fill: grey; stroke: none; opacity: 0.2; visibility: visible; image-rendering: optimizeSpeed; }
        .Balloon { fill: cyan; stroke: none; opacity: 0.5; visibility: visible; image-rendering: optimizeSpeed; }
        .Letter { fill: blue; stroke: none; opacity: 0.2; visibility: hidden; }
        .Character { fill: yellow; stroke: none; opacity: 0.3; visibility: visible; image-rendering: optimizeSpeed; }
        .Page { fill: white; stroke: none; opacity: 0.5; visibility: visible; }
        .linkSBSC { fill: blue; stroke: none; opacity: 0.5; visibility: visible; }
        polygon:hover { stroke:red;stroke-width:2; } 
    </style><svg contentScriptType="text/ecmascript" zoomAndPan="magnify" contentStyleType="text/css" class="Panel" preserveAspectRatio="xMidYMid meet" version="1.0">
        <polygon points="53,84 242,84 242,260 53,259 53,84" id="CYB_BUBBLEGOM_T01_007_panel_0">
            <metadata viewAngle="" shot="" rank="1"/>
        </polygon>
        <polygon points="259,84 404,84 403,261 259,261 259,84" id="CYB_BUBBLEGOM_T01_007_panel_1">
            <metadata viewAngle="" shot="" rank="2"/>
        </polygon>
        <polygon points="421,66 716,66 715,262 420,261 421,66" id="CYB_BUBBLEGOM_T01_007_panel_2">
            <metadata viewAngle="" shot="" rank="3"/>
        </polygon>
        <polygon points="53,288 233,289 232,611 53,611 53,288" id="CYB_BUBBLEGOM_T01_007_panel_3">
            <metadata viewAngle="" shot="" rank="4"/>
        </polygon>
        <polygon points="248,289 409,290 410,436 248,437 248,289" id="CYB_BUBBLEGOM_T01_007_panel_4">
            <metadata viewAngle="" shot="" rank="5"/>
        </polygon>
        <polygon points="248,465 410,465 410,612 249,611 248,465" id="CYB_BUBBLEGOM_T01_007_panel_5">
            <metadata viewAngle="" shot="" rank="6"/>
        </polygon>
        <polygon points="426,290 695,290 695,613 426,612 426,290" id="CYB_BUBBLEGOM_T01_007_panel_6">
            <metadata viewAngle="" shot="" rank="7"/>
        </polygon>
        <polygon points="67,775 228,775 228,951 67,951 67,775" id="CYB_BUBBLEGOM_T01_007_panel_7">
            <metadata viewAngle="" shot="" rank="8"/>
        </polygon>
        <polygon points="229,639 516,639 516,960 229,960 229,639" id="CYB_BUBBLEGOM_T01_007_panel_8">
            <metadata viewAngle="" shot="" rank="9"/>
        </polygon>
        <polygon points="532,641 715,641 714,974 532,975 532,641" id="CYB_BUBBLEGOM_T01_007_panel_9">
            <metadata viewAngle="" shot="" rank="10"/>
        </polygon>
    </svg>
    <svg contentScriptType="text/ecmascript" zoomAndPan="magnify" contentStyleType="text/css" class="TextArea" preserveAspectRatio="xMidYMid meet" version="1.0"/>
    <svg contentScriptType="text/ecmascript" zoomAndPan="magnify" contentStyleType="text/css" class="Balloon" preserveAspectRatio="xMidYMid meet" version="1.0">
        <polygon points="260,142 258,141 258,83 404,83 403,148 399,146 397,158 390,154 389,159 385,155 382,162 374,157 374,161 384,164 369,185 375,170 365,167 366,161 359,168 357,164 352,169 348,164 342,171 339,164 333,172 329,164 316,173 316,163 310,168 310,162 300,170 301,160 287,169 287,159 279,163 278,158 269,163 269,160 273,154 262,160 267,148 258,151 259,144 260,142" id="CYB_BUBBLEGOM_T01_007_balloon_0">
            <metadata borderStyle="spiky" tailTip="369,185" boundingBox="" tailDirection="SW" rank="1"/>
        </polygon>
        <polygon points="439,71 447,69 444,64 683,64 682,66 690,67 684,72 695,76 687,79 693,83 687,86 693,94 688,93 691,99 685,98 691,105 691,106 698,112 684,112 687,117 681,117 684,123 675,122 676,127 669,125 669,129 661,127 664,132 685,127 683,137 693,139 694,144 661,165 664,158 678,146 668,146 668,143 668,139 659,142 652,132 652,143 647,139 644,143 640,140 638,145 634,142 631,148 627,143 624,147 618,146 616,143 613,147 607,147 606,143 604,148 600,144 597,148 596,144 592,150 589,145 583,151 580,145 556,143 554,148 549,141 544,146 543,141 538,146 536,140 528,144 525,139 517,142 512,145 511,140 503,145 502,139 480,141 479,138 472,140 473,134 468,137 466,134 457,140 457,132 450,132 452,127 443,128 446,122 440,123 442,116 434,117 441,107 440,106 441,105 435,102 441,99 432,97 432,95 439,92 434,88 434,87 440,84 437,82 443,78 439,75 439,71" id="CYB_BUBBLEGOM_T01_007_balloon_1">
            <metadata borderStyle="spiky" tailTip="661,165" boundingBox="" tailDirection="SW" rank="2"/>
        </polygon>
        <polygon points="487,145 482,143 479,138 478,131 482,125 490,122 499,123 502,128 503,132 502,137 500,141 494,143 496,147 495,152 492,145 487,145" id="CYB_BUBBLEGOM_T01_007_balloon_2">
            <metadata borderStyle="smooth" tailTip="495,152" boundingBox="" tailDirection="SE" rank="3"/>
        </polygon>
        <polygon points="556,145 556,136 559,132 564,129 568,129 577,131 579,135 581,138 581,142 579,147 574,151 567,152 563,152 561,157 558,156 561,151 557,148 556,145" id="CYB_BUBBLEGOM_T01_007_balloon_3">
            <metadata borderStyle="smooth" tailTip="558,156" boundingBox="" tailDirection="SW" rank="4"/>
        </polygon>
        <polygon points="251,327 247,322 247,288 312,288 313,294 313,305 310,317 304,325 297,330 287,333 287,338 282,334 270,333 257,331 251,327" id="CYB_BUBBLEGOM_T01_007_balloon_4">
            <metadata borderStyle="smooth" tailTip="287,338" boundingBox="" tailDirection="SE" rank="5"/>
        </polygon>
        <polygon points="423,355 425,288 647,289 650,296 655,301 658,311 659,324 660,327 654,330 658,330 657,338 653,347 643,357 630,367 617,374 604,377 594,380 594,383 600,385 600,390 600,408 598,404 596,395 594,393 589,392 586,389 586,380 569,382 545,381 525,381 513,380 487,380 468,377 454,374 441,370 441,366 438,369 423,355" id="CYB_BUBBLEGOM_T01_007_balloon_5">
            <metadata borderStyle="smooth" tailTip="600,408" boundingBox="" tailDirection="S" rank="6"/>
        </polygon>
        <polygon points="433,396 440,384 448,379 457,375 475,375 497,376 513,378 519,386 521,398 518,414 513,426 506,432 495,435 490,442 489,434 472,436 454,434 443,429 436,417 434,407 435,406 434,405 433,396" id="CYB_BUBBLEGOM_T01_007_balloon_6">
            <metadata borderStyle="smooth" tailTip="490,442" boundingBox="" tailDirection="S" rank="7"/>
        </polygon>
        <polygon points="70,669 78,661 88,653 95,649 96,637 103,645 115,642 127,641 141,641 152,641 154,646 158,642 170,646 183,653 194,660 198,665 210,658 210,661 204,672 209,679 215,692 217,703 215,712 211,713 215,714 214,724 207,739 200,748 194,752 193,757 210,745 212,746 210,752 210,758 219,752 219,758 223,764 229,767 223,769 217,770 214,766 202,773 199,763 186,773 183,767 183,761 174,765 164,769 161,777 157,772 151,773 132,774 118,771 106,767 107,764 103,766 93,763 79,756 68,749 60,739 52,741 57,732 55,719 56,703 62,685 67,683 64,681 70,669" id="CYB_BUBBLEGOM_T01_007_balloon_7">
            <metadata borderStyle="spiky" tailTip="229,767" boundingBox="" tailDirection="E" rank="8"/>
        </polygon>
        <polygon points="163,788 177,786 204,785 210,786 216,790 210,795 216,797 220,800 210,807 213,809 217,814 222,818 216,821 217,825 218,829 214,831 205,838 198,844 199,839 204,832 210,826 203,824 207,819 209,817 199,815 174,816 161,812 170,807 160,802 163,799 170,795 163,791 163,788" id="CYB_BUBBLEGOM_T01_007_balloon_8">
            <metadata borderStyle="spiky" tailTip="198,844" boundingBox="" tailDirection="SW" rank="9"/>
        </polygon>
        <polygon points="244,738 230,732 231,640 405,640 410,644 412,658 414,670 413,680 410,692 403,706 396,715 383,727 384,730 390,734 382,735 377,732 365,739 333,746 310,746 276,745 244,738" id="CYB_BUBBLEGOM_T01_007_balloon_9">
            <metadata borderStyle="smooth" tailTip="390,734" boundingBox="" tailDirection="SE" rank="10"/>
        </polygon>
        <polygon points="325,768 336,766 350,768 359,774 363,780 363,785 361,794 352,800 342,801 327,798 322,801 314,808 316,801 321,794 317,788 316,781 319,773 325,768" id="CYB_BUBBLEGOM_T01_007_balloon_10">
            <metadata borderStyle="smooth" tailTip="314,808" boundingBox="" tailDirection="SW" rank="11"/>
        </polygon>
        <polygon points="446,844 465,840 482,840 495,843 507,848 514,856 517,868 516,908 516,931 505,933 501,926 499,932 488,932 458,932 433,923 418,903 418,886 421,872 428,857 426,855 417,856 425,850 431,849 436,850 446,844" id="CYB_BUBBLEGOM_T01_007_balloon_11">
            <metadata borderStyle="smooth" tailTip="417,856" boundingBox="" tailDirection="W" rank="12"/>
        </polygon>
        <polygon points="531,674 532,640 614,639 618,645 621,654 620,666 612,677 597,685 581,689 564,687 562,689 565,692 565,696 562,700 567,701 571,706 574,717 567,706 563,705 554,705 559,696 548,697 551,690 553,686 544,683 532,677 531,674" id="CYB_BUBBLEGOM_T01_007_balloon_12">
            <metadata borderStyle="smooth" tailTip="574,717" boundingBox="" tailDirection="SE" rank="13"/>
        </polygon>
        <polygon points="537,908 542,890 552,878 570,871 589,865 612,864 621,864 624,851 626,852 630,860 630,864 652,864 672,868 691,874 703,885 709,898 712,912 712,929 709,944 703,953 693,961 689,959 689,962 675,967 655,969 635,970 617,970 595,970 580,967 557,961 547,957 539,943 537,926 537,908" id="CYB_BUBBLEGOM_T01_007_balloon_13">
            <metadata borderStyle="smooth" tailTip="624,851" boundingBox="" tailDirection="N" rank="14"/>
        </polygon>
    </svg>
    <svg contentScriptType="text/ecmascript" zoomAndPan="magnify" contentStyleType="text/css" class="Character" preserveAspectRatio="xMidYMid meet" version="1.0">
        <polygon points="144,126 240,126 240,242 144,242 144,126" id="CYB_BUBBLEGOM_T01_007_character_0">
            <metadata uri="" area="" fillingPcent=""/>
        </polygon>
        <polygon points="62,127 155,127 155,245 62,245 62,127" id="CYB_BUBBLEGOM_T01_007_character_1">
            <metadata uri="" area="" fillingPcent=""/>
        </polygon>
        <polygon points="260,132 403,132 403,263 260,263 260,132" id="CYB_BUBBLEGOM_T01_007_character_2">
            <metadata uri="" area="" fillingPcent=""/>
        </polygon>
        <polygon points="438,139 571,139 571,253 438,253 438,139" id="CYB_BUBBLEGOM_T01_007_character_3">
            <metadata uri="" area="" fillingPcent=""/>
        </polygon>
        <polygon points="562,144 677,144 677,254 562,254 562,144" id="CYB_BUBBLEGOM_T01_007_character_4">
            <metadata uri="" area="" fillingPcent=""/>
        </polygon>
        <polygon points="522,417 675,417 675,580 522,580 522,417" id="CYB_BUBBLEGOM_T01_007_character_5">
            <metadata uri="" area="" fillingPcent=""/>
        </polygon>
        <polygon points="432,442 521,442 521,563 432,563 432,442" id="CYB_BUBBLEGOM_T01_007_character_6">
            <metadata uri="" area="" fillingPcent=""/>
        </polygon>
        <polygon points="264,308 410,308 410,438 264,438 264,308" id="CYB_BUBBLEGOM_T01_007_character_7">
            <metadata uri="" area="" fillingPcent=""/>
        </polygon>
        <polygon points="146,495 225,495 225,577 146,577 146,495" id="CYB_BUBBLEGOM_T01_007_character_8">
            <metadata uri="" area="" fillingPcent=""/>
        </polygon>
        <polygon points="77,419 153,419 153,499 77,499 77,419" id="CYB_BUBBLEGOM_T01_007_character_9">
            <metadata uri="" area="" fillingPcent=""/>
        </polygon>
        <polygon points="82,828 215,828 215,950 82,950 82,828" id="CYB_BUBBLEGOM_T01_007_character_10">
            <metadata uri="" area="" fillingPcent=""/>
        </polygon>
        <polygon points="285,804 425,804 425,960 285,960 285,804" id="CYB_BUBBLEGOM_T01_007_character_11">
            <metadata uri="" area="" fillingPcent=""/>
        </polygon>
        <polygon points="232,753 305,753 305,915 232,915 232,753" id="CYB_BUBBLEGOM_T01_007_character_12">
            <metadata uri="" area="" fillingPcent=""/>
        </polygon>
        <polygon points="385,695 512,695 512,830 385,830 385,695" id="CYB_BUBBLEGOM_T01_007_character_13">
            <metadata uri="" area="" fillingPcent=""/>
        </polygon>
        <polygon points="530,682 703,682 703,863 530,863 530,682" id="CYB_BUBBLEGOM_T01_007_character_14">
            <metadata uri="" area="" fillingPcent=""/>
        </polygon>
    </svg>
    <svg contentScriptType="text/ecmascript" zoomAndPan="magnify" contentStyleType="text/css" class="Line" preserveAspectRatio="xMidYMid meet" version="1.0">
        <polygon points="115,90 184,90 184,107 115,107 115,90" id="CYB_BUBBLEGOM_T01_007_line_0">
            <metadata method="" typography="" textType="speech">HÉHÉHÉ !</metadata>
        </polygon>
        <polygon points="102,108 196,108 196,120 102,120 102,108" id="CYB_BUBBLEGOM_T01_007_line_1">
            <metadata method="" typography="" textType="speech">LES SEINS !!</metadata>
        </polygon>
        <polygon points="294,92 369,92 369,105 294,105 294,92" id="CYB_BUBBLEGOM_T01_007_line_2">
            <metadata method="" typography="" idBalloon="CYB_BUBBLEGOM_T01_007_balloon_0" textType="speech">NON D'UN</metadata>
        </polygon>
        <polygon points="271,106 392,106 392,118 271,118 271,106" id="CYB_BUBBLEGOM_T01_007_line_3">
            <metadata method="" typography="" idBalloon="CYB_BUBBLEGOM_T01_007_balloon_0" textType="speech">TROLL !!! MAIS</metadata>
        </polygon>
        <polygon points="290,120 374,120 374,132 290,132 290,120" id="CYB_BUBBLEGOM_T01_007_line_4">
            <metadata method="" typography="" idBalloon="CYB_BUBBLEGOM_T01_007_balloon_0" textType="speech">QUE NOUS</metadata>
        </polygon>
        <polygon points="275,134 387,134 387,146 275,146 275,134" id="CYB_BUBBLEGOM_T01_007_line_5">
            <metadata method="" typography="" idBalloon="CYB_BUBBLEGOM_T01_007_balloon_0" textType="speech">ARRIVE-t-IL ?</metadata>
        </polygon>
        <polygon points="466,65 665,65 665,78 466,78 466,65" id="CYB_BUBBLEGOM_T01_007_line_6">
            <metadata method="" typography="" idBalloon="CYB_BUBBLEGOM_T01_007_balloon_1" textType="speech">SHAPA ! LES FILLES TENTENT</metadata>
        </polygon>
        <polygon points="460,79 669,79 669,90 460,90 460,79" id="CYB_BUBBLEGOM_T01_007_line_7">
            <metadata method="" typography="" idBalloon="CYB_BUBBLEGOM_T01_007_balloon_1" textType="speech">DE NOUS ENVOUTER PAR DES</metadata>
        </polygon>
        <polygon points="459,91 672,91 672,102 459,102 459,91" id="CYB_BUBBLEGOM_T01_007_line_8">
            <metadata method="" typography="" idBalloon="CYB_BUBBLEGOM_T01_007_balloon_1" textType="speech">MOYENS VILS ET INDIGNES D'UN</metadata>
        </polygon>
        <polygon points="459,100 672,100 672,116 459,116 459,100" id="CYB_BUBBLEGOM_T01_007_line_9">
            <metadata method="" typography="" idBalloon="CYB_BUBBLEGOM_T01_007_balloon_1" textType="speech">SOLDAT ! RESISTE, MON VIEUX,</metadata>
        </polygon>
        <polygon points="504,115 655,115 655,126 504,126 504,115" id="CYB_BUBBLEGOM_T01_007_line_10">
            <metadata method="" typography="" idBalloon="CYB_BUBBLEGOM_T01_007_balloon_1" textType="speech">SINON C'EST MA MORT</metadata>
        </polygon>
        <polygon points="482,134 492,129 498,136 484,142 482,134" id="CYB_BUBBLEGOM_T01_007_line_11">
            <metadata method="" typography="" idBalloon="CYB_BUBBLEGOM_T01_007_balloon_2" textType="speech">OK</metadata>
        </polygon>
        <polygon points="564,133 575,140 567,146 558,140 564,133" id="CYB_BUBBLEGOM_T01_007_line_12">
            <metadata method="" typography="" idBalloon="CYB_BUBBLEGOM_T01_007_balloon_3" textType="speech">OK</metadata>
        </polygon>
        <polygon points="450,298 626,298 626,310 450,310 450,298" id="CYB_BUBBLEGOM_T01_007_line_13">
            <metadata method="" typography="" idBalloon="CYB_BUBBLEGOM_T01_007_balloon_5" textType="speech">GNIAK GNIAK ! CE SOUTIEN</metadata>
        </polygon>
        <polygon points="453,311 622,311 622,321 453,321 453,311" id="CYB_BUBBLEGOM_T01_007_line_14">
            <metadata method="" typography="" idBalloon="CYB_BUBBLEGOM_T01_007_balloon_5" textType="speech">NICHON SERA DESORMAIS</metadata>
        </polygon>
        <polygon points="435,322 641,322 641,333 435,333 435,322" id="CYB_BUBBLEGOM_T01_007_line_15">
            <metadata method="" typography="" idBalloon="CYB_BUBBLEGOM_T01_007_balloon_5" textType="speech">L'EMBLEME DE NOTRE VICTOIRE</metadata>
        </polygon>
        <polygon points="442,333 633,333 633,345 442,345 442,333" id="CYB_BUBBLEGOM_T01_007_line_16">
            <metadata method="" typography="" idBalloon="CYB_BUBBLEGOM_T01_007_balloon_5" textType="speech">ABSOLUE SUR LE RESTE DU</metadata>
        </polygon>
        <polygon points="448,346 628,346 628,358 448,358 448,346" id="CYB_BUBBLEGOM_T01_007_line_17">
            <metadata method="" typography="" idBalloon="CYB_BUBBLEGOM_T01_007_balloon_5" textType="speech">MONDE, ET EN PARTICULIER</metadata>
        </polygon>
        <polygon points="502,358 573,358 573,368 502,368 502,358" id="CYB_BUBBLEGOM_T01_007_line_18">
            <metadata method="" typography="" idBalloon="CYB_BUBBLEGOM_T01_007_balloon_5" textType="speech">LES FILLES.</metadata>
        </polygon>
        <polygon points="464,385 491,385 491,397 464,397 464,385" id="CYB_BUBBLEGOM_T01_007_line_19">
            <metadata method="" typography="" idBalloon="CYB_BUBBLEGOM_T01_007_balloon_6" textType="speech">DES</metadata>
        </polygon>
        <polygon points="448,397 508,397 508,409 448,409 448,397" id="CYB_BUBBLEGOM_T01_007_line_20">
            <metadata method="" typography="" idBalloon="CYB_BUBBLEGOM_T01_007_balloon_6" textType="speech">DESSOUS</metadata>
        </polygon>
        <polygon points="445,406 509,406 509,419 445,419 445,406" id="CYB_BUBBLEGOM_T01_007_line_21">
            <metadata method="" typography="" idBalloon="CYB_BUBBLEGOM_T01_007_balloon_6" textType="speech">FÉMININS !</metadata>
        </polygon>
        <polygon points="254,302 303,302 303,314 254,314 254,302" id="CYB_BUBBLEGOM_T01_007_line_22">
            <metadata method="" typography="" idBalloon="CYB_BUBBLEGOM_T01_007_balloon_4" textType="speech">HM... ?</metadata>
        </polygon>
        <polygon points="78,281 120,281 120,294 78,294 78,281" id="CYB_BUBBLEGOM_T01_007_line_23">
            <metadata method="" typography="" textType="narrative">UN PEU</metadata>
        </polygon>
        <polygon points="85,295 112,295 112,306 85,306 85,295" id="CYB_BUBBLEGOM_T01_007_line_24">
            <metadata method="" typography="" textType="narrative">PLUS</metadata>
        </polygon>
        <polygon points="79,306 119,306 119,316 79,316 79,306" id="CYB_BUBBLEGOM_T01_007_line_25">
            <metadata method="" typography="" textType="narrative">TARD...</metadata>
        </polygon>
        <polygon points="88,680 186,680 186,698 88,698 88,680" id="CYB_BUBBLEGOM_T01_007_line_26">
            <metadata method="" typography="" idBalloon="CYB_BUBBLEGOM_T01_007_balloon_7" textType="speech">BANDE DE</metadata>
        </polygon>
        <polygon points="104,699 167,699 167,715 104,715 104,699" id="CYB_BUBBLEGOM_T01_007_line_27">
            <metadata method="" typography="" idBalloon="CYB_BUBBLEGOM_T01_007_balloon_7" textType="speech">PETITS</metadata>
        </polygon>
        <polygon points="93,713 181,713 181,732 93,732 93,713" id="CYB_BUBBLEGOM_T01_007_line_28">
            <metadata method="" typography="" idBalloon="CYB_BUBBLEGOM_T01_007_balloon_7" textType="speech">OBSÉDÉS</metadata>
        </polygon>
        <polygon points="126,735 147,735 147,749 126,749 126,735" id="CYB_BUBBLEGOM_T01_007_line_29">
            <metadata method="" typography="" idBalloon="CYB_BUBBLEGOM_T01_007_balloon_7" textType="speech">!!!</metadata>
        </polygon>
        <polygon points="245,641 383,641 383,652 245,652 245,641" id="CYB_BUBBLEGOM_T01_007_line_30">
            <metadata method="" typography="" idBalloon="CYB_BUBBLEGOM_T01_007_balloon_9" textType="speech">JE ME DOUTAIS QUE</metadata>
        </polygon>
        <polygon points="244,653 383,653 383,665 244,665 244,653" id="CYB_BUBBLEGOM_T01_007_line_31">
            <metadata method="" typography="" idBalloon="CYB_BUBBLEGOM_T01_007_balloon_9" textType="speech">VOUS SERIEZ ASSEZ</metadata>
        </polygon>
        <polygon points="243,663 383,663 383,677 243,677 243,663" id="CYB_BUBBLEGOM_T01_007_line_32">
            <metadata method="" typography="" idBalloon="CYB_BUBBLEGOM_T01_007_balloon_9" textType="speech">DÉBILES POUR VOUS</metadata>
        </polygon>
        <polygon points="233,675 394,675 394,690 233,690 233,675" id="CYB_BUBBLEGOM_T01_007_line_33">
            <metadata method="" typography="" idBalloon="CYB_BUBBLEGOM_T01_007_balloon_9" textType="speech">POINTER QUAND MEME !</metadata>
        </polygon>
        <polygon points="254,690 376,690 376,702 254,702 254,690" id="CYB_BUBBLEGOM_T01_007_line_34">
            <metadata method="" typography="" idBalloon="CYB_BUBBLEGOM_T01_007_balloon_9" textType="speech">HEY LE GUERRIER,</metadata>
        </polygon>
        <polygon points="245,703 382,703 382,714 245,714 245,703" id="CYB_BUBBLEGOM_T01_007_line_35">
            <metadata method="" typography="" idBalloon="CYB_BUBBLEGOM_T01_007_balloon_9" textType="speech">LACHE LE SOUTIF DE</metadata>
        </polygon>
        <polygon points="247,715 373,715 373,728 247,728 247,715" id="CYB_BUBBLEGOM_T01_007_line_36">
            <metadata method="" typography="" idBalloon="CYB_BUBBLEGOM_T01_007_balloon_9" textType="speech">MA COPINE, SINON...</metadata>
        </polygon>
        <polygon points="320,776 358,776 358,790 320,790 320,776" id="CYB_BUBBLEGOM_T01_007_line_37">
            <metadata method="" typography="" idBalloon="CYB_BUBBLEGOM_T01_007_balloon_10" textType="speech">CHIÉ !</metadata>
        </polygon>
        <polygon points="441,858 498,858 498,870 441,870 441,858" id="CYB_BUBBLEGOM_T01_007_line_38">
            <metadata method="" typography="" idBalloon="CYB_BUBBLEGOM_T01_007_balloon_11" textType="speech">HEU... CE</metadata>
        </polygon>
        <polygon points="433,871 502,871 502,883 433,883 433,871" id="CYB_BUBBLEGOM_T01_007_line_39">
            <metadata method="" typography="" idBalloon="CYB_BUBBLEGOM_T01_007_balloon_11" textType="speech">N'EST PAS</metadata>
        </polygon>
        <polygon points="428,883 509,883 509,894 428,894 428,883" id="CYB_BUBBLEGOM_T01_007_line_40">
            <metadata method="" typography="" idBalloon="CYB_BUBBLEGOM_T01_007_balloon_11" textType="speech">DU TOUT CE</metadata>
        </polygon>
        <polygon points="443,895 494,895 494,906 443,906 443,895" id="CYB_BUBBLEGOM_T01_007_line_41">
            <metadata method="" typography="" idBalloon="CYB_BUBBLEGOM_T01_007_balloon_11" textType="speech">QUE TU</metadata>
        </polygon>
        <polygon points="445,907 493,907 493,917 445,917 445,907" id="CYB_BUBBLEGOM_T01_007_line_42">
            <metadata method="" typography="" idBalloon="CYB_BUBBLEGOM_T01_007_balloon_11" textType="speech">CROIS...</metadata>
        </polygon>
        <polygon points="580,875 667,875 667,886 580,886 580,875" id="CYB_BUBBLEGOM_T01_007_line_43">
            <metadata method="" typography="" idBalloon="CYB_BUBBLEGOM_T01_007_balloon_13" textType="speech">JE VAIS VOUS</metadata>
        </polygon>
        <polygon points="547,886 701,886 701,897 547,897 547,886" id="CYB_BUBBLEGOM_T01_007_line_44">
            <metadata method="" typography="" idBalloon="CYB_BUBBLEGOM_T01_007_balloon_13" textType="speech">RÉDUIRE EN BOUILLIE DE</metadata>
        </polygon>
        <polygon points="552,895 697,895 697,910 552,910 552,895" id="CYB_BUBBLEGOM_T01_007_line_45">
            <metadata method="" typography="" idBalloon="CYB_BUBBLEGOM_T01_007_balloon_13" textType="speech">TESTOSTERONE. APRÈS,</metadata>
        </polygon>
        <polygon points="551,906 697,906 697,921 551,921 551,906" id="CYB_BUBBLEGOM_T01_007_line_46">
            <metadata method="" typography="" idBalloon="CYB_BUBBLEGOM_T01_007_balloon_13" textType="speech">J'IRAI RACONTER A VOS</metadata>
        </polygon>
        <polygon points="555,921 693,921 693,931 555,931 555,921" id="CYB_BUBBLEGOM_T01_007_line_47">
            <metadata method="" typography="" idBalloon="CYB_BUBBLEGOM_T01_007_balloon_13" textType="speech">VIEUX COMMENT VOUS</metadata>
        </polygon>
        <polygon points="546,932 703,932 703,943 546,943 546,932" id="CYB_BUBBLEGOM_T01_007_line_48">
            <metadata method="" typography="" idBalloon="CYB_BUBBLEGOM_T01_007_balloon_13" textType="speech">MATEZ LES FILLES QUAND</metadata>
        </polygon>
        <polygon points="564,943 684,943 684,954 564,954 564,943" id="CYB_BUBBLEGOM_T01_007_line_49">
            <metadata method="" typography="" idBalloon="CYB_BUBBLEGOM_T01_007_balloon_13" textType="speech">ELLES SE BAIGNENT</metadata>
        </polygon>
        <polygon points="622,955 628,955 628,965 622,965 622,955" id="CYB_BUBBLEGOM_T01_007_line_50">
            <metadata method="" typography="" idBalloon="CYB_BUBBLEGOM_T01_007_balloon_13" textType="speech">!</metadata>
        </polygon>
        <polygon points="176,773 203,773 203,820 176,820 176,773" id="CYB_BUBBLEGOM_T01_007_line_51">
            <metadata method="" typography="" idBalloon="CYB_BUBBLEGOM_T01_007_balloon_8" textType="speech">!</metadata>
        </polygon>
        <polygon points="591,128 613,128 613,139 591,139 591,128" id="CYB_BUBBLEGOM_T01_007_line_52">
            <metadata method="" typography="" idBalloon="CYB_BUBBLEGOM_T01_007_balloon_1" textType="speech">!!!</metadata>
        </polygon>
    </svg>
    <svg contentScriptType="text/ecmascript" zoomAndPan="magnify" contentStyleType="text/css" class="linkSBSC" preserveAspectRatio="xMidYMid meet" version="1.0">
    <polygon points="331,134 332,134 332,197 331,197 331,134" idCharacter="CYB_BUBBLEGOM_T01_007_character_2" idBalloon="CYB_BUBBLEGOM_T01_007_balloon_0"/>
    <polygon points="490,137 491,137 505,196 504,196 490,137" idCharacter="CYB_BUBBLEGOM_T01_007_character_3" idBalloon="CYB_BUBBLEGOM_T01_007_balloon_2"/>
    <polygon points="568,143 569,143 505,196 504,196 568,143" idCharacter="CYB_BUBBLEGOM_T01_007_character_3" idBalloon="CYB_BUBBLEGOM_T01_007_balloon_3"/>
    <polygon points="565,114 566,114 620,199 619,199 565,114" idCharacter="CYB_BUBBLEGOM_T01_007_character_4" idBalloon="CYB_BUBBLEGOM_T01_007_balloon_1"/>
    <polygon points="280,313 281,313 338,373 337,373 280,313" idCharacter="CYB_BUBBLEGOM_T01_007_character_7" idBalloon="CYB_BUBBLEGOM_T01_007_balloon_4"/>
    <polygon points="541,348 542,348 599,504 598,504 541,348" idCharacter="CYB_BUBBLEGOM_T01_007_character_5" idBalloon="CYB_BUBBLEGOM_T01_007_balloon_5"/>
    <polygon points="477,408 478,408 477,507 476,507 477,408" idCharacter="CYB_BUBBLEGOM_T01_007_character_6" idBalloon="CYB_BUBBLEGOM_T01_007_balloon_6"/>
    <polygon points="191,814 192,814 147,893 146,893 191,814" idCharacter="CYB_BUBBLEGOM_T01_007_character_10" idBalloon="CYB_BUBBLEGOM_T01_007_balloon_8"/>
    <polygon points="322,693 323,693 449,773 448,773 322,693" idCharacter="CYB_BUBBLEGOM_T01_007_character_13" idBalloon="CYB_BUBBLEGOM_T01_007_balloon_9"/>
    <polygon points="338,787 339,787 269,838 268,838 338,787" idCharacter="CYB_BUBBLEGOM_T01_007_character_12" idBalloon="CYB_BUBBLEGOM_T01_007_balloon_10"/>
    <polygon points="468,890 469,891 369,878 368,877 468,890" idCharacter="CYB_BUBBLEGOM_T01_007_character_11" idBalloon="CYB_BUBBLEGOM_T01_007_balloon_11"/>
    <polygon points="625,910 626,911 630,770 629,769 625,910" idCharacter="CYB_BUBBLEGOM_T01_007_character_14" idBalloon="CYB_BUBBLEGOM_T01_007_balloon_13"/>
    <polygon points="580,660 581,661 630,770 629,769 580,660" idCharacter="CYB_BUBBLEGOM_T01_007_character_14" idBalloon="CYB_BUBBLEGOM_T01_007_balloon_12"/>
  </svg>
<metadata method="GroundTruth" lastModificationDate="Fri Feb 14 17:36:00 CET 2014" lastStepModified="Balloon_Rank"/>
</svg>