<?xml version="1.0" encoding="UTF-8" standalone="no"?>
<svg xmlns:xlink="http://www.w3.org/1999/xlink" xmlns="http://www.w3.org/2000/svg" contentScriptType="text/ecmascript"
     width="284mm" zoomAndPan="magnify" contentStyleType="text/css" height="330mm" viewBox="0 0 569 661"
     preserveAspectRatio="xMidYMid meet" version="1.0">
    <title>CYB_COSMOZONE_014</title>
    <svg contentScriptType="text/ecmascript" zoomAndPan="magnify" contentStyleType="text/css" class="Page"
         preserveAspectRatio="xMidYMid meet" version="1.0">
        <image x="0" y="0" fill-opacity="0.5" width="569" xlink:href="../Pages/CYB_COSMOZONE_014.jpg"
               xlink:type="simple" xlink:actuate="onLoad" height="661" opacity="0.5" preserveAspectRatio="xMidYMid meet"
               xlink:show="embed"/>
        <metadata collectionTitle="Cosmozone" editorName="Studio Cyborga" doublePage="false"
                  website="http://cosmozone.webcomics.fr/archives" albumTitle="Volume 1" drawerName="Cyborg 07"
                  language="french" resolution="" ISBN="" readingDirection="leftToRight" writerName="Cyborg 07"
                  releaseDate="2008" pageNumber="14"/>
    </svg>
    <style type="text/css" xml:space="preserve">
        * { stroke-width: 0; stroke-linejoin: round; }
        .Unclassified { fill: orange; stroke: none; opacity: 1.0; visibility: hidden; }
        .Noise { fill: pink; stroke: none; opacity: 0.2; visibility: hidden; }
        .Panel { fill: red; stroke: none; opacity: 0.3; visibility: visible; image-rendering: optimizeSpeed; }
        .Line { fill: green; stroke: none; opacity: 0.5; visibility: visible; image-rendering: optimizeSpeed; }
        .TextArea { fill: grey; stroke: none; opacity: 0.2; visibility: visible; image-rendering: optimizeSpeed; }
        .Balloon { fill: cyan; stroke: none; opacity: 0.5; visibility: visible; image-rendering: optimizeSpeed; }
        .Letter { fill: blue; stroke: none; opacity: 0.2; visibility: hidden; }
        .Character { fill: yellow; stroke: none; opacity: 0.3; visibility: visible; image-rendering: optimizeSpeed; }
        .Page { fill: white; stroke: none; opacity: 0.5; visibility: visible; }
        .linkSBSC { fill: blue; stroke: none; opacity: 0.5; visibility: visible; }
        polygon:hover { stroke:red;stroke-width:2; } 
    </style>
    <svg contentScriptType="text/ecmascript" zoomAndPan="magnify" contentStyleType="text/css" class="Panel"
         preserveAspectRatio="xMidYMid meet" version="1.0">
        <polygon points="7,87 280,87 277,355 7,355 7,87" id="CYB_COSMOZONE_014_panel_0">
            <metadata viewAngle="" shot="" rank="1"/>
        </polygon>
        <polygon points="291,87 562,88 560,357 290,355 291,87" id="CYB_COSMOZONE_014_panel_1">
            <metadata viewAngle="" shot="" rank="2"/>
        </polygon>
        <polygon points="6,367 278,367 276,636 5,637 6,367" id="CYB_COSMOZONE_014_panel_2">
            <metadata viewAngle="" shot="" rank="3"/>
        </polygon>
        <polygon points="289,367 560,368 559,636 288,636 289,367" id="CYB_COSMOZONE_014_panel_3">
            <metadata viewAngle="" shot="" rank="4"/>
        </polygon>
    </svg>
    <svg contentScriptType="text/ecmascript" zoomAndPan="magnify" contentStyleType="text/css" class="TextArea"
         preserveAspectRatio="xMidYMid meet" version="1.0"/>
    <svg contentScriptType="text/ecmascript" zoomAndPan="magnify" contentStyleType="text/css" class="Balloon"
         preserveAspectRatio="xMidYMid meet" version="1.0">
        <polygon
                points="9,88 215,86 220,93 226,101 227,110 241,116 231,120 244,125 227,129 228,136 226,147 221,161 235,174 221,172 227,183 213,177 210,182 208,188 192,201 162,216 159,217 156,233 151,225 151,235 142,221 132,220 125,221 120,232 137,226 130,241 147,235 144,247 159,243 156,254 166,272 150,264 149,255 138,261 137,251 123,257 124,240 110,242 113,222 98,225 88,223 80,237 77,228 70,239 70,222 58,220 43,217 28,207 14,215 18,200 6,203 11,194 7,189 9,88"
                id="CYB_COSMOZONE_014_balloon_0">
            <metadata borderStyle="spiky" tailTip="166,272" boundingBox="" tailDirection="SE" rank="1"/>
        </polygon>
        <polygon
                points="292,89 455,85 466,106 466,134 453,156 427,173 397,179 372,178 372,185 378,195 391,207 377,204 365,192 360,180 339,180 319,174 304,167 289,153 292,89"
                id="CYB_COSMOZONE_014_balloon_1">
            <metadata borderStyle="smooth" tailTip="391,207" boundingBox="" tailDirection="SE" rank="2"/>
        </polygon>
        <polygon
                points="341,228 353,227 361,229 366,216 369,225 380,218 377,233 388,238 398,244 400,247 413,244 407,252 418,253 409,261 411,270 412,280 408,293 407,299 415,293 417,302 423,297 423,304 448,296 422,315 418,312 409,317 408,308 398,315 398,306 390,310 383,312 379,330 373,318 370,327 363,317 350,318 341,317 324,314 311,326 314,315 306,316 311,308 301,301 294,290 290,283 291,254 297,246 307,237 313,234 311,218 322,227 323,215 331,230 341,228"
                id="CYB_COSMOZONE_014_balloon_2">
            <metadata borderStyle="spiky" tailTip="448,296" boundingBox="" tailDirection="NE" rank="3"/>
        </polygon>
        <polygon
                points="6,366 162,366 170,375 177,400 172,422 159,437 149,442 123,454 96,457 86,457 87,467 98,483 87,480 78,470 73,460 47,458 30,452 17,445 5,432 6,366 6,366"
                id="CYB_COSMOZONE_014_balloon_3">
            <metadata borderStyle="smooth" tailTip="98,483" boundingBox="" tailDirection="SE" rank="4"/>
        </polygon>
        <polygon
                points="36,507 43,507 55,506 62,508 67,494 72,503 82,495 79,513 88,517 97,522 102,527 116,527 108,534 122,534 110,542 113,556 113,566 109,578 108,584 117,578 117,586 125,584 125,591 133,591 122,602 119,597 110,605 108,595 98,601 99,592 96,594 85,600 80,616 74,604 71,616 64,604 51,606 37,605 25,600 13,614 14,601 7,604 11,593 7,589 5,522 8,516 13,514 13,495 22,506 25,493 33,508 36,507"
                id="CYB_COSMOZONE_014_balloon_4">
            <metadata borderStyle="spiky" tailTip="133,591" boundingBox="" tailDirection="E" rank="5"/>
        </polygon>
        <polygon
                points="369,390 391,391 411,400 425,415 430,431 427,444 419,459 411,465 400,472 388,472 393,479 400,486 390,485 377,472 353,472 325,466 306,446 308,422 322,404 341,393 369,390"
                id="CYB_COSMOZONE_014_balloon_5">
            <metadata borderStyle="smooth" tailTip="400,486" boundingBox="" tailDirection="SE" rank="6"/>
        </polygon>
    </svg>
    <svg contentScriptType="text/ecmascript" zoomAndPan="magnify" contentStyleType="text/css" class="Character"
         preserveAspectRatio="xMidYMid meet" version="1.0">
        <polygon points="165,183 255,183 255,350 165,350 165,183" id="CYB_COSMOZONE_014_character_0">
            <metadata uri="" area="" fillingPcent=""/>
        </polygon>
        <polygon points="441,187 539,187 539,350 441,350 441,187" id="CYB_COSMOZONE_014_character_1">
            <metadata uri="" area="" fillingPcent=""/>
        </polygon>
        <polygon points="108,432 259,432 259,632 108,632 108,432" id="CYB_COSMOZONE_014_character_2">
            <metadata uri="" area="" fillingPcent=""/>
        </polygon>
        <polygon points="438,462 538,462 538,631 438,631 438,462" id="CYB_COSMOZONE_014_character_3">
            <metadata uri="" area="" fillingPcent=""/>
        </polygon>
    </svg>
    <svg contentScriptType="text/ecmascript" zoomAndPan="magnify" contentStyleType="text/css" class="Line"
         preserveAspectRatio="xMidYMid meet" version="1.0">
        <polygon points="68,34 191,34 191,65 68,64 68,34" id="CYB_COSMOZONE_014_line_0">
            <metadata method="" typography="" textType="note">Studio cyborg</metadata>
        </polygon>
        <polygon points="169,54 237,54 237,69 169,69 169,54" id="CYB_COSMOZONE_014_line_1">
            <metadata method="" typography="" textType="note">presente :</metadata>
        </polygon>
        <polygon points="15,95 216,95 216,106 15,109 15,95" id="CYB_COSMOZONE_014_line_2">
            <metadata method="" typography="" idBalloon="CYB_COSMOZONE_014_balloon_0" textType="speech">Major Goadec ?
                Commandant
            </metadata>
        </polygon>
        <polygon points="13,106 215,106 215,120 13,120 13,106" id="CYB_COSMOZONE_014_line_3">
            <metadata method="" typography="" idBalloon="CYB_COSMOZONE_014_balloon_0" textType="speech">John Cool à
                l'appareil. Je viens
            </metadata>
        </polygon>
        <polygon points="15,118 216,119 216,131 15,131 15,118" id="CYB_COSMOZONE_014_line_4">
            <metadata method="" typography="" idBalloon="CYB_COSMOZONE_014_balloon_0" textType="speech">d'apprendre que
                vous serez
            </metadata>
        </polygon>
        <polygon points="15,130 215,130 215,142 15,142 15,130" id="CYB_COSMOZONE_014_line_5">
            <metadata method="" typography="" idBalloon="CYB_COSMOZONE_014_balloon_0" textType="speech">responsable
                machine à bord
            </metadata>
        </polygon>
        <polygon points="15,141 216,143 215,155 15,155 15,141" id="CYB_COSMOZONE_014_line_6">
            <metadata method="" typography="" idBalloon="CYB_COSMOZONE_014_balloon_0" textType="speech">de l'Hippocampe.
                Je me
            </metadata>
        </polygon>
        <polygon points="15,155 215,154 215,167 15,167 15,155" id="CYB_COSMOZONE_014_line_7">
            <metadata method="" typography="" idBalloon="CYB_COSMOZONE_014_balloon_0" textType="speech">permets donc de
                vous appeler
            </metadata>
        </polygon>
        <polygon points="15,165 199,165 202,177 15,178 15,165" id="CYB_COSMOZONE_014_line_8">
            <metadata method="" typography="" idBalloon="CYB_COSMOZONE_014_balloon_0" textType="speech">à quelques
                heures du départ,
            </metadata>
        </polygon>
        <polygon points="34,176 163,177 163,191 34,188 34,176" id="CYB_COSMOZONE_014_line_9">
            <metadata method="" typography="" idBalloon="CYB_COSMOZONE_014_balloon_0" textType="speech">histoire de
                faire plus
            </metadata>
        </polygon>
        <polygon points="34,188 163,189 167,201 34,201 34,188" id="CYB_COSMOZONE_014_line_10">
            <metadata method="" typography="" idBalloon="CYB_COSMOZONE_014_balloon_0" textType="speech">ample
                connaissance.
            </metadata>
        </polygon>
        <polygon points="320,109 431,109 430,122 320,120 320,109" id="CYB_COSMOZONE_014_line_11">
            <metadata method="" typography="" idBalloon="CYB_COSMOZONE_014_balloon_1" textType="speech">Avant d'aller
                plus
            </metadata>
        </polygon>
        <polygon points="318,120 433,121 432,134 318,134 318,120" id="CYB_COSMOZONE_014_line_12">
            <metadata method="" typography="" idBalloon="CYB_COSMOZONE_014_balloon_1" textType="speech">loin, puis-je
                savoir
            </metadata>
        </polygon>
        <polygon points="339,133 411,133 411,147 340,146 339,133" id="CYB_COSMOZONE_014_line_13">
            <metadata method="" typography="" idBalloon="CYB_COSMOZONE_014_balloon_1" textType="speech">votre âge ?
            </metadata>
        </polygon>
        <polygon points="336,251 370,250 370,261 328,261 336,251" id="CYB_COSMOZONE_014_line_14">
            <metadata method="" typography="" idBalloon="CYB_COSMOZONE_014_balloon_2" textType="speech">... Mon
            </metadata>
        </polygon>
        <polygon points="321,261 378,261 378,275 321,276 321,261" id="CYB_COSMOZONE_014_line_15">
            <metadata method="" typography="" idBalloon="CYB_COSMOZONE_014_balloon_2" textType="speech">âge ?! Et
            </metadata>
        </polygon>
        <polygon points="308,274 391,274 391,288 308,287 308,274" id="CYB_COSMOZONE_014_line_16">
            <metadata method="" typography="" idBalloon="CYB_COSMOZONE_014_balloon_2" textType="speech">bien oui ...
                j'ai
            </metadata>
        </polygon>
        <polygon points="323,287 368,288 376,298 323,297 323,287" id="CYB_COSMOZONE_014_line_17">
            <metadata method="" typography="" idBalloon="CYB_COSMOZONE_014_balloon_2" textType="speech">28 ans ...
            </metadata>
        </polygon>
        <polygon points="30,380 137,380 137,391 30,391 30,380" id="CYB_COSMOZONE_014_line_18">
            <metadata method="" typography="" idBalloon="CYB_COSMOZONE_014_balloon_3" textType="speech">Bien.
                Maintenant
            </metadata>
        </polygon>
        <polygon points="30,392 137,392 137,405 30,404 30,392" id="CYB_COSMOZONE_014_line_19">
            <metadata method="" typography="" idBalloon="CYB_COSMOZONE_014_balloon_3" textType="speech">monsieur Cool,
                je
            </metadata>
        </polygon>
        <polygon points="24,404 141,404 141,415 24,415 24,404" id="CYB_COSMOZONE_014_line_20">
            <metadata method="" typography="" idBalloon="CYB_COSMOZONE_014_balloon_3" textType="speech">voudrais
                connaître
            </metadata>
        </polygon>
        <polygon points="48,416 118,416 118,428 48,428 48,416" id="CYB_COSMOZONE_014_line_21">
            <metadata method="" typography="" idBalloon="CYB_COSMOZONE_014_balloon_3" textType="speech">votre signe
            </metadata>
        </polygon>
        <polygon points="42,428 123,429 123,442 42,442 42,428" id="CYB_COSMOZONE_014_line_22">
            <metadata method="" typography="" idBalloon="CYB_COSMOZONE_014_balloon_3" textType="speech">astrologique.
            </metadata>
        </polygon>
        <polygon points="32,523 80,522 80,534 32,534 32,523" id="CYB_COSMOZONE_014_line_23">
            <metadata method="" typography="" idBalloon="CYB_COSMOZONE_014_balloon_4" textType="speech">? ... Mon
            </metadata>
        </polygon>
        <polygon points="15,535 96,535 96,546 15,548 15,535" id="CYB_COSMOZONE_014_line_24">
            <metadata method="" typography="" idBalloon="CYB_COSMOZONE_014_balloon_4" textType="speech">quoi ?! ...
                Heu
            </metadata>
        </polygon>
        <polygon points="13,547 99,547 99,560 13,560 13,547" id="CYB_COSMOZONE_014_line_25">
            <metadata method="" typography="" idBalloon="CYB_COSMOZONE_014_balloon_4" textType="speech">et bien je
                suis
            </metadata>
        </polygon>
        <polygon points="26,558 82,560 87,570 26,570 26,558" id="CYB_COSMOZONE_014_line_26">
            <metadata method="" typography="" idBalloon="CYB_COSMOZONE_014_balloon_4" textType="speech">balance ...
            </metadata>
        </polygon>
        <polygon points="12,571 101,571 101,584 12,584 12,571" id="CYB_COSMOZONE_014_line_27">
            <metadata method="" typography="" idBalloon="CYB_COSMOZONE_014_balloon_4" textType="speech">Enfin je crois
                ...
            </metadata>
        </polygon>
        <polygon points="37,583 76,583 76,594 37,594 37,583" id="CYB_COSMOZONE_014_line_28">
            <metadata method="" typography="" idBalloon="CYB_COSMOZONE_014_balloon_4" textType="speech">Mais ...
            </metadata>
        </polygon>
        <polygon points="198,571 218,565 217,572 198,578 198,571" id="CYB_COSMOZONE_014_line_29">
            <metadata method="" typography="" textType="illustrative">Amour</metadata>
        </polygon>
        <polygon points="205,578 211,577 210,584 204,585 205,578" id="CYB_COSMOZONE_014_line_30">
            <metadata method="" typography="" textType="illustrative">et</metadata>
        </polygon>
        <polygon points="195,590 221,585 222,591 196,597 195,590" id="CYB_COSMOZONE_014_line_31">
            <metadata method="" typography="" textType="illustrative">horoscope</metadata>
        </polygon>
        <polygon points="338,409 399,409 399,424 338,424 338,409" id="CYB_COSMOZONE_014_line_32">
            <metadata method="" typography="" idBalloon="CYB_COSMOZONE_014_balloon_5" textType="speech">Désolé, je
            </metadata>
        </polygon>
        <polygon points="331,424 406,424 406,437 331,436 331,424" id="CYB_COSMOZONE_014_line_33">
            <metadata method="" typography="" idBalloon="CYB_COSMOZONE_014_balloon_5" textType="speech">crois que ça
            </metadata>
        </polygon>
        <polygon points="324,437 414,435 414,449 324,449 324,437" id="CYB_COSMOZONE_014_line_34">
            <metadata method="" typography="" idBalloon="CYB_COSMOZONE_014_balloon_5" textType="speech">ne va pas être
            </metadata>
        </polygon>
        <polygon points="341,447 395,447 395,460 341,460 341,447" id="CYB_COSMOZONE_014_line_35">
            <metadata method="" typography="" idBalloon="CYB_COSMOZONE_014_balloon_5" textType="speech">possible.
            </metadata>
        </polygon>
        <polygon points="427,640 558,641 558,648 427,648 427,640" id="CYB_COSMOZONE_014_line_36">
            <metadata method="" typography="" textType="speech">2008/2009 copyright Cyborg 07</metadata>
        </polygon>
    </svg>
    <svg contentScriptType="text/ecmascript" zoomAndPan="magnify" contentStyleType="text/css" class="linkSBSC"
         preserveAspectRatio="xMidYMid meet" version="1.0">
        <polygon points="125,179 126,179 211,266 210,266 125,179" idCharacter="CYB_COSMOZONE_014_character_0"
                 idBalloon="CYB_COSMOZONE_014_balloon_0"/>
        <polygon points="377,146 378,146 491,268 490,268 377,146" idCharacter="CYB_COSMOZONE_014_character_1"
                 idBalloon="CYB_COSMOZONE_014_balloon_1"/>
        <polygon points="369,272 370,272 491,268 490,268 369,272" idCharacter="CYB_COSMOZONE_014_character_1"
                 idBalloon="CYB_COSMOZONE_014_balloon_2"/>
        <polygon points="91,424 92,424 184,532 183,532 91,424" idCharacter="CYB_COSMOZONE_014_character_2"
                 idBalloon="CYB_COSMOZONE_014_balloon_3"/>
        <polygon points="69,554 70,554 184,532 183,532 69,554" idCharacter="CYB_COSMOZONE_014_character_2"
                 idBalloon="CYB_COSMOZONE_014_balloon_4"/>
        <polygon points="368,438 369,438 489,546 488,546 368,438" idCharacter="CYB_COSMOZONE_014_character_3"
                 idBalloon="CYB_COSMOZONE_014_balloon_5"/>
    </svg>
    <metadata method="GroundTruth" lastModificationDate="Sun Jan 26 13:38:15 CET 2014" lastStepModified="Balloon_Rank"/>
</svg>