<?xml version="1.0" encoding="UTF-8" standalone="no"?>
<svg xmlns:xlink="http://www.w3.org/1999/xlink" xmlns="http://www.w3.org/2000/svg" contentScriptType="text/ecmascript"
     width="374mm" zoomAndPan="magnify" contentStyleType="text/css" height="526mm" viewBox="0 0 749 1052"
     preserveAspectRatio="xMidYMid meet" version="1.0">
    <title>CYB_MOUETTEMAN_002</title>
    <svg contentScriptType="text/ecmascript" zoomAndPan="magnify" contentStyleType="text/css" class="Page"
         preserveAspectRatio="xMidYMid meet" version="1.0">
        <image x="0" y="0" width="749" xlink:href="../Pages/CYB_MOUETTEMAN_002.jpg" xlink:type="simple"
               xlink:actuate="onLoad" height="1052" preserveAspectRatio="xMidYMid meet" xlink:show="embed"/>
        <metadata collectionTitle="Les aventures de MouetteMan et TeckelBoy" editorName="Studio Cyborga"
                  doublePage="false" website="http://30joursdebd.com/author/cyborg07/" albumTitle=""
                  drawerName="Cyborg 07" language="french" resolution="" ISBN="" readingDirection="leftToRight"
                  writerName="Cyborg 07" releaseDate="2011" pageNumber="2"/>
    </svg>
    <style type="text/css" xml:space="preserve">
        * { stroke-width: 0; stroke-linejoin: round; }
        .Unclassified { fill: orange; stroke: none; opacity: 1.0; visibility: hidden; }
        .Noise { fill: pink; stroke: none; opacity: 0.2; visibility: hidden; }
        .Panel { fill: red; stroke: none; opacity: 0.3; visibility: visible; image-rendering: optimizeSpeed; }
        .Line { fill: green; stroke: none; opacity: 0.5; visibility: visible; image-rendering: optimizeSpeed; }
        .TextArea { fill: grey; stroke: none; opacity: 0.2; visibility: visible; image-rendering: optimizeSpeed; }
        .Balloon { fill: cyan; stroke: none; opacity: 0.5; visibility: visible; image-rendering: optimizeSpeed; }
        .Letter { fill: blue; stroke: none; opacity: 0.2; visibility: hidden; }
        .Character { fill: yellow; stroke: none; opacity: 0.3; visibility: visible; image-rendering: optimizeSpeed; }
        .Page { fill: white; stroke: none; opacity: 0.5; visibility: visible; }
        .linkSBSC { fill: blue; stroke: none; opacity: 0.5; visibility: visible; }
        polygon:hover { stroke:red;stroke-width:2; } 
    </style>
    <svg contentScriptType="text/ecmascript" zoomAndPan="magnify" contentStyleType="text/css" class="Panel"
         preserveAspectRatio="xMidYMid meet" version="1.0">
        <polygon points="229,9 513,9 513,253 229,253 229,9" id="CYB_MOUETTEMAN_002_panel_0">
            <metadata viewAngle="normal" shot="mean" rank="1"/>
        </polygon>
        <polygon points="229,271 515,271 515,516 229,516 229,271" id="CYB_MOUETTEMAN_002_panel_1">
            <metadata viewAngle="normal" shot="veryClose" rank="2"/>
        </polygon>
        <polygon points="230,537 514,533 514,777 230,777 230,537" id="CYB_MOUETTEMAN_002_panel_2">
            <metadata viewAngle="normal" shot="mean" rank="3"/>
        </polygon>
        <polygon points="231,795 515,795 515,1036 231,1036 231,795" id="CYB_MOUETTEMAN_002_panel_3">
            <metadata viewAngle="normal" shot="mean" rank="4"/>
        </polygon>
    </svg>
    <svg contentScriptType="text/ecmascript" zoomAndPan="magnify" contentStyleType="text/css" class="TextArea"
         preserveAspectRatio="xMidYMid meet" version="1.0"/>
    <svg contentScriptType="text/ecmascript" zoomAndPan="magnify" contentStyleType="text/css" class="Balloon"
         preserveAspectRatio="xMidYMid meet" version="1.0">
        <polygon
                points="228,361 231,270 470,269 477,279 484,291 488,304 491,316 492,328 488,345 480,360 470,367 461,374 357,392 335,393 315,393 298,392 293,401 302,404 296,419 308,422 316,426 326,434 334,434 334,437 323,438 312,430 306,430 285,429 286,418 290,410 285,409 276,410 281,399 285,388 264,385 250,379 240,373 228,361"
                id="CYB_MOUETTEMAN_002_balloon_0">
            <metadata borderStyle="smooth" tailTip="334,437" boundingBox="" tailDirection="E" rank="1"/>
        </polygon>
        <polygon
                points="303,567 299,571 294,572 296,580 287,577 292,588 272,581 268,594 262,586 255,596 250,588 243,594 242,590 231,594 234,582 223,585 222,570 224,557 225,543 228,536 236,533 245,529 258,529 270,529 281,529 292,529 298,531 303,532 306,536 307,542 308,549 308,551 324,545 331,542 333,546 333,550 341,548 347,545 353,545 355,547 356,550 358,551 366,551 365,546 367,542 372,535 373,533 386,529 398,527 420,528 438,528 450,527 470,528 486,528 500,528 509,530 514,535 517,542 520,550 521,563 522,571 523,580 523,588 518,591 511,597 506,599 507,606 506,615 496,622 498,616 498,609 495,605 480,610 462,614 436,613 421,612 400,606 386,597 370,582 363,571 362,558 352,559 348,556 348,552 340,556 330,558 324,558 324,553 320,554 312,556 307,558 306,563 303,567"
                id="CYB_MOUETTEMAN_002_balloon_1">
            <metadata borderStyle="other" tailTip="496,622" boundingBox="" tailDirection="SW" rank="2"/>
        </polygon>
        <polygon
                points="334,815 350,813 372,815 392,825 399,832 405,842 406,849 405,858 396,870 383,880 371,885 363,886 353,886 351,891 350,899 354,908 347,904 343,895 342,886 331,882 312,873 302,856 304,838 311,827 334,815"
                id="CYB_MOUETTEMAN_002_balloon_2">
            <metadata borderStyle="smooth" tailTip="354,908" boundingBox="" tailDirection="S" rank="3"/>
        </polygon>
        <polygon
                points="475,834 481,830 487,828 496,827 502,828 508,830 513,833 517,837 518,842 518,869 514,873 510,875 508,876 505,883 502,892 496,899 498,892 499,884 498,879 488,879 476,873 469,864 467,851 470,841 475,834"
                id="CYB_MOUETTEMAN_002_balloon_3">
            <metadata borderStyle="smooth" tailTip="496,899" boundingBox="" tailDirection="S" rank="4"/>
        </polygon>
    </svg>
    <svg contentScriptType="text/ecmascript" zoomAndPan="magnify" contentStyleType="text/css" class="Character"
         preserveAspectRatio="xMidYMid meet" version="1.0">
        <polygon points="332,352 514,352 514,514 332,514 332,352" id="CYB_MOUETTEMAN_002_character_0">
            <metadata uri="" area="" fillingPcent=""/>
        </polygon>
        <polygon points="335,623 433,623 433,760 335,760 335,623" id="CYB_MOUETTEMAN_002_character_1">
            <metadata uri="" area="" fillingPcent=""/>
        </polygon>
        <polygon points="437,619 508,619 508,759 437,759 437,619" id="CYB_MOUETTEMAN_002_character_2">
            <metadata uri="" area="" fillingPcent=""/>
        </polygon>
        <polygon points="335,890 424,890 424,1018 335,1018 335,890" id="CYB_MOUETTEMAN_002_character_3">
            <metadata uri="" area="" fillingPcent=""/>
        </polygon>
        <polygon points="429,881 502,881 502,1020 429,1020 429,881" id="CYB_MOUETTEMAN_002_character_4">
            <metadata uri="" area="" fillingPcent=""/>
        </polygon>
    </svg>
    <svg contentScriptType="text/ecmascript" zoomAndPan="magnify" contentStyleType="text/css" class="Line"
         preserveAspectRatio="xMidYMid meet" version="1.0">
        <polygon points="252,18 496,18 496,38 252,38 252,18" id="CYB_MOUETTEMAN_002_line_0">
            <metadata method="" typography="" textType="note">LES EXTRAORDINAIRES</metadata>
        </polygon>
        <polygon points="294,36 454,36 454,56 294,56 294,36" id="CYB_MOUETTEMAN_002_line_1">
            <metadata method="" typography="" textType="note">AVENTURES DE</metadata>
        </polygon>
        <polygon points="237,72 362,72 362,97 237,97 237,72" id="CYB_MOUETTEMAN_002_line_2">
            <metadata method="" typography="" textType="note">MOUETTE</metadata>
        </polygon>
        <polygon points="402,71 504,71 504,95 402,95 402,71" id="CYB_MOUETTEMAN_002_line_3">
            <metadata method="" typography="" textType="note">TECKEL</metadata>
        </polygon>
        <polygon points="423,94 482,94 482,120 423,120 423,94" id="CYB_MOUETTEMAN_002_line_4">
            <metadata method="" typography="" textType="note">BOY</metadata>
        </polygon>
        <polygon points="271,97 330,97 330,120 271,120 271,97" id="CYB_MOUETTEMAN_002_line_5">
            <metadata method="" typography="" textType="note">MAN</metadata>
        </polygon>
        <polygon points="367,74 401,74 401,117 367,117 367,74" id="CYB_MOUETTEMAN_002_line_6">
            <metadata method="" typography="" textType="note">&amp;</metadata>
        </polygon>
        <polygon points="248,288 457,288 457,302 248,302 248,288" id="CYB_MOUETTEMAN_002_line_7">
            <metadata method="" typography="" idBalloon="CYB_MOUETTEMAN_002_balloon_0" textType="speech">CARABISTOUILLR
                ! JE DOIS VITE ALLER
            </metadata>
        </polygon>
        <polygon points="248,302 456,302 456,313 248,313 248,302" id="CYB_MOUETTEMAN_002_line_8">
            <metadata method="" typography="" idBalloon="CYB_MOUETTEMAN_002_balloon_0" textType="speech">PORTER SECOURS
                A TECKEL BOY, MON
            </metadata>
        </polygon>
        <polygon points="250,313 455,313 455,324 250,324 250,313" id="CYB_MOUETTEMAN_002_line_9">
            <metadata method="" typography="" idBalloon="CYB_MOUETTEMAN_002_balloon_0" textType="speech">FIDELE
                COMPAGNON PARTI AFFRONTER
            </metadata>
        </polygon>
        <polygon points="250,324 455,324 455,334 250,334 250,324" id="CYB_MOUETTEMAN_002_line_10">
            <metadata method="" typography="" idBalloon="CYB_MOUETTEMAN_002_balloon_0" textType="speech">SEUL UNE BANDE
                DE MÉCHANTS DANS
            </metadata>
        </polygon>
        <polygon points="256,334 450,334 450,346 256,346 256,334" id="CYB_MOUETTEMAN_002_line_11">
            <metadata method="" typography="" idBalloon="CYB_MOUETTEMAN_002_balloon_0" textType="speech">UNE RUELLE
                SOMBRE DE LA VILLE !!
            </metadata>
        </polygon>
        <polygon points="232,536 292,536 292,548 232,548 232,536" id="CYB_MOUETTEMAN_002_line_12">
            <metadata method="" typography="" idBalloon="CYB_MOUETTEMAN_002_balloon_1" textType="speech">COURAGE !
            </metadata>
        </polygon>
        <polygon points="235,548 290,548 290,561 235,561 235,548" id="CYB_MOUETTEMAN_002_line_13">
            <metadata method="" typography="" idBalloon="CYB_MOUETTEMAN_002_balloon_1" textType="speech">J'ARRI...?!
            </metadata>
        </polygon>
        <polygon points="385,530 505,530 505,542 385,542 385,530" id="CYB_MOUETTEMAN_002_line_14">
            <metadata method="" typography="" idBalloon="CYB_MOUETTEMAN_002_balloon_1" textType="speech">MAIS QUE
                VOIS-JE ? LA
            </metadata>
        </polygon>
        <polygon points="376,540 515,540 515,551 376,551 376,540" id="CYB_MOUETTEMAN_002_line_15">
            <metadata method="" typography="" idBalloon="CYB_MOUETTEMAN_002_balloon_1" textType="speech">BANDE D'INFAMES
                A TERRE,
            </metadata>
        </polygon>
        <polygon points="379,551 513,551 513,562 379,562 379,551" id="CYB_MOUETTEMAN_002_line_16">
            <metadata method="" typography="" idBalloon="CYB_MOUETTEMAN_002_balloon_1" textType="speech">TÉTANISÉE ?!
                BON TRAVAIL
            </metadata>
        </polygon>
        <polygon points="376,561 518,561 518,573 376,573 376,561" id="CYB_MOUETTEMAN_002_line_17">
            <metadata method="" typography="" idBalloon="CYB_MOUETTEMAN_002_balloon_1" textType="speech">TECKEL BOY !
                COMMENT T'Y
            </metadata>
        </polygon>
        <polygon points="399,571 495,571 495,583 399,583 399,571" id="CYB_MOUETTEMAN_002_line_18">
            <metadata method="" typography="" idBalloon="CYB_MOUETTEMAN_002_balloon_1" textType="speech">EST TU PRIS ?
                GAZ
            </metadata>
        </polygon>
        <polygon points="385,582 506,582 506,594 385,594 385,582" id="CYB_MOUETTEMAN_002_line_19">
            <metadata method="" typography="" idBalloon="CYB_MOUETTEMAN_002_balloon_1" textType="speech">PARALYSANT ?
                KUNG-FU
            </metadata>
        </polygon>
        <polygon points="408,594 485,594 485,604 408,604 408,594" id="CYB_MOUETTEMAN_002_line_20">
            <metadata method="" typography="" idBalloon="CYB_MOUETTEMAN_002_balloon_1" textType="speech">ÉNERGÉTIQUE ?
            </metadata>
        </polygon>
        <polygon points="316,835 388,835 388,845 316,845 316,835" id="CYB_MOUETTEMAN_002_line_21">
            <metadata method="" typography="" idBalloon="CYB_MOUETTEMAN_002_balloon_2" textType="speech">NON... JE ME
            </metadata>
        </polygon>
        <polygon points="320,845 382,845 382,855 320,855 320,845" id="CYB_MOUETTEMAN_002_line_22">
            <metadata method="" typography="" idBalloon="CYB_MOUETTEMAN_002_balloon_2" textType="speech">SUIS JUSTE
            </metadata>
        </polygon>
        <polygon points="322,855 379,855 379,867 322,867 322,855" id="CYB_MOUETTEMAN_002_line_23">
            <metadata method="" typography="" idBalloon="CYB_MOUETTEMAN_002_balloon_2" textType="speech">PRÉSENTÉ.
            </metadata>
        </polygon>
        <polygon points="479,835 506,835 506,845 479,845 479,835" id="CYB_MOUETTEMAN_002_line_24">
            <metadata method="" typography="" idBalloon="CYB_MOUETTEMAN_002_balloon_3" textType="speech">AH...
            </metadata>
        </polygon>
        <polygon points="483,845 505,845 505,856 483,856 483,845" id="CYB_MOUETTEMAN_002_line_25">
            <metadata method="" typography="" idBalloon="CYB_MOUETTEMAN_002_balloon_3" textType="speech">PAS</metadata>
        </polygon>
        <polygon points="474,854 513,854 513,866 474,866 474,854" id="CYB_MOUETTEMAN_002_line_26">
            <metadata method="" typography="" idBalloon="CYB_MOUETTEMAN_002_balloon_3" textType="speech">COOL...
            </metadata>
        </polygon>
        <polygon points="244,912 289,902 293,913 246,923 244,912" id="CYB_MOUETTEMAN_002_line_27">
            <metadata method="" typography="" textType="speech">WOARF !</metadata>
        </polygon>
        <polygon points="241,922 297,910 303,922 245,936 241,922" id="CYB_MOUETTEMAN_002_line_28">
            <metadata method="" typography="" textType="speech">WOUARF !!</metadata>
        </polygon>
        <polygon points="234,936 309,918 314,932 239,947 234,936" id="CYB_MOUETTEMAN_002_line_29">
            <metadata method="" typography="" textType="speech">TECKEL BOY !!</metadata>
        </polygon>
        <polygon points="298,941 347,954 344,966 295,956 298,941" id="CYB_MOUETTEMAN_002_line_30">
            <metadata method="" typography="" textType="speech">HA HA HA</metadata>
        </polygon>
        <polygon points="332,977 398,964 401,978 334,991 332,977" id="CYB_MOUETTEMAN_002_line_31">
            <metadata method="" typography="" textType="speech">LA HONTE !!</metadata>
        </polygon>
        <polygon points="418,961 455,962 455,972 419,973 418,961" id="CYB_MOUETTEMAN_002_line_32">
            <metadata method="" typography="" textType="speech">SUPER</metadata>
        </polygon>
        <polygon points="410,971 463,971 463,983 410,984 410,971" id="CYB_MOUETTEMAN_002_line_33">
            <metadata method="" typography="" textType="speech">TOUTOU !</metadata>
        </polygon>
        <polygon points="482,947 510,958 504,969 476,959 482,947" id="CYB_MOUETTEMAN_002_line_34">
            <metadata method="" typography="" textType="speech">HIHIHI</metadata>
        </polygon>
        <polygon points="312,621 355,635 347,653 307,639 312,621" id="CYB_MOUETTEMAN_002_line_35">
            <metadata method="" typography="" textType="illustrative">FUCKY</metadata>
        </polygon>
        <polygon points="312,883 356,896 347,913 308,898 312,883" id="CYB_MOUETTEMAN_002_line_36">
            <metadata method="" typography="" idBalloon="CYB_MOUETTEMAN_002_balloon_2" textType="speech">FUCKY
            </metadata>
        </polygon>
    </svg>
    <svg contentScriptType="text/ecmascript" zoomAndPan="magnify" contentStyleType="text/css" class="linkSBSC"
         preserveAspectRatio="xMidYMid meet" version="1.0">
        <polygon points="360,353 361,353 424,433 423,433 360,353" idCharacter="CYB_MOUETTEMAN_002_character_0"
                 idBalloon="CYB_MOUETTEMAN_002_balloon_0"/>
        <polygon points="372,574 373,574 473,689 472,689 372,574" idCharacter="CYB_MOUETTEMAN_002_character_2"
                 idBalloon="CYB_MOUETTEMAN_002_balloon_1"/>
        <polygon points="354,860 355,860 380,954 379,954 354,860" idCharacter="CYB_MOUETTEMAN_002_character_3"
                 idBalloon="CYB_MOUETTEMAN_002_balloon_2"/>
        <polygon points="492,863 493,863 466,950 465,950 492,863" idCharacter="CYB_MOUETTEMAN_002_character_4"
                 idBalloon="CYB_MOUETTEMAN_002_balloon_3"/>
    </svg>
    <metadata method="GroundTruth" lastModificationDate="Mon Feb 03 18:57:06 CET 2014" lastStepModified="Balloon_Rank"/>
</svg>