<?xml version="1.0" encoding="UTF-8" standalone="no"?>
<svg xmlns="http://www.w3.org/2000/svg" xmlns:xlink="http://www.w3.org/1999/xlink" contentScriptType="text/ecmascript" width="375mm" zoomAndPan="magnify" contentStyleType="text/css" height="530mm" viewBox="0 0 750 1060" preserveAspectRatio="xMidYMid meet" version="1.0">
    <title>CYB_BUBBLEGOM_T01_009</title>
    <svg contentScriptType="text/ecmascript" zoomAndPan="magnify" contentStyleType="text/css" class="Page" preserveAspectRatio="xMidYMid meet" version="1.0">
        <image x="0" y="0" width="750" xlink:href="../Pages/CYB_BUBBLEGOM_T01_009.jpg" xlink:type="simple" xlink:actuate="onLoad" height="1060" preserveAspectRatio="xMidYMid meet" xlink:show="embed"/>
        <metadata collectionTitle="Bubblegôm Gôm" editorName="Studio Cyborga" doublePage="false" website="http://bubblegom.webcomics.fr/page/bubbleg%C3%B4m-la-couv#page" albumTitle="La Légende des Yaouanks" drawerName="Cyborg 07" language="french" resolution="" ISBN="979-10-90655-01-0" readingDirection="leftToRight" writerName="Cyborg 07" releaseDate="2009" pageNumber="9"/>
    </svg>
	<style type="text/css" xml:space="preserve">
        * { stroke-width: 0; stroke-linejoin: round; }
        .Unclassified { fill: orange; stroke: none; opacity: 1.0; visibility: hidden; }
        .Noise { fill: pink; stroke: none; opacity: 0.2; visibility: hidden; }
        .Panel { fill: red; stroke: none; opacity: 0.3; visibility: visible; image-rendering: optimizeSpeed; }
        .Line { fill: green; stroke: none; opacity: 0.5; visibility: visible; image-rendering: optimizeSpeed; }
        .TextArea { fill: grey; stroke: none; opacity: 0.2; visibility: visible; image-rendering: optimizeSpeed; }
        .Balloon { fill: cyan; stroke: none; opacity: 0.5; visibility: visible; image-rendering: optimizeSpeed; }
        .Letter { fill: blue; stroke: none; opacity: 0.2; visibility: hidden; }
        .Character { fill: yellow; stroke: none; opacity: 0.3; visibility: visible; image-rendering: optimizeSpeed; }
        .Page { fill: white; stroke: none; opacity: 0.5; visibility: visible; }
        .linkSBSC { fill: blue; stroke: none; opacity: 0.5; visibility: visible; }
        polygon:hover { stroke:red;stroke-width:2; } 
    </style><svg contentScriptType="text/ecmascript" zoomAndPan="magnify" contentStyleType="text/css" class="Panel" preserveAspectRatio="xMidYMid meet" version="1.0">
        <polygon points="304,336 696,333 696,566 304,567 304,336" id="CYB_BUBBLEGOM_T01_009_panel_0">
            <metadata viewAngle="normal" shot="large" rank="5"/>
        </polygon>
        <polygon points="53,84 287,84 287,306 54,306 53,84" id="CYB_BUBBLEGOM_T01_009_panel_1">
            <metadata viewAngle="normal" shot="close" rank="1"/>
        </polygon>
        <polygon points="462,84 693,84 694,302 462,305 462,84" id="CYB_BUBBLEGOM_T01_009_panel_2">
            <metadata viewAngle="normal" shot="general" rank="3"/>
        </polygon>
        <polygon points="54,329 304,330 301,595 54,595 54,329" id="CYB_BUBBLEGOM_T01_009_panel_3">
            <metadata viewAngle="normal" shot="close" rank="4"/>
        </polygon>
        <polygon points="53,594 358,596 358,753 54,752 53,594" id="CYB_BUBBLEGOM_T01_009_panel_4">
            <metadata viewAngle="normal" shot="mean" rank="6"/>
        </polygon>
        <polygon points="375,595 694,594 694,753 375,753 375,595" id="CYB_BUBBLEGOM_T01_009_panel_5">
            <metadata viewAngle="normal" shot="mean" rank="7"/>
        </polygon>
        <polygon points="54,781 233,781 234,959 53,959 54,781" id="CYB_BUBBLEGOM_T01_009_panel_6">
            <metadata viewAngle="normal" shot="close" rank="8"/>
        </polygon>
        <polygon points="302,305 300,83 446,83 446,305 302,305" id="CYB_BUBBLEGOM_T01_009_panel_7">
            <metadata viewAngle="normal" shot="veryVeryClose" rank="2"/>
        </polygon>
        <polygon points="248,959 248,781 482,780 482,960 248,959" id="CYB_BUBBLEGOM_T01_009_panel_8">
            <metadata viewAngle="normal" shot="mean" rank="9"/>
        </polygon>
        <polygon points="498,958 498,782 695,781 695,957 498,958" id="CYB_BUBBLEGOM_T01_009_panel_9">
            <metadata viewAngle="normal" shot="mean" rank="10"/>
        </polygon>
    </svg>
    <svg contentScriptType="text/ecmascript" zoomAndPan="magnify" contentStyleType="text/css" class="TextArea" preserveAspectRatio="xMidYMid meet" version="1.0"/>
    <svg contentScriptType="text/ecmascript" zoomAndPan="magnify" contentStyleType="text/css" class="Balloon" preserveAspectRatio="xMidYMid meet" version="1.0">
        <polygon points="56,181 54,180 52,83 202,84 209,86 214,90 215,93 218,98 219,101 212,110 207,121 205,131 206,141 209,146 214,156 210,161 207,166 196,175 185,181 176,184 165,188 161,186 160,189 154,191 142,191 129,192 110,192 95,193 88,191 80,190 75,189 74,191 76,195 78,200 74,199 69,194 66,190 65,187 56,181" id="CYB_BUBBLEGOM_T01_009_balloon_0">
            <metadata borderStyle="smooth" tailTip="78,200" boundingBox="" tailDirection="S" rank="1"/>
        </polygon>
        <polygon points="272,91 277,91 282,93 284,97 285,162 281,166 277,168 273,168 270,170 265,171 260,170 259,172 262,174 265,175 262,179 257,185 251,189 253,183 255,179 253,178 249,177 251,171 247,171 241,172 234,170 229,168 224,165 224,160 220,162 216,159 211,153 206,141 203,130 205,120 211,108 217,100 223,94 234,89 243,88 250,87 259,88 266,88 268,93 271,89 272,91" id="CYB_BUBBLEGOM_T01_009_balloon_1">
            <metadata borderStyle="smooth" tailTip="251,189" boundingBox="" tailDirection="SW" rank="2"/>
        </polygon>
        <polygon points="320,164 322,154 312,160 315,151 305,156 307,146 302,147 306,139 302,138 303,84 447,84 446,138 444,137 445,143 440,143 443,154 434,147 433,156 429,152 429,160 419,155 418,166 410,157 407,164 402,158 397,169 388,153 384,160 381,153 375,162 372,155 367,162 362,154 351,167 351,151 346,157 345,150 341,155 347,159 342,165 347,169 342,176 343,182 334,176 336,171 328,171 335,159 329,157 334,151 320,164" id="CYB_BUBBLEGOM_T01_009_balloon_2">
            <metadata borderStyle="spiky" tailTip="343,182" boundingBox="" tailDirection="SE" rank="3"/>
        </polygon>
        <polygon points="548,89 548,100 553,95 553,102 565,93 560,105 569,99 564,109 572,108 567,113 576,113 570,119 577,121 570,127 577,130 571,133 582,140 572,141 578,149 572,147 580,157 570,154 576,161 566,158 569,165 560,160 564,170 552,167 555,172 551,175 557,180 543,197 549,182 540,180 546,174 542,170 537,177 533,171 529,181 525,171 522,178 518,169 508,181 507,171 502,177 502,170 494,178 495,167 484,173 485,164 477,168 481,163 472,163 478,154 467,155 476,146 470,145 474,140 468,139 473,134 468,132 475,129 468,122 475,121 468,115 476,115 469,109 479,109 476,102 484,104 482,95 490,101 491,93 496,99 498,91 502,98 503,89 510,97 513,87 519,97 522,89 526,97 530,89 532,95 536,89 537,97 540,93 541,98 548,89 548,89" id="CYB_BUBBLEGOM_T01_009_balloon_3">
            <metadata borderStyle="spiky" tailTip="543,197" boundingBox="" tailDirection="SW" rank="4"/>
        </polygon>
        <polygon points="663,91 672,92 678,93 687,99 691,106 689,115 685,122 678,126 678,129 675,136 669,138 673,132 675,127 664,129 650,126 643,118 642,107 645,100 653,95 663,91" id="CYB_BUBBLEGOM_T01_009_balloon_4">
            <metadata borderStyle="smooth" tailTip="669,138" boundingBox="" tailDirection="SW" rank="5"/>
        </polygon>
        <polygon points="53,329 71,328 97,329 114,328 136,329 139,333 141,340 142,353 140,360 136,370 129,377 124,383 115,389 107,392 97,395 87,397 80,396 82,399 83,404 86,409 81,408 76,402 73,396 67,397 62,395 57,393 52,392 53,329" id="CYB_BUBBLEGOM_T01_009_balloon_5">
            <metadata borderStyle="smooth" tailTip="86,409" boundingBox="" tailDirection="SE" rank="6"/>
        </polygon>
        <polygon points="170,330 180,329 197,329 209,329 227,329 245,329 260,329 274,329 291,330 301,331 304,345 304,360 303,371 304,385 303,396 298,402 292,406 286,409 282,411 278,414 273,414 269,420 262,429 264,420 265,415 252,418 239,419 224,417 205,412 191,406 180,396 172,387 165,374 164,364 163,351 167,335 170,330" id="CYB_BUBBLEGOM_T01_009_balloon_6">
            <metadata borderStyle="smooth" tailTip="262,429" boundingBox="" tailDirection="SW" rank="7"/>
        </polygon>
        <polygon points="302,332 390,332 394,337 400,341 403,348 406,355 407,363 408,373 407,380 404,386 400,387 401,389 398,393 392,401 387,405 379,410 373,411 364,414 362,414 361,419 356,429 355,419 356,415 344,416 332,414 322,410 315,406 309,401 304,395 302,332" id="CYB_BUBBLEGOM_T01_009_balloon_7">
            <metadata borderStyle="smooth" tailTip="356,429" boundingBox="" tailDirection="S" rank="8"/>
        </polygon>
        <polygon points="591,342 600,343 607,346 613,350 618,357 617,366 613,372 608,376 609,380 605,377 594,379 584,378 575,375 568,368 566,361 570,353 576,348 583,344 591,342" id="CYB_BUBBLEGOM_T01_009_balloon_8">
            <metadata borderStyle="smooth" tailTip="609,380" boundingBox="" tailDirection="SE" rank="9"/>
        </polygon>
        <polygon points="681,458 689,461 694,464 695,566 585,567 578,557 572,539 572,523 574,515 568,515 559,517 567,509 574,508 579,502 587,490 599,477 612,468 626,462 647,458 667,457 673,458 674,462 681,458" id="CYB_BUBBLEGOM_T01_009_balloon_9">
            <metadata borderStyle="smooth" tailTip="559,517" boundingBox="" tailDirection="W" rank="10"/>
        </polygon>
        <polygon points="52,594 188,594 190,599 191,607 191,618 186,619 190,622 186,633 182,641 177,649 171,652 172,658 166,667 167,660 164,655 154,659 141,663 130,666 123,666 96,666 83,665 74,663 64,659 59,655 60,653 58,653 54,649 52,647 52,594" id="CYB_BUBBLEGOM_T01_009_balloon_10">
            <metadata borderStyle="smooth" tailTip="166,667" boundingBox="" tailDirection="S" rank="11"/>
        </polygon>
        <polygon points="203,594 359,594 359,655 356,664 351,668 343,672 336,674 329,675 322,675 275,674 262,674 248,673 238,670 236,674 235,679 235,685 230,676 231,667 226,667 218,664 210,660 204,654 200,647 203,642 199,641 198,631 197,619 198,608 203,594" id="CYB_BUBBLEGOM_T01_009_balloon_11">
            <metadata borderStyle="smooth" tailTip="235,685" boundingBox="" tailDirection="S" rank="12"/>
        </polygon>
        <polygon points="435,604 438,598 443,594 610,593 614,598 616,606 618,612 618,621 617,632 611,648 606,658 594,670 584,676 573,680 558,685 547,685 533,684 528,688 516,697 521,688 522,685 511,682 441,645 435,636 433,622 435,604" id="CYB_BUBBLEGOM_T01_009_balloon_12">
            <metadata borderStyle="smooth" tailTip="516,697" boundingBox="" tailDirection="SE" rank="13"/>
        </polygon>
        <polygon points="624,605 627,602 632,595 637,593 696,593 696,654 693,657 687,658 677,658 674,662 665,671 668,662 669,657 658,657 647,656 639,652 631,649 625,646 618,638 619,626 622,611 624,605" id="CYB_BUBBLEGOM_T01_009_balloon_13">
            <metadata borderStyle="smooth" tailTip="665,671" boundingBox="" tailDirection="SW" rank="14"/>
        </polygon>
        <polygon id="CYB_BUBBLEGOM_T01_009_balloon_14" points="80,789 85,787 89,787 93,787 97,790 100,791 105,789 111,788 116,789 123,791 126,793 129,795 131,801 130,806 130,810 131,817 128,820 125,824 124,827 119,828 115,828 112,831 109,829 110,833 106,838 103,842 101,846 100,851 97,846 98,842 96,838 99,834 102,833 100,829 96,831 92,829 89,828 85,829 81,830 77,829 74,827 67,827 62,824 63,814 62,809 60,804 61,799 63,796 66,791 71,787 80,789">
            <metadata borderStyle="wavy" tailTip="100,851" boundingBox="" tailDirection="S" rank="15"/>
        </polygon>
        <polygon points="172,788 176,789 180,793 184,792 188,789 193,791 198,790 202,789 206,790 207,791 212,791 217,792 220,794 223,797 226,801 226,806 225,811 224,814 225,822 222,827 217,831 211,832 206,834 204,834 202,835 204,845 202,846 200,848 194,848 194,850 188,855 188,851 191,848 191,844 194,842 192,840 194,833 189,833 186,831 181,834 176,830 168,833 163,829 159,822 158,816 159,814 157,810 159,803 162,798 164,791 172,788" id="CYB_BUBBLEGOM_T01_009_balloon_15">
            <metadata borderStyle="wavy" tailTip="188,855" boundingBox="" tailDirection="SW" rank="16"/>
        </polygon>
        <polygon points="360,940 341,947 318,950 291,950 266,946 251,937 252,779 483,782 483,881 478,884 468,887 464,887 463,895 456,902 453,900 458,890 448,892 426,892 408,891 397,888 392,886 392,901 389,913 381,923 369,933 360,940" id="CYB_BUBBLEGOM_T01_009_balloon_16">
            <metadata borderStyle="smooth" tailTip="456,902" boundingBox="" tailDirection="SW" rank="17"/>
        </polygon>
        <polygon points="687,798 696,799 703,801 709,809 714,819 713,832 708,841 699,851 688,853 680,854 672,864 674,852 664,846 658,833 659,820 665,810 672,803 687,798" id="CYB_BUBBLEGOM_T01_009_balloon_17">
            <metadata borderStyle="smooth" tailTip="672,864" boundingBox="" tailDirection="SW" rank="20"/>
        </polygon>
        <polygon points="515,875 503,870 499,864 499,780 641,780 647,787 651,796 654,807 657,816 656,834 650,848 646,854 642,854 643,856 637,864 624,871 613,875 600,880 595,879 586,884 578,890 578,883 583,880 550,878 526,876 515,875" id="CYB_BUBBLEGOM_T01_009_balloon_18">
            <metadata borderStyle="smooth" tailTip="578,890" boundingBox="" tailDirection="SW" rank="18"/>
        </polygon>
        <polygon points="586,892 591,889 604,888 614,889 619,896 617,904 609,911 600,913 592,911 585,916 588,910 584,906 582,899 586,892" id="CYB_BUBBLEGOM_T01_009_balloon_19">
            <metadata borderStyle="smooth" tailTip="585,916" boundingBox="" tailDirection="SW" rank="21"/>
        </polygon>
    </svg>
    <svg contentScriptType="text/ecmascript" zoomAndPan="magnify" contentStyleType="text/css" class="Character" preserveAspectRatio="xMidYMid meet" version="1.0">
        <polygon points="161,177 260,177 260,307 161,307 161,177" id="CYB_BUBBLEGOM_T01_009_character_0">
            <metadata uri="" area="" fillingPcent=""/>
        </polygon>
        <polygon points="58,194 151,194 151,306 58,306 58,194" id="CYB_BUBBLEGOM_T01_009_character_1">
            <metadata uri="" area="" fillingPcent=""/>
        </polygon>
        <polygon points="301,159 446,159 446,306 301,306 301,159" id="CYB_BUBBLEGOM_T01_009_character_2">
            <metadata uri="" area="" fillingPcent=""/>
        </polygon>
        <polygon points="626,133 667,133 667,187 626,187 626,133" id="CYB_BUBBLEGOM_T01_009_character_3">
            <metadata uri="" area="" fillingPcent=""/>
        </polygon>
        <polygon points="523,211 592,211 592,283 523,283 523,211" id="CYB_BUBBLEGOM_T01_009_character_4">
            <metadata uri="" area="" fillingPcent=""/>
        </polygon>
        <polygon points="481,220 530,220 530,288 481,288 481,220" id="CYB_BUBBLEGOM_T01_009_character_5">
            <metadata uri="" area="" fillingPcent=""/>
        </polygon>
        <polygon points="85,398 244,398 244,583 85,583 85,398" id="CYB_BUBBLEGOM_T01_009_character_6">
            <metadata uri="" area="" fillingPcent=""/>
        </polygon>
        <polygon points="621,366 688,366 688,434 621,434 621,366" id="CYB_BUBBLEGOM_T01_009_character_7">
            <metadata uri="" area="" fillingPcent=""/>
        </polygon>
        <polygon points="414,445 545,445 545,565 414,565 414,445" id="CYB_BUBBLEGOM_T01_009_character_8">
            <metadata uri="" area="" fillingPcent=""/>
        </polygon>
        <polygon points="305,440 411,440 411,568 305,568 305,440" id="CYB_BUBBLEGOM_T01_009_character_9">
            <metadata uri="" area="" fillingPcent=""/>
        </polygon>
        <polygon points="53,659 172,659 172,753 53,753 53,659" id="CYB_BUBBLEGOM_T01_009_character_10">
            <metadata uri="" area="" fillingPcent=""/>
        </polygon>
        <polygon points="229,665 352,665 352,752 229,752 229,665" id="CYB_BUBBLEGOM_T01_009_character_11">
            <metadata uri="" area="" fillingPcent=""/>
        </polygon>
        <polygon points="388,638 521,638 521,740 388,740 388,638" id="CYB_BUBBLEGOM_T01_009_character_12">
            <metadata uri="" area="" fillingPcent=""/>
        </polygon>
        <polygon points="573,638 697,638 697,740 573,740 573,638" id="CYB_BUBBLEGOM_T01_009_character_13">
            <metadata uri="" area="" fillingPcent=""/>
        </polygon>
        <polygon points="90,835 197,835 197,946 90,946 90,835" id="CYB_BUBBLEGOM_T01_009_character_14">
            <metadata uri="" area="" fillingPcent=""/>
        </polygon>
        <polygon points="369,897 465,897 465,961 369,961 369,897" id="CYB_BUBBLEGOM_T01_009_character_15">
            <metadata uri="" area="" fillingPcent=""/>
        </polygon>
        <polygon points="498,877 590,877 590,960 498,960 498,877" id="CYB_BUBBLEGOM_T01_009_character_16">
            <metadata uri="" area="" fillingPcent=""/>
        </polygon>
        <polygon points="611,871 695,871 695,957 611,957 611,871" id="CYB_BUBBLEGOM_T01_009_character_17">
            <metadata uri="" area="" fillingPcent=""/>
        </polygon>
    </svg>
    <svg contentScriptType="text/ecmascript" zoomAndPan="magnify" contentStyleType="text/css" class="Line" preserveAspectRatio="xMidYMid meet" version="1.0">
        <polygon points="64,95 194,95 194,105 64,105 64,95" id="CYB_BUBBLEGOM_T01_009_line_0">
            <metadata method="" typography="" idBalloon="CYB_BUBBLEGOM_T01_009_balloon_0" textType="speech">ON RACONTE AUSSI</metadata>
        </polygon>
        <polygon points="66,108 190,108 190,118 66,118 66,108" id="CYB_BUBBLEGOM_T01_009_line_1">
            <metadata method="" typography="" idBalloon="CYB_BUBBLEGOM_T01_009_balloon_0" textType="speech">QUE LE VIEUX BILL</metadata>
        </polygon>
        <polygon points="75,117 182,117 182,130 75,130 75,117" id="CYB_BUBBLEGOM_T01_009_line_2">
            <metadata method="" typography="" idBalloon="CYB_BUBBLEGOM_T01_009_balloon_0" textType="speech">EST MORT A LA GUERRE</metadata>
        </polygon>
        <polygon points="71,133 185,133 185,143 71,143 71,133" id="CYB_BUBBLEGOM_T01_009_line_3">
            <metadata method="" typography="" idBalloon="CYB_BUBBLEGOM_T01_009_balloon_0" textType="speech">GUERRE, ET QUE</metadata>
        </polygon>
        <polygon points="59,142 198,142 198,155 59,155 59,142" id="CYB_BUBBLEGOM_T01_009_line_4">
            <metadata method="" typography="" idBalloon="CYB_BUBBLEGOM_T01_009_balloon_0" textType="speech">C'EST UN DEMON QUI</metadata>
        </polygon>
        <polygon points="90,158 168,158 168,168 90,168 90,158" id="CYB_BUBBLEGOM_T01_009_line_5">
            <metadata method="" typography="" idBalloon="CYB_BUBBLEGOM_T01_009_balloon_0" textType="speech">A PRIS SON</metadata>
        </polygon>
        <polygon points="80,171 155,171 155,180 80,180 80,171" id="CYB_BUBBLEGOM_T01_009_line_6">
            <metadata method="" typography="" idBalloon="CYB_BUBBLEGOM_T01_009_balloon_0" textType="speech">APPARENCE.</metadata>
        </polygon>
        <polygon points="243,109 259,109 259,119 243,119 243,109" id="CYB_BUBBLEGOM_T01_009_line_7">
            <metadata method="" typography="" idBalloon="CYB_BUBBLEGOM_T01_009_balloon_1" textType="speech">UN</metadata>
        </polygon>
        <polygon points="217,119 285,119 285,132 217,132 217,119" id="CYB_BUBBLEGOM_T01_009_line_8">
            <metadata method="" typography="" idBalloon="CYB_BUBBLEGOM_T01_009_balloon_1" textType="speech">DEMON !?</metadata>
        </polygon>
        <polygon points="221,135 280,135 280,144 221,144 221,135" id="CYB_BUBBLEGOM_T01_009_line_9">
            <metadata method="" typography="" idBalloon="CYB_BUBBLEGOM_T01_009_balloon_1" textType="speech">LA VACHE</metadata>
        </polygon>
        <polygon points="319,92 431,92 431,106 319,106 319,92" id="CYB_BUBBLEGOM_T01_009_line_10">
            <metadata method="" typography="" idBalloon="CYB_BUBBLEGOM_T01_009_balloon_2" textType="speech">ATTENTION !!</metadata>
        </polygon>
        <polygon points="321,109 428,109 428,122 321,122 321,109" id="CYB_BUBBLEGOM_T01_009_line_11">
            <metadata method="" typography="" idBalloon="CYB_BUBBLEGOM_T01_009_balloon_2" textType="speech">IL SORT DE</metadata>
        </polygon>
        <polygon points="328,126 421,126 421,138 328,138 328,126" id="CYB_BUBBLEGOM_T01_009_line_12">
            <metadata method="" typography="" idBalloon="CYB_BUBBLEGOM_T01_009_balloon_2" textType="speech">CHEZ LUI !</metadata>
        </polygon>
        <polygon points="485,127 564,127 564,137 485,137 485,127" id="CYB_BUBBLEGOM_T01_009_line_13">
            <metadata method="" typography="" idBalloon="CYB_BUBBLEGOM_T01_009_balloon_3" textType="speech">PLANQUONS-</metadata>
        </polygon>
        <polygon points="499,139 551,139 551,148 499,148 499,139" id="CYB_BUBBLEGOM_T01_009_line_14">
            <metadata method="" typography="" idBalloon="CYB_BUBBLEGOM_T01_009_balloon_3" textType="speech">NOUS !!!</metadata>
        </polygon>
        <polygon points="77,336 109,336 110,346 77,346 77,336" id="CYB_BUBBLEGOM_T01_009_line_15">
            <metadata method="" typography="" idBalloon="CYB_BUBBLEGOM_T01_009_balloon_5" textType="speech">QUEL</metadata>
        </polygon>
        <polygon points="73,348 115,348 115,357 73,357 73,348" id="CYB_BUBBLEGOM_T01_009_line_16">
            <metadata method="" typography="" idBalloon="CYB_BUBBLEGOM_T01_009_balloon_5" textType="speech">TEMPS</metadata>
        </polygon>
        <polygon points="58,360 129,360 129,369 58,369 58,360" id="CYB_BUBBLEGOM_T01_009_line_17">
            <metadata method="" typography="" idBalloon="CYB_BUBBLEGOM_T01_009_balloon_5" textType="speech">MAGNIFIQUE</metadata>
        </polygon>
        <polygon points="93,372 96,372 95,380 93,380 93,372" id="CYB_BUBBLEGOM_T01_009_line_18">
            <metadata method="" typography="" idBalloon="CYB_BUBBLEGOM_T01_009_balloon_5" textType="speech">!</metadata>
        </polygon>
        <polygon points="207,344 273,344 273,353 207,353 207,344" id="CYB_BUBBLEGOM_T01_009_line_19">
            <metadata method="" typography="" idBalloon="CYB_BUBBLEGOM_T01_009_balloon_6" textType="speech">LE TEMPS</metadata>
        </polygon>
        <polygon points="201,353 279,353 279,365 201,365 201,353" id="CYB_BUBBLEGOM_T01_009_line_20">
            <metadata method="" typography="" idBalloon="CYB_BUBBLEGOM_T01_009_balloon_6" textType="speech">IDEAL POUR</metadata>
        </polygon>
        <polygon points="208,367 274,367 274,377 208,377 208,367" id="CYB_BUBBLEGOM_T01_009_line_21">
            <metadata method="" typography="" idBalloon="CYB_BUBBLEGOM_T01_009_balloon_6" textType="speech">FAIRE UNE</metadata>
        </polygon>
        <polygon points="193,379 288,379 288,389 193,389 193,379" id="CYB_BUBBLEGOM_T01_009_line_22">
            <metadata method="" typography="" idBalloon="CYB_BUBBLEGOM_T01_009_balloon_6" textType="speech">PETITE SIESTE.</metadata>
        </polygon>
        <polygon points="322,342 386,342 386,352 322,352 322,342" id="CYB_BUBBLEGOM_T01_009_line_23">
            <metadata method="" typography="" idBalloon="CYB_BUBBLEGOM_T01_009_balloon_7" textType="speech">TU CROIS</metadata>
        </polygon>
        <polygon points="329,355 378,355 378,365 329,365 329,355" id="CYB_BUBBLEGOM_T01_009_line_24">
            <metadata method="" typography="" idBalloon="CYB_BUBBLEGOM_T01_009_balloon_7" textType="speech">QUE LE</metadata>
        </polygon>
        <polygon points="319,367 388,367 388,376 319,376 319,367" id="CYB_BUBBLEGOM_T01_009_line_25">
            <metadata method="" typography="" idBalloon="CYB_BUBBLEGOM_T01_009_balloon_7" textType="speech">VIEUX BILL</metadata>
        </polygon>
        <polygon points="330,379 378,379 378,388 330,388 330,379" id="CYB_BUBBLEGOM_T01_009_line_26">
            <metadata method="" typography="" idBalloon="CYB_BUBBLEGOM_T01_009_balloon_7" textType="speech">EST UN</metadata>
        </polygon>
        <polygon points="321,388 386,388 386,400 321,400 321,388" id="CYB_BUBBLEGOM_T01_009_line_27">
            <metadata method="" typography="" idBalloon="CYB_BUBBLEGOM_T01_009_balloon_7" textType="speech">DEMON ?</metadata>
        </polygon>
        <polygon points="607,493 674,493 674,506 607,506 607,493" id="CYB_BUBBLEGOM_T01_009_line_28">
            <metadata method="" typography="" idBalloon="CYB_BUBBLEGOM_T01_009_balloon_9" textType="speech">DIFFICILE A</metadata>
        </polygon>
        <polygon points="612,508 668,508 668,518 612,518 612,508" id="CYB_BUBBLEGOM_T01_009_line_29">
            <metadata method="" typography="" idBalloon="CYB_BUBBLEGOM_T01_009_balloon_9" textType="speech">DIRE. DE</metadata>
        </polygon>
        <polygon points="610,522 670,522 670,531 610,531 610,522" id="CYB_BUBBLEGOM_T01_009_line_30">
            <metadata method="" typography="" idBalloon="CYB_BUBBLEGOM_T01_009_balloon_9" textType="speech">LOIN, IL A</metadata>
        </polygon>
        <polygon points="594,533 687,533 687,542 594,542 594,533" id="CYB_BUBBLEGOM_T01_009_line_31">
            <metadata method="" typography="" idBalloon="CYB_BUBBLEGOM_T01_009_balloon_9" textType="speech">L'AIR NORMAL.</metadata>
        </polygon>
        <polygon points="83,615 148,615 148,625 83,625 83,615" id="CYB_BUBBLEGOM_T01_009_line_32">
            <metadata method="" typography="" idBalloon="CYB_BUBBLEGOM_T01_009_balloon_10" textType="speech">COMMENT</metadata>
        </polygon>
        <polygon points="83,627 147,627 147,638 83,638 83,627" id="CYB_BUBBLEGOM_T01_009_line_33">
            <metadata method="" typography="" idBalloon="CYB_BUBBLEGOM_T01_009_balloon_10" textType="speech">SAVOIR ?</metadata>
        </polygon>
        <polygon points="217,601 348,601 348,611 217,611 217,601" id="CYB_BUBBLEGOM_T01_009_line_34">
            <metadata method="" typography="" idBalloon="CYB_BUBBLEGOM_T01_009_balloon_11" textType="speech">JE NE PENSAIS PAS</metadata>
        </polygon>
        <polygon points="219,613 347,613 347,623 219,623 219,613" id="CYB_BUBBLEGOM_T01_009_line_35">
            <metadata method="" typography="" idBalloon="CYB_BUBBLEGOM_T01_009_balloon_11" textType="speech">M'EN SERVIR EN TA</metadata>
        </polygon>
        <polygon points="215,622 350,622 350,636 215,636 215,622" id="CYB_BUBBLEGOM_T01_009_line_36">
            <metadata method="" typography="" idBalloon="CYB_BUBBLEGOM_T01_009_balloon_11" textType="speech">PRESENCE, DE PEUR</metadata>
        </polygon>
        <polygon points="218,637 347,637 347,647 218,647 218,637" id="CYB_BUBBLEGOM_T01_009_line_37">
            <metadata method="" typography="" idBalloon="CYB_BUBBLEGOM_T01_009_balloon_11" textType="speech">QUE TU TE SENTES</metadata>
        </polygon>
        <polygon points="239,649 312,649 312,659 239,659 239,649" id="CYB_BUBBLEGOM_T01_009_line_38">
            <metadata method="" typography="" idBalloon="CYB_BUBBLEGOM_T01_009_balloon_11" textType="speech">INFERIEUR...</metadata>
        </polygon>
        <polygon points="459,595 593,595 593,605 459,605 459,595" id="CYB_BUBBLEGOM_T01_009_line_39">
            <metadata method="" typography="" idBalloon="CYB_BUBBLEGOM_T01_009_balloon_12" textType="speech">... MAIS TANT PIS. JE</metadata>
        </polygon>
        <polygon points="455,607 596,607 596,617 455,617 455,607" id="CYB_BUBBLEGOM_T01_009_line_40">
            <metadata method="" typography="" idBalloon="CYB_BUBBLEGOM_T01_009_balloon_12" textType="speech">VAIS DEVOIR UTILISER</metadata>
        </polygon>
        <polygon points="467,619 583,619 583,629 467,629 467,619" id="CYB_BUBBLEGOM_T01_009_line_41">
            <metadata method="" typography="" idBalloon="CYB_BUBBLEGOM_T01_009_balloon_12" textType="speech">MON CERVEAU DE</metadata>
        </polygon>
        <polygon points="467,631 584,631 583,640 467,640 467,631" id="CYB_BUBBLEGOM_T01_009_line_42">
            <metadata method="" typography="" idBalloon="CYB_BUBBLEGOM_T01_009_balloon_12" textType="speech">SURHOMME POUR</metadata>
        </polygon>
        <polygon points="485,643 595,643 595,653 485,653 485,643" id="CYB_BUBBLEGOM_T01_009_line_43">
            <metadata method="" typography="" idBalloon="CYB_BUBBLEGOM_T01_009_balloon_12" textType="speech">DEMASQUER CET</metadata>
        </polygon>
        <polygon points="514,655 587,655 586,664 514,664 514,655" id="CYB_BUBBLEGOM_T01_009_line_44">
            <metadata method="" typography="" idBalloon="CYB_BUBBLEGOM_T01_009_balloon_12" textType="speech">IMPOSTEUR</metadata>
        </polygon>
        <polygon points="535,666 541,666 541,676 534,676 535,666" id="CYB_BUBBLEGOM_T01_009_line_45">
            <metadata method="" typography="" idBalloon="CYB_BUBBLEGOM_T01_009_balloon_12" textType="speech">!!</metadata>
        </polygon>
        <polygon points="626,619 691,619 691,628 626,628 626,619" id="CYB_BUBBLEGOM_T01_009_line_46">
            <metadata method="" typography="" idBalloon="CYB_BUBBLEGOM_T01_009_balloon_13" textType="speech">N'IMPORTE</metadata>
        </polygon>
        <polygon points="638,630 681,630 678,640 638,640 638,630" id="CYB_BUBBLEGOM_T01_009_line_47">
            <metadata method="" typography="" idBalloon="CYB_BUBBLEGOM_T01_009_balloon_13" textType="speech">QUOI §</metadata>
        </polygon>
        <polygon points="261,788 464,788 464,798 261,798 261,788" id="CYB_BUBBLEGOM_T01_009_line_48">
            <metadata method="" typography="" idBalloon="CYB_BUBBLEGOM_T01_009_balloon_16" textType="speech">CONCLUSION DE MON CERVEAU</metadata>
        </polygon>
        <polygon points="276,798 450,798 450,810 276,810 276,798" id="CYB_BUBBLEGOM_T01_009_line_49">
            <metadata method="" typography="" idBalloon="CYB_BUBBLEGOM_T01_009_balloon_16" textType="speech">SUPERIEUR : LES DEMONS</metadata>
        </polygon>
        <polygon points="256,810 469,810 469,824 256,824 256,810" id="CYB_BUBBLEGOM_T01_009_line_50">
            <metadata method="" typography="" idBalloon="CYB_BUBBLEGOM_T01_009_balloon_16" textType="speech">SONT NOTRE OPPOSE, DONC ILS</metadata>
        </polygon>
        <polygon points="257,827 468,827 468,836 257,836 257,827" id="CYB_BUBBLEGOM_T01_009_line_51">
            <metadata method="" typography="" idBalloon="CYB_BUBBLEGOM_T01_009_balloon_16" textType="speech">SONT LAIDS, IDIOTS COMME UNE</metadata>
        </polygon>
        <polygon points="256,839 469,839 469,850 256,850 256,839" id="CYB_BUBBLEGOM_T01_009_line_52">
            <metadata method="" typography="" idBalloon="CYB_BUBBLEGOM_T01_009_balloon_16" textType="speech">POIRE, SE BATTENT COMME DES</metadata>
        </polygon>
        <polygon points="275,852 450,852 450,862 275,862 275,852" id="CYB_BUBBLEGOM_T01_009_line_53">
            <metadata method="" typography="" idBalloon="CYB_BUBBLEGOM_T01_009_balloon_16" textType="speech">LAVETTES, ET N'ONT AUCUN</metadata>
        </polygon>
        <polygon points="265,864 459,864 459,875 265,875 265,864" id="CYB_BUBBLEGOM_T01_009_line_54">
            <metadata method="" typography="" idBalloon="CYB_BUBBLEGOM_T01_009_balloon_16" textType="speech">GOÛT. ET DONC, IL NOUS EST</metadata>
        </polygon>
        <polygon points="273,878 373,878 373,888 273,888 273,878" id="CYB_BUBBLEGOM_T01_009_line_55">
            <metadata method="" typography="" idBalloon="CYB_BUBBLEGOM_T01_009_balloon_16" textType="speech">IMPOSSIBLE DE</metadata>
        </polygon>
        <polygon points="259,891 380,891 380,901 259,901 259,891" id="CYB_BUBBLEGOM_T01_009_line_56">
            <metadata method="" typography="" idBalloon="CYB_BUBBLEGOM_T01_009_balloon_16" textType="speech">MANGER LA MEME</metadata>
        </polygon>
        <polygon points="278,905 362,905 362,913 278,913 278,905" id="CYB_BUBBLEGOM_T01_009_line_57">
            <metadata method="" typography="" idBalloon="CYB_BUBBLEGOM_T01_009_balloon_16" textType="speech">NOURRITURE</metadata>
        </polygon>
        <polygon points="296,917 344,917 344,927 296,927 296,917" id="CYB_BUBBLEGOM_T01_009_line_58">
            <metadata method="" typography="" idBalloon="CYB_BUBBLEGOM_T01_009_balloon_16" textType="speech">QU'EUX.</metadata>
        </polygon>
        <polygon points="507,790 629,790 629,800 507,800 507,790" id="CYB_BUBBLEGOM_T01_009_line_59">
            <metadata method="" typography="" idBalloon="CYB_BUBBLEGOM_T01_009_balloon_18" textType="speech">HA HA HA ! ON VA</metadata>
        </polygon>
        <polygon points="499,801 637,801 637,812 499,812 499,801" id="CYB_BUBBLEGOM_T01_009_line_60">
            <metadata method="" typography="" idBalloon="CYB_BUBBLEGOM_T01_009_balloon_18" textType="speech">LUI FAIRE AVALER UN</metadata>
        </polygon>
        <polygon points="511,814 624,814 624,824 511,824 511,814" id="CYB_BUBBLEGOM_T01_009_line_61">
            <metadata method="" typography="" idBalloon="CYB_BUBBLEGOM_T01_009_balloon_18" textType="speech">VERS DE TERRE.</metadata>
        </polygon>
        <polygon points="499,826 638,826 638,836 499,836 499,826" id="CYB_BUBBLEGOM_T01_009_line_62">
            <metadata method="" typography="" idBalloon="CYB_BUBBLEGOM_T01_009_balloon_18" textType="speech">S'IL TROUVE CA BON,</metadata>
        </polygon>
        <polygon points="503,836 634,836 634,848 503,848 503,836" id="CYB_BUBBLEGOM_T01_009_line_63">
            <metadata method="" typography="" idBalloon="CYB_BUBBLEGOM_T01_009_balloon_18" textType="speech">C'EST QUE C'EST UN</metadata>
        </polygon>
        <polygon points="543,847 593,847 593,860 543,860 543,847" id="CYB_BUBBLEGOM_T01_009_line_64">
            <metadata method="" typography="" idBalloon="CYB_BUBBLEGOM_T01_009_balloon_18" textType="speech">DEMON.</metadata>
        </polygon>
        <polygon points="672,825 704,825 704,835 672,835 672,825" id="CYB_BUBBLEGOM_T01_009_line_65">
            <metadata method="" typography="" idBalloon="CYB_BUBBLEGOM_T01_009_balloon_17" textType="speech">HEU...</metadata>
        </polygon>
        <polygon points="683,817 692,817 692,820 683,820 683,817" id="CYB_BUBBLEGOM_T01_009_line_66">
            <metadata method="" typography="" idBalloon="CYB_BUBBLEGOM_T01_009_balloon_17" textType="speech">...</metadata>
        </polygon>
        <polygon points="245,147 258,147 257,157 245,157 245,147" id="CYB_BUBBLEGOM_T01_009_line_67">
            <metadata method="" typography="" idBalloon="CYB_BUBBLEGOM_T01_009_balloon_1" textType="speech">!!</metadata>
        </polygon>
        <polygon points="589,890 617,890 617,899 589,900 589,890" id="CYB_BUBBLEGOM_T01_009_line_68">
            <metadata method="" typography="" idBalloon="CYB_BUBBLEGOM_T01_009_balloon_19" textType="speech">GENIAL,</metadata>
        </polygon>
        <polygon points="588,899 617,899 617,905 588,905 588,899" id="CYB_BUBBLEGOM_T01_009_line_69">
            <metadata method="" typography="" idBalloon="CYB_BUBBLEGOM_T01_009_balloon_19" textType="speech">NON ?</metadata>
        </polygon>
    </svg>
    <svg contentScriptType="text/ecmascript" zoomAndPan="magnify" contentStyleType="text/css" class="linkSBSC" preserveAspectRatio="xMidYMid meet" version="1.0">
    <polygon points="135,141 136,141 100,251 99,251 135,141" idCharacter="CYB_BUBBLEGOM_T01_009_character_1" idBalloon="CYB_BUBBLEGOM_T01_009_balloon_0"/>
    <polygon points="244,138 245,138 211,242 210,242 244,138" idCharacter="CYB_BUBBLEGOM_T01_009_character_0" idBalloon="CYB_BUBBLEGOM_T01_009_balloon_1"/>
    <polygon points="374,133 375,133 374,232 373,232 374,133" idCharacter="CYB_BUBBLEGOM_T01_009_character_2" idBalloon="CYB_BUBBLEGOM_T01_009_balloon_2"/>
    <polygon points="524,142 525,142 506,254 505,254 524,142" idCharacter="CYB_BUBBLEGOM_T01_009_character_5" idBalloon="CYB_BUBBLEGOM_T01_009_balloon_3"/>
    <polygon points="666,114 667,114 647,160 646,160 666,114" idCharacter="CYB_BUBBLEGOM_T01_009_character_3" idBalloon="CYB_BUBBLEGOM_T01_009_balloon_4"/>
    <polygon points="97,368 98,368 165,490 164,490 97,368" idCharacter="CYB_BUBBLEGOM_T01_009_character_6" idBalloon="CYB_BUBBLEGOM_T01_009_balloon_5"/>
    <polygon points="233,379 234,379 165,490 164,490 233,379" idCharacter="CYB_BUBBLEGOM_T01_009_character_6" idBalloon="CYB_BUBBLEGOM_T01_009_balloon_6"/>
    <polygon points="355,380 356,380 359,504 358,504 355,380" idCharacter="CYB_BUBBLEGOM_T01_009_character_9" idBalloon="CYB_BUBBLEGOM_T01_009_balloon_7"/>
    <polygon points="627,512 628,512 485,505 484,505 627,512" idCharacter="CYB_BUBBLEGOM_T01_009_character_8" idBalloon="CYB_BUBBLEGOM_T01_009_balloon_9"/>
    <polygon points="592,361 593,361 655,400 654,400 592,361" idCharacter="CYB_BUBBLEGOM_T01_009_character_7" idBalloon="CYB_BUBBLEGOM_T01_009_balloon_8"/>
    <polygon points="121,630 122,630 113,706 112,706 121,630" idCharacter="CYB_BUBBLEGOM_T01_009_character_10" idBalloon="CYB_BUBBLEGOM_T01_009_balloon_10"/>
    <polygon points="278,639 279,639 291,708 290,708 278,639" idCharacter="CYB_BUBBLEGOM_T01_009_character_11" idBalloon="CYB_BUBBLEGOM_T01_009_balloon_11"/>
    <polygon points="525,645 526,645 455,693 454,693 525,645" idCharacter="CYB_BUBBLEGOM_T01_009_character_12" idBalloon="CYB_BUBBLEGOM_T01_009_balloon_12"/>
    <polygon points="657,632 658,632 636,694 635,694 657,632" idCharacter="CYB_BUBBLEGOM_T01_009_character_13" idBalloon="CYB_BUBBLEGOM_T01_009_balloon_13"/>
    <polygon points="100,800 101,800 140,900 139,900 100,800" idCharacter="CYB_BUBBLEGOM_T01_009_character_14" idBalloon="CYB_BUBBLEGOM_T01_009_balloon_14"/>
    <polygon points="180,800 181,800 140,900 139,900 180,800" idCharacter="CYB_BUBBLEGOM_T01_009_character_14" idBalloon="CYB_BUBBLEGOM_T01_009_balloon_15"/>
    <polygon points="350,850 351,850 420,930 419,930 350,850" idCharacter="CYB_BUBBLEGOM_T01_009_character_15" idBalloon="CYB_BUBBLEGOM_T01_009_balloon_16"/>
    <polygon points="560,830 561,830 540,915 539,915 560,830" idCharacter="CYB_BUBBLEGOM_T01_009_character_16" idBalloon="CYB_BUBBLEGOM_T01_009_balloon_18"/>
    <polygon points="600,900 601,900 540,915 539,915 600,900" idCharacter="CYB_BUBBLEGOM_T01_009_character_16" idBalloon="CYB_BUBBLEGOM_T01_009_balloon_19"/>
    <polygon points="690,830 691,830 650,915 649,915 690,830" idCharacter="CYB_BUBBLEGOM_T01_009_character_17" idBalloon="CYB_BUBBLEGOM_T01_009_balloon_17"/>
  </svg>
<metadata method="GroundTruth" lastModificationDate="Sun Jan 26 12:52:16 CET 2014" lastStepModified="Balloon_Rank"/>
</svg>