<?xml version="1.0" encoding="UTF-8" standalone="no"?>
<svg xmlns:xlink="http://www.w3.org/1999/xlink" xmlns="http://www.w3.org/2000/svg" contentScriptType="text/ecmascript"
     width="284mm" zoomAndPan="magnify" contentStyleType="text/css" height="330mm" viewBox="0 0 569 661"
     preserveAspectRatio="xMidYMid meet" version="1.0">
    <title>CYB_COSMOZONE_008</title>
    <svg contentScriptType="text/ecmascript" zoomAndPan="magnify" contentStyleType="text/css" class="Page"
         preserveAspectRatio="xMidYMid meet" version="1.0">
        <image x="0" y="0" width="569" xlink:href="../Pages/CYB_COSMOZONE_008.jpg" xlink:type="simple"
               xlink:actuate="onLoad" height="661" preserveAspectRatio="xMidYMid meet" xlink:show="embed"/>
        <metadata collectionTitle="Cosmozone" editorName="Studio Cyborga" doublePage="false"
                  website="http://cosmozone.webcomics.fr/archives" albumTitle="Volume 1" drawerName="Cyborg 07"
                  language="french" resolution="" ISBN="" readingDirection="leftToRight" writerName="Cyborg 07"
                  releaseDate="2008" pageNumber="8"/>
    </svg>
    <style type="text/css" xml:space="preserve">
        * { stroke-width: 0; stroke-linejoin: round; }
        .Unclassified { fill: orange; stroke: none; opacity: 1.0; visibility: hidden; }
        .Noise { fill: pink; stroke: none; opacity: 0.2; visibility: hidden; }
        .Panel { fill: red; stroke: none; opacity: 0.3; visibility: visible; image-rendering: optimizeSpeed; }
        .Line { fill: green; stroke: none; opacity: 0.5; visibility: visible; image-rendering: optimizeSpeed; }
        .TextArea { fill: grey; stroke: none; opacity: 0.2; visibility: visible; image-rendering: optimizeSpeed; }
        .Balloon { fill: cyan; stroke: none; opacity: 0.5; visibility: visible; image-rendering: optimizeSpeed; }
        .Letter { fill: blue; stroke: none; opacity: 0.2; visibility: hidden; }
        .Character { fill: yellow; stroke: none; opacity: 0.3; visibility: visible; image-rendering: optimizeSpeed; }
        .Page { fill: white; stroke: none; opacity: 0.5; visibility: visible; }
        .linkSBSC { fill: blue; stroke: none; opacity: 0.5; visibility: visible; }
        polygon:hover { stroke:red;stroke-width:2; } 
    </style>
    <svg contentScriptType="text/ecmascript" zoomAndPan="magnify" contentStyleType="text/css" class="Panel"
         preserveAspectRatio="xMidYMid meet" version="1.0">
        <polygon points="8,23 64,23 64,72 8,72 8,23" id="CYB_COSMOZONE_008_panel_0">
            <metadata viewAngle="" shot="" rank="1"/>
        </polygon>
        <polygon points="10,86 278,86 278,353 10,353 10,86" id="CYB_COSMOZONE_008_panel_1">
            <metadata viewAngle="" shot="" rank="2"/>
        </polygon>
        <polygon points="291,84 559,84 559,354 291,354 291,84" id="CYB_COSMOZONE_008_panel_2">
            <metadata viewAngle="" shot="" rank="3"/>
        </polygon>
        <polygon points="9,367 280,367 280,635 9,635 9,367" id="CYB_COSMOZONE_008_panel_3">
            <metadata viewAngle="" shot="" rank="4"/>
        </polygon>
        <polygon points="290,367 561,367 561,636 290,636 290,367" id="CYB_COSMOZONE_008_panel_4">
            <metadata viewAngle="" shot="" rank="5"/>
        </polygon>
    </svg>
    <svg contentScriptType="text/ecmascript" zoomAndPan="magnify" contentStyleType="text/css" class="TextArea"
         preserveAspectRatio="xMidYMid meet" version="1.0"/>
    <svg contentScriptType="text/ecmascript" zoomAndPan="magnify" contentStyleType="text/css" class="Balloon"
         preserveAspectRatio="xMidYMid meet" version="1.0">
        <polygon
                points="8,154 9,83 171,84 174,91 181,101 186,116 187,130 180,151 170,162 154,172 133,181 114,183 91,184 78,183 78,197 75,196 70,183 54,179 38,173 23,166 12,161 8,154 8,154"
                id="CYB_COSMOZONE_008_balloon_0">
            <metadata borderStyle="smooth" tailTip="78,197" boundingBox="" tailDirection="SE" rank="1"/>
        </polygon>
        <polygon
                points="290,148 292,84 471,84 480,91 487,100 494,108 498,119 501,132 497,148 489,161 481,170 462,183 443,190 424,195 403,197 386,196 367,195 355,191 351,190 348,204 352,221 350,224 342,206 342,188 329,184 311,172 300,162 290,148"
                id="CYB_COSMOZONE_008_balloon_1">
            <metadata borderStyle="smooth" tailTip="350,224" boundingBox="" tailDirection="S" rank="2"/>
        </polygon>
        <polygon id="CYB_COSMOZONE_008_balloon_2"
                 points="397,403 417,393 440,389 457,389 478,391 494,394 505,397 513,407 517,419 514,431 505,440 498,443 499,449 493,460 492,451 489,447 476,451 454,452 429,451 415,447 400,439 393,431 390,420 393,411 397,403">
            <metadata borderStyle="smooth" tailTip="493,460" boundingBox="" tailDirection="S" rank="3"/>
        </polygon>
    </svg>
    <svg contentScriptType="text/ecmascript" zoomAndPan="magnify" contentStyleType="text/css" class="Character"
         preserveAspectRatio="xMidYMid meet" version="1.0">
        <polygon points="56,211 153,211 153,354 56,354 56,211" id="CYB_COSMOZONE_008_character_0">
            <metadata uri="" area="" fillingPcent=""/>
        </polygon>
        <polygon points="157,224 233,224 233,353 157,353 157,224" id="CYB_COSMOZONE_008_character_1">
            <metadata uri="" area="" fillingPcent=""/>
        </polygon>
        <polygon points="337,216 439,216 439,354 337,354 337,216" id="CYB_COSMOZONE_008_character_2">
            <metadata uri="" area="" fillingPcent=""/>
        </polygon>
        <polygon points="438,222 512,222 512,355 438,355 438,222" id="CYB_COSMOZONE_008_character_3">
            <metadata uri="" area="" fillingPcent=""/>
        </polygon>
        <polygon points="57,490 158,490 158,635 57,635 57,490" id="CYB_COSMOZONE_008_character_4">
            <metadata uri="" area="" fillingPcent=""/>
        </polygon>
        <polygon points="155,505 232,505 232,636 155,636 155,505" id="CYB_COSMOZONE_008_character_5">
            <metadata uri="" area="" fillingPcent=""/>
        </polygon>
        <polygon points="339,492 439,492 439,637 339,637 339,492" id="CYB_COSMOZONE_008_character_6">
            <metadata uri="" area="" fillingPcent=""/>
        </polygon>
        <polygon points="429,506 512,506 512,636 429,636 429,506" id="CYB_COSMOZONE_008_character_7">
            <metadata uri="" area="" fillingPcent=""/>
        </polygon>
    </svg>
    <svg contentScriptType="text/ecmascript" zoomAndPan="magnify" contentStyleType="text/css" class="Line"
         preserveAspectRatio="xMidYMid meet" version="1.0">
        <polygon points="68,34 192,34 192,64 68,64 68,34" id="CYB_COSMOZONE_008_line_0">
            <metadata method="" typography="" textType="note">Studio cyboRGa</metadata>
        </polygon>
        <polygon points="169,53 237,53 237,68 169,68 169,53" id="CYB_COSMOZONE_008_line_1">
            <metadata method="" typography="" textType="note">présente :</metadata>
        </polygon>
        <polygon points="26,101 162,101 162,113 26,113 26,101" id="CYB_COSMOZONE_008_line_2">
            <metadata method="" typography="" idBalloon="CYB_COSMOZONE_008_balloon_0" textType="speech">Dans moins de
                douze
            </metadata>
        </polygon>
        <polygon points="35,113 153,113 153,127 35,127 35,113" id="CYB_COSMOZONE_008_line_3">
            <metadata method="" typography="" idBalloon="CYB_COSMOZONE_008_balloon_0" textType="speech">heures
                cosmiques,
            </metadata>
        </polygon>
        <polygon points="25,126 163,126 163,137 25,137 25,126" id="CYB_COSMOZONE_008_line_4">
            <metadata method="" typography="" idBalloon="CYB_COSMOZONE_008_balloon_0" textType="speech">nous nous
                envolerons
            </metadata>
        </polygon>
        <polygon points="31,137 156,137 156,149 31,149 31,137" id="CYB_COSMOZONE_008_line_5">
            <metadata method="" typography="" idBalloon="CYB_COSMOZONE_008_balloon_0" textType="speech">vers l'infini
                inconnu,
            </metadata>
        </polygon>
        <polygon points="50,149 137,149 137,161 50,161 50,149" id="CYB_COSMOZONE_008_line_6">
            <metadata method="" typography="" idBalloon="CYB_COSMOZONE_008_balloon_0" textType="speech">commandant.
            </metadata>
        </polygon>
        <polygon points="331,92 452,92 452,107 331,107 331,92" id="CYB_COSMOZONE_008_line_7">
            <metadata method="" typography="" idBalloon="CYB_COSMOZONE_008_balloon_1" textType="speech">Explorer le
                cosmos,
            </metadata>
        </polygon>
        <polygon points="307,105 476,105 476,117 307,117 307,105" id="CYB_COSMOZONE_008_line_8">
            <metadata method="" typography="" idBalloon="CYB_COSMOZONE_008_balloon_1" textType="speech">rencontrer
                d'autres formes
            </metadata>
        </polygon>
        <polygon points="307,117 476,117 476,131 307,131 307,117" id="CYB_COSMOZONE_008_line_9">
            <metadata method="" typography="" idBalloon="CYB_COSMOZONE_008_balloon_1" textType="speech">de vies, poser
                le pied là où
            </metadata>
        </polygon>
        <polygon points="308,130 476,130 476,143 308,143 308,130" id="CYB_COSMOZONE_008_line_10">
            <metadata method="" typography="" idBalloon="CYB_COSMOZONE_008_balloon_1" textType="speech">personne avant
                nous n'est
            </metadata>
        </polygon>
        <polygon points="313,141 470,141 470,155 313,155 313,141" id="CYB_COSMOZONE_008_line_11">
            <metadata method="" typography="" idBalloon="CYB_COSMOZONE_008_balloon_1" textType="speech">jamais allé...
                Ne trouvez-
            </metadata>
        </polygon>
        <polygon points="349,154 434,154 434,167 349,167 349,154" id="CYB_COSMOZONE_008_line_12">
            <metadata method="" typography="" idBalloon="CYB_COSMOZONE_008_balloon_1" textType="speech">vous pas cela
            </metadata>
        </polygon>
        <polygon points="348,166 435,166 435,179 348,179 348,166" id="CYB_COSMOZONE_008_line_13">
            <metadata method="" typography="" idBalloon="CYB_COSMOZONE_008_balloon_1" textType="speech">passionnant ?
            </metadata>
        </polygon>
        <polygon points="427,400 479,400 479,414 427,414 427,400" id="CYB_COSMOZONE_008_line_14">
            <metadata method="" typography="" idBalloon="CYB_COSMOZONE_008_balloon_2" textType="speech">... Je fais
            </metadata>
        </polygon>
        <polygon points="420,413 484,413 484,426 420,426 420,413" id="CYB_COSMOZONE_008_line_15">
            <metadata method="" typography="" idBalloon="CYB_COSMOZONE_008_balloon_2" textType="speech">surtout ca
            </metadata>
        </polygon>
        <polygon points="413,425 491,425 491,438 413,438 413,425" id="CYB_COSMOZONE_008_line_16">
            <metadata method="" typography="" idBalloon="CYB_COSMOZONE_008_balloon_2" textType="speech">pour le blé...
            </metadata>
        </polygon>
        <polygon points="429,639 560,639 560,647 429,647 429,639" id="CYB_COSMOZONE_008_line_17">
            <metadata method="" typography="" textType="speech">2008/2009 copyright Cyborg 07</metadata>
        </polygon>
    </svg>
    <svg contentScriptType="text/ecmascript" zoomAndPan="magnify" contentStyleType="text/css" class="linkSBSC"
         preserveAspectRatio="xMidYMid meet" version="1.0">
        <polygon points="97,140 98,140 105,282 104,282 97,140" idCharacter="CYB_COSMOZONE_008_character_0"
                 idBalloon="CYB_COSMOZONE_008_balloon_0"/>
        <polygon points="395,154 396,154 389,285 388,285 395,154" idCharacter="CYB_COSMOZONE_008_character_2"
                 idBalloon="CYB_COSMOZONE_008_balloon_1"/>
        <polygon points="453,424 454,424 471,571 470,571 453,424" idCharacter="CYB_COSMOZONE_008_character_7"
                 idBalloon="CYB_COSMOZONE_008_balloon_2"/>
    </svg>
    <metadata method="GroundTruth" lastModificationDate="Wed Feb 12 16:23:01 CET 2014" lastStepModified="Balloon_Rank"/>
</svg>