<?xml version="1.0" encoding="UTF-8" standalone="no"?>
<svg xmlns="http://www.w3.org/2000/svg" xmlns:xlink="http://www.w3.org/1999/xlink" contentScriptType="text/ecmascript" width="375mm" zoomAndPan="magnify" contentStyleType="text/css" height="530mm" viewBox="0 0 750 1060" preserveAspectRatio="xMidYMid meet" version="1.0">
    <title>CYB_BUBBLEGOM_T01_036</title>
    <svg contentScriptType="text/ecmascript" zoomAndPan="magnify" contentStyleType="text/css" class="Page" preserveAspectRatio="xMidYMid meet" version="1.0">
        <image x="0" y="0" fill-opacity="0.5" width="750" xlink:href="../Pages/CYB_BUBBLEGOM_T01_036.jpg" xlink:type="simple" xlink:actuate="onLoad" height="1060" opacity="0.5" preserveAspectRatio="xMidYMid meet" xlink:show="embed"/>
        <metadata collectionTitle="Bubblegôm Gôm" editorName="Studio Cyborga" doublePage="false" website="http://bubblegom.webcomics.fr/page/bubbleg%C3%B4m-la-couv#page" albumTitle="La Légende des Yaouanks" drawerName="Cyborg 07" language="french" resolution="" ISBN="979-10-90655-01-0" readingDirection="leftToRight" writerName="Cyborg 07" releaseDate="2009" pageNumber="36"/>
    </svg>
	<style type="text/css" xml:space="preserve">
        * { stroke-width: 0; stroke-linejoin: round; }
        .Unclassified { fill: orange; stroke: none; opacity: 1.0; visibility: hidden; }
        .Noise { fill: pink; stroke: none; opacity: 0.2; visibility: hidden; }
        .Panel { fill: red; stroke: none; opacity: 0.3; visibility: visible; image-rendering: optimizeSpeed; }
        .Line { fill: green; stroke: none; opacity: 0.5; visibility: visible; image-rendering: optimizeSpeed; }
        .TextArea { fill: grey; stroke: none; opacity: 0.2; visibility: visible; image-rendering: optimizeSpeed; }
        .Balloon { fill: cyan; stroke: none; opacity: 0.5; visibility: visible; image-rendering: optimizeSpeed; }
        .Letter { fill: blue; stroke: none; opacity: 0.2; visibility: hidden; }
        .Character { fill: yellow; stroke: none; opacity: 0.3; visibility: visible; image-rendering: optimizeSpeed; }
        .Page { fill: white; stroke: none; opacity: 0.5; visibility: visible; }
        .linkSBSC { fill: blue; stroke: none; opacity: 0.5; visibility: visible; }
        polygon:hover { stroke:red;stroke-width:2; } 
    </style><svg contentScriptType="text/ecmascript" zoomAndPan="magnify" contentStyleType="text/css" class="Panel" preserveAspectRatio="xMidYMid meet" version="1.0">
        <polygon points="322,403 698,403 698,637 322,637 322,403" id="CYB_BUBBLEGOM_T01_036_panel_0">
            <metadata viewAngle="" shot="" rank="3"/>
        </polygon>
        <polygon points="53,669 360,669 360,957 53,957 53,669" id="CYB_BUBBLEGOM_T01_036_panel_1">
            <metadata viewAngle="" shot="" rank="4"/>
        </polygon>
        <polygon points="393,673 698,673 698,960 393,960 393,673" id="CYB_BUBBLEGOM_T01_036_panel_2">
            <metadata viewAngle="" shot="" rank="5"/>
        </polygon>
        <polygon points="51,68 726,68 726,370 51,370 51,68" id="CYB_BUBBLEGOM_T01_036_panel_3">
            <metadata viewAngle="" shot="" rank="1"/>
        </polygon>
        <polygon points="52,402 306,402 306,636 52,636 52,402" id="CYB_BUBBLEGOM_T01_036_panel_4">
            <metadata viewAngle="" shot="" rank="2"/>
        </polygon>
    </svg>
    <svg contentScriptType="text/ecmascript" zoomAndPan="magnify" contentStyleType="text/css" class="TextArea" preserveAspectRatio="xMidYMid meet" version="1.0"/>
    <svg contentScriptType="text/ecmascript" zoomAndPan="magnify" contentStyleType="text/css" class="Balloon" preserveAspectRatio="xMidYMid meet" version="1.0">
        <polygon points="59,450 54,445 52,402 148,402 154,409 158,416 162,423 179,422 179,427 188,426 188,433 170,435 171,428 164,430 164,437 157,447 148,454 82,459 73,457 66,454 68,448 62,454 59,450" id="CYB_BUBBLEGOM_T01_036_balloon_0">
            <metadata borderStyle="smooth" tailTip="188,433" boundingBox="" tailDirection="E" rank="1"/>
        </polygon>
        <polygon points="77,474 78,462 84,459 96,452 113,449 129,449 141,452 152,453 163,459 171,467 171,475 166,485 155,491 138,497 127,498 122,497 120,516 117,511 117,498 105,494 90,487 81,480 77,474" id="CYB_BUBBLEGOM_T01_036_balloon_1">
            <metadata borderStyle="smooth" tailTip="120,516" boundingBox="" tailDirection="S" rank="2"/>
        </polygon>
        <polygon points="186,445 186,423 189,416 194,412 197,414 196,411 202,407 207,404 210,403 304,404 304,474 295,478 293,485 282,498 286,486 285,479 270,480 244,478 215,472 198,463 189,453 186,445" id="CYB_BUBBLEGOM_T01_036_balloon_2">
            <metadata borderStyle="smooth" tailTip="282,498" boundingBox="" tailDirection="S" rank="3"/>
        </polygon>
        <polygon points="208,608 216,605 232,604 247,606 259,610 264,618 267,624 266,633 260,643 200,639 196,630 198,619 200,615 192,609 192,605 199,608 203,611 208,608" id="CYB_BUBBLEGOM_T01_036_balloon_3">
            <metadata borderStyle="smooth" tailTip="192,605" boundingBox="" tailDirection="NW" rank="4"/>
        </polygon>
        <polygon points="331,455 321,450 319,403 425,404 428,413 428,423 422,436 415,443 409,441 410,446 402,452 385,458 369,459 354,459 351,464 351,467 354,472 350,478 350,488 348,496 347,506 344,502 343,491 344,481 347,474 344,469 344,462 346,460 331,455" id="CYB_BUBBLEGOM_T01_036_balloon_4">
            <metadata borderStyle="smooth" tailTip="347,506" boundingBox="" tailDirection="S" rank="5"/>
        </polygon>
        <polygon points="53,780 53,669 236,670 240,684 242,693 244,701 240,714 235,736 230,752 219,760 197,768 173,772 156,780 132,782 119,785 95,782 91,796 95,805 85,821 88,827 89,843 95,845 104,850 111,847 111,850 115,851 121,853 110,854 110,852 100,853 92,849 80,850 78,832 74,823 84,804 79,797 82,790 87,784 67,788 59,782 53,780" id="CYB_BUBBLEGOM_T01_036_balloon_5">
            <metadata borderStyle="smooth" tailTip="121,853" boundingBox="" tailDirection="E" rank="6"/>
        </polygon>
        <polygon points="306,915 319,910 336,906 348,903 365,902 390,906 408,914 421,929 423,942 413,961 395,972 296,976 284,967 279,958 276,948 279,939 287,927 286,918 294,922 306,915" id="CYB_BUBBLEGOM_T01_036_balloon_6">
            <metadata borderStyle="smooth" tailTip="286,918" boundingBox="" tailDirection="NW" rank="7"/>
        </polygon>
        <polygon points="400,775 406,767 393,767 393,672 613,672 630,678 618,684 637,696 620,698 630,710 620,710 634,730 618,728 625,742 610,738 616,752 609,749 609,751 602,748 609,767 593,760 600,770 587,764 587,773 580,769 580,780 574,774 574,783 568,778 565,786 555,778 554,799 546,789 544,797 534,788 532,796 527,790 521,798 511,789 504,801 492,788 481,804 474,789 469,790 467,787 463,790 473,794 464,806 482,820 491,833 478,823 458,811 451,809 453,800 448,801 448,790 440,798 438,786 424,789 427,778 409,784 412,774 400,775" id="CYB_BUBBLEGOM_T01_036_balloon_7">
            <metadata borderStyle="spiky" tailTip="491,833" boundingBox="" tailDirection="SE" rank="8"/>
        </polygon>
    </svg>
    <svg contentScriptType="text/ecmascript" zoomAndPan="magnify" contentStyleType="text/css" class="Character" preserveAspectRatio="xMidYMid meet" version="1.0">
        <polygon points="457,113 705,113 705,351 457,351 457,113" id="CYB_BUBBLEGOM_T01_036_character_0">
            <metadata uri="" area="" fillingPcent=""/>
        </polygon>
        <polygon points="80,80 369,80 369,371 80,371 80,80" id="CYB_BUBBLEGOM_T01_036_character_1">
            <metadata uri="" area="" fillingPcent=""/>
        </polygon>
        <polygon points="195,475 305,475 305,634 195,634 195,475" id="CYB_BUBBLEGOM_T01_036_character_2">
            <metadata uri="" area="" fillingPcent=""/>
        </polygon>
        <polygon points="65,516 193,516 193,635 65,635 65,516" id="CYB_BUBBLEGOM_T01_036_character_3">
            <metadata uri="" area="" fillingPcent=""/>
        </polygon>
        <polygon points="323,519 408,519 408,634 323,634 323,519" id="CYB_BUBBLEGOM_T01_036_character_4">
            <metadata uri="" area="" fillingPcent=""/>
        </polygon>
        <polygon points="385,553 500,553 500,635 385,635 385,553" id="CYB_BUBBLEGOM_T01_036_character_5">
            <metadata uri="" area="" fillingPcent=""/>
        </polygon>
        <polygon points="489,405 698,405 698,639 489,639 489,405" id="CYB_BUBBLEGOM_T01_036_character_6">
            <metadata uri="" area="" fillingPcent=""/>
        </polygon>
        <polygon points="98,700 356,700 356,959 98,959 98,700" id="CYB_BUBBLEGOM_T01_036_character_7">
            <metadata uri="" area="" fillingPcent=""/>
        </polygon>
        <polygon points="390,676 698,676 698,960 390,960 390,676" id="CYB_BUBBLEGOM_T01_036_character_8">
            <metadata uri="" area="" fillingPcent=""/>
        </polygon>
    </svg>
    <svg contentScriptType="text/ecmascript" zoomAndPan="magnify" contentStyleType="text/css" class="Line" preserveAspectRatio="xMidYMid meet" version="1.0">
        <polygon points="308,268 452,268 452,338 308,338 308,268" id="CYB_BUBBLEGOM_T01_036_line_0">
            <metadata method="" typography="" textType="onomatopoeia">TCHAK!</metadata>
        </polygon>
        <polygon points="73,424 130,424 130,437 73,437 73,424" id="CYB_BUBBLEGOM_T01_036_line_1">
            <metadata method="" typography="" idBalloon="CYB_BUBBLEGOM_T01_036_balloon_0" textType="speech">ÇA VA ?</metadata>
        </polygon>
        <polygon points="98,463 150,463 150,474 98,474 98,463" id="CYB_BUBBLEGOM_T01_036_line_2">
            <metadata method="" typography="" idBalloon="CYB_BUBBLEGOM_T01_036_balloon_1" textType="speech">AU POIL</metadata>
        </polygon>
        <polygon points="122,476 127,476 127,486 122,486 122,476" id="CYB_BUBBLEGOM_T01_036_line_3">
            <metadata method="" typography="" idBalloon="CYB_BUBBLEGOM_T01_036_balloon_1" textType="speech">!</metadata>
        </polygon>
        <polygon points="214,413 287,413 287,424 214,424 214,413" id="CYB_BUBBLEGOM_T01_036_line_4">
            <metadata method="" typography="" idBalloon="CYB_BUBBLEGOM_T01_036_balloon_2" textType="speech">UNE AUTRE</metadata>
        </polygon>
        <polygon points="213,427 287,427 287,437 213,437 213,427" id="CYB_BUBBLEGOM_T01_036_line_5">
            <metadata method="" typography="" idBalloon="CYB_BUBBLEGOM_T01_036_balloon_2" textType="speech">IDÉE POUR</metadata>
        </polygon>
        <polygon points="203,439 297,439 297,449 203,449 203,439" id="CYB_BUBBLEGOM_T01_036_line_6">
            <metadata method="" typography="" idBalloon="CYB_BUBBLEGOM_T01_036_balloon_2" textType="speech">NOUS SORTIR</metadata>
        </polygon>
        <polygon points="220,452 280,452 280,462 220,462 220,452" id="CYB_BUBBLEGOM_T01_036_line_7">
            <metadata method="" typography="" idBalloon="CYB_BUBBLEGOM_T01_036_balloon_2" textType="speech">DE LÀ ?</metadata>
        </polygon>
        <polygon points="221,612 243,612 243,621 221,621 221,612" id="CYB_BUBBLEGOM_T01_036_line_8">
            <metadata method="" typography="" idBalloon="CYB_BUBBLEGOM_T01_036_balloon_3" textType="speech">PAS</metadata>
        </polygon>
        <polygon points="203,621 259,621 259,631 203,631 203,621" id="CYB_BUBBLEGOM_T01_036_line_9">
            <metadata method="" typography="" idBalloon="CYB_BUBBLEGOM_T01_036_balloon_3" textType="speech">VRAIMENT</metadata>
        </polygon>
        <polygon points="226,634 238,634 238,641 226,641 226,634" id="CYB_BUBBLEGOM_T01_036_line_10">
            <metadata method="" typography="" idBalloon="CYB_BUBBLEGOM_T01_036_balloon_3" textType="speech">...</metadata>
        </polygon>
        <polygon points="319,408 413,408 413,419 319,419 319,408" id="CYB_BUBBLEGOM_T01_036_line_11">
            <metadata method="" typography="" idBalloon="CYB_BUBBLEGOM_T01_036_balloon_4" textType="speech">C'EST CE QUE</metadata>
        </polygon>
        <polygon points="317,421 414,421 414,432 317,432 317,421" id="CYB_BUBBLEGOM_T01_036_line_12">
            <metadata method="" typography="" idBalloon="CYB_BUBBLEGOM_T01_036_balloon_4" textType="speech">JE REDOUTAIS</metadata>
        </polygon>
        <polygon points="359,438 372,438 372,445 359,445 359,438" id="CYB_BUBBLEGOM_T01_036_line_13">
            <metadata method="" typography="" idBalloon="CYB_BUBBLEGOM_T01_036_balloon_4" textType="speech">...</metadata>
        </polygon>
        <polygon points="88,675 204,675 204,686 88,686 88,675" id="CYB_BUBBLEGOM_T01_036_line_14">
            <metadata method="" typography="" idBalloon="CYB_BUBBLEGOM_T01_036_balloon_5" textType="speech">SALES GNOMES !</metadata>
        </polygon>
        <polygon points="93,688 199,688 199,698 93,698 93,688" id="CYB_BUBBLEGOM_T01_036_line_15">
            <metadata method="" typography="" idBalloon="CYB_BUBBLEGOM_T01_036_balloon_5" textType="speech">ARRACHER DES</metadata>
        </polygon>
        <polygon points="61,701 231,701 231,711 61,711 61,701" id="CYB_BUBBLEGOM_T01_036_line_16">
            <metadata method="" typography="" idBalloon="CYB_BUBBLEGOM_T01_036_balloon_5" textType="speech">ÉLÉMENTS DE L'ANATOMIE</metadata>
        </polygon>
        <polygon points="64,714 227,714 227,724 64,724 64,714" id="CYB_BUBBLEGOM_T01_036_line_17">
            <metadata method="" typography="" idBalloon="CYB_BUBBLEGOM_T01_036_balloon_5" textType="speech">À TOUNGO LE MONSTRE</metadata>
        </polygon>
        <polygon points="81,727 210,727 210,737 81,737 81,727" id="CYB_BUBBLEGOM_T01_036_line_18">
            <metadata method="" typography="" idBalloon="CYB_BUBBLEGOM_T01_036_balloon_5" textType="speech">ASSASSIN VA VOUS</metadata>
        </polygon>
        <polygon points="75,739 217,739 217,749 75,749 75,739" id="CYB_BUBBLEGOM_T01_036_line_19">
            <metadata method="" typography="" idBalloon="CYB_BUBBLEGOM_T01_036_balloon_5" textType="speech">AMENER TOUT DROIT</metadata>
        </polygon>
        <polygon points="83,752 153,752 153,762 83,762 83,752" id="CYB_BUBBLEGOM_T01_036_line_20">
            <metadata method="" typography="" idBalloon="CYB_BUBBLEGOM_T01_036_balloon_5" textType="speech">DANS SON</metadata>
        </polygon>
        <polygon points="79,765 150,765 150,775 79,775 79,765" id="CYB_BUBBLEGOM_T01_036_line_21">
            <metadata method="" typography="" idBalloon="CYB_BUBBLEGOM_T01_036_balloon_5" textType="speech">ESTOMAC !</metadata>
        </polygon>
        <polygon points="329,914 369,914 369,924 329,924 329,914" id="CYB_BUBBLEGOM_T01_036_line_22">
            <metadata method="" typography="" idBalloon="CYB_BUBBLEGOM_T01_036_balloon_6" textType="speech">TU NE</metadata>
        </polygon>
        <polygon points="295,927 403,927 403,937 295,937 295,927" id="CYB_BUBBLEGOM_T01_036_line_23">
            <metadata method="" typography="" idBalloon="CYB_BUBBLEGOM_T01_036_balloon_6" textType="speech">TOUCHERAS PAS</metadata>
        </polygon>
        <polygon points="294,939 403,939 403,949 294,949 294,939" id="CYB_BUBBLEGOM_T01_036_line_24">
            <metadata method="" typography="" idBalloon="CYB_BUBBLEGOM_T01_036_balloon_6" textType="speech">À UN CHEVEU DE</metadata>
        </polygon>
        <polygon points="409,687 597,687 597,714 409,714 409,687" id="CYB_BUBBLEGOM_T01_036_line_25">
            <metadata method="" typography="" idBalloon="CYB_BUBBLEGOM_T01_036_balloon_7" textType="speech">QUI A OSÉ</metadata>
        </polygon>
        <polygon points="435,720 571,720 571,751 435,751 435,720" id="CYB_BUBBLEGOM_T01_036_line_26">
            <metadata method="" typography="" idBalloon="CYB_BUBBLEGOM_T01_036_balloon_7" textType="speech">DIRE ÇA</metadata>
        </polygon>
        <polygon points="465,751 540,751 540,776 465,776 465,751" id="CYB_BUBBLEGOM_T01_036_line_27">
            <metadata method="" typography="" idBalloon="CYB_BUBBLEGOM_T01_036_balloon_7" textType="speech">?!?</metadata>
        </polygon>
        <polygon points="314,963 383,963 383,974 314,974 314,963" id="CYB_BUBBLEGOM_T01_036_line_28">
            <metadata method="" typography="" idBalloon="CYB_BUBBLEGOM_T01_036_balloon_6" textType="speech">CRÉATURE.</metadata>
        </polygon>
        <polygon points="304,950 392,950 392,962 304,962 304,950" id="CYB_BUBBLEGOM_T01_036_line_29">
            <metadata method="" typography="" idBalloon="CYB_BUBBLEGOM_T01_036_balloon_6" textType="speech">CES ENFANTS,</metadata>
        </polygon>
    </svg>
    <svg contentScriptType="text/ecmascript" zoomAndPan="magnify" contentStyleType="text/css" class="linkSBSC" preserveAspectRatio="xMidYMid meet" version="1.0">
    <polygon points="124,482 125,482 124,575 123,575 124,482" idCharacter="CYB_BUBBLEGOM_T01_036_character_3" idBalloon="CYB_BUBBLEGOM_T01_036_balloon_1"/>
    <polygon points="245,450 246,450 251,554 250,554 245,450" idCharacter="CYB_BUBBLEGOM_T01_036_character_2" idBalloon="CYB_BUBBLEGOM_T01_036_balloon_2"/>
    <polygon points="120,430 121,430 251,554 250,554 120,430" idCharacter="CYB_BUBBLEGOM_T01_036_character_2" idBalloon="CYB_BUBBLEGOM_T01_036_balloon_0"/>
    <polygon points="229,623 230,623 124,575 123,575 229,623" idCharacter="CYB_BUBBLEGOM_T01_036_character_3" idBalloon="CYB_BUBBLEGOM_T01_036_balloon_3"/>
    <polygon points="373,454 374,454 366,576 365,576 373,454" idCharacter="CYB_BUBBLEGOM_T01_036_character_4" idBalloon="CYB_BUBBLEGOM_T01_036_balloon_4"/>
    <polygon points="148,761 149,761 228,816 227,816 148,761" idCharacter="CYB_BUBBLEGOM_T01_036_character_7" idBalloon="CYB_BUBBLEGOM_T01_036_balloon_5"/>
    <polygon points="349,939 350,939 228,816 227,816 349,939" idCharacter="CYB_BUBBLEGOM_T01_036_character_7" idBalloon="CYB_BUBBLEGOM_T01_036_balloon_6"/>
    <polygon points="515,752 516,752 545,818 544,818 515,752" idCharacter="CYB_BUBBLEGOM_T01_036_character_8" idBalloon="CYB_BUBBLEGOM_T01_036_balloon_7"/>
  </svg>
<metadata method="GroundTruth" lastModificationDate="Fri Feb 14 18:54:58 CET 2014" lastStepModified="Balloon_Rank"/>
</svg>