<?xml version="1.0" encoding="UTF-8" standalone="no"?>
<svg xmlns="http://www.w3.org/2000/svg" xmlns:xlink="http://www.w3.org/1999/xlink" contentScriptType="text/ecmascript" width="640mm" zoomAndPan="magnify" contentStyleType="text/css" height="700mm" viewBox="0 0 1280 1400" preserveAspectRatio="xMidYMid meet" version="1.0">
    <title>CYB_SUPERCOMPTOIR_001</title>
    <svg contentScriptType="text/ecmascript" zoomAndPan="magnify" contentStyleType="text/css" class="Page" preserveAspectRatio="xMidYMid meet" version="1.0">
        <image x="0" y="0" fill-opacity="0.5" width="1280" xlink:href="../Pages/CYB_SUPERCOMPTOIR_001.jpg" xlink:type="simple" xlink:actuate="onLoad" height="1400" opacity="0.5" preserveAspectRatio="xMidYMid meet" xlink:show="embed"/>
        <metadata collectionTitle="Le Super Comptoir" editorName="Studio Cyborga" doublePage="false" website="http://30joursdebd.com/author/cyborg07/" albumTitle="" drawerName="Cyborg 07" language="french" resolution="" ISBN="" readingDirection="leftToRight" writerName="Cyborg 07" releaseDate="2011" pageNumber="1"/>
    </svg>
	<style type="text/css" xml:space="preserve">
        * { stroke-width: 0; stroke-linejoin: round; }
        .Unclassified { fill: orange; stroke: none; opacity: 1.0; visibility: hidden; }
        .Noise { fill: pink; stroke: none; opacity: 0.2; visibility: hidden; }
        .Panel { fill: red; stroke: none; opacity: 0.3; visibility: visible; image-rendering: optimizeSpeed; }
        .Line { fill: green; stroke: none; opacity: 0.5; visibility: visible; image-rendering: optimizeSpeed; }
        .TextArea { fill: grey; stroke: none; opacity: 0.2; visibility: visible; image-rendering: optimizeSpeed; }
        .Balloon { fill: cyan; stroke: none; opacity: 0.5; visibility: visible; image-rendering: optimizeSpeed; }
        .Letter { fill: blue; stroke: none; opacity: 0.2; visibility: hidden; }
        .Character { fill: yellow; stroke: none; opacity: 0.3; visibility: visible; image-rendering: optimizeSpeed; }
        .Page { fill: white; stroke: none; opacity: 0.5; visibility: visible; }
        .linkSBSC { fill: blue; stroke: none; opacity: 0.5; visibility: visible; }
        polygon:hover { stroke:red;stroke-width:2; } 
    </style><svg contentScriptType="text/ecmascript" zoomAndPan="magnify" contentStyleType="text/css" class="Panel" preserveAspectRatio="xMidYMid meet" version="1.0">
        <polygon points="242,156 1025,156 1025,546 240,546 242,156" id="CYB_SUPERCOMPTOIR_001_panel_0">
            <metadata viewAngle="" shot="" rank="1"/>
        </polygon>
        <polygon points="242,567 1023,567 1025,955 242,959 242,567" id="CYB_SUPERCOMPTOIR_001_panel_1">
            <metadata viewAngle="" shot="" rank="2"/>
        </polygon>
        <polygon points="242,978 1023,976 1026,1370 242,1368 242,978" id="CYB_SUPERCOMPTOIR_001_panel_2">
            <metadata viewAngle="" shot="" rank="3"/>
        </polygon>
    </svg>
    <svg contentScriptType="text/ecmascript" zoomAndPan="magnify" contentStyleType="text/css" class="TextArea" preserveAspectRatio="xMidYMid meet" version="1.0"/>
    <svg contentScriptType="text/ecmascript" zoomAndPan="magnify" contentStyleType="text/css" class="Balloon" preserveAspectRatio="xMidYMid meet" version="1.0">
        <polygon points="291,192 287,155 675,156 674,181 658,225 631,259 587,291 542,308 539,323 524,343 526,329 527,313 493,317 458,314 338,268 303,223 291,192" id="CYB_SUPERCOMPTOIR_001_balloon_0">
            <metadata borderStyle="smooth" tailTip="524,343" boundingBox="" tailDirection="S" rank="1"/>
        </polygon>
        <polygon points="670,213 674,195 686,178 696,168 717,155 852,155 865,162 881,175 893,189 902,210 902,225 895,246 873,274 853,287 840,292 768,301 732,292 709,280 696,285 683,296 691,298 694,305 683,315 675,324 684,328 690,343 678,339 662,333 665,322 676,307 666,303 670,292 682,278 691,268 677,249 671,232 670,213" id="CYB_SUPERCOMPTOIR_001_balloon_1">
            <metadata borderStyle="smooth" tailTip="690,343" boundingBox="" tailDirection="SE" rank="2"/>
        </polygon>
        <polygon points="308,614 311,585 322,565 867,564 875,574 882,597 881,625 865,659 834,691 825,696 697,744 654,752 633,752 632,763 635,767 642,776 649,778 633,779 619,772 612,764 613,755 572,751 517,747 457,733 342,676 322,649 312,629 308,614" id="CYB_SUPERCOMPTOIR_001_balloon_2">
            <metadata borderStyle="smooth" tailTip="649,778" boundingBox="" tailDirection="SE" rank="3"/>
        </polygon>
        <polygon points="416,1039 424,1013 435,1000 448,993 462,984 481,977 576,977 603,989 625,1001 638,1021 643,1039 638,1059 625,1079 603,1094 572,1106 539,1111 520,1110 513,1119 499,1128 479,1124 490,1117 500,1108 472,1102 445,1090 426,1071 417,1054 416,1039" id="CYB_SUPERCOMPTOIR_001_balloon_3">
            <metadata borderStyle="smooth" tailTip="479,1124" boundingBox="" tailDirection="W" rank="4"/>
        </polygon>
    </svg>
    <svg contentScriptType="text/ecmascript" zoomAndPan="magnify" contentStyleType="text/css" class="Character" preserveAspectRatio="xMidYMid meet" version="1.0">
        <polygon points="693,260 941,260 941,531 693,531 693,260" id="CYB_SUPERCOMPTOIR_001_character_0">
            <metadata uri="" area="" fillingPcent=""/>
        </polygon>
        <polygon points="306,258 476,258 476,516 306,516 306,258" id="CYB_SUPERCOMPTOIR_001_character_1">
            <metadata uri="" area="" fillingPcent=""/>
        </polygon>
        <polygon points="692,680 935,680 935,966 692,966 692,680" id="CYB_SUPERCOMPTOIR_001_character_2">
            <metadata uri="" area="" fillingPcent=""/>
        </polygon>
        <polygon points="299,666 478,666 478,926 299,926 299,666" id="CYB_SUPERCOMPTOIR_001_character_3">
            <metadata uri="" area="" fillingPcent=""/>
        </polygon>
        <polygon points="271,1059 473,1059 473,1352 271,1352 271,1059" id="CYB_SUPERCOMPTOIR_001_character_4">
            <metadata uri="" area="" fillingPcent=""/>
        </polygon>
        <polygon points="502,1098 689,1098 689,1352 502,1352 502,1098" id="CYB_SUPERCOMPTOIR_001_character_5">
            <metadata uri="" area="" fillingPcent=""/>
        </polygon>
        <polygon points="705,1085 929,1085 929,1351 705,1351 705,1085" id="CYB_SUPERCOMPTOIR_001_character_6">
            <metadata uri="" area="" fillingPcent=""/>
        </polygon>
    </svg>
    <svg contentScriptType="text/ecmascript" zoomAndPan="magnify" contentStyleType="text/css" class="Line" preserveAspectRatio="xMidYMid meet" version="1.0">
        <polygon points="345,157 622,157 622,176 345,176 345,157" id="CYB_SUPERCOMPTOIR_001_line_0">
            <metadata method="" typography="" idBalloon="CYB_SUPERCOMPTOIR_001_balloon_0" textType="speech">J'AI UNE PÊCHE DE GUEDIN,</metadata>
        </polygon>
        <polygon points="336,180 629,180 629,197 336,197 336,180" id="CYB_SUPERCOMPTOIR_001_line_1">
            <metadata method="" typography="" idBalloon="CYB_SUPERCOMPTOIR_001_balloon_0" textType="speech">MOI, AUJOURD'HUI ! Y A PAS</metadata>
        </polygon>
        <polygon points="332,201 633,201 633,216 332,216 332,201" id="CYB_SUPERCOMPTOIR_001_line_2">
            <metadata method="" typography="" idBalloon="CYB_SUPERCOMPTOIR_001_balloon_0" textType="speech">À DIRE : SAUVER LE MONDE</metadata>
        </polygon>
        <polygon points="371,218 596,218 596,235 371,235 371,218" id="CYB_SUPERCOMPTOIR_001_line_3">
            <metadata method="" typography="" idBalloon="CYB_SUPERCOMPTOIR_001_balloon_0" textType="speech">ÇA VAUT BIEN UN BON</metadata>
        </polygon>
        <polygon points="355,239 608,239 608,255 355,255 355,239" id="CYB_SUPERCOMPTOIR_001_line_4">
            <metadata method="" typography="" idBalloon="CYB_SUPERCOMPTOIR_001_balloon_0" textType="speech">STEAK ! ET TOI GOLDO,</metadata>
        </polygon>
        <polygon points="459,258 570,258 570,279 459,279 459,258" id="CYB_SUPERCOMPTOIR_001_line_5">
            <metadata method="" typography="" idBalloon="CYB_SUPERCOMPTOIR_001_balloon_0" textType="speech">ÇA BOUME</metadata>
        </polygon>
        <polygon points="492,275 513,275 513,296 492,296 492,275" id="CYB_SUPERCOMPTOIR_001_line_6">
            <metadata method="" typography="" idBalloon="CYB_SUPERCOMPTOIR_001_balloon_0" textType="speech">?</metadata>
        </polygon>
        <polygon points="742,192 820,192 820,220 742,220 742,192" id="CYB_SUPERCOMPTOIR_001_line_7">
            <metadata method="" typography="" idBalloon="CYB_SUPERCOMPTOIR_001_balloon_1" textType="speech">NAN</metadata>
        </polygon>
        <polygon points="763,227 806,227 806,256 763,256 763,227" id="CYB_SUPERCOMPTOIR_001_line_8">
            <metadata method="" typography="" idBalloon="CYB_SUPERCOMPTOIR_001_balloon_1" textType="speech">!!!</metadata>
        </polygon>
        <polygon points="539,69 860,69 860,109 539,109 539,69" id="CYB_SUPERCOMPTOIR_001_line_9">
            <metadata method="" typography="" textType="note">LE SUPER VIRUS</metadata>
        </polygon>
        <polygon points="355,12 693,12 693,41 355,41 355,12" id="CYB_SUPERCOMPTOIR_001_line_10">
            <metadata method="" typography="" textType="note">LE SUPER COMPTOIR</metadata>
        </polygon>
        <polygon points="417,41 542,41 542,62 417,62 417,41" id="CYB_SUPERCOMPTOIR_001_line_11">
            <metadata method="" typography="" textType="note">PRÉSENTE :</metadata>
        </polygon>
        <polygon points="336,574 855,574 855,595 336,595 336,574" id="CYB_SUPERCOMPTOIR_001_line_12">
            <metadata method="" typography="" idBalloon="CYB_SUPERCOMPTOIR_001_balloon_2" textType="speech">MARRE DE ME FAIRE PRENDRE POUR UNE TANCHE</metadata>
        </polygon>
        <polygon points="353,595 839,595 839,610 353,610 353,595" id="CYB_SUPERCOMPTOIR_001_line_13">
            <metadata method="" typography="" idBalloon="CYB_SUPERCOMPTOIR_001_balloon_2" textType="speech">À LONGUEUR D'ANNÉE ! SAUVER LE MONDE DU</metadata>
        </polygon>
        <polygon points="376,614 822,614 822,629 376,629 376,614" id="CYB_SUPERCOMPTOIR_001_line_14">
            <metadata method="" typography="" idBalloon="CYB_SUPERCOMPTOIR_001_balloon_2" textType="speech">SOIR AU MATIN, ET TOUT ÇA POUR GAGNER</metadata>
        </polygon>
        <polygon points="339,631 855,631 855,650 339,650 339,631" id="CYB_SUPERCOMPTOIR_001_line_15">
            <metadata method="" typography="" idBalloon="CYB_SUPERCOMPTOIR_001_balloon_2" textType="speech">QUOI ?! QUE DALLE ! ON N'EST MÊME PAS PAYÉ</metadata>
        </polygon>
        <polygon points="367,650 841,650 841,669 367,669 367,650" id="CYB_SUPERCOMPTOIR_001_line_16">
            <metadata method="" typography="" idBalloon="CYB_SUPERCOMPTOIR_001_balloon_2" textType="speech">UN DEMI RADIS ! JE VAIS ME FAIRE APPELER</metadata>
        </polygon>
        <polygon points="476,667 751,667 751,686 476,686 476,667" id="CYB_SUPERCOMPTOIR_001_line_17">
            <metadata method="" typography="" idBalloon="CYB_SUPERCOMPTOIR_001_balloon_2" textType="speech">SUPER BÉNÉVOLE, TIENS !</metadata>
        </polygon>
        <polygon points="497,692 693,692 693,707 497,707 497,692" id="CYB_SUPERCOMPTOIR_001_line_18">
            <metadata method="" typography="" idBalloon="CYB_SUPERCOMPTOIR_001_balloon_2" textType="speech">MONDE DE MERDE</metadata>
        </polygon>
        <polygon points="586,711 607,711 607,732 586,732 586,711" id="CYB_SUPERCOMPTOIR_001_line_19">
            <metadata method="" typography="" idBalloon="CYB_SUPERCOMPTOIR_001_balloon_2" textType="speech">!!</metadata>
        </polygon>
        <polygon points="469,1014 584,1014 584,1033 469,1033 469,1014" id="CYB_SUPERCOMPTOIR_001_line_20">
            <metadata method="" typography="" idBalloon="CYB_SUPERCOMPTOIR_001_balloon_3" textType="speech">SALUT LES</metadata>
        </polygon>
        <polygon points="480,1035 581,1035 581,1054 480,1054 480,1035" id="CYB_SUPERCOMPTOIR_001_line_21">
            <metadata method="" typography="" idBalloon="CYB_SUPERCOMPTOIR_001_balloon_3" textType="speech">GARS, ÇA</metadata>
        </polygon>
        <polygon points="475,1054 575,1054 575,1072 475,1072 475,1054" id="CYB_SUPERCOMPTOIR_001_line_22">
            <metadata method="" typography="" idBalloon="CYB_SUPERCOMPTOIR_001_balloon_3" textType="speech">BOUME ?</metadata>
        </polygon>
    </svg>
    <svg contentScriptType="text/ecmascript" zoomAndPan="magnify" contentStyleType="text/css" class="linkSBSC" preserveAspectRatio="xMidYMid meet" version="1.0">
    <polygon points="481,249 482,249 392,387 391,387 481,249" idCharacter="CYB_SUPERCOMPTOIR_001_character_1" idBalloon="CYB_SUPERCOMPTOIR_001_balloon_0"/>
    <polygon points="782,249 783,249 818,395 817,395 782,249" idCharacter="CYB_SUPERCOMPTOIR_001_character_0" idBalloon="CYB_SUPERCOMPTOIR_001_balloon_1"/>
    <polygon points="595,671 596,671 814,823 813,823 595,671" idCharacter="CYB_SUPERCOMPTOIR_001_character_2" idBalloon="CYB_SUPERCOMPTOIR_001_balloon_2"/>
    <polygon points="529,1052 530,1052 373,1205 372,1205 529,1052" idCharacter="CYB_SUPERCOMPTOIR_001_character_4" idBalloon="CYB_SUPERCOMPTOIR_001_balloon_3"/>
  </svg>
<metadata method="GroundTruth" lastModificationDate="Sat Feb 15 15:50:04 CET 2014" lastStepModified="Balloon_Rank"/>
</svg>