<?xml version="1.0" encoding="UTF-8" standalone="no"?>
<svg xmlns="http://www.w3.org/2000/svg" xmlns:xlink="http://www.w3.org/1999/xlink" contentScriptType="text/ecmascript" width="375mm" zoomAndPan="magnify" contentStyleType="text/css" height="530mm" viewBox="0 0 750 1060" preserveAspectRatio="xMidYMid meet" version="1.0">
    <title>CYB_BUBBLEGOM_T01_028</title>
    <svg contentScriptType="text/ecmascript" zoomAndPan="magnify" contentStyleType="text/css" class="Page" preserveAspectRatio="xMidYMid meet" version="1.0">
        <image x="0" y="0" width="750" xlink:href="../Pages/CYB_BUBBLEGOM_T01_028.jpg" xlink:type="simple" xlink:actuate="onLoad" height="1060" preserveAspectRatio="xMidYMid meet" xlink:show="embed"/>
        <metadata collectionTitle="Bubblegôm Gôm" editorName="Studio Cyborga" doublePage="false" website="http://bubblegom.webcomics.fr/page/bubbleg%C3%B4m-la-couv#page" albumTitle="La Légende des Yaouanks" drawerName="Cyborg 07" language="french" resolution="" ISBN="979-10-90655-01-0" readingDirection="leftToRight" writerName="Cyborg 07" releaseDate="2009" pageNumber="28"/>
    </svg>
	<style type="text/css" xml:space="preserve">
        * { stroke-width: 0; stroke-linejoin: round; }
        .Unclassified { fill: orange; stroke: none; opacity: 1.0; visibility: hidden; }
        .Noise { fill: pink; stroke: none; opacity: 0.2; visibility: hidden; }
        .Panel { fill: red; stroke: none; opacity: 0.3; visibility: visible; image-rendering: optimizeSpeed; }
        .Line { fill: green; stroke: none; opacity: 0.5; visibility: visible; image-rendering: optimizeSpeed; }
        .TextArea { fill: grey; stroke: none; opacity: 0.2; visibility: visible; image-rendering: optimizeSpeed; }
        .Balloon { fill: cyan; stroke: none; opacity: 0.5; visibility: visible; image-rendering: optimizeSpeed; }
        .Letter { fill: blue; stroke: none; opacity: 0.2; visibility: hidden; }
        .Character { fill: yellow; stroke: none; opacity: 0.3; visibility: visible; image-rendering: optimizeSpeed; }
        .Page { fill: white; stroke: none; opacity: 0.5; visibility: visible; }
        .linkSBSC { fill: blue; stroke: none; opacity: 0.5; visibility: visible; }
        polygon:hover { stroke:red;stroke-width:2; } 
    </style><svg contentScriptType="text/ecmascript" zoomAndPan="magnify" contentStyleType="text/css" class="Panel" preserveAspectRatio="xMidYMid meet" version="1.0">
        <polygon id="CYB_BUBBLEGOM_T01_028_panel_0" points="55,82 285,82 285,264 55,264 55,82">
            <metadata viewAngle="" shot="" rank="1"/>
        </polygon>
        <polygon points="301,3 746,3 746,265 301,265 301,3" id="CYB_BUBBLEGOM_T01_028_panel_1">
            <metadata viewAngle="" shot="" rank="2"/>
        </polygon>
        <polygon points="54,302 268,302 268,513 54,513 54,302" id="CYB_BUBBLEGOM_T01_028_panel_2">
            <metadata viewAngle="" shot="" rank="3"/>
        </polygon>
        <polygon points="518,300 692,300 692,513 518,513 518,300" id="CYB_BUBBLEGOM_T01_028_panel_3">
            <metadata viewAngle="" shot="" rank="5"/>
        </polygon>
        <polygon points="285,299 499,299 499,513 285,513 285,299" id="CYB_BUBBLEGOM_T01_028_panel_4">
            <metadata viewAngle="" shot="" rank="4"/>
        </polygon>
        <polygon points="3,533 410,533 410,784 3,784 3,533" id="CYB_BUBBLEGOM_T01_028_panel_5">
            <metadata viewAngle="" shot="" rank="6"/>
        </polygon>
        <polygon points="431,550 692,550 692,765 431,765 431,550" id="CYB_BUBBLEGOM_T01_028_panel_6">
            <metadata viewAngle="" shot="" rank="7"/>
        </polygon>
        <polygon points="57,802 265,802 265,962 57,962 57,802" id="CYB_BUBBLEGOM_T01_028_panel_7">
            <metadata viewAngle="" shot="" rank="8"/>
        </polygon>
        <polygon points="272,803 686,803 686,994 272,994 272,803" id="CYB_BUBBLEGOM_T01_028_panel_8">
            <metadata viewAngle="" shot="" rank="9"/>
        </polygon>
    </svg>
    <svg contentScriptType="text/ecmascript" zoomAndPan="magnify" contentStyleType="text/css" class="TextArea" preserveAspectRatio="xMidYMid meet" version="1.0"/>
    <svg contentScriptType="text/ecmascript" zoomAndPan="magnify" contentStyleType="text/css" class="Balloon" preserveAspectRatio="xMidYMid meet" version="1.0">
        <polygon points="675,68 691,56 687,70 693,68 691,75 704,66 701,78 715,76 710,81 727,78 713,91 725,91 718,98 735,101 721,107 741,113 725,117 737,121 714,124 728,137 712,133 727,147 705,139 711,151 700,143 702,146 697,145 703,151 701,153 710,164 683,175 698,162 688,156 692,151 680,141 678,153 672,142 669,149 662,137 659,147 654,139 648,147 645,140 639,149 636,139 627,146 628,141 614,150 618,141 611,146 611,137 596,142 603,132 589,134 593,128 580,130 586,122 569,126 585,111 567,107 582,103 565,96 575,96 571,90 580,90 566,79 585,84 580,73 588,77 586,70 595,74 596,70 604,67 606,62 610,66 616,65 619,60 624,66 625,62 631,65 639,65 644,59 645,65 654,59 654,67 663,60 664,68 674,59 674,69 675,68" id="CYB_BUBBLEGOM_T01_028_balloon_0">
            <metadata borderStyle="spiky" tailTip="683,175" boundingBox="" tailDirection="SW" rank="1"/>
        </polygon>
        <polygon points="62,377 56,383 53,295 204,299 230,305 218,308 231,311 218,314 221,317 210,318 174,372 173,384 170,376 169,387 165,378 165,384 159,373 157,382 149,370 141,372 90,389 89,382 82,395 87,395 83,406 90,407 83,434 82,417 74,421 78,404 70,406 78,391 69,397 71,383 62,391 63,377 62,377" id="CYB_BUBBLEGOM_T01_028_balloon_1">
            <metadata borderStyle="spiky" tailTip="83,434" boundingBox="" tailDirection="S" rank="2"/>
        </polygon>
        <polygon points="240,322 246,326 247,331 260,324 269,325 270,387 260,389 252,392 241,395 231,393 228,389 220,394 214,390 210,393 207,396 208,399 207,403 209,408 203,404 205,398 197,397 201,390 203,389 196,388 190,392 184,389 182,385 184,379 181,379 177,384 175,379 175,373 169,370 167,364 166,358 171,353 174,349 171,340 174,337 181,329 188,325 193,328 195,323 198,321 203,320 213,316 219,315 224,315 227,319 229,323 240,322" id="CYB_BUBBLEGOM_T01_028_balloon_2">
            <metadata borderStyle="wavy" tailTip="209,408" boundingBox="" tailDirection="SE" rank="3"/>
        </polygon>
        <polygon points="120,367 126,367 131,369 139,371 147,369 152,371 157,379 157,384 160,391 159,396 157,399 146,413 137,415 131,417 126,414 124,418 124,422 126,424 126,426 129,429 124,430 121,428 122,422 119,420 119,415 112,416 107,415 98,415 91,411 89,401 88,391 91,384 94,376 120,367" id="CYB_BUBBLEGOM_T01_028_balloon_3">
            <metadata borderStyle="smooth" tailTip="129,429" boundingBox="" tailDirection="SE" rank="4"/>
        </polygon>
        <polygon points="393,307 406,302 386,296 428,276 489,274 512,274 510,332 506,329 507,334 497,329 495,341 489,330 487,337 483,332 479,341 474,331 471,340 463,329 461,329 465,335 464,339 459,346 456,351 448,349 446,355 438,351 425,354 435,347 440,346 443,346 445,342 452,341 454,335 449,330 443,337 441,332 435,336 433,330 425,336 424,332 410,337 415,326 404,330 410,320 400,323 405,318 395,319 404,310 393,307" id="CYB_BUBBLEGOM_T01_028_balloon_4">
            <metadata borderStyle="spiky" tailTip="425,354" boundingBox="" tailDirection="W" rank="5"/>
        </polygon>
        <polygon points="470,392 491,392 500,394 508,420 509,438 502,451 494,455 485,455 479,455 478,465 474,455 463,455 446,449 435,436 433,426 434,411 441,402 470,392" id="CYB_BUBBLEGOM_T01_028_balloon_5">
            <metadata borderStyle="smooth" tailTip="478,465" boundingBox="" tailDirection="S" rank="6"/>
        </polygon>
        <polygon points="516,299 665,298 669,307 671,315 666,323 670,328 678,340 680,349 678,370 678,363 677,351 673,340 663,332 661,331 651,339 635,344 618,348 605,350 593,350 593,346 589,351 569,348 551,344 538,340 525,334 518,329 515,327 516,299" id="CYB_BUBBLEGOM_T01_028_balloon_6">
            <metadata borderStyle="smooth" tailTip="678,370" boundingBox="" tailDirection="S" rank="7"/>
        </polygon>
        <polygon points="625,349 641,344 655,345 668,350 673,360 671,373 665,384 656,390 644,394 630,391 617,386 615,381 601,383 610,376 609,365 613,356 620,351 625,349" id="CYB_BUBBLEGOM_T01_028_balloon_7">
            <metadata borderStyle="smooth" tailTip="601,383" boundingBox="" tailDirection="W" rank="8"/>
        </polygon>
        <polygon points="65,540 59,535 60,531 275,531 276,534 288,532 278,541 284,549 275,548 282,560 275,557 276,561 270,560 275,570 266,568 262,567 262,575 250,569 248,574 241,570 240,579 224,570 221,573 215,569 211,580 203,570 200,575 196,571 189,583 184,570 177,574 175,570 169,577 178,578 171,588 191,606 166,592 160,592 166,585 157,584 168,569 159,575 158,570 152,574 151,569 142,576 142,569 128,578 129,570 118,578 117,567 106,575 105,569 99,572 98,568 75,583 85,563 74,567 78,558 68,560 75,552 64,551 72,545 60,543 65,540" id="CYB_BUBBLEGOM_T01_028_balloon_8">
            <metadata borderStyle="spiky" tailTip="191,606" boundingBox="" tailDirection="SE" rank="9"/>
        </polygon>
        <polygon points="326,541 343,541 359,539 377,544 390,548 403,560 405,572 394,589 380,597 370,597 347,615 354,600 332,599 312,591 297,580 293,565 300,555 326,541" id="CYB_BUBBLEGOM_T01_028_balloon_9">
            <metadata borderStyle="smooth" tailTip="347,615" boundingBox="" tailDirection="SW" rank="10"/>
        </polygon>
        <polygon points="607,548 697,550 696,620 688,617 694,632 682,623 689,636 684,641 686,643 670,677 677,649 669,646 679,637 673,628 666,637 664,628 646,653 647,637 635,645 637,633 619,649 624,628 619,630 620,624 609,632 612,620 597,625 600,618 570,622 587,613 571,611 586,604 553,599 578,592 568,588 584,587 563,580 584,577 572,571 583,568 576,561 588,563 578,552 587,550 597,556 596,552 602,551 607,548" id="CYB_BUBBLEGOM_T01_028_balloon_10">
            <metadata borderStyle="spiky" tailTip="670,677" boundingBox="" tailDirection="SW" rank="11"/>
        </polygon>
        <polygon points="568,627 578,628 593,628 604,631 614,639 619,649 615,660 601,668 584,670 582,677 571,683 576,677 578,671 560,669 543,664 538,658 537,649 541,641 548,635 564,629 565,629 570,633 568,627" id="CYB_BUBBLEGOM_T01_028_balloon_11">
            <metadata borderStyle="smooth" tailTip="571,683" boundingBox="" tailDirection="SW" rank="12"/>
        </polygon>
        <polygon points="277,793 313,790 314,794 316,790 364,790 358,849 341,846 338,843 334,847 273,847 277,793" id="CYB_BUBBLEGOM_T01_028_balloon_12">
            <metadata borderStyle="smooth" tailTip="" boundingBox="" tailDirection="none" rank="13"/>
        </polygon>
        <polygon points="369,801 520,803 514,809 523,814 516,817 525,821 518,824 528,833 522,833 529,837 522,838 526,848 517,845 524,851 516,850 520,858 512,856 513,858 505,860 503,865 499,863 500,874 493,868 494,877 487,871 485,879 482,875 481,879 473,875 471,881 462,876 457,880 453,875 449,882 446,877 441,883 435,877 432,883 429,875 429,880 432,884 426,889 427,894 409,908 418,894 414,889 422,884 417,881 421,875 410,880 411,872 398,878 399,872 382,876 390,867 382,868 384,863 368,866 378,857 364,860 372,852 357,851 373,844 367,843 373,837 363,836 374,830 368,828 373,824 361,821 378,815 369,812 376,809 369,801" id="CYB_BUBBLEGOM_T01_028_balloon_13">
            <metadata borderStyle="spiky" tailTip="409,908" boundingBox="" tailDirection="SW" rank="14"/>
        </polygon>
        <polygon points="444,885 454,886 463,888 471,890 479,892 482,901 480,907 474,916 462,919 468,926 466,927 462,924 455,923 455,921 442,921 428,916 423,908 425,899 433,892 444,885" id="CYB_BUBBLEGOM_T01_028_balloon_14">
            <metadata borderStyle="smooth" tailTip="468,926" boundingBox="" tailDirection="SE" rank="15"/>
        </polygon>
        <polygon points="543,803 684,803 687,809 685,812 686,812 690,821 691,833 690,844 684,853 689,860 687,868 677,883 681,872 680,865 678,860 673,863 664,868 584,866 566,863 547,855 537,843 535,834 538,832 535,830 535,818 543,803" id="CYB_BUBBLEGOM_T01_028_balloon_15">
            <metadata borderStyle="smooth" tailTip="677,883" boundingBox="" tailDirection="SW" rank="16"/>
        </polygon>
    </svg>
    <svg contentScriptType="text/ecmascript" zoomAndPan="magnify" contentStyleType="text/css" class="Character" preserveAspectRatio="xMidYMid meet" version="1.0">
        <polygon points="85,85 288,85 288,230 85,230 85,85" id="CYB_BUBBLEGOM_T01_028_character_0">
            <metadata uri="" area="" fillingPcent=""/>
        </polygon>
        <polygon points="303,21 477,21 477,266 303,266 303,21" id="CYB_BUBBLEGOM_T01_028_character_1">
            <metadata uri="" area="" fillingPcent=""/>
        </polygon>
        <polygon points="550,187 607,187 607,237 550,237 550,187" id="CYB_BUBBLEGOM_T01_028_character_2">
            <metadata uri="" area="" fillingPcent=""/>
        </polygon>
        <polygon points="565,140 619,140 619,191 565,191 565,140" id="CYB_BUBBLEGOM_T01_028_character_3">
            <metadata uri="" area="" fillingPcent=""/>
        </polygon>
        <polygon points="628,155 678,155 678,211 628,211 628,155" id="CYB_BUBBLEGOM_T01_028_character_4">
            <metadata uri="" area="" fillingPcent=""/>
        </polygon>
        <polygon points="54,422 146,422 146,520 54,520 54,422" id="CYB_BUBBLEGOM_T01_028_character_5">
            <metadata uri="" area="" fillingPcent=""/>
        </polygon>
        <polygon points="130,397 199,397 199,514 130,514 130,397" id="CYB_BUBBLEGOM_T01_028_character_6">
            <metadata uri="" area="" fillingPcent=""/>
        </polygon>
        <polygon points="160,408 270,408 270,514 160,514 160,408" id="CYB_BUBBLEGOM_T01_028_character_7">
            <metadata uri="" area="" fillingPcent=""/>
        </polygon>
        <polygon points="289,451 378,451 378,515 289,515 289,451" id="CYB_BUBBLEGOM_T01_028_character_8">
            <metadata uri="" area="" fillingPcent=""/>
        </polygon>
        <polygon points="378,455 465,455 465,515 378,515 378,455" id="CYB_BUBBLEGOM_T01_028_character_9">
            <metadata uri="" area="" fillingPcent=""/>
        </polygon>
        <polygon points="463,461 505,461 505,517 463,517 463,461" id="CYB_BUBBLEGOM_T01_028_character_10">
            <metadata uri="" area="" fillingPcent=""/>
        </polygon>
        <polygon points="284,299 476,299 476,466 284,466 284,299" id="CYB_BUBBLEGOM_T01_028_character_11">
            <metadata uri="" area="" fillingPcent=""/>
        </polygon>
        <polygon points="592,393 696,393 696,516 592,516 592,393" id="CYB_BUBBLEGOM_T01_028_character_12">
            <metadata uri="" area="" fillingPcent=""/>
        </polygon>
        <polygon points="517,438 595,438 595,518 517,518 517,438" id="CYB_BUBBLEGOM_T01_028_character_13">
            <metadata uri="" area="" fillingPcent=""/>
        </polygon>
        <polygon points="517,348 603,348 603,451 517,451 517,348" id="CYB_BUBBLEGOM_T01_028_character_14">
            <metadata uri="" area="" fillingPcent=""/>
        </polygon>
        <polygon points="2,590 185,590 185,703 2,703 2,590" id="CYB_BUBBLEGOM_T01_028_character_15">
            <metadata uri="" area="" fillingPcent=""/>
        </polygon>
        <polygon points="158,598 285,598 285,752 158,752 158,598" id="CYB_BUBBLEGOM_T01_028_character_16">
            <metadata uri="" area="" fillingPcent=""/>
        </polygon>
        <polygon points="277,599 412,599 412,741 277,741 277,599" id="CYB_BUBBLEGOM_T01_028_character_17">
            <metadata uri="" area="" fillingPcent=""/>
        </polygon>
        <polygon points="551,664 695,664 695,769 551,769 551,664" id="CYB_BUBBLEGOM_T01_028_character_18">
            <metadata uri="" area="" fillingPcent=""/>
        </polygon>
        <polygon points="447,667 560,667 560,769 447,769 447,667" id="CYB_BUBBLEGOM_T01_028_character_19">
            <metadata uri="" area="" fillingPcent=""/>
        </polygon>
        <polygon points="56,810 168,810 168,966 56,966 56,810" id="CYB_BUBBLEGOM_T01_028_character_20">
            <metadata uri="" area="" fillingPcent=""/>
        </polygon>
        <polygon points="206,842 224,842 224,861 206,861 206,842" id="CYB_BUBBLEGOM_T01_028_character_21">
            <metadata uri="" area="" fillingPcent=""/>
        </polygon>
        <polygon points="235,848 244,848 244,859 235,859 235,848" id="CYB_BUBBLEGOM_T01_028_character_22">
            <metadata uri="" area="" fillingPcent=""/>
        </polygon>
        <polygon points="225,844 240,844 240,863 225,863 225,844" id="CYB_BUBBLEGOM_T01_028_character_23">
            <metadata uri="" area="" fillingPcent=""/>
        </polygon>
        <polygon points="313,879 399,879 399,953 313,953 313,879" id="CYB_BUBBLEGOM_T01_028_character_24">
            <metadata uri="" area="" fillingPcent=""/>
        </polygon>
        <polygon points="555,856 682,856 682,999 555,999 555,856" id="CYB_BUBBLEGOM_T01_028_character_25">
            <metadata uri="" area="" fillingPcent=""/>
        </polygon>
        <polygon points="470,858 564,858 564,985 470,985 470,858" id="CYB_BUBBLEGOM_T01_028_character_26">
            <metadata uri="" area="" fillingPcent=""/>
        </polygon>
    </svg>
    <svg contentScriptType="text/ecmascript" zoomAndPan="magnify" contentStyleType="text/css" class="Line" preserveAspectRatio="xMidYMid meet" version="1.0">
        <polygon points="207,224 250,224 250,232 207,232 207,224" id="CYB_BUBBLEGOM_T01_028_line_0">
            <metadata method="" typography="" textType="narrative">CAILLOU</metadata>
        </polygon>
        <polygon points="193,242 260,242 265,251 193,251 193,242" id="CYB_BUBBLEGOM_T01_028_line_1">
            <metadata method="" typography="" textType="narrative">SUR LE SOL.</metadata>
        </polygon>
        <polygon points="623,107 701,107 701,117 623,117 623,107" id="CYB_BUBBLEGOM_T01_028_line_2">
            <metadata method="" typography="" idBalloon="CYB_BUBBLEGOM_T01_028_balloon_0" textType="speech">VA, PAS LA</metadata>
        </polygon>
        <polygon points="632,116 694,118 692,131 632,131 632,116" id="CYB_BUBBLEGOM_T01_028_line_3">
            <metadata method="" typography="" idBalloon="CYB_BUBBLEGOM_T01_028_balloon_0" textType="speech">TÊTE !?</metadata>
        </polygon>
        <polygon points="596,65 649,65 649,107 596,107 596,65" id="CYB_BUBBLEGOM_T01_028_line_4">
            <metadata method="" typography="" idBalloon="CYB_BUBBLEGOM_T01_028_balloon_0" textType="speech">!?</metadata>
        </polygon>
        <polygon points="54,297 188,300 187,312 54,312 54,297" id="CYB_BUBBLEGOM_T01_028_line_5">
            <metadata method="" typography="" idBalloon="CYB_BUBBLEGOM_T01_028_balloon_1" textType="speech">MÉCHANT LAPIN QUI</metadata>
        </polygon>
        <polygon points="54,311 182,311 182,325 54,325 54,311" id="CYB_BUBBLEGOM_T01_028_line_6">
            <metadata method="" typography="" idBalloon="CYB_BUBBLEGOM_T01_028_balloon_1" textType="speech">PUE ! CES HEROS</metadata>
        </polygon>
        <polygon points="55,327 175,327 175,337 55,337 55,327" id="CYB_BUBBLEGOM_T01_028_line_7">
            <metadata method="" typography="" idBalloon="CYB_BUBBLEGOM_T01_028_balloon_1" textType="speech">VONT TE, METTRE</metadata>
        </polygon>
        <polygon points="55,336 154,336 154,350 55,350 55,336" id="CYB_BUBBLEGOM_T01_028_line_8">
            <metadata method="" typography="" idBalloon="CYB_BUBBLEGOM_T01_028_balloon_1" textType="speech">LA RACLÉE DE</metadata>
        </polygon>
        <polygon points="56,353 115,353 115,363 56,363 56,353" id="CYB_BUBBLEGOM_T01_028_line_9">
            <metadata method="" typography="" idBalloon="CYB_BUBBLEGOM_T01_028_balloon_1" textType="speech">TA VIE !!</metadata>
        </polygon>
        <polygon points="206,335 253,335 253,344 206,344 206,335" id="CYB_BUBBLEGOM_T01_028_line_10">
            <metadata method="" typography="" idBalloon="CYB_BUBBLEGOM_T01_028_balloon_2" textType="speech">HA HA ...</metadata>
        </polygon>
        <polygon points="186,347 272,347 272,355 186,355 186,347" id="CYB_BUBBLEGOM_T01_028_line_11">
            <metadata method="" typography="" idBalloon="CYB_BUBBLEGOM_T01_028_balloon_2" textType="speech">LES ENFANTS</metadata>
        </polygon>
        <polygon points="192,355 266,355 266,367 192,367 192,355" id="CYB_BUBBLEGOM_T01_028_line_12">
            <metadata method="" typography="" idBalloon="CYB_BUBBLEGOM_T01_028_balloon_2" textType="speech">EXAGÈRENT</metadata>
        </polygon>
        <polygon points="190,370 268,370 268,379 190,379 190,370" id="CYB_BUBBLEGOM_T01_028_line_13">
            <metadata method="" typography="" idBalloon="CYB_BUBBLEGOM_T01_028_balloon_2" textType="speech">TOUJOURS ...</metadata>
        </polygon>
        <polygon points="96,380 154,380 154,388 96,388 96,380" id="CYB_BUBBLEGOM_T01_028_line_14">
            <metadata method="" typography="" idBalloon="CYB_BUBBLEGOM_T01_028_balloon_3" textType="speech">MAIS CHUT !</metadata>
        </polygon>
        <polygon points="96,388 143,388 143,396 96,396 96,396" id="CYB_BUBBLEGOM_T01_028_line_15">
            <metadata method="" typography="" idBalloon="CYB_BUBBLEGOM_T01_028_balloon_3" textType="speech">FAUT PAS</metadata>
        </polygon>
        <polygon points="94,396 140,396 140,406 94,406 94,396" id="CYB_BUBBLEGOM_T01_028_line_16">
            <metadata method="" typography="" idBalloon="CYB_BUBBLEGOM_T01_028_balloon_3" textType="speech">DIRE ÇA !</metadata>
        </polygon>
        <polygon points="450,411 497,411 497,418 450,418 450,411" id="CYB_BUBBLEGOM_T01_028_line_17">
            <metadata method="" typography="" idBalloon="CYB_BUBBLEGOM_T01_028_balloon_5" textType="speech">ATTENDEZ</metadata>
        </polygon>
        <polygon points="446,419 501,419 501,426 446,426 446,419" id="CYB_BUBBLEGOM_T01_028_line_18">
            <metadata method="" typography="" idBalloon="CYB_BUBBLEGOM_T01_028_balloon_5" textType="speech">QUOI POUR</metadata>
        </polygon>
        <polygon points="441,428 506,428 506,435 441,435 441,428" id="CYB_BUBBLEGOM_T01_028_line_19">
            <metadata method="" typography="" idBalloon="CYB_BUBBLEGOM_T01_028_balloon_5" textType="speech">LUI POUTRER</metadata>
        </polygon>
        <polygon points="447,436 500,436 500,444 447,444 447,436" id="CYB_BUBBLEGOM_T01_028_line_20">
            <metadata method="" typography="" idBalloon="CYB_BUBBLEGOM_T01_028_balloon_5" textType="speech">SA FACE?</metadata>
        </polygon>
        <polygon points="545,311 642,311 642,322 545,322 545,311" id="CYB_BUBBLEGOM_T01_028_line_21">
            <metadata method="" typography="" idBalloon="CYB_BUBBLEGOM_T01_028_balloon_6" textType="speech">BON. PASSONS</metadata>
        </polygon>
        <polygon points="555,323 629,323 629,334 555,334 555,323" id="CYB_BUBBLEGOM_T01_028_line_22">
            <metadata method="" typography="" idBalloon="CYB_BUBBLEGOM_T01_028_balloon_6" textType="speech">AU PLAN B.</metadata>
        </polygon>
        <polygon points="629,364 652,364 652,374 629,374 629,364" id="CYB_BUBBLEGOM_T01_028_line_23">
            <metadata method="" typography="" idBalloon="CYB_BUBBLEGOM_T01_028_balloon_7" textType="speech">OK.</metadata>
        </polygon>
        <polygon points="87,521 268,521 268,568 87,568 87,521" id="CYB_BUBBLEGOM_T01_028_line_24">
            <metadata method="" typography="" idBalloon="CYB_BUBBLEGOM_T01_028_balloon_8" textType="speech">FUYONS!</metadata>
        </polygon>
        <polygon points="313,558 391,558 391,571 313,571 313,558" id="CYB_BUBBLEGOM_T01_028_line_25">
            <metadata method="" typography="" idBalloon="CYB_BUBBLEGOM_T01_028_balloon_9" textType="speech">PASSE LE</metadata>
        </polygon>
        <polygon points="317,573 387,573 387,586 317,586 317,573" id="CYB_BUBBLEGOM_T01_028_line_26">
            <metadata method="" typography="" idBalloon="CYB_BUBBLEGOM_T01_028_balloon_9" textType="speech">PANIER !</metadata>
        </polygon>
        <polygon points="624,565 661,565 661,578 624,578 624,565" id="CYB_BUBBLEGOM_T01_028_line_27">
            <metadata method="" typography="" idBalloon="CYB_BUBBLEGOM_T01_028_balloon_10" textType="speech">MES</metadata>
        </polygon>
        <polygon points="595,582 690,582 690,594 595,595 595,582" id="CYB_BUBBLEGOM_T01_028_line_28">
            <metadata method="" typography="" idBalloon="CYB_BUBBLEGOM_T01_028_balloon_10" textType="speech">CAROTTES</metadata>
        </polygon>
        <polygon points="634,597 651,597 651,610 634,610 634,597" id="CYB_BUBBLEGOM_T01_028_line_29">
            <metadata method="" typography="" idBalloon="CYB_BUBBLEGOM_T01_028_balloon_10" textType="speech">!!!</metadata>
        </polygon>
        <polygon points="565,637 594,637 594,647 565,647 565,637" id="CYB_BUBBLEGOM_T01_028_line_30">
            <metadata method="" typography="" idBalloon="CYB_BUBBLEGOM_T01_028_balloon_11" textType="speech">BON</metadata>
        </polygon>
        <polygon points="547,647 610,647 610,660 547,660 547,647" id="CYB_BUBBLEGOM_T01_028_line_31">
            <metadata method="" typography="" idBalloon="CYB_BUBBLEGOM_T01_028_balloon_11" textType="speech">APPÉTIT !</metadata>
        </polygon>
        <polygon points="289,807 344,807 344,817 289,817 289,807" id="CYB_BUBBLEGOM_T01_028_line_32">
            <metadata method="" typography="" idBalloon="CYB_BUBBLEGOM_T01_028_balloon_12" textType="narrative">ET C'EST</metadata>
        </polygon>
        <polygon points="283,819 351,819 351,828 283,828 283,819" id="CYB_BUBBLEGOM_T01_028_line_33">
            <metadata method="" typography="" idBalloon="CYB_BUBBLEGOM_T01_028_balloon_12" textType="narrative">AINSI QUE ...</metadata>
        </polygon>
        <polygon points="410,809 484,809 484,820 410,820 410,809" id="CYB_BUBBLEGOM_T01_028_line_34">
            <metadata method="" typography="" idBalloon="CYB_BUBBLEGOM_T01_028_balloon_13" textType="speech">BANDE, DE</metadata>
        </polygon>
        <polygon points="382,818 512,818 512,831 382,831 382,818" id="CYB_BUBBLEGOM_T01_028_line_35">
            <metadata method="" typography="" idBalloon="CYB_BUBBLEGOM_T01_028_balloon_13" textType="speech">NAZES ! HEROS A</metadata>
        </polygon>
        <polygon points="390,833 504,833 504,844 390,844 390,833" id="CYB_BUBBLEGOM_T01_028_line_36">
            <metadata method="" typography="" idBalloon="CYB_BUBBLEGOM_T01_028_balloon_13" textType="speech">DEUX BALLES !!</metadata>
        </polygon>
        <polygon points="399,845 495,845 495,855 399,855 399,845" id="CYB_BUBBLEGOM_T01_028_line_37">
            <metadata method="" typography="" idBalloon="CYB_BUBBLEGOM_T01_028_balloon_13" textType="speech">LOOSERS EN</metadata>
        </polygon>
        <polygon points="408,857 487,857 487,867 408,867 408,857" id="CYB_BUBBLEGOM_T01_028_line_38">
            <metadata method="" typography="" idBalloon="CYB_BUBBLEGOM_T01_028_balloon_13" textType="speech">SOLDES !!!</metadata>
        </polygon>
        <polygon points="580,809 646,809 646,819 580,819 580,809" id="CYB_BUBBLEGOM_T01_028_line_39">
            <metadata method="" typography="" idBalloon="CYB_BUBBLEGOM_T01_028_balloon_15" textType="speech">L'HISTOIRE</metadata>
        </polygon>
        <polygon points="557,821 668,821 668,830 557,830 557,821" id="CYB_BUBBLEGOM_T01_028_line_40">
            <metadata method="" typography="" idBalloon="CYB_BUBBLEGOM_T01_028_balloon_15" textType="speech">RECONNAITRA LA</metadata>
        </polygon>
        <polygon points="545,830 681,830 681,842 545,842 545,830" id="CYB_BUBBLEGOM_T01_028_line_41">
            <metadata method="" typography="" idBalloon="CYB_BUBBLEGOM_T01_028_balloon_15" textType="speech">SUBTILITE DE NOTRE</metadata>
        </polygon>
        <polygon points="576,842 642,842 642,855 576,855 576,842" id="CYB_BUBBLEGOM_T01_028_line_42">
            <metadata method="" typography="" idBalloon="CYB_BUBBLEGOM_T01_028_balloon_15" textType="speech">STATÉGIE ...</metadata>
        </polygon>
        <polygon points="438,892 464,892 464,899 438,899 438,892" id="CYB_BUBBLEGOM_T01_028_line_43">
            <metadata method="" typography="" idBalloon="CYB_BUBBLEGOM_T01_028_balloon_14" textType="speech">OUAIS</metadata>
        </polygon>
        <polygon points="434,899 467,899 467,906 434,906 434,899" id="CYB_BUBBLEGOM_T01_028_line_44">
            <metadata method="" typography="" idBalloon="CYB_BUBBLEGOM_T01_028_balloon_14" textType="speech">BON ÇA</metadata>
        </polygon>
        <polygon points="430,907 472,907 472,915 430,915 430,907" id="CYB_BUBBLEGOM_T01_028_line_45">
            <metadata method="" typography="" idBalloon="CYB_BUBBLEGOM_T01_028_balloon_14" textType="speech">VA, HEIN ...</metadata>
        </polygon>
        <polygon points="418,278 513,278 513,325 418,325 418,278" id="CYB_BUBBLEGOM_T01_028_line_46">
            <metadata method="" typography="" idBalloon="CYB_BUBBLEGOM_T01_028_balloon_4" textType="speech">GRRR!</metadata>
        </polygon>
        <polygon points="186,232 269,232 269,240 186,240 186,232" id="CYB_BUBBLEGOM_T01_028_line_47">
            <metadata method="" typography="" textType="narrative">INNOCENT POSÉ</metadata>
        </polygon>
        <polygon points="642,93 700,93 700,107 642,107 642,93" id="CYB_BUBBLEGOM_T01_028_line_48">
            <metadata method="" typography="" idBalloon="CYB_BUBBLEGOM_T01_028_balloon_0" textType="speech">MAIS CA</metadata>
        </polygon>
        <polygon points="461,401 486,401 486,409 461,409 461,401" id="CYB_BUBBLEGOM_T01_028_line_49">
            <metadata method="" typography="" idBalloon="CYB_BUBBLEGOM_T01_028_balloon_5" textType="speech">VOUS</metadata>
        </polygon>
    </svg>
    <svg contentScriptType="text/ecmascript" zoomAndPan="magnify" contentStyleType="text/css" class="linkSBSC" preserveAspectRatio="xMidYMid meet" version="1.0">
    <polygon points="653,115 654,115 654,183 653,183 653,115" idCharacter="CYB_BUBBLEGOM_T01_028_character_4" idBalloon="CYB_BUBBLEGOM_T01_028_balloon_0"/>
    <polygon points="218,361 219,361 216,461 215,461 218,361" idCharacter="CYB_BUBBLEGOM_T01_028_character_7" idBalloon="CYB_BUBBLEGOM_T01_028_balloon_2"/>
    <polygon points="124,398 125,398 165,455 164,455 124,398" idCharacter="CYB_BUBBLEGOM_T01_028_character_6" idBalloon="CYB_BUBBLEGOM_T01_028_balloon_3"/>
    <polygon points="142,364 143,364 101,471 100,471 142,364" idCharacter="CYB_BUBBLEGOM_T01_028_character_5" idBalloon="CYB_BUBBLEGOM_T01_028_balloon_1"/>
    <polygon points="471,428 472,428 485,489 484,489 471,428" idCharacter="CYB_BUBBLEGOM_T01_028_character_10" idBalloon="CYB_BUBBLEGOM_T01_028_balloon_5"/>
    <polygon points="449,314 450,314 381,382 380,382 449,314" idCharacter="CYB_BUBBLEGOM_T01_028_character_11" idBalloon="CYB_BUBBLEGOM_T01_028_balloon_4"/>
    <polygon points="637,369 638,369 561,399 560,399 637,369" idCharacter="CYB_BUBBLEGOM_T01_028_character_14" idBalloon="CYB_BUBBLEGOM_T01_028_balloon_7"/>
    <polygon points="597,334 598,334 645,454 644,454 597,334" idCharacter="CYB_BUBBLEGOM_T01_028_character_12" idBalloon="CYB_BUBBLEGOM_T01_028_balloon_6"/>
    <polygon points="173,568 174,568 222,675 221,675 173,568" idCharacter="CYB_BUBBLEGOM_T01_028_character_16" idBalloon="CYB_BUBBLEGOM_T01_028_balloon_8"/>
    <polygon points="349,577 350,577 345,670 344,670 349,577" idCharacter="CYB_BUBBLEGOM_T01_028_character_17" idBalloon="CYB_BUBBLEGOM_T01_028_balloon_9"/>
    <polygon points="578,655 579,655 504,718 503,718 578,655" idCharacter="CYB_BUBBLEGOM_T01_028_character_19" idBalloon="CYB_BUBBLEGOM_T01_028_balloon_11"/>
    <polygon points="625,612 626,612 624,716 623,716 625,612" idCharacter="CYB_BUBBLEGOM_T01_028_character_18" idBalloon="CYB_BUBBLEGOM_T01_028_balloon_10"/>
    <polygon points="443,854 444,854 357,913 356,913 443,854" idCharacter="CYB_BUBBLEGOM_T01_028_character_24" idBalloon="CYB_BUBBLEGOM_T01_028_balloon_13"/>
    <polygon points="613,843 614,843 619,929 618,929 613,843" idCharacter="CYB_BUBBLEGOM_T01_028_character_25" idBalloon="CYB_BUBBLEGOM_T01_028_balloon_15"/>
    <polygon points="452,906 453,906 518,924 517,924 452,906" idCharacter="CYB_BUBBLEGOM_T01_028_character_26" idBalloon="CYB_BUBBLEGOM_T01_028_balloon_14"/>
  </svg>
<metadata method="GroundTruth" lastModificationDate="Wed Jan 29 17:42:52 CET 2014" lastStepModified="Balloon_Polygons"/>
</svg>