<?xml version="1.0" encoding="UTF-8" standalone="no"?>
<svg xmlns="http://www.w3.org/2000/svg" xmlns:xlink="http://www.w3.org/1999/xlink" contentScriptType="text/ecmascript" width="311mm" zoomAndPan="magnify" contentStyleType="text/css" height="429mm" viewBox="0 0 1280 1844" preserveAspectRatio="xMidYMid meet" version="1.0">
    <title>FOX_CHILLINTALES_T17_012</title>
    <svg contentScriptType="text/ecmascript" zoomAndPan="magnify" contentStyleType="text/css" class="Page" preserveAspectRatio="xMidYMid meet" version="1.0">
        <image x="0" y="0" width="1280" xlink:href="../Pages/FOX_CHILLINTALES_T17_012.jpg" xlink:type="simple" xlink:actuate="onLoad" height="1844" preserveAspectRatio="xMidYMid meet" xlink:show="embed"/>
        <metadata collectionTitle="Chilling Tales" editorName="Youthful Magazines" doublePage="false" website="http://comicbookplus.com/?dlid=23923" albumTitle="Chilling Tales 17 Geo" drawerName="Matt Fox" language="english" resolution="" ISBN="" readingDirection="leftToRight" writerName="Matt Fox" releaseDate="" pageNumber="12"/>
    </svg>
	<style type="text/css" xml:space="preserve">
        * { stroke-width: 0; stroke-linejoin: round; }
        .Unclassified { fill: orange; stroke: none; opacity: 1.0; visibility: hidden; }
        .Noise { fill: pink; stroke: none; opacity: 0.2; visibility: hidden; }
        .Panel { fill: red; stroke: none; opacity: 0.3; visibility: visible; image-rendering: optimizeSpeed; }
        .Line { fill: green; stroke: none; opacity: 0.5; visibility: visible; image-rendering: optimizeSpeed; }
        .TextArea { fill: grey; stroke: none; opacity: 0.2; visibility: visible; image-rendering: optimizeSpeed; }
        .Balloon { fill: cyan; stroke: none; opacity: 0.5; visibility: visible; image-rendering: optimizeSpeed; }
        .Letter { fill: blue; stroke: none; opacity: 0.2; visibility: hidden; }
        .Character { fill: yellow; stroke: none; opacity: 0.3; visibility: visible; image-rendering: optimizeSpeed; }
        .Page { fill: white; stroke: none; opacity: 0.5; visibility: visible; }
        .linkSBSC { fill: blue; stroke: none; opacity: 0.5; visibility: visible; }
        polygon:hover { stroke:red;stroke-width:2; } 
    </style><svg contentScriptType="text/ecmascript" zoomAndPan="magnify" contentStyleType="text/css" class="Panel" preserveAspectRatio="xMidYMid meet" version="1.0">
        <polygon points="34,152 542,150 544,745 33,747 34,152" id="FOX_CHILLINTALES_T17_012_panel_0">
            <metadata viewAngle="" uri="" shot="" area="" rank="1" fillingPcent=""/>
        </polygon>
        <polygon points="566,63 1236,59 1237,670 569,672 566,63" id="FOX_CHILLINTALES_T17_012_panel_1">
            <metadata viewAngle="" uri="" shot="" area="" rank="2" fillingPcent=""/>
        </polygon>
        <polygon points="35,694 685,694 685,1265 35,1265 35,694" id="FOX_CHILLINTALES_T17_012_panel_2">
            <metadata viewAngle="" uri="" shot="" area="" rank="3" fillingPcent=""/>
        </polygon>
        <polygon points="706,694 1236,693 1237,1263 711,1264 706,694" id="FOX_CHILLINTALES_T17_012_panel_3">
            <metadata viewAngle="" uri="" shot="" area="" rank="4" fillingPcent=""/>
        </polygon>
        <polygon points="34,1356 615,1356 614,1782 33,1786 34,1356" id="FOX_CHILLINTALES_T17_012_panel_4">
            <metadata viewAngle="" uri="" shot="" area="" rank="5" fillingPcent=""/>
        </polygon>
        <polygon points="637,1287 1237,1284 1236,1779 636,1782 637,1287" id="FOX_CHILLINTALES_T17_012_panel_5">
            <metadata viewAngle="" uri="" shot="" area="" rank="6" fillingPcent=""/>
        </polygon>
    </svg>
    <svg contentScriptType="text/ecmascript" zoomAndPan="magnify" contentStyleType="text/css" class="TextArea" preserveAspectRatio="xMidYMid meet" version="1.0"/>
    <svg contentScriptType="text/ecmascript" zoomAndPan="magnify" contentStyleType="text/css" class="Balloon" preserveAspectRatio="xMidYMid meet" version="1.0">
        <polygon points="44,67 525,65 543,78 543,95 540,112 535,138 531,145 38,148 44,67" id="FOX_CHILLINTALES_T17_012_balloon_0">
            <metadata borderStyle="other" tailTip="" boundingBox="" tailDirection="none" rank="1"/>
        </polygon>
        <polygon points="36,151 308,149 315,156 319,162 319,171 319,174 319,177 316,182 312,186 309,189 306,191 286,203 274,203 264,204 245,201 246,205 245,210 242,213 238,218 236,221 234,224 228,226 218,230 212,231 201,232 176,234 171,234 162,234 150,235 147,236 142,263 135,301 128,325 118,365 107,407 111,360 117,315 122,269 120,236 94,237 75,234 58,231 43,223 34,213 36,151" id="FOX_CHILLINTALES_T17_012_balloon_1">
            <metadata borderStyle="smooth" tailTip="107,407" boundingBox="" tailDirection="S" rank="2"/>
        </polygon>
        <polygon points="309,152 547,150 546,262 537,275 528,282 521,285 508,288 492,290 469,293 455,294 436,295 416,295 397,365 380,407 340,522 352,458 371,376 392,295 348,286 322,280 302,267 300,238 312,224 303,219 297,208 296,199 302,194 306,188 312,179 313,169 311,160 309,152" id="FOX_CHILLINTALES_T17_012_balloon_2">
            <metadata borderStyle="smooth" tailTip="340,522" boundingBox="" tailDirection="SW" rank="3"/>
        </polygon>
        <polygon points="699,62 1038,62 1053,77 1058,89 1059,95 1060,100 1059,105 1059,110 1056,119 1056,126 1052,130 1047,138 1041,141 1033,144 1026,146 1013,147 1007,142 1012,150 1013,155 1012,158 1008,165 1006,167 1003,169 1000,172 992,174 985,174 976,170 982,176 983,181 975,194 973,196 960,203 955,206 949,209 942,211 933,212 927,213 968,252 981,268 999,288 1026,325 983,298 947,262 911,232 885,214 862,215 827,213 782,213 732,198 719,187 712,177 716,161 705,152 692,138 684,126 682,111 683,85 699,62" id="FOX_CHILLINTALES_T17_012_balloon_3">
            <metadata borderStyle="smooth" tailTip="1026,325" boundingBox="" tailDirection="SE" rank="4"/>
        </polygon>
        <polygon points="36,757 83,755 113,755 142,756 152,756 185,749 192,756 193,776 196,806 193,843 197,878 197,922 193,956 195,989 195,1010 195,1030 195,1054 195,1069 194,1078 182,1083 145,1086 82,1085 60,1081 35,1080 36,1016 36,940 35,882 34,805 36,757" id="FOX_CHILLINTALES_T17_012_balloon_4">
            <metadata borderStyle="smooth" tailTip="" boundingBox="" tailDirection="none" rank="5"/>
        </polygon>
        <polygon points="197,771 486,769 501,780 508,784 512,791 510,798 508,802 508,808 504,813 501,817 499,819 498,820 494,822 490,824 484,825 479,826 484,829 486,831 482,845 481,847 476,852 469,855 458,859 447,863 430,866 423,866 407,867 401,867 392,868 407,911 421,949 432,975 454,1035 432,997 412,958 396,928 384,902 370,874 356,872 344,872 331,873 312,873 301,872 291,871 270,871 255,872 242,872 228,867 216,864 207,861 195,850 197,771" id="FOX_CHILLINTALES_T17_012_balloon_5">
            <metadata borderStyle="smooth" tailTip="454,1035" boundingBox="" tailDirection="SE" rank="6"/>
        </polygon>
        <polygon points="568,692 686,690 688,841 679,847 670,853 663,856 656,857 646,859 639,860 636,860 633,892 626,918 624,942 623,952 621,966 619,976 617,991 618,1009 615,1017 610,1036 610,1006 611,966 614,937 614,894 614,863 599,861 592,860 566,854 554,846 532,834 519,808 516,785 516,775 566,766 568,692" id="FOX_CHILLINTALES_T17_012_balloon_6">
            <metadata borderStyle="smooth" tailTip="610,1036" boundingBox="" tailDirection="S" rank="7"/>
        </polygon>
        <polygon points="707,694 995,695 1003,700 1004,716 1004,720 1002,726 1001,729 999,733 995,737 989,738 980,741 967,741 967,748 966,752 963,755 961,756 956,760 952,763 946,765 941,766 937,767 926,766 922,766 919,766 924,770 925,771 925,775 922,783 919,789 915,796 915,797 907,800 900,802 896,803 876,809 869,810 852,813 847,814 872,871 887,911 900,944 915,978 928,1003 938,1032 957,1079 913,1003 887,950 858,886 835,843 823,817 803,810 789,809 780,810 771,809 760,808 742,808 736,807 732,806 725,803 706,800 707,694" id="FOX_CHILLINTALES_T17_012_balloon_7">
            <metadata borderStyle="smooth" tailTip="957,1079" boundingBox="" tailDirection="SE" rank="8"/>
        </polygon>
        <polygon points="992,695 1080,694 1210,692 1226,701 1235,709 1236,719 1237,740 1238,755 1236,769 1237,785 1237,792 1237,805 1235,815 1222,821 1221,831 1213,838 1199,847 1192,849 1181,852 1153,856 1136,856 1120,858 1114,860 1067,1097 1085,864 1068,855 1058,855 1046,855 1037,855 1025,853 1017,853 1000,853 988,853 954,850 938,840 932,838 924,831 919,829 910,819 909,802 917,790 921,783 921,780 922,776 920,765 920,765 928,765 937,765 945,763 955,759 958,757 965,754 968,747 970,740 970,740 984,737 995,733 1001,727 1005,717 1002,706 992,695" id="FOX_CHILLINTALES_T17_012_balloon_8">
            <metadata borderStyle="smooth" tailTip="1067,1097" boundingBox="" tailDirection="S" rank="9"/>
        </polygon>
        <polygon points="35,1275 120,1274 241,1277 371,1273 427,1275 486,1279 555,1277 572,1279 584,1283 595,1285 599,1290 604,1294 605,1298 606,1307 605,1319 605,1337 603,1343 601,1349 601,1351 597,1354 29,1355 28,1305 35,1275" id="FOX_CHILLINTALES_T17_012_balloon_9">
            <metadata borderStyle="other" tailTip="" boundingBox="" tailDirection="none" rank="10"/>
        </polygon>
        <polygon points="34,1356 310,1357 314,1363 315,1368 315,1373 315,1378 314,1381 314,1381 314,1381 321,1381 325,1381 329,1385 335,1390 336,1394 338,1400 338,1406 336,1409 342,1416 344,1423 344,1427 340,1432 338,1436 338,1439 336,1446 359,1458 392,1465 426,1480 448,1489 449,1492 450,1492 415,1490 388,1479 360,1473 323,1466 312,1464 305,1465 290,1467 282,1465 274,1461 265,1454 257,1455 259,1465 261,1469 262,1473 261,1478 255,1487 249,1493 241,1497 229,1499 216,1499 208,1497 199,1488 190,1490 186,1486 185,1485 182,1492 180,1496 177,1499 167,1502 154,1506 153,1506 146,1504 138,1499 135,1496 132,1500 131,1501 127,1496 124,1494 118,1501 115,1503 99,1509 92,1508 66,1502 53,1496 42,1485 34,1467 34,1356" id="FOX_CHILLINTALES_T17_012_balloon_10">
            <metadata borderStyle="wavy" tailTip="449,1492" boundingBox="" tailDirection="E" rank="11"/>
        </polygon>
        <polygon points="620,1297 637,1291 697,1291 732,1295 750,1293 764,1292 769,1316 769,1390 763,1519 763,1584 763,1644 761,1687 749,1694 712,1694 677,1692 651,1694 620,1694 618,1614 623,1466 622,1341 620,1297" id="FOX_CHILLINTALES_T17_012_balloon_11">
            <metadata borderStyle="smooth" tailTip="" boundingBox="" tailDirection="none" rank="12"/>
        </polygon>
        <polygon points="763,1289 920,1288 939,1298 948,1311 951,1319 944,1340 939,1348 934,1354 923,1362 914,1368 890,1373 883,1373 877,1374 884,1386 892,1393 901,1402 909,1416 918,1426 926,1443 928,1452 938,1471 897,1433 872,1406 859,1389 854,1385 844,1377 843,1375 827,1375 816,1375 807,1373 800,1372 789,1368 771,1363 766,1343 764,1316 765,1299 763,1289" id="FOX_CHILLINTALES_T17_012_balloon_12">
            <metadata borderStyle="smooth" tailTip="938,1471" boundingBox="" tailDirection="SE" rank="13"/>
        </polygon>
    </svg>
    <svg contentScriptType="text/ecmascript" zoomAndPan="magnify" contentStyleType="text/css" class="Character" preserveAspectRatio="xMidYMid meet" version="1.0">
        <polygon points="27,448 179,448 179,751 27,751 27,448" id="FOX_CHILLINTALES_T17_012_character_0">
            <metadata uri="" area="" fillingPcent=""/>
        </polygon>
        <polygon points="198,499 409,499 409,742 198,742 198,499" id="FOX_CHILLINTALES_T17_012_character_1">
            <metadata uri="" area="" fillingPcent=""/>
        </polygon>
        <polygon points="1020,337 1101,337 1101,556 1020,556 1020,337" id="FOX_CHILLINTALES_T17_012_character_2">
            <metadata uri="" area="" fillingPcent=""/>
        </polygon>
        <polygon points="1086,333 1170,333 1170,559 1086,559 1086,333" id="FOX_CHILLINTALES_T17_012_character_3">
            <metadata uri="" area="" fillingPcent=""/>
        </polygon>
        <polygon points="431,1032 526,1032 526,1261 431,1261 431,1032" id="FOX_CHILLINTALES_T17_012_character_4">
            <metadata uri="" area="" fillingPcent=""/>
        </polygon>
        <polygon points="551,1035 669,1035 669,1237 551,1237 551,1035" id="FOX_CHILLINTALES_T17_012_character_5">
            <metadata uri="" area="" fillingPcent=""/>
        </polygon>
        <polygon points="884,1084 998,1084 998,1257 884,1257 884,1084" id="FOX_CHILLINTALES_T17_012_character_6">
            <metadata uri="" area="" fillingPcent=""/>
        </polygon>
        <polygon points="982,1134 1104,1134 1104,1262 982,1262 982,1134" id="FOX_CHILLINTALES_T17_012_character_7">
            <metadata uri="" area="" fillingPcent=""/>
        </polygon>
        <polygon points="364,1495 487,1495 487,1787 364,1787 364,1495" id="FOX_CHILLINTALES_T17_012_character_8">
            <metadata uri="" area="" fillingPcent=""/>
        </polygon>
        <polygon points="759,1289 1246,1289 1246,1786 759,1786 759,1289" id="FOX_CHILLINTALES_T17_012_character_9">
            <metadata uri="" area="" fillingPcent=""/>
        </polygon>
    </svg>
    <svg contentScriptType="text/ecmascript" zoomAndPan="magnify" contentStyleType="text/css" class="Line" preserveAspectRatio="xMidYMid meet" version="1.0">
        <polygon points="40,68 523,68 523,97 40,97 40,68" id="FOX_CHILLINTALES_T17_012_line_0">
            <metadata typography="" uri="" method="" area="" fillingPcent="" rank="" idBalloon="FOX_CHILLINTALES_T17_012_balloon_0" textType="narrative">AT LAST THE DOOR SWUNG OPEN TO REVEAL</metadata>
        </polygon>
        <polygon points="40,101 493,101 493,120 40,120 40,101" id="FOX_CHILLINTALES_T17_012_line_1">
            <metadata typography="" uri="" method="" area="" fillingPcent="" rank="" idBalloon="FOX_CHILLINTALES_T17_012_balloon_0" textType="narrative">A CADAVEROUS OLD MAN WHO PEERED OUT</metadata>
        </polygon>
        <polygon points="41,129 362,129 362,148 41,148 41,129" id="FOX_CHILLINTALES_T17_012_line_2">
            <metadata typography="" uri="" method="" area="" fillingPcent="" rank="" idBalloon="FOX_CHILLINTALES_T17_012_balloon_0" textType="narrative">INTO THE DARKNESS AT ME...</metadata>
        </polygon>
        <polygon points="48,162 281,162 281,181 48,181 48,162" id="FOX_CHILLINTALES_T17_012_line_3">
            <metadata typography="" uri="" method="" area="" fillingPcent="" rank="" idBalloon="FOX_CHILLINTALES_T17_012_balloon_1" textType="speech">WHO ARE YOU? WHAT</metadata>
        </polygon>
        <polygon points="66,191 216,191 216,212 66,212 66,191" id="FOX_CHILLINTALES_T17_012_line_4">
            <metadata typography="" uri="" method="" area="" fillingPcent="" rank="" idBalloon="FOX_CHILLINTALES_T17_012_balloon_1" textType="speech">DO YOU WNAT?</metadata>
        </polygon>
        <polygon points="355,162 518,162 518,182 355,182 355,162" id="FOX_CHILLINTALES_T17_012_line_5">
            <metadata typography="" uri="" method="" area="" fillingPcent="" rank="" idBalloon="FOX_CHILLINTALES_T17_012_balloon_2" textType="speech">I WANT TO SEE</metadata>
        </polygon>
        <polygon points="368,190 487,190 487,208 368,208 368,190" id="FOX_CHILLINTALES_T17_012_line_6">
            <metadata typography="" uri="" method="" area="" fillingPcent="" rank="" idBalloon="FOX_CHILLINTALES_T17_012_balloon_2" textType="speech">PROFESSOR</metadata>
        </polygon>
        <polygon points="326,214 499,214 499,235 326,235 326,214" id="FOX_CHILLINTALES_T17_012_line_7">
            <metadata typography="" uri="" method="" area="" fillingPcent="" rank="" idBalloon="FOX_CHILLINTALES_T17_012_balloon_2" textType="speech">BLUTRESS. THE</metadata>
        </polygon>
        <polygon points="321,242 517,242 517,261 321,261 321,242" id="FOX_CHILLINTALES_T17_012_line_8">
            <metadata typography="" uri="" method="" area="" fillingPcent="" rank="" idBalloon="FOX_CHILLINTALES_T17_012_balloon_2" textType="speech">AGENCY SENT ME.</metadata>
        </polygon>
        <polygon points="709,74 1005,74 1005,99 709,99 709,74" id="FOX_CHILLINTALES_T17_012_line_9">
            <metadata typography="" uri="" method="" area="" fillingPcent="" rank="" idBalloon="FOX_CHILLINTALES_T17_012_balloon_3" textType="speech">OH, YES. YOU MUST BE THE</metadata>
        </polygon>
        <polygon points="713,98 1013,98 1013,120 713,120 713,98" id="FOX_CHILLINTALES_T17_012_line_10">
            <metadata typography="" uri="" method="" area="" fillingPcent="" rank="" idBalloon="FOX_CHILLINTALES_T17_012_balloon_3" textType="speech">SECRETARY I SENT FOR. I'M</metadata>
        </polygon>
        <polygon points="720,128 992,128 992,148 720,148 720,128" id="FOX_CHILLINTALES_T17_012_line_11">
            <metadata typography="" uri="" method="" area="" fillingPcent="" rank="" idBalloon="FOX_CHILLINTALES_T17_012_balloon_3" textType="speech">PROFESSOR BLUTRESS--</metadata>
        </polygon>
        <polygon points="737,153 948,153 948,173 737,173 737,153" id="FOX_CHILLINTALES_T17_012_line_12">
            <metadata typography="" uri="" method="" area="" fillingPcent="" rank="" idBalloon="FOX_CHILLINTALES_T17_012_balloon_3" textType="speech">COME IN. COME IN.</metadata>
        </polygon>
        <polygon points="46,763 125,763 125,793 46,793 46,763" id="FOX_CHILLINTALES_T17_012_line_13">
            <metadata typography="" uri="" method="" area="" fillingPcent="" rank="" idBalloon="FOX_CHILLINTALES_T17_012_balloon_4" textType="narrative">AS WE</metadata>
        </polygon>
        <polygon points="46,800 145,800 145,819 46,819 46,800" id="FOX_CHILLINTALES_T17_012_line_14">
            <metadata typography="" uri="" method="" area="" fillingPcent="" rank="" idBalloon="FOX_CHILLINTALES_T17_012_balloon_4" textType="narrative">ENTERED</metadata>
        </polygon>
        <polygon points="46,826 155,826 155,845 46,845 46,826" id="FOX_CHILLINTALES_T17_012_line_15">
            <metadata typography="" uri="" method="" area="" fillingPcent="" rank="" idBalloon="FOX_CHILLINTALES_T17_012_balloon_4" textType="narrative">THE PRO-</metadata>
        </polygon>
        <polygon points="47,848 148,848 148,870 47,870 47,848" id="FOX_CHILLINTALES_T17_012_line_16">
            <metadata typography="" uri="" method="" area="" fillingPcent="" rank="" idBalloon="FOX_CHILLINTALES_T17_012_balloon_4" textType="narrative">FESSOR'S</metadata>
        </polygon>
        <polygon points="44,877 154,877 154,895 44,895 44,877" id="FOX_CHILLINTALES_T17_012_line_17">
            <metadata typography="" uri="" method="" area="" fillingPcent="" rank="" idBalloon="FOX_CHILLINTALES_T17_012_balloon_4" textType="narrative">STUDY AN</metadata>
        </polygon>
        <polygon points="44,904 164,904 164,922 44,922 44,904" id="FOX_CHILLINTALES_T17_012_line_18">
            <metadata typography="" uri="" method="" area="" fillingPcent="" rank="" idBalloon="FOX_CHILLINTALES_T17_012_balloon_4" textType="narrative">UNEARTHLY</metadata>
        </polygon>
        <polygon points="42,928 129,928 129,948 42,948 42,928" id="FOX_CHILLINTALES_T17_012_line_19">
            <metadata typography="" uri="" method="" area="" fillingPcent="" rank="" idBalloon="FOX_CHILLINTALES_T17_012_balloon_4" textType="narrative">SCREAM</metadata>
        </polygon>
        <polygon points="43,955 171,955 171,973 43,973 43,955" id="FOX_CHILLINTALES_T17_012_line_20">
            <metadata typography="" uri="" method="" area="" fillingPcent="" rank="" idBalloon="FOX_CHILLINTALES_T17_012_balloon_4" textType="narrative">CAME FROM</metadata>
        </polygon>
        <polygon points="43,980 150,980 150,999 43,999 43,980" id="FOX_CHILLINTALES_T17_012_line_21">
            <metadata typography="" uri="" method="" area="" fillingPcent="" rank="" idBalloon="FOX_CHILLINTALES_T17_012_balloon_4" textType="narrative">THE DARK</metadata>
        </polygon>
        <polygon points="43,1006 187,1006 187,1026 43,1026 43,1006" id="FOX_CHILLINTALES_T17_012_line_22">
            <metadata typography="" uri="" method="" area="" fillingPcent="" rank="" idBalloon="FOX_CHILLINTALES_T17_012_balloon_4" textType="narrative">RECESSES OF</metadata>
        </polygon>
        <polygon points="43,1033 191,1033 191,1053 43,1053 43,1033" id="FOX_CHILLINTALES_T17_012_line_23">
            <metadata typography="" uri="" method="" area="" fillingPcent="" rank="" idBalloon="FOX_CHILLINTALES_T17_012_balloon_4" textType="narrative">THE HOUSE...</metadata>
        </polygon>
        <polygon points="203,774 470,774 470,796 203,796 203,774" id="FOX_CHILLINTALES_T17_012_line_24">
            <metadata typography="" uri="" method="" area="" fillingPcent="" rank="" idBalloon="FOX_CHILLINTALES_T17_012_balloon_5" textType="speech">GOOD LORD! WHAT WAS</metadata>
        </polygon>
        <polygon points="202,802 428,802 428,820 202,820 202,802" id="FOX_CHILLINTALES_T17_012_line_25">
            <metadata typography="" uri="" method="" area="" fillingPcent="" rank="" idBalloon="FOX_CHILLINTALES_T17_012_balloon_5" textType="speech">THAT? IT SOUNDED</metadata>
        </polygon>
        <polygon points="216,821 400,821 400,847 216,847 216,821" id="FOX_CHILLINTALES_T17_012_line_26">
            <metadata typography="" uri="" method="" area="" fillingPcent="" rank="" idBalloon="FOX_CHILLINTALES_T17_012_balloon_5" textType="speech">LIKE A SCREAM!</metadata>
        </polygon>
        <polygon points="612,708 627,708 627,726 612,726 612,708" id="FOX_CHILLINTALES_T17_012_line_27">
            <metadata typography="" uri="" method="" area="" fillingPcent="" rank="" idBalloon="FOX_CHILLINTALES_T17_012_balloon_6" textType="speech">A</metadata>
        </polygon>
        <polygon points="578,733 676,733 676,752 578,752 578,733" id="FOX_CHILLINTALES_T17_012_line_28">
            <metadata typography="" uri="" method="" area="" fillingPcent="" rank="" idBalloon="FOX_CHILLINTALES_T17_012_balloon_6" textType="speech">SCREAM?</metadata>
        </polygon>
        <polygon points="576,761 669,761 669,779 576,779 576,761" id="FOX_CHILLINTALES_T17_012_line_29">
            <metadata typography="" uri="" method="" area="" fillingPcent="" rank="" idBalloon="FOX_CHILLINTALES_T17_012_balloon_6" textType="speech">I HEARD</metadata>
        </polygon>
        <polygon points="574,787 675,787 675,810 574,810 574,787" id="FOX_CHILLINTALES_T17_012_line_30">
            <metadata typography="" uri="" method="" area="" fillingPcent="" rank="" idBalloon="FOX_CHILLINTALES_T17_012_balloon_6" textType="speech">NOTHING,</metadata>
        </polygon>
        <polygon points="562,812 675,812 675,832 562,832 562,812" id="FOX_CHILLINTALES_T17_012_line_31">
            <metadata typography="" uri="" method="" area="" fillingPcent="" rank="" idBalloon="FOX_CHILLINTALES_T17_012_balloon_6" textType="speech">MR. HOWE.</metadata>
        </polygon>
        <polygon points="719,705 978,705 978,724 719,724 719,705" id="FOX_CHILLINTALES_T17_012_line_32">
            <metadata typography="" uri="" method="" area="" fillingPcent="" rank="" idBalloon="FOX_CHILLINTALES_T17_012_balloon_7" textType="speech">I COULD HAVE SWORN--</metadata>
        </polygon>
        <polygon points="714,733 956,733 956,752 714,752 714,733" id="FOX_CHILLINTALES_T17_012_line_33">
            <metadata typography="" uri="" method="" area="" fillingPcent="" rank="" idBalloon="FOX_CHILLINTALES_T17_012_balloon_7" textType="speech">PERHAPS IT WAS JUST</metadata>
        </polygon>
        <polygon points="716,761 901,761 901,780 716,780 716,761" id="FOX_CHILLINTALES_T17_012_line_34">
            <metadata typography="" uri="" method="" area="" fillingPcent="" rank="" idBalloon="FOX_CHILLINTALES_T17_012_balloon_7" textType="speech">MY IMAGINATION.</metadata>
        </polygon>
        <polygon points="1031,705 1208,705 1208,723 1031,723 1031,705" id="FOX_CHILLINTALES_T17_012_line_35">
            <metadata typography="" uri="" method="" area="" fillingPcent="" rank="" idBalloon="FOX_CHILLINTALES_T17_012_balloon_8" textType="speech">YOU ARE TIRED.</metadata>
        </polygon>
        <polygon points="998,730 1196,730 1196,749 998,749 998,730" id="FOX_CHILLINTALES_T17_012_line_36">
            <metadata typography="" uri="" method="" area="" fillingPcent="" rank="" idBalloon="FOX_CHILLINTALES_T17_012_balloon_8" textType="speech">LET ME TAKE YOU</metadata>
        </polygon>
        <polygon points="959,753 1198,753 1198,776 959,776 959,753" id="FOX_CHILLINTALES_T17_012_line_37">
            <metadata typography="" uri="" method="" area="" fillingPcent="" rank="" idBalloon="FOX_CHILLINTALES_T17_012_balloon_8" textType="speech">TO YOUR ROOM. WE'LL</metadata>
        </polygon>
        <polygon points="939,781 1214,781 1214,801 939,801 939,781" id="FOX_CHILLINTALES_T17_012_line_38">
            <metadata typography="" uri="" method="" area="" fillingPcent="" rank="" idBalloon="FOX_CHILLINTALES_T17_012_balloon_8" textType="speech">DISCUSS YOUR DUTIES IN</metadata>
        </polygon>
        <polygon points="931,809 1195,809 1195,827 931,827 931,809" id="FOX_CHILLINTALES_T17_012_line_39">
            <metadata typography="" uri="" method="" area="" fillingPcent="" rank="" idBalloon="FOX_CHILLINTALES_T17_012_balloon_8" textType="speech">THE MORNING... COME...</metadata>
        </polygon>
        <polygon points="39,1272 576,1272 576,1300 39,1300 39,1272" id="FOX_CHILLINTALES_T17_012_line_40">
            <metadata typography="" uri="" method="" area="" fillingPcent="" rank="" idBalloon="FOX_CHILLINTALES_T17_012_balloon_9" textType="narrative">THE NEXT MORNING I AWOKE EARLY AND STARTED</metadata>
        </polygon>
        <polygon points="43,1306 542,1306 542,1325 43,1325 43,1306" id="FOX_CHILLINTALES_T17_012_line_41">
            <metadata typography="" uri="" method="" area="" fillingPcent="" rank="" idBalloon="FOX_CHILLINTALES_T17_012_balloon_9" textType="narrative">DOWNSTAIRS. ON THE WAY DOWN I PASSED A</metadata>
        </polygon>
        <polygon points="42,1334 291,1334 291,1354 42,1354 42,1334" id="FOX_CHILLINTALES_T17_012_line_42">
            <metadata typography="" uri="" method="" area="" fillingPcent="" rank="" idBalloon="FOX_CHILLINTALES_T17_012_balloon_9" textType="narrative">HEAVY BARRED DOOR...</metadata>
        </polygon>
        <polygon points="45,1365 275,1365 275,1388 45,1388 45,1365" id="FOX_CHILLINTALES_T17_012_line_43">
            <metadata typography="" uri="" method="" area="" fillingPcent="" rank="" idBalloon="FOX_CHILLINTALES_T17_012_balloon_10" textType="thought">THAT'S STRANGE! I</metadata>
        </polygon>
        <polygon points="43,1393 312,1393 312,1413 43,1413 43,1393" id="FOX_CHILLINTALES_T17_012_line_44">
            <metadata typography="" uri="" method="" area="" fillingPcent="" rank="" idBalloon="FOX_CHILLINTALES_T17_012_balloon_10" textType="thought">WONDER WHAT'S BEHIND</metadata>
        </polygon>
        <polygon points="49,1415 311,1415 311,1440 49,1440 49,1415" id="FOX_CHILLINTALES_T17_012_line_45">
            <metadata typography="" uri="" method="" area="" fillingPcent="" rank="" idBalloon="FOX_CHILLINTALES_T17_012_balloon_10" textType="thought">IT? IT'S THICK ENOUGH</metadata>
        </polygon>
        <polygon points="50,1447 225,1447 225,1465 50,1465 50,1447" id="FOX_CHILLINTALES_T17_012_line_46">
            <metadata typography="" uri="" method="" area="" fillingPcent="" rank="" idBalloon="FOX_CHILLINTALES_T17_012_balloon_10" textType="thought">TO BE A VAULT.</metadata>
        </polygon>
        <polygon points="627,1300 740,1300 740,1330 627,1330 627,1300" id="FOX_CHILLINTALES_T17_012_line_47">
            <metadata typography="" uri="" method="" area="" fillingPcent="" rank="" idBalloon="FOX_CHILLINTALES_T17_012_balloon_11" textType="narrative">SUDDENLY</metadata>
        </polygon>
        <polygon points="627,1336 735,1336 735,1355 627,1355 627,1336" id="FOX_CHILLINTALES_T17_012_line_48">
            <metadata typography="" uri="" method="" area="" fillingPcent="" rank="" idBalloon="FOX_CHILLINTALES_T17_012_balloon_11" textType="narrative">I BECAME</metadata>
        </polygon>
        <polygon points="626,1363 738,1363 738,1380 626,1380 626,1363" id="FOX_CHILLINTALES_T17_012_line_49">
            <metadata typography="" uri="" method="" area="" fillingPcent="" rank="" idBalloon="FOX_CHILLINTALES_T17_012_balloon_11" textType="narrative">AWARE OF</metadata>
        </polygon>
        <polygon points="628,1387 760,1387 760,1405 628,1405 628,1387" id="FOX_CHILLINTALES_T17_012_line_50">
            <metadata typography="" uri="" method="" area="" fillingPcent="" rank="" idBalloon="FOX_CHILLINTALES_T17_012_balloon_11" textType="narrative">A FRIGHTFUL</metadata>
        </polygon>
        <polygon points="627,1413 750,1413 750,1434 627,1434 627,1413" id="FOX_CHILLINTALES_T17_012_line_51">
            <metadata typography="" uri="" method="" area="" fillingPcent="" rank="" idBalloon="FOX_CHILLINTALES_T17_012_balloon_11" textType="narrative">ODOR THAT</metadata>
        </polygon>
        <polygon points="629,1439 753,1439 753,1459 629,1459 629,1439" id="FOX_CHILLINTALES_T17_012_line_52">
            <metadata typography="" uri="" method="" area="" fillingPcent="" rank="" idBalloon="FOX_CHILLINTALES_T17_012_balloon_11" textType="narrative">SEEMED TO</metadata>
        </polygon>
        <polygon points="629,1466 747,1466 747,1485 629,1485 629,1466" id="FOX_CHILLINTALES_T17_012_line_53">
            <metadata typography="" uri="" method="" area="" fillingPcent="" rank="" idBalloon="FOX_CHILLINTALES_T17_012_balloon_11" textType="narrative">COME FROM</metadata>
        </polygon>
        <polygon points="633,1491 754,1491 754,1509 633,1509 633,1491" id="FOX_CHILLINTALES_T17_012_line_54">
            <metadata typography="" uri="" method="" area="" fillingPcent="" rank="" idBalloon="FOX_CHILLINTALES_T17_012_balloon_11" textType="narrative">BEHIND THE</metadata>
        </polygon>
        <polygon points="630,1517 743,1517 743,1539 630,1539 630,1517" id="FOX_CHILLINTALES_T17_012_line_55">
            <metadata typography="" uri="" method="" area="" fillingPcent="" rank="" idBalloon="FOX_CHILLINTALES_T17_012_balloon_11" textType="narrative">DOOR. THE</metadata>
        </polygon>
        <polygon points="629,1542 750,1542 750,1561 629,1561 629,1542" id="FOX_CHILLINTALES_T17_012_line_56">
            <metadata typography="" uri="" method="" area="" fillingPcent="" rank="" idBalloon="FOX_CHILLINTALES_T17_012_balloon_11" textType="narrative">NAUSEATING</metadata>
        </polygon>
        <polygon points="627,1569 745,1569 745,1589 627,1589 627,1569" id="FOX_CHILLINTALES_T17_012_line_57">
            <metadata typography="" uri="" method="" area="" fillingPcent="" rank="" idBalloon="FOX_CHILLINTALES_T17_012_balloon_11" textType="narrative">STENCH OF</metadata>
        </polygon>
        <polygon points="630,1595 727,1595 727,1618 630,1618 630,1595" id="FOX_CHILLINTALES_T17_012_line_58">
            <metadata typography="" uri="" method="" area="" fillingPcent="" rank="" idBalloon="FOX_CHILLINTALES_T17_012_balloon_11" textType="narrative">DECAYED,</metadata>
        </polygon>
        <polygon points="629,1621 728,1621 728,1642 629,1642 629,1621" id="FOX_CHILLINTALES_T17_012_line_59">
            <metadata typography="" uri="" method="" area="" fillingPcent="" rank="" idBalloon="FOX_CHILLINTALES_T17_012_balloon_11" textType="narrative">ROTTING</metadata>
        </polygon>
        <polygon points="630,1648 727,1648 727,1667 630,1667 630,1648" id="FOX_CHILLINTALES_T17_012_line_60">
            <metadata typography="" uri="" method="" area="" fillingPcent="" rank="" idBalloon="FOX_CHILLINTALES_T17_012_balloon_11" textType="narrative">FLESH...</metadata>
        </polygon>
        <polygon points="795,1291 905,1291 905,1319 795,1319 795,1291" id="FOX_CHILLINTALES_T17_012_line_61">
            <metadata typography="" uri="" method="" area="" fillingPcent="" rank="" idBalloon="FOX_CHILLINTALES_T17_012_balloon_12" textType="speech">UGH! IT'S</metadata>
        </polygon>
        <polygon points="809,1325 901,1325 901,1344 809,1344 809,1325" id="FOX_CHILLINTALES_T17_012_line_62">
            <metadata typography="" uri="" method="" area="" fillingPcent="" rank="" idBalloon="FOX_CHILLINTALES_T17_012_balloon_12" textType="speech">AWFUL...</metadata>
        </polygon>
        <polygon points="1212,1756 1226,1756 1226,1772 1212,1772 1212,1756" id="FOX_CHILLINTALES_T17_012_line_63">
            <metadata method="" typography="" rank="" textType="speech">2</metadata>
        </polygon>
    </svg>
    <svg contentScriptType="text/ecmascript" zoomAndPan="magnify" contentStyleType="text/css" class="linkSBSC" preserveAspectRatio="xMidYMid meet" version="1.0">
    <polygon points="176,278 177,278 104,599 103,599 176,278" idCharacter="FOX_CHILLINTALES_T17_012_character_0" idBalloon="FOX_CHILLINTALES_T17_012_balloon_1"/>
    <polygon points="421,336 422,336 304,620 303,620 421,336" idCharacter="FOX_CHILLINTALES_T17_012_character_1" idBalloon="FOX_CHILLINTALES_T17_012_balloon_2"/>
    <polygon points="871,193 872,193 1061,446 1060,446 871,193" idCharacter="FOX_CHILLINTALES_T17_012_character_2" idBalloon="FOX_CHILLINTALES_T17_012_balloon_3"/>
    <polygon points="602,863 603,863 611,1136 610,1136 602,863" idCharacter="FOX_CHILLINTALES_T17_012_character_5" idBalloon="FOX_CHILLINTALES_T17_012_balloon_6"/>
    <polygon points="353,902 354,902 479,1146 478,1146 353,902" idCharacter="FOX_CHILLINTALES_T17_012_character_4" idBalloon="FOX_CHILLINTALES_T17_012_balloon_5"/>
    <polygon points="855,886 856,886 942,1170 941,1170 855,886" idCharacter="FOX_CHILLINTALES_T17_012_character_6" idBalloon="FOX_CHILLINTALES_T17_012_balloon_7"/>
    <polygon points="1073,894 1074,894 1044,1198 1043,1198 1073,894" idCharacter="FOX_CHILLINTALES_T17_012_character_7" idBalloon="FOX_CHILLINTALES_T17_012_balloon_8"/>
    <polygon points="242,1432 243,1432 426,1641 425,1641 242,1432" idCharacter="FOX_CHILLINTALES_T17_012_character_8" idBalloon="FOX_CHILLINTALES_T17_012_balloon_10"/>
    <polygon points="857,1379 858,1379 1003,1537 1002,1537 857,1379" idCharacter="FOX_CHILLINTALES_T17_012_character_9" idBalloon="FOX_CHILLINTALES_T17_012_balloon_12"/>
  </svg>
<metadata method="GroundTruth" lastModificationDate="Sat Feb 15 20:58:19 CET 2014" lastStepModified="Line_Metadata"/>
</svg>