<?xml version="1.0" encoding="UTF-8" standalone="no"?>
<svg xmlns:xlink="http://www.w3.org/1999/xlink" xmlns="http://www.w3.org/2000/svg" contentScriptType="text/ecmascript"
     width="640mm" zoomAndPan="magnify" contentStyleType="text/css" height="922mm" viewBox="0 0 1280 1844"
     preserveAspectRatio="xMidYMid meet" version="1.0">
    <title>FOX_CHILLINTALES_T17_021</title>
    <svg contentScriptType="text/ecmascript" zoomAndPan="magnify" contentStyleType="text/css" class="Page"
         preserveAspectRatio="xMidYMid meet" version="1.0">
        <image x="0" y="0" width="1280" xlink:href="../Pages/FOX_CHILLINTALES_T17_021.jpg" xlink:type="simple"
               xlink:actuate="onLoad" height="1844" preserveAspectRatio="xMidYMid meet" xlink:show="embed"/>
        <metadata ISBN="" doublePage="false" albumTitle="Doomsday Ship" releaseDate="1953"
                  collectionTitle="Chilling Tales" readingDirection="leftToRight"
                  website="http://comicbookplus.com/?dlid=23923" drawerName="E. Allgor" pageNumber="21"
                  language="english" writerName="E. Allgor" editorName="Youthful Magazines"/>
    </svg>
    <style type="text/css" xml:space="preserve">
        * { stroke-width: 0; stroke-linejoin: round; }
        .Unclassified { fill: orange; stroke: none; opacity: 1.0; visibility: hidden; }
        .Noise { fill: pink; stroke: none; opacity: 0.2; visibility: hidden; }
        .Panel { fill: red; stroke: none; opacity: 0.3; visibility: visible; image-rendering: optimizeSpeed; }
        .Line { fill: green; stroke: none; opacity: 0.5; visibility: visible; image-rendering: optimizeSpeed; }
        .TextArea { fill: grey; stroke: none; opacity: 0.2; visibility: visible; image-rendering: optimizeSpeed; }
        .Balloon { fill: cyan; stroke: none; opacity: 0.5; visibility: visible; image-rendering: optimizeSpeed; }
        .Letter { fill: blue; stroke: none; opacity: 0.2; visibility: hidden; }
        .Character { fill: yellow; stroke: none; opacity: 0.3; visibility: visible; image-rendering: optimizeSpeed; }
        .Page { fill: white; stroke: none; opacity: 0.5; visibility: visible; }
        .linkSBSC { fill: blue; stroke: none; opacity: 0.5; visibility: visible; }
        polygon:hover { stroke:red;stroke-width:2; } 
    </style>
    <svg contentScriptType="text/ecmascript" zoomAndPan="magnify" contentStyleType="text/css" class="Panel"
         preserveAspectRatio="xMidYMid meet" version="1.0">
        <polygon points="37,58 634,58 634,618 37,618 37,58" id="FOX_CHILLINTALES_T17_021_panel_0">
            <metadata viewAngle="" uri="" shot="" area="" rank="1" fillingPcent=""/>
        </polygon>
        <polygon points="652,53 1244,53 1244,613 652,613 652,53" id="FOX_CHILLINTALES_T17_021_panel_1">
            <metadata viewAngle="" uri="" shot="" area="" rank="2" fillingPcent=""/>
        </polygon>
        <polygon points="35,637 631,637 631,1200 35,1200 35,637" id="FOX_CHILLINTALES_T17_021_panel_2">
            <metadata viewAngle="" uri="" shot="" area="" rank="3" fillingPcent=""/>
        </polygon>
        <polygon points="652,631 1241,631 1241,1194 652,1194 652,631" id="FOX_CHILLINTALES_T17_021_panel_3">
            <metadata viewAngle="" uri="" shot="" area="" rank="4" fillingPcent=""/>
        </polygon>
        <polygon points="38,1220 631,1220 631,1777 38,1777 38,1220" id="FOX_CHILLINTALES_T17_021_panel_4">
            <metadata viewAngle="" uri="" shot="" area="" rank="5" fillingPcent=""/>
        </polygon>
        <polygon points="654,1215 1242,1215 1242,1778 654,1778 654,1215" id="FOX_CHILLINTALES_T17_021_panel_5">
            <metadata viewAngle="" uri="" shot="" area="" rank="6" fillingPcent=""/>
        </polygon>
    </svg>
    <svg contentScriptType="text/ecmascript" zoomAndPan="magnify" contentStyleType="text/css" class="TextArea"
         preserveAspectRatio="xMidYMid meet" version="1.0"/>
    <svg contentScriptType="text/ecmascript" zoomAndPan="magnify" contentStyleType="text/css" class="Balloon"
         preserveAspectRatio="xMidYMid meet" version="1.0">
        <polygon points="66,490 191,485 384,487 593,484 594,510 593,556 591,588 466,587 175,590 66,589 66,490"
                 id="FOX_CHILLINTALES_T17_021_balloon_0">
            <metadata borderStyle="smooth" tailTip="" boundingBox="" tailDirection="none" rank="1"/>
        </polygon>
        <polygon points="656,503 964,496 1179,492 1242,495 1243,610 654,613 656,503"
                 id="FOX_CHILLINTALES_T17_021_balloon_1">
            <metadata borderStyle="smooth" tailTip="" boundingBox="" tailDirection="none" rank="2"/>
        </polygon>
        <polygon points="38,1070 239,1071 415,1064 551,1071 627,1072 631,1196 38,1198 38,1070"
                 id="FOX_CHILLINTALES_T17_021_balloon_2">
            <metadata borderStyle="smooth" tailTip="" boundingBox="" tailDirection="none" rank="3"/>
        </polygon>
        <polygon points="656,1077 790,1073 933,1074 1045,1075 1143,1076 1244,1077 1244,1190 652,1192 656,1077"
                 id="FOX_CHILLINTALES_T17_021_balloon_3">
            <metadata borderStyle="smooth" tailTip="" boundingBox="" tailDirection="none" rank="4"/>
        </polygon>
        <polygon points="38,1652 287,1655 404,1653 554,1646 632,1646 632,1774 40,1778 38,1652"
                 id="FOX_CHILLINTALES_T17_021_balloon_4">
            <metadata borderStyle="smooth" tailTip="" boundingBox="" tailDirection="none" rank="5"/>
        </polygon>
        <polygon
                points="700,1648 873,1647 1029,1644 1120,1644 1134,1644 1135,1745 1036,1746 844,1747 741,1746 701,1746 700,1648"
                id="FOX_CHILLINTALES_T17_021_balloon_5">
            <metadata borderStyle="smooth" tailTip="" boundingBox="" tailDirection="none" rank="6"/>
        </polygon>
    </svg>
    <svg contentScriptType="text/ecmascript" zoomAndPan="magnify" contentStyleType="text/css" class="Character"
         preserveAspectRatio="xMidYMid meet" version="1.0">
        <polygon points="430,203 606,203 606,470 430,470 430,203" id="FOX_CHILLINTALES_T17_021_character_0">
            <metadata uri="" area="" fillingPcent=""/>
        </polygon>
        <polygon points="905,244 1165,244 1165,494 905,494 905,244" id="FOX_CHILLINTALES_T17_021_character_1">
            <metadata uri="" area="" fillingPcent=""/>
        </polygon>
        <polygon points="52,676 327,676 327,1064 52,1064 52,676" id="FOX_CHILLINTALES_T17_021_character_2">
            <metadata uri="" area="" fillingPcent=""/>
        </polygon>
        <polygon points="267,667 547,667 547,1089 267,1089 267,667" id="FOX_CHILLINTALES_T17_021_character_3">
            <metadata uri="" area="" fillingPcent=""/>
        </polygon>
        <polygon points="846,814 1175,814 1175,1081 846,1081 846,814" id="FOX_CHILLINTALES_T17_021_character_4">
            <metadata uri="" area="" fillingPcent=""/>
        </polygon>
        <polygon points="186,1322 389,1322 389,1656 186,1656 186,1322" id="FOX_CHILLINTALES_T17_021_character_5">
            <metadata uri="" area="" fillingPcent=""/>
        </polygon>
        <polygon points="700,1396 1000,1396 1000,1778 700,1778 700,1396" id="FOX_CHILLINTALES_T17_021_character_6">
            <metadata uri="" area="" fillingPcent=""/>
        </polygon>
        <polygon points="920,1282 1228,1282 1228,1776 920,1776 920,1282" id="FOX_CHILLINTALES_T17_021_character_7">
            <metadata uri="" area="" fillingPcent=""/>
        </polygon>
    </svg>
    <svg contentScriptType="text/ecmascript" zoomAndPan="magnify" contentStyleType="text/css" class="Line"
         preserveAspectRatio="xMidYMid meet" version="1.0">
        <polygon points="73,493 575,493 575,519 73,519 73,493" id="FOX_CHILLINTALES_T17_021_line_0">
            <metadata typography="" uri="" method="" area="" fillingPcent="" rank=""
                      idBalloon="FOX_CHILLINTALES_T17_021_balloon_0" textType="narrative">ONE EVENING LEANING OVER THE
                TAFFRAIL,
            </metadata>
        </polygon>
        <polygon points="74,524 583,524 583,541 74,541 74,524" id="FOX_CHILLINTALES_T17_021_line_1">
            <metadata typography="" uri="" method="" area="" fillingPcent="" rank=""
                      idBalloon="FOX_CHILLINTALES_T17_021_balloon_0" textType="narrative">I'OBSERVED A STRANGE CLOUD
                THAT STRUCK
            </metadata>
        </polygon>
        <polygon points="77,553 331,553 331,571 77,571 77,553" id="FOX_CHILLINTALES_T17_021_line_2">
            <metadata typography="" uri="" method="" area="" fillingPcent="" rank=""
                      idBalloon="FOX_CHILLINTALES_T17_021_balloon_0" textType="narrative">A CHILL TO MY HEART.
            </metadata>
        </polygon>
        <polygon points="672,506 1180,506 1180,529 672,529 672,506" id="FOX_CHILLINTALES_T17_021_line_3">
            <metadata typography="" uri="" method="" area="" fillingPcent="" rank=""
                      idBalloon="FOX_CHILLINTALES_T17_021_balloon_1" textType="narrative">SUDDENLY IT BECAME INTOLERABLY
                HOT AND
            </metadata>
        </polygon>
        <polygon points="672,536 1175,536 1175,553 672,553 672,536" id="FOX_CHILLINTALES_T17_021_line_4">
            <metadata typography="" uri="" method="" area="" fillingPcent="" rank=""
                      idBalloon="FOX_CHILLINTALES_T17_021_balloon_1" textType="narrative">EVERY BREATH WIND DIED AWAY. i
                WENT
            </metadata>
        </polygon>
        <polygon points="673,563 1213,563 1213,581 673,581 673,563" id="FOX_CHILLINTALES_T17_021_line_5">
            <metadata typography="" uri="" method="" area="" fillingPcent="" rank=""
                      idBalloon="FOX_CHILLINTALES_T17_021_balloon_1" textType="narrative">BELOW WITH A FEELING OF
                APPROACHING EVIL.
            </metadata>
        </polygon>
        <polygon points="60,1075 560,1075 560,1098 60,1098 60,1075" id="FOX_CHILLINTALES_T17_021_line_6">
            <metadata typography="" uri="" method="" area="" fillingPcent="" rank=""
                      idBalloon="FOX_CHILLINTALES_T17_021_balloon_2" textType="narrative">I TOLD THE CAPTAIN OF MY
                FEARS, BUT HE
            </metadata>
        </polygon>
        <polygon points="60,1105 547,1105 547,1123 60,1123 60,1105" id="FOX_CHILLINTALES_T17_021_line_7">
            <metadata typography="" uri="" method="" area="" fillingPcent="" rank=""
                      idBalloon="FOX_CHILLINTALES_T17_021_balloon_2" textType="narrative">PAID NO ATTENTION TO WHAT I
                SAID AND
            </metadata>
        </polygon>
        <polygon points="61,1134 474,1134 474,1154 61,1153 61,1134" id="FOX_CHILLINTALES_T17_021_line_8">
            <metadata typography="" uri="" method="" area="" fillingPcent="" rank=""
                      idBalloon="FOX_CHILLINTALES_T17_021_balloon_2" textType="narrative">LEFT WITHOUT DEIGNING TO
                REPLY.
            </metadata>
        </polygon>
        <polygon points="693,1071 1186,1071 1186,1101 693,1100 693,1071" id="FOX_CHILLINTALES_T17_021_line_9">
            <metadata typography="" uri="" method="" area="" fillingPcent="" rank=""
                      idBalloon="FOX_CHILLINTALES_T17_021_balloon_3" textType="narrative">MY UNEASINESS KEPT ME FROM
                SLEEPING,
            </metadata>
        </polygon>
        <polygon points="692,1104 1150,1104 1150,1121 692,1121 692,1104" id="FOX_CHILLINTALES_T17_021_line_10">
            <metadata typography="" uri="" method="" area="" fillingPcent="" rank=""
                      idBalloon="FOX_CHILLINTALES_T17_021_balloon_3" textType="narrative">AND ABOUT MIDNIGHT I DECIDED
                TO GO
            </metadata>
        </polygon>
        <polygon points="692,1134 799,1134 799,1150 692,1150 692,1134" id="FOX_CHILLINTALES_T17_021_line_11">
            <metadata typography="" uri="" method="" area="" fillingPcent="" rank=""
                      idBalloon="FOX_CHILLINTALES_T17_021_balloon_3" textType="narrative">ON DECK.
            </metadata>
        </polygon>
        <polygon points="76,1656 569,1656 569,1679 76,1679 76,1656" id="FOX_CHILLINTALES_T17_021_line_12">
            <metadata typography="" uri="" method="" area="" fillingPcent="" rank=""
                      idBalloon="FOX_CHILLINTALES_T17_021_balloon_4" textType="narrative">AS I PLACED MY FOOT ON THE
                UPPER RUNG
            </metadata>
        </polygon>
        <polygon points="74,1689 579,1689 579,1709 74,1709 74,1689" id="FOX_CHILLINTALES_T17_021_line_13">
            <metadata typography="" uri="" method="" area="" fillingPcent="" rank=""
                      idBalloon="FOX_CHILLINTALES_T17_021_balloon_4" textType="narrative">OF THE COMPANION LADDER, I WAS
                STARLED
            </metadata>
        </polygon>
        <polygon points="74,1711 591,1711 591,1734 74,1734 74,1711" id="FOX_CHILLINTALES_T17_021_line_14">
            <metadata typography="" uri="" method="" area="" fillingPcent="" rank=""
                      idBalloon="FOX_CHILLINTALES_T17_021_balloon_4" textType="narrative">BY A LOUD AND FRIGHTTENING
                HUMMING NOISE!
            </metadata>
        </polygon>
        <polygon points="726,1653 1106,1653 1106,1679 726,1679 726,1653" id="FOX_CHILLINTALES_T17_021_line_15">
            <metadata typography="" uri="" method="" area="" fillingPcent="" rank=""
                      idBalloon="FOX_CHILLINTALES_T17_021_balloon_5" textType="narrative">AS I STEPPED ON DECK I FOUND
            </metadata>
        </polygon>
        <polygon points="729,1689 1047,1689 1047,1705 729,1705 729,1689" id="FOX_CHILLINTALES_T17_021_line_16">
            <metadata typography="" uri="" method="" area="" fillingPcent="" rank=""
                      idBalloon="FOX_CHILLINTALES_T17_021_balloon_5" textType="narrative">THE SHIP QUIVERING LIKE A
            </metadata>
        </polygon>
        <polygon points="727,1713 921,1713 921,1733 727,1733 727,1713" id="FOX_CHILLINTALES_T17_021_line_17">
            <metadata typography="" uri="" method="" area="" fillingPcent="" rank=""
                      idBalloon="FOX_CHILLINTALES_T17_021_balloon_5" textType="narrative">STRIKEN BEAST.
            </metadata>
        </polygon>
        <polygon points="1217,1751 1230,1751 1230,1770 1217,1770 1217,1751" id="FOX_CHILLINTALES_T17_021_line_18">
            <metadata typography="" uri="" method="" area="" fillingPcent="" rank="" textType="note">2</metadata>
        </polygon>
        <polygon id="FOX_CHILLINTALES_T17_021_line_19"
                 points="81,1315 136,1291 193,1275 243,1258 308,1254 357,1249 402,1243 450,1240 480,1244 529,1244 571,1238 586,1241 585,1276 541,1287 401,1298 344,1307 297,1323 240,1333 185,1345 86,1388 81,1315">
            <metadata method="" typography="" rank="" textType="speech">MMMMMMMMMMM</metadata>
        </polygon>
    </svg>
    <svg contentScriptType="text/ecmascript" zoomAndPan="magnify" contentStyleType="text/css" class="linkSBSC"
         preserveAspectRatio="xMidYMid meet" version="1.0"/>
    <metadata method="GroundTruth" lastModificationDate="Sat Feb 15 21:13:15 CET 2014"
              lastStepModified="Object_Polygons"/>
</svg>