<?xml version="1.0" encoding="UTF-8" standalone="no"?>
<svg xmlns="http://www.w3.org/2000/svg" xmlns:xlink="http://www.w3.org/1999/xlink" contentScriptType="text/ecmascript" width="311mm" zoomAndPan="magnify" contentStyleType="text/css" height="429mm" viewBox="0 0 1280 1844" preserveAspectRatio="xMidYMid meet" version="1.0">
    <title>FOX_CHILLINTALES_T17_006</title>
    <svg contentScriptType="text/ecmascript" zoomAndPan="magnify" contentStyleType="text/css" class="Page" preserveAspectRatio="xMidYMid meet" version="1.0">
        <image x="0" y="0" width="1280" xlink:href="../Pages/FOX_CHILLINTALES_T17_006.jpg" xlink:type="simple" xlink:actuate="onLoad" height="1844" preserveAspectRatio="xMidYMid meet" xlink:show="embed"/>
        <metadata collectionTitle="Chilling Tales" editorName="Youthful Magazines" doublePage="false" website="http://comicbookplus.com/?dlid=23923" albumTitle="Chilling Tales 17 Geo" drawerName="Matt Fox" language="english" resolution="" ISBN="" readingDirection="leftToRight" writerName="Matt Fox" releaseDate="" pageNumber="6"/>
    </svg>
	<style type="text/css" xml:space="preserve">
        * { stroke-width: 0; stroke-linejoin: round; }
        .Unclassified { fill: orange; stroke: none; opacity: 1.0; visibility: hidden; }
        .Noise { fill: pink; stroke: none; opacity: 0.2; visibility: hidden; }
        .Panel { fill: red; stroke: none; opacity: 0.3; visibility: visible; image-rendering: optimizeSpeed; }
        .Line { fill: green; stroke: none; opacity: 0.5; visibility: visible; image-rendering: optimizeSpeed; }
        .TextArea { fill: grey; stroke: none; opacity: 0.2; visibility: visible; image-rendering: optimizeSpeed; }
        .Balloon { fill: cyan; stroke: none; opacity: 0.5; visibility: visible; image-rendering: optimizeSpeed; }
        .Letter { fill: blue; stroke: none; opacity: 0.2; visibility: hidden; }
        .Character { fill: yellow; stroke: none; opacity: 0.3; visibility: visible; image-rendering: optimizeSpeed; }
        .Page { fill: white; stroke: none; opacity: 0.5; visibility: visible; }
        .linkSBSC { fill: blue; stroke: none; opacity: 0.5; visibility: visible; }
        polygon:hover { stroke:red;stroke-width:2; } 
    </style><svg contentScriptType="text/ecmascript" zoomAndPan="magnify" contentStyleType="text/css" class="Panel" preserveAspectRatio="xMidYMid meet" version="1.0">
        <polygon points="32,53 416,52 429,901 40,902 32,53" id="FOX_CHILLINTALES_T17_006_panel_0">
            <metadata viewAngle="" uri="" shot="" area="" rank="1" fillingPcent=""/>
        </polygon>
        <polygon points="442,58 829,58 829,903 442,903 442,58" id="FOX_CHILLINTALES_T17_006_panel_1">
            <metadata viewAngle="" uri="" shot="" area="" rank="2" fillingPcent=""/>
        </polygon>
        <polygon points="853,51 1233,53 1238,898 856,899 853,51" id="FOX_CHILLINTALES_T17_006_panel_2">
            <metadata viewAngle="" uri="" shot="" area="" rank="3" fillingPcent=""/>
        </polygon>
        <polygon points="33,923 422,923 422,1766 33,1766 33,923" id="FOX_CHILLINTALES_T17_006_panel_3">
            <metadata viewAngle="" uri="" shot="" area="" rank="4" fillingPcent=""/>
        </polygon>
        <polygon points="443,1010 831,1010 831,1766 443,1766 443,1010" id="FOX_CHILLINTALES_T17_006_panel_4">
            <metadata viewAngle="" uri="" shot="" area="" rank="5" fillingPcent=""/>
        </polygon>
        <polygon points="857,1009 1235,1010 1238,1763 857,1763 857,1009" id="FOX_CHILLINTALES_T17_006_panel_5">
            <metadata viewAngle="" uri="" shot="" area="" rank="6" fillingPcent=""/>
        </polygon>
    </svg>
    <svg contentScriptType="text/ecmascript" zoomAndPan="magnify" contentStyleType="text/css" class="TextArea" preserveAspectRatio="xMidYMid meet" version="1.0"/>
    <svg contentScriptType="text/ecmascript" zoomAndPan="magnify" contentStyleType="text/css" class="Balloon" preserveAspectRatio="xMidYMid meet" version="1.0">
        <polygon points="31,53 420,53 421,165 413,169 420,170 415,204 359,204 353,200 350,204 289,205 286,199 278,204 32,204 31,53" id="FOX_CHILLINTALES_T17_006_balloon_0">
            <metadata borderStyle="smooth" tailTip="" boundingBox="" tailDirection="none" rank="1"/>
        </polygon>
        <polygon points="114,206 137,204 193,205 275,203 286,198 293,203 351,204 356,201 363,205 408,204 417,210 424,212 430,226 429,242 424,257 413,267 392,273 382,275 392,281 397,287 392,298 376,307 362,311 343,314 326,317 305,319 281,321 257,321 241,323 238,339 230,359 217,385 223,354 226,331 222,316 205,317 186,319 157,316 139,315 118,310 104,303 100,293 107,286 111,282 104,281 93,275 88,253 90,232 100,218 114,206" id="FOX_CHILLINTALES_T17_006_balloon_1">
            <metadata borderStyle="smooth" tailTip="217,385" boundingBox="" tailDirection="SW" rank="2"/>
        </polygon>
        <polygon points="443,59 658,57 767,59 834,60 834,121 443,124 443,59" id="FOX_CHILLINTALES_T17_006_balloon_2">
            <metadata borderStyle="other" tailTip="" boundingBox="" tailDirection="none" rank="3"/>
        </polygon>
        <polygon points="475,125 602,124 615,129 625,134 628,140 629,147 626,153 623,157 613,161 621,165 623,170 620,179 617,181 604,190 590,196 576,199 564,200 553,200 547,199 546,205 547,216 547,224 548,232 549,242 551,249 552,265 543,251 538,236 536,226 532,217 529,203 525,198 511,197 501,196 489,194 482,193 471,189 465,182 462,172 465,161 468,157 475,153 464,152 454,151 456,143 462,135 475,125" id="FOX_CHILLINTALES_T17_006_balloon_3">
            <metadata borderStyle="smooth" tailTip="552,265" boundingBox="" tailDirection="SE" rank="4"/>
        </polygon>
        <polygon points="636,126 801,123 813,131 810,141 804,147 799,152 794,155 803,154 809,158 814,161 821,166 825,171 827,174 830,185 830,191 827,202 821,210 811,215 804,218 793,224 794,231 796,242 796,250 795,258 794,265 791,270 788,276 785,277 782,262 780,250 778,245 770,247 759,250 747,251 736,252 719,252 702,251 671,249 650,243 629,237 616,230 608,224 604,212 608,193 615,185 627,175 623,173 623,168 619,164 614,162 623,157 628,143 626,136 636,126" id="FOX_CHILLINTALES_T17_006_balloon_4">
            <metadata borderStyle="smooth" tailTip="785,277" boundingBox="5" tailDirection="S" rank="5"/>
        </polygon>
        <polygon points="881,53 1013,51 1037,60 1040,67 1036,73 1032,76 1026,80 1025,81 1025,81 1033,85 1038,89 1044,99 1047,106 1049,122 1050,132 1050,136 1046,144 1045,147 1041,153 1034,157 1020,163 1012,167 1018,169 1021,170 1023,177 1022,183 1020,187 1018,192 1012,197 1006,200 994,204 989,204 980,205 978,217 977,231 974,246 973,261 972,272 968,285 966,297 961,319 957,325 960,295 961,271 961,246 961,229 957,210 941,208 926,207 909,204 893,202 883,200 876,195 871,191 868,179 873,167 883,156 870,154 856,146 855,95 865,89 864,83 862,76 865,65 881,53" id="FOX_CHILLINTALES_T17_006_balloon_5">
            <metadata borderStyle="smooth" tailTip="957,325" boundingBox="" tailDirection="S" rank="6"/>
        </polygon>
        <polygon points="1068,52 1239,52 1238,306 1213,308 1177,316 1139,328 1119,333 1099,333 1080,330 1064,327 1061,341 1057,359 1063,374 1048,357 1044,331 1044,319 1032,310 1014,296 1007,284 1004,260 1012,231 1038,195 1034,185 1029,174 1028,161 1036,149 1044,143 1047,134 1047,122 1047,112 1044,101 1038,88 1035,78 1068,52" id="FOX_CHILLINTALES_T17_006_balloon_6">
            <metadata borderStyle="smooth" tailTip="1063,374" boundingBox="" tailDirection="SE" rank="7"/>
        </polygon>
        <polygon points="39,932 80,924 106,925 142,923 186,925 201,931 209,944 212,957 210,978 206,989 201,996 197,1002 190,1010 182,1017 193,1026 202,1036 212,1053 217,1068 220,1078 221,1087 218,1101 214,1112 209,1122 202,1129 193,1136 193,1149 191,1165 189,1179 183,1193 183,1176 178,1163 174,1149 160,1156 151,1159 139,1162 125,1165 110,1167 93,1167 78,1168 66,1167 51,1164 34,1159 33,945 39,932" id="FOX_CHILLINTALES_T17_006_balloon_7">
            <metadata borderStyle="smooth" tailTip="183,1193" boundingBox="" tailDirection="S" rank="8"/>
        </polygon>
        <polygon points="231,925 378,925 391,932 400,941 407,952 413,961 414,974 405,988 408,988 414,987 420,988 422,998 421,1015 421,1026 421,1036 422,1048 420,1057 417,1066 413,1076 405,1086 400,1091 395,1096 390,1100 385,1104 380,1106 376,1108 365,1111 366,1117 368,1126 368,1133 367,1139 366,1145 365,1148 362,1158 360,1161 348,1167 351,1156 353,1152 354,1147 356,1140 356,1133 357,1129 355,1123 352,1117 341,1119 328,1124 321,1125 309,1125 286,1124 275,1124 255,1123 237,1122 229,1118 218,1112 219,1085 214,1058 205,1046 198,1036 191,1025 197,1017 206,1012 212,1007 210,1002 202,995 208,979 210,963 209,950 216,938 231,925" id="FOX_CHILLINTALES_T17_006_balloon_8">
            <metadata borderStyle="smooth" tailTip="348,1167" boundingBox="" tailDirection="S" rank="9"/>
        </polygon>
        <polygon points="448,930 523,929 697,925 787,929 823,931 829,946 831,963 831,979 831,993 829,1007 443,1012 445,954 448,930" id="FOX_CHILLINTALES_T17_006_balloon_9">
            <metadata borderStyle="other" tailTip="" boundingBox="" tailDirection="none" rank="10"/>
        </polygon>
        <polygon points="461,1017 478,1011 620,1012 774,1009 801,1012 807,1017 809,1026 805,1034 809,1038 810,1046 806,1050 813,1050 824,1050 834,1054 838,1062 838,1070 834,1079 842,1081 843,1088 845,1090 846,1095 850,1104 850,1108 850,1112 850,1116 846,1120 844,1123 840,1126 842,1133 841,1142 835,1145 828,1148 826,1149 820,1151 813,1157 812,1157 810,1167 804,1169 799,1169 792,1166 784,1164 784,1165 782,1168 778,1171 776,1171 769,1169 769,1171 768,1176 763,1182 758,1184 755,1185 750,1185 747,1185 740,1181 737,1175 735,1177 730,1177 726,1173 723,1177 719,1179 718,1179 715,1176 714,1181 706,1189 703,1191 700,1192 697,1192 694,1191 693,1191 690,1197 692,1209 694,1210 696,1235 696,1248 695,1254 691,1265 686,1280 683,1314 678,1334 673,1341 669,1349 663,1352 658,1341 660,1333 661,1324 662,1318 662,1309 664,1298 664,1289 664,1285 665,1277 667,1264 667,1257 668,1247 670,1238 671,1227 665,1215 662,1208 657,1200 654,1196 653,1190 636,1186 634,1180 621,1184 616,1179 600,1183 593,1173 583,1183 577,1185 571,1186 565,1184 557,1181 555,1180 552,1182 545,1180 544,1179 540,1182 533,1182 527,1181 526,1178 525,1186 519,1191 515,1193 503,1195 497,1195 482,1193 471,1182 468,1174 468,1170 467,1169 464,1168 463,1168 463,1162 457,1165 453,1166 447,1162 443,1149 445,1107 447,1107 453,1105 456,1103 456,1102 453,1097 447,1093 446,1090 444,1065 447,1041 461,1017 461,1017 461,1017 461,1017" id="FOX_CHILLINTALES_T17_006_balloon_10">
            <metadata borderStyle="wavy" tailTip="663,1352" boundingBox="" tailDirection="S" rank="11"/>
        </polygon>
        <polygon points="867,928 1158,923 1220,931 1222,944 1222,950 1220,957 1218,977 1218,988 1218,993 1218,1004 1216,1005 1212,1006 880,1012 872,1008 867,928" id="FOX_CHILLINTALES_T17_006_balloon_11">
            <metadata borderStyle="other" tailTip="" boundingBox="" tailDirection="none" rank="12"/>
        </polygon>
        <polygon points="879,1014 1004,1010 1016,1015 1023,1019 1029,1024 1035,1035 1034,1041 1036,1054 1040,1067 1042,1081 1038,1092 1036,1105 1033,1108 1031,1114 1024,1121 1016,1132 1009,1137 1004,1141 999,1145 996,1148 989,1150 985,1152 978,1154 970,1156 968,1156 966,1157 962,1159 960,1159 958,1170 957,1173 954,1184 952,1190 951,1193 947,1211 940,1222 939,1206 941,1194 943,1184 941,1165 921,1161 909,1161 896,1158 890,1154 886,1152 879,1150 874,1148 865,1142 862,1132 858,1121 857,1038 862,1029 868,1023 879,1014" id="FOX_CHILLINTALES_T17_006_balloon_12">
            <metadata borderStyle="smooth" tailTip="940,1222" boundingBox="" tailDirection="S" rank="13"/>
        </polygon>
        <polygon points="1051,1012 1224,1009 1232,1015 1238,1017 1241,1027 1240,1059 1239,1068 1238,1078 1236,1089 1233,1096 1228,1101 1223,1106 1218,1110 1229,1112 1230,1117 1230,1120 1226,1134 1224,1138 1212,1147 1204,1151 1196,1155 1189,1158 1178,1163 1172,1166 1162,1170 1150,1173 1144,1175 1129,1178 1120,1178 1113,1196 1103,1231 1096,1257 1080,1298 1088,1252 1092,1224 1095,1200 1097,1177 1073,1176 1055,1172 1041,1164 1032,1159 1027,1150 1033,1134 1043,1112 1032,1105 1038,1076 1035,1052 1030,1037 1035,1028 1051,1012" id="FOX_CHILLINTALES_T17_006_balloon_13">
            <metadata borderStyle="smooth" tailTip="1080,1298" boundingBox="" tailDirection="S" rank="14"/>
        </polygon>
    </svg>
    <svg contentScriptType="text/ecmascript" zoomAndPan="magnify" contentStyleType="text/css" class="Character" preserveAspectRatio="xMidYMid meet" version="1.0">
        <polygon points="106,424 267,424 267,856 106,856 106,424" id="FOX_CHILLINTALES_T17_006_character_0">
            <metadata ID="" rank=""/>
        </polygon>
        <polygon points="445,304 625,304 625,784 445,784 445,304" id="FOX_CHILLINTALES_T17_006_character_1">
            <metadata ID="" rank=""/>
        </polygon>
        <polygon points="676,287 828,287 828,748 676,748 676,287" id="FOX_CHILLINTALES_T17_006_character_2">
            <metadata ID="" rank=""/>
        </polygon>
        <polygon points="858,396 1087,396 1087,902 858,902 858,396" id="FOX_CHILLINTALES_T17_006_character_3">
            <metadata ID="" rank=""/>
        </polygon>
        <polygon points="1032,305 1243,305 1243,901 1032,901 1032,305" id="FOX_CHILLINTALES_T17_006_character_4">
            <metadata ID="" rank=""/>
        </polygon>
        <polygon points="195,1165 423,1165 423,1765 195,1765 195,1165" id="FOX_CHILLINTALES_T17_006_character_5">
            <metadata ID="" rank=""/>
        </polygon>
        <polygon points="36,1173 216,1173 216,1764 36,1764 36,1173" id="FOX_CHILLINTALES_T17_006_character_6">
            <metadata ID="" rank=""/>
        </polygon>
        <polygon points="611,1382 701,1382 701,1653 611,1653 611,1382" id="FOX_CHILLINTALES_T17_006_character_7">
            <metadata ID="" rank=""/>
        </polygon>
        <polygon points="708,1355 781,1355 781,1623 708,1623 708,1355" id="FOX_CHILLINTALES_T17_006_character_8">
            <metadata ID="" rank=""/>
        </polygon>
        <polygon points="858,1247 1006,1247 1006,1764 858,1764 858,1247" id="FOX_CHILLINTALES_T17_006_character_9">
            <metadata ID="" rank=""/>
        </polygon>
        <polygon points="1008,1340 1138,1340 1138,1765 1008,1765 1008,1340" id="FOX_CHILLINTALES_T17_006_character_10">
            <metadata ID="" rank=""/>
        </polygon>
        <polygon points="1131,1173 1241,1173 1241,1767 1131,1767 1131,1173" id="FOX_CHILLINTALES_T17_006_character_11">
            <metadata ID="" rank=""/>
        </polygon>
    </svg>
    <svg contentScriptType="text/ecmascript" zoomAndPan="magnify" contentStyleType="text/css" class="Line" preserveAspectRatio="xMidYMid meet" version="1.0">
        <polygon points="40,59 401,59 401,92 40,92 40,59" id="FOX_CHILLINTALES_T17_006_line_0">
            <metadata typography="" uri="" method="" area="" fillingPcent="" rank="" idBalloon="FOX_CHILLINTALES_T17_006_balloon_0" textType="narrative">MY GRANDFATHER, STEENIE, FOR-</metadata>
        </polygon>
        <polygon points="39,95 375,95 375,114 39,114 39,95" id="FOX_CHILLINTALES_T17_006_line_1">
            <metadata typography="" uri="" method="" area="" fillingPcent="" rank="" idBalloon="FOX_CHILLINTALES_T17_006_balloon_0" textType="narrative">TIFIED HIMSELF WITH BRANDY</metadata>
        </polygon>
        <polygon points="40,121 410,121 410,140 40,140 40,121" id="FOX_CHILLINTALES_T17_006_line_2">
            <metadata typography="" uri="" method="" area="" fillingPcent="" rank="" idBalloon="FOX_CHILLINTALES_T17_006_balloon_0" textType="narrative">AND MAKE HIS WAY HOME THROUGH</metadata>
        </polygon>
        <polygon points="39,146 373,146 373,164 39,164 39,146" id="FOX_CHILLINTALES_T17_006_line_3">
            <metadata typography="" uri="" method="" area="" fillingPcent="" rank="" idBalloon="FOX_CHILLINTALES_T17_006_balloon_0" textType="narrative">THE DARK WOODS OF HAUNTED</metadata>
        </polygon>
        <polygon points="42,172 189,172 189,191 42,191 42,172" id="FOX_CHILLINTALES_T17_006_line_4">
            <metadata typography="" uri="" method="" area="" fillingPcent="" rank="" idBalloon="FOX_CHILLINTALES_T17_006_balloon_0" textType="narrative">PITMURKIE...</metadata>
        </polygon>
        <polygon points="130,205 381,205 381,226 130,226 130,205" id="FOX_CHILLINTALES_T17_006_line_5">
            <metadata typography="" uri="" method="" area="" fillingPcent="" rank="" idBalloon="FOX_CHILLINTALES_T17_006_balloon_1" textType="speech">AYE! I AM LOST! MY</metadata>
        </polygon>
        <polygon points="121,234 397,234 397,252 121,252 121,234" id="FOX_CHILLINTALES_T17_006_line_6">
            <metadata typography="" uri="" method="" area="" fillingPcent="" rank="" idBalloon="FOX_CHILLINTALES_T17_006_balloon_1" textType="speech">HOME WILL BE TAKEN--</metadata>
        </polygon>
        <polygon points="157,254 295,254 295,279 157,279 157,254" id="FOX_CHILLINTALES_T17_006_line_7">
            <metadata typography="" uri="" method="" area="" fillingPcent="" rank="" idBalloon="FOX_CHILLINTALES_T17_006_balloon_1" textType="speech">WOE IS ME!</metadata>
        </polygon>
        <polygon points="449,59 809,59 809,91 449,91 449,59" id="FOX_CHILLINTALES_T17_006_line_8">
            <metadata typography="" uri="" method="" area="" fillingPcent="" rank="" idBalloon="FOX_CHILLINTALES_T17_006_balloon_2" textType="narrative">SUDDENLY, FROM A DARK THICKET,</metadata>
        </polygon>
        <polygon points="446,95 823,95 823,112 446,112 446,95" id="FOX_CHILLINTALES_T17_006_line_9">
            <metadata typography="" uri="" method="" area="" fillingPcent="" rank="" idBalloon="FOX_CHILLINTALES_T17_006_balloon_2" textType="narrative">A STRANGER STEPPED BEFORE HIM...</metadata>
        </polygon>
        <polygon points="482,127 597,127 597,147 482,147 482,127" id="FOX_CHILLINTALES_T17_006_line_10">
            <metadata typography="" uri="" method="" area="" fillingPcent="" rank="" idBalloon="FOX_CHILLINTALES_T17_006_balloon_3" textType="speech">HUH! WHO</metadata>
        </polygon>
        <polygon points="497,155 598,155 598,177 497,177 497,155" id="FOX_CHILLINTALES_T17_006_line_11">
            <metadata typography="" uri="" method="" area="" fillingPcent="" rank="" idBalloon="FOX_CHILLINTALES_T17_006_balloon_3" textType="speech">ARE YOU?</metadata>
        </polygon>
        <polygon points="657,129 773,129 773,150 657,150 657,129" id="FOX_CHILLINTALES_T17_006_line_12">
            <metadata typography="" uri="" method="" area="" fillingPcent="" rank="" idBalloon="FOX_CHILLINTALES_T17_006_balloon_4" textType="speech">STEENIE, I</metadata>
        </polygon>
        <polygon points="648,155 760,155 760,172 648,172 648,155" id="FOX_CHILLINTALES_T17_006_line_13">
            <metadata typography="" uri="" method="" area="" fillingPcent="" rank="" idBalloon="FOX_CHILLINTALES_T17_006_balloon_4" textType="speech">HAVE BEEN</metadata>
        </polygon>
        <polygon points="643,180 786,180 786,198 643,198 643,180" id="FOX_CHILLINTALES_T17_006_line_14">
            <metadata typography="" uri="" method="" area="" fillingPcent="" rank="" idBalloon="FOX_CHILLINTALES_T17_006_balloon_4" textType="speech">LOOKING FOR</metadata>
        </polygon>
        <polygon points="675,207 722,207 722,224 675,224 675,207" id="FOX_CHILLINTALES_T17_006_line_15">
            <metadata typography="" uri="" method="" area="" fillingPcent="" rank="" idBalloon="FOX_CHILLINTALES_T17_006_balloon_4" textType="speech">YOU.</metadata>
        </polygon>
        <polygon points="884,69 999,69 999,91 884,91 884,69" id="FOX_CHILLINTALES_T17_006_line_16">
            <metadata typography="" uri="" method="" area="" fillingPcent="" rank="" idBalloon="FOX_CHILLINTALES_T17_006_balloon_5" textType="speech">ME? WHAT</metadata>
        </polygon>
        <polygon points="875,95 1025,95 1025,112 875,112 875,95" id="FOX_CHILLINTALES_T17_006_line_17">
            <metadata typography="" uri="" method="" area="" fillingPcent="" rank="" idBalloon="FOX_CHILLINTALES_T17_006_balloon_5" textType="speech">ON AIRTH CAN</metadata>
        </polygon>
        <polygon points="874,119 1021,119 1021,137 874,137 874,119" id="FOX_CHILLINTALES_T17_006_line_18">
            <metadata typography="" uri="" method="" area="" fillingPcent="" rank="" idBalloon="FOX_CHILLINTALES_T17_006_balloon_5" textType="speech">YE WANT WITH</metadata>
        </polygon>
        <polygon points="915,145 960,145 960,168 915,168 915,145" id="FOX_CHILLINTALES_T17_006_line_19">
            <metadata typography="" uri="" method="" area="" fillingPcent="" rank="" idBalloon="FOX_CHILLINTALES_T17_006_balloon_5" textType="speech">ME?</metadata>
        </polygon>
        <polygon points="1058,68 1229,68 1229,85 1058,85 1058,68" id="FOX_CHILLINTALES_T17_006_line_20">
            <metadata typography="" uri="" method="" area="" fillingPcent="" rank="" idBalloon="FOX_CHILLINTALES_T17_006_balloon_6" textType="speech">THE AULD LAIRD</metadata>
        </polygon>
        <polygon points="1057,94 1228,94 1228,112 1057,112 1057,94" id="FOX_CHILLINTALES_T17_006_line_21">
            <metadata typography="" uri="" method="" area="" fillingPcent="" rank="" idBalloon="FOX_CHILLINTALES_T17_006_balloon_6" textType="speech">IS DISTURBED IN</metadata>
        </polygon>
        <polygon points="1056,118 1203,118 1203,136 1056,136 1056,118" id="FOX_CHILLINTALES_T17_006_line_22">
            <metadata typography="" uri="" method="" area="" fillingPcent="" rank="" idBalloon="FOX_CHILLINTALES_T17_006_balloon_6" textType="speech">HIS GRAVE BY</metadata>
        </polygon>
        <polygon points="1057,139 1214,139 1214,163 1057,163 1057,139" id="FOX_CHILLINTALES_T17_006_line_23">
            <metadata typography="" uri="" method="" area="" fillingPcent="" rank="" idBalloon="FOX_CHILLINTALES_T17_006_balloon_6" textType="speech">YOUR CURSES!</metadata>
        </polygon>
        <polygon points="1060,171 1229,171 1229,189 1060,189 1060,171" id="FOX_CHILLINTALES_T17_006_line_24">
            <metadata typography="" uri="" method="" area="" fillingPcent="" rank="" idBalloon="FOX_CHILLINTALES_T17_006_balloon_6" textType="speech">IF YE DARE VEN-</metadata>
        </polygon>
        <polygon points="1060,195 1231,195 1231,214 1060,214 1060,195" id="FOX_CHILLINTALES_T17_006_line_25">
            <metadata typography="" uri="" method="" area="" fillingPcent="" rank="" idBalloon="FOX_CHILLINTALES_T17_006_balloon_6" textType="speech">TURE TO GO AND</metadata>
        </polygon>
        <polygon points="1064,221 1187,221 1187,243 1064,243 1064,221" id="FOX_CHILLINTALES_T17_006_line_26">
            <metadata typography="" uri="" method="" area="" fillingPcent="" rank="" idBalloon="FOX_CHILLINTALES_T17_006_balloon_6" textType="speech">SEE HIM, HE</metadata>
        </polygon>
        <polygon points="1062,248 1220,248 1220,266 1062,266 1062,248" id="FOX_CHILLINTALES_T17_006_line_27">
            <metadata typography="" uri="" method="" area="" fillingPcent="" rank="" idBalloon="FOX_CHILLINTALES_T17_006_balloon_6" textType="speech">WILL GIVE YOU</metadata>
        </polygon>
        <polygon points="1056,274 1203,274 1203,292 1056,292 1056,274" id="FOX_CHILLINTALES_T17_006_line_28">
            <metadata typography="" uri="" method="" area="" fillingPcent="" rank="" idBalloon="FOX_CHILLINTALES_T17_006_balloon_6" textType="speech">THE RECEIPT.</metadata>
        </polygon>
        <polygon points="51,938 191,938 191,957 51,957 51,938" id="FOX_CHILLINTALES_T17_006_line_29">
            <metadata typography="" uri="" method="" area="" fillingPcent="" rank="" idBalloon="FOX_CHILLINTALES_T17_006_balloon_7" textType="speech">I HAVE THE</metadata>
        </polygon>
        <polygon points="45,963 185,963 185,982 45,982 45,963" id="FOX_CHILLINTALES_T17_006_line_30">
            <metadata typography="" uri="" method="" area="" fillingPcent="" rank="" idBalloon="FOX_CHILLINTALES_T17_006_balloon_7" textType="speech">COURAGE TO</metadata>
        </polygon>
        <polygon points="42,990 160,990 160,1009 42,1009 42,990" id="FOX_CHILLINTALES_T17_006_line_31">
            <metadata typography="" uri="" method="" area="" fillingPcent="" rank="" idBalloon="FOX_CHILLINTALES_T17_006_balloon_7" textType="speech">GO TO THE</metadata>
        </polygon>
        <polygon points="44,1016 156,1016 156,1034 44,1034 44,1016" id="FOX_CHILLINTALES_T17_006_line_32">
            <metadata typography="" uri="" method="" area="" fillingPcent="" rank="" idBalloon="FOX_CHILLINTALES_T17_006_balloon_7" textType="speech">GATES OF</metadata>
        </polygon>
        <polygon points="42,1042 175,1042 175,1065 42,1065 42,1042" id="FOX_CHILLINTALES_T17_006_line_33">
            <metadata typography="" uri="" method="" area="" fillingPcent="" rank="" idBalloon="FOX_CHILLINTALES_T17_006_balloon_7" textType="speech">HELL, AND A</metadata>
        </polygon>
        <polygon points="42,1067 203,1067 203,1090 42,1090 42,1067" id="FOX_CHILLINTALES_T17_006_line_34">
            <metadata typography="" uri="" method="" area="" fillingPcent="" rank="" idBalloon="FOX_CHILLINTALES_T17_006_balloon_7" textType="speech">STEPFARTHER,</metadata>
        </polygon>
        <polygon points="47,1093 160,1093 160,1111 47,1111 47,1093" id="FOX_CHILLINTALES_T17_006_line_35">
            <metadata typography="" uri="" method="" area="" fillingPcent="" rank="" idBalloon="FOX_CHILLINTALES_T17_006_balloon_7" textType="speech">FOR THAT</metadata>
        </polygon>
        <polygon points="45,1117 149,1117 149,1137 45,1137 45,1117" id="FOX_CHILLINTALES_T17_006_line_36">
            <metadata typography="" uri="" method="" area="" fillingPcent="" rank="" idBalloon="FOX_CHILLINTALES_T17_006_balloon_7" textType="speech">RECEIPT.</metadata>
        </polygon>
        <polygon points="219,936 387,936 387,1006 219,1006 219,936" id="FOX_CHILLINTALES_T17_006_line_37">
            <metadata typography="" uri="" method="" area="" fillingPcent="" rank="" idBalloon="FOX_CHILLINTALES_T17_006_balloon_8" textType="speech">HA HA HA</metadata>
        </polygon>
        <polygon points="225,1014 412,1014 412,1033 225,1033 225,1014" id="FOX_CHILLINTALES_T17_006_line_38">
            <metadata typography="" uri="" method="" area="" fillingPcent="" rank="" idBalloon="FOX_CHILLINTALES_T17_006_balloon_8" textType="speech">THEN COME WITH</metadata>
        </polygon>
        <polygon points="220,1041 365,1041 365,1064 220,1064 220,1041" id="FOX_CHILLINTALES_T17_006_line_39">
            <metadata typography="" uri="" method="" area="" fillingPcent="" rank="" idBalloon="FOX_CHILLINTALES_T17_006_balloon_8" textType="speech">ME, STEENIE</metadata>
        </polygon>
        <polygon points="242,1062 365,1062 365,1085 242,1085 242,1062" id="FOX_CHILLINTALES_T17_006_line_40">
            <metadata typography="" uri="" method="" area="" fillingPcent="" rank="" idBalloon="FOX_CHILLINTALES_T17_006_balloon_8" textType="speech">STEENSON!</metadata>
        </polygon>
        <polygon points="454,924 784,924 784,955 454,955 454,924" id="FOX_CHILLINTALES_T17_006_line_41">
            <metadata typography="" uri="" method="" area="" fillingPcent="" rank="" idBalloon="FOX_CHILLINTALES_T17_006_balloon_9" textType="narrative">AND SO STEENIE WENT WITH</metadata>
        </polygon>
        <polygon points="453,962 817,962 817,981 453,981 453,962" id="FOX_CHILLINTALES_T17_006_line_42">
            <metadata typography="" uri="" method="" area="" fillingPcent="" rank="" idBalloon="FOX_CHILLINTALES_T17_006_balloon_9" textType="narrative">THE MAN AND THEY SOON CAME</metadata>
        </polygon>
        <polygon points="455,987 832,987 832,1006 455,1006 455,987" id="FOX_CHILLINTALES_T17_006_line_43">
            <metadata typography="" uri="" method="" area="" fillingPcent="" rank="" idBalloon="FOX_CHILLINTALES_T17_006_balloon_9" textType="narrative">TO THE DOOR OF A GRIM CASTLE...</metadata>
        </polygon>
        <polygon points="471,1021 777,1021 777,1042 471,1042 471,1021" id="FOX_CHILLINTALES_T17_006_line_44">
            <metadata typography="" uri="" method="" area="" fillingPcent="" rank="" idBalloon="FOX_CHILLINTALES_T17_006_balloon_10" textType="thought">STRANGE... IF I DIDN'T KNOW</metadata>
        </polygon>
        <polygon points="457,1048 779,1048 779,1065 457,1065 457,1048" id="FOX_CHILLINTALES_T17_006_line_45">
            <metadata typography="" uri="" method="" area="" fillingPcent="" rank="" idBalloon="FOX_CHILLINTALES_T17_006_balloon_10" textType="thought">IT WAS A FULL TWELVE MILES</metadata>
        </polygon>
        <polygon points="467,1071 783,1071 783,1095 467,1095 467,1071" id="FOX_CHILLINTALES_T17_006_line_46">
            <metadata typography="" uri="" method="" area="" fillingPcent="" rank="" idBalloon="FOX_CHILLINTALES_T17_006_balloon_10" textType="thought">AWAY, I'D SWEAR IT WAS THE</metadata>
        </polygon>
        <polygon points="476,1098 829,1098 829,1116 476,1116 476,1098" id="FOX_CHILLINTALES_T17_006_line_47">
            <metadata typography="" uri="" method="" area="" fillingPcent="" rank="" idBalloon="FOX_CHILLINTALES_T17_006_balloon_10" textType="thought">OLD PORTICOES OF REDGAUNTLET</metadata>
        </polygon>
        <polygon points="468,1125 797,1125 797,1146 468,1146 468,1125" id="FOX_CHILLINTALES_T17_006_line_48">
            <metadata typography="" uri="" method="" area="" fillingPcent="" rank="" idBalloon="FOX_CHILLINTALES_T17_006_balloon_10" textType="thought">CASTLE... CAN I BE DREAMING?</metadata>
        </polygon>
        <polygon points="863,924 1186,924 1186,955 863,955 863,924" id="FOX_CHILLINTALES_T17_006_line_49">
            <metadata typography="" uri="" method="" area="" fillingPcent="" rank="" idBalloon="FOX_CHILLINTALES_T17_006_balloon_11" textType="narrative">THE DOOR OPENED AND THEY</metadata>
        </polygon>
        <polygon points="866,957 1210,957 1210,979 866,979 866,957" id="FOX_CHILLINTALES_T17_006_line_50">
            <metadata typography="" uri="" method="" area="" fillingPcent="" rank="" idBalloon="FOX_CHILLINTALES_T17_006_balloon_11" textType="narrative">WERE GREETED BY NONE OTHER</metadata>
        </polygon>
        <polygon points="867,986 1036,986 1036,1003 867,1003 867,986" id="FOX_CHILLINTALES_T17_006_line_51">
            <metadata typography="" uri="" method="" area="" fillingPcent="" rank="" idBalloon="FOX_CHILLINTALES_T17_006_balloon_11" textType="narrative">THAN DOUGAL...</metadata>
        </polygon>
        <polygon points="892,1021 975,1021 975,1039 892,1039 892,1021" id="FOX_CHILLINTALES_T17_006_line_52">
            <metadata typography="" uri="" method="" area="" fillingPcent="" rank="" idBalloon="FOX_CHILLINTALES_T17_006_balloon_12" textType="speech">DOUGAL</metadata>
        </polygon>
        <polygon points="872,1047 1008,1047 1008,1070 872,1070 872,1047" id="FOX_CHILLINTALES_T17_006_line_53">
            <metadata typography="" uri="" method="" area="" fillingPcent="" rank="" idBalloon="FOX_CHILLINTALES_T17_006_balloon_12" textType="speech">MAC CALLUM,</metadata>
        </polygon>
        <polygon points="870,1072 1024,1072 1024,1091 870,1091 870,1072" id="FOX_CHILLINTALES_T17_006_line_54">
            <metadata typography="" uri="" method="" area="" fillingPcent="" rank="" idBalloon="FOX_CHILLINTALES_T17_006_balloon_12" textType="speech">I THOUGHT YE</metadata>
        </polygon>
        <polygon points="893,1094 1001,1094 1001,1116 893,1116 893,1094" id="FOX_CHILLINTALES_T17_006_line_55">
            <metadata typography="" uri="" method="" area="" fillingPcent="" rank="" idBalloon="FOX_CHILLINTALES_T17_006_balloon_12" textType="speech">BE DEAD!</metadata>
        </polygon>
        <polygon points="1057,1017 1222,1017 1222,1037 1057,1037 1057,1017" id="FOX_CHILLINTALES_T17_006_line_56">
            <metadata typography="" uri="" method="" area="" fillingPcent="" rank="" idBalloon="FOX_CHILLINTALES_T17_006_balloon_13" textType="speech">FORGET ABOUT</metadata>
        </polygon>
        <polygon points="1052,1045 1215,1045 1215,1063 1052,1063 1052,1045" id="FOX_CHILLINTALES_T17_006_line_57">
            <metadata typography="" uri="" method="" area="" fillingPcent="" rank="" idBalloon="FOX_CHILLINTALES_T17_006_balloon_13" textType="speech">ME AND LISTEN</metadata>
        </polygon>
        <polygon points="1060,1070 1225,1070 1225,1089 1060,1089 1060,1070" id="FOX_CHILLINTALES_T17_006_line_58">
            <metadata typography="" uri="" method="" area="" fillingPcent="" rank="" idBalloon="FOX_CHILLINTALES_T17_006_balloon_13" textType="speech">WELL TO WHAT</metadata>
        </polygon>
        <polygon points="1065,1096 1191,1096 1191,1114 1065,1114 1065,1096" id="FOX_CHILLINTALES_T17_006_line_59">
            <metadata typography="" uri="" method="" area="" fillingPcent="" rank="" idBalloon="FOX_CHILLINTALES_T17_006_balloon_13" textType="speech">I HAVE TO</metadata>
        </polygon>
        <polygon points="1095,1123 1143,1123 1143,1142 1095,1142 1095,1123" id="FOX_CHILLINTALES_T17_006_line_60">
            <metadata typography="" uri="" method="" area="" fillingPcent="" rank="" idBalloon="FOX_CHILLINTALES_T17_006_balloon_13" textType="speech">SAY.</metadata>
        </polygon>
        <polygon points="1210,1741 1224,1741 1224,1757 1210,1757 1210,1741" id="FOX_CHILLINTALES_T17_006_line_61">
            <metadata method="" typography="" rank="" textType="speech">4</metadata>
        </polygon>
    </svg>
    <svg contentScriptType="text/ecmascript" zoomAndPan="magnify" contentStyleType="text/css" class="linkSBSC" preserveAspectRatio="xMidYMid meet" version="1.0">
    <polygon points="259,291 260,291 187,640 186,640 259,291" idCharacter="FOX_CHILLINTALES_T17_006_character_0" idBalloon="FOX_CHILLINTALES_T17_006_balloon_1"/>
    <polygon points="541,194 542,194 536,544 535,544 541,194" idCharacter="FOX_CHILLINTALES_T17_006_character_1" idBalloon="FOX_CHILLINTALES_T17_006_balloon_3"/>
    <polygon points="717,200 718,200 753,517 752,517 717,200" idCharacter="FOX_CHILLINTALES_T17_006_character_2" idBalloon="FOX_CHILLINTALES_T17_006_balloon_4"/>
    <polygon points="952,188 953,188 973,649 972,649 952,188" idCharacter="FOX_CHILLINTALES_T17_006_character_3" idBalloon="FOX_CHILLINTALES_T17_006_balloon_5"/>
    <polygon points="1121,213 1122,213 1138,603 1137,603 1121,213" idCharacter="FOX_CHILLINTALES_T17_006_character_4" idBalloon="FOX_CHILLINTALES_T17_006_balloon_6"/>
    <polygon points="306,1046 307,1046 310,1465 309,1465 306,1046" idCharacter="FOX_CHILLINTALES_T17_006_character_5" idBalloon="FOX_CHILLINTALES_T17_006_balloon_8"/>
    <polygon points="127,1058 128,1058 127,1468 126,1468 127,1058" idCharacter="FOX_CHILLINTALES_T17_006_character_6" idBalloon="FOX_CHILLINTALES_T17_006_balloon_7"/>
    <polygon points="646,1180 647,1180 657,1517 656,1517 646,1180" idCharacter="FOX_CHILLINTALES_T17_006_character_7" idBalloon="FOX_CHILLINTALES_T17_006_balloon_10"/>
    <polygon points="949,1116 950,1116 933,1505 932,1505 949,1116" idCharacter="FOX_CHILLINTALES_T17_006_character_9" idBalloon="FOX_CHILLINTALES_T17_006_balloon_12"/>
    <polygon points="1134,1153 1135,1153 1074,1552 1073,1552 1134,1153" idCharacter="FOX_CHILLINTALES_T17_006_character_10" idBalloon="FOX_CHILLINTALES_T17_006_balloon_13"/>
  </svg>
<metadata method="GroundTruth" lastModificationDate="Wed Apr 09 00:00:24 CEST 2014" lastStepModified="Page_Ended"/>
</svg>