<?xml version="1.0" encoding="UTF-8" standalone="no"?>
<svg xmlns:xlink="http://www.w3.org/1999/xlink" xmlns="http://www.w3.org/2000/svg" contentScriptType="text/ecmascript"
     width="1241mm" zoomAndPan="magnify" contentStyleType="text/css" height="1719mm" viewBox="0 0 2482 3438"
     preserveAspectRatio="xMidYMid meet" version="1.0">
    <title>FRED_PHILEMON9_011</title>
    <svg contentScriptType="text/ecmascript" zoomAndPan="magnify" contentStyleType="text/css" class="Page"
         preserveAspectRatio="xMidYMid meet" version="1.0">
        <image x="0" y="0" fill-opacity="0.5" width="2482" xlink:href="../Pages/FRED_PHILEMON9_011.jpg"
               xlink:type="simple" xlink:actuate="onLoad" height="3438" opacity="0.5"
               preserveAspectRatio="xMidYMid meet" xlink:show="embed"/>
        <metadata collectionTitle="Philémon" editorName="Dargaud" doublePage="false" website=""
                  albumTitle="L'Arche du A" drawerName="Fred" language="french" resolution="600" ISBN="978-2205055122"
                  readingDirection="leftToRight" writerName="Fred" releaseDate="2011" pageNumber="11"/>
    </svg>
    <style type="text/css" xml:space="preserve">
        * { stroke-width: 0; stroke-linejoin: round; }
        .Unclassified { fill: orange; stroke: none; opacity: 1.0; visibility: hidden; }
        .Noise { fill: pink; stroke: none; opacity: 0.2; visibility: hidden; }
        .Panel { fill: red; stroke: none; opacity: 0.3; visibility: visible; image-rendering: optimizeSpeed; }
        .Line { fill: green; stroke: none; opacity: 0.5; visibility: visible; image-rendering: optimizeSpeed; }
        .TextArea { fill: grey; stroke: none; opacity: 0.2; visibility: visible; image-rendering: optimizeSpeed; }
        .Balloon { fill: cyan; stroke: none; opacity: 0.5; visibility: visible; image-rendering: optimizeSpeed; }
        .Letter { fill: blue; stroke: none; opacity: 0.2; visibility: hidden; }
        .Character { fill: yellow; stroke: none; opacity: 0.3; visibility: visible; image-rendering: optimizeSpeed; }
        .Page { fill: white; stroke: none; opacity: 0.5; visibility: visible; }
        .linkSBSC { fill: blue; stroke: none; opacity: 0.5; visibility: visible; }
        polygon:hover { stroke:red;stroke-width:2; } 
    </style>
    <svg contentScriptType="text/ecmascript" zoomAndPan="magnify" contentStyleType="text/css" class="Panel"
         preserveAspectRatio="xMidYMid meet" version="1.0">
        <polygon points="39,346 788,345 790,1049 43,1048 39,346" id="FRED_PHILEMON9_011_panel_0">
            <metadata viewAngle="" shot="" rank="1"/>
        </polygon>
        <polygon points="1596,346 2352,347 2353,1049 1598,1050 1596,346" id="FRED_PHILEMON9_011_panel_1">
            <metadata viewAngle="" shot="" rank="3"/>
        </polygon>
        <polygon points="43,1071 792,1073 791,1774 43,1773 43,1071" id="FRED_PHILEMON9_011_panel_2">
            <metadata viewAngle="" shot="" rank="4"/>
        </polygon>
        <polygon points="1596,1075 2354,1076 2352,1778 1596,1778 1596,1075" id="FRED_PHILEMON9_011_panel_3">
            <metadata viewAngle="" shot="" rank="6"/>
        </polygon>
        <polygon points="39,1074 2351,1074 2351,3239 39,3239 39,1074" id="FRED_PHILEMON9_011_panel_4">
            <metadata viewAngle="" shot="" rank="5"/>
        </polygon>
        <polygon points="816,346 1566,349 1563,1048 819,1048 816,346" id="FRED_PHILEMON9_011_panel_5">
            <metadata viewAngle="" shot="" rank="2"/>
        </polygon>
    </svg>
    <svg contentScriptType="text/ecmascript" zoomAndPan="magnify" contentStyleType="text/css" class="TextArea"
         preserveAspectRatio="xMidYMid meet" version="1.0"/>
    <svg contentScriptType="text/ecmascript" zoomAndPan="magnify" contentStyleType="text/css" class="Balloon"
         preserveAspectRatio="xMidYMid meet" version="1.0">
        <polygon
                points="834,384 865,365 893,354 914,344 1435,346 1447,350 1470,366 1488,388 1499,415 1507,443 1504,471 1493,502 1469,526 1437,539 1380,550 1329,554 1279,560 1220,559 1176,559 1159,559 1151,583 1126,632 1128,604 1133,580 1135,560 1091,562 985,558 917,551 863,536 841,521 820,497 817,486 816,419 824,398 834,384"
                id="FRED_PHILEMON9_011_balloon_0">
            <metadata borderStyle="smooth" tailTip="1126,632" boundingBox="" tailDirection="S" rank="1"/>
        </polygon>
        <polygon
                points="1153,1305 1176,1300 1194,1306 1210,1316 1217,1327 1223,1339 1226,1359 1225,1377 1222,1389 1219,1401 1211,1414 1230,1433 1221,1434 1209,1429 1205,1426 1192,1436 1174,1446 1156,1446 1136,1439 1124,1427 1116,1415 1111,1400 1109,1377 1115,1355 1124,1335 1136,1317 1153,1305"
                id="FRED_PHILEMON9_011_balloon_1">
            <metadata borderStyle="smooth" tailTip="1230,1433" boundingBox="" tailDirection="SE" rank="2"/>
        </polygon>
        <polygon
                points="1374,1328 1388,1324 1403,1327 1422,1334 1434,1343 1439,1352 1438,1366 1435,1380 1432,1392 1419,1406 1401,1419 1381,1429 1368,1432 1356,1431 1348,1428 1318,1442 1329,1428 1337,1423 1312,1411 1309,1396 1311,1378 1323,1360 1334,1349 1374,1328"
                id="FRED_PHILEMON9_011_balloon_2">
            <metadata borderStyle="smooth" tailTip="1318,1442" boundingBox="" tailDirection="SW" rank="3"/>
        </polygon>
    </svg>
    <svg contentScriptType="text/ecmascript" zoomAndPan="magnify" contentStyleType="text/css" class="Character"
         preserveAspectRatio="xMidYMid meet" version="1.0">
        <polygon points="504,530 644,530 644,741 504,741 504,530" id="FRED_PHILEMON9_011_character_0">
            <metadata uri="" area="" fillingPcent=""/>
        </polygon>
        <polygon points="206,518 407,556 493,622 510,739 160,803 125,592 206,518" id="FRED_PHILEMON9_011_character_1">
            <metadata uri="" area="" fillingPcent=""/>
        </polygon>
        <polygon points="974,570 1320,570 1320,918 974,918 974,570" id="FRED_PHILEMON9_011_character_2">
            <metadata uri="" area="" fillingPcent=""/>
        </polygon>
        <polygon points="1274,554 1481,554 1481,1035 1274,1035 1274,554" id="FRED_PHILEMON9_011_character_3">
            <metadata uri="" area="" fillingPcent=""/>
        </polygon>
        <polygon points="1294,1441 1323,1441 1323,1528 1294,1528 1294,1441" id="FRED_PHILEMON9_011_character_4">
            <metadata uri="" area="" fillingPcent=""/>
        </polygon>
        <polygon points="1249,1426 1279,1426 1279,1464 1249,1464 1249,1426" id="FRED_PHILEMON9_011_character_5">
            <metadata uri="" area="" fillingPcent=""/>
        </polygon>
        <polygon points="1772,1424 1891,1424 1891,1588 1772,1588 1772,1424" id="FRED_PHILEMON9_011_character_6">
            <metadata uri="" area="" fillingPcent=""/>
        </polygon>
        <polygon points="1985,1457 2060,1457 2127,1777 1985,1777 1985,1457" id="FRED_PHILEMON9_011_character_7">
            <metadata uri="" area="" fillingPcent=""/>
        </polygon>
    </svg>
    <svg contentScriptType="text/ecmascript" zoomAndPan="magnify" contentStyleType="text/css" class="Line"
         preserveAspectRatio="xMidYMid meet" version="1.0">
        <polygon points="1811,355 2347,355 2347,521 1811,521 1811,355" id="FRED_PHILEMON9_011_line_0">
            <metadata method="" typography="" textType="onomatopoeia">Tschraac!</metadata>
        </polygon>
        <polygon points="39,1076 791,1076 791,1348 39,1348 39,1076" id="FRED_PHILEMON9_011_line_1">
            <metadata method="" typography="" textType="onomatopoeia">bbrrrro</metadata>
        </polygon>
        <polygon points="818,1085 1567,1085 1567,1259 818,1259 818,1085" id="FRED_PHILEMON9_011_line_2">
            <metadata method="" typography="" textType="onomatopoeia">ooouummmm</metadata>
        </polygon>
        <polygon points="1133,1308 1207,1308 1207,1427 1133,1427 1133,1308" id="FRED_PHILEMON9_011_line_3">
            <metadata method="" typography="" idBalloon="FRED_PHILEMON9_011_balloon_1" textType="speech">?</metadata>
        </polygon>
        <polygon points="1333,1335 1417,1335 1417,1414 1333,1414 1333,1335" id="FRED_PHILEMON9_011_line_4">
            <metadata method="" typography="" idBalloon="FRED_PHILEMON9_011_balloon_2" textType="speech">?</metadata>
        </polygon>
        <polygon points="1597,1093 2353,1093 2353,1167 1597,1167 1597,1093" id="FRED_PHILEMON9_011_line_5">
            <metadata method="" typography="" textType="onomatopoeia">mmmmmmmmmmmmmmm</metadata>
        </polygon>
        <polygon points="883,357 1436,357 1436,417 883,417 883,357" id="FRED_PHILEMON9_011_line_6">
            <metadata method="" typography="" idBalloon="FRED_PHILEMON9_011_balloon_0" textType="speech">Ne reste pas
                là,
            </metadata>
        </polygon>
        <polygon points="836,421 1471,421 1471,464 836,464 836,421" id="FRED_PHILEMON9_011_line_7">
            <metadata method="" typography="" idBalloon="FRED_PHILEMON9_011_balloon_0" textType="speech">Philémon!... Tu
                vas
            </metadata>
        </polygon>
        <polygon points="836,472 1475,472 1475,524 836,524 836,472" id="FRED_PHILEMON9_011_line_8">
            <metadata method="" typography="" idBalloon="FRED_PHILEMON9_011_balloon_0" textType="speech">être
                foudroyé!...
            </metadata>
        </polygon>
    </svg>
    <svg contentScriptType="text/ecmascript" zoomAndPan="magnify" contentStyleType="text/css" class="linkSBSC"
         preserveAspectRatio="xMidYMid meet" version="1.0">
        <polygon points="1161,488 1162,488 1148,744 1147,744 1161,488" idCharacter="FRED_PHILEMON9_011_character_2"
                 idBalloon="FRED_PHILEMON9_011_balloon_0"/>
        <polygon points="1169,1373 1170,1373 1265,1445 1264,1445 1169,1373" idCharacter="FRED_PHILEMON9_011_character_5"
                 idBalloon="FRED_PHILEMON9_011_balloon_1"/>
        <polygon points="1374,1383 1375,1383 1309,1484 1308,1484 1374,1383" idCharacter="FRED_PHILEMON9_011_character_4"
                 idBalloon="FRED_PHILEMON9_011_balloon_2"/>
    </svg>
    <metadata method="GroundTruth" lastModificationDate="Mon Feb 03 18:59:44 CET 2014" lastStepModified="Balloon_Rank"/>
</svg>