<?xml version="1.0" encoding="UTF-8" standalone="no"?>
<svg xmlns="http://www.w3.org/2000/svg" xmlns:xlink="http://www.w3.org/1999/xlink" contentScriptType="text/ecmascript" width="1240mm" zoomAndPan="magnify" contentStyleType="text/css" height="1754mm" viewBox="0 0 2480 3508" preserveAspectRatio="xMidYMid meet" version="1.0">
    <title>FRED_PHILEMON9_024</title>
    <svg contentScriptType="text/ecmascript" zoomAndPan="magnify" contentStyleType="text/css" class="Page" preserveAspectRatio="xMidYMid meet" version="1.0">
        <image x="0" y="0" fill-opacity="0.5" width="2480" xlink:href="../Pages/FRED_PHILEMON9_024.jpg" xlink:type="simple" xlink:actuate="onLoad" height="3508" opacity="0.5" preserveAspectRatio="xMidYMid meet" xlink:show="embed"/>
        <metadata collectionTitle="Philémon" editorName="Dargaud" doublePage="false" website="" albumTitle="L'Arche du A" drawerName="Fred" language="french" resolution="600" ISBN="978-2205055122" readingDirection="leftToRight" writerName="Fred" releaseDate="2011" pageNumber="24"/>
    </svg>
	<style type="text/css" xml:space="preserve">
        * { stroke-width: 0; stroke-linejoin: round; }
        .Unclassified { fill: orange; stroke: none; opacity: 1.0; visibility: hidden; }
        .Noise { fill: pink; stroke: none; opacity: 0.2; visibility: hidden; }
        .Panel { fill: red; stroke: none; opacity: 0.3; visibility: visible; image-rendering: optimizeSpeed; }
        .Line { fill: green; stroke: none; opacity: 0.5; visibility: visible; image-rendering: optimizeSpeed; }
        .TextArea { fill: grey; stroke: none; opacity: 0.2; visibility: visible; image-rendering: optimizeSpeed; }
        .Balloon { fill: cyan; stroke: none; opacity: 0.5; visibility: visible; image-rendering: optimizeSpeed; }
        .Letter { fill: blue; stroke: none; opacity: 0.2; visibility: hidden; }
        .Character { fill: yellow; stroke: none; opacity: 0.3; visibility: visible; image-rendering: optimizeSpeed; }
        .Page { fill: white; stroke: none; opacity: 0.5; visibility: visible; }
        .linkSBSC { fill: blue; stroke: none; opacity: 0.5; visibility: visible; }
        polygon:hover { stroke:red;stroke-width:2; } 
    </style><svg contentScriptType="text/ecmascript" zoomAndPan="magnify" contentStyleType="text/css" class="Panel" preserveAspectRatio="xMidYMid meet" version="1.0">
        <polygon points="112,393 1719,382 1728,1405 118,1413 112,393" id="FRED_PHILEMON9_024_panel_0">
            <metadata viewAngle="" shot="" rank="1"/>
        </polygon>
        <polygon points="1751,1398 2425,1392 2430,366 1744,379 1751,1398" id="FRED_PHILEMON9_024_panel_1">
            <metadata viewAngle="" shot="" rank="2"/>
        </polygon>
        <polygon points="894,1440 1640,1435 1645,2315 902,2319 894,1440" id="FRED_PHILEMON9_024_panel_2">
            <metadata viewAngle="" shot="" rank="4"/>
        </polygon>
        <polygon points="127,2337 975,2336 987,3286 127,3286 127,2337" id="FRED_PHILEMON9_024_panel_3">
            <metadata viewAngle="" shot="" rank="6"/>
        </polygon>
        <polygon points="996,2347 1644,2347 1652,3277 996,3281 996,2347" id="FRED_PHILEMON9_024_panel_4">
            <metadata viewAngle="" shot="" rank="7"/>
        </polygon>
        <polygon points="1674,2347 2431,2343 2435,3277 1687,3277 1674,2347" id="FRED_PHILEMON9_024_panel_5">
            <metadata viewAngle="" shot="" rank="8"/>
        </polygon>
        <polygon points="1665,1435 2424,1430 2430,2307 1673,2314 1665,1435" id="FRED_PHILEMON9_024_panel_6">
            <metadata viewAngle="" shot="" rank="5"/>
        </polygon>
        <polygon points="119,1444 862,1439 869,2320 125,2326 119,1444" id="FRED_PHILEMON9_024_panel_7">
            <metadata viewAngle="" shot="" rank="3"/>
        </polygon>
    </svg>
    <svg contentScriptType="text/ecmascript" zoomAndPan="magnify" contentStyleType="text/css" class="TextArea" preserveAspectRatio="xMidYMid meet" version="1.0"/>
    <svg contentScriptType="text/ecmascript" zoomAndPan="magnify" contentStyleType="text/css" class="Balloon" preserveAspectRatio="xMidYMid meet" version="1.0">
        <polygon points="1850,2545 1893,2528 1925,2532 1958,2561 1971,2611 1964,2655 1938,2687 1939,2708 1957,2748 1939,2739 1921,2703 1889,2709 1852,2701 1821,2671 1809,2616 1825,2577 1850,2545" id="FRED_PHILEMON9_024_balloon_0">
            <metadata borderStyle="smooth" tailTip="1957,2748" boundingBox="" tailDirection="SE" rank="1"/>
        </polygon>
    </svg>
    <svg contentScriptType="text/ecmascript" zoomAndPan="magnify" contentStyleType="text/css" class="Character" preserveAspectRatio="xMidYMid meet" version="1.0">
        <polygon points="1982,540 2403,540 2403,882 1982,882 1982,540" id="FRED_PHILEMON9_024_character_0">
            <metadata uri="" area="" fillingPcent=""/>
        </polygon>
        <polygon points="2025,379 2265,379 2265,623 2025,623 2025,379" id="FRED_PHILEMON9_024_character_1">
            <metadata uri="" area="" fillingPcent=""/>
        </polygon>
        <polygon points="519,471 798,465 936,1076 246,1185 239,790 588,757 519,471" id="FRED_PHILEMON9_024_character_2">
            <metadata uri="" area="" fillingPcent=""/>
        </polygon>
        <polygon points="387,590 305,715 486,1001 709,764 538,537 387,590" id="FRED_PHILEMON9_024_character_3">
            <metadata uri="" area="" fillingPcent=""/>
        </polygon>
        <polygon points="144,1481 650,1481 650,2247 144,2247 144,1481" id="FRED_PHILEMON9_024_character_4">
            <metadata uri="" area="" fillingPcent=""/>
        </polygon>
        <polygon points="1045,1514 1564,1514 1564,2168 1045,2168 1045,1514" id="FRED_PHILEMON9_024_character_5">
            <metadata uri="" area="" fillingPcent=""/>
        </polygon>
        <polygon points="410,2352 966,2352 966,2786 410,2786 410,2352" id="FRED_PHILEMON9_024_character_6">
            <metadata uri="" area="" fillingPcent=""/>
        </polygon>
        <polygon points="1143,2342 1633,2342 1633,3118 1143,3118 1143,2342" id="FRED_PHILEMON9_024_character_7">
            <metadata uri="" area="" fillingPcent=""/>
        </polygon>
        <polygon points="1955,2641 2409,2641 2409,3020 1955,3020 1955,2641" id="FRED_PHILEMON9_024_character_8">
            <metadata uri="" area="" fillingPcent=""/>
        </polygon>
    </svg>
    <svg contentScriptType="text/ecmascript" zoomAndPan="magnify" contentStyleType="text/css" class="Line" preserveAspectRatio="xMidYMid meet" version="1.0">
        <polygon points="115,2164 540,2164 540,2299 115,2299 115,2164" id="FRED_PHILEMON9_024_line_0">
            <metadata method="" typography="" textType="onomatopoeia">BOUM!</metadata>
        </polygon>
        <polygon points="1844,2552 1918,2548 1921,2672 1844,2679 1844,2552" id="FRED_PHILEMON9_024_line_1">
            <metadata method="" typography="" idBalloon="FRED_PHILEMON9_024_balloon_0" textType="speech">?</metadata>
        </polygon>
    </svg>
    <svg contentScriptType="text/ecmascript" zoomAndPan="magnify" contentStyleType="text/css" class="linkSBSC" preserveAspectRatio="xMidYMid meet" version="1.0">
    <polygon points="1890,2638 1891,2638 2183,2830 2182,2830 1890,2638" idCharacter="FRED_PHILEMON9_024_character_8" idBalloon="FRED_PHILEMON9_024_balloon_0"/>
  </svg>
<metadata method="GroundTruth" lastModificationDate="Sat Jan 25 20:48:59 CET 2014" lastStepModified="Balloon_Rank"/>
</svg>