<?xml version="1.0" encoding="UTF-8" standalone="no"?>
<svg xmlns="http://www.w3.org/2000/svg" xmlns:xlink="http://www.w3.org/1999/xlink" contentScriptType="text/ecmascript" width="350mm" zoomAndPan="magnify" contentStyleType="text/css" height="495mm" viewBox="0 0 700 990" preserveAspectRatio="xMidYMid meet" version="1.0">
    <title>INOUE_KYOUMEN_008</title>
    <svg contentScriptType="text/ecmascript" zoomAndPan="magnify" contentStyleType="text/css" class="Page" preserveAspectRatio="xMidYMid meet" version="1.0">
        <image x="0" y="0" fill-opacity="0.5" width="700" xlink:href="../Pages/INOUE_KYOUMEN_008.jpg" xlink:type="simple" xlink:actuate="onLoad" height="990" opacity="0.5" preserveAspectRatio="xMidYMid meet" xlink:show="embed"/>
        <metadata ISBN="" doublePage="false" albumTitle="Kyoumen gensoukyoku" uri="" releaseDate="2008" collectionTitle="" readingDirection="rightToLeft" drawerName="Eri Inoue" pageNumber="8" language="japanese" writerName="Eri Inoue" editorName=""/>
    </svg>
	<style type="text/css" xml:space="preserve">
        * { stroke-width: 0; stroke-linejoin: round; }
        .Unclassified { fill: orange; stroke: none; opacity: 1.0; visibility: hidden; }
        .Noise { fill: pink; stroke: none; opacity: 0.2; visibility: hidden; }
        .Panel { fill: red; stroke: none; opacity: 0.3; visibility: visible; image-rendering: optimizeSpeed; }
        .Line { fill: green; stroke: none; opacity: 0.5; visibility: visible; image-rendering: optimizeSpeed; }
        .TextArea { fill: grey; stroke: none; opacity: 0.2; visibility: visible; image-rendering: optimizeSpeed; }
        .Balloon { fill: cyan; stroke: none; opacity: 0.5; visibility: visible; image-rendering: optimizeSpeed; }
        .Letter { fill: blue; stroke: none; opacity: 0.2; visibility: hidden; }
        .Character { fill: yellow; stroke: none; opacity: 0.3; visibility: visible; image-rendering: optimizeSpeed; }
        .Page { fill: white; stroke: none; opacity: 0.5; visibility: visible; }
        .linkSBSC { fill: blue; stroke: none; opacity: 0.5; visibility: visible; }
        polygon:hover { stroke:red;stroke-width:2; } 
    </style><svg contentScriptType="text/ecmascript" zoomAndPan="magnify" contentStyleType="text/css" class="Panel" preserveAspectRatio="xMidYMid meet" version="1.0">
        <polygon points="438,62 643,62 643,396 438,396 438,62" id="INOUE_KYOUMEN_008_panel_0">
            <metadata viewAngle="" uri="" shot="" area="" rank="1" fillingPcent=""/>
        </polygon>
        <polygon points="24,19 412,19 412,394 24,394 24,19" id="INOUE_KYOUMEN_008_panel_1">
            <metadata viewAngle="" uri="" shot="" area="" rank="2" fillingPcent=""/>
        </polygon>
        <polygon points="20,431 398,431 398,645 20,643 20,431" id="INOUE_KYOUMEN_008_panel_2">
            <metadata viewAngle="" uri="" shot="" area="" rank="4" fillingPcent=""/>
        </polygon>
        <polygon points="20,659 424,659 424,965 20,965 20,659" id="INOUE_KYOUMEN_008_panel_3">
            <metadata viewAngle="" uri="" shot="" area="" rank="5" fillingPcent=""/>
        </polygon>
        <polygon points="359,414 689,414 689,964 359,964 359,414" id="INOUE_KYOUMEN_008_panel_4">
            <metadata viewAngle="" uri="" shot="" area="" rank="3" fillingPcent=""/>
        </polygon>
    </svg>
    <svg contentScriptType="text/ecmascript" zoomAndPan="magnify" contentStyleType="text/css" class="TextArea" preserveAspectRatio="xMidYMid meet" version="1.0"/>
    <svg contentScriptType="text/ecmascript" zoomAndPan="magnify" contentStyleType="text/css" class="Balloon" preserveAspectRatio="xMidYMid meet" version="1.0">
        <polygon points="298,163 301,136 310,112 324,90 340,78 359,75 368,76 385,86 395,98 404,116 409,136 411,151 411,195 406,213 395,237 383,251 366,260 345,260 323,245 312,229 303,208 298,181 298,163" id="INOUE_KYOUMEN_008_balloon_0">
            <metadata borderStyle="smooth" tailTip="" boundingBox="" tailDirection="none" rank="1"/>
        </polygon>
        <polygon points="84,271 182,272 180,397 83,396 84,271" id="INOUE_KYOUMEN_008_balloon_1">
            <metadata borderStyle="smooth" tailTip="" boundingBox="" tailDirection="none" rank="2"/>
        </polygon>
        <polygon points="527,427 626,426 624,543 526,543 527,427" id="INOUE_KYOUMEN_008_balloon_2">
            <metadata borderStyle="smooth" tailTip="" boundingBox="" tailDirection="none" rank="3"/>
        </polygon>
        <polygon points="432,771 547,772 545,910 430,909 432,771 432,771" id="INOUE_KYOUMEN_008_balloon_3">
            <metadata borderStyle="smooth" tailTip="" boundingBox="" tailDirection="none" rank="4"/>
        </polygon>
        <polygon points="276,444 374,445 374,556 275,556 276,444" id="INOUE_KYOUMEN_008_balloon_4">
            <metadata borderStyle="smooth" tailTip="" boundingBox="" tailDirection="none" rank="5"/>
        </polygon>
        <polygon points="83,625 198,624 197,743 82,744 83,625" id="INOUE_KYOUMEN_008_balloon_5">
            <metadata borderStyle="smooth" tailTip="" boundingBox="" tailDirection="none" rank="6"/>
        </polygon>
    </svg>
    <svg contentScriptType="text/ecmascript" zoomAndPan="magnify" contentStyleType="text/css" class="Character" preserveAspectRatio="xMidYMid meet" version="1.0">
        <polygon points="501,85 615,85 615,392 501,392 501,85" id="INOUE_KYOUMEN_008_character_0">
            <metadata uri="" area="" fillingPcent=""/>
        </polygon>
        <polygon points="438,66 520,66 520,398 438,398 438,66" id="INOUE_KYOUMEN_008_character_1">
            <metadata uri="" area="" fillingPcent=""/>
        </polygon>
        <polygon points="633,717 672,717 672,815 633,815 633,717" id="INOUE_KYOUMEN_008_character_2">
            <metadata uri="" area="" fillingPcent=""/>
        </polygon>
        <polygon points="556,705 590,705 590,833 556,833 556,705" id="INOUE_KYOUMEN_008_character_3">
            <metadata uri="" area="" fillingPcent=""/>
        </polygon>
        <polygon points="504,743 593,743 593,968 504,968 504,743" id="INOUE_KYOUMEN_008_character_4">
            <metadata uri="" area="" fillingPcent=""/>
        </polygon>
        <polygon points="432,743 530,743 530,969 432,969 432,743" id="INOUE_KYOUMEN_008_character_5">
            <metadata uri="" area="" fillingPcent=""/>
        </polygon>
        <polygon points="162,661 417,661 417,970 162,970 162,661" id="INOUE_KYOUMEN_008_character_6">
            <metadata uri="" area="" fillingPcent=""/>
        </polygon>
        <polygon points="142,452 277,452 277,645 142,645 142,452" id="INOUE_KYOUMEN_008_character_7">
            <metadata uri="" area="" fillingPcent=""/>
        </polygon>
    </svg>
    <svg contentScriptType="text/ecmascript" zoomAndPan="magnify" contentStyleType="text/css" class="Line" preserveAspectRatio="xMidYMid meet" version="1.0">
        <polygon points="346,133 364,133 364,197 346,197 346,133" id="INOUE_KYOUMEN_008_line_0">
            <metadata typography="" uri="" method="" area="" fillingPcent="" rank="" idBalloon="INOUE_KYOUMEN_008_balloon_0" textType="speech">璃々依？</metadata>
        </polygon>
        <polygon points="141,289 152,289 152,346 141,346 141,289" id="INOUE_KYOUMEN_008_line_1">
            <metadata typography="" uri="" method="" area="" fillingPcent="" rank="" idBalloon="INOUE_KYOUMEN_008_balloon_1" textType="narrative">次の日から</metadata>
        </polygon>
        <polygon points="126,290 138,290 138,356 126,356 126,290" id="INOUE_KYOUMEN_008_line_2">
            <metadata typography="" uri="" method="" area="" fillingPcent="" rank="" idBalloon="INOUE_KYOUMEN_008_balloon_1" textType="narrative">璃々依という</metadata>
        </polygon>
        <polygon points="112,290 124,290 124,378 112,378 112,290" id="INOUE_KYOUMEN_008_line_3">
            <metadata typography="" uri="" method="" area="" fillingPcent="" rank="" idBalloon="INOUE_KYOUMEN_008_balloon_1" textType="narrative">存在が消えていた</metadata>
        </polygon>
        <polygon points="584,433 595,433 595,501 584,501 584,433" id="INOUE_KYOUMEN_008_line_4">
            <metadata typography="" uri="" method="" area="" fillingPcent="" rank="" idBalloon="INOUE_KYOUMEN_008_balloon_2" textType="narrative">聞いても誰も</metadata>
        </polygon>
        <polygon points="571,433 580,433 580,500 571,500 571,433" id="INOUE_KYOUMEN_008_line_5">
            <metadata typography="" uri="" method="" area="" fillingPcent="" rank="" idBalloon="INOUE_KYOUMEN_008_balloon_2" textType="narrative">覚えておらず</metadata>
        </polygon>
        <polygon points="556,433 566,433 566,534 556,534 556,433" id="INOUE_KYOUMEN_008_line_6">
            <metadata typography="" uri="" method="" area="" fillingPcent="" rank="" idBalloon="INOUE_KYOUMEN_008_balloon_2" textType="narrative">私だけが覚えていた</metadata>
        </polygon>
        <polygon points="346,458 356,458 356,524 346,524 346,458" id="INOUE_KYOUMEN_008_line_7">
            <metadata typography="" uri="" method="" area="" fillingPcent="" rank="" idBalloon="INOUE_KYOUMEN_008_balloon_4" textType="narrative">私はというと</metadata>
        </polygon>
        <polygon points="331,457 342,457 342,514 331,514 331,457" id="INOUE_KYOUMEN_008_line_8">
            <metadata typography="" uri="" method="" area="" fillingPcent="" rank="" idBalloon="INOUE_KYOUMEN_008_balloon_4" textType="narrative">あの日以来</metadata>
        </polygon>
        <polygon points="317,458 326,458 326,534 317,534 317,458" id="INOUE_KYOUMEN_008_line_9">
            <metadata typography="" uri="" method="" area="" fillingPcent="" rank="" idBalloon="INOUE_KYOUMEN_008_balloon_4" textType="narrative">前よりも自分に</metadata>
        </polygon>
        <polygon points="303,458 311,458 311,524 303,524 303,458" id="INOUE_KYOUMEN_008_line_10">
            <metadata typography="" uri="" method="" area="" fillingPcent="" rank="" idBalloon="INOUE_KYOUMEN_008_balloon_4" textType="narrative">自信を持てる</metadata>
        </polygon>
        <polygon points="288,458 296,458 296,513 288,513 288,458" id="INOUE_KYOUMEN_008_line_11">
            <metadata typography="" uri="" method="" area="" fillingPcent="" rank="" idBalloon="INOUE_KYOUMEN_008_balloon_4" textType="narrative">ようになり</metadata>
        </polygon>
        <polygon points="158,629 168,629 168,725 158,726 158,629" id="INOUE_KYOUMEN_008_line_12">
            <metadata typography="" uri="" method="" area="" fillingPcent="" rank="" idBalloon="INOUE_KYOUMEN_008_balloon_5" textType="narrative">自分を好きになって</metadata>
        </polygon>
        <polygon points="144,630 153,630 153,674 144,674 144,630" id="INOUE_KYOUMEN_008_line_13">
            <metadata typography="" uri="" method="" area="" fillingPcent="" rank="" idBalloon="INOUE_KYOUMEN_008_balloon_5" textType="narrative">以前より</metadata>
        </polygon>
        <polygon points="129,628 139,628 139,694 129,694 129,628" id="INOUE_KYOUMEN_008_line_14">
            <metadata typography="" uri="" method="" area="" fillingPcent="" rank="" idBalloon="INOUE_KYOUMEN_008_balloon_5" textType="narrative">毎日を楽しく</metadata>
        </polygon>
        <polygon points="115,629 124,629 124,737 115,737 115,629" id="INOUE_KYOUMEN_008_line_15">
            <metadata typography="" uri="" method="" area="" fillingPcent="" rank="" idBalloon="INOUE_KYOUMEN_008_balloon_5" textType="narrative">過ごせるようになった</metadata>
        </polygon>
        <polygon points="503,786 514,786 514,887 503,887 503,786" id="INOUE_KYOUMEN_008_line_16">
            <metadata typography="" uri="" method="" area="" fillingPcent="" rank="" idBalloon="INOUE_KYOUMEN_008_balloon_3" textType="narrative">後で聞いた話だけど</metadata>
        </polygon>
        <polygon points="488,787 499,787 499,887 488,887 488,787" id="INOUE_KYOUMEN_008_line_17">
            <metadata typography="" uri="" method="" area="" fillingPcent="" rank="" idBalloon="INOUE_KYOUMEN_008_balloon_3" textType="narrative">璃々依と緯野くんは</metadata>
        </polygon>
        <polygon points="474,787 485,787 485,840 474,840 474,787" id="INOUE_KYOUMEN_008_line_18">
            <metadata typography="" uri="" method="" area="" fillingPcent="" rank="" idBalloon="INOUE_KYOUMEN_008_balloon_3" textType="narrative">付き合って</metadata>
        </polygon>
        <polygon points="460,786 471,786 471,861 460,861 460,786" id="INOUE_KYOUMEN_008_line_19">
            <metadata typography="" uri="" method="" area="" fillingPcent="" rank="" idBalloon="INOUE_KYOUMEN_008_balloon_3" textType="speech">なかったみたい</metadata>
        </polygon>
    </svg>
    <svg contentScriptType="text/ecmascript" zoomAndPan="magnify" contentStyleType="text/css" class="linkSBSC" preserveAspectRatio="xMidYMid meet" version="1.0"/>
<metadata method="GroundTruth" lastModificationDate="Fri Feb 14 17:02:39 CET 2014" lastStepModified="Balloon_Rank"/>
</svg>