<?xml version="1.0" encoding="UTF-8" standalone="no"?>
<svg xmlns:xlink="http://www.w3.org/1999/xlink" xmlns="http://www.w3.org/2000/svg" contentScriptType="text/ecmascript"
     width="350mm" zoomAndPan="magnify" contentStyleType="text/css" height="495mm" viewBox="0 0 700 990"
     preserveAspectRatio="xMidYMid meet" version="1.0">
    <title>INOUE_KYOUMEN_002</title>
    <svg contentScriptType="text/ecmascript" zoomAndPan="magnify" contentStyleType="text/css" class="Page"
         preserveAspectRatio="xMidYMid meet" version="1.0">
        <image x="0" y="0" fill-opacity="0.5" width="700" xlink:href="../Pages/INOUE_KYOUMEN_002.jpg"
               xlink:type="simple" xlink:actuate="onLoad" height="990" opacity="0.5" preserveAspectRatio="xMidYMid meet"
               xlink:show="embed"/>
        <metadata ISBN="" doublePage="false" albumTitle="Kyoumen gensoukyoku" uri="" releaseDate="2008"
                  collectionTitle="" readingDirection="rightToLeft" drawerName="Eri Inoue" pageNumber="2"
                  language="japanese" writerName="Eri Inoue" editorName=""/>
    </svg>
    <style type="text/css" xml:space="preserve">
        * { stroke-width: 0; stroke-linejoin: round; }
        .Unclassified { fill: orange; stroke: none; opacity: 1.0; visibility: hidden; }
        .Noise { fill: pink; stroke: none; opacity: 0.2; visibility: hidden; }
        .Panel { fill: red; stroke: none; opacity: 0.3; visibility: visible; image-rendering: optimizeSpeed; }
        .Line { fill: green; stroke: none; opacity: 0.5; visibility: visible; image-rendering: optimizeSpeed; }
        .TextArea { fill: grey; stroke: none; opacity: 0.2; visibility: visible; image-rendering: optimizeSpeed; }
        .Balloon { fill: cyan; stroke: none; opacity: 0.5; visibility: visible; image-rendering: optimizeSpeed; }
        .Letter { fill: blue; stroke: none; opacity: 0.2; visibility: hidden; }
        .Character { fill: yellow; stroke: none; opacity: 0.3; visibility: visible; image-rendering: optimizeSpeed; }
        .Page { fill: white; stroke: none; opacity: 0.5; visibility: visible; }
        .linkSBSC { fill: blue; stroke: none; opacity: 0.5; visibility: visible; }
        polygon:hover { stroke:red;stroke-width:2; } 
    </style>
    <svg contentScriptType="text/ecmascript" zoomAndPan="magnify" contentStyleType="text/css" class="Panel"
         preserveAspectRatio="xMidYMid meet" version="1.0">
        <polygon points="20,19 299,19 299,276 20,276 20,19" id="INOUE_KYOUMEN_002_panel_0">
            <metadata viewAngle="" uri="" shot="" area="" rank="2" fillingPcent=""/>
        </polygon>
        <polygon points="380,23 690,23 690,268 380,268 380,23" id="INOUE_KYOUMEN_002_panel_1">
            <metadata viewAngle="" uri="" shot="" area="" rank="1" fillingPcent=""/>
        </polygon>
        <polygon points="391,261 691,261 691,965 391,965 391,261" id="INOUE_KYOUMEN_002_panel_2">
            <metadata viewAngle="" uri="" shot="" area="" rank="3" fillingPcent=""/>
        </polygon>
        <polygon points="66,787 389,787 389,920 66,920 66,787" id="INOUE_KYOUMEN_002_panel_3">
            <metadata viewAngle="" uri="" shot="" area="" rank="6" fillingPcent=""/>
        </polygon>
        <polygon points="65,287 348,287 348,418 65,418 65,287" id="INOUE_KYOUMEN_002_panel_4">
            <metadata viewAngle="" uri="" shot="" area="" rank="4" fillingPcent=""/>
        </polygon>
        <polygon points="17,415 373,415 373,784 17,784 17,415" id="INOUE_KYOUMEN_002_panel_5">
            <metadata viewAngle="" uri="" shot="" area="" rank="5" fillingPcent=""/>
        </polygon>
    </svg>
    <svg contentScriptType="text/ecmascript" zoomAndPan="magnify" contentStyleType="text/css" class="TextArea"
         preserveAspectRatio="xMidYMid meet" version="1.0"/>
    <svg contentScriptType="text/ecmascript" zoomAndPan="magnify" contentStyleType="text/css" class="Balloon"
         preserveAspectRatio="xMidYMid meet" version="1.0">
        <polygon
                points="404,49 426,61 443,82 446,107 443,138 429,163 407,175 384,174 368,158 359,125 363,94 371,73 383,58 404,49"
                id="INOUE_KYOUMEN_002_balloon_0">
            <metadata borderStyle="smooth" tailTip="" boundingBox="" tailDirection="none" rank="1"/>
        </polygon>
        <polygon
                points="219,127 238,132 255,143 267,167 271,198 267,229 258,252 244,262 231,268 213,265 193,253 180,231 175,210 176,186 181,169 192,148 219,127"
                id="INOUE_KYOUMEN_002_balloon_1">
            <metadata borderStyle="smooth" tailTip="" boundingBox="" tailDirection="none" rank="2"/>
        </polygon>
        <polygon points="540,779 623,777 624,899 541,900 540,779" id="INOUE_KYOUMEN_002_balloon_2">
            <metadata borderStyle="smooth" tailTip="" boundingBox="" tailDirection="none" rank="3"/>
        </polygon>
        <polygon
                points="357,286 388,292 410,316 420,341 424,359 424,385 416,408 403,433 387,443 366,449 344,442 326,434 313,421 301,386 300,351 307,327 319,306 333,296 357,286"
                id="INOUE_KYOUMEN_002_balloon_3">
            <metadata borderStyle="smooth" tailTip="" boundingBox="" tailDirection="none" rank="4"/>
        </polygon>
        <polygon points="252,667 336,667 335,782 252,782 252,667" id="INOUE_KYOUMEN_002_balloon_4">
            <metadata borderStyle="smooth" tailTip="" boundingBox="" tailDirection="none" rank="5"/>
        </polygon>
        <polygon id="INOUE_KYOUMEN_002_balloon_5"
                 points="331,784 346,783 363,788 375,803 384,823 387,851 388,874 385,899 369,923 355,934 340,936 315,925 301,909 292,885 286,863 287,843 291,825 297,807 307,796 318,788 331,784">
            <metadata borderStyle="smooth" tailTip="" boundingBox="" tailDirection="none" rank="6"/>
        </polygon>
        <polygon
                points="111,792 122,792 131,794 145,803 157,819 165,840 166,861 164,879 163,895 157,909 151,918 138,926 118,929 107,928 90,919 76,891 73,868 72,846 78,825 86,811 100,797 111,792"
                id="INOUE_KYOUMEN_002_balloon_6">
            <metadata borderStyle="smooth" tailTip="" boundingBox="" tailDirection="none" rank="7"/>
        </polygon>
    </svg>
    <svg contentScriptType="text/ecmascript" zoomAndPan="magnify" contentStyleType="text/css" class="Character"
         preserveAspectRatio="xMidYMid meet" version="1.0">
        <polygon points="136,87 203,87 203,271 136,271 136,87" id="INOUE_KYOUMEN_002_character_0">
            <metadata uri="" area="" fillingPcent=""/>
        </polygon>
        <polygon points="20,97 82,97 82,245 20,245 20,97" id="INOUE_KYOUMEN_002_character_1">
            <metadata uri="" area="" fillingPcent=""/>
        </polygon>
        <polygon points="125,298 239,298 239,422 125,422 125,298" id="INOUE_KYOUMEN_002_character_2">
            <metadata uri="" area="" fillingPcent=""/>
        </polygon>
        <polygon points="279,312 340,312 340,417 279,417 279,312" id="INOUE_KYOUMEN_002_character_3">
            <metadata uri="" area="" fillingPcent=""/>
        </polygon>
        <polygon points="410,276 695,276 695,965 410,965 410,276" id="INOUE_KYOUMEN_002_character_4">
            <metadata uri="" area="" fillingPcent=""/>
        </polygon>
        <polygon points="-1,415 376,415 376,789 -1,789 -1,415" id="INOUE_KYOUMEN_002_character_5">
            <metadata uri="" area="" fillingPcent=""/>
        </polygon>
        <polygon points="143,813 218,813 218,920 143,920 143,813" id="INOUE_KYOUMEN_002_character_6">
            <metadata uri="" area="" fillingPcent=""/>
        </polygon>
        <polygon points="240,828 312,828 312,918 240,918 240,828" id="INOUE_KYOUMEN_002_character_7">
            <metadata uri="" area="" fillingPcent=""/>
        </polygon>
    </svg>
    <svg contentScriptType="text/ecmascript" zoomAndPan="magnify" contentStyleType="text/css" class="Line"
         preserveAspectRatio="xMidYMid meet" version="1.0">
        <polygon points="214,169 227,169 227,219 214,219 214,169" id="INOUE_KYOUMEN_002_line_0">
            <metadata typography="" uri="" method="" area="" fillingPcent="" rank=""
                      idBalloon="INOUE_KYOUMEN_002_balloon_1" textType="speech">﻿待って！
            </metadata>
        </polygon>
        <polygon points="226,169 241,169 241,193 226,193 226,169" id="INOUE_KYOUMEN_002_line_1">
            <metadata typography="" uri="" method="" area="" fillingPcent="" rank=""
                      idBalloon="INOUE_KYOUMEN_002_balloon_1" textType="speech">ねえ
            </metadata>
        </polygon>
        <polygon points="395,86 409,86 409,137 395,137 395,86" id="INOUE_KYOUMEN_002_line_2">
            <metadata typography="" uri="" method="" area="" fillingPcent="" rank=""
                      idBalloon="INOUE_KYOUMEN_002_balloon_0" textType="speech">璃々依！
            </metadata>
        </polygon>
        <polygon points="294,52 380,52 380,249 294,249 294,52" id="INOUE_KYOUMEN_002_line_3">
            <metadata typography="" uri="" method="" area="" fillingPcent="" rank=""
                      idBalloon="INOUE_KYOUMEN_002_balloon_0" textType="onomatopoeia">バタバタ
            </metadata>
        </polygon>
        <polygon points="354,315 371,315 371,419 354,419 354,315" id="INOUE_KYOUMEN_002_line_4">
            <metadata typography="" uri="" method="" area="" fillingPcent="" rank=""
                      idBalloon="INOUE_KYOUMEN_002_balloon_3" textType="speech">璃々依ってば！
            </metadata>
        </polygon>
        <polygon points="298,685 317,685 317,752 298,752 298,685" id="INOUE_KYOUMEN_002_line_5">
            <metadata typography="" uri="" method="" area="" fillingPcent="" rank=""
                      idBalloon="INOUE_KYOUMEN_002_balloon_4" textType="narrative">牧耶璃々依
            </metadata>
        </polygon>
        <polygon points="275,737 287,737 287,759 275,759 275,737" id="INOUE_KYOUMEN_002_line_6">
            <metadata typography="" uri="" method="" area="" fillingPcent="" rank=""
                      idBalloon="INOUE_KYOUMEN_002_balloon_4" textType="narrative">͡１６
            </metadata>
        </polygon>
        <polygon points="588,804 608,804 608,870 588,870 588,804" id="INOUE_KYOUMEN_002_line_7">
            <metadata typography="" uri="" method="" area="" fillingPcent="" rank=""
                      idBalloon="INOUE_KYOUMEN_002_balloon_2" textType="narrative">牧耶楼々依
            </metadata>
        </polygon>
        <polygon points="563,848 578,848 578,871 563,871 563,848" id="INOUE_KYOUMEN_002_line_8">
            <metadata typography="" uri="" method="" area="" fillingPcent="" rank=""
                      idBalloon="INOUE_KYOUMEN_002_balloon_2" textType="narrative">͡１６
            </metadata>
        </polygon>
        <polygon points="347,799 359,799 359,881 347,881 347,799" id="INOUE_KYOUMEN_002_line_9">
            <metadata typography="" uri="" method="" area="" fillingPcent="" rank=""
                      idBalloon="INOUE_KYOUMEN_002_balloon_5" textType="speech">一緒に帰ろうって
            </metadata>
        </polygon>
        <polygon points="336,796 345,796 345,859 336,859 336,796" id="INOUE_KYOUMEN_002_line_10">
            <metadata typography="" uri="" method="" area="" fillingPcent="" rank=""
                      idBalloon="INOUE_KYOUMEN_002_balloon_5" textType="speech">言ってるのに
            </metadata>
        </polygon>
        <polygon points="324,796 335,796 335,913 324,913 324,796" id="INOUE_KYOUMEN_002_line_11">
            <metadata typography="" uri="" method="" area="" fillingPcent="" rank=""
                      idBalloon="INOUE_KYOUMEN_002_balloon_5" textType="speech">何で先に行っちゃうの？
            </metadata>
        </polygon>
        <polygon points="104,821 113,821 113,888 104,888 104,821" id="INOUE_KYOUMEN_002_line_12">
            <metadata typography="" uri="" method="" area="" fillingPcent="" rank=""
                      idBalloon="INOUE_KYOUMEN_002_balloon_6" textType="speech">遅いんだもん
            </metadata>
        </polygon>
        <polygon points="115,822 124,822 124,877 115,877 115,822" id="INOUE_KYOUMEN_002_line_13">
            <metadata typography="" uri="" method="" area="" fillingPcent="" rank=""
                      idBalloon="INOUE_KYOUMEN_002_balloon_6" textType="speech">支度するの
            </metadata>
        </polygon>
        <polygon points="127,822 134,822 134,885 127,885 127,822" id="INOUE_KYOUMEN_002_line_14">
            <metadata typography="" uri="" method="" area="" fillingPcent="" rank=""
                      idBalloon="INOUE_KYOUMEN_002_balloon_6" textType="speech">だってアンタ
            </metadata>
        </polygon>
    </svg>
    <svg contentScriptType="text/ecmascript" zoomAndPan="magnify" contentStyleType="text/css" class="linkSBSC"
         preserveAspectRatio="xMidYMid meet" version="1.0">
        <polygon points="223,197 224,197 170,179 169,179 223,197" idCharacter="INOUE_KYOUMEN_002_character_0"
                 idBalloon="INOUE_KYOUMEN_002_balloon_1"/>
        <polygon points="337,859 338,859 553,620 552,620 337,859" idCharacter="INOUE_KYOUMEN_002_character_4"
                 idBalloon="INOUE_KYOUMEN_002_balloon_5"/>
        <polygon points="119,860 120,860 277,873 276,873 119,860" idCharacter="INOUE_KYOUMEN_002_character_7"
                 idBalloon="INOUE_KYOUMEN_002_balloon_6"/>
        <polygon points="362,367 363,367 188,602 187,602 362,367" idCharacter="INOUE_KYOUMEN_002_character_5"
                 idBalloon="INOUE_KYOUMEN_002_balloon_3"/>
    </svg>
    <metadata method="GroundTruth" lastModificationDate="Mon Feb 10 16:30:12 CET 2014" lastStepModified="Balloon_Rank"/>
</svg>