<?xml version="1.0" encoding="UTF-8" standalone="no"?>
<svg xmlns:xlink="http://www.w3.org/1999/xlink" xmlns="http://www.w3.org/2000/svg" contentScriptType="text/ecmascript"
     width="350mm" zoomAndPan="magnify" contentStyleType="text/css" height="495mm" viewBox="0 0 700 990"
     preserveAspectRatio="xMidYMid meet" version="1.0">
    <title>INOUE_KYOUMEN_013</title>
    <svg contentScriptType="text/ecmascript" zoomAndPan="magnify" contentStyleType="text/css" class="Page"
         preserveAspectRatio="xMidYMid meet" version="1.0">
        <image x="0" y="0" fill-opacity="0.5" width="700" xlink:href="../Pages/INOUE_KYOUMEN_013.jpg"
               xlink:type="simple" xlink:actuate="onLoad" height="990" opacity="0.5" preserveAspectRatio="xMidYMid meet"
               xlink:show="embed"/>
        <metadata ISBN="" doublePage="false" albumTitle="Kyoumen gensoukyoku" uri="" releaseDate="2008"
                  collectionTitle="" readingDirection="rightToLeft" drawerName="Eri Inoue" pageNumber="13"
                  language="japanese" writerName="Eri Inoue" editorName=""/>
    </svg>
    <style type="text/css" xml:space="preserve">
        * { stroke-width: 0; stroke-linejoin: round; }
        .Unclassified { fill: orange; stroke: none; opacity: 1.0; visibility: hidden; }
        .Noise { fill: pink; stroke: none; opacity: 0.2; visibility: hidden; }
        .Panel { fill: red; stroke: none; opacity: 0.3; visibility: visible; image-rendering: optimizeSpeed; }
        .Line { fill: green; stroke: none; opacity: 0.5; visibility: visible; image-rendering: optimizeSpeed; }
        .TextArea { fill: grey; stroke: none; opacity: 0.2; visibility: visible; image-rendering: optimizeSpeed; }
        .Balloon { fill: cyan; stroke: none; opacity: 0.5; visibility: visible; image-rendering: optimizeSpeed; }
        .Letter { fill: blue; stroke: none; opacity: 0.2; visibility: hidden; }
        .Character { fill: yellow; stroke: none; opacity: 0.3; visibility: visible; image-rendering: optimizeSpeed; }
        .Page { fill: white; stroke: none; opacity: 0.5; visibility: visible; }
        .linkSBSC { fill: blue; stroke: none; opacity: 0.5; visibility: visible; }
        polygon:hover { stroke:red;stroke-width:2; } 
    </style>
    <svg contentScriptType="text/ecmascript" zoomAndPan="magnify" contentStyleType="text/css" class="Panel"
         preserveAspectRatio="xMidYMid meet" version="1.0">
        <polygon points="10,18 643,18 639,361 10,365 10,18" id="INOUE_KYOUMEN_013_panel_0">
            <metadata viewAngle="" uri="" shot="" area="" rank="1" fillingPcent=""/>
        </polygon>
        <polygon points="13,365 687,366 686,543 11,541 13,365" id="INOUE_KYOUMEN_013_panel_1">
            <metadata viewAngle="" uri="" shot="" area="" rank="2" fillingPcent=""/>
        </polygon>
        <polygon points="110,583 326,583 326,965 110,965 110,583" id="INOUE_KYOUMEN_013_panel_2">
            <metadata viewAngle="" uri="" shot="" area="" rank="4" fillingPcent=""/>
        </polygon>
        <polygon points="434,558 637,558 637,922 434,922 434,558" id="INOUE_KYOUMEN_013_panel_3">
            <metadata viewAngle="" uri="" shot="" area="" rank="3" fillingPcent=""/>
        </polygon>
    </svg>
    <svg contentScriptType="text/ecmascript" zoomAndPan="magnify" contentStyleType="text/css" class="TextArea"
         preserveAspectRatio="xMidYMid meet" version="1.0"/>
    <svg contentScriptType="text/ecmascript" zoomAndPan="magnify" contentStyleType="text/css" class="Balloon"
         preserveAspectRatio="xMidYMid meet" version="1.0">
        <polygon
                points="570,72 574,66 577,63 642,64 640,145 637,152 629,160 617,164 603,163 588,157 574,146 565,128 562,109 562,92 570,72"
                id="INOUE_KYOUMEN_013_balloon_0">
            <metadata borderStyle="smooth" tailTip="" boundingBox="" tailDirection="none" rank="1"/>
        </polygon>
        <polygon
                points="553,212 565,195 577,190 587,195 602,214 606,254 599,279 587,289 574,288 557,277 546,243 553,212"
                id="INOUE_KYOUMEN_013_balloon_1">
            <metadata borderStyle="smooth" tailTip="" boundingBox="" tailDirection="none" rank="2"/>
        </polygon>
        <polygon
                points="366,222 375,214 389,207 401,204 412,206 423,211 431,216 437,223 444,232 447,240 449,248 450,256 452,262 452,268 452,270 455,258 462,247 471,238 481,235 490,237 500,244 506,254 510,265 513,278 514,293 511,322 505,339 492,353 479,355 464,353 456,345 452,334 448,345 442,359 428,371 413,378 394,377 379,370 362,353 350,327 347,294 349,268 357,241 366,222"
                id="INOUE_KYOUMEN_013_balloon_2">
            <metadata borderStyle="smooth" tailTip="" boundingBox="" tailDirection="none" rank="3"/>
        </polygon>
        <polygon
                points="435,786 443,773 461,764 478,765 494,768 509,782 521,802 525,820 527,843 525,871 523,892 517,907 506,918 498,924 431,921 431,789 435,786"
                id="INOUE_KYOUMEN_013_balloon_3">
            <metadata borderStyle="smooth" tailTip="" boundingBox="" tailDirection="none" rank="4"/>
        </polygon>
        <polygon
                points="329,571 354,550 377,541 399,541 413,554 426,572 431,586 436,605 434,638 421,667 410,684 399,696 380,701 357,694 338,674 323,637 321,595 329,571"
                id="INOUE_KYOUMEN_013_balloon_4">
            <metadata borderStyle="smooth" tailTip="" boundingBox="" tailDirection="none" rank="5"/>
        </polygon>
        <polygon
                points="49,800 60,784 74,770 89,764 102,761 111,761 125,771 143,788 154,808 162,832 163,858 159,884 151,912 131,933 114,939 91,939 67,923 49,898 40,876 36,845 42,819 49,800 49,800"
                id="INOUE_KYOUMEN_013_balloon_5">
            <metadata borderStyle="smooth" tailTip="" boundingBox="" tailDirection="none" rank="6"/>
        </polygon>
    </svg>
    <svg contentScriptType="text/ecmascript" zoomAndPan="magnify" contentStyleType="text/css" class="Character"
         preserveAspectRatio="xMidYMid meet" version="1.0">
        <polygon points="9,19 471,19 471,364 9,364 9,19" id="INOUE_KYOUMEN_013_character_0">
            <metadata uri="" area="" fillingPcent=""/>
        </polygon>
        <polygon points="391,370 637,370 637,544 391,544 391,370" id="INOUE_KYOUMEN_013_character_1">
            <metadata uri="" area="" fillingPcent=""/>
        </polygon>
        <polygon points="116,580 331,580 331,965 116,965 116,580" id="INOUE_KYOUMEN_013_character_2">
            <metadata uri="" area="" fillingPcent=""/>
        </polygon>
        <polygon points="458,615 580,615 580,899 458,899 458,615" id="INOUE_KYOUMEN_013_character_3">
            <metadata uri="" area="" fillingPcent=""/>
        </polygon>
        <polygon points="528,693 636,693 636,926 528,926 528,693" id="INOUE_KYOUMEN_013_character_4">
            <metadata uri="" area="" fillingPcent=""/>
        </polygon>
    </svg>
    <svg contentScriptType="text/ecmascript" zoomAndPan="magnify" contentStyleType="text/css" class="Line"
         preserveAspectRatio="xMidYMid meet" version="1.0">
        <polygon points="602,97 613,97 614,121 602,121 602,97" id="INOUE_KYOUMEN_013_line_0">
            <metadata typography="" uri="" method="" area="" fillingPcent="" rank=""
                      idBalloon="INOUE_KYOUMEN_013_balloon_0" textType="speech">今の
            </metadata>
        </polygon>
        <polygon points="588,98 598,98 598,131 588,131 588,98" id="INOUE_KYOUMEN_013_line_1">
            <metadata typography="" uri="" method="" area="" fillingPcent="" rank=""
                      idBalloon="INOUE_KYOUMEN_013_balloon_0" textType="speech">本当？
            </metadata>
        </polygon>
        <polygon points="314,208 345,208 345,314 314,314 314,208" id="INOUE_KYOUMEN_013_line_2">
            <metadata typography="" uri="" method="" area="" fillingPcent="" rank="" textType="onomatopoeia">カアア
            </metadata>
        </polygon>
        <polygon points="384,252 399,252 399,304 384,304 384,252" id="INOUE_KYOUMEN_013_line_3">
            <metadata typography="" uri="" method="" area="" fillingPcent="" rank=""
                      idBalloon="INOUE_KYOUMEN_013_balloon_2" textType="speech">嬉しい
            </metadata>
        </polygon>
        <polygon points="403,253 420,253 420,316 403,316 403,253" id="INOUE_KYOUMEN_013_line_4">
            <metadata typography="" uri="" method="" area="" fillingPcent="" rank=""
                      idBalloon="INOUE_KYOUMEN_013_balloon_2" textType="speech">すつげ一
            </metadata>
        </polygon>
        <polygon points="468,268 477,268 477,324 468,324 468,268" id="INOUE_KYOUMEN_013_line_5">
            <metadata typography="" uri="" method="" area="" fillingPcent="" rank=""
                      idBalloon="INOUE_KYOUMEN_013_balloon_2" textType="speech">どうしょう
            </metadata>
        </polygon>
        <polygon points="481,269 492,269 492,291 481,290 481,269" id="INOUE_KYOUMEN_013_line_6">
            <metadata typography="" uri="" method="" area="" fillingPcent="" rank=""
                      idBalloon="INOUE_KYOUMEN_013_balloon_2" textType="speech">あ一
            </metadata>
        </polygon>
        <polygon points="569,218 581,218 581,260 569,260 569,218" id="INOUE_KYOUMEN_013_line_7">
            <metadata typography="" uri="" method="" area="" fillingPcent="" rank=""
                      idBalloon="INOUE_KYOUMEN_013_balloon_1" textType="speech">・・・う、ん
            </metadata>
        </polygon>
        <polygon points="187,415 200,415 200,459 187,459 187,415" id="INOUE_KYOUMEN_013_line_8">
            <metadata typography="" uri="" method="" area="" fillingPcent="" rank="" textType="onomatopoeia">え一？
            </metadata>
        </polygon>
        <polygon points="353,568 367,568 367,649 353,650 353,568" id="INOUE_KYOUMEN_013_line_9">
            <metadata typography="" uri="" method="" area="" fillingPcent="" rank=""
                      idBalloon="INOUE_KYOUMEN_013_balloon_4" textType="speech">好きだったんだ
            </metadata>
        </polygon>
        <polygon points="370,567 382,567 382,628 370,628 370,567" id="INOUE_KYOUMEN_013_line_10">
            <metadata typography="" uri="" method="" area="" fillingPcent="" rank=""
                      idBalloon="INOUE_KYOUMEN_013_balloon_4" textType="speech">牧耶のこと
            </metadata>
        </polygon>
        <polygon points="388,567 400,567 400,663 387,663 388,567" id="INOUE_KYOUMEN_013_line_11">
            <metadata typography="" uri="" method="" area="" fillingPcent="" rank=""
                      idBalloon="INOUE_KYOUMEN_013_balloon_4" textType="speech">俺もずっと前から
            </metadata>
        </polygon>
        <polygon points="608,566 618,566 618,653 608,653 608,566" id="INOUE_KYOUMEN_013_line_12">
            <metadata typography="" uri="" method="" area="" fillingPcent="" rank="" textType="onomatopoeia">どういう意味一？
            </metadata>
        </polygon>
        <polygon points="487,786 498,786 498,854 487,854 487,786" id="INOUE_KYOUMEN_013_line_13">
            <metadata typography="" uri="" method="" area="" fillingPcent="" rank=""
                      idBalloon="INOUE_KYOUMEN_013_balloon_3" textType="speech">本当は俺から
            </metadata>
        </polygon>
        <polygon points="472,788 482,788 482,883 472,883 472,788" id="INOUE_KYOUMEN_013_line_14">
            <metadata typography="" uri="" method="" area="" fillingPcent="" rank=""
                      idBalloon="INOUE_KYOUMEN_013_balloon_3" textType="speech">言おうと思ってたん
            </metadata>
        </polygon>
        <polygon points="457,788 467,788 467,835 457,835 457,788" id="INOUE_KYOUMEN_013_line_15">
            <metadata typography="" uri="" method="" area="" fillingPcent="" rank=""
                      idBalloon="INOUE_KYOUMEN_013_balloon_3" textType="speech">だけど・・・
            </metadata>
        </polygon>
        <polygon points="121,798 133,798 133,836 121,836 121,798" id="INOUE_KYOUMEN_013_line_16">
            <metadata typography="" uri="" method="" area="" fillingPcent="" rank=""
                      idBalloon="INOUE_KYOUMEN_013_balloon_5" textType="speech">だから
            </metadata>
        </polygon>
        <polygon points="104,799 115,799 115,882 104,882 104,799" id="INOUE_KYOUMEN_013_line_17">
            <metadata typography="" uri="" method="" area="" fillingPcent="" rank=""
                      idBalloon="INOUE_KYOUMEN_013_balloon_5" textType="speech">俺と付き合って
            </metadata>
        </polygon>
        <polygon points="89,799 100,799 100,872 89,872 89,799" id="INOUE_KYOUMEN_013_line_18">
            <metadata typography="" uri="" method="" area="" fillingPcent="" rank=""
                      idBalloon="INOUE_KYOUMEN_013_balloon_5" textType="speech">くれないか？
            </metadata>
        </polygon>
        <polygon points="580,621 609,621 609,682 580,682 580,621" id="INOUE_KYOUMEN_013_line_19">
            <metadata typography="" uri="" method="" area="" fillingPcent="" rank="" textType="speech">がしがし</metadata>
        </polygon>
    </svg>
    <svg contentScriptType="text/ecmascript" zoomAndPan="magnify" contentStyleType="text/css" class="linkSBSC"
         preserveAspectRatio="xMidYMid meet" version="1.0">
        <polygon points="430,291 431,291 241,191 240,191 430,291" idCharacter="INOUE_KYOUMEN_013_character_0"
                 idBalloon="INOUE_KYOUMEN_013_balloon_2"/>
        <polygon points="378,621 379,621 515,457 514,457 378,621" idCharacter="INOUE_KYOUMEN_013_character_1"
                 idBalloon="INOUE_KYOUMEN_013_balloon_4"/>
        <polygon points="99,850 100,850 224,772 223,772 99,850" idCharacter="INOUE_KYOUMEN_013_character_2"
                 idBalloon="INOUE_KYOUMEN_013_balloon_5"/>
        <polygon points="479,844 480,844 520,757 519,757 479,844" idCharacter="INOUE_KYOUMEN_013_character_3"
                 idBalloon="INOUE_KYOUMEN_013_balloon_3"/>
    </svg>
    <metadata method="GroundTruth" lastModificationDate="Sun Feb 09 18:33:12 CET 2014" lastStepModified="Balloon_Rank"/>
</svg>