<?xml version="1.0" encoding="UTF-8" standalone="no"?>
<svg xmlns:xlink="http://www.w3.org/1999/xlink" xmlns="http://www.w3.org/2000/svg" contentScriptType="text/ecmascript"
     width="350mm" zoomAndPan="magnify" contentStyleType="text/css" height="495mm" viewBox="0 0 700 990"
     preserveAspectRatio="xMidYMid meet" version="1.0">
    <title>INOUE_KYOUMEN_016</title>
    <svg contentScriptType="text/ecmascript" zoomAndPan="magnify" contentStyleType="text/css" class="Page"
         preserveAspectRatio="xMidYMid meet" version="1.0">
        <image x="0" y="0" fill-opacity="0.5" width="700" xlink:href="../Pages/INOUE_KYOUMEN_016.jpg"
               xlink:type="simple" xlink:actuate="onLoad" height="990" opacity="0.5" preserveAspectRatio="xMidYMid meet"
               xlink:show="embed"/>
        <metadata ISBN="" doublePage="false" albumTitle="Kyoumen gensoukyoku" uri="" releaseDate="2008"
                  collectionTitle="" readingDirection="rightToLeft" drawerName="Eri Inoue" pageNumber="16"
                  language="japanese" writerName="Eri Inoue" editorName=""/>
    </svg>
    <style type="text/css" xml:space="preserve">
        * { stroke-width: 0; stroke-linejoin: round; }
        .Unclassified { fill: orange; stroke: none; opacity: 1.0; visibility: hidden; }
        .Noise { fill: pink; stroke: none; opacity: 0.2; visibility: hidden; }
        .Panel { fill: red; stroke: none; opacity: 0.3; visibility: visible; image-rendering: optimizeSpeed; }
        .Line { fill: green; stroke: none; opacity: 0.5; visibility: visible; image-rendering: optimizeSpeed; }
        .TextArea { fill: grey; stroke: none; opacity: 0.2; visibility: visible; image-rendering: optimizeSpeed; }
        .Balloon { fill: cyan; stroke: none; opacity: 0.5; visibility: visible; image-rendering: optimizeSpeed; }
        .Letter { fill: blue; stroke: none; opacity: 0.2; visibility: hidden; }
        .Character { fill: yellow; stroke: none; opacity: 0.3; visibility: visible; image-rendering: optimizeSpeed; }
        .Page { fill: white; stroke: none; opacity: 0.5; visibility: visible; }
        .linkSBSC { fill: blue; stroke: none; opacity: 0.5; visibility: visible; }
        polygon:hover { stroke:red;stroke-width:2; } 
    </style>
    <svg contentScriptType="text/ecmascript" zoomAndPan="magnify" contentStyleType="text/css" class="Panel"
         preserveAspectRatio="xMidYMid meet" version="1.0">
        <polygon points="21,22 327,22 327,232 21,232 21,22" id="INOUE_KYOUMEN_016_panel_0">
            <metadata viewAngle="" uri="" shot="" area="" rank="2" fillingPcent=""/>
        </polygon>
        <polygon points="18,228 231,228 231,433 18,433 18,228" id="INOUE_KYOUMEN_016_panel_1">
            <metadata viewAngle="" uri="" shot="" area="" rank="3" fillingPcent=""/>
        </polygon>
        <polygon points="231,20 690,20 690,433 231,433 231,20" id="INOUE_KYOUMEN_016_panel_2">
            <metadata viewAngle="" uri="" shot="" area="" rank="1" fillingPcent=""/>
        </polygon>
        <polygon points="20,447 375,447 375,627 20,624 20,447" id="INOUE_KYOUMEN_016_panel_3">
            <metadata viewAngle="" uri="" shot="" area="" rank="5" fillingPcent=""/>
        </polygon>
        <polygon points="20,623 373,623 373,754 20,754 20,623" id="INOUE_KYOUMEN_016_panel_4">
            <metadata viewAngle="" uri="" shot="" area="" rank="6" fillingPcent=""/>
        </polygon>
        <polygon points="19,752 375,752 375,964 19,964 19,752" id="INOUE_KYOUMEN_016_panel_5">
            <metadata viewAngle="" uri="" shot="" area="" rank="7" fillingPcent=""/>
        </polygon>
        <polygon points="371,428 645,428 645,963 371,963 371,428" id="INOUE_KYOUMEN_016_panel_6">
            <metadata viewAngle="" uri="" shot="" area="" rank="4" fillingPcent=""/>
        </polygon>
    </svg>
    <svg contentScriptType="text/ecmascript" zoomAndPan="magnify" contentStyleType="text/css" class="TextArea"
         preserveAspectRatio="xMidYMid meet" version="1.0"/>
    <svg contentScriptType="text/ecmascript" zoomAndPan="magnify" contentStyleType="text/css" class="Balloon"
         preserveAspectRatio="xMidYMid meet" version="1.0">
        <polygon
                points="581,96 591,97 602,104 612,117 617,130 621,143 623,161 620,174 617,192 610,203 600,213 589,219 576,221 563,215 555,209 541,189 536,165 536,143 541,126 547,115 556,106 567,100 581,96"
                id="INOUE_KYOUMEN_016_balloon_0">
            <metadata borderStyle="smooth" tailTip="" boundingBox="" tailDirection="none" rank="1"/>
        </polygon>
        <polygon
                points="89,66 100,66 114,69 124,79 132,92 137,107 138,123 139,155 133,181 124,198 111,208 105,210 84,210 70,200 55,185 48,167 46,145 47,124 50,109 56,95 62,81 68,72 75,69 89,66"
                id="INOUE_KYOUMEN_016_balloon_1">
            <metadata borderStyle="smooth" tailTip="" boundingBox="" tailDirection="none" rank="2"/>
        </polygon>
        <polygon
                points="518,261 533,261 541,265 549,272 556,281 561,289 566,299 570,314 572,326 574,338 574,349 571,362 568,376 564,386 556,399 550,406 542,411 531,415 517,414 505,407 494,400 484,389 478,375 474,358 473,347 473,324 476,307 481,294 490,282 497,271 508,264 518,261"
                id="INOUE_KYOUMEN_016_balloon_2">
            <metadata borderStyle="smooth" tailTip="" boundingBox="" tailDirection="none" rank="3"/>
        </polygon>
        <polygon
                points="280,235 293,238 300,243 306,250 310,256 316,267 319,277 322,288 324,299 323,309 323,317 322,327 320,338 317,344 313,351 310,357 303,361 296,366 292,368 280,368 269,364 258,357 252,350 243,337 239,323 238,315 237,295 239,282 245,267 252,254 260,244 269,239 280,235"
                id="INOUE_KYOUMEN_016_balloon_3">
            <metadata borderStyle="smooth" tailTip="" boundingBox="" tailDirection="none" rank="4"/>
        </polygon>
        <polygon
                points="100,312 107,313 114,314 121,319 127,324 133,331 138,341 141,351 144,359 144,368 144,380 142,395 140,404 137,413 134,420 131,425 126,430 120,436 113,438 108,439 96,439 84,433 73,425 66,415 60,405 57,394 56,378 59,364 62,352 69,339 76,329 80,323 86,318 93,313 100,312"
                id="INOUE_KYOUMEN_016_balloon_4">
            <metadata borderStyle="smooth" tailTip="" boundingBox="" tailDirection="none" rank="5"/>
        </polygon>
        <polygon
                points="330,454 339,455 347,460 355,467 359,474 365,486 369,499 370,511 370,519 370,529 367,540 363,550 361,558 358,566 354,570 351,575 347,579 345,577 344,576 342,580 336,583 325,585 317,583 306,578 301,573 293,564 289,552 286,540 284,529 283,510 288,496 295,482 303,472 316,459 330,454"
                id="INOUE_KYOUMEN_016_balloon_5">
            <metadata borderStyle="smooth" tailTip="" boundingBox="" tailDirection="none" rank="6"/>
        </polygon>
        <polygon
                points="114,493 118,492 124,493 130,495 136,498 142,504 148,512 155,523 158,533 158,540 159,546 159,558 156,569 154,583 149,592 144,606 137,617 133,614 132,616 133,618 131,621 125,624 119,626 105,626 92,619 77,607 69,591 65,575 66,555 72,536 76,523 82,514 91,504 98,498 106,495 114,493"
                id="INOUE_KYOUMEN_016_balloon_6">
            <metadata borderStyle="smooth" tailTip="" boundingBox="" tailDirection="none" rank="7"/>
        </polygon>
        <polygon
                points="296,799 302,798 308,798 316,801 325,808 333,816 341,828 347,843 349,856 349,873 347,879 345,892 342,904 337,913 332,920 319,927 307,931 287,931 269,919 259,904 255,892 251,879 250,865 251,852 255,836 264,821 273,810 278,805 289,800 296,799"
                id="INOUE_KYOUMEN_016_balloon_7">
            <metadata borderStyle="smooth" tailTip="" boundingBox="" tailDirection="none" rank="8"/>
        </polygon>
    </svg>
    <svg contentScriptType="text/ecmascript" zoomAndPan="magnify" contentStyleType="text/css" class="Character"
         preserveAspectRatio="xMidYMid meet" version="1.0">
        <polygon points="209,119 228,119 228,180 209,180 209,119" id="INOUE_KYOUMEN_016_character_0">
            <metadata uri="" area="" fillingPcent=""/>
        </polygon>
        <polygon points="310,44 501,44 501,432 310,432 310,44" id="INOUE_KYOUMEN_016_character_1">
            <metadata uri="" area="" fillingPcent=""/>
        </polygon>
        <polygon points="155,267 178,267 178,357 155,357 155,267" id="INOUE_KYOUMEN_016_character_2">
            <metadata uri="" area="" fillingPcent=""/>
        </polygon>
        <polygon points="142,256 154,256 154,357 142,357 142,256" id="INOUE_KYOUMEN_016_character_3">
            <metadata uri="" area="" fillingPcent=""/>
        </polygon>
        <polygon points="199,503 238,503 238,612 199,612 199,503" id="INOUE_KYOUMEN_016_character_4">
            <metadata uri="" area="" fillingPcent=""/>
        </polygon>
        <polygon points="158,487 185,487 185,616 158,616 158,487" id="INOUE_KYOUMEN_016_character_5">
            <metadata uri="" area="" fillingPcent=""/>
        </polygon>
        <polygon points="202,628 324,628 324,754 202,754 202,628" id="INOUE_KYOUMEN_016_character_6">
            <metadata uri="" area="" fillingPcent=""/>
        </polygon>
        <polygon points="46,777 217,777 217,975 46,975 46,777" id="INOUE_KYOUMEN_016_character_7">
            <metadata uri="" area="" fillingPcent=""/>
        </polygon>
        <polygon points="593,433 641,433 641,736 589,731 531,432 593,433 593,433" id="INOUE_KYOUMEN_016_character_8">
            <metadata uri="" area="" fillingPcent=""/>
        </polygon>
        <polygon points="378,507 497,507 497,965 378,965 378,507" id="INOUE_KYOUMEN_016_character_9">
            <metadata uri="" area="" fillingPcent=""/>
        </polygon>
        <polygon points="512,580 603,580 603,967 512,967 512,580" id="INOUE_KYOUMEN_016_character_10">
            <metadata uri="" area="" fillingPcent=""/>
        </polygon>
    </svg>
    <svg contentScriptType="text/ecmascript" zoomAndPan="magnify" contentStyleType="text/css" class="Line"
         preserveAspectRatio="xMidYMid meet" version="1.0">
        <polygon points="89,99 100,99 100,152 89,152 89,99" id="INOUE_KYOUMEN_016_line_0">
            <metadata typography="" uri="" method="" area="" fillingPcent="" rank=""
                      idBalloon="INOUE_KYOUMEN_016_balloon_1" textType="speech">のかな一？
            </metadata>
        </polygon>
        <polygon points="101,98 115,98 115,179 101,179 101,98" id="INOUE_KYOUMEN_016_line_1">
            <metadata typography="" uri="" method="" area="" fillingPcent="" rank=""
                      idBalloon="INOUE_KYOUMEN_016_balloon_1" textType="speech">先に帰ってちゃった
            </metadata>
        </polygon>
        <polygon points="573,119 585,119 585,188 573,188 573,119" id="INOUE_KYOUMEN_016_line_2">
            <metadata typography="" uri="" method="" area="" fillingPcent="" rank=""
                      idBalloon="INOUE_KYOUMEN_016_balloon_0" textType="speech">璃々依・・・？
            </metadata>
        </polygon>
        <polygon points="265,271 275,271 275,328 265,328 265,271" id="INOUE_KYOUMEN_016_line_3">
            <metadata typography="" uri="" method="" area="" fillingPcent="" rank=""
                      idBalloon="INOUE_KYOUMEN_016_balloon_3" textType="speech">と誰かいる
            </metadata>
        </polygon>
        <polygon points="280,271 285,271 285,300 280,300 280,271" id="INOUE_KYOUMEN_016_line_4">
            <metadata typography="" uri="" method="" area="" fillingPcent="" rank=""
                      idBalloon="INOUE_KYOUMEN_016_balloon_3" textType="speech">・・・・・
            </metadata>
        </polygon>
        <polygon points="286,271 299,271 299,322 286,322 286,271" id="INOUE_KYOUMEN_016_line_5">
            <metadata typography="" uri="" method="" area="" fillingPcent="" rank=""
                      idBalloon="INOUE_KYOUMEN_016_balloon_3" textType="speech">あ、璃々依
            </metadata>
        </polygon>
        <polygon points="510,290 521,290 521,353 510,352 510,290" id="INOUE_KYOUMEN_016_line_6">
            <metadata typography="" uri="" method="" area="" fillingPcent="" rank=""
                      idBalloon="INOUE_KYOUMEN_016_balloon_2" textType="speech">んだろう？
            </metadata>
        </polygon>
        <polygon points="526,291 536,291 536,380 526,380 526,291" id="INOUE_KYOUMEN_016_line_7">
            <metadata typography="" uri="" method="" area="" fillingPcent="" rank=""
                      idBalloon="INOUE_KYOUMEN_016_balloon_2" textType="speech">どこ行っちゃった
            </metadata>
        </polygon>
        <polygon points="104,339 115,339 115,410 104,410 104,339" id="INOUE_KYOUMEN_016_line_8">
            <metadata typography="" uri="" method="" area="" fillingPcent="" rank=""
                      idBalloon="INOUE_KYOUMEN_016_balloon_4" textType="speech">誰だろう・・・？
            </metadata>
        </polygon>
        <polygon points="324,485 335,485 335,543 324,543 324,485" id="INOUE_KYOUMEN_016_line_9">
            <metadata typography="" uri="" method="" area="" fillingPcent="" rank=""
                      idBalloon="INOUE_KYOUMEN_016_balloon_5" textType="speech">どうして！？
            </metadata>
        </polygon>
        <polygon points="124,524 134,524 134,568 124,568 124,524" id="INOUE_KYOUMEN_016_line_10">
            <metadata typography="" uri="" method="" area="" fillingPcent="" rank=""
                      idBalloon="INOUE_KYOUMEN_016_balloon_6" textType="speech">どうして
            </metadata>
        </polygon>
        <polygon points="111,526 122,526 122,588 111,588 111,526" id="INOUE_KYOUMEN_016_line_11">
            <metadata typography="" uri="" method="" area="" fillingPcent="" rank=""
                      idBalloon="INOUE_KYOUMEN_016_balloon_6" textType="speech">２人が一緒に
            </metadata>
        </polygon>
        <polygon points="98,524 107,524 107,567 98,567 98,524" id="INOUE_KYOUMEN_016_line_12">
            <metadata typography="" uri="" method="" area="" fillingPcent="" rank=""
                      idBalloon="INOUE_KYOUMEN_016_balloon_6" textType="speech">いるの！？
            </metadata>
        </polygon>
        <polygon points="533,694 546,694 546,796 533,796 533,694" id="INOUE_KYOUMEN_016_line_13">
            <metadata typography="" uri="" method="" area="" fillingPcent="" rank="" textType="onomatopoeia">緯野くん一一！？
            </metadata>
        </polygon>
        <polygon points="302,826 314,826 314,853 302,853 302,826" id="INOUE_KYOUMEN_016_line_14">
            <metadata typography="" uri="" method="" area="" fillingPcent="" rank=""
                      idBalloon="INOUE_KYOUMEN_016_balloon_7" textType="speech">何だ
            </metadata>
        </polygon>
        <polygon points="290,827 300,827 300,893 290,893 290,827" id="INOUE_KYOUMEN_016_line_15">
            <metadata typography="" uri="" method="" area="" fillingPcent="" rank=""
                      idBalloon="INOUE_KYOUMEN_016_balloon_7" textType="speech">まだいたんだ
            </metadata>
        </polygon>
        <polygon points="364,798 377,798 377,827 364,827 364,798" id="INOUE_KYOUMEN_016_line_16">
            <metadata typography="" uri="" method="" area="" fillingPcent="" rank="" textType="speech">クス</metadata>
        </polygon>
    </svg>
    <svg contentScriptType="text/ecmascript" zoomAndPan="magnify" contentStyleType="text/css" class="linkSBSC"
         preserveAspectRatio="xMidYMid meet" version="1.0">
        <polygon points="92,138 93,138 219,149 218,149 92,138" idCharacter="INOUE_KYOUMEN_016_character_0"
                 idBalloon="INOUE_KYOUMEN_016_balloon_1"/>
        <polygon points="112,559 113,559 172,551 171,551 112,559" idCharacter="INOUE_KYOUMEN_016_character_5"
                 idBalloon="INOUE_KYOUMEN_016_balloon_6"/>
        <polygon points="326,519 327,519 219,557 218,557 326,519" idCharacter="INOUE_KYOUMEN_016_character_4"
                 idBalloon="INOUE_KYOUMEN_016_balloon_5"/>
        <polygon points="299,864 300,864 132,876 131,876 299,864" idCharacter="INOUE_KYOUMEN_016_character_7"
                 idBalloon="INOUE_KYOUMEN_016_balloon_7"/>
    </svg>
    <metadata method="GroundTruth" lastModificationDate="Sat Jan 25 17:59:01 CET 2014" lastStepModified="Balloon_Rank"/>
</svg>