<?xml version="1.0" encoding="UTF-8" standalone="no"?>
<svg xmlns="http://www.w3.org/2000/svg" xmlns:xlink="http://www.w3.org/1999/xlink" contentScriptType="text/ecmascript" width="1203mm" zoomAndPan="magnify" contentStyleType="text/css" height="1648mm" viewBox="0 0 2407 3297" preserveAspectRatio="xMidYMid meet" version="1.0">
    <title>JOLIVET_BOSTONPOLICEAFFAIREPRADI_077</title>
    <svg contentScriptType="text/ecmascript" zoomAndPan="magnify" contentStyleType="text/css" class="Page" preserveAspectRatio="xMidYMid meet" version="1.0">
        <image x="0" y="0" fill-opacity="0.5" width="2407" xlink:href="../Pages/JOLIVET_BOSTONPOLICEAFFAIREPRADI_077.jpg" xlink:type="simple" xlink:actuate="onLoad" height="3297" opacity="0.5" preserveAspectRatio="xMidYMid meet" xlink:show="embed"/>
        <metadata collectionTitle="Boston Police" editorName="Clair De Lune" doublePage="false" website="" albumTitle="L'Affaire Pradi" drawerName="Olivier Jolivet" language="french" resolution="600" ISBN="978-2353252459" readingDirection="leftToRight" writerName="Pascal Boisgibault" releaseDate="2010" pageNumber="77"/>
    </svg>
	<style type="text/css" xml:space="preserve">
        * { stroke-width: 0; stroke-linejoin: round; }
        .Unclassified { fill: orange; stroke: none; opacity: 1.0; visibility: hidden; }
        .Noise { fill: pink; stroke: none; opacity: 0.2; visibility: hidden; }
        .Panel { fill: red; stroke: none; opacity: 0.3; visibility: visible; image-rendering: optimizeSpeed; }
        .Line { fill: green; stroke: none; opacity: 0.5; visibility: visible; image-rendering: optimizeSpeed; }
        .TextArea { fill: grey; stroke: none; opacity: 0.2; visibility: visible; image-rendering: optimizeSpeed; }
        .Balloon { fill: cyan; stroke: none; opacity: 0.5; visibility: visible; image-rendering: optimizeSpeed; }
        .Letter { fill: blue; stroke: none; opacity: 0.2; visibility: hidden; }
        .Character { fill: yellow; stroke: none; opacity: 0.3; visibility: visible; image-rendering: optimizeSpeed; }
        .Page { fill: white; stroke: none; opacity: 0.5; visibility: visible; }
        .linkSBSC { fill: blue; stroke: none; opacity: 0.5; visibility: visible; }
        polygon:hover { stroke:red;stroke-width:2; } 
    </style><svg contentScriptType="text/ecmascript" zoomAndPan="magnify" contentStyleType="text/css" class="Panel" preserveAspectRatio="xMidYMid meet" version="1.0">
        <polygon points="60,132 1211,132 1211,924 60,924 60,132" id="JOLIVET_BOSTONPOLICEAFFAIREPRADI_077_panel_0">
            <metadata viewAngle="" shot="" rank="1"/>
        </polygon>
        <polygon points="1233,134 2197,134 2197,921 1233,921 1233,134" id="JOLIVET_BOSTONPOLICEAFFAIREPRADI_077_panel_1">
            <metadata viewAngle="" shot="" rank="2"/>
        </polygon>
        <polygon points="66,950 1286,950 1286,1721 66,1725 66,950" id="JOLIVET_BOSTONPOLICEAFFAIREPRADI_077_panel_2">
            <metadata viewAngle="" shot="" rank="3"/>
        </polygon>
        <polygon points="1309,947 2201,947 2201,1713 1309,1716 1309,947" id="JOLIVET_BOSTONPOLICEAFFAIREPRADI_077_panel_3">
            <metadata viewAngle="" shot="" rank="4"/>
        </polygon>
        <polygon points="69,1748 2204,1737 2208,2342 71,2357 69,1748" id="JOLIVET_BOSTONPOLICEAFFAIREPRADI_077_panel_4">
            <metadata viewAngle="" shot="" rank="5"/>
        </polygon>
        <polygon points="73,2378 1017,2375 1021,3108 73,3115 73,2378" id="JOLIVET_BOSTONPOLICEAFFAIREPRADI_077_panel_5">
            <metadata viewAngle="" shot="" rank="6"/>
        </polygon>
        <polygon points="1039,2370 1616,2368 1620,3099 1043,3104 1039,2370" id="JOLIVET_BOSTONPOLICEAFFAIREPRADI_077_panel_6">
            <metadata viewAngle="" shot="" rank="7"/>
        </polygon>
        <polygon points="1641,2364 2206,2364 2211,3097 1641,3097 1641,2364" id="JOLIVET_BOSTONPOLICEAFFAIREPRADI_077_panel_7">
            <metadata viewAngle="" shot="" rank="8"/>
        </polygon>
    </svg>
    <svg contentScriptType="text/ecmascript" zoomAndPan="magnify" contentStyleType="text/css" class="TextArea" preserveAspectRatio="xMidYMid meet" version="1.0"/>
    <svg contentScriptType="text/ecmascript" zoomAndPan="magnify" contentStyleType="text/css" class="Balloon" preserveAspectRatio="xMidYMid meet" version="1.0">
        <polygon points="882,251 906,225 953,209 983,205 1014,209 1052,224 1073,239 1090,265 1091,292 1083,322 1060,350 1027,370 1007,377 969,382 956,379 942,373 940,373 946,381 920,408 863,475 835,511 836,500 866,462 894,431 930,384 927,376 931,370 903,353 869,322 860,297 871,266 882,251" id="JOLIVET_BOSTONPOLICEAFFAIREPRADI_077_balloon_0">
            <metadata borderStyle="smooth" tailTip="835,511" boundingBox="" tailDirection="SW" rank="1"/>
        </polygon>
        <polygon points="964,1065 1013,1048 1083,1049 1133,1062 1173,1081 1197,1111 1207,1137 1203,1179 1185,1211 1146,1237 1078,1251 1020,1249 958,1221 935,1196 925,1171 924,1157 900,1146 888,1148 883,1144 882,1133 885,1125 908,1095 855,1106 804,1119 799,1118 809,1112 873,1093 908,1083 928,1081 930,1086 918,1097 904,1114 893,1129 888,1135 888,1142 895,1143 904,1140 913,1140 921,1142 924,1138 925,1116 935,1094 949,1074 964,1065" id="JOLIVET_BOSTONPOLICEAFFAIREPRADI_077_balloon_1">
            <metadata borderStyle="smooth" tailTip="799,1118" boundingBox="" tailDirection="W" rank="2"/>
        </polygon>
        <polygon points="507,1356 547,1351 597,1355 625,1364 632,1355 625,1340 626,1336 646,1329 672,1314 673,1318 643,1344 664,1359 639,1373 656,1383 674,1406 687,1432 689,1458 680,1490 651,1526 608,1547 560,1552 518,1548 480,1537 451,1522 424,1496 411,1461 419,1421 437,1394 463,1373 507,1356" id="JOLIVET_BOSTONPOLICEAFFAIREPRADI_077_balloon_2">
            <metadata borderStyle="smooth" tailTip="673,1318" boundingBox="" tailDirection="NE" rank="3"/>
        </polygon>
        <polygon points="1870,1366 1919,1353 1958,1351 2009,1358 2022,1366 2053,1383 2081,1407 2103,1433 2113,1453 2116,1477 2102,1506 2077,1529 2058,1543 2046,1548 2031,1555 2031,1560 2036,1566 2068,1565 2095,1572 2119,1584 2133,1594 2144,1607 2148,1622 2143,1641 2119,1666 2082,1680 2043,1684 2010,1680 1976,1671 1952,1651 1947,1623 1965,1594 1979,1585 1999,1574 2014,1569 2025,1568 2014,1560 1988,1567 1961,1570 1927,1570 1906,1568 1866,1560 1833,1544 1808,1521 1794,1498 1789,1481 1787,1461 1794,1437 1804,1418 1821,1400 1826,1395 1816,1387 1802,1374 1813,1366 1780,1352 1753,1331 1768,1338 1791,1350 1817,1362 1836,1369 1820,1374 1820,1381 1830,1387 1835,1388 1870,1366" id="JOLIVET_BOSTONPOLICEAFFAIREPRADI_077_balloon_3">
            <metadata borderStyle="smooth" tailTip="1753,1331" boundingBox="" tailDirection="NW" rank="4"/>
        </polygon>
        <polygon points="1749,1833 1846,1800 1882,1819 1919,1836 1949,1847 1937,1879 1925,1912 1906,1937 1889,1952 1867,1955 1858,1966 1838,1972 1832,1975 1869,1978 1852,1993 1824,2016 1803,2097 1791,2148 1789,2161 1797,2169 1779,2165 1780,2148 1795,2085 1813,2022 1819,1995 1807,1985 1812,1969 1827,1966 1836,1960 1816,1955 1793,1949 1774,1952 1756,1951 1754,1955 1764,1959 1719,1981 1653,2020 1618,2036 1537,2072 1531,2068 1554,2057 1625,2018 1692,1982 1739,1952 1745,1946 1755,1936 1768,1930 1757,1916 1761,1914 1749,1876 1741,1844 1749,1833" id="JOLIVET_BOSTONPOLICEAFFAIREPRADI_077_balloon_4">
            <metadata borderStyle="smooth" tailTip="" boundingBox="" tailDirection="SW" rank="5"/>
        </polygon>
        <polygon points="1640,2364 1867,2362 1878,2399 1877,2430 1876,2459 1871,2490 1863,2512 1851,2542 1838,2554 1815,2566 1803,2567 1825,2573 1804,2581 1785,2590 1780,2594 1781,2596 1783,2605 1793,2616 1802,2621 1823,2615 1822,2620 1805,2625 1783,2616 1776,2608 1767,2597 1772,2583 1784,2571 1780,2570 1754,2576 1720,2578 1690,2575 1660,2567 1643,2552 1638,2545 1640,2364" id="JOLIVET_BOSTONPOLICEAFFAIREPRADI_077_balloon_5">
            <metadata borderStyle="smooth" tailTip="1822,2620" boundingBox="" tailDirection="E" rank="6"/>
        </polygon>
    </svg>
    <svg contentScriptType="text/ecmascript" zoomAndPan="magnify" contentStyleType="text/css" class="Character" preserveAspectRatio="xMidYMid meet" version="1.0">
        <polygon points="1794,282 2199,282 2199,928 1794,928 1794,282" id="JOLIVET_BOSTONPOLICEAFFAIREPRADI_077_character_0">
            <metadata uri="" area="" fillingPcent=""/>
        </polygon>
        <polygon points="1398,1062 1789,1062 1789,1721 1398,1721 1398,1062" id="JOLIVET_BOSTONPOLICEAFFAIREPRADI_077_character_1">
            <metadata uri="" area="" fillingPcent=""/>
        </polygon>
        <polygon points="1963,1101 2201,1101 2201,1317 1963,1317 1963,1101" id="JOLIVET_BOSTONPOLICEAFFAIREPRADI_077_character_2">
            <metadata uri="" area="" fillingPcent=""/>
        </polygon>
        <polygon points="1216,2137 1310,2137 1310,2351 1216,2351 1216,2137" id="JOLIVET_BOSTONPOLICEAFFAIREPRADI_077_character_3">
            <metadata uri="" area="" fillingPcent=""/>
        </polygon>
        <polygon points="1037,2484 1475,2484 1475,3114 1037,3114 1037,2484" id="JOLIVET_BOSTONPOLICEAFFAIREPRADI_077_character_4">
            <metadata uri="" area="" fillingPcent=""/>
        </polygon>
        <polygon points="1687,2418 2183,2418 2183,3101 1687,3101 1687,2418" id="JOLIVET_BOSTONPOLICEAFFAIREPRADI_077_character_5">
            <metadata uri="" area="" fillingPcent=""/>
        </polygon>
    </svg>
    <svg contentScriptType="text/ecmascript" zoomAndPan="magnify" contentStyleType="text/css" class="Line" preserveAspectRatio="xMidYMid meet" version="1.0">
        <polygon points="919,243 1037,243 1037,263 919,263 919,243" id="JOLIVET_BOSTONPOLICEAFFAIREPRADI_077_line_0">
            <metadata method="" typography="" idBalloon="JOLIVET_BOSTONPOLICEAFFAIREPRADI_077_balloon_0" textType="speech">AH ! TOUT</metadata>
        </polygon>
        <polygon points="912,266 1046,266 1046,290 912,290 912,266" id="JOLIVET_BOSTONPOLICEAFFAIREPRADI_077_line_1">
            <metadata method="" typography="" idBalloon="JOLIVET_BOSTONPOLICEAFFAIREPRADI_077_balloon_0" textType="speech">DE MêME !</metadata>
        </polygon>
        <polygon points="900,297 1057,297 1057,318 900,318 900,297" id="JOLIVET_BOSTONPOLICEAFFAIREPRADI_077_line_2">
            <metadata method="" typography="" idBalloon="JOLIVET_BOSTONPOLICEAFFAIREPRADI_077_balloon_0" textType="speech">CE N'EST PAS</metadata>
        </polygon>
        <polygon points="915,321 1044,321 1044,345 915,345 915,321" id="JOLIVET_BOSTONPOLICEAFFAIREPRADI_077_line_3">
            <metadata method="" typography="" idBalloon="JOLIVET_BOSTONPOLICEAFFAIREPRADI_077_balloon_0" textType="speech">TROP TôT !</metadata>
        </polygon>
        <polygon points="1004,1085 1124,1085 1124,1107 1004,1107 1004,1085" id="JOLIVET_BOSTONPOLICEAFFAIREPRADI_077_line_4">
            <metadata method="" typography="" idBalloon="JOLIVET_BOSTONPOLICEAFFAIREPRADI_077_balloon_1" textType="speech">BON SANG</metadata>
        </polygon>
        <polygon points="966,1113 1161,1113 1161,1135 966,1135 966,1113" id="JOLIVET_BOSTONPOLICEAFFAIREPRADI_077_line_5">
            <metadata method="" typography="" idBalloon="JOLIVET_BOSTONPOLICEAFFAIREPRADI_077_balloon_1" textType="speech">ON N'Y VOIT RIEN</metadata>
        </polygon>
        <polygon points="998,1135 1131,1135 1131,1161 998,1161 998,1135" id="JOLIVET_BOSTONPOLICEAFFAIREPRADI_077_line_6">
            <metadata method="" typography="" idBalloon="JOLIVET_BOSTONPOLICEAFFAIREPRADI_077_balloon_1" textType="speech">Là-DEDANS,</metadata>
        </polygon>
        <polygon points="958,1168 1168,1168 1168,1187 958,1187 958,1168" id="JOLIVET_BOSTONPOLICEAFFAIREPRADI_077_line_7">
            <metadata method="" typography="" idBalloon="JOLIVET_BOSTONPOLICEAFFAIREPRADI_077_balloon_1" textType="speech">QU'EST-CE QUI SE</metadata>
        </polygon>
        <polygon points="996,1195 1134,1195 1134,1217 996,1217 996,1195" id="JOLIVET_BOSTONPOLICEAFFAIREPRADI_077_line_8">
            <metadata method="" typography="" idBalloon="JOLIVET_BOSTONPOLICEAFFAIREPRADI_077_balloon_1" textType="speech">PASSE ICI ?!</metadata>
        </polygon>
        <polygon points="489,1383 617,1383 617,1404 489,1404 489,1383" id="JOLIVET_BOSTONPOLICEAFFAIREPRADI_077_line_9">
            <metadata method="" typography="" idBalloon="JOLIVET_BOSTONPOLICEAFFAIREPRADI_077_balloon_2" textType="speech">OUAIS, C'EST</metadata>
        </polygon>
        <polygon points="435,1407 668,1407 668,1427 435,1427 435,1407" id="JOLIVET_BOSTONPOLICEAFFAIREPRADI_077_line_10">
            <metadata method="" typography="" idBalloon="JOLIVET_BOSTONPOLICEAFFAIREPRADI_077_balloon_2" textType="speech">CURIEUX ET LA PORTE</metadata>
        </polygon>
        <polygon points="442,1427 662,1427 662,1448 442,1448 442,1427" id="JOLIVET_BOSTONPOLICEAFFAIREPRADI_077_line_11">
            <metadata method="" typography="" idBalloon="JOLIVET_BOSTONPOLICEAFFAIREPRADI_077_balloon_2" textType="speech">QUI S'EST REFERMéE</metadata>
        </polygon>
        <polygon points="442,1454 663,1454 663,1472 442,1472 442,1454" id="JOLIVET_BOSTONPOLICEAFFAIREPRADI_077_line_12">
            <metadata method="" typography="" idBalloon="JOLIVET_BOSTONPOLICEAFFAIREPRADI_077_balloon_2" textType="speech">BRUTALEMENT ALORS</metadata>
        </polygon>
        <polygon points="463,1476 644,1476 644,1495 463,1495 463,1476" id="JOLIVET_BOSTONPOLICEAFFAIREPRADI_077_line_13">
            <metadata method="" typography="" idBalloon="JOLIVET_BOSTONPOLICEAFFAIREPRADI_077_balloon_2" textType="speech">QUE LES COPAINS</metadata>
        </polygon>
        <polygon points="480,1501 628,1501 628,1519 480,1519 480,1501" id="JOLIVET_BOSTONPOLICEAFFAIREPRADI_077_line_14">
            <metadata method="" typography="" idBalloon="JOLIVET_BOSTONPOLICEAFFAIREPRADI_077_balloon_2" textType="speech">SONT DEHORS.</metadata>
        </polygon>
        <polygon points="1898,1380 1995,1380 1995,1398 1898,1398 1898,1380" id="JOLIVET_BOSTONPOLICEAFFAIREPRADI_077_line_15">
            <metadata method="" typography="" idBalloon="JOLIVET_BOSTONPOLICEAFFAIREPRADI_077_balloon_3" textType="speech">LA PORTE</metadata>
        </polygon>
        <polygon points="1877,1399 2018,1399 2018,1422 1877,1422 1877,1399" id="JOLIVET_BOSTONPOLICEAFFAIREPRADI_077_line_16">
            <metadata method="" typography="" idBalloon="JOLIVET_BOSTONPOLICEAFFAIREPRADI_077_balloon_3" textType="speech">QUI DéCONNE,</metadata>
        </polygon>
        <polygon points="1845,1426 2050,1426 2050,1444 1845,1444 1845,1426" id="JOLIVET_BOSTONPOLICEAFFAIREPRADI_077_line_17">
            <metadata method="" typography="" idBalloon="JOLIVET_BOSTONPOLICEAFFAIREPRADI_077_balloon_3" textType="speech">LES PORTABLES QUI</metadata>
        </polygon>
        <polygon points="1827,1449 2068,1449 2068,1468 1827,1468 1827,1449" id="JOLIVET_BOSTONPOLICEAFFAIREPRADI_077_line_18">
            <metadata method="" typography="" idBalloon="JOLIVET_BOSTONPOLICEAFFAIREPRADI_077_balloon_3" textType="speech">NE FONCTIONNENT PLUS,</metadata>
        </polygon>
        <polygon points="1825,1468 2071,1468 2071,1491 1825,1491 1825,1468" id="JOLIVET_BOSTONPOLICEAFFAIREPRADI_077_line_19">
            <metadata method="" typography="" idBalloon="JOLIVET_BOSTONPOLICEAFFAIREPRADI_077_balloon_3" textType="speech">LA LUMIèRE COUPéE ET</metadata>
        </polygon>
        <polygon points="1826,1495 2070,1495 2070,1513 1826,1514 1826,1495" id="JOLIVET_BOSTONPOLICEAFFAIREPRADI_077_line_20">
            <metadata method="" typography="" idBalloon="JOLIVET_BOSTONPOLICEAFFAIREPRADI_077_balloon_3" textType="speech">L'ALARME QUI NE S'EST</metadata>
        </polygon>
        <polygon points="1855,1515 2040,1515 2040,1536 1855,1536 1855,1515" id="JOLIVET_BOSTONPOLICEAFFAIREPRADI_077_line_21">
            <metadata method="" typography="" idBalloon="JOLIVET_BOSTONPOLICEAFFAIREPRADI_077_balloon_3" textType="speech">PAS DéCLENCHéE.</metadata>
        </polygon>
        <polygon points="1994,1586 2098,1586 2098,1604 1994,1604 1994,1586" id="JOLIVET_BOSTONPOLICEAFFAIREPRADI_077_line_22">
            <metadata method="" typography="" idBalloon="JOLIVET_BOSTONPOLICEAFFAIREPRADI_077_balloon_3" textType="speech">QU'EST-CE </metadata>
        </polygon>
        <polygon points="1966,1611 2127,1611 2127,1629 1966,1629 1966,1611" id="JOLIVET_BOSTONPOLICEAFFAIREPRADI_077_line_23">
            <metadata method="" typography="" idBalloon="JOLIVET_BOSTONPOLICEAFFAIREPRADI_077_balloon_3" textType="speech">QUI C'EST QUE</metadata>
        </polygon>
        <polygon points="1970,1636 2123,1636 2123,1654 1970,1654 1970,1636" id="JOLIVET_BOSTONPOLICEAFFAIREPRADI_077_line_24">
            <metadata method="" typography="" idBalloon="JOLIVET_BOSTONPOLICEAFFAIREPRADI_077_balloon_3" textType="speech">CE MERDIER ?</metadata>
        </polygon>
        <polygon points="1814,1868 1868,1868 1868,1912 1814,1912 1814,1868" id="JOLIVET_BOSTONPOLICEAFFAIREPRADI_077_line_25">
            <metadata method="" typography="" idBalloon="JOLIVET_BOSTONPOLICEAFFAIREPRADI_077_balloon_4" textType="speech">!?</metadata>
        </polygon>
        <polygon points="1440,2489 1499,2489 1499,2538 1440,2538 1440,2489" id="JOLIVET_BOSTONPOLICEAFFAIREPRADI_077_line_26">
            <metadata method="" typography="" textType="speech">!?</metadata>
        </polygon>
        <polygon points="1663,2387 1848,2387 1848,2407 1663,2408 1663,2387" id="JOLIVET_BOSTONPOLICEAFFAIREPRADI_077_line_27">
            <metadata method="" typography="" idBalloon="JOLIVET_BOSTONPOLICEAFFAIREPRADI_077_balloon_5" textType="speech">ATTACHEZ-LES ET</metadata>
        </polygon>
        <polygon points="1648,2411 1864,2411 1864,2429 1648,2430 1648,2411" id="JOLIVET_BOSTONPOLICEAFFAIREPRADI_077_line_28">
            <metadata method="" typography="" idBalloon="JOLIVET_BOSTONPOLICEAFFAIREPRADI_077_balloon_5" textType="speech">ENFERMEZ-LES DANS</metadata>
        </polygon>
        <polygon points="1659,2433 1852,2433 1852,2454 1659,2454 1659,2433" id="JOLIVET_BOSTONPOLICEAFFAIREPRADI_077_line_29">
            <metadata method="" typography="" idBalloon="JOLIVET_BOSTONPOLICEAFFAIREPRADI_077_balloon_5" textType="speech">UN FOURGON, NOUS</metadata>
        </polygon>
        <polygon points="1655,2456 1855,2456 1855,2476 1655,2476 1655,2456" id="JOLIVET_BOSTONPOLICEAFFAIREPRADI_077_line_30">
            <metadata method="" typography="" idBalloon="JOLIVET_BOSTONPOLICEAFFAIREPRADI_077_balloon_5" textType="speech">AVONS 30 MINUTES</metadata>
        </polygon>
        <polygon points="1689,2480 1822,2480 1822,2499 1689,2499 1689,2480" id="JOLIVET_BOSTONPOLICEAFFAIREPRADI_077_line_31">
            <metadata method="" typography="" idBalloon="JOLIVET_BOSTONPOLICEAFFAIREPRADI_077_balloon_5" textType="speech">AVANT QU'ILS</metadata>
        </polygon>
        <polygon points="1683,2502 1828,2502 1828,2522 1683,2522 1683,2502" id="JOLIVET_BOSTONPOLICEAFFAIREPRADI_077_line_32">
            <metadata method="" typography="" idBalloon="JOLIVET_BOSTONPOLICEAFFAIREPRADI_077_balloon_5" textType="speech">N'ENVOIENT LA</metadata>
        </polygon>
        <polygon points="1694,2525 1818,2525 1818,2546 1694,2546 1694,2525" id="JOLIVET_BOSTONPOLICEAFFAIREPRADI_077_line_33">
            <metadata method="" typography="" idBalloon="JOLIVET_BOSTONPOLICEAFFAIREPRADI_077_balloon_5" textType="speech">CAVALERIE !</metadata>
        </polygon>
        <polygon points="1132,3170 1161,3170 1161,3200 1132,3200 1132,3170" id="JOLIVET_BOSTONPOLICEAFFAIREPRADI_077_line_34">
            <metadata method="" typography="" textType="speech">77</metadata>
        </polygon>
    </svg>
    <svg contentScriptType="text/ecmascript" zoomAndPan="magnify" contentStyleType="text/css" class="linkSBSC" preserveAspectRatio="xMidYMid meet" version="1.0">
    <polygon points="1950,1507 1951,1507 1594,1391 1593,1391 1950,1507" idCharacter="JOLIVET_BOSTONPOLICEAFFAIREPRADI_077_character_1" idBalloon="JOLIVET_BOSTONPOLICEAFFAIREPRADI_077_balloon_3"/>
    <polygon points="1758,2493 1759,2493 1936,2759 1935,2759 1758,2493" idCharacter="JOLIVET_BOSTONPOLICEAFFAIREPRADI_077_character_5" idBalloon="JOLIVET_BOSTONPOLICEAFFAIREPRADI_077_balloon_5"/>
  </svg>
<metadata method="GroundTruth" lastModificationDate="Mon Feb 03 18:33:46 CET 2014" lastStepModified="Balloon_Rank"/>
</svg>