<?xml version="1.0" encoding="UTF-8" standalone="no"?>
<svg xmlns="http://www.w3.org/2000/svg" xmlns:xlink="http://www.w3.org/1999/xlink" contentScriptType="text/ecmascript" width="1203mm" zoomAndPan="magnify" contentStyleType="text/css" height="1648mm" viewBox="0 0 2407 3297" preserveAspectRatio="xMidYMid meet" version="1.0">
    <title>JOLIVET_BOSTONPOLICEAFFAIREPRADI_087</title>
    <svg contentScriptType="text/ecmascript" zoomAndPan="magnify" contentStyleType="text/css" class="Page" preserveAspectRatio="xMidYMid meet" version="1.0">
        <image x="0" y="0" fill-opacity="0.5" width="2407" xlink:href="../Pages/JOLIVET_BOSTONPOLICEAFFAIREPRADI_087.jpg" xlink:type="simple" xlink:actuate="onLoad" height="3297" opacity="0.5" preserveAspectRatio="xMidYMid meet" xlink:show="embed"/>
        <metadata collectionTitle="Boston Police" editorName="Clair De Lune" doublePage="false" website="" albumTitle="L'Affaire Pradi" drawerName="Olivier Jolivet" language="french" resolution="600" ISBN="978-2353252459" readingDirection="leftToRight" writerName="Pascal Boisgibault" releaseDate="2010" pageNumber="87"/>
    </svg>
	<style type="text/css" xml:space="preserve">
        * { stroke-width: 0; stroke-linejoin: round; }
        .Unclassified { fill: orange; stroke: none; opacity: 1.0; visibility: hidden; }
        .Noise { fill: pink; stroke: none; opacity: 0.2; visibility: hidden; }
        .Panel { fill: red; stroke: none; opacity: 0.3; visibility: visible; image-rendering: optimizeSpeed; }
        .Line { fill: green; stroke: none; opacity: 0.5; visibility: visible; image-rendering: optimizeSpeed; }
        .TextArea { fill: grey; stroke: none; opacity: 0.2; visibility: visible; image-rendering: optimizeSpeed; }
        .Balloon { fill: cyan; stroke: none; opacity: 0.5; visibility: visible; image-rendering: optimizeSpeed; }
        .Letter { fill: blue; stroke: none; opacity: 0.2; visibility: hidden; }
        .Character { fill: yellow; stroke: none; opacity: 0.3; visibility: visible; image-rendering: optimizeSpeed; }
        .Page { fill: white; stroke: none; opacity: 0.5; visibility: visible; }
        .linkSBSC { fill: blue; stroke: none; opacity: 0.5; visibility: visible; }
        polygon:hover { stroke:red;stroke-width:2; } 
    </style><svg contentScriptType="text/ecmascript" zoomAndPan="magnify" contentStyleType="text/css" class="Panel" preserveAspectRatio="xMidYMid meet" version="1.0">
        <polygon points="113,805 927,811 920,1878 107,1874 113,805" id="JOLIVET_BOSTONPOLICEAFFAIREPRADI_087_panel_0">
            <metadata viewAngle="" shot="" rank="2"/>
        </polygon>
        <polygon points="952,811 2246,821 2244,1243 950,1234 952,811" id="JOLIVET_BOSTONPOLICEAFFAIREPRADI_087_panel_1">
            <metadata viewAngle="" shot="" rank="3"/>
        </polygon>
        <polygon points="949,1260 2244,1268 2240,1885 945,1878 949,1260" id="JOLIVET_BOSTONPOLICEAFFAIREPRADI_087_panel_2">
            <metadata viewAngle="" shot="" rank="4"/>
        </polygon>
        <polygon points="107,1900 2240,1909 2236,2584 101,2577 107,1900" id="JOLIVET_BOSTONPOLICEAFFAIREPRADI_087_panel_3">
            <metadata viewAngle="" shot="" rank="5"/>
        </polygon>
        <polygon points="101,2602 2236,2610 2233,3117 98,3112 101,2602" id="JOLIVET_BOSTONPOLICEAFFAIREPRADI_087_panel_4">
            <metadata viewAngle="" shot="" rank="6"/>
        </polygon>
        <polygon points="119,135 2252,155 2247,795 113,779 119,135" id="JOLIVET_BOSTONPOLICEAFFAIREPRADI_087_panel_5">
            <metadata viewAngle="" shot="" rank="1"/>
        </polygon>
    </svg>
    <svg contentScriptType="text/ecmascript" zoomAndPan="magnify" contentStyleType="text/css" class="TextArea" preserveAspectRatio="xMidYMid meet" version="1.0"/>
    <svg contentScriptType="text/ecmascript" zoomAndPan="magnify" contentStyleType="text/css" class="Balloon" preserveAspectRatio="xMidYMid meet" version="1.0">
        <polygon points="981,130 1033,147 1100,153 1179,158 1234,163 1258,171 1262,273 1246,309 1238,348 1229,383 1233,402 1213,407 1191,415 1193,431 1221,436 1290,446 1294,454 1230,487 1257,506 1286,516 1286,531 1244,523 1203,483 1221,465 1168,441 1118,466 1096,470 999,463 954,453 892,353 862,334 872,291 847,224 896,172 981,130 981,130" id="JOLIVET_BOSTONPOLICEAFFAIREPRADI_087_balloon_0">
            <metadata borderStyle="spiky" tailTip="1286,531" boundingBox="" tailDirection="SE" rank="1"/>
        </polygon>
        <polygon points="440,804 533,813 631,823 738,859 807,905 856,952 885,1008 894,1055 861,1121 790,1195 734,1235 631,1279 536,1295 483,1301 389,1291 403,1312 367,1312 383,1325 428,1343 392,1349 357,1320 348,1299 364,1287 281,1266 208,1221 161,1163 132,1093 126,1020 138,959 166,910 212,865 262,834 337,814 440,804" id="JOLIVET_BOSTONPOLICEAFFAIREPRADI_087_balloon_1">
            <metadata borderStyle="smooth" tailTip="428,1343" boundingBox="" tailDirection="SE" rank="2"/>
        </polygon>
        <polygon points="1817,842 1856,833 1915,819 1981,826 2083,850 2160,892 2197,943 2212,1016 2202,1075 2156,1143 2102,1193 2006,1224 1932,1230 1854,1220 1795,1195 1750,1160 1711,1106 1687,1099 1691,1145 1645,1042 1611,966 1642,1001 1678,1071 1679,1062 1692,1071 1684,1004 1700,948 1729,902 1773,867 1817,842" id="JOLIVET_BOSTONPOLICEAFFAIREPRADI_087_balloon_2">
            <metadata borderStyle="smooth" tailTip="1611,966" boundingBox="" tailDirection="NW" rank="3"/>
        </polygon>
        <polygon points="964,1268 1378,1271 1368,1430 967,1429 956,1366 964,1309 964,1268" id="JOLIVET_BOSTONPOLICEAFFAIREPRADI_087_balloon_3">
            <metadata borderStyle="smooth" tailTip="" boundingBox="" tailDirection="none" rank="4"/>
        </polygon>
        <polygon points="121,1902 306,1904 518,1904 525,2059 121,2062 116,1909 121,1902" id="JOLIVET_BOSTONPOLICEAFFAIREPRADI_087_balloon_4">
            <metadata borderStyle="smooth" tailTip="" boundingBox="" tailDirection="none" rank="5"/>
        </polygon>
        <polygon points="1388,2034 1455,2014 1530,2023 1603,2047 1650,2087 1680,2149 1684,2192 1671,2258 1648,2303 1659,2303 1652,2330 1699,2303 1710,2303 1674,2330 1625,2368 1634,2327 1625,2329 1603,2358 1566,2389 1521,2415 1457,2432 1412,2426 1365,2404 1326,2359 1293,2292 1279,2218 1269,2164 1280,2122 1322,2070 1388,2034" id="JOLIVET_BOSTONPOLICEAFFAIREPRADI_087_balloon_5">
            <metadata borderStyle="smooth" tailTip="1710,2303" boundingBox="" tailDirection="NE" rank="6"/>
        </polygon>
        <polygon id="JOLIVET_BOSTONPOLICEAFFAIREPRADI_087_balloon_6" points="831,2622 923,2611 1048,2622 1153,2663 1224,2725 1241,2773 1225,2867 1142,2967 1079,3002 963,3030 897,3028 840,3011 766,2972 735,2942 711,2906 702,2906 712,2917 705,2961 676,2932 651,2932 603,2938 633,2923 661,2920 683,2926 665,2908 682,2889 703,2881 687,2838 677,2789 694,2728 726,2687 773,2646 831,2622">
            <metadata borderStyle="smooth" tailTip="603,2938" boundingBox="" tailDirection="W" rank="7"/>
        </polygon>
    </svg>
    <svg contentScriptType="text/ecmascript" zoomAndPan="magnify" contentStyleType="text/css" class="Character" preserveAspectRatio="xMidYMid meet" version="1.0">
        <polygon points="1215,156 2257,156 2257,799 1215,799 1215,156" id="JOLIVET_BOSTONPOLICEAFFAIREPRADI_087_character_0">
            <metadata uri="" area="" fillingPcent=""/>
        </polygon>
        <polygon points="166,132 1003,132 1003,806 166,806 166,132" id="JOLIVET_BOSTONPOLICEAFFAIREPRADI_087_character_1">
            <metadata uri="" area="" fillingPcent=""/>
        </polygon>
        <polygon points="562,1268 815,1268 815,1885 562,1885 562,1268" id="JOLIVET_BOSTONPOLICEAFFAIREPRADI_087_character_2">
            <metadata uri="" area="" fillingPcent=""/>
        </polygon>
        <polygon points="448,1306 662,1306 662,1877 448,1877 448,1306" id="JOLIVET_BOSTONPOLICEAFFAIREPRADI_087_character_3">
            <metadata uri="" area="" fillingPcent=""/>
        </polygon>
        <polygon points="1100,813 1595,813 1595,1241 1100,1241 1100,813" id="JOLIVET_BOSTONPOLICEAFFAIREPRADI_087_character_4">
            <metadata uri="" area="" fillingPcent=""/>
        </polygon>
        <polygon points="1471,1906 2243,1906 2243,2586 1471,2586 1471,1906" id="JOLIVET_BOSTONPOLICEAFFAIREPRADI_087_character_5">
            <metadata uri="" area="" fillingPcent=""/>
        </polygon>
        <polygon points="1202,2603 1799,2603 1799,3118 1202,3118 1202,2603" id="JOLIVET_BOSTONPOLICEAFFAIREPRADI_087_character_6">
            <metadata uri="" area="" fillingPcent=""/>
        </polygon>
        <polygon points="89,2603 744,2603 744,3116 89,3116 89,2603" id="JOLIVET_BOSTONPOLICEAFFAIREPRADI_087_character_7">
            <metadata uri="" area="" fillingPcent=""/>
        </polygon>
    </svg>
    <svg contentScriptType="text/ecmascript" zoomAndPan="magnify" contentStyleType="text/css" class="Line" preserveAspectRatio="xMidYMid meet" version="1.0">
        <polygon points="903,197 1227,200 1224,226 903,226 903,197" id="JOLIVET_BOSTONPOLICEAFFAIREPRADI_087_line_0">
            <metadata method="" typography="" idBalloon="JOLIVET_BOSTONPOLICEAFFAIREPRADI_087_balloon_0" textType="speech">VOUS N'ETES PAS EN TRAIN</metadata>
        </polygon>
        <polygon points="902,229 1229,230 1229,253 902,248 902,229" id="JOLIVET_BOSTONPOLICEAFFAIREPRADI_087_line_1">
            <metadata method="" typography="" idBalloon="JOLIVET_BOSTONPOLICEAFFAIREPRADI_087_balloon_0" textType="speech">DE ME DIRE QUE CE SONT</metadata>
        </polygon>
        <polygon points="915,255 1218,254 1219,282 915,278 915,255" id="JOLIVET_BOSTONPOLICEAFFAIREPRADI_087_line_2">
            <metadata method="" typography="" idBalloon="JOLIVET_BOSTONPOLICEAFFAIREPRADI_087_balloon_0" textType="speech">VOS GARS QUI ONT BUTE</metadata>
        </polygon>
        <polygon points="919,283 1209,285 1208,309 919,307 919,283" id="JOLIVET_BOSTONPOLICEAFFAIREPRADI_087_line_3">
            <metadata method="" typography="" idBalloon="JOLIVET_BOSTONPOLICEAFFAIREPRADI_087_balloon_0" textType="speech">MES AGENTS MOORE ET</metadata>
        </polygon>
        <polygon points="929,309 1201,311 1201,336 928,335 929,309" id="JOLIVET_BOSTONPOLICEAFFAIREPRADI_087_line_4">
            <metadata method="" typography="" idBalloon="JOLIVET_BOSTONPOLICEAFFAIREPRADI_087_balloon_0" textType="speech">STRAFORD, EN FACTION</metadata>
        </polygon>
        <polygon points="940,337 1188,339 1187,362 944,361 940,337" id="JOLIVET_BOSTONPOLICEAFFAIREPRADI_087_line_5">
            <metadata method="" typography="" idBalloon="JOLIVET_BOSTONPOLICEAFFAIREPRADI_087_balloon_0" textType="speech">DEVANT LE DOMICILE</metadata>
        </polygon>
        <polygon points="941,364 1187,364 1188,392 944,388 941,364" id="JOLIVET_BOSTONPOLICEAFFAIREPRADI_087_line_6">
            <metadata method="" typography="" idBalloon="JOLIVET_BOSTONPOLICEAFFAIREPRADI_087_balloon_0" textType="speech">DE CETTE ORDURE!</metadata>
        </polygon>
        <polygon points="367,885 640,885 637,916 370,914 367,885" id="JOLIVET_BOSTONPOLICEAFFAIREPRADI_087_line_7">
            <metadata method="" typography="" idBalloon="JOLIVET_BOSTONPOLICEAFFAIREPRADI_087_balloon_1" textType="speech">CAPITAINE, DU CALME !</metadata>
        </polygon>
        <polygon points="213,914 789,918 787,946 213,940 213,914" id="JOLIVET_BOSTONPOLICEAFFAIREPRADI_087_line_8">
            <metadata method="" typography="" idBalloon="JOLIVET_BOSTONPOLICEAFFAIREPRADI_087_balloon_1" textType="speech">D'ABORD RENGAINEZ CETTE ARME NON LETHALE</metadata>
        </polygon>
        <polygon points="227,942 775,946 776,973 226,967 227,942" id="JOLIVET_BOSTONPOLICEAFFAIREPRADI_087_line_9">
            <metadata method="" typography="" idBalloon="JOLIVET_BOSTONPOLICEAFFAIREPRADI_087_balloon_1" textType="speech">D'UN NOUVEAU MODELE AVEC LAQUELLE VOUS</metadata>
        </polygon>
        <polygon points="195,967 802,972 808,997 191,994 195,967" id="JOLIVET_BOSTONPOLICEAFFAIREPRADI_087_line_10">
            <metadata method="" typography="" idBalloon="JOLIVET_BOSTONPOLICEAFFAIREPRADI_087_balloon_1" textType="speech">PURREZ TOUT AU PLUS ME PROCURER UNE BONNE</metadata>
        </polygon>
        <polygon points="168,996 834,1000 830,1026 166,1024 168,996" id="JOLIVET_BOSTONPOLICEAFFAIREPRADI_087_line_11">
            <metadata method="" typography="" idBalloon="JOLIVET_BOSTONPOLICEAFFAIREPRADI_087_balloon_1" textType="speech">SIESTE REPARATRICE MAIS JE CRAINS QUE LE MOMENT</metadata>
        </polygon>
        <polygon points="189,1026 811,1028 814,1053 191,1051 189,1026" id="JOLIVET_BOSTONPOLICEAFFAIREPRADI_087_line_12">
            <metadata method="" typography="" idBalloon="JOLIVET_BOSTONPOLICEAFFAIREPRADI_087_balloon_1" textType="speech">SOIT MAL CHOISI POUR CELA. DE PLUS, LES HOMMES</metadata>
        </polygon>
        <polygon points="178,1053 818,1055 819,1083 181,1078 178,1053" id="JOLIVET_BOSTONPOLICEAFFAIREPRADI_087_line_13">
            <metadata method="" typography="" idBalloon="JOLIVET_BOSTONPOLICEAFFAIREPRADI_087_balloon_1" textType="speech">DU SWAT NE VONT PAS TARDER A INVESTIR LA PLACE</metadata>
        </polygon>
        <polygon points="181,1080 818,1084 816,1110 183,1104 181,1080" id="JOLIVET_BOSTONPOLICEAFFAIREPRADI_087_line_14">
            <metadata method="" typography="" idBalloon="JOLIVET_BOSTONPOLICEAFFAIREPRADI_087_balloon_1" textType="speech">EST IT SERAIT BON QUE LA SITUATION SOIT DECANTEE</metadata>
        </polygon>
        <polygon points="211,1108 790,1111 790,1136 211,1133 211,1108" id="JOLIVET_BOSTONPOLICEAFFAIREPRADI_087_line_15">
            <metadata method="" typography="" idBalloon="JOLIVET_BOSTONPOLICEAFFAIREPRADI_087_balloon_1" textType="speech">AVANT QUE TOUT CELA NE TOURNEEN REMARKE</metadata>
        </polygon>
        <polygon points="217,1136 785,1138 780,1164 221,1160 217,1136" id="JOLIVET_BOSTONPOLICEAFFAIREPRADI_087_line_16">
            <metadata method="" typography="" idBalloon="JOLIVET_BOSTONPOLICEAFFAIREPRADI_087_balloon_1" textType="speech">DE FORT ALAMO. JE CONNAIS LE COMMANDANT</metadata>
        </polygon>
        <polygon points="325,1162 676,1166 678,1191 324,1190 325,1162" id="JOLIVET_BOSTONPOLICEAFFAIREPRADI_087_line_17">
            <metadata method="" typography="" idBalloon="JOLIVET_BOSTONPOLICEAFFAIREPRADI_087_balloon_1" textType="speech">TURNER, IL NE FAIT PAS DANS</metadata>
        </polygon>
        <polygon points="413,1192 590,1191 591,1219 411,1219 413,1192" id="JOLIVET_BOSTONPOLICEAFFAIREPRADI_087_line_18">
            <metadata method="" typography="" idBalloon="JOLIVET_BOSTONPOLICEAFFAIREPRADI_087_balloon_1" textType="speech">LA FIORITURE !</metadata>
        </polygon>
        <polygon points="1791,891 2103,893 2102,921 1793,917 1791,891" id="JOLIVET_BOSTONPOLICEAFFAIREPRADI_087_line_19">
            <metadata method="" typography="" idBalloon="JOLIVET_BOSTONPOLICEAFFAIREPRADI_087_balloon_2" textType="speech">NOUS ETIONS EN PANQUE</metadata>
        </polygon>
        <polygon points="1763,920 2135,920 2135,947 1763,947 1763,920" id="JOLIVET_BOSTONPOLICEAFFAIREPRADI_087_line_20">
            <metadata method="" typography="" idBalloon="JOLIVET_BOSTONPOLICEAFFAIREPRADI_087_balloon_2" textType="speech">DEPUIS DSE SEMAINES DEVANT</metadata>
        </polygon>
        <polygon points="1767,948 2127,949 2128,974 1768,974 1767,948" id="JOLIVET_BOSTONPOLICEAFFAIREPRADI_087_line_21">
            <metadata method="" typography="" idBalloon="JOLIVET_BOSTONPOLICEAFFAIREPRADI_087_balloon_2" textType="speech">LE DOMICILE DES PRADI. NOUS</metadata>
        </polygon>
        <polygon points="1749,975 2147,976 2146,1002 1752,1001 1749,975" id="JOLIVET_BOSTONPOLICEAFFAIREPRADI_087_line_22">
            <metadata method="" typography="" idBalloon="JOLIVET_BOSTONPOLICEAFFAIREPRADI_087_balloon_2" textType="speech">AVIONS REPERE VOS HOMMES EN</metadata>
        </polygon>
        <polygon points="1746,1002 2148,1006 2147,1031 1746,1027 1746,1002" id="JOLIVET_BOSTONPOLICEAFFAIREPRADI_087_line_23">
            <metadata method="" typography="" idBalloon="JOLIVET_BOSTONPOLICEAFFAIREPRADI_087_balloon_2" textType="speech">FACTION ET NOUS CHERCHIONS UN</metadata>
        </polygon>
        <polygon points="1724,1030 2169,1033 2166,1056 1725,1056 1724,1030" id="JOLIVET_BOSTONPOLICEAFFAIREPRADI_087_line_24">
            <metadata method="" typography="" idBalloon="JOLIVET_BOSTONPOLICEAFFAIREPRADI_087_balloon_2" textType="speech">MOYEN D4EXTRAIRE LA FAMILLE SANS</metadata>
        </polygon>
        <polygon points="1750,1057 2140,1057 2137,1088 1754,1083 1750,1057" id="JOLIVET_BOSTONPOLICEAFFAIREPRADI_087_line_25">
            <metadata method="" typography="" idBalloon="JOLIVET_BOSTONPOLICEAFFAIREPRADI_087_balloon_2" textType="speech">EVEILLER VOS SOUPCONS. HELAS,</metadata>
        </polygon>
        <polygon points="1772,1085 2120,1089 2122,1113 1774,1110 1772,1085" id="JOLIVET_BOSTONPOLICEAFFAIREPRADI_087_line_26">
            <metadata method="" typography="" idBalloon="JOLIVET_BOSTONPOLICEAFFAIREPRADI_087_balloon_2" textType="speech">L'IRRUTPTION DES HOMMES DE</metadata>
        </polygon>
        <polygon points="1793,1116 2099,1116 2100,1137 1792,1137 1793,1116" id="JOLIVET_BOSTONPOLICEAFFAIREPRADI_087_line_27">
            <metadata method="" typography="" idBalloon="JOLIVET_BOSTONPOLICEAFFAIREPRADI_087_balloon_2" textType="speech">MAINSDE TARDELLI NOUS</metadata>
        </polygon>
        <polygon points="1837,1140 2049,1140 2055,1167 1837,1167 1837,1140" id="JOLIVET_BOSTONPOLICEAFFAIREPRADI_087_line_28">
            <metadata method="" typography="" idBalloon="JOLIVET_BOSTONPOLICEAFFAIREPRADI_087_balloon_2" textType="speech">A PRIS DE COURT.</metadata>
        </polygon>
        <polygon points="1036,1295 1297,1297 1298,1320 1035,1319 1036,1295" id="JOLIVET_BOSTONPOLICEAFFAIREPRADI_087_line_29">
            <metadata method="" typography="" idBalloon="JOLIVET_BOSTONPOLICEAFFAIREPRADI_087_balloon_3" textType="narrative">NOUS N'AVONS PAS EU</metadata>
        </polygon>
        <polygon points="1028,1321 1303,1322 1304,1347 1026,1346 1028,1321" id="JOLIVET_BOSTONPOLICEAFFAIREPRADI_087_line_30">
            <metadata method="" typography="" idBalloon="JOLIVET_BOSTONPOLICEAFFAIREPRADI_087_balloon_3" textType="narrative">LE TEMPS D'INTERVENIR</metadata>
        </polygon>
        <polygon points="994,1346 1340,1350 1337,1379 995,1371 994,1346" id="JOLIVET_BOSTONPOLICEAFFAIREPRADI_087_line_31">
            <metadata method="" typography="" idBalloon="JOLIVET_BOSTONPOLICEAFFAIREPRADI_087_balloon_3" textType="narrative">QU'ILS AVAIENT DEJA ABATTU</metadata>
        </polygon>
        <polygon points="1023,1376 1299,1380 1308,1405 1025,1402 1023,1376" id="JOLIVET_BOSTONPOLICEAFFAIREPRADI_087_line_32">
            <metadata method="" typography="" idBalloon="JOLIVET_BOSTONPOLICEAFFAIREPRADI_087_balloon_3" textType="narrative">FROIDEMENT VOS GARS.</metadata>
        </polygon>
        <polygon points="171,1932 476,1932 475,1958 173,1957 171,1932" id="JOLIVET_BOSTONPOLICEAFFAIREPRADI_087_line_33">
            <metadata method="" typography="" idBalloon="JOLIVET_BOSTONPOLICEAFFAIREPRADI_087_balloon_4" textType="narrative">MES HOMMES ONT JUSTE</metadata>
        </polygon>
        <polygon points="164,1963 480,1960 484,1989 160,1984 164,1963" id="JOLIVET_BOSTONPOLICEAFFAIREPRADI_087_line_34">
            <metadata method="" typography="" idBalloon="JOLIVET_BOSTONPOLICEAFFAIREPRADI_087_balloon_4" textType="narrative">EU LE TEMPS D'EMPECHER</metadata>
        </polygon>
        <polygon points="194,1985 453,1991 452,2013 195,2012 194,1985" id="JOLIVET_BOSTONPOLICEAFFAIREPRADI_087_line_35">
            <metadata method="" typography="" idBalloon="JOLIVET_BOSTONPOLICEAFFAIREPRADI_087_balloon_4" textType="narrative">L'ENLEVEMENT ET DE</metadata>
        </polygon>
        <polygon points="170,2016 469,2015 478,2042 169,2042 170,2016" id="JOLIVET_BOSTONPOLICEAFFAIREPRADI_087_line_36">
            <metadata method="" typography="" idBalloon="JOLIVET_BOSTONPOLICEAFFAIREPRADI_087_balloon_4" textType="narrative">NEUTRALISER LES RITALS.</metadata>
        </polygon>
        <polygon points="1381,2105 1579,2105 1579,2132 1378,2132 1381,2105" id="JOLIVET_BOSTONPOLICEAFFAIREPRADI_087_line_37">
            <metadata method="" typography="" idBalloon="JOLIVET_BOSTONPOLICEAFFAIREPRADI_087_balloon_5" textType="speech">JE SUPPOSE QUE</metadata>
        </polygon>
        <polygon points="1356,2134 1610,2132 1609,2158 1352,2158 1356,2134" id="JOLIVET_BOSTONPOLICEAFFAIREPRADI_087_line_38">
            <metadata method="" typography="" idBalloon="JOLIVET_BOSTONPOLICEAFFAIREPRADI_087_balloon_5" textType="speech">CE SONT EGALEMENT</metadata>
        </polygon>
        <polygon points="1358,2162 1603,2162 1603,2187 1360,2186 1358,2162" id="JOLIVET_BOSTONPOLICEAFFAIREPRADI_087_line_39">
            <metadata method="" typography="" idBalloon="JOLIVET_BOSTONPOLICEAFFAIREPRADI_087_balloon_5" textType="speech">LES PORTE-FLINGUES</metadata>
        </polygon>
        <polygon points="1320,2189 1639,2188 1641,2214 1322,2214 1320,2189" id="JOLIVET_BOSTONPOLICEAFFAIREPRADI_087_line_40">
            <metadata method="" typography="" idBalloon="JOLIVET_BOSTONPOLICEAFFAIREPRADI_087_balloon_5" textType="speech">DE TARDELLI QUI ONT FAIT</metadata>
        </polygon>
        <polygon points="1312,2216 1648,2218 1646,2241 1316,2239 1312,2216" id="JOLIVET_BOSTONPOLICEAFFAIREPRADI_087_line_41">
            <metadata method="" typography="" idBalloon="JOLIVET_BOSTONPOLICEAFFAIREPRADI_087_balloon_5" textType="speech">UN CARTON SUR LA VOITURE</metadata>
        </polygon>
        <polygon points="1344,2245 1612,2244 1615,2268 1348,2268 1344,2245" id="JOLIVET_BOSTONPOLICEAFFAIREPRADI_087_line_42">
            <metadata method="" typography="" idBalloon="JOLIVET_BOSTONPOLICEAFFAIREPRADI_087_balloon_5" textType="speech">DE MES HOMMES AFIN</metadata>
        </polygon>
        <polygon points="1331,2270 1631,2271 1625,2294 1333,2296 1331,2270" id="JOLIVET_BOSTONPOLICEAFFAIREPRADI_087_line_43">
            <metadata method="" typography="" idBalloon="JOLIVET_BOSTONPOLICEAFFAIREPRADI_087_balloon_5" textType="speech">D'ENLEVER VOTRE PILOTE</metadata>
        </polygon>
        <polygon points="1380,2297 1578,2297 1578,2323 1383,2324 1380,2297" id="JOLIVET_BOSTONPOLICEAFFAIREPRADI_087_line_44">
            <metadata method="" typography="" idBalloon="JOLIVET_BOSTONPOLICEAFFAIREPRADI_087_balloon_5" textType="speech">D'HELICOPTERE?</metadata>
        </polygon>
        <polygon points="873,2682 1028,2679 1035,2705 875,2706 873,2682" id="JOLIVET_BOSTONPOLICEAFFAIREPRADI_087_line_45">
            <metadata method="" typography="" idBalloon="JOLIVET_BOSTONPOLICEAFFAIREPRADI_087_balloon_6" textType="speech">EXACTEMENT.</metadata>
        </polygon>
        <polygon points="789,2708 1117,2706 1117,2732 792,2735 789,2708" id="JOLIVET_BOSTONPOLICEAFFAIREPRADI_087_line_46">
            <metadata method="" typography="" idBalloon="JOLIVET_BOSTONPOLICEAFFAIREPRADI_087_balloon_6" textType="speech">NOUS N'AURIONS PAS TENTE</metadata>
        </polygon>
        <polygon points="770,2737 1135,2734 1137,2760 773,2763 770,2737" id="JOLIVET_BOSTONPOLICEAFFAIREPRADI_087_line_47">
            <metadata method="" typography="" idBalloon="JOLIVET_BOSTONPOLICEAFFAIREPRADI_087_balloon_6" textType="speech">DE LE FAIRE EVADER PUISQUE</metadata>
        </polygon>
        <polygon points="731,2764 1172,2762 1173,2786 732,2790 731,2764" id="JOLIVET_BOSTONPOLICEAFFAIREPRADI_087_line_48">
            <metadata method="" typography="" idBalloon="JOLIVET_BOSTONPOLICEAFFAIREPRADI_087_balloon_6" textType="speech">NOTRE BUT ETAIT QU'IL SOIT ARRETER</metadata>
        </polygon>
        <polygon points="698,2792 1201,2787 1202,2816 702,2820 698,2792" id="JOLIVET_BOSTONPOLICEAFFAIREPRADI_087_line_49">
            <metadata method="" typography="" idBalloon="JOLIVET_BOSTONPOLICEAFFAIREPRADI_087_balloon_6" textType="speech">PUISQUE LA AUSSI, C'ETAIT UNE OPERATION</metadata>
        </polygon>
        <polygon points="735,2821 1173,2820 1170,2843 736,2844 735,2821" id="JOLIVET_BOSTONPOLICEAFFAIREPRADI_087_line_50">
            <metadata method="" typography="" idBalloon="JOLIVET_BOSTONPOLICEAFFAIREPRADI_087_balloon_6" textType="speech">DE DIVERSION. MAIS RASSUREZ-VOUS</metadata>
        </polygon>
        <polygon points="755,2847 1150,2846 1149,2869 756,2872 755,2847" id="JOLIVET_BOSTONPOLICEAFFAIREPRADI_087_line_51">
            <metadata method="" typography="" idBalloon="JOLIVET_BOSTONPOLICEAFFAIREPRADI_087_balloon_6" textType="speech">CAPITAINE, CES FUMIERS NE VONT</metadata>
        </polygon>
        <polygon points="754,2873 1151,2872 1147,2899 758,2900 754,2873" id="JOLIVET_BOSTONPOLICEAFFAIREPRADI_087_line_52">
            <metadata method="" typography="" idBalloon="JOLIVET_BOSTONPOLICEAFFAIREPRADI_087_balloon_6" textType="speech">PAS TARDER A PAYER L'ADDITION</metadata>
        </polygon>
        <polygon points="768,2903 1137,2901 1141,2926 769,2924 768,2903" id="JOLIVET_BOSTONPOLICEAFFAIREPRADI_087_line_53">
            <metadata method="" typography="" idBalloon="JOLIVET_BOSTONPOLICEAFFAIREPRADI_087_balloon_6" textType="speech">ET CETTE FOIS-CI, VOUS SEREZ</metadata>
        </polygon>
        <polygon points="860,2925 1044,2926 1046,2953 860,2954 860,2925" id="JOLIVET_BOSTONPOLICEAFFAIREPRADI_087_line_54">
            <metadata method="" typography="" idBalloon="JOLIVET_BOSTONPOLICEAFFAIREPRADI_087_balloon_6" textType="speech">A NOS COTES!</metadata>
        </polygon>
    </svg>
    <svg contentScriptType="text/ecmascript" zoomAndPan="magnify" contentStyleType="text/css" class="linkSBSC" preserveAspectRatio="xMidYMid meet" version="1.0">
    <polygon points="1070,330 1071,330 1737,477 1736,477 1070,330" idCharacter="JOLIVET_BOSTONPOLICEAFFAIREPRADI_087_character_0" idBalloon="JOLIVET_BOSTONPOLICEAFFAIREPRADI_087_balloon_0"/>
    <polygon points="510,1076 511,1076 556,1591 555,1591 510,1076" idCharacter="JOLIVET_BOSTONPOLICEAFFAIREPRADI_087_character_3" idBalloon="JOLIVET_BOSTONPOLICEAFFAIREPRADI_087_balloon_1"/>
    <polygon points="1911,1024 1912,1024 1348,1027 1347,1027 1911,1024" idCharacter="JOLIVET_BOSTONPOLICEAFFAIREPRADI_087_character_4" idBalloon="JOLIVET_BOSTONPOLICEAFFAIREPRADI_087_balloon_2"/>
    <polygon points="1489,2223 1490,2223 1858,2246 1857,2246 1489,2223" idCharacter="JOLIVET_BOSTONPOLICEAFFAIREPRADI_087_character_5" idBalloon="JOLIVET_BOSTONPOLICEAFFAIREPRADI_087_balloon_5"/>
    <polygon points="922,2820 923,2820 417,2859 416,2859 922,2820" idCharacter="JOLIVET_BOSTONPOLICEAFFAIREPRADI_087_character_7" idBalloon="JOLIVET_BOSTONPOLICEAFFAIREPRADI_087_balloon_6"/>
  </svg>
<metadata method="GroundTruth" lastModificationDate="Mon Jan 27 18:05:53 CET 2014" lastStepModified="Balloon_Rank"/>
</svg>