<?xml version="1.0" encoding="UTF-8" standalone="no"?>
<svg xmlns="http://www.w3.org/2000/svg" xmlns:xlink="http://www.w3.org/1999/xlink" contentScriptType="text/ecmascript" width="400mm" zoomAndPan="magnify" contentStyleType="text/css" height="157mm" viewBox="0 0 800 314" preserveAspectRatio="xMidYMid meet" version="1.0">
    <title>LAMISSEB_ETPISTAF_009</title>
    <svg contentScriptType="text/ecmascript" zoomAndPan="magnify" contentStyleType="text/css" class="Page" preserveAspectRatio="xMidYMid meet" version="1.0">
        <image x="0" y="0" width="800" xlink:href="../Pages/LAMISSEB_ETPISTAF_009.jpg" xlink:type="simple" xlink:actuate="onLoad" height="314" preserveAspectRatio="xMidYMid meet" xlink:show="embed"/>
        <metadata collectionTitle="Et Pis Taf !" editorName="" doublePage="false" website="http://et-pis-taf.webcomics.fr/archives" albumTitle="Volume 1" drawerName="Lamisseb" language="french" resolution="" ISBN="" readingDirection="leftToRight" writerName="Lamisseb" releaseDate="2012" pageNumber="9"/>
    </svg>
	<style type="text/css" xml:space="preserve">
        * { stroke-width: 0; stroke-linejoin: round; }
        .Unclassified { fill: orange; stroke: none; opacity: 1.0; visibility: hidden; }
        .Noise { fill: pink; stroke: none; opacity: 0.2; visibility: hidden; }
        .Panel { fill: red; stroke: none; opacity: 0.3; visibility: visible; image-rendering: optimizeSpeed; }
        .Line { fill: green; stroke: none; opacity: 0.5; visibility: visible; image-rendering: optimizeSpeed; }
        .TextArea { fill: grey; stroke: none; opacity: 0.2; visibility: visible; image-rendering: optimizeSpeed; }
        .Balloon { fill: cyan; stroke: none; opacity: 0.5; visibility: visible; image-rendering: optimizeSpeed; }
        .Letter { fill: blue; stroke: none; opacity: 0.2; visibility: hidden; }
        .Character { fill: yellow; stroke: none; opacity: 0.3; visibility: visible; image-rendering: optimizeSpeed; }
        .Page { fill: white; stroke: none; opacity: 0.5; visibility: visible; }
        .linkSBSC { fill: blue; stroke: none; opacity: 0.5; visibility: visible; }
        polygon:hover { stroke:red;stroke-width:2; } 
    </style><svg contentScriptType="text/ecmascript" zoomAndPan="magnify" contentStyleType="text/css" class="Panel" preserveAspectRatio="xMidYMid meet" version="1.0">
        <polygon points="15,37 416,37 429,290 15,290 15,37" id="LAMISSEB_ETPISTAF_009_panel_0">
            <metadata viewAngle="" shot="" rank="1"/>
        </polygon>
        <polygon points="415,20 796,20 797,290 415,290 415,20" id="LAMISSEB_ETPISTAF_009_panel_1">
            <metadata viewAngle="" shot="" rank="2"/>
        </polygon>
    </svg>
    <svg contentScriptType="text/ecmascript" zoomAndPan="magnify" contentStyleType="text/css" class="TextArea" preserveAspectRatio="xMidYMid meet" version="1.0"/>
    <svg contentScriptType="text/ecmascript" zoomAndPan="magnify" contentStyleType="text/css" class="Balloon" preserveAspectRatio="xMidYMid meet" version="1.0">
        <polygon points="44,23 238,25 244,40 247,63 238,73 179,74 170,83 166,89 173,94 172,103 164,111 168,100 159,96 163,75 57,72 47,74 35,57 36,36 44,23" id="LAMISSEB_ETPISTAF_009_balloon_0">
            <metadata borderStyle="smooth" tailTip="164,111" boundingBox="" tailDirection="S" rank="1"/>
        </polygon>
        <polygon points="83,74 96,76 106,76 112,78 117,84 127,82 134,83 139,87 141,96 137,103 135,113 130,115 122,117 112,116 104,117 95,120 89,119 84,123 85,128 87,134 97,136 102,140 103,145 108,149 111,156 111,161 104,168 106,161 108,156 97,150 97,143 90,142 80,139 78,130 77,123 81,117 70,115 60,117 50,114 46,109 48,101 51,95 52,89 59,83 65,83 72,78 76,76 83,74" id="LAMISSEB_ETPISTAF_009_balloon_1">
            <metadata borderStyle="wavy" tailTip="104,168" boundingBox="" tailDirection="S" rank="2"/>
        </polygon>
        <polygon points="232,78 385,75 392,85 394,99 394,116 391,131 383,145 378,150 308,152 312,156 315,163 310,168 301,172 305,175 306,180 299,185 304,189 306,194 297,189 290,185 300,178 291,172 297,166 307,162 302,157 298,152 258,151 240,151 221,152 205,135 199,119 198,104 202,89 208,80 232,78" id="LAMISSEB_ETPISTAF_009_balloon_2">
            <metadata borderStyle="smooth" tailTip="306,194" boundingBox="" tailDirection="SE" rank="3"/>
        </polygon>
        <polygon points="448,23 642,22 649,31 652,51 654,66 650,81 647,97 642,111 533,113 527,122 509,135 501,140 508,128 518,112 484,114 445,113 434,96 431,70 436,39 443,23 448,23" id="LAMISSEB_ETPISTAF_009_balloon_3">
            <metadata borderStyle="smooth" tailTip="501,140" boundingBox="" tailDirection="SW" rank="4"/>
        </polygon>
        <polygon points="588,135 636,134 640,141 643,152 639,167 624,169 588,169 581,162 572,162 556,164 570,159 581,154 581,143 584,136 588,135" id="LAMISSEB_ETPISTAF_009_balloon_4">
            <metadata borderStyle="smooth" tailTip="556,164" boundingBox="" tailDirection="E" rank="5"/>
        </polygon>
    </svg>
    <svg contentScriptType="text/ecmascript" zoomAndPan="magnify" contentStyleType="text/css" class="Character" preserveAspectRatio="xMidYMid meet" version="1.0">
        <polygon points="516,139 565,139 565,250 516,250 516,139" id="LAMISSEB_ETPISTAF_009_character_0">
            <metadata uri="" area="" fillingPcent=""/>
        </polygon>
        <polygon points="445,125 500,125 500,270 445,270 445,125" id="LAMISSEB_ETPISTAF_009_character_1">
            <metadata uri="" area="" fillingPcent=""/>
        </polygon>
        <polygon points="375,193 415,193 415,288 375,288 375,193" id="LAMISSEB_ETPISTAF_009_character_2">
            <metadata uri="" area="" fillingPcent=""/>
        </polygon>
        <polygon points="307,181 357,181 357,290 307,290 307,181" id="LAMISSEB_ETPISTAF_009_character_3">
            <metadata uri="" area="" fillingPcent=""/>
        </polygon>
        <polygon points="129,117 207,117 207,283 129,283 129,117" id="LAMISSEB_ETPISTAF_009_character_4">
            <metadata uri="" area="" fillingPcent=""/>
        </polygon>
        <polygon points="38,148 116,148 116,287 38,287 38,148" id="LAMISSEB_ETPISTAF_009_character_5">
            <metadata uri="" area="" fillingPcent=""/>
        </polygon>
    </svg>
    <svg contentScriptType="text/ecmascript" zoomAndPan="magnify" contentStyleType="text/css" class="Line" preserveAspectRatio="xMidYMid meet" version="1.0">
        <polygon points="50,33 227,33 227,46 50,46 50,33" id="LAMISSEB_ETPISTAF_009_line_0">
            <metadata method="" typography="" idBalloon="LAMISSEB_ETPISTAF_009_balloon_0" textType="speech">BORDEL! TU VAS LE CRACHER</metadata>
        </polygon>
        <polygon points="45,48 234,48 234,60 45,60 45,48" id="LAMISSEB_ETPISTAF_009_line_1">
            <metadata method="" typography="" idBalloon="LAMISSEB_ETPISTAF_009_balloon_0" textType="speech">TON PUTAIN DE MOT DE PASSE ?!</metadata>
        </polygon>
        <polygon points="74,84 111,84 111,95 74,95 74,84" id="LAMISSEB_ETPISTAF_009_line_2">
            <metadata method="" typography="" idBalloon="LAMISSEB_ETPISTAF_009_balloon_1" textType="speech">VAS...</metadata>
        </polygon>
        <polygon points="61,97 130,95 130,107 62,108 61,97" id="LAMISSEB_ETPISTAF_009_line_3">
            <metadata method="" typography="" idBalloon="LAMISSEB_ETPISTAF_009_balloon_1" textType="speech">VAS CHIER !</metadata>
        </polygon>
        <polygon points="214,90 380,91 381,102 215,102 214,90" id="LAMISSEB_ETPISTAF_009_line_4">
            <metadata method="" typography="" idBalloon="LAMISSEB_ETPISTAF_009_balloon_2" textType="speech">TANT PIS POUR LE TRANSFERT,</metadata>
        </polygon>
        <polygon points="226,103 369,104 369,114 226,114 226,103" id="LAMISSEB_ETPISTAF_009_line_5">
            <metadata method="" typography="" idBalloon="LAMISSEB_ETPISTAF_009_balloon_2" textType="speech">ON VA SE CONTENTER DES</metadata>
        </polygon>
        <polygon points="223,115 371,115 371,126 223,126 223,115" id="LAMISSEB_ETPISTAF_009_line_6">
            <metadata method="" typography="" idBalloon="LAMISSEB_ETPISTAF_009_balloon_2" textType="speech">BIFFETONS. DESCENDS-MOI</metadata>
        </polygon>
        <polygon points="224,128 369,128 369,139 224,139 224,128" id="LAMISSEB_ETPISTAF_009_line_7">
            <metadata method="" typography="" idBalloon="LAMISSEB_ETPISTAF_009_balloon_2" textType="speech">CET ENFOIRE DE BANQUIER.</metadata>
        </polygon>
        <polygon points="454,31 628,31 628,44 454,44 454,31" id="LAMISSEB_ETPISTAF_009_line_8">
            <metadata method="" typography="" idBalloon="LAMISSEB_ETPISTAF_009_balloon_3" textType="speech">UN TRUC M'ECHAPPE : CE TYPE</metadata>
        </polygon>
        <polygon points="464,45 619,45 619,57 464,57 464,45" id="LAMISSEB_ETPISTAF_009_line_9">
            <metadata method="" typography="" idBalloon="LAMISSEB_ETPISTAF_009_balloon_3" textType="speech">EST PRET A MOURRIR POUR</metadata>
        </polygon>
        <polygon points="443,60 639,60 639,71 443,71 443,60" id="LAMISSEB_ETPISTAF_009_line_10">
            <metadata method="" typography="" idBalloon="LAMISSEB_ETPISTAF_009_balloon_3" textType="speech">GARDER SECRET UN MOT DE PASSE</metadata>
        </polygon>
        <polygon points="460,73 626,73 626,84 460,84 460,73" id="LAMISSEB_ETPISTAF_009_line_11">
            <metadata method="" typography="" idBalloon="LAMISSEB_ETPISTAF_009_balloon_3" textType="speech">AUSSI SIMPLE A DEVENIR QUE</metadata>
        </polygon>
        <polygon points="471,88 611,87 610,98 471,98 471,88" id="LAMISSEB_ETPISTAF_009_line_12">
            <metadata method="" typography="" idBalloon="LAMISSEB_ETPISTAF_009_balloon_3" textType="speech">SON NOM DE FAMILLE ?!</metadata>
        </polygon>
        <polygon points="597,140 626,140 626,150 597,150 597,140" id="LAMISSEB_ETPISTAF_009_line_13">
            <metadata method="" typography="" idBalloon="LAMISSEB_ETPISTAF_009_balloon_4" textType="speech">OUAIS.</metadata>
        </polygon>
        <polygon points="588,152 635,152 635,161 588,161 588,152" id="LAMISSEB_ETPISTAF_009_line_14">
            <metadata method="" typography="" idBalloon="LAMISSEB_ETPISTAF_009_balloon_4" textType="speech">RESPECT !</metadata>
        </polygon>
        <polygon points="690,198 717,198 717,208 690,208 690,198" id="LAMISSEB_ETPISTAF_009_line_15">
            <metadata method="" typography="" textType="illustrative">Ci-Git</metadata>
        </polygon>
        <polygon points="668,214 739,214 739,231 668,231 668,214" id="LAMISSEB_ETPISTAF_009_line_16">
            <metadata method="" typography="" textType="illustrative">Jean-Charles</metadata>
        </polygon>
        <polygon points="670,232 738,232 738,255 670,255 670,232" id="LAMISSEB_ETPISTAF_009_line_17">
            <metadata method="" typography="" textType="speech">VASCHIER</metadata>
        </polygon>
    </svg>
    <svg contentScriptType="text/ecmascript" zoomAndPan="magnify" contentStyleType="text/css" class="linkSBSC" preserveAspectRatio="xMidYMid meet" version="1.0">
    <polygon points="93,121 94,121 78,217 77,217 93,121" idCharacter="LAMISSEB_ETPISTAF_009_character_5" idBalloon="LAMISSEB_ETPISTAF_009_balloon_1"/>
    <polygon points="141,67 142,67 169,200 168,200 141,67" idCharacter="LAMISSEB_ETPISTAF_009_character_4" idBalloon="LAMISSEB_ETPISTAF_009_balloon_0"/>
    <polygon points="296,134 297,134 333,235 332,235 296,134" idCharacter="LAMISSEB_ETPISTAF_009_character_3" idBalloon="LAMISSEB_ETPISTAF_009_balloon_2"/>
    <polygon points="542,81 543,81 473,197 472,197 542,81" idCharacter="LAMISSEB_ETPISTAF_009_character_1" idBalloon="LAMISSEB_ETPISTAF_009_balloon_3"/>
    <polygon points="599,151 600,151 541,194 540,194 599,151" idCharacter="LAMISSEB_ETPISTAF_009_character_0" idBalloon="LAMISSEB_ETPISTAF_009_balloon_4"/>
  </svg>
<metadata method="GroundTruth" lastModificationDate="Sun Jan 26 13:31:01 CET 2014" lastStepModified="Balloon_Metadata"/>
</svg>