<?xml version="1.0" encoding="UTF-8" standalone="no"?>
<svg xmlns:xlink="http://www.w3.org/1999/xlink" xmlns="http://www.w3.org/2000/svg" contentScriptType="text/ecmascript"
     width="400mm" zoomAndPan="magnify" contentStyleType="text/css" height="164mm" viewBox="0 0 800 328"
     preserveAspectRatio="xMidYMid meet" version="1.0">
    <title>LAMISSEB_ETPISTAF_013</title>
    <svg contentScriptType="text/ecmascript" zoomAndPan="magnify" contentStyleType="text/css" class="Page"
         preserveAspectRatio="xMidYMid meet" version="1.0">
        <image x="0" y="0" width="800" xlink:href="../Pages/LAMISSEB_ETPISTAF_013.jpg" xlink:type="simple"
               xlink:actuate="onLoad" height="328" preserveAspectRatio="xMidYMid meet" xlink:show="embed"/>
        <metadata collectionTitle="Et Pis Taf !" editorName="" doublePage="false"
                  website="http://et-pis-taf.webcomics.fr/archives" albumTitle="Volume 1" drawerName="Lamisseb"
                  language="french" resolution="" ISBN="" readingDirection="leftToRight" writerName="Lamisseb"
                  releaseDate="2012" pageNumber="13"/>
    </svg>
    <style type="text/css" xml:space="preserve">
        * { stroke-width: 0; stroke-linejoin: round; }
        .Unclassified { fill: orange; stroke: none; opacity: 1.0; visibility: hidden; }
        .Noise { fill: pink; stroke: none; opacity: 0.2; visibility: hidden; }
        .Panel { fill: red; stroke: none; opacity: 0.3; visibility: visible; image-rendering: optimizeSpeed; }
        .Line { fill: green; stroke: none; opacity: 0.5; visibility: visible; image-rendering: optimizeSpeed; }
        .TextArea { fill: grey; stroke: none; opacity: 0.2; visibility: visible; image-rendering: optimizeSpeed; }
        .Balloon { fill: cyan; stroke: none; opacity: 0.5; visibility: visible; image-rendering: optimizeSpeed; }
        .Letter { fill: blue; stroke: none; opacity: 0.2; visibility: hidden; }
        .Character { fill: yellow; stroke: none; opacity: 0.3; visibility: visible; image-rendering: optimizeSpeed; }
        .Page { fill: white; stroke: none; opacity: 0.5; visibility: visible; }
        .linkSBSC { fill: blue; stroke: none; opacity: 0.5; visibility: visible; }
        polygon:hover { stroke:red;stroke-width:2; } 
    </style>
    <svg contentScriptType="text/ecmascript" zoomAndPan="magnify" contentStyleType="text/css" class="Panel"
         preserveAspectRatio="xMidYMid meet" version="1.0">
        <polygon points="3,32 214,32 214,298 3,298 3,32" id="LAMISSEB_ETPISTAF_013_panel_0">
            <metadata viewAngle="" shot="" rank="1"/>
        </polygon>
        <polygon points="234,32 497,32 497,298 234,298 234,32" id="LAMISSEB_ETPISTAF_013_panel_1">
            <metadata viewAngle="" shot="" rank="2"/>
        </polygon>
        <polygon points="508,122 788,122 788,255 508,255 508,122" id="LAMISSEB_ETPISTAF_013_panel_2">
            <metadata viewAngle="" shot="" rank="3"/>
        </polygon>
    </svg>
    <svg contentScriptType="text/ecmascript" zoomAndPan="magnify" contentStyleType="text/css" class="TextArea"
         preserveAspectRatio="xMidYMid meet" version="1.0"/>
    <svg contentScriptType="text/ecmascript" zoomAndPan="magnify" contentStyleType="text/css" class="Balloon"
         preserveAspectRatio="xMidYMid meet" version="1.0">
        <polygon
                points="40,15 48,17 60,21 69,20 79,20 87,15 91,16 103,20 112,20 121,18 128,16 136,11 137,14 142,17 148,16 156,16 163,15 171,13 175,11 177,14 180,18 186,20 190,21 196,22 203,22 205,24 198,28 193,36 193,43 194,48 197,54 200,59 197,61 188,60 183,62 178,64 173,66 167,71 164,73 160,69 152,68 144,67 137,67 128,67 122,68 117,72 106,80 100,87 97,92 100,93 106,96 111,98 113,101 113,106 108,111 105,113 105,116 109,120 116,123 123,125 130,127 135,130 128,130 118,129 109,126 101,122 97,113 98,107 103,104 107,101 98,100 87,97 87,94 87,88 91,84 95,77 98,71 101,67 95,67 86,68 80,68 75,71 67,75 62,73 57,71 48,70 42,69 34,69 24,69 29,64 34,61 37,57 39,53 40,49 38,45 38,42 41,41 44,37 46,34 46,30 42,24 37,16 40,15"
                id="LAMISSEB_ETPISTAF_013_balloon_0">
            <metadata borderStyle="spiky" tailTip="135,130" boundingBox="" tailDirection="E" rank="1"/>
        </polygon>
        <polygon
                points="319,21 329,18 339,17 351,17 361,19 369,23 379,20 392,21 406,23 409,27 412,25 422,29 427,33 431,41 433,49 430,56 433,61 434,70 433,83 425,94 418,96 415,95 410,105 404,109 395,110 388,106 387,99 388,94 379,96 369,94 366,92 361,95 353,96 334,97 325,95 322,93 312,95 298,94 289,91 285,83 282,76 279,67 282,60 281,56 280,42 285,31 290,25 301,21 319,21"
                id="LAMISSEB_ETPISTAF_013_balloon_1">
            <metadata borderStyle="wavy" tailTip="404,109" boundingBox="" tailDirection="SE" rank="2"/>
        </polygon>
        <polygon
                points="525,31 548,29 579,28 604,29 630,28 650,29 660,29 671,32 680,45 684,58 687,72 687,84 686,92 682,106 675,116 659,119 642,117 636,117 637,120 637,126 633,131 628,135 628,142 634,146 652,154 647,153 640,151 633,150 623,146 620,141 621,134 625,128 627,124 625,119 560,119 542,118 524,114 516,110 510,96 507,81 507,67 510,53 516,40 525,31"
                id="LAMISSEB_ETPISTAF_013_balloon_2">
            <metadata borderStyle="smooth" tailTip="655,155" boundingBox="" tailDirection="E" rank="3"/>
        </polygon>
        <polygon
                points="703,39 733,40 761,43 763,48 764,59 772,60 777,63 779,67 776,73 775,75 779,78 782,83 782,86 780,93 776,99 777,105 770,105 772,99 773,94 775,88 775,84 769,80 767,77 769,72 771,68 764,67 760,76 747,78 729,79 713,80 697,78 692,70 692,59 695,48 703,39"
                id="LAMISSEB_ETPISTAF_013_balloon_3">
            <metadata borderStyle="smooth" tailTip="770,105" boundingBox="" tailDirection="S" rank="4"/>
        </polygon>
        <polygon
                points="714,82 729,79 743,80 757,82 756,100 742,104 727,104 713,104 711,98 705,99 699,100 694,97 691,99 682,102 684,96 689,92 693,90 698,90 701,92 703,94 709,93 711,92 714,82"
                id="LAMISSEB_ETPISTAF_013_balloon_4">
            <metadata borderStyle="smooth" tailTip="682,102" boundingBox="" tailDirection="W" rank="5"/>
        </polygon>
        <polygon
                points="776,105 787,104 792,106 795,109 795,122 794,130 787,134 781,135 772,135 772,136 776,140 775,143 769,148 760,153 765,147 770,145 770,141 767,137 763,134 755,135 746,132 744,124 746,115 750,110 754,106 765,104 776,105"
                id="LAMISSEB_ETPISTAF_013_balloon_5">
            <metadata borderStyle="smooth" tailTip="760,153" boundingBox="" tailDirection="SW" rank="6"/>
        </polygon>
    </svg>
    <svg contentScriptType="text/ecmascript" zoomAndPan="magnify" contentStyleType="text/css" class="Character"
         preserveAspectRatio="xMidYMid meet" version="1.0">
        <polygon points="720,128 765,128 765,256 720,256 720,128" id="LAMISSEB_ETPISTAF_013_character_0">
            <metadata uri="" area="" fillingPcent=""/>
        </polygon>
        <polygon points="658,121 705,121 705,254 658,254 658,121" id="LAMISSEB_ETPISTAF_013_character_1">
            <metadata uri="" area="" fillingPcent=""/>
        </polygon>
        <polygon points="340,120 449,120 449,290 340,290 340,120" id="LAMISSEB_ETPISTAF_013_character_2">
            <metadata uri="" area="" fillingPcent=""/>
        </polygon>
        <polygon points="131,99 210,99 210,273 131,273 131,99" id="LAMISSEB_ETPISTAF_013_character_3">
            <metadata uri="" area="" fillingPcent=""/>
        </polygon>
        <polygon points="235,114 326,114 326,287 235,287 235,114" id="LAMISSEB_ETPISTAF_013_character_4">
            <metadata uri="" area="" fillingPcent=""/>
        </polygon>
        <polygon points="6,122 117,122 117,318 6,318 6,122" id="LAMISSEB_ETPISTAF_013_character_5">
            <metadata uri="" area="" fillingPcent=""/>
        </polygon>
    </svg>
    <svg contentScriptType="text/ecmascript" zoomAndPan="magnify" contentStyleType="text/css" class="Line"
         preserveAspectRatio="xMidYMid meet" version="1.0">
        <polygon points="57,26 179,26 179,43 57,43 57,26" id="LAMISSEB_ETPISTAF_013_line_0">
            <metadata method="" typography="" idBalloon="LAMISSEB_ETPISTAF_013_balloon_0" textType="speech">OH MON DIEU
                !
            </metadata>
        </polygon>
        <polygon points="54,45 182,45 182,57 54,57 54,45" id="LAMISSEB_ETPISTAF_013_line_1">
            <metadata method="" typography="" idBalloon="LAMISSEB_ETPISTAF_013_balloon_0" textType="speech">TIENS BON
                MON CHéRI !
            </metadata>
        </polygon>
        <polygon points="310,35 402,35 402,50 310,50 310,35" id="LAMISSEB_ETPISTAF_013_line_2">
            <metadata method="" typography="" idBalloon="LAMISSEB_ETPISTAF_013_balloon_1" textType="thought">VITE ! JE
                DOIS
            </metadata>
        </polygon>
        <polygon points="304,51 409,51 409,63 304,63 304,51" id="LAMISSEB_ETPISTAF_013_line_3">
            <metadata method="" typography="" idBalloon="LAMISSEB_ETPISTAF_013_balloon_1" textType="thought">LE SéPARER
                DE LA
            </metadata>
        </polygon>
        <polygon points="295,64 417,64 417,79 295,79 295,64" id="LAMISSEB_ETPISTAF_013_line_4">
            <metadata method="" typography="" idBalloon="LAMISSEB_ETPISTAF_013_balloon_1" textType="thought">PRISE
                éLECTRIQUE.
            </metadata>
        </polygon>
        <polygon points="529,44 662,44 662,58 529,58 529,44" id="LAMISSEB_ETPISTAF_013_line_5">
            <metadata method="" typography="" idBalloon="LAMISSEB_ETPISTAF_013_balloon_2" textType="speech">'PARAIT QUE
                SA MèRE
            </metadata>
        </polygon>
        <polygon points="530,59 660,59 660,73 530,73 530,59" id="LAMISSEB_ETPISTAF_013_line_6">
            <metadata method="" typography="" idBalloon="LAMISSEB_ETPISTAF_013_balloon_2" textType="speech">LUI A PéTé
                LE CRâNE
            </metadata>
        </polygon>
        <polygon points="526,75 664,75 664,87 526,87 526,75" id="LAMISSEB_ETPISTAF_013_line_7">
            <metadata method="" typography="" idBalloon="LAMISSEB_ETPISTAF_013_balloon_2" textType="speech">ALORS QU'IL
                éCOUTAIT
            </metadata>
        </polygon>
        <polygon points="532,88 658,88 658,102 532,102 532,88" id="LAMISSEB_ETPISTAF_013_line_8">
            <metadata method="" typography="" idBalloon="LAMISSEB_ETPISTAF_013_balloon_2" textType="speech">SON BALADEUR
                MP3.
            </metadata>
        </polygon>
        <polygon points="713,48 745,48 745,58 713,58 713,48" id="LAMISSEB_ETPISTAF_013_line_9">
            <metadata method="" typography="" idBalloon="LAMISSEB_ETPISTAF_013_balloon_3" textType="speech">DE LA
            </metadata>
        </polygon>
        <polygon points="704,60 754,60 752,70 704,70 704,60" id="LAMISSEB_ETPISTAF_013_line_10">
            <metadata method="" typography="" idBalloon="LAMISSEB_ETPISTAF_013_balloon_3" textType="speech">TECHNO ?
            </metadata>
        </polygon>
        <polygon points="716,86 751,86 751,97 716,97 716,86" id="LAMISSEB_ETPISTAF_013_line_11">
            <metadata method="" typography="" idBalloon="LAMISSEB_ETPISTAF_013_balloon_4" textType="speech">OUAIS.
            </metadata>
        </polygon>
        <polygon points="760,109 783,109 783,119 760,119 760,109" id="LAMISSEB_ETPISTAF_013_line_12">
            <metadata method="" typography="" idBalloon="LAMISSEB_ETPISTAF_013_balloon_5" textType="speech">C'EST
            </metadata>
        </polygon>
        <polygon points="753,120 789,119 788,127 753,127 753,120" id="LAMISSEB_ETPISTAF_013_line_13">
            <metadata method="" typography="" idBalloon="LAMISSEB_ETPISTAF_013_balloon_5" textType="speech">MOCHE !
            </metadata>
        </polygon>
        <polygon points="12,86 76,86 76,109 12,109 12,86" id="LAMISSEB_ETPISTAF_013_line_14">
            <metadata method="" typography="" textType="onomatopoeia">NNNZZZT !</metadata>
        </polygon>
        <polygon points="38,108 91,108 91,127 38,127 38,108" id="LAMISSEB_ETPISTAF_013_line_15">
            <metadata method="" typography="" textType="onomatopoeia">NNNZZT !</metadata>
        </polygon>
        <polygon points="254,107 333,107 333,147 254,147 254,107" id="LAMISSEB_ETPISTAF_013_line_16">
            <metadata method="" typography="" textType="onomatopoeia">NNNZZZT !</metadata>
        </polygon>
        <polygon points="276,150 330,150 330,165 276,165 276,150" id="LAMISSEB_ETPISTAF_013_line_17">
            <metadata method="" typography="" textType="speech">NNZZZT !</metadata>
        </polygon>
    </svg>
    <svg contentScriptType="text/ecmascript" zoomAndPan="magnify" contentStyleType="text/css" class="linkSBSC"
         preserveAspectRatio="xMidYMid meet" version="1.0">
        <polygon points="114,70 115,70 171,186 170,186 114,70" idCharacter="LAMISSEB_ETPISTAF_013_character_3"
                 idBalloon="LAMISSEB_ETPISTAF_013_balloon_0"/>
        <polygon points="356,63 357,63 395,205 394,205 356,63" idCharacter="LAMISSEB_ETPISTAF_013_character_2"
                 idBalloon="LAMISSEB_ETPISTAF_013_balloon_1"/>
        <polygon points="597,91 598,91 682,187 681,187 597,91" idCharacter="LAMISSEB_ETPISTAF_013_character_1"
                 idBalloon="LAMISSEB_ETPISTAF_013_balloon_2"/>
        <polygon points="769,128 770,128 743,192 742,192 769,128" idCharacter="LAMISSEB_ETPISTAF_013_character_0"
                 idBalloon="LAMISSEB_ETPISTAF_013_balloon_5"/>
        <polygon points="737,72 738,72 743,192 742,192 737,72" idCharacter="LAMISSEB_ETPISTAF_013_character_0"
                 idBalloon="LAMISSEB_ETPISTAF_013_balloon_3"/>
        <polygon points="719,91 720,91 682,187 681,187 719,91" idCharacter="LAMISSEB_ETPISTAF_013_character_1"
                 idBalloon="LAMISSEB_ETPISTAF_013_balloon_4"/>
    </svg>
    <metadata method="GroundTruth" lastModificationDate="Wed Feb 26 23:31:24 CET 2014" lastStepModified="Balloon_Rank"/>
</svg>