<?xml version="1.0" encoding="UTF-8" standalone="no"?>
<svg xmlns:xlink="http://www.w3.org/1999/xlink" xmlns="http://www.w3.org/2000/svg" contentScriptType="text/ecmascript"
     width="400mm" zoomAndPan="magnify" contentStyleType="text/css" height="162mm" viewBox="0 0 800 324"
     preserveAspectRatio="xMidYMid meet" version="1.0">
    <title>LAMISSEB_ETPISTAF_021</title>
    <svg contentScriptType="text/ecmascript" zoomAndPan="magnify" contentStyleType="text/css" class="Page"
         preserveAspectRatio="xMidYMid meet" version="1.0">
        <image x="0" y="0" fill-opacity="0.5" width="800" xlink:href="../Pages/LAMISSEB_ETPISTAF_021.jpg"
               xlink:type="simple" xlink:actuate="onLoad" height="324" opacity="0.5" preserveAspectRatio="xMidYMid meet"
               xlink:show="embed"/>
        <metadata collectionTitle="Et Pis Taf !" editorName="" doublePage="false"
                  website="http://et-pis-taf.webcomics.fr/archives" albumTitle="Volume 1" drawerName="Lamisseb"
                  language="french" resolution="" ISBN="" readingDirection="leftToRight" writerName="Lamisseb"
                  releaseDate="2012" pageNumber="21"/>
    </svg>
    <style type="text/css" xml:space="preserve">
        * { stroke-width: 0; stroke-linejoin: round; }
        .Unclassified { fill: orange; stroke: none; opacity: 1.0; visibility: hidden; }
        .Noise { fill: pink; stroke: none; opacity: 0.2; visibility: hidden; }
        .Panel { fill: red; stroke: none; opacity: 0.3; visibility: visible; image-rendering: optimizeSpeed; }
        .Line { fill: green; stroke: none; opacity: 0.5; visibility: visible; image-rendering: optimizeSpeed; }
        .TextArea { fill: grey; stroke: none; opacity: 0.2; visibility: visible; image-rendering: optimizeSpeed; }
        .Balloon { fill: cyan; stroke: none; opacity: 0.5; visibility: visible; image-rendering: optimizeSpeed; }
        .Letter { fill: blue; stroke: none; opacity: 0.2; visibility: hidden; }
        .Character { fill: yellow; stroke: none; opacity: 0.3; visibility: visible; image-rendering: optimizeSpeed; }
        .Page { fill: white; stroke: none; opacity: 0.5; visibility: visible; }
        .linkSBSC { fill: blue; stroke: none; opacity: 0.5; visibility: visible; }
        polygon:hover { stroke:red;stroke-width:2; } 
    </style>
    <svg contentScriptType="text/ecmascript" zoomAndPan="magnify" contentStyleType="text/css" class="Panel"
         preserveAspectRatio="xMidYMid meet" version="1.0">
        <polygon points="17,31 533,31 533,320 17,320 17,31" id="LAMISSEB_ETPISTAF_021_panel_0">
            <metadata viewAngle="" shot="" rank="1"/>
        </polygon>
        <polygon points="518,86 787,86 787,301 518,301 518,86" id="LAMISSEB_ETPISTAF_021_panel_1">
            <metadata viewAngle="" shot="" rank="2"/>
        </polygon>
    </svg>
    <svg contentScriptType="text/ecmascript" zoomAndPan="magnify" contentStyleType="text/css" class="TextArea"
         preserveAspectRatio="xMidYMid meet" version="1.0"/>
    <svg contentScriptType="text/ecmascript" zoomAndPan="magnify" contentStyleType="text/css" class="Balloon"
         preserveAspectRatio="xMidYMid meet" version="1.0">
        <polygon
                points="94,16 131,15 167,16 201,17 226,15 252,16 270,26 275,40 276,57 260,74 235,76 198,74 173,76 153,73 143,82 135,91 133,102 143,117 125,106 122,93 127,82 131,71 94,71 77,58 74,32 83,21 94,16"
                id="LAMISSEB_ETPISTAF_021_balloon_0">
            <metadata borderStyle="smooth" tailTip="143,117" boundingBox="" tailDirection="SE" rank="1"/>
        </polygon>
        <polygon
                points="583,10 662,12 674,18 680,26 683,37 682,49 673,57 661,59 633,60 626,67 623,71 624,75 633,82 633,86 624,98 623,101 627,105 621,115 615,119 620,109 617,104 618,99 626,88 625,84 616,78 614,71 620,60 585,60 572,55 566,44 567,31 571,20 583,10"
                id="LAMISSEB_ETPISTAF_021_balloon_1">
            <metadata borderStyle="smooth" tailTip="615,119" boundingBox="" tailDirection="SW" rank="2"/>
        </polygon>
    </svg>
    <svg contentScriptType="text/ecmascript" zoomAndPan="magnify" contentStyleType="text/css" class="Character"
         preserveAspectRatio="xMidYMid meet" version="1.0">
        <polygon points="128,108 217,108 217,278 128,278 128,108" id="LAMISSEB_ETPISTAF_021_character_0">
            <metadata uri="" area="" fillingPcent=""/>
        </polygon>
        <polygon points="24,103 109,103 109,280 24,280 24,103" id="LAMISSEB_ETPISTAF_021_character_1">
            <metadata uri="" area="" fillingPcent=""/>
        </polygon>
        <polygon points="573,118 615,118 615,219 573,219 573,118" id="LAMISSEB_ETPISTAF_021_character_2">
            <metadata uri="" area="" fillingPcent=""/>
        </polygon>
    </svg>
    <svg contentScriptType="text/ecmascript" zoomAndPan="magnify" contentStyleType="text/css" class="Line"
         preserveAspectRatio="xMidYMid meet" version="1.0">
        <polygon points="114,28 237,28 237,41 114,41 114,28" id="LAMISSEB_ETPISTAF_021_line_0">
            <metadata method="" typography="" idBalloon="LAMISSEB_ETPISTAF_021_balloon_0" textType="speech">T'ES PAS
                CHICHE DE
            </metadata>
        </polygon>
        <polygon points="89,43 261,43 261,57 89,57 89,43" id="LAMISSEB_ETPISTAF_021_line_1">
            <metadata method="" typography="" idBalloon="LAMISSEB_ETPISTAF_021_balloon_0" textType="speech">TRAVERSER LA
                RUE A POIL !
            </metadata>
        </polygon>
        <polygon points="585,22 662,22 662,34 585,34 585,22" id="LAMISSEB_ETPISTAF_021_line_2">
            <metadata method="" typography="" idBalloon="LAMISSEB_ETPISTAF_021_balloon_1" textType="speech">J'M'EN
                VEUX
            </metadata>
        </polygon>
        <polygon points="585,37 663,37 663,49 585,49 585,37" id="LAMISSEB_ETPISTAF_021_line_3">
            <metadata method="" typography="" idBalloon="LAMISSEB_ETPISTAF_021_balloon_1" textType="speech">TELLEMENT
                !
            </metadata>
        </polygon>
        <polygon points="674,153 706,153 706,168 674,168 674,153" id="LAMISSEB_ETPISTAF_021_line_4">
            <metadata method="" typography="" textType="illustrative">Ci-git</metadata>
        </polygon>
        <polygon points="656,176 724,176 724,189 656,189 656,176" id="LAMISSEB_ETPISTAF_021_line_5">
            <metadata method="" typography="" textType="illustrative">L'HOMME</metadata>
        </polygon>
        <polygon points="654,193 722,193 722,207 654,207 654,193" id="LAMISSEB_ETPISTAF_021_line_6">
            <metadata method="" typography="" textType="illustrative">INVISIBLE</metadata>
        </polygon>
        <polygon points="660,215 706,215 706,229 660,229 660,215" id="LAMISSEB_ETPISTAF_021_line_7">
            <metadata method="" typography="" textType="illustrative">Disparu</metadata>
        </polygon>
        <polygon points="648,230 715,230 715,244 648,244 648,230" id="LAMISSEB_ETPISTAF_021_line_8">
            <metadata method="" typography="" textType="speech">pour de bon</metadata>
        </polygon>
    </svg>
    <svg contentScriptType="text/ecmascript" zoomAndPan="magnify" contentStyleType="text/css" class="linkSBSC"
         preserveAspectRatio="xMidYMid meet" version="1.0">
        <polygon points="175,66 176,66 173,193 172,193 175,66" idCharacter="LAMISSEB_ETPISTAF_021_character_0"
                 idBalloon="LAMISSEB_ETPISTAF_021_balloon_0"/>
        <polygon points="624,64 625,64 595,168 594,168 624,64" idCharacter="LAMISSEB_ETPISTAF_021_character_2"
                 idBalloon="LAMISSEB_ETPISTAF_021_balloon_1"/>
    </svg>
    <metadata method="GroundTruth" lastModificationDate="Wed Jan 29 19:18:12 CET 2014" lastStepModified="Balloon_Rank"/>
</svg>