<?xml version="1.0" encoding="UTF-8" standalone="no"?>
<svg xmlns="http://www.w3.org/2000/svg" xmlns:xlink="http://www.w3.org/1999/xlink" contentScriptType="text/ecmascript" width="1230mm" zoomAndPan="magnify" contentStyleType="text/css" height="1705mm" viewBox="0 0 2461 3411" preserveAspectRatio="xMidYMid meet" version="1.0">
    <title>LAMISSEB_LESNOEILS1_024</title>
    <svg contentScriptType="text/ecmascript" zoomAndPan="magnify" contentStyleType="text/css" class="Page" preserveAspectRatio="xMidYMid meet" version="1.0">
        <image x="0" y="0" fill-opacity="0.5" width="2461" xlink:href="../Pages/LAMISSEB_LESNOEILS1_024.jpg" xlink:type="simple" xlink:actuate="onLoad" height="3411" opacity="0.5" preserveAspectRatio="xMidYMid meet" xlink:show="embed"/>
        <metadata collectionTitle="Les Noeils" editorName="Bac@BD" doublePage="false" website="http://les-noeils.webcomics.fr/archives" albumTitle="Tome 1" drawerName="Lamisseb" language="french" resolution="600" ISBN="978-2953405859" readingDirection="leftToRight" writerName="Lamisseb" releaseDate="2011" pageNumber="24"/>
    </svg>
	<style type="text/css" xml:space="preserve">
        * { stroke-width: 0; stroke-linejoin: round; }
        .Unclassified { fill: orange; stroke: none; opacity: 1.0; visibility: hidden; }
        .Noise { fill: pink; stroke: none; opacity: 0.2; visibility: hidden; }
        .Panel { fill: red; stroke: none; opacity: 0.3; visibility: visible; image-rendering: optimizeSpeed; }
        .Line { fill: green; stroke: none; opacity: 0.5; visibility: visible; image-rendering: optimizeSpeed; }
        .TextArea { fill: grey; stroke: none; opacity: 0.2; visibility: visible; image-rendering: optimizeSpeed; }
        .Balloon { fill: cyan; stroke: none; opacity: 0.5; visibility: visible; image-rendering: optimizeSpeed; }
        .Letter { fill: blue; stroke: none; opacity: 0.2; visibility: hidden; }
        .Character { fill: yellow; stroke: none; opacity: 0.3; visibility: visible; image-rendering: optimizeSpeed; }
        .Page { fill: white; stroke: none; opacity: 0.5; visibility: visible; }
        .linkSBSC { fill: blue; stroke: none; opacity: 0.5; visibility: visible; }
        polygon:hover { stroke:red;stroke-width:2; } 
    </style><svg contentScriptType="text/ecmascript" zoomAndPan="magnify" contentStyleType="text/css" class="Panel" preserveAspectRatio="xMidYMid meet" version="1.0">
        <polygon points="194,987 861,987 861,1645 194,1645 194,987" id="LAMISSEB_LESNOEILS1_024_panel_0">
            <metadata viewAngle="" shot="" rank="2"/>
        </polygon>
        <polygon points="897,980 1548,980 1548,1638 897,1638 897,980" id="LAMISSEB_LESNOEILS1_024_panel_1">
            <metadata viewAngle="" shot="" rank="3"/>
        </polygon>
        <polygon points="1583,976 2255,976 2255,1633 1583,1633 1583,976" id="LAMISSEB_LESNOEILS1_024_panel_2">
            <metadata viewAngle="" shot="" rank="4"/>
        </polygon>
        <polygon points="200,1774 863,1774 863,2428 200,2428 200,1774" id="LAMISSEB_LESNOEILS1_024_panel_3">
            <metadata viewAngle="" shot="" rank="5"/>
        </polygon>
        <polygon points="900,1770 1552,1770 1552,2424 900,2424 900,1770" id="LAMISSEB_LESNOEILS1_024_panel_4">
            <metadata viewAngle="" shot="" rank="6"/>
        </polygon>
        <polygon points="1586,1761 2260,1761 2260,2420 1586,2420 1586,1761" id="LAMISSEB_LESNOEILS1_024_panel_5">
            <metadata viewAngle="" shot="" rank="7"/>
        </polygon>
        <polygon points="204,2559 867,2559 867,3205 204,3205 204,2559" id="LAMISSEB_LESNOEILS1_024_panel_6">
            <metadata viewAngle="" shot="" rank="8"/>
        </polygon>
        <polygon points="905,2548 1556,2548 1556,3203 905,3203 905,2548" id="LAMISSEB_LESNOEILS1_024_panel_7">
            <metadata viewAngle="" shot="" rank="9"/>
        </polygon>
        <polygon points="1592,2545 2262,2545 2262,3201 1592,3201 1592,2545" id="LAMISSEB_LESNOEILS1_024_panel_8">
            <metadata viewAngle="" shot="" rank="10"/>
        </polygon>
        <polygon points="498,0 1939,0 1939,939 498,939 498,0" id="LAMISSEB_LESNOEILS1_024_panel_9">
            <metadata viewAngle="" shot="" rank="1"/>
        </polygon>
    </svg>
    <svg contentScriptType="text/ecmascript" zoomAndPan="magnify" contentStyleType="text/css" class="TextArea" preserveAspectRatio="xMidYMid meet" version="1.0"/>
    <svg contentScriptType="text/ecmascript" zoomAndPan="magnify" contentStyleType="text/css" class="Balloon" preserveAspectRatio="xMidYMid meet" version="1.0">
        <polygon points="353,952 451,953 558,952 647,949 789,953 787,988 785,1019 786,1052 742,1053 659,1052 640,1068 613,1092 598,1113 609,1127 645,1127 667,1127 702,1140 718,1147 712,1172 703,1194 698,1209 722,1211 762,1205 799,1199 825,1198 852,1201 860,1204 859,1219 823,1219 770,1225 735,1235 714,1248 679,1261 657,1244 676,1214 696,1178 700,1157 660,1147 613,1153 563,1161 552,1141 570,1107 582,1071 575,1051 486,1049 438,1047 386,1051 353,1056 354,1028 353,952" id="LAMISSEB_LESNOEILS1_024_balloon_0">
            <metadata borderStyle="smooth" tailTip="860,1204" boundingBox="" tailDirection="E" rank="1"/>
        </polygon>
        <polygon points="985,947 1083,947 1182,946 1308,944 1384,945 1417,945 1428,942 1425,966 1422,1017 1424,1064 1427,1083 1409,1085 1353,1087 1305,1090 1261,1086 1266,1095 1283,1117 1290,1146 1290,1187 1279,1228 1264,1266 1244,1293 1256,1267 1260,1215 1252,1177 1236,1146 1206,1117 1160,1085 1114,1087 1032,1086 984,1085 985,1012 985,947" id="LAMISSEB_LESNOEILS1_024_balloon_1">
            <metadata borderStyle="smooth" tailTip="1244,1293" boundingBox="" tailDirection="SW" rank="2"/>
        </polygon>
        <polygon points="1677,939 1731,940 1793,937 1851,938 1892,938 1934,939 1996,938 2043,941 2082,938 2115,939 2152,937 2150,970 2152,997 2156,1036 2146,1039 2073,1039 1994,1042 1964,1042 1943,1059 1925,1074 1906,1094 1897,1112 1896,1128 1901,1140 1914,1140 1927,1138 1935,1132 1949,1130 1952,1139 1941,1160 1938,1175 1930,1196 1923,1226 1920,1213 1921,1184 1925,1158 1924,1151 1913,1153 1900,1162 1891,1164 1870,1167 1861,1151 1866,1121 1873,1088 1877,1062 1874,1043 1865,1041 1814,1040 1765,1041 1716,1042 1673,1043 1677,1004 1677,939" id="LAMISSEB_LESNOEILS1_024_balloon_2">
            <metadata borderStyle="smooth" tailTip="1923,1226" boundingBox="" tailDirection="S" rank="3"/>
        </polygon>
        <polygon points="253,1741 334,1739 436,1741 539,1737 656,1735 814,1733 820,1776 813,1876 747,1876 604,1882 617,1902 634,1938 643,1980 643,2033 620,2100 633,2055 625,1995 605,1948 588,1925 545,1895 505,1881 437,1880 366,1880 304,1878 255,1880 257,1840 253,1741" id="LAMISSEB_LESNOEILS1_024_balloon_3">
            <metadata borderStyle="smooth" tailTip="620,2100" boundingBox="" tailDirection="SW" rank="4"/>
        </polygon>
        <polygon points="954,1733 1017,1736 1081,1731 1127,1737 1187,1732 1244,1733 1312,1730 1358,1727 1400,1728 1489,1730 1492,1786 1494,1857 1495,1913 1399,1918 1331,1917 1278,1919 1213,1919 1222,1946 1233,1994 1224,2039 1213,2079 1187,2117 1202,2091 1212,2040 1203,1986 1181,1948 1146,1918 1082,1918 1039,1918 1000,1920 952,1916 958,1876 954,1733" id="LAMISSEB_LESNOEILS1_024_balloon_4">
            <metadata borderStyle="smooth" tailTip="1187,2117" boundingBox="" tailDirection="SW" rank="5"/>
        </polygon>
        <polygon points="1615,1727 1647,1727 1714,1728 1771,1729 1871,1725 1976,1723 2074,1721 2173,1719 2229,1720 2228,1741 2229,1799 2231,1865 2154,1870 2031,1871 1944,1872 1919,1892 1898,1920 1888,1944 1878,1974 1876,2003 1886,2040 1908,2074 1887,2062 1858,2009 1847,1964 1845,1928 1847,1902 1854,1885 1858,1870 1788,1870 1746,1872 1712,1871 1650,1873 1618,1870 1621,1816 1615,1727" id="LAMISSEB_LESNOEILS1_024_balloon_5">
            <metadata borderStyle="smooth" tailTip="1908,2074" boundingBox="" tailDirection="SE" rank="6"/>
        </polygon>
        <polygon points="329,2522 384,2525 432,2520 451,2521 504,2520 554,2520 621,2522 733,2519 734,2532 736,2612 739,2693 705,2697 641,2695 649,2716 670,2734 698,2752 695,2764 668,2777 679,2790 704,2812 662,2846 669,2835 678,2813 652,2795 640,2783 648,2758 639,2739 610,2719 583,2710 558,2705 529,2701 522,2694 470,2698 400,2701 331,2703 331,2579 329,2522" id="LAMISSEB_LESNOEILS1_024_balloon_6">
            <metadata borderStyle="smooth" tailTip="662,2846" boundingBox="" tailDirection="SW" rank="7"/>
        </polygon>
        <polygon points="993,2515 1045,2509 1111,2514 1199,2514 1274,2512 1334,2509 1401,2509 1448,2513 1446,2555 1444,2603 1444,2621 1446,2648 1432,2653 1340,2654 1355,2687 1357,2735 1351,2788 1324,2845 1333,2818 1337,2773 1322,2726 1298,2687 1262,2661 1242,2657 1156,2654 1123,2653 1094,2653 1056,2656 1020,2653 993,2653 996,2593 993,2515" id="LAMISSEB_LESNOEILS1_024_balloon_7">
            <metadata borderStyle="smooth" tailTip="1324,2845" boundingBox="" tailDirection="SW" rank="8"/>
        </polygon>
        <polygon points="1652,2510 1695,2510 1730,2507 1769,2509 1836,2508 1904,2508 1931,2506 2009,2506 2086,2507 2195,2506 2198,2570 2199,2623 2198,2687 2141,2688 2059,2689 1939,2688 1924,2691 1890,2703 1855,2716 1824,2735 1801,2753 1796,2760 1813,2763 1829,2760 1851,2757 1864,2758 1870,2765 1860,2775 1823,2795 1787,2813 1791,2824 1810,2848 1825,2878 1849,2931 1835,2914 1810,2879 1783,2856 1759,2834 1758,2821 1766,2811 1785,2793 1795,2783 1790,2780 1760,2784 1748,2783 1750,2763 1755,2752 1767,2738 1782,2721 1796,2711 1811,2697 1823,2688 1784,2688 1747,2687 1695,2691 1654,2690 1660,2624 1652,2510" id="LAMISSEB_LESNOEILS1_024_balloon_8">
            <metadata borderStyle="smooth" tailTip="1849,2931" boundingBox="" tailDirection="SE" rank="9"/>
        </polygon>
    </svg>
    <svg contentScriptType="text/ecmascript" zoomAndPan="magnify" contentStyleType="text/css" class="Character" preserveAspectRatio="xMidYMid meet" version="1.0">
        <polygon points="970,422 1212,422 1212,687 970,687 970,422" id="LAMISSEB_LESNOEILS1_024_character_0">
            <metadata uri="" area="" fillingPcent=""/>
        </polygon>
        <polygon points="1235,409 1439,409 1439,628 1235,628 1235,409" id="LAMISSEB_LESNOEILS1_024_character_1">
            <metadata uri="" area="" fillingPcent=""/>
        </polygon>
        <polygon points="290,1308 537,1308 537,1566 290,1566 290,1308" id="LAMISSEB_LESNOEILS1_024_character_2">
            <metadata uri="" area="" fillingPcent=""/>
        </polygon>
        <polygon points="989,1313 1253,1313 1253,1560 989,1560 989,1313" id="LAMISSEB_LESNOEILS1_024_character_3">
            <metadata uri="" area="" fillingPcent=""/>
        </polygon>
        <polygon points="1717,1298 1956,1298 1956,1541 1717,1541 1717,1298" id="LAMISSEB_LESNOEILS1_024_character_4">
            <metadata uri="" area="" fillingPcent=""/>
        </polygon>
        <polygon points="1913,2119 2122,2119 2122,2355 1913,2355 1913,2119" id="LAMISSEB_LESNOEILS1_024_character_5">
            <metadata uri="" area="" fillingPcent=""/>
        </polygon>
        <polygon points="1659,2135 1807,2135 1807,2293 1659,2293 1659,2135" id="LAMISSEB_LESNOEILS1_024_character_6">
            <metadata uri="" area="" fillingPcent=""/>
        </polygon>
        <polygon points="1263,2135 1480,2135 1480,2359 1263,2359 1263,2135" id="LAMISSEB_LESNOEILS1_024_character_7">
            <metadata uri="" area="" fillingPcent=""/>
        </polygon>
        <polygon points="964,2134 1179,2134 1179,2356 964,2356 964,2134" id="LAMISSEB_LESNOEILS1_024_character_8">
            <metadata uri="" area="" fillingPcent=""/>
        </polygon>
        <polygon points="390,2125 640,2125 640,2358 390,2358 390,2125" id="LAMISSEB_LESNOEILS1_024_character_9">
            <metadata uri="" area="" fillingPcent=""/>
        </polygon>
        <polygon points="402,2866 667,2866 667,3118 402,3118 402,2866" id="LAMISSEB_LESNOEILS1_024_character_10">
            <metadata uri="" area="" fillingPcent=""/>
        </polygon>
        <polygon points="1095,2843 1343,2843 1343,3121 1095,3121 1095,2843" id="LAMISSEB_LESNOEILS1_024_character_11">
            <metadata uri="" area="" fillingPcent=""/>
        </polygon>
        <polygon points="1717,2795 2107,2795 2107,3151 1717,3151 1717,2795" id="LAMISSEB_LESNOEILS1_024_character_12">
            <metadata uri="" area="" fillingPcent=""/>
        </polygon>
    </svg>
    <svg contentScriptType="text/ecmascript" zoomAndPan="magnify" contentStyleType="text/css" class="Line" preserveAspectRatio="xMidYMid meet" version="1.0">
        <polygon points="390,973 750,973 750,1026 390,1026 390,973" id="LAMISSEB_LESNOEILS1_024_line_0">
            <metadata method="" typography="" idBalloon="LAMISSEB_LESNOEILS1_024_balloon_0" textType="speech">AiE ! CA ME BRULE !</metadata>
        </polygon>
        <polygon points="1028,969 1381,969 1381,1012 1028,1012 1028,969" id="LAMISSEB_LESNOEILS1_024_line_1">
            <metadata method="" typography="" idBalloon="LAMISSEB_LESNOEILS1_024_balloon_1" textType="speech">TU DEVRAIS METTRE</metadata>
        </polygon>
        <polygon points="1015,1017 1399,1017 1399,1055 1015,1055 1015,1017" id="LAMISSEB_LESNOEILS1_024_line_2">
            <metadata method="" typography="" idBalloon="LAMISSEB_LESNOEILS1_024_balloon_1" textType="speech">DE LA CREME SOULAIRE.</metadata>
        </polygon>
        <polygon points="1707,969 2129,969 2129,1008 1707,1008 1707,969" id="LAMISSEB_LESNOEILS1_024_line_3">
            <metadata method="" typography="" idBalloon="LAMISSEB_LESNOEILS1_024_balloon_2" textType="speech">C'EST CE QUE JE FAIS !</metadata>
        </polygon>
        <polygon points="288,1766 789,1766 789,1804 288,1804 288,1766" id="LAMISSEB_LESNOEILS1_024_line_4">
            <metadata method="" typography="" idBalloon="LAMISSEB_LESNOEILS1_024_balloon_3" textType="speech">JE NE SAIS PAS POURQUOI, JE</metadata>
        </polygon>
        <polygon points="278,1811 797,1811 797,1847 278,1847 278,1811" id="LAMISSEB_LESNOEILS1_024_line_5">
            <metadata method="" typography="" idBalloon="LAMISSEB_LESNOEILS1_024_balloon_3" textType="speech">NE ME SENS PAS A MA PLACE ICI.</metadata>
        </polygon>
        <polygon points="979,1761 1463,1761 1463,1800 979,1800 979,1761" id="LAMISSEB_LESNOEILS1_024_line_6">
            <metadata method="" typography="" idBalloon="LAMISSEB_LESNOEILS1_024_balloon_4" textType="speech">MONSIEUR? VOUS NE POUVEZ</metadata>
        </polygon>
        <polygon points="987,1806 1454,1806 1454,1845 987,1845 987,1806" id="LAMISSEB_LESNOEILS1_024_line_7">
            <metadata method="" typography="" idBalloon="LAMISSEB_LESNOEILS1_024_balloon_4" textType="speech">PAS PRESTER LA, C'EST UNE</metadata>
        </polygon>
        <polygon points="1067,1854 1370,1854 1370,1885 1067,1885 1067,1854" id="LAMISSEB_LESNOEILS1_024_line_8">
            <metadata method="" typography="" idBalloon="LAMISSEB_LESNOEILS1_024_balloon_4" textType="speech">PLAGE NATURISTE.</metadata>
        </polygon>
        <polygon points="1668,1755 2180,1755 2180,1794 1668,1794 1668,1755" id="LAMISSEB_LESNOEILS1_024_line_9">
            <metadata method="" typography="" idBalloon="LAMISSEB_LESNOEILS1_024_balloon_5" textType="speech">OH MINCE! COMMENT AI-JE PU</metadata>
        </polygon>
        <polygon points="1657,1802 2194,1802 2194,1837 1657,1837 1657,1802" id="LAMISSEB_LESNOEILS1_024_line_10">
            <metadata method="" typography="" idBalloon="LAMISSEB_LESNOEILS1_024_balloon_5" textType="speech">NE PAS M'EN RENDRE COMPTE ?</metadata>
        </polygon>
        <polygon points="406,2541 662,2541 662,2582 406,2582 406,2541" id="LAMISSEB_LESNOEILS1_024_line_11">
            <metadata method="" typography="" idBalloon="LAMISSEB_LESNOEILS1_024_balloon_6" textType="speech">OH MON DIEU !</metadata>
        </polygon>
        <polygon points="350,2591 715,2591 715,2628 350,2628 350,2591" id="LAMISSEB_LESNOEILS1_024_line_12">
            <metadata method="" typography="" idBalloon="LAMISSEB_LESNOEILS1_024_balloon_6" textType="speech">QU'EST-CE QUE T'AS</metadata>
        </polygon>
        <polygon points="383,2633 683,2633 683,2672 383,2672 383,2633" id="LAMISSEB_LESNOEILS1_024_line_13">
            <metadata method="" typography="" idBalloon="LAMISSEB_LESNOEILS1_024_balloon_6" textType="speech">A LA PAUPIERE ?!</metadata>
        </polygon>
        <polygon points="1024,2540 1412,2540 1412,2581 1024,2581 1024,2540" id="LAMISSEB_LESNOEILS1_024_line_14">
            <metadata method="" typography="" idBalloon="LAMISSEB_LESNOEILS1_024_balloon_7" textType="speech">C'EST QFFREUX! T'AS</metadata>
        </polygon>
        <polygon points="1052,2591 1387,2591 1387,2624 1052,2624 1052,2591" id="LAMISSEB_LESNOEILS1_024_line_15">
            <metadata method="" typography="" idBalloon="LAMISSEB_LESNOEILS1_024_balloon_7" textType="speech">VU UN OPHTALMO ?</metadata>
        </polygon>
        <polygon points="1675,2536 2179,2536 2179,2574 1675,2574 1675,2536" id="LAMISSEB_LESNOEILS1_024_line_16">
            <metadata method="" typography="" idBalloon="LAMISSEB_LESNOEILS1_024_balloon_8" textType="speech">ARRETE AVEC TES SARCASMES</metadata>
        </polygon>
        <polygon points="1707,2583 2145,2583 2145,2615 1707,2615 1707,2583" id="LAMISSEB_LESNOEILS1_024_line_17">
            <metadata method="" typography="" idBalloon="LAMISSEB_LESNOEILS1_024_balloon_8" textType="speech">ET AIDE-MOI A VIRER CETTE</metadata>
        </polygon>
        <polygon points="1772,2628 2083,2628 2083,2662 1772,2662 1772,2628" id="LAMISSEB_LESNOEILS1_024_line_18">
            <metadata method="" typography="" idBalloon="LAMISSEB_LESNOEILS1_024_balloon_8" textType="speech">FICHUE MEDUSE !!!</metadata>
        </polygon>
        <polygon points="2175,3229 2349,3229 2349,3294 2175,3294 2175,3229" id="LAMISSEB_LESNOEILS1_024_line_19">
            <metadata method="" typography="" textType="note">Lamisseb</metadata>
        </polygon>
        <polygon points="1202,3298 1270,3298 1270,3346 1202,3346 1202,3298" id="LAMISSEB_LESNOEILS1_024_line_20">
            <metadata method="" typography="" textType="speech">24</metadata>
        </polygon>
    </svg>
    <svg contentScriptType="text/ecmascript" zoomAndPan="magnify" contentStyleType="text/css" class="linkSBSC" preserveAspectRatio="xMidYMid meet" version="1.0">
    <polygon points="1206,1117 1207,1117 1122,1436 1121,1436 1206,1117" idCharacter="LAMISSEB_LESNOEILS1_024_character_3" idBalloon="LAMISSEB_LESNOEILS1_024_balloon_1"/>
    <polygon points="1914,1081 1915,1081 1837,1419 1836,1419 1914,1081" idCharacter="LAMISSEB_LESNOEILS1_024_character_4" idBalloon="LAMISSEB_LESNOEILS1_024_balloon_2"/>
    <polygon points="536,1916 537,1916 516,2241 515,2241 536,1916" idCharacter="LAMISSEB_LESNOEILS1_024_character_9" idBalloon="LAMISSEB_LESNOEILS1_024_balloon_3"/>
    <polygon points="1223,1922 1224,1922 1072,2245 1071,2245 1223,1922" idCharacter="LAMISSEB_LESNOEILS1_024_character_8" idBalloon="LAMISSEB_LESNOEILS1_024_balloon_4"/>
    <polygon points="1923,1896 1924,1896 2018,2237 2017,2237 1923,1896" idCharacter="LAMISSEB_LESNOEILS1_024_character_5" idBalloon="LAMISSEB_LESNOEILS1_024_balloon_5"/>
    <polygon points="534,2682 535,2682 535,2992 534,2992 534,2682" idCharacter="LAMISSEB_LESNOEILS1_024_character_10" idBalloon="LAMISSEB_LESNOEILS1_024_balloon_6"/>
    <polygon points="1220,2677 1221,2677 1220,2982 1219,2982 1220,2677" idCharacter="LAMISSEB_LESNOEILS1_024_character_11" idBalloon="LAMISSEB_LESNOEILS1_024_balloon_7"/>
    <polygon points="1925,2718 1926,2718 1913,2973 1912,2973 1925,2718" idCharacter="LAMISSEB_LESNOEILS1_024_character_12" idBalloon="LAMISSEB_LESNOEILS1_024_balloon_8"/>
  </svg>
<metadata method="GroundTruth" lastModificationDate="Sat Jan 25 18:19:36 CET 2014" lastStepModified="Balloon_Rank"/>
</svg>