<?xml version="1.0" encoding="UTF-8" standalone="no"?>
<svg xmlns:xlink="http://www.w3.org/1999/xlink" xmlns="http://www.w3.org/2000/svg" contentScriptType="text/ecmascript"
     width="1230mm" zoomAndPan="magnify" contentStyleType="text/css" height="1699mm" viewBox="0 0 2461 3398"
     preserveAspectRatio="xMidYMid meet" version="1.0">
    <title>LAMISSEB_LESNOEILS1_020</title>
    <svg contentScriptType="text/ecmascript" zoomAndPan="magnify" contentStyleType="text/css" class="Page"
         preserveAspectRatio="xMidYMid meet" version="1.0">
        <image x="0" y="0" fill-opacity="0.5" width="2461" xlink:href="../Pages/LAMISSEB_LESNOEILS1_020.jpg"
               xlink:type="simple" xlink:actuate="onLoad" height="3398" opacity="0.5"
               preserveAspectRatio="xMidYMid meet" xlink:show="embed"/>
        <metadata collectionTitle="Les Noeils" editorName="Bac@BD" doublePage="false"
                  website="http://les-noeils.webcomics.fr/archives" albumTitle="Tome 1" drawerName="Lamisseb"
                  language="french" resolution="600" ISBN="978-2953405859" readingDirection="leftToRight"
                  writerName="Lamisseb" releaseDate="2011" pageNumber="20"/>
    </svg>
    <style type="text/css" xml:space="preserve">
        * { stroke-width: 0; stroke-linejoin: round; }
        .Unclassified { fill: orange; stroke: none; opacity: 1.0; visibility: hidden; }
        .Noise { fill: pink; stroke: none; opacity: 0.2; visibility: hidden; }
        .Panel { fill: red; stroke: none; opacity: 0.3; visibility: visible; image-rendering: optimizeSpeed; }
        .Line { fill: green; stroke: none; opacity: 0.5; visibility: visible; image-rendering: optimizeSpeed; }
        .TextArea { fill: grey; stroke: none; opacity: 0.2; visibility: visible; image-rendering: optimizeSpeed; }
        .Balloon { fill: cyan; stroke: none; opacity: 0.5; visibility: visible; image-rendering: optimizeSpeed; }
        .Letter { fill: blue; stroke: none; opacity: 0.2; visibility: hidden; }
        .Character { fill: yellow; stroke: none; opacity: 0.3; visibility: visible; image-rendering: optimizeSpeed; }
        .Page { fill: white; stroke: none; opacity: 0.5; visibility: visible; }
        .linkSBSC { fill: blue; stroke: none; opacity: 0.5; visibility: visible; }
        polygon:hover { stroke:red;stroke-width:2; } 
    </style>
    <svg contentScriptType="text/ecmascript" zoomAndPan="magnify" contentStyleType="text/css" class="Panel"
         preserveAspectRatio="xMidYMid meet" version="1.0">
        <polygon points="174,186 839,186 839,850 174,850 174,186" id="LAMISSEB_LESNOEILS1_020_panel_0">
            <metadata viewAngle="" shot="" rank="1"/>
        </polygon>
        <polygon points="876,181 1530,181 1530,845 876,845 876,181" id="LAMISSEB_LESNOEILS1_020_panel_1">
            <metadata viewAngle="" shot="" rank="2"/>
        </polygon>
        <polygon points="1558,166 2244,166 2244,837 1558,837 1558,166" id="LAMISSEB_LESNOEILS1_020_panel_2">
            <metadata viewAngle="" shot="" rank="3"/>
        </polygon>
        <polygon points="175,979 849,979 849,1640 175,1640 175,979" id="LAMISSEB_LESNOEILS1_020_panel_3">
            <metadata viewAngle="" shot="" rank="4"/>
        </polygon>
        <polygon points="885,974 1535,974 1535,1635 885,1635 885,974" id="LAMISSEB_LESNOEILS1_020_panel_4">
            <metadata viewAngle="" shot="" rank="5"/>
        </polygon>
        <polygon points="1568,965 2243,965 2243,1631 1568,1631 1568,965" id="LAMISSEB_LESNOEILS1_020_panel_5">
            <metadata viewAngle="" shot="" rank="6"/>
        </polygon>
        <polygon points="180,1759 849,1759 849,2424 180,2424 180,1759" id="LAMISSEB_LESNOEILS1_020_panel_6">
            <metadata viewAngle="" shot="" rank="7"/>
        </polygon>
        <polygon points="887,1755 1541,1755 1541,2419 887,2419 887,1755" id="LAMISSEB_LESNOEILS1_020_panel_7">
            <metadata viewAngle="" shot="" rank="8"/>
        </polygon>
        <polygon points="1575,1751 2249,1751 2249,2415 1575,2415 1575,1751" id="LAMISSEB_LESNOEILS1_020_panel_8">
            <metadata viewAngle="" shot="" rank="9"/>
        </polygon>
        <polygon points="189,2550 858,2550 858,3210 189,3210 189,2550" id="LAMISSEB_LESNOEILS1_020_panel_9">
            <metadata viewAngle="" shot="" rank="10"/>
        </polygon>
        <polygon points="893,2544 1549,2544 1549,3210 893,3210 893,2544" id="LAMISSEB_LESNOEILS1_020_panel_10">
            <metadata viewAngle="" shot="" rank="11"/>
        </polygon>
        <polygon points="1581,2540 2253,2540 2253,3210 1581,3210 1581,2540" id="LAMISSEB_LESNOEILS1_020_panel_11">
            <metadata viewAngle="" shot="" rank="12"/>
        </polygon>
    </svg>
    <svg contentScriptType="text/ecmascript" zoomAndPan="magnify" contentStyleType="text/css" class="TextArea"
         preserveAspectRatio="xMidYMid meet" version="1.0"/>
    <svg contentScriptType="text/ecmascript" zoomAndPan="magnify" contentStyleType="text/css" class="Balloon"
         preserveAspectRatio="xMidYMid meet" version="1.0">
        <polygon
                points="229,248 229,152 351,150 391,148 453,151 580,146 695,147 779,148 779,190 782,245 524,252 536,294 542,370 534,441 519,516 497,551 512,494 520,426 508,358 489,299 464,250 229,248"
                id="LAMISSEB_LESNOEILS1_020_balloon_0">
            <metadata borderStyle="smooth" tailTip="497,551" boundingBox="" tailDirection="SW" rank="1"/>
        </polygon>
        <polygon
                points="1754,137 1980,132 1981,232 1910,237 1927,264 1936,309 1940,358 1934,426 1923,477 1912,510 1897,537 1905,497 1914,417 1908,348 1891,301 1869,260 1845,235 1754,234 1754,137"
                id="LAMISSEB_LESNOEILS1_020_balloon_1">
            <metadata borderStyle="smooth" tailTip="1897,537" boundingBox="" tailDirection="SW" rank="2"/>
        </polygon>
        <polygon
                points="232,940 477,940 485,988 479,1075 427,1078 436,1126 434,1179 425,1227 411,1272 390,1295 400,1235 402,1187 397,1147 382,1106 364,1078 224,1070 232,940"
                id="LAMISSEB_LESNOEILS1_020_balloon_2">
            <metadata borderStyle="smooth" tailTip="390,1295" boundingBox="" tailDirection="S" rank="3"/>
        </polygon>
        <polygon
                points="465,905 564,918 635,922 696,921 744,917 796,908 784,935 770,961 762,1006 762,1047 764,1076 770,1100 779,1126 753,1124 702,1112 668,1112 648,1111 619,1136 582,1168 558,1196 549,1210 547,1219 560,1219 582,1218 589,1222 587,1232 573,1249 546,1267 518,1285 514,1298 522,1311 555,1337 548,1337 532,1330 505,1310 486,1303 483,1290 510,1267 536,1248 549,1239 543,1235 515,1230 501,1228 495,1214 521,1180 546,1146 559,1115 532,1115 487,1126 468,1126 478,1077 483,1027 482,977 465,905"
                id="LAMISSEB_LESNOEILS1_020_balloon_3">
            <metadata borderStyle="smooth" tailTip="548,1337" boundingBox="" tailDirection="SE" rank="4"/>
        </polygon>
        <polygon
                points="965,933 1117,931 1207,928 1279,933 1351,928 1465,929 1467,968 1467,1043 1468,1119 1399,1123 1283,1123 1239,1153 1204,1187 1194,1205 1202,1212 1243,1208 1259,1208 1270,1217 1259,1231 1228,1250 1207,1262 1201,1277 1215,1295 1241,1317 1212,1311 1171,1294 1170,1277 1188,1260 1216,1238 1226,1228 1184,1236 1155,1239 1153,1225 1181,1182 1197,1150 1200,1127 960,1126 965,933"
                id="LAMISSEB_LESNOEILS1_020_balloon_4">
            <metadata borderStyle="smooth" tailTip="1241,1317" boundingBox="" tailDirection="SE" rank="5"/>
        </polygon>
        <polygon
                points="1595,923 1693,922 1802,924 1952,923 2094,923 2163,922 2225,922 2220,1020 2217,1114 2134,1113 2062,1114 2068,1157 2089,1206 2088,1233 2067,1243 2036,1248 2037,1268 2045,1290 2039,1316 2016,1332 1990,1339 1991,1356 1998,1387 1980,1365 1971,1330 1986,1319 2014,1310 2018,1298 2012,1275 2009,1246 2018,1225 2042,1224 2055,1225 2059,1203 2046,1172 2024,1140 1993,1117 1838,1115 1707,1111 1644,1118 1594,1114 1595,923"
                id="LAMISSEB_LESNOEILS1_020_balloon_5">
            <metadata borderStyle="smooth" tailTip="1998,1387" boundingBox="" tailDirection="SE" rank="6"/>
        </polygon>
        <polygon
                points="1633,1142 1979,1141 1974,1275 1762,1281 1741,1300 1730,1318 1721,1341 1736,1365 1716,1365 1701,1326 1696,1291 1703,1278 1632,1279 1630,1149 1633,1142"
                id="LAMISSEB_LESNOEILS1_020_balloon_6">
            <metadata borderStyle="smooth" tailTip="1736,1365" boundingBox="" tailDirection="SE" rank="7"/>
        </polygon>
        <polygon
                points="243,1724 552,1723 551,1802 452,1813 460,1989 459,2022 451,2061 439,2093 417,2135 429,2074 434,2017 435,1990 407,1881 390,1850 373,1829 366,1820 243,1821 243,1724"
                id="LAMISSEB_LESNOEILS1_020_balloon_7">
            <metadata borderStyle="smooth" tailTip="417,2135" boundingBox="" tailDirection="S" rank="8"/>
        </polygon>
        <polygon
                points="411,1805 488,1799 627,1804 714,1798 763,1799 800,1801 789,1874 789,1942 791,1979 600,1986 573,2018 558,2052 559,2089 568,2120 576,2141 558,2128 542,2098 530,2053 530,2019 537,1985 412,1986 411,1805"
                id="LAMISSEB_LESNOEILS1_020_balloon_8">
            <metadata borderStyle="smooth" tailTip="576,2141" boundingBox="" tailDirection="SE" rank="9"/>
        </polygon>
        <polygon
                points="950,1722 1475,1717 1473,1859 1478,2002 1371,2004 1248,2005 1248,2058 1259,2104 1285,2141 1247,2123 1207,2059 1193,2007 1084,2008 947,2005 950,1722"
                id="LAMISSEB_LESNOEILS1_020_balloon_9">
            <metadata borderStyle="smooth" tailTip="1285,2141" boundingBox="" tailDirection="SE" rank="10"/>
        </polygon>
        <polygon
                points="1718,1710 2104,1710 2106,1792 2103,1860 1917,1864 1876,1966 1842,2023 1796,2080 1831,2007 1856,1941 1860,1892 1853,1865 1718,1860 1718,1710"
                id="LAMISSEB_LESNOEILS1_020_balloon_10">
            <metadata borderStyle="smooth" tailTip="1796,2080" boundingBox="" tailDirection="SW" rank="11"/>
        </polygon>
        <polygon
                points="293,2505 436,2503 546,2509 610,2506 680,2507 759,2510 759,2586 755,2643 758,2688 651,2689 570,2690 552,2742 553,2795 568,2848 610,2906 606,2910 574,2885 547,2842 524,2794 513,2750 511,2713 515,2692 291,2689 293,2505"
                id="LAMISSEB_LESNOEILS1_020_balloon_11">
            <metadata borderStyle="smooth" tailTip="606,2910" boundingBox="" tailDirection="SE" rank="12"/>
        </polygon>
        <polygon
                points="1050,2505 1363,2503 1361,2602 1237,2610 1228,2683 1207,2745 1179,2808 1159,2850 1118,2899 1155,2822 1180,2750 1187,2700 1189,2651 1185,2611 1050,2608 1050,2505"
                id="LAMISSEB_LESNOEILS1_020_balloon_12">
            <metadata borderStyle="smooth" tailTip="1118,2899" boundingBox="" tailDirection="SW" rank="13"/>
        </polygon>
        <polygon
                points="1766,2473 1823,2492 1882,2470 1930,2470 1966,2490 2002,2477 2043,2469 2068,2469 2094,2477 2099,2483 2129,2478 2181,2485 2201,2501 2211,2528 2206,2557 2190,2584 2204,2608 2205,2643 2200,2677 2190,2685 2205,2711 2194,2754 2171,2784 2148,2793 2114,2794 2080,2788 2061,2799 2033,2804 2013,2807 2005,2805 1990,2828 2000,2849 2016,2873 2029,2911 2020,2933 1997,2928 1964,2884 1939,2844 1919,2837 1909,2819 1868,2824 1823,2820 1800,2807 1781,2794 1757,2800 1718,2798 1694,2792 1678,2781 1674,2758 1677,2748 1662,2717 1656,2663 1657,2619 1674,2578 1673,2556 1678,2526 1702,2499 1720,2488 1766,2473"
                id="LAMISSEB_LESNOEILS1_020_balloon_13">
            <metadata borderStyle="wavy" tailTip="2020,2933" boundingBox="" tailDirection="SE" rank="14"/>
        </polygon>
    </svg>
    <svg contentScriptType="text/ecmascript" zoomAndPan="magnify" contentStyleType="text/css" class="Character"
         preserveAspectRatio="xMidYMid meet" version="1.0">
        <polygon points="356,578 561,578 561,799 356,799 356,578" id="LAMISSEB_LESNOEILS1_020_character_0">
            <metadata uri="" area="" fillingPcent=""/>
        </polygon>
        <polygon points="623,576 804,576 804,792 623,792 623,576" id="LAMISSEB_LESNOEILS1_020_character_1">
            <metadata uri="" area="" fillingPcent=""/>
        </polygon>
        <polygon points="1033,545 1232,545 1232,757 1033,757 1033,545" id="LAMISSEB_LESNOEILS1_020_character_2">
            <metadata uri="" area="" fillingPcent=""/>
        </polygon>
        <polygon points="1293,560 1488,560 1488,777 1293,777 1293,560" id="LAMISSEB_LESNOEILS1_020_character_3">
            <metadata uri="" area="" fillingPcent=""/>
        </polygon>
        <polygon points="1741,545 1929,545 1929,761 1741,761 1741,545" id="LAMISSEB_LESNOEILS1_020_character_4">
            <metadata uri="" area="" fillingPcent=""/>
        </polygon>
        <polygon points="2145,558 2244,558 2244,744 2145,744 2145,558" id="LAMISSEB_LESNOEILS1_020_character_5">
            <metadata uri="" area="" fillingPcent=""/>
        </polygon>
        <polygon points="250,1297 492,1297 492,1558 250,1558 250,1297" id="LAMISSEB_LESNOEILS1_020_character_6">
            <metadata uri="" area="" fillingPcent=""/>
        </polygon>
        <polygon points="543,1300 790,1300 790,1551 543,1551 543,1300" id="LAMISSEB_LESNOEILS1_020_character_7">
            <metadata uri="" area="" fillingPcent=""/>
        </polygon>
        <polygon points="912,1317 1152,1317 1152,1544 912,1544 912,1317" id="LAMISSEB_LESNOEILS1_020_character_8">
            <metadata uri="" area="" fillingPcent=""/>
        </polygon>
        <polygon points="1203,1304 1459,1304 1459,1544 1203,1544 1203,1304" id="LAMISSEB_LESNOEILS1_020_character_9">
            <metadata uri="" area="" fillingPcent=""/>
        </polygon>
        <polygon points="1684,1368 1894,1368 1894,1620 1684,1620 1684,1368" id="LAMISSEB_LESNOEILS1_020_character_10">
            <metadata uri="" area="" fillingPcent=""/>
        </polygon>
        <polygon points="1962,1370 2178,1370 2178,1586 1962,1586 1962,1370" id="LAMISSEB_LESNOEILS1_020_character_11">
            <metadata uri="" area="" fillingPcent=""/>
        </polygon>
        <polygon points="234,2123 455,2123 455,2343 234,2343 234,2123" id="LAMISSEB_LESNOEILS1_020_character_12">
            <metadata uri="" area="" fillingPcent=""/>
        </polygon>
        <polygon points="559,2138 810,2138 810,2387 559,2387 559,2138" id="LAMISSEB_LESNOEILS1_020_character_13">
            <metadata uri="" area="" fillingPcent=""/>
        </polygon>
        <polygon points="914,2145 1130,2145 1130,2341 914,2341 914,2145" id="LAMISSEB_LESNOEILS1_020_character_14">
            <metadata uri="" area="" fillingPcent=""/>
        </polygon>
        <polygon points="1258,2140 1505,2140 1505,2350 1258,2350 1258,2140" id="LAMISSEB_LESNOEILS1_020_character_15">
            <metadata uri="" area="" fillingPcent=""/>
        </polygon>
        <polygon points="1605,2142 1819,2142 1819,2350 1605,2350 1605,2142" id="LAMISSEB_LESNOEILS1_020_character_16">
            <metadata uri="" area="" fillingPcent=""/>
        </polygon>
        <polygon points="1955,2123 2209,2123 2209,2328 1955,2328 1955,2123" id="LAMISSEB_LESNOEILS1_020_character_17">
            <metadata uri="" area="" fillingPcent=""/>
        </polygon>
        <polygon points="221,2932 439,2932 439,3113 221,3113 221,2932" id="LAMISSEB_LESNOEILS1_020_character_18">
            <metadata uri="" area="" fillingPcent=""/>
        </polygon>
        <polygon points="609,2926 806,2926 806,3122 609,3122 609,2926" id="LAMISSEB_LESNOEILS1_020_character_19">
            <metadata uri="" area="" fillingPcent=""/>
        </polygon>
        <polygon points="929,2915 1146,2915 1146,3116 929,3116 929,2915" id="LAMISSEB_LESNOEILS1_020_character_20">
            <metadata uri="" area="" fillingPcent=""/>
        </polygon>
        <polygon points="1296,2915 1527,2915 1527,3133 1296,3133 1296,2915" id="LAMISSEB_LESNOEILS1_020_character_21">
            <metadata uri="" area="" fillingPcent=""/>
        </polygon>
        <polygon points="1611,2926 1838,2926 1838,3120 1611,3120 1611,2926" id="LAMISSEB_LESNOEILS1_020_character_22">
            <metadata uri="" area="" fillingPcent=""/>
        </polygon>
        <polygon points="2008,2913 2196,2913 2196,3157 2008,3157 2008,2913" id="LAMISSEB_LESNOEILS1_020_character_23">
            <metadata uri="" area="" fillingPcent=""/>
        </polygon>
        <polygon points="1935,2559 2108,2559 2108,2729 1935,2729 1935,2559" id="LAMISSEB_LESNOEILS1_020_character_24">
            <metadata uri="" area="" fillingPcent=""/>
        </polygon>
    </svg>
    <svg contentScriptType="text/ecmascript" zoomAndPan="magnify" contentStyleType="text/css" class="Line"
         preserveAspectRatio="xMidYMid meet" version="1.0">
        <polygon points="258,183 745,183 745,219 258,219 258,183" id="LAMISSEB_LESNOEILS1_020_line_0">
            <metadata method="" typography="" idBalloon="LAMISSEB_LESNOEILS1_020_balloon_0" textType="speech">JE ME SUIS
                ACHETé UN VéLO.
            </metadata>
        </polygon>
        <polygon points="1811,175 1923,175 1923,206 1811,206 1811,175" id="LAMISSEB_LESNOEILS1_020_line_1">
            <metadata method="" typography="" idBalloon="LAMISSEB_LESNOEILS1_020_balloon_1" textType="speech">QUOI ?
            </metadata>
        </polygon>
        <polygon points="275,973 463,973 463,1004 275,1004 275,973" id="LAMISSEB_LESNOEILS1_020_line_2">
            <metadata method="" typography="" idBalloon="LAMISSEB_LESNOEILS1_020_balloon_2" textType="speech">JE ME
                SUIS
            </metadata>
        </polygon>
        <polygon points="287,1019 452,1019 452,1048 287,1048 287,1019" id="LAMISSEB_LESNOEILS1_020_line_3">
            <metadata method="" typography="" idBalloon="LAMISSEB_LESNOEILS1_020_balloon_2" textType="speech">ACHETé
                ...
            </metadata>
        </polygon>
        <polygon points="555,972 663,972 663,1010 555,1010 555,972" id="LAMISSEB_LESNOEILS1_020_line_4">
            <metadata method="" typography="" idBalloon="LAMISSEB_LESNOEILS1_020_balloon_3" textType="speech">QUOI
            </metadata>
        </polygon>
        <polygon points="510,1025 737,1025 737,1065 510,1065 510,1025" id="LAMISSEB_LESNOEILS1_020_line_5">
            <metadata method="" typography="" idBalloon="LAMISSEB_LESNOEILS1_020_balloon_3" textType="speech">ENCORE
                ?!
            </metadata>
        </polygon>
        <polygon points="998,972 1419,972 1419,1002 998,1002 998,972" id="LAMISSEB_LESNOEILS1_020_line_6">
            <metadata method="" typography="" idBalloon="LAMISSEB_LESNOEILS1_020_balloon_4" textType="speech">UNE PAIRE
                DE ROLLERS ?
            </metadata>
        </polygon>
        <polygon points="1004,1008 1426,1008 1426,1045 1004,1045 1004,1008" id="LAMISSEB_LESNOEILS1_020_line_7">
            <metadata method="" typography="" idBalloon="LAMISSEB_LESNOEILS1_020_balloon_4" textType="speech">UN RASOIR
                éLECTRIQUE ?
            </metadata>
        </polygon>
        <polygon points="1015,1055 1415,1055 1415,1088 1015,1088 1015,1055" id="LAMISSEB_LESNOEILS1_020_line_8">
            <metadata method="" typography="" idBalloon="LAMISSEB_LESNOEILS1_020_balloon_4" textType="speech">UNE BROSSE
                à DENTS ?
            </metadata>
        </polygon>
        <polygon points="1631,959 2197,959 2197,987 1631,987 1631,959" id="LAMISSEB_LESNOEILS1_020_line_9">
            <metadata method="" typography="" idBalloon="LAMISSEB_LESNOEILS1_020_balloon_5" textType="speech">UN
                PANTALON ? DES CHAUSSETTES ?
            </metadata>
        </polygon>
        <polygon points="1726,998 2102,998 2102,1034 1726,1034 1726,998" id="LAMISSEB_LESNOEILS1_020_line_10">
            <metadata method="" typography="" idBalloon="LAMISSEB_LESNOEILS1_020_balloon_5" textType="speech">UNE BOîTE
                DE CIGARES ?
            </metadata>
        </polygon>
        <polygon points="1667,1039 2166,1039 2166,1077 1667,1077 1667,1039" id="LAMISSEB_LESNOEILS1_020_line_11">
            <metadata method="" typography="" idBalloon="LAMISSEB_LESNOEILS1_020_balloon_5" textType="speech">DES
                PASTILLES à LA MENTHE ? ...
            </metadata>
        </polygon>
        <polygon points="1658,1177 1945,1177 1945,1205 1658,1205 1658,1177" id="LAMISSEB_LESNOEILS1_020_line_12">
            <metadata method="" typography="" idBalloon="LAMISSEB_LESNOEILS1_020_balloon_6" textType="speech">JE CROIS
                QUE JE
            </metadata>
        </polygon>
        <polygon points="1706,1215 1896,1215 1896,1252 1706,1252 1706,1215" id="LAMISSEB_LESNOEILS1_020_line_13">
            <metadata method="" typography="" idBalloon="LAMISSEB_LESNOEILS1_020_balloon_6" textType="speech">L'AI
                éNERVé.
            </metadata>
        </polygon>
        <polygon points="275,1750 497,1750 497,1787 275,1787 275,1750" id="LAMISSEB_LESNOEILS1_020_line_14">
            <metadata method="" typography="" idBalloon="LAMISSEB_LESNOEILS1_020_balloon_7" textType="speech">J'AI
                ACHETé ...
            </metadata>
        </polygon>
        <polygon points="461,1829 738,1829 738,1869 461,1869 461,1829" id="LAMISSEB_LESNOEILS1_020_line_15">
            <metadata method="" typography="" idBalloon="LAMISSEB_LESNOEILS1_020_balloon_8" textType="speech">éCOUTE,
                J'AI PAS
            </metadata>
        </polygon>
        <polygon points="440,1877 765,1877 765,1911 440,1911 440,1877" id="LAMISSEB_LESNOEILS1_020_line_16">
            <metadata method="" typography="" idBalloon="LAMISSEB_LESNOEILS1_020_balloon_8" textType="speech">ENVIE DE
                SAVOIR CE
            </metadata>
        </polygon>
        <polygon points="453,1914 753,1914 753,1952 453,1952 453,1914" id="LAMISSEB_LESNOEILS1_020_line_17">
            <metadata method="" typography="" idBalloon="LAMISSEB_LESNOEILS1_020_balloon_8" textType="speech">QUE T'AS
                ACHETé.
            </metadata>
        </polygon>
        <polygon points="1019,1755 1399,1755 1399,1785 1019,1785 1019,1755" id="LAMISSEB_LESNOEILS1_020_line_18">
            <metadata method="" typography="" idBalloon="LAMISSEB_LESNOEILS1_020_balloon_9" textType="speech">NON
                SEULEMENT PARCE
            </metadata>
        </polygon>
        <polygon points="987,1792 1435,1792 1435,1829 987,1829 987,1792" id="LAMISSEB_LESNOEILS1_020_line_19">
            <metadata method="" typography="" idBalloon="LAMISSEB_LESNOEILS1_020_balloon_9" textType="speech">QU'IL
                S'AGIT SûREMENT D'UN
            </metadata>
        </polygon>
        <polygon points="998,1837 1417,1837 1417,1876 998,1876 998,1837" id="LAMISSEB_LESNOEILS1_020_line_20">
            <metadata method="" typography="" idBalloon="LAMISSEB_LESNOEILS1_020_balloon_9" textType="speech">ACHAT
                DéBILE, MAIS AUSSI
            </metadata>
        </polygon>
        <polygon points="972,1882 1445,1882 1445,1918 972,1918 972,1882" id="LAMISSEB_LESNOEILS1_020_line_21">
            <metadata method="" typography="" idBalloon="LAMISSEB_LESNOEILS1_020_balloon_9" textType="speech">PARCE QUE
                JE M'EN FOUS DE
            </metadata>
        </polygon>
        <polygon points="1005,1924 1412,1924 1412,1960 1005,1960 1005,1924" id="LAMISSEB_LESNOEILS1_020_line_22">
            <metadata method="" typography="" idBalloon="LAMISSEB_LESNOEILS1_020_balloon_9" textType="speech">TA VIE.
                Lâche-MOI UN PEU.
            </metadata>
        </polygon>
        <polygon points="1779,1746 2019,1746 2019,1779 1779,1779 1779,1746" id="LAMISSEB_LESNOEILS1_020_line_23">
            <metadata method="" typography="" idBalloon="LAMISSEB_LESNOEILS1_020_balloon_10" textType="speech">... TON
                CADEAU
            </metadata>
        </polygon>
        <polygon points="1772,1789 2042,1789 2042,1826 1772,1826 1772,1789" id="LAMISSEB_LESNOEILS1_020_line_24">
            <metadata method="" typography="" idBalloon="LAMISSEB_LESNOEILS1_020_balloon_10" textType="speech">
                D'ANNIVERSAIRE.
            </metadata>
        </polygon>
        <polygon points="371,2540 679,2540 679,2569 371,2569 371,2540" id="LAMISSEB_LESNOEILS1_020_line_25">
            <metadata method="" typography="" idBalloon="LAMISSEB_LESNOEILS1_020_balloon_11" textType="speech">EUH...
                J'TE DEMANDE
            </metadata>
        </polygon>
        <polygon points="316,2578 736,2578 736,2620 316,2620 316,2578" id="LAMISSEB_LESNOEILS1_020_line_26">
            <metadata method="" typography="" idBalloon="LAMISSEB_LESNOEILS1_020_balloon_11" textType="speech">PARDON,
                JE ... C'EST TRèS
            </metadata>
        </polygon>
        <polygon points="336,2619 718,2619 718,2657 336,2657 336,2619" id="LAMISSEB_LESNOEILS1_020_line_27">
            <metadata method="" typography="" idBalloon="LAMISSEB_LESNOEILS1_020_balloon_11" textType="speech">GENTIL
                D'Y AVOIR PENSé.
            </metadata>
        </polygon>
        <polygon points="1092,2537 1322,2537 1322,2570 1092,2570 1092,2537" id="LAMISSEB_LESNOEILS1_020_line_28">
            <metadata method="" typography="" idBalloon="LAMISSEB_LESNOEILS1_020_balloon_12" textType="speech">çA TE
                PLAît ?
            </metadata>
        </polygon>
        <polygon points="1190,3301 1250,3301 1250,3339 1190,3339 1190,3301" id="LAMISSEB_LESNOEILS1_020_line_29">
            <metadata method="" typography="" textType="note">20</metadata>
        </polygon>
        <polygon points="2170,3212 2341,3212 2341,3271 2170,3271 2170,3212" id="LAMISSEB_LESNOEILS1_020_line_30">
            <metadata method="" typography="" textType="speech">Lamisseb</metadata>
        </polygon>
    </svg>
    <svg contentScriptType="text/ecmascript" zoomAndPan="magnify" contentStyleType="text/css" class="linkSBSC"
         preserveAspectRatio="xMidYMid meet" version="1.0">
        <polygon points="505,348 506,348 459,688 458,688 505,348" idCharacter="LAMISSEB_LESNOEILS1_020_character_0"
                 idBalloon="LAMISSEB_LESNOEILS1_020_balloon_0"/>
        <polygon points="1867,334 1868,334 1836,653 1835,653 1867,334" idCharacter="LAMISSEB_LESNOEILS1_020_character_4"
                 idBalloon="LAMISSEB_LESNOEILS1_020_balloon_1"/>
        <polygon points="354,1117 355,1117 372,1427 371,1427 354,1117" idCharacter="LAMISSEB_LESNOEILS1_020_character_6"
                 idBalloon="LAMISSEB_LESNOEILS1_020_balloon_2"/>
        <polygon points="630,1121 631,1121 667,1425 666,1425 630,1121" idCharacter="LAMISSEB_LESNOEILS1_020_character_7"
                 idBalloon="LAMISSEB_LESNOEILS1_020_balloon_3"/>
        <polygon points="1214,1122 1215,1122 1332,1424 1331,1424 1214,1122"
                 idCharacter="LAMISSEB_LESNOEILS1_020_character_9" idBalloon="LAMISSEB_LESNOEILS1_020_balloon_4"/>
        <polygon points="1804,1253 1805,1253 1790,1494 1789,1494 1804,1253"
                 idCharacter="LAMISSEB_LESNOEILS1_020_character_10" idBalloon="LAMISSEB_LESNOEILS1_020_balloon_6"/>
        <polygon points="1909,1154 1910,1154 2071,1478 2070,1478 1909,1154"
                 idCharacter="LAMISSEB_LESNOEILS1_020_character_11" idBalloon="LAMISSEB_LESNOEILS1_020_balloon_5"/>
        <polygon points="605,1969 606,1969 685,2262 684,2262 605,1969"
                 idCharacter="LAMISSEB_LESNOEILS1_020_character_13" idBalloon="LAMISSEB_LESNOEILS1_020_balloon_8"/>
        <polygon points="397,1929 398,1929 345,2233 344,2233 397,1929"
                 idCharacter="LAMISSEB_LESNOEILS1_020_character_12" idBalloon="LAMISSEB_LESNOEILS1_020_balloon_7"/>
        <polygon points="1212,1929 1213,1929 1382,2245 1381,2245 1212,1929"
                 idCharacter="LAMISSEB_LESNOEILS1_020_character_15" idBalloon="LAMISSEB_LESNOEILS1_020_balloon_9"/>
        <polygon points="1912,1895 1913,1895 1713,2246 1712,2246 1912,1895"
                 idCharacter="LAMISSEB_LESNOEILS1_020_character_16" idBalloon="LAMISSEB_LESNOEILS1_020_balloon_10"/>
        <polygon points="525,2706 526,2706 708,3024 707,3024 525,2706"
                 idCharacter="LAMISSEB_LESNOEILS1_020_character_19" idBalloon="LAMISSEB_LESNOEILS1_020_balloon_11"/>
        <polygon points="1206,2701 1207,2701 1038,3015 1037,3015 1206,2701"
                 idCharacter="LAMISSEB_LESNOEILS1_020_character_20" idBalloon="LAMISSEB_LESNOEILS1_020_balloon_12"/>
        <polygon points="1933,2701 1934,2701 2103,3035 2102,3035 1933,2701"
                 idCharacter="LAMISSEB_LESNOEILS1_020_character_23" idBalloon="LAMISSEB_LESNOEILS1_020_balloon_13"/>
    </svg>
    <metadata method="GroundTruth" lastModificationDate="Wed Feb 12 16:34:29 CET 2014" lastStepModified="Balloon_Rank"/>
</svg>