<?xml version="1.0" encoding="UTF-8" standalone="no"?>
<svg xmlns="http://www.w3.org/2000/svg" xmlns:xlink="http://www.w3.org/1999/xlink" contentScriptType="text/ecmascript" width="400mm" zoomAndPan="magnify" contentStyleType="text/css" height="150mm" viewBox="0 0 800 301" preserveAspectRatio="xMidYMid meet" version="1.0">
    <title>LAMISSEB_ETPISTAF_017</title>
    <svg contentScriptType="text/ecmascript" zoomAndPan="magnify" contentStyleType="text/css" class="Page" preserveAspectRatio="xMidYMid meet" version="1.0">
        <image x="0" y="0" fill-opacity="0.5" width="800" xlink:href="../Pages/LAMISSEB_ETPISTAF_017.jpg" xlink:type="simple" xlink:actuate="onLoad" height="301" opacity="0.5" preserveAspectRatio="xMidYMid meet" xlink:show="embed"/>
        <metadata collectionTitle="Et Pis Taf !" editorName="" doublePage="false" website="http://et-pis-taf.webcomics.fr/archives" albumTitle="Volume 1" drawerName="Lamisseb" language="french" resolution="" ISBN="" readingDirection="leftToRight" writerName="Lamisseb" releaseDate="2012" pageNumber="17"/>
    </svg>
	<style type="text/css" xml:space="preserve">
        * { stroke-width: 0; stroke-linejoin: round; }
        .Unclassified { fill: orange; stroke: none; opacity: 1.0; visibility: hidden; }
        .Noise { fill: pink; stroke: none; opacity: 0.2; visibility: hidden; }
        .Panel { fill: red; stroke: none; opacity: 0.3; visibility: visible; image-rendering: optimizeSpeed; }
        .Line { fill: green; stroke: none; opacity: 0.5; visibility: visible; image-rendering: optimizeSpeed; }
        .TextArea { fill: grey; stroke: none; opacity: 0.2; visibility: visible; image-rendering: optimizeSpeed; }
        .Balloon { fill: cyan; stroke: none; opacity: 0.5; visibility: visible; image-rendering: optimizeSpeed; }
        .Letter { fill: blue; stroke: none; opacity: 0.2; visibility: hidden; }
        .Character { fill: yellow; stroke: none; opacity: 0.3; visibility: visible; image-rendering: optimizeSpeed; }
        .Page { fill: white; stroke: none; opacity: 0.5; visibility: visible; }
        .linkSBSC { fill: blue; stroke: none; opacity: 0.5; visibility: visible; }
        polygon:hover { stroke:red;stroke-width:2; } 
    </style><svg contentScriptType="text/ecmascript" zoomAndPan="magnify" contentStyleType="text/css" class="Panel" preserveAspectRatio="xMidYMid meet" version="1.0">
        <polygon points="21,38 250,38 250,287 21,287 21,38" id="LAMISSEB_ETPISTAF_017_panel_0">
            <metadata viewAngle="" shot="" rank="1"/>
        </polygon>
        <polygon points="260,37 491,39 489,286 260,286 260,37" id="LAMISSEB_ETPISTAF_017_panel_1">
            <metadata viewAngle="" shot="" rank="2"/>
        </polygon>
        <polygon points="489,146 771,146 771,275 489,275 489,146" id="LAMISSEB_ETPISTAF_017_panel_2">
            <metadata viewAngle="" shot="" rank="3"/>
        </polygon>
    </svg>
    <svg contentScriptType="text/ecmascript" zoomAndPan="magnify" contentStyleType="text/css" class="TextArea" preserveAspectRatio="xMidYMid meet" version="1.0"/>
    <svg contentScriptType="text/ecmascript" zoomAndPan="magnify" contentStyleType="text/css" class="Balloon" preserveAspectRatio="xMidYMid meet" version="1.0">
        <polygon points="538,12 607,12 659,11 692,9 708,10 716,13 721,16 728,24 730,32 729,42 727,48 723,54 715,58 706,60 691,60 678,60 658,61 646,61 637,61 642,70 643,74 649,85 636,74 624,61 606,61 585,62 571,63 558,62 547,61 540,59 533,53 527,44 525,33 529,21 538,12" id="LAMISSEB_ETPISTAF_017_balloon_0">
            <metadata borderStyle="smooth" tailTip="649,85" boundingBox="" tailDirection="SE" rank="1"/>
        </polygon>
        <polygon id="LAMISSEB_ETPISTAF_017_balloon_1" points="604,84 629,82 638,83 656,82 674,83 696,84 709,84 729,83 750,82 772,84 780,87 785,94 789,104 791,113 789,121 785,128 779,132 762,133 745,133 730,133 710,133 696,132 686,133 677,132 677,138 677,143 675,147 671,151 665,154 635,166 652,156 663,149 668,144 668,139 663,134 656,132 648,132 635,132 626,133 616,132 608,130 601,127 595,123 591,116 589,106 590,98 593,90 604,84">
            <metadata borderStyle="smooth" tailTip="635,166" boundingBox="" tailDirection="SW" rank="2"/>
        </polygon>
    </svg>
    <svg contentScriptType="text/ecmascript" zoomAndPan="magnify" contentStyleType="text/css" class="Character" preserveAspectRatio="xMidYMid meet" version="1.0">
        <polygon points="35,47 217,47 217,231 35,231 35,47" id="LAMISSEB_ETPISTAF_017_character_0">
            <metadata uri="" area="" fillingPcent=""/>
        </polygon>
        <polygon points="280,47 447,47 447,226 280,226 280,47" id="LAMISSEB_ETPISTAF_017_character_1">
            <metadata uri="" area="" fillingPcent=""/>
        </polygon>
        <polygon points="562,144 621,144 621,274 562,274 562,144" id="LAMISSEB_ETPISTAF_017_character_2">
            <metadata uri="" area="" fillingPcent=""/>
        </polygon>
        <polygon points="500,144 554,144 554,272 500,272 500,144" id="LAMISSEB_ETPISTAF_017_character_3">
            <metadata uri="" area="" fillingPcent=""/>
        </polygon>
    </svg>
    <svg contentScriptType="text/ecmascript" zoomAndPan="magnify" contentStyleType="text/css" class="Line" preserveAspectRatio="xMidYMid meet" version="1.0">
        <polygon points="11,235 244,235 244,281 11,281 11,235" id="LAMISSEB_ETPISTAF_017_line_0">
            <metadata method="" typography="" textType="onomatopoeia">CLAQUETI CLAQUETI</metadata>
        </polygon>
        <polygon points="254,237 484,237 484,283 254,283 254,237" id="LAMISSEB_ETPISTAF_017_line_1">
            <metadata method="" typography="" textType="onomatopoeia">CLAQUETI CLAQUETI</metadata>
        </polygon>
        <polygon points="543,22 710,22 710,34 543,34 543,22" id="LAMISSEB_ETPISTAF_017_line_2">
            <metadata method="" typography="" idBalloon="LAMISSEB_ETPISTAF_017_balloon_0" textType="speech">ON A TOUS CRU QU'IL NOUS </metadata>
        </polygon>
        <polygon points="561,38 691,38 691,49 561,49 561,38" id="LAMISSEB_ETPISTAF_017_line_3">
            <metadata method="" typography="" idBalloon="LAMISSEB_ETPISTAF_017_balloon_0" textType="speech">FAISAIT SON NUMERO.</metadata>
        </polygon>
        <polygon points="609,92 770,92 770,105 609,105 609,92" id="LAMISSEB_ETPISTAF_017_line_4">
            <metadata method="" typography="" idBalloon="LAMISSEB_ETPISTAF_017_balloon_1" textType="speech">JE N'AI PAS PENSE QUE JE</metadata>
        </polygon>
        <polygon points="601,109 777,109 777,120 601,120 601,109" id="LAMISSEB_ETPISTAF_017_line_5">
            <metadata method="" typography="" idBalloon="LAMISSEB_ETPISTAF_017_balloon_1" textType="speech">VENAIS DE CIRER LE PARQUET.</metadata>
        </polygon>
    </svg>
    <svg contentScriptType="text/ecmascript" zoomAndPan="magnify" contentStyleType="text/css" class="linkSBSC" preserveAspectRatio="xMidYMid meet" version="1.0">
    <polygon points="690,124 691,124 592,209 591,209 690,124" idCharacter="LAMISSEB_ETPISTAF_017_character_2" idBalloon="LAMISSEB_ETPISTAF_017_balloon_1"/>
    <polygon points="627,47 628,47 592,209 591,209 627,47" idCharacter="LAMISSEB_ETPISTAF_017_character_2" idBalloon="LAMISSEB_ETPISTAF_017_balloon_0"/>
  </svg>
<metadata method="GroundTruth" lastModificationDate="Wed Feb 26 22:32:33 CET 2014" lastStepModified="Balloon_Rank"/>
</svg>