<?xml version="1.0" encoding="UTF-8" standalone="no"?>
<svg xmlns:xlink="http://www.w3.org/1999/xlink" xmlns="http://www.w3.org/2000/svg" contentScriptType="text/ecmascript"
     width="1230mm" zoomAndPan="magnify" contentStyleType="text/css" height="1705mm" viewBox="0 0 2461 3411"
     preserveAspectRatio="xMidYMid meet" version="1.0">
    <title>LAMISSEB_LESNOEILS1_012</title>
    <svg contentScriptType="text/ecmascript" zoomAndPan="magnify" contentStyleType="text/css" class="Page"
         preserveAspectRatio="xMidYMid meet" version="1.0">
        <image x="0" y="0" fill-opacity="0.5" width="2461" xlink:href="../Pages/LAMISSEB_LESNOEILS1_012.jpg"
               xlink:type="simple" xlink:actuate="onLoad" height="3411" opacity="0.5"
               preserveAspectRatio="xMidYMid meet" xlink:show="embed"/>
        <metadata collectionTitle="Les Noeils" editorName="Bac@BD" doublePage="false"
                  website="http://les-noeils.webcomics.fr/archives" albumTitle="Tome 1" drawerName="Lamisseb"
                  language="french" resolution="600" ISBN="978-2953405859" readingDirection="leftToRight"
                  writerName="Lamisseb" releaseDate="2011" pageNumber="12"/>
    </svg>
    <style type="text/css" xml:space="preserve">
        * { stroke-width: 0; stroke-linejoin: round; }
        .Unclassified { fill: orange; stroke: none; opacity: 1.0; visibility: hidden; }
        .Noise { fill: pink; stroke: none; opacity: 0.2; visibility: hidden; }
        .Panel { fill: red; stroke: none; opacity: 0.3; visibility: visible; image-rendering: optimizeSpeed; }
        .Line { fill: green; stroke: none; opacity: 0.5; visibility: visible; image-rendering: optimizeSpeed; }
        .TextArea { fill: grey; stroke: none; opacity: 0.2; visibility: visible; image-rendering: optimizeSpeed; }
        .Balloon { fill: cyan; stroke: none; opacity: 0.5; visibility: visible; image-rendering: optimizeSpeed; }
        .Letter { fill: blue; stroke: none; opacity: 0.2; visibility: hidden; }
        .Character { fill: yellow; stroke: none; opacity: 0.3; visibility: visible; image-rendering: optimizeSpeed; }
        .Page { fill: white; stroke: none; opacity: 0.5; visibility: visible; }
        .linkSBSC { fill: blue; stroke: none; opacity: 0.5; visibility: visible; }
        polygon:hover { stroke:red;stroke-width:2; } 
    </style>
    <svg contentScriptType="text/ecmascript" zoomAndPan="magnify" contentStyleType="text/css" class="Panel"
         preserveAspectRatio="xMidYMid meet" version="1.0">
        <polygon points="245,181 909,181 909,836 245,836 245,181" id="LAMISSEB_LESNOEILS1_012_panel_0">
            <metadata viewAngle="" shot="" rank="1"/>
        </polygon>
        <polygon points="947,173 1594,173 1594,828 947,828 947,173" id="LAMISSEB_LESNOEILS1_012_panel_1">
            <metadata viewAngle="" shot="" rank="2"/>
        </polygon>
        <polygon points="1640,160 2316,160 2316,819 1640,819 1640,160" id="LAMISSEB_LESNOEILS1_012_panel_2">
            <metadata viewAngle="" shot="" rank="3"/>
        </polygon>
        <polygon points="249,967 909,967 909,1618 249,1618 249,967" id="LAMISSEB_LESNOEILS1_012_panel_3">
            <metadata viewAngle="" shot="" rank="4"/>
        </polygon>
        <polygon points="951,959 1598,959 1598,1614 951,1614 951,959" id="LAMISSEB_LESNOEILS1_012_panel_4">
            <metadata viewAngle="" shot="" rank="5"/>
        </polygon>
        <polygon points="1642,949 2316,949 2316,1614 1642,1614 1642,949" id="LAMISSEB_LESNOEILS1_012_panel_5">
            <metadata viewAngle="" shot="" rank="6"/>
        </polygon>
        <polygon points="251,1752 915,1752 915,2405 251,2405 251,1752" id="LAMISSEB_LESNOEILS1_012_panel_6">
            <metadata viewAngle="" shot="" rank="7"/>
        </polygon>
        <polygon points="954,1749 1603,1749 1603,2405 954,2405 954,1749" id="LAMISSEB_LESNOEILS1_012_panel_7">
            <metadata viewAngle="" shot="" rank="8"/>
        </polygon>
        <polygon points="1642,1737 2316,1737 2316,2402 1642,2402 1642,1737" id="LAMISSEB_LESNOEILS1_012_panel_8">
            <metadata viewAngle="" shot="" rank="9"/>
        </polygon>
        <polygon points="257,2537 915,2537 915,3193 257,3193 257,2537" id="LAMISSEB_LESNOEILS1_012_panel_9">
            <metadata viewAngle="" shot="" rank="10"/>
        </polygon>
        <polygon points="957,2537 1606,2537 1606,3196 957,3196 957,2537" id="LAMISSEB_LESNOEILS1_012_panel_10">
            <metadata viewAngle="" shot="" rank="11"/>
        </polygon>
        <polygon points="1648,2534 2322,2534 2322,3186 1648,3186 1648,2534" id="LAMISSEB_LESNOEILS1_012_panel_11">
            <metadata viewAngle="" shot="" rank="12"/>
        </polygon>
    </svg>
    <svg contentScriptType="text/ecmascript" zoomAndPan="magnify" contentStyleType="text/css" class="TextArea"
         preserveAspectRatio="xMidYMid meet" version="1.0"/>
    <svg contentScriptType="text/ecmascript" zoomAndPan="magnify" contentStyleType="text/css" class="Balloon"
         preserveAspectRatio="xMidYMid meet" version="1.0">
        <polygon
                points="375,141 517,140 593,134 775,140 779,179 777,272 704,277 602,274 577,351 539,435 489,493 521,433 549,329 538,276 369,277 375,141"
                id="LAMISSEB_LESNOEILS1_012_balloon_0">
            <metadata borderStyle="smooth" tailTip="489,493" boundingBox="" tailDirection="SW" rank="1"/>
        </polygon>
        <polygon
                points="1788,131 1862,122 2006,126 2113,127 2156,122 2163,125 2163,267 2142,266 2063,267 1986,269 1973,331 1946,423 1899,509 1930,421 1945,339 1939,268 1786,271 1788,131"
                id="LAMISSEB_LESNOEILS1_012_balloon_1">
            <metadata borderStyle="smooth" tailTip="1899,509" boundingBox="" tailDirection="SW" rank="2"/>
        </polygon>
        <polygon
                points="443,929 712,933 701,980 707,1029 654,1031 681,1097 681,1156 659,1243 666,1161 650,1102 613,1044 598,1029 443,1034 445,981 443,929"
                id="LAMISSEB_LESNOEILS1_012_balloon_2">
            <metadata borderStyle="smooth" tailTip="659,1243" boundingBox="" tailDirection="S" rank="3"/>
        </polygon>
        <polygon
                points="1009,929 1207,924 1362,924 1481,924 1574,925 1574,1059 1405,1070 1410,1123 1402,1195 1367,1265 1384,1198 1380,1136 1358,1095 1331,1066 1006,1065 1009,929"
                id="LAMISSEB_LESNOEILS1_012_balloon_3">
            <metadata borderStyle="smooth" tailTip="1367,1265" boundingBox="" tailDirection="SW" rank="4"/>
        </polygon>
        <polygon
                points="374,1719 781,1718 780,1784 781,1851 695,1854 634,1853 633,1896 613,1950 575,1986 595,1952 600,1897 579,1854 494,1850 369,1847 374,1719"
                id="LAMISSEB_LESNOEILS1_012_balloon_4">
            <metadata borderStyle="smooth" tailTip="575,1986" boundingBox="" tailDirection="SW" rank="5"/>
        </polygon>
        <polygon
                points="1017,1715 1074,1722 1225,1717 1370,1717 1422,1713 1462,1720 1528,1716 1531,1769 1530,1834 1524,1892 1427,1892 1320,1889 1314,1946 1321,1999 1345,2048 1365,2084 1323,2048 1287,1977 1271,1921 1272,1890 1124,1891 1018,1887 1017,1715"
                id="LAMISSEB_LESNOEILS1_012_balloon_5">
            <metadata borderStyle="smooth" tailTip="1365,2084" boundingBox="" tailDirection="SE" rank="6"/>
        </polygon>
        <polygon
                points="1714,1708 1934,1710 2112,1710 2226,1712 2224,1768 2223,1799 2223,1851 2005,1851 1990,1886 1987,1947 2007,2011 2048,2073 1995,2031 1950,1933 1938,1888 1935,1848 1712,1849 1714,1708"
                id="LAMISSEB_LESNOEILS1_012_balloon_6">
            <metadata borderStyle="smooth" tailTip="2048,2073" boundingBox="" tailDirection="SE" rank="7"/>
        </polygon>
        <polygon
                points="306,2507 520,2506 625,2503 707,2506 860,2503 862,2572 859,2685 738,2686 593,2688 588,2741 566,2807 530,2881 495,2918 529,2836 545,2762 535,2686 307,2683 306,2507"
                id="LAMISSEB_LESNOEILS1_012_balloon_7">
            <metadata borderStyle="smooth" tailTip="495,2918" boundingBox="" tailDirection="SW" rank="8"/>
        </polygon>
        <polygon
                points="1088,2502 1326,2498 1471,2499 1471,2546 1469,2592 1392,2594 1311,2594 1322,2644 1323,2712 1303,2794 1266,2887 1233,2940 1271,2848 1290,2733 1274,2642 1253,2597 1078,2593 1088,2502"
                id="LAMISSEB_LESNOEILS1_012_balloon_8">
            <metadata borderStyle="smooth" tailTip="1233,2940" boundingBox="" tailDirection="SW" rank="9"/>
        </polygon>
        <polygon
                points="1715,2498 1836,2497 1943,2503 2026,2500 2079,2502 2171,2499 2170,2629 2075,2631 1933,2635 1886,2633 1891,2699 1884,2789 1869,2876 1847,2908 1859,2836 1866,2790 1858,2721 1835,2655 1824,2636 1708,2630 1715,2498"
                id="LAMISSEB_LESNOEILS1_012_balloon_9">
            <metadata borderStyle="smooth" tailTip="1847,2908" boundingBox="" tailDirection="S" rank="10"/>
        </polygon>
        <polygon
                points="1934,2666 2060,2670 2255,2665 2255,2726 2258,2801 2161,2803 2064,2807 2044,2842 2039,2870 2057,2905 2024,2880 2010,2837 2015,2806 1932,2804 1934,2666"
                id="LAMISSEB_LESNOEILS1_012_balloon_10">
            <metadata borderStyle="smooth" tailTip="2057,2905" boundingBox="" tailDirection="SE" rank="11"/>
        </polygon>
    </svg>
    <svg contentScriptType="text/ecmascript" zoomAndPan="magnify" contentStyleType="text/css" class="Character"
         preserveAspectRatio="xMidYMid meet" version="1.0">
        <polygon points="281,528 551,528 551,780 281,780 281,528" id="LAMISSEB_LESNOEILS1_012_character_0">
            <metadata uri="" area="" fillingPcent=""/>
        </polygon>
        <polygon points="652,528 877,528 877,759 652,759 652,528" id="LAMISSEB_LESNOEILS1_012_character_1">
            <metadata uri="" area="" fillingPcent=""/>
        </polygon>
        <polygon points="991,521 1254,521 1254,775 991,775 991,521" id="LAMISSEB_LESNOEILS1_012_character_2">
            <metadata uri="" area="" fillingPcent=""/>
        </polygon>
        <polygon points="1302,530 1562,530 1562,757 1302,757 1302,530" id="LAMISSEB_LESNOEILS1_012_character_3">
            <metadata uri="" area="" fillingPcent=""/>
        </polygon>
        <polygon points="1704,530 1933,530 1933,757 1704,757 1704,530" id="LAMISSEB_LESNOEILS1_012_character_4">
            <metadata uri="" area="" fillingPcent=""/>
        </polygon>
        <polygon points="2037,523 2271,523 2271,757 2037,757 2037,523" id="LAMISSEB_LESNOEILS1_012_character_5">
            <metadata uri="" area="" fillingPcent=""/>
        </polygon>
        <polygon points="429,1292 701,1292 701,1569 429,1569 429,1292" id="LAMISSEB_LESNOEILS1_012_character_6">
            <metadata uri="" area="" fillingPcent=""/>
        </polygon>
        <polygon points="1108,1286 1392,1286 1392,1560 1108,1560 1108,1286" id="LAMISSEB_LESNOEILS1_012_character_7">
            <metadata uri="" area="" fillingPcent=""/>
        </polygon>
        <polygon points="1765,1288 1979,1288 1998,1558 1765,1558 1765,1288" id="LAMISSEB_LESNOEILS1_012_character_8">
            <metadata uri="" area="" fillingPcent=""/>
        </polygon>
        <polygon points="312,2118 537,2118 537,2342 312,2342 312,2118" id="LAMISSEB_LESNOEILS1_012_character_9">
            <metadata uri="" area="" fillingPcent=""/>
        </polygon>
        <polygon points="659,2115 886,2115 886,2331 659,2331 659,2115" id="LAMISSEB_LESNOEILS1_012_character_10">
            <metadata uri="" area="" fillingPcent=""/>
        </polygon>
        <polygon points="1000,2111 1230,2111 1230,2331 1000,2331 1000,2111" id="LAMISSEB_LESNOEILS1_012_character_11">
            <metadata uri="" area="" fillingPcent=""/>
        </polygon>
        <polygon points="1329,2113 1547,2113 1547,2333 1329,2333 1329,2113" id="LAMISSEB_LESNOEILS1_012_character_12">
            <metadata uri="" area="" fillingPcent=""/>
        </polygon>
        <polygon points="1695,2106 1929,2106 1929,2313 1695,2313 1695,2106" id="LAMISSEB_LESNOEILS1_012_character_13">
            <metadata uri="" area="" fillingPcent=""/>
        </polygon>
        <polygon points="2035,2104 2259,2104 2259,2322 2035,2322 2035,2104" id="LAMISSEB_LESNOEILS1_012_character_14">
            <metadata uri="" area="" fillingPcent=""/>
        </polygon>
        <polygon points="310,2945 508,2945 508,3145 310,3145 310,2945" id="LAMISSEB_LESNOEILS1_012_character_15">
            <metadata uri="" area="" fillingPcent=""/>
        </polygon>
        <polygon points="654,2938 854,2938 854,3145 654,3145 654,2938" id="LAMISSEB_LESNOEILS1_012_character_16">
            <metadata uri="" area="" fillingPcent=""/>
        </polygon>
        <polygon points="1012,2938 1216,2938 1216,3134 1012,3134 1012,2938" id="LAMISSEB_LESNOEILS1_012_character_17">
            <metadata uri="" area="" fillingPcent=""/>
        </polygon>
        <polygon points="1329,2936 1551,2936 1551,3147 1329,3147 1329,2936" id="LAMISSEB_LESNOEILS1_012_character_18">
            <metadata uri="" area="" fillingPcent=""/>
        </polygon>
        <polygon points="1709,2929 1913,2929 1913,3143 1709,3143 1709,2929" id="LAMISSEB_LESNOEILS1_012_character_19">
            <metadata uri="" area="" fillingPcent=""/>
        </polygon>
        <polygon points="2017,2931 2228,2931 2228,3147 2017,3147 2017,2931" id="LAMISSEB_LESNOEILS1_012_character_20">
            <metadata uri="" area="" fillingPcent=""/>
        </polygon>
    </svg>
    <svg contentScriptType="text/ecmascript" zoomAndPan="magnify" contentStyleType="text/css" class="Line"
         preserveAspectRatio="xMidYMid meet" version="1.0">
        <polygon points="400,161 733,161 733,198 400,198 400,161" id="LAMISSEB_LESNOEILS1_012_line_0">
            <metadata method="" typography="" idBalloon="LAMISSEB_LESNOEILS1_012_balloon_0" textType="speech">JE ME SUIS
                ACHETE
            </metadata>
        </polygon>
        <polygon points="409,208 731,208 731,245 409,245 409,208" id="LAMISSEB_LESNOEILS1_012_line_1">
            <metadata method="" typography="" idBalloon="LAMISSEB_LESNOEILS1_012_balloon_0" textType="speech">DES
                CHAUSSURES.
            </metadata>
        </polygon>
        <polygon points="1878,153 2072,153 2072,191 1878,191 1878,153" id="LAMISSEB_LESNOEILS1_012_line_2">
            <metadata method="" typography="" idBalloon="LAMISSEB_LESNOEILS1_012_balloon_1" textType="speech">JE ME
                SUIS
            </metadata>
        </polygon>
        <polygon points="1809,198 2138,198 2138,234 1809,234 1809,198" id="LAMISSEB_LESNOEILS1_012_line_3">
            <metadata method="" typography="" idBalloon="LAMISSEB_LESNOEILS1_012_balloon_1" textType="speech">ENCORE
                FAIT AVOIR.
            </metadata>
        </polygon>
        <polygon points="485,959 654,959 654,999 485,999 485,959" id="LAMISSEB_LESNOEILS1_012_line_4">
            <metadata method="" typography="" idBalloon="LAMISSEB_LESNOEILS1_012_balloon_2" textType="speech">DIS MOI
                ...
            </metadata>
        </polygon>
        <polygon points="1023,950 1551,950 1551,986 1023,986 1023,950" id="LAMISSEB_LESNOEILS1_012_line_5">
            <metadata method="" typography="" idBalloon="LAMISSEB_LESNOEILS1_012_balloon_3" textType="speech">... TU
                VOIS PLUS CLAIR DEPUIS QUE
            </metadata>
        </polygon>
        <polygon points="1042,995 1532,995 1532,1029 1042,1029 1042,995" id="LAMISSEB_LESNOEILS1_012_line_6">
            <metadata method="" typography="" idBalloon="LAMISSEB_LESNOEILS1_012_balloon_3" textType="speech">TU PORTES
                DES LENTILLES?
            </metadata>
        </polygon>
        <polygon points="409,1739 739,1739 739,1777 409,1777 409,1739" id="LAMISSEB_LESNOEILS1_012_line_7">
            <metadata method="" typography="" idBalloon="LAMISSEB_LESNOEILS1_012_balloon_4" textType="speech">JE ME SUIS
                ACHETE
            </metadata>
        </polygon>
        <polygon points="404,1782 743,1782 743,1820 404,1820 404,1782" id="LAMISSEB_LESNOEILS1_012_line_8">
            <metadata method="" typography="" idBalloon="LAMISSEB_LESNOEILS1_012_balloon_4" textType="speech">UN BAUME A
                LEVRES.
            </metadata>
        </polygon>
        <polygon points="1065,1739 1487,1739 1487,1777 1065,1777 1065,1739" id="LAMISSEB_LESNOEILS1_012_line_9">
            <metadata method="" typography="" idBalloon="LAMISSEB_LESNOEILS1_012_balloon_5" textType="speech">JE ME
                DEMANDE SI C'EST
            </metadata>
        </polygon>
        <polygon points="1042,1782 1511,1782 1511,1820 1042,1820 1042,1782" id="LAMISSEB_LESNOEILS1_012_line_10">
            <metadata method="" typography="" idBalloon="LAMISSEB_LESNOEILS1_012_balloon_5" textType="speech">AU VENDEUR
                QUE TU DEVRAIS
            </metadata>
        </polygon>
        <polygon points="1119,1826 1443,1826 1443,1865 1119,1865 1119,1826" id="LAMISSEB_LESNOEILS1_012_line_11">
            <metadata method="" typography="" idBalloon="LAMISSEB_LESNOEILS1_012_balloon_5" textType="speech">FAIRE UN
                PROCES ...
            </metadata>
        </polygon>
        <polygon points="1728,1728 2189,1728 2189,1771 1728,1771 1728,1728" id="LAMISSEB_LESNOEILS1_012_line_12">
            <metadata method="" typography="" idBalloon="LAMISSEB_LESNOEILS1_012_balloon_6" textType="speech">... OU A
                TES PARENTS, POUR
            </metadata>
        </polygon>
        <polygon points="1767,1777 2159,1777 2159,1814 1767,1814 1767,1777" id="LAMISSEB_LESNOEILS1_012_line_13">
            <metadata method="" typography="" idBalloon="LAMISSEB_LESNOEILS1_012_balloon_6" textType="speech">T'AVOIR
                MIS AU MONDE?
            </metadata>
        </polygon>
        <polygon points="360,2528 801,2528 801,2566 360,2566 360,2528" id="LAMISSEB_LESNOEILS1_012_line_14">
            <metadata method="" typography="" idBalloon="LAMISSEB_LESNOEILS1_012_balloon_7" textType="speech">J'AI
                ACHETE UNE NOUVELLE
            </metadata>
        </polygon>
        <polygon points="336,2573 822,2573 822,2611 336,2611 336,2573" id="LAMISSEB_LESNOEILS1_012_line_15">
            <metadata method="" typography="" idBalloon="LAMISSEB_LESNOEILS1_012_balloon_7" textType="speech">VOITURE.
                LE VENDEUR M'A FAIT
            </metadata>
        </polygon>
        <polygon points="325,2613 835,2613 835,2654 325,2654 325,2613" id="LAMISSEB_LESNOEILS1_012_line_16">
            <metadata method="" typography="" idBalloon="LAMISSEB_LESNOEILS1_012_balloon_7" textType="speech">CADEAU DE
                L'ALARME EN OPTION.
            </metadata>
        </polygon>
        <polygon points="1108,2522 1440,2522 1440,2560 1108,2560 1108,2522" id="LAMISSEB_LESNOEILS1_012_line_17">
            <metadata method="" typography="" idBalloon="LAMISSEB_LESNOEILS1_012_balloon_8" textType="speech">JE TE VOIS
                VENIR ...
            </metadata>
        </polygon>
        <polygon points="1760,2517 2123,2517 2123,2560 1760,2560 1760,2517" id="LAMISSEB_LESNOEILS1_012_line_18">
            <metadata method="" typography="" idBalloon="LAMISSEB_LESNOEILS1_012_balloon_9" textType="speech">TU VAS
                DIRE QUE J'AI
            </metadata>
        </polygon>
        <polygon points="1741,2564 2136,2564 2136,2600 1741,2600 1741,2564" id="LAMISSEB_LESNOEILS1_012_line_19">
            <metadata method="" typography="" idBalloon="LAMISSEB_LESNOEILS1_012_balloon_9" textType="speech">EU
                "L'ALARME A OEIL".
            </metadata>
        </polygon>
        <polygon points="1986,2686 2202,2686 2202,2726 1986,2726 1986,2686" id="LAMISSEB_LESNOEILS1_012_line_20">
            <metadata method="" typography="" idBalloon="LAMISSEB_LESNOEILS1_012_balloon_10" textType="speech">TU LIS
                DANS
            </metadata>
        </polygon>
        <polygon points="1967,2730 2225,2730 2225,2775 1967,2775 1967,2730" id="LAMISSEB_LESNOEILS1_012_line_21">
            <metadata method="" typography="" idBalloon="LAMISSEB_LESNOEILS1_012_balloon_10" textType="speech">MES
                PENSEES.
            </metadata>
        </polygon>
    </svg>
    <svg contentScriptType="text/ecmascript" zoomAndPan="magnify" contentStyleType="text/css" class="linkSBSC"
         preserveAspectRatio="xMidYMid meet" version="1.0">
        <polygon points="574,313 575,313 417,654 416,654 574,313" idCharacter="LAMISSEB_LESNOEILS1_012_character_0"
                 idBalloon="LAMISSEB_LESNOEILS1_012_balloon_0"/>
        <polygon points="1974,315 1975,315 1819,643 1818,643 1974,315" idCharacter="LAMISSEB_LESNOEILS1_012_character_4"
                 idBalloon="LAMISSEB_LESNOEILS1_012_balloon_1"/>
        <polygon points="577,1086 578,1086 566,1430 565,1430 577,1086" idCharacter="LAMISSEB_LESNOEILS1_012_character_6"
                 idBalloon="LAMISSEB_LESNOEILS1_012_balloon_2"/>
        <polygon points="1290,1094 1291,1094 1251,1423 1250,1423 1290,1094"
                 idCharacter="LAMISSEB_LESNOEILS1_012_character_7" idBalloon="LAMISSEB_LESNOEILS1_012_balloon_3"/>
        <polygon points="575,1852 576,1852 425,2230 424,2230 575,1852" idCharacter="LAMISSEB_LESNOEILS1_012_character_9"
                 idBalloon="LAMISSEB_LESNOEILS1_012_balloon_4"/>
        <polygon points="1274,1898 1275,1898 1439,2223 1438,2223 1274,1898"
                 idCharacter="LAMISSEB_LESNOEILS1_012_character_12" idBalloon="LAMISSEB_LESNOEILS1_012_balloon_5"/>
        <polygon points="1969,1890 1970,1890 2148,2213 2147,2213 1969,1890"
                 idCharacter="LAMISSEB_LESNOEILS1_012_character_14" idBalloon="LAMISSEB_LESNOEILS1_012_balloon_6"/>
        <polygon points="584,2710 585,2710 410,3045 409,3045 584,2710"
                 idCharacter="LAMISSEB_LESNOEILS1_012_character_15" idBalloon="LAMISSEB_LESNOEILS1_012_balloon_7"/>
        <polygon points="1274,2719 1275,2719 1115,3036 1114,3036 1274,2719"
                 idCharacter="LAMISSEB_LESNOEILS1_012_character_17" idBalloon="LAMISSEB_LESNOEILS1_012_balloon_8"/>
        <polygon points="1939,2702 1940,2702 1812,3036 1811,3036 1939,2702"
                 idCharacter="LAMISSEB_LESNOEILS1_012_character_19" idBalloon="LAMISSEB_LESNOEILS1_012_balloon_9"/>
        <polygon points="2095,2785 2096,2785 2123,3039 2122,3039 2095,2785"
                 idCharacter="LAMISSEB_LESNOEILS1_012_character_20" idBalloon="LAMISSEB_LESNOEILS1_012_balloon_10"/>
    </svg>
    <metadata method="GroundTruth" lastModificationDate="Sun Feb 09 13:54:42 CET 2014" lastStepModified="Balloon_Rank"/>
</svg>