<?xml version="1.0" encoding="UTF-8" standalone="no"?>
<svg xmlns="http://www.w3.org/2000/svg" xmlns:xlink="http://www.w3.org/1999/xlink" contentScriptType="text/ecmascript" width="1237mm" zoomAndPan="magnify" contentStyleType="text/css" height="1705mm" viewBox="0 0 2474 3411" preserveAspectRatio="xMidYMid meet" version="1.0">
    <title>LAMISSEB_LESNOEILS1_016</title>
    <svg contentScriptType="text/ecmascript" zoomAndPan="magnify" contentStyleType="text/css" class="Page" preserveAspectRatio="xMidYMid meet" version="1.0">
        <image x="0" y="0" width="2474" xlink:href="../Pages/LAMISSEB_LESNOEILS1_016.jpg" xlink:type="simple" xlink:actuate="onLoad" height="3411" preserveAspectRatio="xMidYMid meet" xlink:show="embed"/>
        <metadata collectionTitle="Les Noeils" editorName="Bac@BD" doublePage="false" website="http://les-noeils.webcomics.fr/archives" albumTitle="Tome 1" drawerName="Lamisseb" language="french" resolution="600" ISBN="978-2953405859" readingDirection="leftToRight" writerName="Lamisseb" releaseDate="2011" pageNumber="16"/>
    </svg>
	<style type="text/css" xml:space="preserve">
        * { stroke-width: 0; stroke-linejoin: round; }
        .Unclassified { fill: orange; stroke: none; opacity: 1.0; visibility: hidden; }
        .Noise { fill: pink; stroke: none; opacity: 0.2; visibility: hidden; }
        .Panel { fill: red; stroke: none; opacity: 0.3; visibility: visible; image-rendering: optimizeSpeed; }
        .Line { fill: green; stroke: none; opacity: 0.5; visibility: visible; image-rendering: optimizeSpeed; }
        .TextArea { fill: grey; stroke: none; opacity: 0.2; visibility: visible; image-rendering: optimizeSpeed; }
        .Balloon { fill: cyan; stroke: none; opacity: 0.5; visibility: visible; image-rendering: optimizeSpeed; }
        .Letter { fill: blue; stroke: none; opacity: 0.2; visibility: hidden; }
        .Character { fill: yellow; stroke: none; opacity: 0.3; visibility: visible; image-rendering: optimizeSpeed; }
        .Page { fill: white; stroke: none; opacity: 0.5; visibility: visible; }
        .linkSBSC { fill: blue; stroke: none; opacity: 0.5; visibility: visible; }
        polygon:hover { stroke:red;stroke-width:2; } 
    </style><svg contentScriptType="text/ecmascript" zoomAndPan="magnify" contentStyleType="text/css" class="Panel" preserveAspectRatio="xMidYMid meet" version="1.0">
        <polygon points="233,198 906,186 896,862 233,862 233,198" id="LAMISSEB_LESNOEILS1_016_panel_0">
            <metadata viewAngle="" shot="" rank="1"/>
        </polygon>
        <polygon points="934,190 1598,190 1598,845 934,861 934,190" id="LAMISSEB_LESNOEILS1_016_panel_1">
            <metadata viewAngle="" shot="" rank="2"/>
        </polygon>
        <polygon points="1636,173 2308,173 2308,836 1636,855 1636,173" id="LAMISSEB_LESNOEILS1_016_panel_2">
            <metadata viewAngle="" shot="" rank="3"/>
        </polygon>
        <polygon points="241,980 917,980 917,1652 241,1652 241,980" id="LAMISSEB_LESNOEILS1_016_panel_3">
            <metadata viewAngle="" shot="" rank="4"/>
        </polygon>
        <polygon points="943,980 1606,980 1606,1644 943,1644 943,980" id="LAMISSEB_LESNOEILS1_016_panel_4">
            <metadata viewAngle="" shot="" rank="5"/>
        </polygon>
        <polygon points="1636,972 2321,972 2321,1635 1636,1635 1636,972" id="LAMISSEB_LESNOEILS1_016_panel_5">
            <metadata viewAngle="" shot="" rank="6"/>
        </polygon>
        <polygon points="245,1775 917,1775 917,2438 245,2438 245,1775" id="LAMISSEB_LESNOEILS1_016_panel_6">
            <metadata viewAngle="" shot="" rank="7"/>
        </polygon>
        <polygon points="947,1766 1611,1766 1611,2430 947,2430 947,1766" id="LAMISSEB_LESNOEILS1_016_panel_7">
            <metadata viewAngle="" shot="" rank="8"/>
        </polygon>
        <polygon points="1636,1766 2321,1766 2321,2426 1636,2426 1636,1766" id="LAMISSEB_LESNOEILS1_016_panel_8">
            <metadata viewAngle="" shot="" rank="9"/>
        </polygon>
        <polygon points="254,2561 922,2561 922,3229 254,3229 254,2561" id="LAMISSEB_LESNOEILS1_016_panel_9">
            <metadata viewAngle="" shot="" rank="10"/>
        </polygon>
        <polygon points="960,2548 1615,2548 1615,3225 960,3225 960,2548" id="LAMISSEB_LESNOEILS1_016_panel_10">
            <metadata viewAngle="" shot="" rank="11"/>
        </polygon>
        <polygon points="1644,2552 2321,2552 2321,3218 1644,3224 1644,2552" id="LAMISSEB_LESNOEILS1_016_panel_11">
            <metadata viewAngle="" shot="" rank="12"/>
        </polygon>
    </svg>
    <svg contentScriptType="text/ecmascript" zoomAndPan="magnify" contentStyleType="text/css" class="TextArea" preserveAspectRatio="xMidYMid meet" version="1.0"/>
    <svg contentScriptType="text/ecmascript" zoomAndPan="magnify" contentStyleType="text/css" class="Balloon" preserveAspectRatio="xMidYMid meet" version="1.0">
        <polygon points="321,165 450,160 575,159 632,157 699,159 779,158 777,213 781,292 663,300 522,300 492,333 472,365 450,404 440,440 438,467 444,509 462,548 423,490 414,423 425,366 459,300 386,302 317,300 316,219 321,165" id="LAMISSEB_LESNOEILS1_016_balloon_0">
            <metadata borderStyle="smooth" tailTip="462,548" boundingBox="" tailDirection="SE" rank="1"/>
        </polygon>
        <polygon points="1053,148 1159,150 1244,151 1343,151 1412,151 1461,150 1454,287 1414,292 1308,292 1284,292 1258,322 1229,364 1218,390 1222,404 1249,414 1245,444 1227,487 1189,545 1204,507 1217,459 1221,435 1192,437 1183,399 1196,343 1216,291 1139,294 1071,296 1049,292 1053,148" id="LAMISSEB_LESNOEILS1_016_balloon_1">
            <metadata borderStyle="smooth" tailTip="1189,545" boundingBox="" tailDirection="SW" rank="2"/>
        </polygon>
        <polygon points="1667,143 1792,147 1964,143 2128,140 2284,137 2281,278 2148,281 1985,282 1907,281 1878,328 1866,369 1861,421 1872,475 1892,525 1857,481 1830,403 1825,334 1839,281 1776,282 1663,289 1661,198 1667,143" id="LAMISSEB_LESNOEILS1_016_balloon_2">
            <metadata borderStyle="smooth" tailTip="1892,525" boundingBox="" tailDirection="SE" rank="3"/>
        </polygon>
        <polygon points="350,950 533,946 766,949 765,1003 765,1081 713,1093 571,1089 570,1142 554,1208 526,1274 501,1324 457,1356 490,1301 518,1235 527,1154 512,1098 501,1091 347,1090 346,1013 350,950" id="LAMISSEB_LESNOEILS1_016_balloon_3">
            <metadata borderStyle="smooth" tailTip="457,1356" boundingBox="" tailDirection="SE" rank="4"/>
        </polygon>
        <polygon points="1083,940 1189,941 1301,938 1432,939 1431,980 1431,1033 1311,1040 1306,1112 1322,1181 1342,1238 1372,1290 1422,1368 1376,1333 1337,1272 1300,1194 1276,1125 1256,1053 1255,1036 1069,1037 1078,952 1083,940" id="LAMISSEB_LESNOEILS1_016_balloon_4">
            <metadata borderStyle="smooth" tailTip="1422,1368" boundingBox="" tailDirection="SE" rank="5"/>
        </polygon>
        <polygon points="1744,934 1849,934 1996,937 2090,933 2192,929 2221,931 2221,996 2224,1068 2165,1074 2036,1071 1986,1073 1956,1121 1941,1169 1942,1221 1952,1273 1969,1311 1988,1355 1949,1319 1914,1238 1903,1178 1907,1121 1920,1075 1845,1073 1733,1077 1736,1014 1736,947 1738,936 1744,934" id="LAMISSEB_LESNOEILS1_016_balloon_5">
            <metadata borderStyle="smooth" tailTip="1988,1355" boundingBox="" tailDirection="SE" rank="6"/>
        </polygon>
        <polygon points="309,1735 442,1733 549,1735 645,1734 728,1731 720,1875 502,1878 478,1877 450,1942 437,1991 431,2060 441,2109 453,2143 421,2095 407,2031 403,1965 410,1911 417,1880 297,1879 302,1736 309,1735" id="LAMISSEB_LESNOEILS1_016_balloon_6">
            <metadata borderStyle="smooth" tailTip="453,2143" boundingBox="" tailDirection="SE" rank="7"/>
        </polygon>
        <polygon points="767,1852 842,1852 871,1858 866,1883 867,1960 866,2040 771,2038 696,2038 662,2039 636,2052 608,2068 598,2081 609,2087 633,2087 645,2092 632,2111 622,2122 656,2155 626,2145 598,2136 589,2127 608,2107 601,2108 566,2113 555,2100 565,2072 591,2036 495,2039 500,1858 518,1852 549,1855 580,1856 619,1852 646,1849 704,1851 767,1852" id="LAMISSEB_LESNOEILS1_016_balloon_7">
            <metadata borderStyle="smooth" tailTip="656,2155" boundingBox="" tailDirection="SE" rank="8"/>
        </polygon>
        <polygon points="1043,1730 1217,1731 1355,1730 1533,1730 1534,1773 1531,1827 1529,1873 1300,1873 1281,1923 1273,1971 1277,2018 1292,2068 1322,2129 1275,2076 1245,1999 1234,1933 1235,1873 1038,1879 1043,1730" id="LAMISSEB_LESNOEILS1_016_balloon_8">
            <metadata borderStyle="smooth" tailTip="1322,2129" boundingBox="" tailDirection="SE" rank="9"/>
        </polygon>
        <polygon points="1701,1727 1813,1727 1910,1726 2035,1725 2035,1781 2034,1829 1892,1830 1873,1859 1855,1896 1846,1930 1873,1932 1874,1953 1862,1984 1862,1999 1875,2005 1877,2023 1845,2107 1853,2058 1858,2022 1833,2032 1835,2002 1851,1953 1832,1962 1797,1959 1813,1904 1831,1858 1843,1832 1705,1836 1701,1727" id="LAMISSEB_LESNOEILS1_016_balloon_9">
            <metadata borderStyle="smooth" tailTip="1845,2107" boundingBox="" tailDirection="S" rank="10"/>
        </polygon>
        <polygon points="1971,1899 2052,1900 2156,1905 2217,1901 2219,1991 2123,1992 2069,1993 2045,2020 2024,2052 2017,2074 2027,2127 2008,2113 1999,2061 2012,2017 2027,1993 1970,1992 1967,1907 1971,1899" id="LAMISSEB_LESNOEILS1_016_balloon_10">
            <metadata borderStyle="smooth" tailTip="2027,2127" boundingBox="" tailDirection="SW" rank="11"/>
        </polygon>
        <polygon points="340,2525 463,2522 615,2522 771,2521 855,2523 845,2563 844,2668 695,2669 546,2672 508,2700 476,2745 459,2784 455,2817 459,2856 471,2883 442,2844 438,2791 445,2723 476,2668 381,2674 340,2668 339,2609 337,2561 340,2525" id="LAMISSEB_LESNOEILS1_016_balloon_11">
            <metadata borderStyle="smooth" tailTip="471,2883" boundingBox="" tailDirection="SE" rank="12"/>
        </polygon>
        <polygon points="1007,2516 1158,2514 1436,2516 1551,2514 1549,2605 1552,2714 1550,2757 1385,2755 1228,2757 1202,2756 1191,2783 1185,2800 1196,2839 1213,2861 1185,2852 1164,2820 1147,2760 1088,2757 1002,2756 1007,2516" id="LAMISSEB_LESNOEILS1_016_balloon_12">
            <metadata borderStyle="smooth" tailTip="1213,2861" boundingBox="" tailDirection="SE" rank="13"/>
        </polygon>
        <polygon points="1689,2514 1926,2510 2145,2512 2272,2507 2268,2579 2276,2631 2083,2631 1926,2635 1873,2689 1844,2746 1843,2789 1855,2833 1869,2859 1828,2820 1817,2744 1823,2671 1834,2634 1691,2636 1689,2514" id="LAMISSEB_LESNOEILS1_016_balloon_13">
            <metadata borderStyle="smooth" tailTip="1869,2859" boundingBox="" tailDirection="SE" rank="14"/>
        </polygon>
    </svg>
    <svg contentScriptType="text/ecmascript" zoomAndPan="magnify" contentStyleType="text/css" class="Character" preserveAspectRatio="xMidYMid meet" version="1.0">
        <polygon points="449,559 675,559 675,774 449,774 449,559" id="LAMISSEB_LESNOEILS1_016_character_0">
            <metadata uri="" area="" fillingPcent=""/>
        </polygon>
        <polygon points="1004,557 1221,557 1221,754 1004,754 1004,557" id="LAMISSEB_LESNOEILS1_016_character_1">
            <metadata uri="" area="" fillingPcent=""/>
        </polygon>
        <polygon points="1283,548 1509,548 1509,774 1283,774 1283,548" id="LAMISSEB_LESNOEILS1_016_character_2">
            <metadata uri="" area="" fillingPcent=""/>
        </polygon>
        <polygon points="1842,550 2067,550 2067,765 1842,765 1842,550" id="LAMISSEB_LESNOEILS1_016_character_3">
            <metadata uri="" area="" fillingPcent=""/>
        </polygon>
        <polygon points="1956,1388 2158,1388 2158,1572 1956,1572 1956,1388" id="LAMISSEB_LESNOEILS1_016_character_4">
            <metadata uri="" area="" fillingPcent=""/>
        </polygon>
        <polygon points="1697,1373 1910,1373 1910,1576 1697,1576 1697,1373" id="LAMISSEB_LESNOEILS1_016_character_5">
            <metadata uri="" area="" fillingPcent=""/>
        </polygon>
        <polygon points="1410,1397 1570,1397 1570,1565 1410,1565 1410,1397" id="LAMISSEB_LESNOEILS1_016_character_6">
            <metadata uri="" area="" fillingPcent=""/>
        </polygon>
        <polygon points="1165,1393 1344,1393 1344,1563 1165,1563 1165,1393" id="LAMISSEB_LESNOEILS1_016_character_7">
            <metadata uri="" area="" fillingPcent=""/>
        </polygon>
        <polygon points="974,1402 1144,1402 1144,1558 974,1558 974,1402" id="LAMISSEB_LESNOEILS1_016_character_8">
            <metadata uri="" area="" fillingPcent=""/>
        </polygon>
        <polygon points="698,1395 863,1395 863,1572 698,1572 698,1395" id="LAMISSEB_LESNOEILS1_016_character_9">
            <metadata uri="" area="" fillingPcent=""/>
        </polygon>
        <polygon points="501,1413 634,1413 634,1542 501,1542 501,1413" id="LAMISSEB_LESNOEILS1_016_character_10">
            <metadata uri="" area="" fillingPcent=""/>
        </polygon>
        <polygon points="274,1397 464,1397 464,1579 274,1579 274,1397" id="LAMISSEB_LESNOEILS1_016_character_11">
            <metadata uri="" area="" fillingPcent=""/>
        </polygon>
        <polygon points="304,2173 508,2173 508,2365 304,2365 304,2173" id="LAMISSEB_LESNOEILS1_016_character_12">
            <metadata uri="" area="" fillingPcent=""/>
        </polygon>
        <polygon points="616,2150 823,2150 823,2363 616,2363 616,2150" id="LAMISSEB_LESNOEILS1_016_character_13">
            <metadata uri="" area="" fillingPcent=""/>
        </polygon>
        <polygon points="1011,2148 1187,2148 1187,2340 1011,2340 1011,2148" id="LAMISSEB_LESNOEILS1_016_character_14">
            <metadata uri="" area="" fillingPcent=""/>
        </polygon>
        <polygon points="1251,2127 1518,2127 1518,2390 1251,2390 1251,2127" id="LAMISSEB_LESNOEILS1_016_character_15">
            <metadata uri="" area="" fillingPcent=""/>
        </polygon>
        <polygon points="1691,2139 1879,2139 1879,2329 1691,2329 1691,2139" id="LAMISSEB_LESNOEILS1_016_character_16">
            <metadata uri="" area="" fillingPcent=""/>
        </polygon>
        <polygon points="1990,2134 2192,2123 2226,2354 1997,2370 1990,2134" id="LAMISSEB_LESNOEILS1_016_character_17">
            <metadata uri="" area="" fillingPcent=""/>
        </polygon>
        <polygon points="1126,2880 1423,2880 1423,3149 1126,3149 1126,2880" id="LAMISSEB_LESNOEILS1_016_character_18">
            <metadata uri="" area="" fillingPcent=""/>
        </polygon>
        <polygon points="433,2868 718,2868 718,3163 433,3163 433,2868" id="LAMISSEB_LESNOEILS1_016_character_19">
            <metadata uri="" area="" fillingPcent=""/>
        </polygon>
        <polygon points="1797,2855 2114,2855 2114,3147 1797,3147 1797,2855" id="LAMISSEB_LESNOEILS1_016_character_20">
            <metadata uri="" area="" fillingPcent=""/>
        </polygon>
    </svg>
    <svg contentScriptType="text/ecmascript" zoomAndPan="magnify" contentStyleType="text/css" class="Line" preserveAspectRatio="xMidYMid meet" version="1.0">
        <polygon points="396,187 705,187 705,220 396,220 396,187" id="LAMISSEB_LESNOEILS1_016_line_0">
            <metadata method="" typography="" idBalloon="LAMISSEB_LESNOEILS1_016_balloon_0" textType="speech">BONJOUR. JE SUIS</metadata>
        </polygon>
        <polygon points="353,234 749,228 745,263 353,265 353,234" id="LAMISSEB_LESNOEILS1_016_line_1">
            <metadata method="" typography="" idBalloon="LAMISSEB_LESNOEILS1_016_balloon_0" textType="speech">JEAN-MICHEL DEVAIRE !</metadata>
        </polygon>
        <polygon points="1152,182 1370,175 1367,212 1151,215 1152,182" id="LAMISSEB_LESNOEILS1_016_line_2">
            <metadata method="" typography="" idBalloon="LAMISSEB_LESNOEILS1_016_balloon_1" textType="speech">MOUAHAHA !</metadata>
        </polygon>
        <polygon points="1088,222 1435,222 1430,255 1087,259 1088,222" id="LAMISSEB_LESNOEILS1_016_line_3">
            <metadata method="" typography="" idBalloon="LAMISSEB_LESNOEILS1_016_balloon_1" textType="speech">UN "NOEIL DEVAIRE" !!</metadata>
        </polygon>
        <polygon points="1707,172 2231,172 2231,207 1707,207 1707,172" id="LAMISSEB_LESNOEILS1_016_line_4">
            <metadata method="" typography="" idBalloon="LAMISSEB_LESNOEILS1_016_balloon_2" textType="speech">IL DOIT BIEN EXISTER UNE PRO-</metadata>
        </polygon>
        <polygon points="1706,215 2233,215 2233,245 1706,252 1706,215" id="LAMISSEB_LESNOEILS1_016_line_5">
            <metadata method="" typography="" idBalloon="LAMISSEB_LESNOEILS1_016_balloon_2" textType="speech">CEDURE POUR CHANGER DE NOM.</metadata>
        </polygon>
        <polygon points="402,971 704,971 704,1010 402,1010 402,971" id="LAMISSEB_LESNOEILS1_016_line_6">
            <metadata method="" typography="" idBalloon="LAMISSEB_LESNOEILS1_016_balloon_3" textType="speech">JE TE PRESENTE</metadata>
        </polygon>
        <polygon points="380,1017 727,1018 727,1057 379,1057 380,1017" id="LAMISSEB_LESNOEILS1_016_line_7">
            <metadata method="" typography="" idBalloon="LAMISSEB_LESNOEILS1_016_balloon_3" textType="speech">MON FRERE JUMEAU.</metadata>
        </polygon>
        <polygon points="1113,973 1383,963 1392,1003 1113,1005 1113,973" id="LAMISSEB_LESNOEILS1_016_line_8">
            <metadata method="" typography="" idBalloon="LAMISSEB_LESNOEILS1_016_balloon_4" textType="speech">OH ! ENCHANTE.</metadata>
        </polygon>
        <polygon points="1807,963 2151,963 2151,995 1807,995 1807,963" id="LAMISSEB_LESNOEILS1_016_line_9">
            <metadata method="" typography="" idBalloon="LAMISSEB_LESNOEILS1_016_balloon_5" textType="speech">C'EST MOCHE DE SE</metadata>
        </polygon>
        <polygon points="1767,1005 2187,1005 2192,1036 1767,1040 1767,1005" id="LAMISSEB_LESNOEILS1_016_line_10">
            <metadata method="" typography="" idBalloon="LAMISSEB_LESNOEILS1_016_balloon_5" textType="speech">MOQUER D'UN DALTONIEN.</metadata>
        </polygon>
        <polygon points="385,1765 639,1765 637,1802 385,1802 385,1765" id="LAMISSEB_LESNOEILS1_016_line_11">
            <metadata method="" typography="" idBalloon="LAMISSEB_LESNOEILS1_016_balloon_6" textType="speech">OH? MAIS C'EST</metadata>
        </polygon>
        <polygon points="320,1807 700,1806 696,1839 320,1839 320,1807" id="LAMISSEB_LESNOEILS1_016_line_12">
            <metadata method="" typography="" idBalloon="LAMISSEB_LESNOEILS1_016_balloon_6" textType="speech">JEAN-MICHEL DEVAIRE ?!</metadata>
        </polygon>
        <polygon points="556,1886 822,1886 822,1919 556,1919 556,1886" id="LAMISSEB_LESNOEILS1_016_line_13">
            <metadata method="" typography="" idBalloon="LAMISSEB_LESNOEILS1_016_balloon_7" textType="speech">STOP ยง FINI LES</metadata>
        </polygon>
        <polygon points="554,1928 818,1928 818,1963 554,1963 554,1928" id="LAMISSEB_LESNOEILS1_016_line_14">
            <metadata method="" typography="" idBalloon="LAMISSEB_LESNOEILS1_016_balloon_7" textType="speech">MOQUERIES. J'AI</metadata>
        </polygon>
        <polygon points="550,1969 822,1969 822,2007 550,2007 550,1969" id="LAMISSEB_LESNOEILS1_016_line_15">
            <metadata method="" typography="" idBalloon="LAMISSEB_LESNOEILS1_016_balloon_7" textType="speech">CHANGE DE NOM.</metadata>
        </polygon>
        <polygon points="1107,1754 1463,1754 1463,1796 1107,1796 1107,1754" id="LAMISSEB_LESNOEILS1_016_line_16">
            <metadata method="" typography="" idBalloon="LAMISSEB_LESNOEILS1_016_balloon_8" textType="speech">DESORMAIS, JE SUIS</metadata>
        </polygon>
        <polygon points="1066,1804 1506,1803 1499,1836 1066,1839 1066,1804" id="LAMISSEB_LESNOEILS1_016_line_17">
            <metadata method="" typography="" idBalloon="LAMISSEB_LESNOEILS1_016_balloon_8" textType="speech">JEAN-MICHEL DEBEUPHE !</metadata>
        </polygon>
        <polygon points="1736,1756 1994,1756 1989,1799 1736,1802 1736,1756" id="LAMISSEB_LESNOEILS1_016_line_18">
            <metadata method="" typography="" idBalloon="LAMISSEB_LESNOEILS1_016_balloon_9" textType="speech">MOUAHAHA !</metadata>
        </polygon>
        <polygon points="2006,1931 2180,1931 2180,1961 2005,1963 2006,1931" id="LAMISSEB_LESNOEILS1_016_line_19">
            <metadata method="" typography="" idBalloon="LAMISSEB_LESNOEILS1_016_balloon_10" textType="speech">ET MERDE.</metadata>
        </polygon>
        <polygon points="362,2561 819,2559 819,2593 362,2593 362,2561" id="LAMISSEB_LESNOEILS1_016_line_20">
            <metadata method="" typography="" idBalloon="LAMISSEB_LESNOEILS1_016_balloon_11" textType="speech">JE ME SENS SI SEUL. C'EST</metadata>
        </polygon>
        <polygon points="378,2606 800,2606 800,2636 378,2636 378,2606" id="LAMISSEB_LESNOEILS1_016_line_21">
            <metadata method="" typography="" idBalloon="LAMISSEB_LESNOEILS1_016_balloon_11" textType="speech">PATHOLOGIQUE CHEZ MOI.</metadata>
        </polygon>
        <polygon points="1065,2548 1489,2548 1489,2585 1065,2585 1065,2548" id="LAMISSEB_LESNOEILS1_016_line_22">
            <metadata method="" typography="" idBalloon="LAMISSEB_LESNOEILS1_016_balloon_12" textType="speech">CE SENTIMENT D'ISOLEMENT,</metadata>
        </polygon>
        <polygon points="1055,2588 1503,2588 1503,2630 1055,2630 1055,2588" id="LAMISSEB_LESNOEILS1_016_line_23">
            <metadata method="" typography="" idBalloon="LAMISSEB_LESNOEILS1_016_balloon_12" textType="speech">CETTE SOLITUDE ECRASANTE,</metadata>
        </polygon>
        <polygon points="1030,2636 1528,2636 1528,2676 1030,2676 1030,2636" id="LAMISSEB_LESNOEILS1_016_line_24">
            <metadata method="" typography="" idBalloon="LAMISSEB_LESNOEILS1_016_balloon_12" textType="speech">ETOUFFANTE DONT JE SOUFFRE,</metadata>
        </polygon>
        <polygon points="1118,2685 1440,2685 1440,2717 1118,2717 1118,2685" id="LAMISSEB_LESNOEILS1_016_line_25">
            <metadata method="" typography="" idBalloon="LAMISSEB_LESNOEILS1_016_balloon_12" textType="speech">MON PSY L'APPELLE ...</metadata>
        </polygon>
        <polygon points="1717,2552 2232,2552 2232,2590 1717,2590 1717,2552" id="LAMISSEB_LESNOEILS1_016_line_26">
            <metadata method="" typography="" idBalloon="LAMISSEB_LESNOEILS1_016_balloon_13" textType="speech">... "SYNDROME DU CYCLOPE".</metadata>
        </polygon>
        <polygon points="2241,3217 2414,3217 2414,3284 2241,3284 2241,3217" id="LAMISSEB_LESNOEILS1_016_line_27">
            <metadata method="" typography="" textType="note">LAMISSELE</metadata>
        </polygon>
        <polygon points="1269,3310 1312,3310 1312,3350 1269,3350 1269,3310" id="LAMISSEB_LESNOEILS1_016_line_28">
            <metadata method="" typography="" textType="speech">16</metadata>
        </polygon>
    </svg>
    <svg contentScriptType="text/ecmascript" zoomAndPan="magnify" contentStyleType="text/css" class="linkSBSC" preserveAspectRatio="xMidYMid meet" version="1.0">
    <polygon points="548,352 549,352 563,666 562,666 548,352" idCharacter="LAMISSEB_LESNOEILS1_016_character_0" idBalloon="LAMISSEB_LESNOEILS1_016_balloon_0"/>
    <polygon points="1255,346 1256,346 1113,655 1112,655 1255,346" idCharacter="LAMISSEB_LESNOEILS1_016_character_1" idBalloon="LAMISSEB_LESNOEILS1_016_balloon_1"/>
    <polygon points="1972,331 1973,331 1955,657 1954,657 1972,331" idCharacter="LAMISSEB_LESNOEILS1_016_character_3" idBalloon="LAMISSEB_LESNOEILS1_016_balloon_2"/>
    <polygon points="556,1151 557,1151 370,1488 369,1488 556,1151" idCharacter="LAMISSEB_LESNOEILS1_016_character_11" idBalloon="LAMISSEB_LESNOEILS1_016_balloon_3"/>
    <polygon points="1250,1153 1251,1153 1491,1481 1490,1481 1250,1153" idCharacter="LAMISSEB_LESNOEILS1_016_character_6" idBalloon="LAMISSEB_LESNOEILS1_016_balloon_4"/>
    <polygon points="1978,1142 1979,1142 2058,1480 2057,1480 1978,1142" idCharacter="LAMISSEB_LESNOEILS1_016_character_4" idBalloon="LAMISSEB_LESNOEILS1_016_balloon_5"/>
    <polygon points="683,2002 684,2002 720,2256 719,2256 683,2002" idCharacter="LAMISSEB_LESNOEILS1_016_character_13" idBalloon="LAMISSEB_LESNOEILS1_016_balloon_7"/>
    <polygon points="512,1937 513,1937 407,2269 406,2269 512,1937" idCharacter="LAMISSEB_LESNOEILS1_016_character_12" idBalloon="LAMISSEB_LESNOEILS1_016_balloon_6"/>
    <polygon points="1286,1929 1287,1929 1385,2258 1384,2258 1286,1929" idCharacter="LAMISSEB_LESNOEILS1_016_character_15" idBalloon="LAMISSEB_LESNOEILS1_016_balloon_8"/>
    <polygon points="1868,1916 1869,1916 1786,2234 1785,2234 1868,1916" idCharacter="LAMISSEB_LESNOEILS1_016_character_16" idBalloon="LAMISSEB_LESNOEILS1_016_balloon_9"/>
    <polygon points="2093,2013 2094,2013 2109,2246 2108,2246 2093,2013" idCharacter="LAMISSEB_LESNOEILS1_016_character_17" idBalloon="LAMISSEB_LESNOEILS1_016_balloon_10"/>
    <polygon points="596,2702 597,2702 576,3015 575,3015 596,2702" idCharacter="LAMISSEB_LESNOEILS1_016_character_19" idBalloon="LAMISSEB_LESNOEILS1_016_balloon_11"/>
    <polygon points="1277,2687 1278,2687 1275,3014 1274,3014 1277,2687" idCharacter="LAMISSEB_LESNOEILS1_016_character_18" idBalloon="LAMISSEB_LESNOEILS1_016_balloon_12"/>
    <polygon points="1982,2683 1983,2683 1956,3001 1955,3001 1982,2683" idCharacter="LAMISSEB_LESNOEILS1_016_character_20" idBalloon="LAMISSEB_LESNOEILS1_016_balloon_13"/>
  </svg>
<metadata method="GroundTruth" lastModificationDate="Sun Jan 26 13:25:47 CET 2014" lastStepModified="Balloon_Rank"/>
</svg>