<?xml version="1.0" encoding="UTF-8" standalone="no"?>
<svg xmlns:xlink="http://www.w3.org/1999/xlink" xmlns="http://www.w3.org/2000/svg" contentScriptType="text/ecmascript"
     width="565mm" zoomAndPan="magnify" contentStyleType="text/css" height="800mm" viewBox="0 0 1131 1600"
     preserveAspectRatio="xMidYMid meet" version="1.0">
    <title>LUBBIN_LESBULLESDULABO_005</title>
    <svg contentScriptType="text/ecmascript" zoomAndPan="magnify" contentStyleType="text/css" class="Page"
         preserveAspectRatio="xMidYMid meet" version="1.0">
        <image x="0" y="0" fill-opacity="0.5" width="1131" xlink:href="../Pages/LUBBIN_LESBULLESDULABO_005.jpg"
               xlink:type="simple" xlink:actuate="onLoad" height="1600" opacity="0.5"
               preserveAspectRatio="xMidYMid meet" xlink:show="embed"/>
        <metadata collectionTitle="Les bulles du labo" editorName="Doc en Stock" doublePage="false"
                  website="http://les-bulles-du-labo.blogspot.fr/" albumTitle="" drawerName="Gérald Lubbin"
                  language="french" resolution="" ISBN="" readingDirection="leftToRight" writerName="Gérald Lubbin"
                  releaseDate="2012" pageNumber="5"/>
    </svg>
    <style type="text/css" xml:space="preserve">
        * { stroke-width: 0; stroke-linejoin: round; }
        .Unclassified { fill: orange; stroke: none; opacity: 1.0; visibility: hidden; }
        .Noise { fill: pink; stroke: none; opacity: 0.2; visibility: hidden; }
        .Panel { fill: red; stroke: none; opacity: 0.3; visibility: visible; image-rendering: optimizeSpeed; }
        .Line { fill: green; stroke: none; opacity: 0.5; visibility: visible; image-rendering: optimizeSpeed; }
        .TextArea { fill: grey; stroke: none; opacity: 0.2; visibility: visible; image-rendering: optimizeSpeed; }
        .Balloon { fill: cyan; stroke: none; opacity: 0.5; visibility: visible; image-rendering: optimizeSpeed; }
        .Letter { fill: blue; stroke: none; opacity: 0.2; visibility: hidden; }
        .Character { fill: yellow; stroke: none; opacity: 0.3; visibility: visible; image-rendering: optimizeSpeed; }
        .Page { fill: white; stroke: none; opacity: 0.5; visibility: visible; }
        .linkSBSC { fill: blue; stroke: none; opacity: 0.5; visibility: visible; }
        polygon:hover { stroke:red;stroke-width:2; } 
    </style>
    <svg contentScriptType="text/ecmascript" zoomAndPan="magnify" contentStyleType="text/css" class="Panel"
         preserveAspectRatio="xMidYMid meet" version="1.0">
        <polygon points="35,207 422,207 422,621 30,621 35,207" id="LUBBIN_LESBULLESDULABO_005_panel_0">
            <metadata viewAngle="" shot="" rank="1"/>
        </polygon>
        <polygon points="437,205 824,205 820,420 437,420 437,205" id="LUBBIN_LESBULLESDULABO_005_panel_1">
            <metadata viewAngle="" shot="" rank="2"/>
        </polygon>
        <polygon points="437,435 819,435 819,624 437,624 437,435" id="LUBBIN_LESBULLESDULABO_005_panel_2">
            <metadata viewAngle="" shot="" rank="3"/>
        </polygon>
        <polygon points="840,209 1099,209 1099,624 840,624 840,209" id="LUBBIN_LESBULLESDULABO_005_panel_3">
            <metadata viewAngle="" shot="" rank="4"/>
        </polygon>
        <polygon points="32,639 400,639 400,836 32,836 32,639" id="LUBBIN_LESBULLESDULABO_005_panel_4">
            <metadata viewAngle="" shot="" rank="5"/>
        </polygon>
        <polygon points="416,637 753,637 753,834 416,834 416,637" id="LUBBIN_LESBULLESDULABO_005_panel_5">
            <metadata viewAngle="" shot="" rank="6"/>
        </polygon>
        <polygon points="770,637 1089,637 1089,834 770,834 770,637" id="LUBBIN_LESBULLESDULABO_005_panel_6">
            <metadata viewAngle="" shot="" rank="7"/>
        </polygon>
        <polygon points="30,852 1098,852 1098,1063 30,1063 30,852" id="LUBBIN_LESBULLESDULABO_005_panel_7">
            <metadata viewAngle="" shot="" rank="8"/>
        </polygon>
        <polygon points="33,1077 269,1077 269,1548 33,1548 33,1077" id="LUBBIN_LESBULLESDULABO_005_panel_8">
            <metadata viewAngle="" shot="" rank="9"/>
        </polygon>
        <polygon points="283,1078 457,1078 454,1548 283,1548 283,1078" id="LUBBIN_LESBULLESDULABO_005_panel_9">
            <metadata viewAngle="" shot="" rank="10"/>
        </polygon>
        <polygon points="472,1078 632,1078 632,1552 472,1552 472,1078" id="LUBBIN_LESBULLESDULABO_005_panel_10">
            <metadata viewAngle="" shot="" rank="11"/>
        </polygon>
        <polygon points="650,1078 1099,1078 1099,1549 654,1549 650,1078" id="LUBBIN_LESBULLESDULABO_005_panel_11">
            <metadata viewAngle="" shot="" rank="12"/>
        </polygon>
    </svg>
    <svg contentScriptType="text/ecmascript" zoomAndPan="magnify" contentStyleType="text/css" class="TextArea"
         preserveAspectRatio="xMidYMid meet" version="1.0"/>
    <svg contentScriptType="text/ecmascript" zoomAndPan="magnify" contentStyleType="text/css" class="Balloon"
         preserveAspectRatio="xMidYMid meet" version="1.0">
        <polygon
                points="82,252 77,260 75,267 79,275 82,278 84,278 80,277 78,285 80,294 82,299 85,303 83,307 77,301 74,294 72,285 74,274 81,271 88,271 92,276 87,284 84,286 76,283 70,279 67,272 69,259 73,251 60,251 46,246 31,241 30,204 175,206 183,210 194,218 201,223 202,232 195,244 181,250 161,255 138,255 112,255 89,253 82,252"
                id="LUBBIN_LESBULLESDULABO_005_balloon_0">
            <metadata borderStyle="smooth" tailTip="83,307" boundingBox="" tailDirection="S" rank="1"/>
        </polygon>
        <polygon
                points="30,557 37,552 44,548 52,548 61,548 66,550 72,541 77,529 80,511 81,496 79,487 74,494 79,494 86,487 89,475 93,469 95,478 91,489 86,498 78,502 72,503 68,493 72,484 76,480 83,482 86,494 87,506 88,515 84,527 80,538 77,547 73,552 83,552 93,553 103,554 110,558 119,569 125,579 131,591 133,603 134,611 132,620 26,621 30,557"
                id="LUBBIN_LESBULLESDULABO_005_balloon_1">
            <metadata borderStyle="smooth" tailTip="93,469" boundingBox="" tailDirection="N" rank="2"/>
        </polygon>
        <polygon
                points="404,227 401,218 401,208 410,196 520,196 526,207 528,220 524,231 515,241 508,249 496,256 480,260 474,258 476,263 487,267 479,272 470,267 468,259 457,260 438,257 427,252 417,247 404,227"
                id="LUBBIN_LESBULLESDULABO_005_balloon_2">
            <metadata borderStyle="smooth" tailTip="487,267" boundingBox="" tailDirection="E" rank="3"/>
        </polygon>
        <polygon
                points="821,261 804,262 779,263 763,263 762,270 765,276 771,275 772,272 767,274 768,284 772,291 785,293 771,296 765,291 762,283 764,272 770,268 780,272 776,276 769,281 761,282 758,278 757,269 757,262 732,263 696,262 660,258 634,251 621,232 616,219 621,207 627,201 834,200 832,260 821,261"
                id="LUBBIN_LESBULLESDULABO_005_balloon_3">
            <metadata borderStyle="smooth" tailTip="785,293" boundingBox="" tailDirection="E" rank="4"/>
        </polygon>
        <polygon
                points="515,389 544,381 570,377 601,377 632,379 663,385 683,393 695,404 697,423 688,439 650,452 601,460 556,457 532,453 520,448 520,460 519,467 514,466 504,460 506,466 502,468 496,464 488,455 497,458 501,461 500,455 502,452 508,453 514,456 515,446 503,439 496,430 491,416 496,401 515,389"
                id="LUBBIN_LESBULLESDULABO_005_balloon_4">
            <metadata borderStyle="smooth" tailTip="488,455" boundingBox="" tailDirection="NW" rank="5"/>
        </polygon>
        <polygon
                points="568,523 582,520 595,519 606,519 613,503 613,522 626,529 631,537 632,547 615,556 588,558 559,556 546,543 556,531 568,523"
                id="LUBBIN_LESBULLESDULABO_005_balloon_5">
            <metadata borderStyle="smooth" tailTip="613,503" boundingBox="" tailDirection="N" rank="6"/>
        </polygon>
        <polygon
                points="977,259 957,256 946,254 942,259 936,261 920,280 928,257 927,253 928,249 917,245 899,235 896,221 896,208 899,197 1106,200 1111,259 1088,260 1076,260 1039,260 1001,262 977,259"
                id="LUBBIN_LESBULLESDULABO_005_balloon_6">
            <metadata borderStyle="smooth" tailTip="920,280" boundingBox="" tailDirection="SW" rank="7"/>
        </polygon>
        <polygon
                points="1031,323 1036,319 1041,317 1026,300 1045,298 1042,295 1043,293 1048,291 1065,292 1062,294 1055,295 1050,295 1054,301 1054,303 1041,304 1053,316 1055,316 1056,308 1063,310 1060,317 1062,319 1067,315 1067,318 1065,321 1074,329 1078,336 1077,347 1075,352 1084,359 1077,373 1068,364 1060,367 1051,372 1036,372 1033,371 1029,378 1023,374 1027,369 1023,365 1018,360 1012,364 1008,355 1013,352 1015,346 1015,341 1019,335 1012,329 1020,320 1028,325 1031,323"
                id="LUBBIN_LESBULLESDULABO_005_balloon_7">
            <metadata borderStyle="smooth" tailTip="1065,292" boundingBox="" tailDirection="E" rank="8"/>
        </polygon>
        <polygon
                points="279,715 282,695 290,676 299,656 308,648 323,636 373,639 386,645 398,654 402,660 398,807 381,819 357,819 322,816 301,805 288,786 283,757 261,743 255,764 212,734 172,708 162,702 187,731 119,714 119,709 176,724 152,695 177,704 210,723 249,754 255,729 280,742 279,715"
                id="LUBBIN_LESBULLESDULABO_005_balloon_8">
            <metadata borderStyle="smooth" tailTip="119,714" boundingBox="" tailDirection="W" rank="9"/>
        </polygon>
        <polygon
                points="524,611 550,606 564,606 594,610 612,616 633,626 655,639 670,659 669,682 640,704 598,712 556,716 519,710 503,701 494,696 492,711 487,702 485,724 478,716 474,726 474,711 481,714 483,692 489,699 487,691 476,674 471,656 475,638 496,623 524,611"
                id="LUBBIN_LESBULLESDULABO_005_balloon_9">
            <metadata borderStyle="smooth" tailTip="474,726" boundingBox="" tailDirection="S" rank="10"/>
        </polygon>
        <polygon
                points="861,643 876,641 884,641 896,645 904,652 906,663 900,674 887,679 869,682 859,683 849,704 847,695 841,706 848,685 850,693 852,683 832,679 828,669 825,667 827,655 861,643"
                id="LUBBIN_LESBULLESDULABO_005_balloon_10">
            <metadata borderStyle="smooth" tailTip="841,706" boundingBox="" tailDirection="SE" rank="11"/>
        </polygon>
        <polygon
                points="963,675 976,671 987,670 997,671 1007,673 1017,678 1026,688 1023,698 1007,705 988,709 968,706 962,712 960,717 960,726 967,733 980,740 967,739 957,729 953,719 956,708 960,702 953,691 957,678 963,675"
                id="LUBBIN_LESBULLESDULABO_005_balloon_11">
            <metadata borderStyle="smooth" tailTip="980,740" boundingBox="" tailDirection="E" rank="12"/>
        </polygon>
        <polygon
                points="845,803 859,797 875,795 901,795 885,775 901,774 863,749 912,778 897,779 918,797 928,799 941,804 962,810 977,816 989,826 998,834 996,847 995,859 974,870 951,875 918,876 886,876 862,870 839,866 819,856 808,846 801,836 810,822 845,803"
                id="LUBBIN_LESBULLESDULABO_005_balloon_12">
            <metadata borderStyle="smooth" tailTip="863,749" boundingBox="" tailDirection="NW" rank="13"/>
        </polygon>
        <polygon
                points="446,993 434,989 367,1021 394,987 320,1016 405,973 399,994 411,981 394,966 373,950 364,918 368,888 386,867 415,854 433,847 791,848 814,860 836,874 853,887 862,897 864,923 853,945 827,968 798,987 755,1005 722,1014 670,1017 702,1026 715,1033 720,1041 721,1052 712,1063 482,1062 472,1048 470,1036 484,1023 498,1023 518,1017 532,1014 499,1009 457,997 446,993"
                id="LUBBIN_LESBULLESDULABO_005_balloon_13">
            <metadata borderStyle="smooth" tailTip="320,1016" boundingBox="" tailDirection="SW" rank="14"/>
        </polygon>
        <polygon
                points="192,1116 158,1116 167,1122 166,1139 162,1150 131,1154 144,1148 155,1140 160,1131 151,1121 142,1116 116,1114 79,1109 49,1103 39,1093 41,1080 51,1076 273,1079 272,1097 266,1108 192,1116"
                id="LUBBIN_LESBULLESDULABO_005_balloon_14">
            <metadata borderStyle="smooth" tailTip="131,1154" boundingBox="" tailDirection="SW" rank="15"/>
        </polygon>
        <polygon
                points="197,1183 223,1181 258,1181 280,1180 299,1185 328,1193 343,1204 343,1224 330,1238 306,1242 272,1244 238,1238 243,1260 221,1283 235,1260 222,1239 167,1230 152,1218 147,1203 158,1191 197,1183"
                id="LUBBIN_LESBULLESDULABO_005_balloon_15">
            <metadata borderStyle="smooth" tailTip="221,1283" boundingBox="" tailDirection="SW" rank="16"/>
        </polygon>
        <polygon
                points="415,1126 400,1126 387,1126 382,1131 380,1141 382,1152 388,1161 395,1165 404,1165 407,1156 403,1148 400,1143 395,1142 391,1143 390,1150 388,1158 391,1167 395,1180 403,1193 411,1205 400,1198 392,1181 387,1166 385,1151 389,1139 393,1136 401,1138 407,1145 410,1155 409,1165 401,1170 392,1168 383,1163 377,1154 374,1141 373,1134 373,1128 355,1126 337,1124 314,1122 305,1112 313,1092 328,1088 351,1082 370,1081 400,1081 415,1080 428,1083 441,1082 457,1087 462,1091 464,1115 453,1122 428,1126 413,1126 415,1126"
                id="LUBBIN_LESBULLESDULABO_005_balloon_16">
            <metadata borderStyle="smooth" tailTip="411,1205" boundingBox="" tailDirection="SE" rank="17"/>
        </polygon>
        <polygon
                points="501,1103 520,1097 534,1096 553,1096 565,1098 579,1103 595,1116 603,1131 604,1147 600,1170 583,1194 564,1204 548,1205 526,1206 499,1200 481,1190 471,1178 468,1168 472,1125 480,1118 487,1112 482,1109 477,1107 477,1095 481,1088 487,1086 494,1090 494,1096 490,1102 485,1105 482,1105 473,1107 467,1103 473,1102 477,1103 482,1100 487,1095 488,1092 484,1092 481,1094 480,1098 482,1102 484,1105 488,1108 491,1110 501,1103"
                id="LUBBIN_LESBULLESDULABO_005_balloon_17">
            <metadata borderStyle="smooth" tailTip="467,1103" boundingBox="" tailDirection="W" rank="18"/>
        </polygon>
        <polygon
                points="934,1309 958,1315 967,1325 963,1339 980,1343 989,1352 999,1360 993,1380 964,1392 935,1394 908,1392 891,1385 877,1369 879,1351 866,1346 854,1332 852,1319 858,1311 872,1309 884,1306 895,1306 915,1299 926,1285 934,1262 937,1244 930,1230 923,1221 909,1218 900,1221 900,1230 907,1236 919,1240 928,1235 930,1222 921,1203 906,1190 886,1178 850,1174 869,1169 887,1171 900,1179 915,1186 924,1196 932,1208 937,1221 933,1242 906,1250 894,1235 893,1217 906,1210 918,1211 925,1214 935,1222 942,1232 945,1243 946,1254 946,1266 942,1282 934,1297 929,1306 934,1309"
                id="LUBBIN_LESBULLESDULABO_005_balloon_18">
            <metadata borderStyle="smooth" tailTip="850,1174" boundingBox="" tailDirection="W" rank="19"/>
        </polygon>
        <polygon id="LUBBIN_LESBULLESDULABO_005_balloon_19"
                 points="917,1481 935,1476 951,1476 971,1477 985,1481 993,1491 998,1505 999,1516 1011,1509 1027,1510 1033,1516 1016,1518 1005,1528 999,1535 1001,1550 887,1550 880,1538 877,1518 887,1501 917,1481">
            <metadata borderStyle="smooth" tailTip="1033,1516" boundingBox="" tailDirection="E" rank="20"/>
        </polygon>
    </svg>
    <svg contentScriptType="text/ecmascript" zoomAndPan="magnify" contentStyleType="text/css" class="Character"
         preserveAspectRatio="xMidYMid meet" version="1.0">
        <polygon points="74,310 160,310 160,571 74,571 74,310" id="LUBBIN_LESBULLESDULABO_005_character_0">
            <metadata uri="" area="" fillingPcent=""/>
        </polygon>
        <polygon points="29,313 80,313 80,549 29,549 29,313" id="LUBBIN_LESBULLESDULABO_005_character_1">
            <metadata uri="" area="" fillingPcent=""/>
        </polygon>
        <polygon points="197,376 284,376 284,556 197,556 197,376" id="LUBBIN_LESBULLESDULABO_005_character_2">
            <metadata uri="" area="" fillingPcent=""/>
        </polygon>
        <polygon points="308,398 414,398 414,586 308,586 308,398" id="LUBBIN_LESBULLESDULABO_005_character_3">
            <metadata uri="" area="" fillingPcent=""/>
        </polygon>
        <polygon points="457,226 560,226 560,426 457,426 457,226" id="LUBBIN_LESBULLESDULABO_005_character_4">
            <metadata uri="" area="" fillingPcent=""/>
        </polygon>
        <polygon points="509,273 601,273 601,389 509,389 509,273" id="LUBBIN_LESBULLESDULABO_005_character_5">
            <metadata uri="" area="" fillingPcent=""/>
        </polygon>
        <polygon points="597,268 688,268 688,418 597,418 597,268" id="LUBBIN_LESBULLESDULABO_005_character_6">
            <metadata uri="" area="" fillingPcent=""/>
        </polygon>
        <polygon points="687,264 820,264 820,426 687,426 687,264" id="LUBBIN_LESBULLESDULABO_005_character_7">
            <metadata uri="" area="" fillingPcent=""/>
        </polygon>
        <polygon points="843,275 1038,275 1038,626 843,626 843,275" id="LUBBIN_LESBULLESDULABO_005_character_8">
            <metadata uri="" area="" fillingPcent=""/>
        </polygon>
        <polygon points="746,461 821,461 821,605 746,605 746,461" id="LUBBIN_LESBULLESDULABO_005_character_9">
            <metadata uri="" area="" fillingPcent=""/>
        </polygon>
        <polygon points="596,525 800,525 800,632 596,632 596,525" id="LUBBIN_LESBULLESDULABO_005_character_10">
            <metadata uri="" area="" fillingPcent=""/>
        </polygon>
        <polygon points="580,483 702,483 702,602 580,602 580,483" id="LUBBIN_LESBULLESDULABO_005_character_11">
            <metadata uri="" area="" fillingPcent=""/>
        </polygon>
        <polygon points="503,446 647,446 647,618 503,618 503,446" id="LUBBIN_LESBULLESDULABO_005_character_12">
            <metadata uri="" area="" fillingPcent=""/>
        </polygon>
        <polygon points="433,436 501,436 501,583 433,583 433,436" id="LUBBIN_LESBULLESDULABO_005_character_13">
            <metadata uri="" area="" fillingPcent=""/>
        </polygon>
        <polygon points="962,694 1098,694 1098,836 962,836 962,694" id="LUBBIN_LESBULLESDULABO_005_character_14">
            <metadata uri="" area="" fillingPcent=""/>
        </polygon>
        <polygon points="765,695 877,695 877,806 765,806 765,695" id="LUBBIN_LESBULLESDULABO_005_character_15">
            <metadata uri="" area="" fillingPcent=""/>
        </polygon>
        <polygon points="614,693 751,693 751,836 614,836 614,693" id="LUBBIN_LESBULLESDULABO_005_character_16">
            <metadata uri="" area="" fillingPcent=""/>
        </polygon>
        <polygon points="426,695 523,695 523,795 426,795 426,695" id="LUBBIN_LESBULLESDULABO_005_character_17">
            <metadata uri="" area="" fillingPcent=""/>
        </polygon>
        <polygon points="231,638 282,638 282,781 231,781 231,638" id="LUBBIN_LESBULLESDULABO_005_character_18">
            <metadata uri="" area="" fillingPcent=""/>
        </polygon>
        <polygon points="37,690 136,690 136,791 37,791 37,690" id="LUBBIN_LESBULLESDULABO_005_character_19">
            <metadata uri="" area="" fillingPcent=""/>
        </polygon>
        <polygon points="31,851 355,851 355,1064 31,1064 31,851" id="LUBBIN_LESBULLESDULABO_005_character_20">
            <metadata uri="" area="" fillingPcent=""/>
        </polygon>
        <polygon points="844,851 1100,851 1100,1067 844,1067 844,851" id="LUBBIN_LESBULLESDULABO_005_character_21">
            <metadata uri="" area="" fillingPcent=""/>
        </polygon>
        <polygon points="651,1076 1001,1076 1001,1547 651,1547 651,1076" id="LUBBIN_LESBULLESDULABO_005_character_22">
            <metadata uri="" area="" fillingPcent=""/>
        </polygon>
        <polygon points="1003,1433 1097,1433 1097,1548 1003,1548 1003,1433"
                 id="LUBBIN_LESBULLESDULABO_005_character_23">
            <metadata uri="" area="" fillingPcent=""/>
        </polygon>
        <polygon points="326,1218 626,1218 626,1473 326,1473 326,1218" id="LUBBIN_LESBULLESDULABO_005_character_24">
            <metadata uri="" area="" fillingPcent=""/>
        </polygon>
        <polygon points="45,1242 267,1242 267,1526 45,1526 45,1242" id="LUBBIN_LESBULLESDULABO_005_character_25">
            <metadata uri="" area="" fillingPcent=""/>
        </polygon>
        <polygon points="31,1119 130,1119 130,1504 31,1504 31,1119" id="LUBBIN_LESBULLESDULABO_005_character_26">
            <metadata uri="" area="" fillingPcent=""/>
        </polygon>
    </svg>
    <svg contentScriptType="text/ecmascript" zoomAndPan="magnify" contentStyleType="text/css" class="Line"
         preserveAspectRatio="xMidYMid meet" version="1.0">
        <polygon points="54,52 980,52 980,194 54,194 54,52" id="LUBBIN_LESBULLESDULABO_005_line_0">
            <metadata method="" typography="" textType="note">Les bulles du labO!!!</metadata>
        </polygon>
        <polygon points="1005,69 1051,69 1051,92 1005,92 1005,69" id="LUBBIN_LESBULLESDULABO_005_line_1">
            <metadata method="" typography="" textType="note">Doc</metadata>
        </polygon>
        <polygon points="974,121 994,121 994,133 974,133 974,121" id="LUBBIN_LESBULLESDULABO_005_line_2">
            <metadata method="" typography="" textType="note">en</metadata>
        </polygon>
        <polygon points="1027,158 1092,158 1092,192 1027,192 1027,158" id="LUBBIN_LESBULLESDULABO_005_line_3">
            <metadata method="" typography="" textType="note">Stock</metadata>
        </polygon>
        <polygon points="37,215 185,215 185,229 37,229 37,215" id="LUBBIN_LESBULLESDULABO_005_line_4">
            <metadata method="" typography="" idBalloon="LUBBIN_LESBULLESDULABO_005_balloon_0" textType="speech">SALUT
                LES GEEKS !
            </metadata>
        </polygon>
        <polygon points="33,230 189,230 189,243 33,247 33,230" id="LUBBIN_LESBULLESDULABO_005_line_5">
            <metadata method="" typography="" idBalloon="LUBBIN_LESBULLESDULABO_005_balloon_0" textType="speech">ALORS,
                CA BOSSE ??
            </metadata>
        </polygon>
        <polygon points="405,199 523,199 523,215 405,215 405,199" id="LUBBIN_LESBULLESDULABO_005_line_6">
            <metadata method="" typography="" idBalloon="LUBBIN_LESBULLESDULABO_005_balloon_2" textType="speech">C'ETAIT
                GENIAL,
            </metadata>
        </polygon>
        <polygon points="432,214 502,214 502,228 432,228 432,214" id="LUBBIN_LESBULLESDULABO_005_line_7">
            <metadata method="" typography="" idBalloon="LUBBIN_LESBULLESDULABO_005_balloon_2" textType="speech">CA
                S'EST
            </metadata>
        </polygon>
        <polygon points="421,228 513,228 513,240 421,240 421,228" id="LUBBIN_LESBULLESDULABO_005_line_8">
            <metadata method="" typography="" idBalloon="LUBBIN_LESBULLESDULABO_005_balloon_2" textType="speech">SUPER
                BIEN
            </metadata>
        </polygon>
        <polygon points="436,240 497,240 497,255 436,255 436,240" id="LUBBIN_LESBULLESDULABO_005_line_9">
            <metadata method="" typography="" idBalloon="LUBBIN_LESBULLESDULABO_005_balloon_2" textType="speech">PASSE
                !
            </metadata>
        </polygon>
        <polygon points="626,203 834,203 834,218 626,218 626,203" id="LUBBIN_LESBULLESDULABO_005_line_10">
            <metadata method="" typography="" idBalloon="LUBBIN_LESBULLESDULABO_005_balloon_3" textType="speech">J'AI
                SKIE AVEC LE PROFITT,
            </metadata>
        </polygon>
        <polygon points="667,218 801,218 801,229 667,229 667,218" id="LUBBIN_LESBULLESDULABO_005_line_11">
            <metadata method="" typography="" idBalloon="LUBBIN_LESBULLESDULABO_005_balloon_3" textType="speech">IL M'A
                OFFERT UN
            </metadata>
        </polygon>
        <polygon points="646,230 815,230 815,243 646,243 646,230" id="LUBBIN_LESBULLESDULABO_005_line_12">
            <metadata method="" typography="" idBalloon="LUBBIN_LESBULLESDULABO_005_balloon_3" textType="speech">
                PARTENARIAT D'ENFER
            </metadata>
        </polygon>
        <polygon points="642,242 823,242 823,255 642,255 642,242" id="LUBBIN_LESBULLESDULABO_005_line_13">
            <metadata method="" typography="" idBalloon="LUBBIN_LESBULLESDULABO_005_balloon_3" textType="speech">SUR MES
                RECHERCHES !
            </metadata>
        </polygon>
        <polygon points="899,202 1100,202 1100,217 899,217 899,202" id="LUBBIN_LESBULLESDULABO_005_line_14">
            <metadata method="" typography="" idBalloon="LUBBIN_LESBULLESDULABO_005_balloon_6" textType="speech">AVEC LA
                PRESTATION QUE
            </metadata>
        </polygon>
        <polygon points="965,217 1100,217 1100,231 965,231 965,217" id="LUBBIN_LESBULLESDULABO_005_line_15">
            <metadata method="" typography="" idBalloon="LUBBIN_LESBULLESDULABO_005_balloon_6" textType="speech">J'AI
                FAITE LA BAS,
            </metadata>
        </polygon>
        <polygon points="912,229 1099,229 1099,245 912,245 912,229" id="LUBBIN_LESBULLESDULABO_005_line_16">
            <metadata method="" typography="" idBalloon="LUBBIN_LESBULLESDULABO_005_balloon_6" textType="speech">CA VA
                ALLER TOUT SEUL
            </metadata>
        </polygon>
        <polygon points="1000,243 1105,243 1105,257 1000,257 1000,243" id="LUBBIN_LESBULLESDULABO_005_line_17">
            <metadata method="" typography="" idBalloon="LUBBIN_LESBULLESDULABO_005_balloon_6" textType="speech">CET
                ARTICLE !
            </metadata>
        </polygon>
        <polygon points="1022,334 1072,334 1072,348 1022,348 1022,334" id="LUBBIN_LESBULLESDULABO_005_line_18">
            <metadata method="" typography="" idBalloon="LUBBIN_LESBULLESDULABO_005_balloon_7" textType="speech">ENTRE
            </metadata>
        </polygon>
        <polygon points="1034,349 1065,349 1065,360 1034,360 1034,349" id="LUBBIN_LESBULLESDULABO_005_line_19">
            <metadata method="" typography="" idBalloon="LUBBIN_LESBULLESDULABO_005_balloon_7" textType="speech">LEO
            </metadata>
        </polygon>
        <polygon points="536,385 649,385 649,402 536,402 536,385" id="LUBBIN_LESBULLESDULABO_005_line_20">
            <metadata method="" typography="" idBalloon="LUBBIN_LESBULLESDULABO_005_balloon_4" textType="speech">LEO, TU
                VIENS
            </metadata>
        </polygon>
        <polygon points="510,400 668,400 668,415 510,415 510,400" id="LUBBIN_LESBULLESDULABO_005_line_21">
            <metadata method="" typography="" idBalloon="LUBBIN_LESBULLESDULABO_005_balloon_4" textType="speech">DANS
                MON BUREAU ?
            </metadata>
        </polygon>
        <polygon points="510,415 675,415 675,428 510,428 510,415" id="LUBBIN_LESBULLESDULABO_005_line_22">
            <metadata method="" typography="" idBalloon="LUBBIN_LESBULLESDULABO_005_balloon_4" textType="speech">IL FAUT
                QU'ON PARLE
            </metadata>
        </polygon>
        <polygon points="535,427 651,427 651,441 535,441 535,427" id="LUBBIN_LESBULLESDULABO_005_line_23">
            <metadata method="" typography="" idBalloon="LUBBIN_LESBULLESDULABO_005_balloon_4" textType="speech">DE TON
                FUTUR
            </metadata>
        </polygon>
        <polygon points="560,441 625,441 625,454 560,454 560,441" id="LUBBIN_LESBULLESDULABO_005_line_24">
            <metadata method="" typography="" idBalloon="LUBBIN_LESBULLESDULABO_005_balloon_4" textType="speech">
                ARTICLE.
            </metadata>
        </polygon>
        <polygon points="579,524 608,524 608,538 579,538 579,524" id="LUBBIN_LESBULLESDULABO_005_line_25">
            <metadata method="" typography="" idBalloon="LUBBIN_LESBULLESDULABO_005_balloon_5" textType="speech">OUI,
            </metadata>
        </polygon>
        <polygon points="556,538 624,538 624,550 556,550 556,538" id="LUBBIN_LESBULLESDULABO_005_line_26">
            <metadata method="" typography="" idBalloon="LUBBIN_LESBULLESDULABO_005_balloon_5" textType="speech">
                J'ARRIVE.
            </metadata>
        </polygon>
        <polygon points="52,565 108,565 108,579 52,579 52,565" id="LUBBIN_LESBULLESDULABO_005_line_27">
            <metadata method="" typography="" idBalloon="LUBBIN_LESBULLESDULABO_005_balloon_1" textType="speech">
                C'ETAIT
            </metadata>
        </polygon>
        <polygon points="44,579 113,579 113,594 44,594 44,579" id="LUBBIN_LESBULLESDULABO_005_line_28">
            <metadata method="" typography="" idBalloon="LUBBIN_LESBULLESDULABO_005_balloon_1" textType="speech">UN
                TRUC
            </metadata>
        </polygon>
        <polygon points="49,591 110,591 110,605 49,605 49,591" id="LUBBIN_LESBULLESDULABO_005_line_29">
            <metadata method="" typography="" idBalloon="LUBBIN_LESBULLESDULABO_005_balloon_1" textType="speech">DE
                FOU
            </metadata>
        </polygon>
        <polygon points="27,603 131,603 131,619 27,619 27,603" id="LUBBIN_LESBULLESDULABO_005_line_30">
            <metadata method="" typography="" idBalloon="LUBBIN_LESBULLESDULABO_005_balloon_1" textType="speech">CETTE
                CONF !
            </metadata>
        </polygon>
        <polygon points="317,651 391,651 391,663 317,663 317,651" id="LUBBIN_LESBULLESDULABO_005_line_31">
            <metadata method="" typography="" idBalloon="LUBBIN_LESBULLESDULABO_005_balloon_8" textType="speech">AVEC
                TON
            </metadata>
        </polygon>
        <polygon points="309,663 399,663 399,678 309,678 309,663" id="LUBBIN_LESBULLESDULABO_005_line_32">
            <metadata method="" typography="" idBalloon="LUBBIN_LESBULLESDULABO_005_balloon_8" textType="speech">
                PARAMETRE
            </metadata>
        </polygon>
        <polygon points="310,676 388,676 388,689 310,689 310,676" id="LUBBIN_LESBULLESDULABO_005_line_33">
            <metadata method="" typography="" idBalloon="LUBBIN_LESBULLESDULABO_005_balloon_8" textType="speech">
                D'ENTREE
            </metadata>
        </polygon>
        <polygon points="295,689 412,689 412,703 295,703 295,689" id="LUBBIN_LESBULLESDULABO_005_line_34">
            <metadata method="" typography="" idBalloon="LUBBIN_LESBULLESDULABO_005_balloon_8" textType="speech">ET UNE
                BONNE
            </metadata>
        </polygon>
        <polygon points="300,703 399,703 399,716 300,716 300,703" id="LUBBIN_LESBULLESDULABO_005_line_35">
            <metadata method="" typography="" idBalloon="LUBBIN_LESBULLESDULABO_005_balloon_8" textType="speech">
                EXPLICATION
            </metadata>
        </polygon>
        <polygon points="312,716 396,716 396,728 312,728 312,716" id="LUBBIN_LESBULLESDULABO_005_line_36">
            <metadata method="" typography="" idBalloon="LUBBIN_LESBULLESDULABO_005_balloon_8" textType="speech">DU
                CALCUL
            </metadata>
        </polygon>
        <polygon points="294,728 406,728 406,744 294,744 294,728" id="LUBBIN_LESBULLESDULABO_005_line_37">
            <metadata method="" typography="" idBalloon="LUBBIN_LESBULLESDULABO_005_balloon_8" textType="speech">
                DIFFERENTIEL,
            </metadata>
        </polygon>
        <polygon points="303,742 403,742 403,754 303,754 303,742" id="LUBBIN_LESBULLESDULABO_005_line_38">
            <metadata method="" typography="" idBalloon="LUBBIN_LESBULLESDULABO_005_balloon_8" textType="speech">TU
                POURRAS
            </metadata>
        </polygon>
        <polygon points="320,755 388,755 388,769 320,769 320,755" id="LUBBIN_LESBULLESDULABO_005_line_39">
            <metadata method="" typography="" idBalloon="LUBBIN_LESBULLESDULABO_005_balloon_8" textType="speech">
                ABOUTIR
            </metadata>
        </polygon>
        <polygon points="326,768 382,768 382,780 326,780 326,768" id="LUBBIN_LESBULLESDULABO_005_line_40">
            <metadata method="" typography="" idBalloon="LUBBIN_LESBULLESDULABO_005_balloon_8" textType="speech">SUR
                LA
            </metadata>
        </polygon>
        <polygon points="315,779 392,779 392,795 315,795 315,779" id="LUBBIN_LESBULLESDULABO_005_line_41">
            <metadata method="" typography="" idBalloon="LUBBIN_LESBULLESDULABO_005_balloon_8" textType="speech">
                SOLUTION
            </metadata>
        </polygon>
        <polygon points="308,794 392,794 392,807 308,807 308,794" id="LUBBIN_LESBULLESDULABO_005_line_42">
            <metadata method="" typography="" idBalloon="LUBBIN_LESBULLESDULABO_005_balloon_8" textType="speech">
                ATTENDUE.
            </metadata>
        </polygon>
        <polygon points="531,617 618,617 618,628 531,628 531,617" id="LUBBIN_LESBULLESDULABO_005_line_43">
            <metadata method="" typography="" idBalloon="LUBBIN_LESBULLESDULABO_005_balloon_9" textType="speech">TU
                MONTRES
            </metadata>
        </polygon>
        <polygon points="515,627 629,627 629,638 515,638 515,627" id="LUBBIN_LESBULLESDULABO_005_line_44">
            <metadata method="" typography="" idBalloon="LUBBIN_LESBULLESDULABO_005_balloon_9" textType="speech">LES
                PROPRIETES
            </metadata>
        </polygon>
        <polygon points="516,637 629,637 629,647 516,647 516,637" id="LUBBIN_LESBULLESDULABO_005_line_45">
            <metadata method="" typography="" idBalloon="LUBBIN_LESBULLESDULABO_005_balloon_9" textType="speech">DES
                DIFFERENTS
            </metadata>
        </polygon>
        <polygon points="486,646 660,646 660,658 486,658 486,646" id="LUBBIN_LESBULLESDULABO_005_line_46">
            <metadata method="" typography="" idBalloon="LUBBIN_LESBULLESDULABO_005_balloon_9" textType="speech">
                PARAMETRES DYNAMIQUES,
            </metadata>
        </polygon>
        <polygon points="509,657 636,657 636,667 509,667 509,657" id="LUBBIN_LESBULLESDULABO_005_line_47">
            <metadata method="" typography="" idBalloon="LUBBIN_LESBULLESDULABO_005_balloon_9" textType="speech">TU
                COMPARES AVEC
            </metadata>
        </polygon>
        <polygon points="477,665 668,665 668,677 477,677 477,665" id="LUBBIN_LESBULLESDULABO_005_line_48">
            <metadata method="" typography="" idBalloon="LUBBIN_LESBULLESDULABO_005_balloon_9" textType="speech">LES
                RESULTATS DE PROFITT,
            </metadata>
        </polygon>
        <polygon points="524,675 622,675 622,686 524,686 524,675" id="LUBBIN_LESBULLESDULABO_005_line_49">
            <metadata method="" typography="" idBalloon="LUBBIN_LESBULLESDULABO_005_balloon_9" textType="speech">TU
                EXPLICITES
            </metadata>
        </polygon>
        <polygon points="515,685 629,685 629,696 515,696 515,685" id="LUBBIN_LESBULLESDULABO_005_line_50">
            <metadata method="" typography="" idBalloon="LUBBIN_LESBULLESDULABO_005_balloon_9" textType="speech">SON
                LAGRANGIEN,
            </metadata>
        </polygon>
        <polygon points="515,694 629,694 629,705 515,705 515,694" id="LUBBIN_LESBULLESDULABO_005_line_51">
            <metadata method="" typography="" idBalloon="LUBBIN_LESBULLESDULABO_005_balloon_9" textType="speech">ET TU
                CONCLUES.
            </metadata>
        </polygon>
        <polygon points="840,649 889,649 889,664 840,664 840,649" id="LUBBIN_LESBULLESDULABO_005_line_52">
            <metadata method="" typography="" idBalloon="LUBBIN_LESBULLESDULABO_005_balloon_10" textType="speech">
                C'EST
            </metadata>
        </polygon>
        <polygon points="835,662 892,662 892,676 835,676 835,662" id="LUBBIN_LESBULLESDULABO_005_line_53">
            <metadata method="" typography="" idBalloon="LUBBIN_LESBULLESDULABO_005_balloon_10" textType="speech">CLAIR
                ?
            </metadata>
        </polygon>
        <polygon points="977,675 1008,675 1008,687 977,687 977,675" id="LUBBIN_LESBULLESDULABO_005_line_54">
            <metadata method="" typography="" idBalloon="LUBBIN_LESBULLESDULABO_005_balloon_11" textType="speech">EUH
            </metadata>
        </polygon>
        <polygon points="961,685 1014,685 1014,698 961,698 961,685" id="LUBBIN_LESBULLESDULABO_005_line_55">
            <metadata method="" typography="" idBalloon="LUBBIN_LESBULLESDULABO_005_balloon_11" textType="speech">
                OUI...
            </metadata>
        </polygon>
        <polygon points="887,799 913,799 913,814 887,814 887,799" id="LUBBIN_LESBULLESDULABO_005_line_56">
            <metadata method="" typography="" idBalloon="LUBBIN_LESBULLESDULABO_005_balloon_12" textType="speech">HA,
            </metadata>
        </polygon>
        <polygon points="866,813 936,813 936,827 866,827 866,813" id="LUBBIN_LESBULLESDULABO_005_line_57">
            <metadata method="" typography="" idBalloon="LUBBIN_LESBULLESDULABO_005_balloon_12" textType="speech">ET
                POUR
            </metadata>
        </polygon>
        <polygon points="853,825 943,825 943,838 853,838 853,825" id="LUBBIN_LESBULLESDULABO_005_line_58">
            <metadata method="" typography="" idBalloon="LUBBIN_LESBULLESDULABO_005_balloon_12" textType="speech">UN
                ARTICLE
            </metadata>
        </polygon>
        <polygon points="828,838 973,838 973,852 828,852 828,838" id="LUBBIN_LESBULLESDULABO_005_line_59">
            <metadata method="" typography="" idBalloon="LUBBIN_LESBULLESDULABO_005_balloon_12" textType="speech">IL Y A
                2-3 CHOSES
            </metadata>
        </polygon>
        <polygon points="850,851 945,851 945,865 850,865 850,851" id="LUBBIN_LESBULLESDULABO_005_line_60">
            <metadata method="" typography="" idBalloon="LUBBIN_LESBULLESDULABO_005_balloon_12" textType="speech">A
                INTEGRER
            </metadata>
        </polygon>
        <polygon points="450,853 769,853 769,886 450,886 450,853" id="LUBBIN_LESBULLESDULABO_005_line_61">
            <metadata method="" typography="" idBalloon="LUBBIN_LESBULLESDULABO_005_balloon_13" textType="speech">
                RIGUEUR MILITAIRE
            </metadata>
        </polygon>
        <polygon points="438,894 780,894 780,925 438,925 438,894" id="LUBBIN_LESBULLESDULABO_005_line_62">
            <metadata method="" typography="" idBalloon="LUBBIN_LESBULLESDULABO_005_balloon_13" textType="speech">
                LOGIQUE IMPARABLE
            </metadata>
        </polygon>
        <polygon points="392,928 825,928 825,964 392,964 392,928" id="LUBBIN_LESBULLESDULABO_005_line_63">
            <metadata method="" typography="" idBalloon="LUBBIN_LESBULLESDULABO_005_balloon_13" textType="speech">
                REFLEXION CLAIRVOYANTE
            </metadata>
        </polygon>
        <polygon points="489,1029 696,1029 696,1045 489,1045 489,1029" id="LUBBIN_LESBULLESDULABO_005_line_64">
            <metadata method="" typography="" idBalloon="LUBBIN_LESBULLESDULABO_005_balloon_13" textType="speech">TELLES
                SONT LES CLES
            </metadata>
        </polygon>
        <polygon points="512,1045 679,1045 679,1063 512,1063 512,1045" id="LUBBIN_LESBULLESDULABO_005_line_65">
            <metadata method="" typography="" idBalloon="LUBBIN_LESBULLESDULABO_005_balloon_13" textType="speech">DE CET
                EXERCICE !
            </metadata>
        </polygon>
        <polygon points="47,1077 270,1077 270,1096 47,1096 47,1077" id="LUBBIN_LESBULLESDULABO_005_line_66">
            <metadata method="" typography="" idBalloon="LUBBIN_LESBULLESDULABO_005_balloon_14" textType="speech">TIENS
                ! J'AI UNE IMPRESSION
            </metadata>
        </polygon>
        <polygon points="106,1092 216,1092 216,1109 106,1109 106,1092" id="LUBBIN_LESBULLESDULABO_005_line_67">
            <metadata method="" typography="" idBalloon="LUBBIN_LESBULLESDULABO_005_balloon_14" textType="speech">DE
                DEJA VU....
            </metadata>
        </polygon>
        <polygon points="340,1087 445,1087 445,1102 340,1102 340,1087" id="LUBBIN_LESBULLESDULABO_005_line_68">
            <metadata method="" typography="" idBalloon="LUBBIN_LESBULLESDULABO_005_balloon_16" textType="speech">T'ES
                ENCORE
            </metadata>
        </polygon>
        <polygon points="311,1099 463,1099 463,1118 311,1118 311,1099" id="LUBBIN_LESBULLESDULABO_005_line_69">
            <metadata method="" typography="" idBalloon="LUBBIN_LESBULLESDULABO_005_balloon_16" textType="speech">SUR
                TON ARTICLE ?!
            </metadata>
        </polygon>
        <polygon points="522,1106 549,1106 549,1121 522,1121 522,1106" id="LUBBIN_LESBULLESDULABO_005_line_70">
            <metadata method="" typography="" idBalloon="LUBBIN_LESBULLESDULABO_005_balloon_17" textType="speech">MOI,
            </metadata>
        </polygon>
        <polygon points="501,1117 570,1117 570,1133 501,1133 501,1117" id="LUBBIN_LESBULLESDULABO_005_line_71">
            <metadata method="" typography="" idBalloon="LUBBIN_LESBULLESDULABO_005_balloon_17" textType="speech">GRACE
                A
            </metadata>
        </polygon>
        <polygon points="478,1132 595,1132 595,1146 478,1146 478,1132" id="LUBBIN_LESBULLESDULABO_005_line_72">
            <metadata method="" typography="" idBalloon="LUBBIN_LESBULLESDULABO_005_balloon_17" textType="speech">MA
                DISCUSSION
            </metadata>
        </polygon>
        <polygon points="477,1146 591,1146 591,1161 477,1161 477,1146" id="LUBBIN_LESBULLESDULABO_005_line_73">
            <metadata method="" typography="" idBalloon="LUBBIN_LESBULLESDULABO_005_balloon_17" textType="speech">AVEC
                PROFITT,
            </metadata>
        </polygon>
        <polygon points="491,1158 575,1158 575,1174 491,1174 491,1158" id="LUBBIN_LESBULLESDULABO_005_line_74">
            <metadata method="" typography="" idBalloon="LUBBIN_LESBULLESDULABO_005_balloon_17" textType="speech">CA
                AVANCE
            </metadata>
        </polygon>
        <polygon points="495,1173 580,1173 580,1187 495,1187 495,1173" id="LUBBIN_LESBULLESDULABO_005_line_75">
            <metadata method="" typography="" idBalloon="LUBBIN_LESBULLESDULABO_005_balloon_17" textType="speech">A
                VITESSE
            </metadata>
        </polygon>
        <polygon points="497,1184 571,1184 571,1199 497,1199 497,1184" id="LUBBIN_LESBULLESDULABO_005_line_76">
            <metadata method="" typography="" idBalloon="LUBBIN_LESBULLESDULABO_005_balloon_17" textType="speech">GRAND
                V!
            </metadata>
        </polygon>
        <polygon points="875,1313 941,1313 941,1327 875,1327 875,1313" id="LUBBIN_LESBULLESDULABO_005_line_77">
            <metadata method="" typography="" idBalloon="LUBBIN_LESBULLESDULABO_005_balloon_18" textType="speech">
                PRENDS
            </metadata>
        </polygon>
        <polygon points="864,1327 948,1327 948,1342 864,1342 864,1327" id="LUBBIN_LESBULLESDULABO_005_line_78">
            <metadata method="" typography="" idBalloon="LUBBIN_LESBULLESDULABO_005_balloon_18" textType="speech">
                EXEMPLE :
            </metadata>
        </polygon>
        <polygon points="884,1347 980,1347 980,1363 884,1363 884,1347" id="LUBBIN_LESBULLESDULABO_005_line_79">
            <metadata method="" typography="" idBalloon="LUBBIN_LESBULLESDULABO_005_balloon_18" textType="speech">
                RIGOUREUX,
            </metadata>
        </polygon>
        <polygon points="891,1361 976,1361 976,1376 891,1376 891,1361" id="LUBBIN_LESBULLESDULABO_005_line_80">
            <metadata method="" typography="" idBalloon="LUBBIN_LESBULLESDULABO_005_balloon_18" textType="speech">
                IMPARABLE
            </metadata>
        </polygon>
        <polygon points="913,1375 953,1375 953,1390 913,1390 913,1375" id="LUBBIN_LESBULLESDULABO_005_line_81">
            <metadata method="" typography="" idBalloon="LUBBIN_LESBULLESDULABO_005_balloon_18" textType="speech">
                ET...
            </metadata>
        </polygon>
        <polygon points="881,1510 993,1510 993,1530 881,1530 881,1510" id="LUBBIN_LESBULLESDULABO_005_line_82">
            <metadata method="" typography="" idBalloon="LUBBIN_LESBULLESDULABO_005_balloon_19" textType="speech">... ET
                CLAIR,
            </metadata>
        </polygon>
        <polygon points="891,1529 987,1529 987,1550 891,1550 891,1529" id="LUBBIN_LESBULLESDULABO_005_line_83">
            <metadata method="" typography="" idBalloon="LUBBIN_LESBULLESDULABO_005_balloon_19" textType="speech">JE
                SAIS...
            </metadata>
        </polygon>
        <polygon points="169,1193 324,1193 324,1209 169,1209 169,1193" id="LUBBIN_LESBULLESDULABO_005_line_84">
            <metadata method="" typography="" idBalloon="LUBBIN_LESBULLESDULABO_005_balloon_15" textType="speech">MAIS
                OU EST PASSE
            </metadata>
        </polygon>
        <polygon points="154,1209 339,1209 339,1226 154,1226 154,1209" id="LUBBIN_LESBULLESDULABO_005_line_85">
            <metadata method="" typography="" idBalloon="LUBBIN_LESBULLESDULABO_005_balloon_15" textType="speech">CE
                MAUDIT DOCUMENT ?
            </metadata>
        </polygon>
        <polygon points="333,1570 815,1572 815,1583 333,1582 333,1570" id="LUBBIN_LESBULLESDULABO_005_line_86">
            <metadata method="" typography="" textType="speech">TEXTE : LE COLLECTIF DOC EN STOCK ILLUSTRATION :
                LUBBIN
            </metadata>
        </polygon>
    </svg>
    <svg contentScriptType="text/ecmascript" zoomAndPan="magnify" contentStyleType="text/css" class="linkSBSC"
         preserveAspectRatio="xMidYMid meet" version="1.0">
        <polygon points="116,255 117,255 118,440 117,440 116,255" idCharacter="LUBBIN_LESBULLESDULABO_005_character_0"
                 idBalloon="LUBBIN_LESBULLESDULABO_005_balloon_0"/>
        <polygon points="80,545 81,545 118,440 117,440 80,545" idCharacter="LUBBIN_LESBULLESDULABO_005_character_0"
                 idBalloon="LUBBIN_LESBULLESDULABO_005_balloon_1"/>
        <polygon points="464,234 465,234 509,326 508,326 464,234" idCharacter="LUBBIN_LESBULLESDULABO_005_character_4"
                 idBalloon="LUBBIN_LESBULLESDULABO_005_balloon_2"/>
        <polygon points="725,248 726,248 754,345 753,345 725,248" idCharacter="LUBBIN_LESBULLESDULABO_005_character_7"
                 idBalloon="LUBBIN_LESBULLESDULABO_005_balloon_3"/>
        <polygon points="592,422 593,422 468,509 467,509 592,422" idCharacter="LUBBIN_LESBULLESDULABO_005_character_13"
                 idBalloon="LUBBIN_LESBULLESDULABO_005_balloon_4"/>
        <polygon points="590,532 591,532 578,509 577,509 590,532" idCharacter="LUBBIN_LESBULLESDULABO_005_character_12"
                 idBalloon="LUBBIN_LESBULLESDULABO_005_balloon_5"/>
        <polygon points="1003,238 1004,238 941,450 940,450 1003,238"
                 idCharacter="LUBBIN_LESBULLESDULABO_005_character_8" idBalloon="LUBBIN_LESBULLESDULABO_005_balloon_6"/>
        <polygon points="300,727 300,728 87,740 87,740 300,727" idCharacter="LUBBIN_LESBULLESDULABO_005_character_19"
                 idBalloon="LUBBIN_LESBULLESDULABO_005_balloon_8"/>
        <polygon points="570,666 571,666 475,745 474,745 570,666" idCharacter="LUBBIN_LESBULLESDULABO_005_character_17"
                 idBalloon="LUBBIN_LESBULLESDULABO_005_balloon_9"/>
        <polygon points="865,673 866,673 822,750 821,750 865,673" idCharacter="LUBBIN_LESBULLESDULABO_005_character_15"
                 idBalloon="LUBBIN_LESBULLESDULABO_005_balloon_10"/>
        <polygon points="899,812 900,812 822,750 821,750 899,812" idCharacter="LUBBIN_LESBULLESDULABO_005_character_15"
                 idBalloon="LUBBIN_LESBULLESDULABO_005_balloon_12"/>
        <polygon points="989,705 990,705 1031,765 1030,765 989,705"
                 idCharacter="LUBBIN_LESBULLESDULABO_005_character_14"
                 idBalloon="LUBBIN_LESBULLESDULABO_005_balloon_11"/>
        <polygon points="592,955 593,955 194,957 193,957 592,955" idCharacter="LUBBIN_LESBULLESDULABO_005_character_20"
                 idBalloon="LUBBIN_LESBULLESDULABO_005_balloon_13"/>
        <polygon points="156,1115 157,1115 81,1311 80,1311 156,1115"
                 idCharacter="LUBBIN_LESBULLESDULABO_005_character_26"
                 idBalloon="LUBBIN_LESBULLESDULABO_005_balloon_14"/>
        <polygon points="245,1231 246,1231 157,1384 156,1384 245,1231"
                 idCharacter="LUBBIN_LESBULLESDULABO_005_character_25"
                 idBalloon="LUBBIN_LESBULLESDULABO_005_balloon_15"/>
        <polygon points="384,1142 385,1142 477,1345 476,1345 384,1142"
                 idCharacter="LUBBIN_LESBULLESDULABO_005_character_24"
                 idBalloon="LUBBIN_LESBULLESDULABO_005_balloon_16"/>
        <polygon points="535,1146 536,1146 477,1345 476,1345 535,1146"
                 idCharacter="LUBBIN_LESBULLESDULABO_005_character_24"
                 idBalloon="LUBBIN_LESBULLESDULABO_005_balloon_17"/>
        <polygon points="924,1281 925,1281 827,1311 826,1311 924,1281"
                 idCharacter="LUBBIN_LESBULLESDULABO_005_character_22"
                 idBalloon="LUBBIN_LESBULLESDULABO_005_balloon_18"/>
        <polygon points="955,1513 956,1513 1051,1490 1050,1490 955,1513"
                 idCharacter="LUBBIN_LESBULLESDULABO_005_character_23"
                 idBalloon="LUBBIN_LESBULLESDULABO_005_balloon_19"/>
    </svg>
    <metadata method="GroundTruth" lastModificationDate="Mon Jan 27 18:28:35 CET 2014" lastStepModified="Balloon_Rank"/>
</svg>