<?xml version="1.0" encoding="UTF-8" standalone="no"?>
<svg xmlns:xlink="http://www.w3.org/1999/xlink" xmlns="http://www.w3.org/2000/svg" contentScriptType="text/ecmascript"
     width="424mm" zoomAndPan="magnify" contentStyleType="text/css" height="600mm" viewBox="0 0 848 1200"
     preserveAspectRatio="xMidYMid meet" version="1.0">
    <title>LUBBIN_LESBULLESDULABO_001</title>
    <svg contentScriptType="text/ecmascript" zoomAndPan="magnify" contentStyleType="text/css" class="Page"
         preserveAspectRatio="xMidYMid meet" version="1.0">
        <image x="0" y="0" width="848" xlink:href="../Pages/LUBBIN_LESBULLESDULABO_001.jpg" xlink:type="simple"
               xlink:actuate="onLoad" height="1200" preserveAspectRatio="xMidYMid meet" xlink:show="embed"/>
        <metadata collectionTitle="Les bulles du labo" editorName="Doc en Stock" doublePage="false"
                  website="http://les-bulles-du-labo.blogspot.fr/" albumTitle="" drawerName="Gérald Lubbin"
                  language="french" resolution="" ISBN="" readingDirection="leftToRight" writerName="Gérald Lubbin"
                  releaseDate="2012" pageNumber="1"/>
    </svg>
    <style type="text/css" xml:space="preserve">
        * { stroke-width: 0; stroke-linejoin: round; }
        .Unclassified { fill: orange; stroke: none; opacity: 1.0; visibility: hidden; }
        .Noise { fill: pink; stroke: none; opacity: 0.2; visibility: hidden; }
        .Panel { fill: red; stroke: none; opacity: 0.3; visibility: visible; image-rendering: optimizeSpeed; }
        .Line { fill: green; stroke: none; opacity: 0.5; visibility: visible; image-rendering: optimizeSpeed; }
        .TextArea { fill: grey; stroke: none; opacity: 0.2; visibility: visible; image-rendering: optimizeSpeed; }
        .Balloon { fill: cyan; stroke: none; opacity: 0.5; visibility: visible; image-rendering: optimizeSpeed; }
        .Letter { fill: blue; stroke: none; opacity: 0.2; visibility: hidden; }
        .Character { fill: yellow; stroke: none; opacity: 0.3; visibility: visible; image-rendering: optimizeSpeed; }
        .Page { fill: white; stroke: none; opacity: 0.5; visibility: visible; }
        .linkSBSC { fill: blue; stroke: none; opacity: 0.5; visibility: visible; }
        polygon:hover { stroke:red;stroke-width:2; } 
    </style>
    <svg contentScriptType="text/ecmascript" zoomAndPan="magnify" contentStyleType="text/css" class="Panel"
         preserveAspectRatio="xMidYMid meet" version="1.0">
        <polygon points="24,153 361,153 361,607 24,607 24,153" id="LUBBIN_LESBULLESDULABO_001_panel_0">
            <metadata viewAngle="" shot="" rank="2"/>
        </polygon>
        <polygon points="372,153 685,153 685,410 372,410 372,153" id="LUBBIN_LESBULLESDULABO_001_panel_1">
            <metadata viewAngle="" shot="" rank="3"/>
        </polygon>
        <polygon points="695,152 826,152 826,413 695,413 695,152" id="LUBBIN_LESBULLESDULABO_001_panel_2">
            <metadata viewAngle="" shot="" rank="4"/>
        </polygon>
        <polygon points="371,426 826,426 826,608 371,608 371,426" id="LUBBIN_LESBULLESDULABO_001_panel_3">
            <metadata viewAngle="" shot="" rank="5"/>
        </polygon>
        <polygon points="18,619 206,619 206,848 18,848 18,619" id="LUBBIN_LESBULLESDULABO_001_panel_4">
            <metadata viewAngle="" shot="" rank="6"/>
        </polygon>
        <polygon points="219,622 408,622 408,845 219,845 219,622" id="LUBBIN_LESBULLESDULABO_001_panel_5">
            <metadata viewAngle="" shot="" rank="7"/>
        </polygon>
        <polygon points="422,621 612,621 612,846 422,846 422,621" id="LUBBIN_LESBULLESDULABO_001_panel_6">
            <metadata viewAngle="" shot="" rank="8"/>
        </polygon>
        <polygon points="625,620 826,620 826,844 625,844 625,620" id="LUBBIN_LESBULLESDULABO_001_panel_7">
            <metadata viewAngle="" shot="" rank="9"/>
        </polygon>
        <polygon points="25,859 528,859 528,1161 25,1161 25,859" id="LUBBIN_LESBULLESDULABO_001_panel_8">
            <metadata viewAngle="" shot="" rank="10"/>
        </polygon>
        <polygon points="545,860 825,860 825,1163 545,1163 545,860" id="LUBBIN_LESBULLESDULABO_001_panel_9">
            <metadata viewAngle="" shot="" rank="11"/>
        </polygon>
        <polygon points="19,33 825,33 828,145 19,146 19,33" id="LUBBIN_LESBULLESDULABO_001_panel_10">
            <metadata viewAngle="" shot="" rank="1"/>
        </polygon>
    </svg>
    <svg contentScriptType="text/ecmascript" zoomAndPan="magnify" contentStyleType="text/css" class="TextArea"
         preserveAspectRatio="xMidYMid meet" version="1.0"/>
    <svg contentScriptType="text/ecmascript" zoomAndPan="magnify" contentStyleType="text/css" class="Balloon"
         preserveAspectRatio="xMidYMid meet" version="1.0">
        <polygon
                points="123,160 132,159 134,155 177,155 184,158 185,160 185,161 186,164 186,167 186,171 187,171 191,171 193,175 186,174 185,179 181,184 176,188 170,191 172,194 170,196 166,194 161,197 153,199 145,200 140,196 136,193 134,196 131,199 129,203 127,207 126,211 127,213 132,210 134,210 138,209 138,211 137,217 134,221 132,223 129,227 128,230 126,228 129,222 131,218 132,214 125,216 121,214 122,207 124,202 128,194 131,191 128,185 126,179 125,174 126,169 123,160"
                id="LUBBIN_LESBULLESDULABO_001_balloon_0">
            <metadata borderStyle="smooth" tailTip="128,230" boundingBox="" tailDirection="SW" rank="1"/>
        </polygon>
        <polygon
                points="225,155 246,155 250,158 251,161 252,160 256,164 260,166 265,162 267,164 263,168 264,169 269,175 272,178 274,180 280,179 282,183 274,185 272,189 271,194 269,196 272,197 275,200 273,202 269,199 267,198 265,202 262,207 257,212 251,214 239,214 231,214 229,220 220,218 219,212 214,210 207,204 199,198 194,193 188,195 187,189 192,188 197,179 198,176 193,174 194,171 200,173 204,167 212,161 225,155"
                id="LUBBIN_LESBULLESDULABO_001_balloon_1">
            <metadata borderStyle="smooth" tailTip="194,171" boundingBox="" tailDirection="W" rank="2"/>
        </polygon>
        <polygon
                points="295,189 311,187 321,188 330,189 337,193 345,193 345,199 343,203 350,202 352,206 344,209 347,215 351,215 359,218 358,221 348,226 350,236 351,243 348,249 356,255 350,262 340,255 329,261 321,262 320,265 322,269 318,270 317,266 314,265 305,265 296,266 291,265 289,274 285,272 284,264 275,258 269,251 265,246 256,247 256,241 263,236 265,226 266,220 269,211 274,205 272,202 271,198 275,198 279,199 279,198 295,189"
                id="LUBBIN_LESBULLESDULABO_001_balloon_2">
            <metadata borderStyle="smooth" tailTip="271,198" boundingBox="" tailDirection="NW" rank="3"/>
        </polygon>
        <polygon
                points="280,287 296,286 318,285 335,286 345,290 352,308 351,328 337,340 317,343 292,342 265,339 244,331 237,315 236,304 242,299 235,298 225,295 213,280 202,274 191,274 185,284 188,287 191,282 185,280 178,283 176,288 176,295 179,299 184,299 187,302 189,305 180,305 175,298 171,293 174,281 180,278 188,276 194,280 194,287 189,295 182,289 183,281 186,272 190,269 200,268 209,272 217,278 221,273 226,269 235,265 243,265 254,266 264,268 270,268 272,277 271,284 269,289 280,287"
                id="LUBBIN_LESBULLESDULABO_001_balloon_3">
            <metadata borderStyle="smooth" tailTip="187,302" boundingBox="" tailDirection="SE" rank="4"/>
        </polygon>
        <polygon
                points="419,212 406,211 386,205 375,202 375,168 379,163 383,156 388,154 539,157 543,164 544,174 545,185 545,195 535,204 523,207 507,212 497,212 480,211 473,219 470,225 479,221 490,216 498,218 488,227 475,239 460,253 469,239 479,230 489,221 471,230 462,232 466,223 472,214 473,211 460,212 442,213 421,211 419,212"
                id="LUBBIN_LESBULLESDULABO_001_balloon_4">
            <metadata borderStyle="smooth" tailTip="460,253" boundingBox="" tailDirection="SW" rank="5"/>
        </polygon>
        <polygon
                points="608,167 621,167 637,169 659,172 672,178 682,190 677,204 651,216 619,221 607,220 601,227 600,233 606,236 618,239 622,242 612,244 602,239 595,235 600,227 600,221 577,218 564,210 557,201 557,191 564,183 575,176 591,170 608,167"
                id="LUBBIN_LESBULLESDULABO_001_balloon_5">
            <metadata borderStyle="smooth" tailTip="622,242" boundingBox="" tailDirection="E" rank="6"/>
        </polygon>
        <polygon
                points="695,169 698,161 703,155 824,155 823,195 817,198 813,201 814,211 810,212 806,205 788,214 758,223 755,224 750,224 749,233 743,234 744,226 738,224 730,221 727,227 722,236 727,235 738,230 741,233 736,250 733,249 736,236 725,241 717,244 713,239 718,228 722,219 714,215 711,225 707,224 701,223 705,213 697,209 695,169"
                id="LUBBIN_LESBULLESDULABO_001_balloon_6">
            <metadata borderStyle="smooth" tailTip="736,250" boundingBox="" tailDirection="S" rank="8"/>
        </polygon>
        <polygon
                points="583,362 597,364 602,363 620,368 639,375 653,389 648,405 643,413 553,413 542,399 530,402 518,406 513,394 514,383 517,386 518,396 524,399 538,396 537,387 541,378 583,362"
                id="LUBBIN_LESBULLESDULABO_001_balloon_7">
            <metadata borderStyle="smooth" tailTip="514,383" boundingBox="" tailDirection="N" rank="7"/>
        </polygon>
        <polygon
                points="133,619 201,617 208,624 207,656 194,661 188,660 190,669 188,672 180,669 181,666 185,667 184,660 166,658 148,653 133,646 124,638 130,624 133,619"
                id="LUBBIN_LESBULLESDULABO_001_balloon_8">
            <metadata borderStyle="smooth" tailTip="180,669" boundingBox="" tailDirection="W" rank="9"/>
        </polygon>
        <polygon
                points="44,724 55,721 67,717 77,718 89,720 98,721 108,722 114,725 116,730 113,735 112,737 114,739 119,730 121,728 122,733 124,737 127,735 129,734 133,735 136,739 132,740 128,736 125,741 120,734 113,746 109,739 93,747 84,750 70,750 54,744 42,739 39,729 44,724"
                id="LUBBIN_LESBULLESDULABO_001_balloon_9">
            <metadata borderStyle="smooth" tailTip="136,739" boundingBox="" tailDirection="E" rank="10"/>
        </polygon>
        <polygon
                points="303,622 312,633 316,644 313,657 313,661 312,666 318,661 320,662 333,662 321,667 318,664 310,671 311,662 304,669 290,679 281,679 263,678 245,678 232,675 218,667 218,619 303,622"
                id="LUBBIN_LESBULLESDULABO_001_balloon_10">
            <metadata borderStyle="smooth" tailTip="333,662" boundingBox="" tailDirection="E" rank="11"/>
        </polygon>
        <polygon
                points="259,734 268,740 280,749 278,743 280,739 302,757 284,747 286,754 290,756 288,772 276,777 263,781 250,780 235,752 259,734"
                id="LUBBIN_LESBULLESDULABO_001_balloon_11">
            <metadata borderStyle="smooth" tailTip="302,757" boundingBox="" tailDirection="SE" rank="12"/>
        </polygon>
        <polygon
                points="331,920 376,885 434,863 435,855 450,858 451,862 529,871 529,975 515,988 523,1020 499,998 431,1013 424,1034 412,1044 415,1013 318,1018 307,1014 288,1024 282,1017 299,1002 305,973 299,961 299,986 289,965 288,988 278,982 276,986 276,974 283,982 282,965 295,975 297,953 309,960 316,935 299,919 302,903 322,924 331,920"
                id="LUBBIN_LESBULLESDULABO_001_balloon_12">
            <metadata borderStyle="smooth" tailTip="276,986" boundingBox="" tailDirection="S" rank="13"/>
        </polygon>
        <polygon
                points="544,930 568,916 582,930 591,945 576,969 552,960 549,964 547,967 554,968 550,973 544,971 545,962 546,960 543,956 544,930"
                id="LUBBIN_LESBULLESDULABO_001_balloon_13">
            <metadata borderStyle="smooth" tailTip="554,968" boundingBox="" tailDirection="E" rank="14"/>
        </polygon>
        <polygon
                points="558,860 587,860 597,860 604,863 607,868 615,865 642,864 657,864 670,871 683,879 685,887 675,896 658,912 646,915 633,912 646,937 652,953 650,959 641,953 638,953 638,965 634,969 635,962 636,949 643,949 645,950 636,927 627,912 609,909 592,903 584,895 583,889 573,892 559,888 551,879 548,868 558,860"
                id="LUBBIN_LESBULLESDULABO_001_balloon_14">
            <metadata borderStyle="smooth" tailTip="634,969" boundingBox="" tailDirection="S" rank="15"/>
        </polygon>
        <polygon
                points="718,900 730,901 745,909 742,917 759,914 777,918 795,926 809,932 824,943 817,969 802,979 779,986 776,996 773,1008 781,1003 782,1010 779,1017 778,1019 780,1025 775,1022 776,1010 771,1013 770,1003 773,986 741,988 716,985 698,982 689,975 679,952 688,941 699,932 710,925 702,920 702,909 718,900"
                id="LUBBIN_LESBULLESDULABO_001_balloon_15">
            <metadata borderStyle="smooth" tailTip="780,1025" boundingBox="" tailDirection="S" rank="16"/>
        </polygon>
        <polygon
                points="720,1136 744,1137 763,1137 785,1138 815,1143 825,1145 824,1164 610,1165 608,1158 611,1153 616,1145 624,1142 636,1140 668,1139 687,1137 702,1136 700,1130 696,1121 700,1120 703,1124 702,1105 705,1114 707,1127 702,1126 705,1133 709,1137 714,1137 720,1136"
                id="LUBBIN_LESBULLESDULABO_001_balloon_16">
            <metadata borderStyle="smooth" tailTip="702,1105" boundingBox="" tailDirection="N" rank="17"/>
        </polygon>
    </svg>
    <svg contentScriptType="text/ecmascript" zoomAndPan="magnify" contentStyleType="text/css" class="Character"
         preserveAspectRatio="xMidYMid meet" version="1.0">
        <polygon points="43,288 98,288 98,443 43,443 43,288" id="LUBBIN_LESBULLESDULABO_001_character_0">
            <metadata uri="" area="" fillingPcent=""/>
        </polygon>
        <polygon points="42,368 154,368 154,588 42,588 42,368" id="LUBBIN_LESBULLESDULABO_001_character_1">
            <metadata uri="" area="" fillingPcent=""/>
        </polygon>
        <polygon points="174,310 267,310 267,556 174,556 174,310" id="LUBBIN_LESBULLESDULABO_001_character_2">
            <metadata uri="" area="" fillingPcent=""/>
        </polygon>
        <polygon points="276,360 357,360 357,594 276,594 276,360" id="LUBBIN_LESBULLESDULABO_001_character_3">
            <metadata uri="" area="" fillingPcent=""/>
        </polygon>
        <polygon points="375,199 464,199 464,409 375,409 375,199" id="LUBBIN_LESBULLESDULABO_001_character_4">
            <metadata uri="" area="" fillingPcent=""/>
        </polygon>
        <polygon points="449,275 508,275 508,412 449,412 449,275" id="LUBBIN_LESBULLESDULABO_001_character_5">
            <metadata uri="" area="" fillingPcent=""/>
        </polygon>
        <polygon points="522,240 602,240 602,412 522,412 522,240" id="LUBBIN_LESBULLESDULABO_001_character_6">
            <metadata uri="" area="" fillingPcent=""/>
        </polygon>
        <polygon points="627,237 682,237 682,409 627,409 627,237" id="LUBBIN_LESBULLESDULABO_001_character_7">
            <metadata uri="" area="" fillingPcent=""/>
        </polygon>
        <polygon points="723,237 827,237 827,412 723,412 723,237" id="LUBBIN_LESBULLESDULABO_001_character_8">
            <metadata uri="" area="" fillingPcent=""/>
        </polygon>
        <polygon points="504,501 601,501 601,606 504,606 504,501" id="LUBBIN_LESBULLESDULABO_001_character_9">
            <metadata uri="" area="" fillingPcent=""/>
        </polygon>
        <polygon points="130,656 191,656 191,742 130,742 130,656" id="LUBBIN_LESBULLESDULABO_001_character_10">
            <metadata uri="" area="" fillingPcent=""/>
        </polygon>
        <polygon points="103,729 197,729 197,832 103,832 103,729" id="LUBBIN_LESBULLESDULABO_001_character_11">
            <metadata uri="" area="" fillingPcent=""/>
        </polygon>
        <polygon points="295,730 398,730 398,831 295,831 295,730" id="LUBBIN_LESBULLESDULABO_001_character_12">
            <metadata uri="" area="" fillingPcent=""/>
        </polygon>
        <polygon points="300,639 380,639 380,753 300,753 300,639" id="LUBBIN_LESBULLESDULABO_001_character_13">
            <metadata uri="" area="" fillingPcent=""/>
        </polygon>
        <polygon points="477,727 569,727 569,824 477,824 477,727" id="LUBBIN_LESBULLESDULABO_001_character_14">
            <metadata uri="" area="" fillingPcent=""/>
        </polygon>
        <polygon points="704,731 786,731 786,830 704,830 704,731" id="LUBBIN_LESBULLESDULABO_001_character_15">
            <metadata uri="" area="" fillingPcent=""/>
        </polygon>
        <polygon points="267,986 285,986 285,1021 267,1021 267,986" id="LUBBIN_LESBULLESDULABO_001_character_16">
            <metadata uri="" area="" fillingPcent=""/>
        </polygon>
        <polygon points="543,956 627,956 627,1164 543,1164 543,956" id="LUBBIN_LESBULLESDULABO_001_character_17">
            <metadata uri="" area="" fillingPcent=""/>
        </polygon>
        <polygon points="638,1008 693,1008 693,1150 638,1150 638,1008" id="LUBBIN_LESBULLESDULABO_001_character_18">
            <metadata uri="" area="" fillingPcent=""/>
        </polygon>
        <polygon points="772,1005 823,1005 823,1145 772,1145 772,1005" id="LUBBIN_LESBULLESDULABO_001_character_19">
            <metadata uri="" area="" fillingPcent=""/>
        </polygon>
    </svg>
    <svg contentScriptType="text/ecmascript" zoomAndPan="magnify" contentStyleType="text/css" class="Line"
         preserveAspectRatio="xMidYMid meet" version="1.0">
        <polygon points="39,38 733,38 733,147 39,147 39,38" id="LUBBIN_LESBULLESDULABO_001_line_0">
            <metadata method="" typography="" textType="note">Les bulles du labO!!!</metadata>
        </polygon>
        <polygon points="753,52 788,52 788,68 753,68 753,52" id="LUBBIN_LESBULLESDULABO_001_line_1">
            <metadata method="" typography="" textType="note">Doc</metadata>
        </polygon>
        <polygon points="730,91 744,91 744,99 730,99 730,91" id="LUBBIN_LESBULLESDULABO_001_line_2">
            <metadata method="" typography="" textType="note">en</metadata>
        </polygon>
        <polygon points="770,108 817,108 817,139 770,139 770,108" id="LUBBIN_LESBULLESDULABO_001_line_3">
            <metadata method="" typography="" textType="note">Stock</metadata>
        </polygon>
        <polygon points="700,158 807,158 807,168 700,168 700,158" id="LUBBIN_LESBULLESDULABO_001_line_4">
            <metadata method="" typography="" idBalloon="LUBBIN_LESBULLESDULABO_001_balloon_6" textType="speech">ET BIEN
                ON VERRA
            </metadata>
        </polygon>
        <polygon points="701,169 797,169 797,178 701,178 701,169" id="LUBBIN_LESBULLESDULABO_001_line_5">
            <metadata method="" typography="" idBalloon="LUBBIN_LESBULLESDULABO_001_balloon_6" textType="speech">BIEN
                QUI ARRIVE
            </metadata>
        </polygon>
        <polygon points="701,179 824,179 824,188 701,188 701,179" id="LUBBIN_LESBULLESDULABO_001_line_6">
            <metadata method="" typography="" idBalloon="LUBBIN_LESBULLESDULABO_001_balloon_6" textType="speech">AVEC
                LES MEILLEURES
            </metadata>
        </polygon>
        <polygon points="701,189 810,189 810,197 701,199 701,189" id="LUBBIN_LESBULLESDULABO_001_line_7">
            <metadata method="" typography="" idBalloon="LUBBIN_LESBULLESDULABO_001_balloon_6" textType="speech">
                SIMULATIONS POUR
            </metadata>
        </polygon>
        <polygon points="701,197 775,197 775,207 701,207 701,197" id="LUBBIN_LESBULLESDULABO_001_line_8">
            <metadata method="" typography="" idBalloon="LUBBIN_LESBULLESDULABO_001_balloon_6" textType="speech">LA
                REUNION !
            </metadata>
        </polygon>
        <polygon points="595,171 647,171 647,184 595,184 595,171" id="LUBBIN_LESBULLESDULABO_001_line_9">
            <metadata method="" typography="" idBalloon="LUBBIN_LESBULLESDULABO_001_balloon_5" textType="speech">T'ES
                SUR
            </metadata>
        </polygon>
        <polygon points="562,184 679,184 679,194 562,194 562,184" id="LUBBIN_LESBULLESDULABO_001_line_10">
            <metadata method="" typography="" idBalloon="LUBBIN_LESBULLESDULABO_001_balloon_5" textType="speech">QUE ÇA
                VA CHANGER
            </metadata>
        </polygon>
        <polygon points="573,194 672,194 672,204 573,204 573,194" id="LUBBIN_LESBULLESDULABO_001_line_11">
            <metadata method="" typography="" idBalloon="LUBBIN_LESBULLESDULABO_001_balloon_5" textType="speech">QUELQUE
                CHOSE
            </metadata>
        </polygon>
        <polygon points="614,203 632,203 632,215 614,215 614,203" id="LUBBIN_LESBULLESDULABO_001_line_12">
            <metadata method="" typography="" idBalloon="LUBBIN_LESBULLESDULABO_001_balloon_5" textType="speech">? ?
            </metadata>
        </polygon>
        <polygon points="392,162 530,162 530,176 392,176 392,162" id="LUBBIN_LESBULLESDULABO_001_line_13">
            <metadata method="" typography="" idBalloon="LUBBIN_LESBULLESDULABO_001_balloon_4" textType="speech">AVEC CE
                PARAMÉTRAGE,
            </metadata>
        </polygon>
        <polygon points="421,175 496,175 496,185 421,185 421,175" id="LUBBIN_LESBULLESDULABO_001_line_14">
            <metadata method="" typography="" idBalloon="LUBBIN_LESBULLESDULABO_001_balloon_4" textType="speech">MON
                MODÈLE,
            </metadata>
        </polygon>
        <polygon points="382,185 531,183 531,194 382,197 382,185" id="LUBBIN_LESBULLESDULABO_001_line_15">
            <metadata method="" typography="" idBalloon="LUBBIN_LESBULLESDULABO_001_balloon_4" textType="speech">CA VA
                ÊTRE UNE TUERIE !
            </metadata>
        </polygon>
        <polygon points="141,158 164,158 164,168 141,170 141,158" id="LUBBIN_LESBULLESDULABO_001_line_16">
            <metadata method="" typography="" idBalloon="LUBBIN_LESBULLESDULABO_001_balloon_0" textType="speech">HEY
            </metadata>
        </polygon>
        <polygon points="128,170 182,170 182,179 128,179 128,170" id="LUBBIN_LESBULLESDULABO_001_line_17">
            <metadata method="" typography="" idBalloon="LUBBIN_LESBULLESDULABO_001_balloon_0" textType="speech">LA
                DREAM
            </metadata>
        </polygon>
        <polygon points="138,180 167,180 167,189 138,189 138,180" id="LUBBIN_LESBULLESDULABO_001_line_18">
            <metadata method="" typography="" idBalloon="LUBBIN_LESBULLESDULABO_001_balloon_0" textType="speech">TEAM
            </metadata>
        </polygon>
        <polygon points="147,188 155,188 155,199 147,199 147,188" id="LUBBIN_LESBULLESDULABO_001_line_19">
            <metadata method="" typography="" idBalloon="LUBBIN_LESBULLESDULABO_001_balloon_0" textType="speech">! !
            </metadata>
        </polygon>
        <polygon points="224,160 251,160 251,170 224,170 224,160" id="LUBBIN_LESBULLESDULABO_001_line_20">
            <metadata method="" typography="" idBalloon="LUBBIN_LESBULLESDULABO_001_balloon_1" textType="speech">AVEC
            </metadata>
        </polygon>
        <polygon points="212,171 257,171 257,180 212,180 212,171" id="LUBBIN_LESBULLESDULABO_001_line_21">
            <metadata method="" typography="" idBalloon="LUBBIN_LESBULLESDULABO_001_balloon_1" textType="speech">CE
                QUE
            </metadata>
        </polygon>
        <polygon points="201,178 269,178 269,189 201,189 201,178" id="LUBBIN_LESBULLESDULABO_001_line_22">
            <metadata method="" typography="" idBalloon="LUBBIN_LESBULLESDULABO_001_balloon_1" textType="speech">J'AI
                TROUVÉ
            </metadata>
        </polygon>
        <polygon points="210,190 266,190 266,199 210,199 210,190" id="LUBBIN_LESBULLESDULABO_001_line_23">
            <metadata method="" typography="" idBalloon="LUBBIN_LESBULLESDULABO_001_balloon_1" textType="speech">DANS
                CET
            </metadata>
        </polygon>
        <polygon points="215,200 260,200 260,209 215,209 215,200" id="LUBBIN_LESBULLESDULABO_001_line_24">
            <metadata method="" typography="" idBalloon="LUBBIN_LESBULLESDULABO_001_balloon_1" textType="speech">
                ARTICLE
            </metadata>
        </polygon>
        <polygon points="285,193 329,193 329,202 285,202 285,193" id="LUBBIN_LESBULLESDULABO_001_line_25">
            <metadata method="" typography="" idBalloon="LUBBIN_LESBULLESDULABO_001_balloon_2" textType="speech">JE
                VAIS
            </metadata>
        </polygon>
        <polygon points="281,203 328,203 328,212 281,212 281,203" id="LUBBIN_LESBULLESDULABO_001_line_26">
            <metadata method="" typography="" idBalloon="LUBBIN_LESBULLESDULABO_001_balloon_2" textType="speech">
                DONNER
            </metadata>
        </polygon>
        <polygon points="277,213 333,211 333,221 277,221 277,213" id="LUBBIN_LESBULLESDULABO_001_line_27">
            <metadata method="" typography="" idBalloon="LUBBIN_LESBULLESDULABO_001_balloon_2" textType="speech">UN
                SACRÉ
            </metadata>
        </polygon>
        <polygon points="291,222 323,222 323,231 291,231 291,222" id="LUBBIN_LESBULLESDULABO_001_line_28">
            <metadata method="" typography="" idBalloon="LUBBIN_LESBULLESDULABO_001_balloon_2" textType="speech">COUP
            </metadata>
        </polygon>
        <polygon points="276,232 333,232 333,241 276,241 276,232" id="LUBBIN_LESBULLESDULABO_001_line_29">
            <metadata method="" typography="" idBalloon="LUBBIN_LESBULLESDULABO_001_balloon_2" textType="speech">DE
                BOOST
            </metadata>
        </polygon>
        <polygon points="270,240 344,240 344,251 270,251 270,240" id="LUBBIN_LESBULLESDULABO_001_line_30">
            <metadata method="" typography="" idBalloon="LUBBIN_LESBULLESDULABO_001_balloon_2" textType="speech">A MA
                THÈSE !
            </metadata>
        </polygon>
        <polygon points="223,273 270,273 270,289 223,289 223,273" id="LUBBIN_LESBULLESDULABO_001_line_31">
            <metadata method="" typography="" idBalloon="LUBBIN_LESBULLESDULABO_001_balloon_3" textType="speech">HA ?
                ?
            </metadata>
        </polygon>
        <polygon points="258,294 341,294 341,306 258,306 258,294" id="LUBBIN_LESBULLESDULABO_001_line_32">
            <metadata method="" typography="" idBalloon="LUBBIN_LESBULLESDULABO_001_balloon_3" textType="speech">TU AS
                TROUVÉ
            </metadata>
        </polygon>
        <polygon points="263,306 331,306 331,315 263,315 263,306" id="LUBBIN_LESBULLESDULABO_001_line_33">
            <metadata method="" typography="" idBalloon="LUBBIN_LESBULLESDULABO_001_balloon_3" textType="speech">UN
                CHÈQUE
            </metadata>
        </polygon>
        <polygon points="258,316 337,316 337,325 258,325 258,316" id="LUBBIN_LESBULLESDULABO_001_line_34">
            <metadata method="" typography="" idBalloon="LUBBIN_LESBULLESDULABO_001_balloon_3" textType="speech">DU
                MINISTÈRE
            </metadata>
        </polygon>
        <polygon points="251,323 343,323 343,335 251,335 251,323" id="LUBBIN_LESBULLESDULABO_001_line_35">
            <metadata method="" typography="" idBalloon="LUBBIN_LESBULLESDULABO_001_balloon_3" textType="speech">A
                L'INTERIEUR ?
            </metadata>
        </polygon>
        <polygon points="567,373 620,373 620,382 567,382 567,373" id="LUBBIN_LESBULLESDULABO_001_line_36">
            <metadata method="" typography="" idBalloon="LUBBIN_LESBULLESDULABO_001_balloon_7" textType="speech">
                SURTOUT
            </metadata>
        </polygon>
        <polygon points="539,381 646,381 646,392 539,392 539,381" id="LUBBIN_LESBULLESDULABO_001_line_37">
            <metadata method="" typography="" idBalloon="LUBBIN_LESBULLESDULABO_001_balloon_7" textType="speech">QU'IL Y
                A RÉUNION
            </metadata>
        </polygon>
        <polygon points="566,390 621,390 621,402 566,402 566,390" id="LUBBIN_LESBULLESDULABO_001_line_38">
            <metadata method="" typography="" idBalloon="LUBBIN_LESBULLESDULABO_001_balloon_7" textType="speech">
                D'EQUIPE
            </metadata>
        </polygon>
        <polygon points="567,403 625,403 625,416 567,416 567,403" id="LUBBIN_LESBULLESDULABO_001_line_39">
            <metadata method="" typography="" idBalloon="LUBBIN_LESBULLESDULABO_001_balloon_7" textType="speech">DEMAIN
                !
            </metadata>
        </polygon>
        <polygon points="134,616 202,616 202,625 134,625 134,616" id="LUBBIN_LESBULLESDULABO_001_line_40">
            <metadata method="" typography="" idBalloon="LUBBIN_LESBULLESDULABO_001_balloon_8" textType="speech">OUBLIES
                PAS
            </metadata>
        </polygon>
        <polygon points="132,626 205,626 205,635 132,635 132,626" id="LUBBIN_LESBULLESDULABO_001_line_41">
            <metadata method="" typography="" idBalloon="LUBBIN_LESBULLESDULABO_001_balloon_8" textType="speech">DE
                RECODER
            </metadata>
        </polygon>
        <polygon points="140,636 196,636 196,645 140,645 140,636" id="LUBBIN_LESBULLESDULABO_001_line_42">
            <metadata method="" typography="" idBalloon="LUBBIN_LESBULLESDULABO_001_balloon_8" textType="speech">TES
                FLUX
            </metadata>
        </polygon>
        <polygon points="152,644 212,644 212,655 152,655 152,644" id="LUBBIN_LESBULLESDULABO_001_line_43">
            <metadata method="" typography="" idBalloon="LUBBIN_LESBULLESDULABO_001_balloon_8" textType="speech">SURTOUT
                !
            </metadata>
        </polygon>
        <polygon points="239,621 283,620 283,632 239,632 239,621" id="LUBBIN_LESBULLESDULABO_001_line_44">
            <metadata method="" typography="" idBalloon="LUBBIN_LESBULLESDULABO_001_balloon_10" textType="speech">
                VERIFIE
            </metadata>
        </polygon>
        <polygon points="227,633 301,630 301,642 227,642 227,633" id="LUBBIN_LESBULLESDULABO_001_line_45">
            <metadata method="" typography="" idBalloon="LUBBIN_LESBULLESDULABO_001_balloon_10" textType="speech">LA
                STABILITÉ
            </metadata>
        </polygon>
        <polygon points="218,642 310,642 310,651 218,651 218,642" id="LUBBIN_LESBULLESDULABO_001_line_46">
            <metadata method="" typography="" idBalloon="LUBBIN_LESBULLESDULABO_001_balloon_10" textType="speech">DE TON
                MOÈELE
            </metadata>
        </polygon>
        <polygon points="224,652 303,652 303,663 224,663 224,652" id="LUBBIN_LESBULLESDULABO_001_line_47">
            <metadata method="" typography="" idBalloon="LUBBIN_LESBULLESDULABO_001_balloon_10" textType="speech">AUSSI,
                HEIN ?
            </metadata>
        </polygon>
        <polygon points="45,725 109,725 109,737 45,737 45,725" id="LUBBIN_LESBULLESDULABO_001_line_48">
            <metadata method="" typography="" idBalloon="LUBBIN_LESBULLESDULABO_001_balloon_9" textType="speech">
                T'INQUIÈTE
            </metadata>
        </polygon>
        <polygon points="76,736 77,736 77,747 76,747 76,736" id="LUBBIN_LESBULLESDULABO_001_line_49">
            <metadata method="" typography="" idBalloon="LUBBIN_LESBULLESDULABO_001_balloon_9" textType="speech">!
            </metadata>
        </polygon>
        <polygon points="245,750 281,750 281,761 245,761 245,750" id="LUBBIN_LESBULLESDULABO_001_line_50">
            <metadata method="" typography="" idBalloon="LUBBIN_LESBULLESDULABO_001_balloon_11" textType="speech">
                OUAIS,
            </metadata>
        </polygon>
        <polygon points="245,760 285,760 285,769 245,769 245,760" id="LUBBIN_LESBULLESDULABO_001_line_51">
            <metadata method="" typography="" idBalloon="LUBBIN_LESBULLESDULABO_001_balloon_11" textType="speech">
                OUAIS...
            </metadata>
        </polygon>
        <polygon points="552,676 592,676 592,686 552,686 552,676" id="LUBBIN_LESBULLESDULABO_001_line_52">
            <metadata method="" typography="" textType="onomatopoeia">clac !</metadata>
        </polygon>
        <polygon points="713,622 818,622 818,653 713,653 713,622" id="LUBBIN_LESBULLESDULABO_001_line_53">
            <metadata method="" typography="" textType="onomatopoeia">tuuuu</metadata>
        </polygon>
        <polygon points="732,658 807,658 807,678 732,678 732,658" id="LUBBIN_LESBULLESDULABO_001_line_54">
            <metadata method="" typography="" textType="onomatopoeia">UUUU</metadata>
        </polygon>
        <polygon points="742,681 805,681 805,698 742,698 742,681" id="LUBBIN_LESBULLESDULABO_001_line_55">
            <metadata method="" typography="" textType="onomatopoeia">uuuu</metadata>
        </polygon>
        <polygon points="752,700 803,700 803,713 752,713 752,700" id="LUBBIN_LESBULLESDULABO_001_line_56">
            <metadata method="" typography="" textType="onomatopoeia">uuuu</metadata>
        </polygon>
        <polygon points="765,714 796,714 796,725 765,725 765,714" id="LUBBIN_LESBULLESDULABO_001_line_57">
            <metadata method="" typography="" textType="onomatopoeia">uuu</metadata>
        </polygon>
        <polygon points="767,725 796,725 796,734 767,734 767,725" id="LUBBIN_LESBULLESDULABO_001_line_58">
            <metadata method="" typography="" textType="onomatopoeia">uuuu</metadata>
        </polygon>
        <polygon points="552,867 599,867 598,877 552,877 552,867" id="LUBBIN_LESBULLESDULABO_001_line_59">
            <metadata method="" typography="" idBalloon="LUBBIN_LESBULLESDULABO_001_balloon_14" textType="speech">ALORS
                ?
            </metadata>
        </polygon>
        <polygon points="591,876 675,876 675,886 591,886 591,876" id="LUBBIN_LESBULLESDULABO_001_line_60">
            <metadata method="" typography="" idBalloon="LUBBIN_LESBULLESDULABO_001_balloon_14" textType="speech">VOUS
                AVEZ VU
            </metadata>
        </polygon>
        <polygon points="588,886 675,886 675,895 588,895 588,886" id="LUBBIN_LESBULLESDULABO_001_line_61">
            <metadata method="" typography="" idBalloon="LUBBIN_LESBULLESDULABO_001_balloon_14" textType="speech">NOTRE
                AMI LEO
            </metadata>
        </polygon>
        <polygon points="600,896 663,896 663,906 600,906 600,896" id="LUBBIN_LESBULLESDULABO_001_line_62">
            <metadata method="" typography="" idBalloon="LUBBIN_LESBULLESDULABO_001_balloon_14" textType="speech">CE
                MATIN ?
            </metadata>
        </polygon>
        <polygon points="549,935 575,935 575,945 549,945 549,935" id="LUBBIN_LESBULLESDULABO_001_line_63">
            <metadata method="" typography="" idBalloon="LUBBIN_LESBULLESDULABO_001_balloon_13" textType="speech">CIAO
            </metadata>
        </polygon>
        <polygon points="547,945 581,945 581,955 547,955 547,945" id="LUBBIN_LESBULLESDULABO_001_line_64">
            <metadata method="" typography="" idBalloon="LUBBIN_LESBULLESDULABO_001_balloon_13" textType="speech">
                TUTTI
            </metadata>
        </polygon>
        <polygon points="711,908 735,908 735,918 711,918 711,908" id="LUBBIN_LESBULLESDULABO_001_line_65">
            <metadata method="" typography="" idBalloon="LUBBIN_LESBULLESDULABO_001_balloon_15" textType="speech">NON
            </metadata>
        </polygon>
        <polygon points="718,928 789,928 789,939 718,939 718,928" id="LUBBIN_LESBULLESDULABO_001_line_66">
            <metadata method="" typography="" idBalloon="LUBBIN_LESBULLESDULABO_001_balloon_15" textType="speech">LE
                SERVEUR
            </metadata>
        </polygon>
        <polygon points="698,938 813,938 813,948 698,948 698,938" id="LUBBIN_LESBULLESDULABO_001_line_67">
            <metadata method="" typography="" idBalloon="LUBBIN_LESBULLESDULABO_001_balloon_15" textType="speech">A
                PLANTÉ HIER SOIR
            </metadata>
        </polygon>
        <polygon points="697,947 810,948 810,958 697,958 697,947" id="LUBBIN_LESBULLESDULABO_001_line_68">
            <metadata method="" typography="" idBalloon="LUBBIN_LESBULLESDULABO_001_balloon_15" textType="speech">ALORS
                QU'IL FAISAIT
            </metadata>
        </polygon>
        <polygon points="691,959 816,959 816,968 691,968 691,959" id="LUBBIN_LESBULLESDULABO_001_line_69">
            <metadata method="" typography="" idBalloon="LUBBIN_LESBULLESDULABO_001_balloon_15" textType="speech">LES
                DERNIERS TESTS
            </metadata>
        </polygon>
        <polygon points="706,968 801,968 801,977 706,977 706,968" id="LUBBIN_LESBULLESDULABO_001_line_70">
            <metadata method="" typography="" idBalloon="LUBBIN_LESBULLESDULABO_001_balloon_15" textType="speech">DE SON
                MODÈLE.
            </metadata>
        </polygon>
        <polygon points="342,884 443,884 443,951 342,951 342,884" id="LUBBIN_LESBULLESDULABO_001_line_71">
            <metadata method="" typography="" idBalloon="LUBBIN_LESBULLESDULABO_001_balloon_12" textType="speech">
                THÈSE
            </metadata>
        </polygon>
        <polygon points="445,873 521,873 521,911 445,911 445,873" id="LUBBIN_LESBULLESDULABO_001_line_72">
            <metadata method="" typography="" idBalloon="LUBBIN_LESBULLESDULABO_001_balloon_12" textType="speech">DE
            </metadata>
        </polygon>
        <polygon points="309,913 537,913 537,1012 309,1012 309,913" id="LUBBIN_LESBULLESDULABO_001_line_73">
            <metadata method="" typography="" idBalloon="LUBBIN_LESBULLESDULABO_001_balloon_12" textType="speech">
                MERDEEEEE
            </metadata>
        </polygon>
        <polygon points="634,1144 814,1144 814,1154 634,1154 634,1144" id="LUBBIN_LESBULLESDULABO_001_line_74">
            <metadata method="" typography="" idBalloon="LUBBIN_LESBULLESDULABO_001_balloon_16" textType="speech">J'EN
                CONNAIS UN QUI SERA PAS
            </metadata>
        </polygon>
        <polygon points="615,1153 816,1153 816,1164 615,1164 615,1153" id="LUBBIN_LESBULLESDULABO_001_line_75">
            <metadata method="" typography="" idBalloon="LUBBIN_LESBULLESDULABO_001_balloon_16" textType="speech">PRÊT
                POUR LA REUNION D'ÉQUIPE...
            </metadata>
        </polygon>
        <polygon points="635,727 666,727 666,749 635,749 635,727" id="LUBBIN_LESBULLESDULABO_001_line_76">
            <metadata method="" typography="" textType="illustrative">PIZZA</metadata>
        </polygon>
        <polygon points="187,861 314,861 314,948 187,948 187,861" id="LUBBIN_LESBULLESDULABO_001_line_77">
            <metadata method="" typography="" idBalloon="LUBBIN_LESBULLESDULABO_001_balloon_12" textType="illustrative">
                MALE SUPERIEU
            </metadata>
        </polygon>
        <polygon points="172,532 236,532 236,551 172,551 172,532" id="LUBBIN_LESBULLESDULABO_001_line_78">
            <metadata method="" typography="" textType="illustrative">MOULINEB</metadata>
        </polygon>
        <polygon points="774,749 798,749 798,755 774,755 774,749" id="LUBBIN_LESBULLESDULABO_001_line_79">
            <metadata method="" typography="" textType="onomatopoeia">fatal</metadata>
        </polygon>
        <polygon points="772,754 799,754 799,759 772,759 772,754" id="LUBBIN_LESBULLESDULABO_001_line_80">
            <metadata method="" typography="" textType="speech">error</metadata>
        </polygon>
    </svg>
    <svg contentScriptType="text/ecmascript" zoomAndPan="magnify" contentStyleType="text/css" class="linkSBSC"
         preserveAspectRatio="xMidYMid meet" version="1.0">
        <polygon points="157,192 158,192 71,365 70,365 157,192" idCharacter="LUBBIN_LESBULLESDULABO_001_character_0"
                 idBalloon="LUBBIN_LESBULLESDULABO_001_balloon_0"/>
        <polygon points="234,187 235,187 71,365 70,365 234,187" idCharacter="LUBBIN_LESBULLESDULABO_001_character_0"
                 idBalloon="LUBBIN_LESBULLESDULABO_001_balloon_1"/>
        <polygon points="307,230 308,230 71,365 70,365 307,230" idCharacter="LUBBIN_LESBULLESDULABO_001_character_0"
                 idBalloon="LUBBIN_LESBULLESDULABO_001_balloon_2"/>
        <polygon points="261,304 262,304 221,433 220,433 261,304" idCharacter="LUBBIN_LESBULLESDULABO_001_character_2"
                 idBalloon="LUBBIN_LESBULLESDULABO_001_balloon_3"/>
        <polygon points="460,203 461,203 420,304 419,304 460,203" idCharacter="LUBBIN_LESBULLESDULABO_001_character_4"
                 idBalloon="LUBBIN_LESBULLESDULABO_001_balloon_4"/>
        <polygon points="583,387 584,387 563,326 562,326 583,387" idCharacter="LUBBIN_LESBULLESDULABO_001_character_6"
                 idBalloon="LUBBIN_LESBULLESDULABO_001_balloon_7"/>
        <polygon points="619,205 620,205 655,323 654,323 619,205" idCharacter="LUBBIN_LESBULLESDULABO_001_character_7"
                 idBalloon="LUBBIN_LESBULLESDULABO_001_balloon_5"/>
        <polygon points="759,202 760,202 776,324 775,324 759,202" idCharacter="LUBBIN_LESBULLESDULABO_001_character_8"
                 idBalloon="LUBBIN_LESBULLESDULABO_001_balloon_6"/>
        <polygon points="87,733 88,733 151,780 150,780 87,733" idCharacter="LUBBIN_LESBULLESDULABO_001_character_11"
                 idBalloon="LUBBIN_LESBULLESDULABO_001_balloon_9"/>
        <polygon points="166,644 167,644 161,699 160,699 166,644" idCharacter="LUBBIN_LESBULLESDULABO_001_character_10"
                 idBalloon="LUBBIN_LESBULLESDULABO_001_balloon_8"/>
        <polygon points="275,649 276,649 341,696 340,696 275,649" idCharacter="LUBBIN_LESBULLESDULABO_001_character_13"
                 idBalloon="LUBBIN_LESBULLESDULABO_001_balloon_10"/>
        <polygon points="268,757 269,757 347,780 346,780 268,757" idCharacter="LUBBIN_LESBULLESDULABO_001_character_12"
                 idBalloon="LUBBIN_LESBULLESDULABO_001_balloon_11"/>
        <polygon points="402,949 403,949 277,1003 276,1003 402,949"
                 idCharacter="LUBBIN_LESBULLESDULABO_001_character_16"
                 idBalloon="LUBBIN_LESBULLESDULABO_001_balloon_12"/>
        <polygon points="567,944 568,944 586,1060 585,1060 567,944"
                 idCharacter="LUBBIN_LESBULLESDULABO_001_character_17"
                 idBalloon="LUBBIN_LESBULLESDULABO_001_balloon_13"/>
        <polygon points="616,914 617,914 586,1060 585,1060 616,914"
                 idCharacter="LUBBIN_LESBULLESDULABO_001_character_17"
                 idBalloon="LUBBIN_LESBULLESDULABO_001_balloon_14"/>
        <polygon points="751,962 752,962 798,1075 797,1075 751,962"
                 idCharacter="LUBBIN_LESBULLESDULABO_001_character_19"
                 idBalloon="LUBBIN_LESBULLESDULABO_001_balloon_15"/>
        <polygon points="716,1135 717,1135 666,1079 665,1079 716,1135"
                 idCharacter="LUBBIN_LESBULLESDULABO_001_character_18"
                 idBalloon="LUBBIN_LESBULLESDULABO_001_balloon_16"/>
    </svg>
    <metadata method="GroundTruth" lastModificationDate="Sat Jan 25 20:47:59 CET 2014" lastStepModified="Balloon_Rank"/>
</svg>