<?xml version="1.0" encoding="UTF-8" standalone="no"?>
<svg xmlns:xlink="http://www.w3.org/1999/xlink" xmlns="http://www.w3.org/2000/svg" contentScriptType="text/ecmascript"
     width="745mm" zoomAndPan="magnify" contentStyleType="text/css" height="1083mm" viewBox="0 0 1491 2166"
     preserveAspectRatio="xMidYMid meet" version="1.0">
    <title>MCCALL_ROBINHOOD_T31_015</title>
    <svg contentScriptType="text/ecmascript" zoomAndPan="magnify" contentStyleType="text/css" class="Page"
         preserveAspectRatio="xMidYMid meet" version="1.0">
        <image x="0" y="0" width="1491" xlink:href="../Pages/MCCALL_ROBINHOOD_T31_015.jpg" xlink:type="simple"
               xlink:actuate="onLoad" height="2166" preserveAspectRatio="xMidYMid meet" xlink:show="embed"/>
        <metadata ISBN="" doublePage="" albumTitle="Robin Hood And Company 31" releaseDate="1946"
                  collectionTitle="Robin Hood And Company" readingDirection="leftToRight"
                  website="http://comicbookplus.com/?dlid=31922" drawerName="Ted McCall" pageNumber="15"
                  language="english" writerName="Ted McCall" editorName="Small Press"/>
    </svg>
    <style type="text/css" xml:space="preserve">
        * { stroke-width: 0; stroke-linejoin: round; }
        .Unclassified { fill: orange; stroke: none; opacity: 1.0; visibility: hidden; }
        .Noise { fill: pink; stroke: none; opacity: 0.2; visibility: hidden; }
        .Panel { fill: red; stroke: none; opacity: 0.3; visibility: visible; image-rendering: optimizeSpeed; }
        .Line { fill: green; stroke: none; opacity: 0.5; visibility: visible; image-rendering: optimizeSpeed; }
        .TextArea { fill: grey; stroke: none; opacity: 0.2; visibility: visible; image-rendering: optimizeSpeed; }
        .Balloon { fill: cyan; stroke: none; opacity: 0.5; visibility: visible; image-rendering: optimizeSpeed; }
        .Letter { fill: blue; stroke: none; opacity: 0.2; visibility: hidden; }
        .Character { fill: yellow; stroke: none; opacity: 0.3; visibility: visible; image-rendering: optimizeSpeed; }
        .Page { fill: white; stroke: none; opacity: 0.5; visibility: visible; }
        .linkSBSC { fill: blue; stroke: none; opacity: 0.5; visibility: visible; }
        polygon:hover { stroke:red;stroke-width:2; } 
    </style>
    <svg contentScriptType="text/ecmascript" zoomAndPan="magnify" contentStyleType="text/css" class="Panel"
         preserveAspectRatio="xMidYMid meet" version="1.0">
        <polygon points="44,82 892,82 892,765 44,765 44,82" id="MCCALL_ROBINHOOD_T31_015_panel_0">
            <metadata viewAngle="" uri="" shot="" area="" rank="1" fillingPcent=""/>
        </polygon>
        <polygon points="907,84 1443,84 1443,764 907,764 907,84" id="MCCALL_ROBINHOOD_T31_015_panel_1">
            <metadata viewAngle="" uri="" shot="" area="" rank="2" fillingPcent=""/>
        </polygon>
        <polygon points="43,776 693,776 693,1354 43,1354 43,776" id="MCCALL_ROBINHOOD_T31_015_panel_2">
            <metadata viewAngle="" uri="" shot="" area="" rank="3" fillingPcent=""/>
        </polygon>
        <polygon points="715,776 1446,776 1446,1354 715,1354 715,776" id="MCCALL_ROBINHOOD_T31_015_panel_3">
            <metadata viewAngle="" uri="" shot="" area="" rank="4" fillingPcent=""/>
        </polygon>
        <polygon points="45,1368 737,1368 737,2104 45,2104 45,1368" id="MCCALL_ROBINHOOD_T31_015_panel_4">
            <metadata viewAngle="" uri="" shot="" area="" rank="5" fillingPcent=""/>
        </polygon>
        <polygon points="754,1371 1450,1371 1450,2101 754,2101 754,1371" id="MCCALL_ROBINHOOD_T31_015_panel_5">
            <metadata viewAngle="" uri="" shot="" area="" rank="6" fillingPcent=""/>
        </polygon>
    </svg>
    <svg contentScriptType="text/ecmascript" zoomAndPan="magnify" contentStyleType="text/css" class="TextArea"
         preserveAspectRatio="xMidYMid meet" version="1.0"/>
    <svg contentScriptType="text/ecmascript" zoomAndPan="magnify" contentStyleType="text/css" class="Balloon"
         preserveAspectRatio="xMidYMid meet" version="1.0">
        <polygon points="39,87 316,80 323,764 43,766 39,87" id="MCCALL_ROBINHOOD_T31_015_balloon_0">
            <metadata borderStyle="smooth" tailTip="" boundingBox="" tailDirection="none" rank="1"/>
        </polygon>
        <polygon
                points="334,121 347,116 347,103 350,92 363,83 531,80 551,97 558,116 554,124 580,136 594,150 601,197 592,228 574,235 573,262 556,268 541,296 516,310 485,320 461,321 444,308 438,312 419,370 425,339 420,316 394,311 372,304 370,293 347,288 332,270 327,256 326,229 329,214 319,200 314,188 312,176 316,162 323,142 332,129 340,119 334,121"
                id="MCCALL_ROBINHOOD_T31_015_balloon_1">
            <metadata borderStyle="wavy" tailTip="419,370" boundingBox="" tailDirection="S" rank="2"/>
        </polygon>
        <polygon
                points="606,125 608,118 606,108 614,93 620,83 848,80 862,92 870,99 869,112 877,122 884,129 889,139 892,150 885,166 884,176 888,185 889,200 887,210 877,226 867,233 859,236 856,249 844,256 829,262 812,262 801,266 790,270 780,273 769,280 751,293 718,299 703,296 686,291 672,281 655,280 645,281 583,320 616,277 601,268 590,258 578,241 587,146 606,125"
                id="MCCALL_ROBINHOOD_T31_015_balloon_2">
            <metadata borderStyle="wavy" tailTip="583,320" boundingBox="" tailDirection="SW" rank="3"/>
        </polygon>
        <polygon points="905,78 1449,80 1451,191 904,194 905,78 905,78" id="MCCALL_ROBINHOOD_T31_015_balloon_3">
            <metadata borderStyle="smooth" tailTip="" boundingBox="" tailDirection="none" rank="4"/>
        </polygon>
        <polygon points="41,778 505,774 505,972 40,967 41,778" id="MCCALL_ROBINHOOD_T31_015_balloon_4">
            <metadata borderStyle="smooth" tailTip="" boundingBox="" tailDirection="none" rank="5"/>
        </polygon>
        <polygon
                points="762,759 786,740 826,729 873,727 898,734 918,745 924,761 931,771 941,777 946,790 949,806 946,824 940,842 935,852 947,878 950,893 927,881 919,866 898,875 887,873 868,891 827,894 798,895 779,887 777,881 756,883 740,877 728,863 719,856 705,838 703,796 712,780 725,775 746,761 762,759"
                id="MCCALL_ROBINHOOD_T31_015_balloon_5">
            <metadata borderStyle="wavy" tailTip="950,893" boundingBox="" tailDirection="SE" rank="6"/>
        </polygon>
        <polygon
                points="1147,742 1188,726 1213,726 1228,719 1248,724 1263,726 1275,730 1290,739 1295,759 1306,755 1322,759 1338,763 1351,770 1363,774 1384,796 1386,821 1388,841 1375,852 1373,866 1363,880 1349,888 1335,893 1324,890 1292,902 1275,908 1255,908 1231,904 1224,896 1206,900 1176,908 1131,899 1112,885 1107,876 1091,884 1067,902 1043,913 1059,888 1079,868 1059,850 1050,831 1053,806 1067,779 1086,763 1107,759 1109,750 1136,749 1147,742"
                id="MCCALL_ROBINHOOD_T31_015_balloon_6">
            <metadata borderStyle="wavy" tailTip="1043,913" boundingBox="" tailDirection="SW" rank="7"/>
        </polygon>
        <polygon points="716,1221 1453,1221 1450,1360 712,1356 716,1221" id="MCCALL_ROBINHOOD_T31_015_balloon_7">
            <metadata borderStyle="smooth" tailTip="" boundingBox="" tailDirection="none" rank="8"/>
        </polygon>
        <polygon
                points="153,1341 190,1342 218,1355 239,1375 266,1364 292,1373 315,1391 329,1406 353,1422 360,1446 359,1466 365,1491 359,1520 338,1534 312,1543 286,1553 259,1553 230,1538 228,1551 215,1571 215,1545 213,1531 201,1537 185,1542 165,1547 138,1553 119,1554 97,1553 71,1537 63,1524 46,1517 45,1430 54,1416 72,1403 89,1394 87,1381 93,1368 103,1360 153,1341"
                id="MCCALL_ROBINHOOD_T31_015_balloon_8">
            <metadata borderStyle="wavy" tailTip="215,1571" boundingBox="" tailDirection="S" rank="9"/>
        </polygon>
        <polygon
                points="518,1376 539,1373 562,1366 592,1372 612,1377 633,1393 639,1407 653,1410 672,1415 689,1433 701,1452 703,1469 699,1498 687,1515 669,1522 656,1522 624,1546 603,1554 581,1554 565,1553 554,1543 549,1539 535,1537 535,1550 532,1567 525,1550 521,1540 503,1541 480,1535 464,1526 454,1520 453,1510 434,1498 429,1479 429,1458 435,1433 452,1414 465,1404 482,1397 496,1397 503,1385 518,1376 518,1376"
                id="MCCALL_ROBINHOOD_T31_015_balloon_9">
            <metadata borderStyle="wavy" tailTip="532,1567" boundingBox="" tailDirection="S" rank="10"/>
        </polygon>
        <polygon points="41,1997 739,2001 740,2110 41,2109 41,1997" id="MCCALL_ROBINHOOD_T31_015_balloon_10">
            <metadata borderStyle="smooth" tailTip="" boundingBox="" tailDirection="none" rank="11"/>
        </polygon>
        <polygon points="757,1970 1458,1975 1458,2103 754,2109 757,1970" id="MCCALL_ROBINHOOD_T31_015_balloon_11">
            <metadata borderStyle="smooth" tailTip="" boundingBox="" tailDirection="none" rank="12"/>
        </polygon>
    </svg>
    <svg contentScriptType="text/ecmascript" zoomAndPan="magnify" contentStyleType="text/css" class="Character"
         preserveAspectRatio="xMidYMid meet" version="1.0">
        <polygon points="311,429 573,429 573,735 311,735 311,429" id="MCCALL_ROBINHOOD_T31_015_character_0">
            <metadata uri="" area="" fillingPcent=""/>
        </polygon>
        <polygon points="307,389 395,389 395,666 307,666 307,389" id="MCCALL_ROBINHOOD_T31_015_character_1">
            <metadata uri="" area="" fillingPcent=""/>
        </polygon>
        <polygon points="1224,441 1356,441 1356,660 1224,660 1224,441" id="MCCALL_ROBINHOOD_T31_015_character_2">
            <metadata uri="" area="" fillingPcent=""/>
        </polygon>
        <polygon points="1052,439 1214,439 1214,639 1052,639 1052,439" id="MCCALL_ROBINHOOD_T31_015_character_3">
            <metadata uri="" area="" fillingPcent=""/>
        </polygon>
        <polygon points="768,1514 1211,1514 1211,1975 768,1975 768,1514" id="MCCALL_ROBINHOOD_T31_015_character_4">
            <metadata uri="" area="" fillingPcent=""/>
        </polygon>
        <polygon points="41,1571 232,1571 232,2003 41,2003 41,1571" id="MCCALL_ROBINHOOD_T31_015_character_5">
            <metadata uri="" area="" fillingPcent=""/>
        </polygon>
        <polygon points="460,1590 702,1590 702,2013 460,2013 460,1590" id="MCCALL_ROBINHOOD_T31_015_character_6">
            <metadata uri="" area="" fillingPcent=""/>
        </polygon>
        <polygon points="1198,1487 1449,1487 1449,1985 1198,1985 1198,1487" id="MCCALL_ROBINHOOD_T31_015_character_7">
            <metadata uri="" area="" fillingPcent=""/>
        </polygon>
        <polygon points="1162,1000 1343,1000 1343,1234 1162,1234 1162,1000" id="MCCALL_ROBINHOOD_T31_015_character_8">
            <metadata uri="" area="" fillingPcent=""/>
        </polygon>
        <polygon points="1343,968 1442,968 1442,1196 1343,1196 1343,968" id="MCCALL_ROBINHOOD_T31_015_character_9">
            <metadata uri="" area="" fillingPcent=""/>
        </polygon>
    </svg>
    <svg contentScriptType="text/ecmascript" zoomAndPan="magnify" contentStyleType="text/css" class="Line"
         preserveAspectRatio="xMidYMid meet" version="1.0">
        <polygon points="121,256 223,256 223,297 121,297 121,256" id="MCCALL_ROBINHOOD_T31_015_line_0">
            <metadata typography="" uri="" method="" area="" fillingPcent="" rank=""
                      idBalloon="MCCALL_ROBINHOOD_T31_015_balloon_0" textType="narrative">ON THE
            </metadata>
        </polygon>
        <polygon points="80,299 262,299 262,325 80,325 80,299" id="MCCALL_ROBINHOOD_T31_015_line_1">
            <metadata typography="" uri="" method="" area="" fillingPcent="" rank=""
                      idBalloon="MCCALL_ROBINHOOD_T31_015_balloon_0" textType="narrative">LOWER HALLS,
            </metadata>
        </polygon>
        <polygon points="100,327 225,327 225,347 100,347 100,327" id="MCCALL_ROBINHOOD_T31_015_line_2">
            <metadata typography="" uri="" method="" area="" fillingPcent="" rank=""
                      idBalloon="MCCALL_ROBINHOOD_T31_015_balloon_0" textType="narrative">ROBIN AND
            </metadata>
        </polygon>
        <polygon points="105,351 214,351 214,373 105,373 105,351" id="MCCALL_ROBINHOOD_T31_015_line_3">
            <metadata typography="" uri="" method="" area="" fillingPcent="" rank=""
                      idBalloon="MCCALL_ROBINHOOD_T31_015_balloon_0" textType="narrative">HIS MEN
            </metadata>
        </polygon>
        <polygon points="82,374 245,374 245,402 82,402 82,374" id="MCCALL_ROBINHOOD_T31_015_line_4">
            <metadata typography="" uri="" method="" area="" fillingPcent="" rank=""
                      idBalloon="MCCALL_ROBINHOOD_T31_015_balloon_0" textType="narrative">BATTER THE
            </metadata>
        </polygon>
        <polygon points="116,401 199,401 199,421 116,421 116,401" id="MCCALL_ROBINHOOD_T31_015_line_5">
            <metadata typography="" uri="" method="" area="" fillingPcent="" rank=""
                      idBalloon="MCCALL_ROBINHOOD_T31_015_balloon_0" textType="narrative">CASTLE
            </metadata>
        </polygon>
        <polygon points="100,424 226,424 225,451 100,451 100,424" id="MCCALL_ROBINHOOD_T31_015_line_6">
            <metadata typography="" uri="" method="" area="" fillingPcent="" rank=""
                      idBalloon="MCCALL_ROBINHOOD_T31_015_balloon_0" textType="narrative">SOLDIERS
            </metadata>
        </polygon>
        <polygon points="110,453 214,453 214,475 110,475 110,453" id="MCCALL_ROBINHOOD_T31_015_line_7">
            <metadata typography="" uri="" method="" area="" fillingPcent="" rank=""
                      idBalloon="MCCALL_ROBINHOOD_T31_015_balloon_0" textType="narrative">BACK IN
            </metadata>
        </polygon>
        <polygon points="110,473 220,473 220,498 110,498 110,473" id="MCCALL_ROBINHOOD_T31_015_line_8">
            <metadata typography="" uri="" method="" area="" fillingPcent="" rank=""
                      idBalloon="MCCALL_ROBINHOOD_T31_015_balloon_0" textType="narrative">FURIOUS
            </metadata>
        </polygon>
        <polygon points="91,501 259,501 259,525 91,525 91,501" id="MCCALL_ROBINHOOD_T31_015_line_9">
            <metadata typography="" uri="" method="" area="" fillingPcent="" rank=""
                      idBalloon="MCCALL_ROBINHOOD_T31_015_balloon_0" textType="narrative">SWORDPLAN...
            </metadata>
        </polygon>
        <polygon points="382,107 487,107 487,129 382,129 382,107" id="MCCALL_ROBINHOOD_T31_015_line_10">
            <metadata typography="" uri="" method="" area="" fillingPcent="" rank=""
                      idBalloon="MCCALL_ROBINHOOD_T31_015_balloon_1" textType="speech">THE LINE
            </metadata>
        </polygon>
        <polygon points="364,132 520,132 520,153 364,153 364,132" id="MCCALL_ROBINHOOD_T31_015_line_11">
            <metadata typography="" uri="" method="" area="" fillingPcent="" rank=""
                      idBalloon="MCCALL_ROBINHOOD_T31_015_balloon_1" textType="speech">BREAKS ! THE
            </metadata>
        </polygon>
        <polygon points="354,159 520,159 520,181 357,181 354,159" id="MCCALL_ROBINHOOD_T31_015_line_12">
            <metadata typography="" uri="" method="" area="" fillingPcent="" rank=""
                      idBalloon="MCCALL_ROBINHOOD_T31_015_balloon_1" textType="speech">VARLETS GIVE
            </metadata>
        </polygon>
        <polygon points="360,179 522,179 522,209 360,209 360,179" id="MCCALL_ROBINHOOD_T31_015_line_13">
            <metadata typography="" uri="" method="" area="" fillingPcent="" rank=""
                      idBalloon="MCCALL_ROBINHOOD_T31_015_balloon_1" textType="speech">WAY ! WE'VE
            </metadata>
        </polygon>
        <polygon points="375,208 511,208 511,233 375,233 375,208" id="MCCALL_ROBINHOOD_T31_015_line_14">
            <metadata typography="" uri="" method="" area="" fillingPcent="" rank=""
                      idBalloon="MCCALL_ROBINHOOD_T31_015_balloon_1" textType="speech">GOT THEM,
            </metadata>
        </polygon>
        <polygon points="399,234 463,234 463,258 399,258 399,234" id="MCCALL_ROBINHOOD_T31_015_line_15">
            <metadata typography="" uri="" method="" area="" fillingPcent="" rank=""
                      idBalloon="MCCALL_ROBINHOOD_T31_015_balloon_1" textType="speech">SIRE!
            </metadata>
        </polygon>
        <polygon points="636,102 831,102 831,131 636,131 636,102" id="MCCALL_ROBINHOOD_T31_015_line_16">
            <metadata typography="" uri="" method="" area="" fillingPcent="" rank=""
                      idBalloon="MCCALL_ROBINHOOD_T31_015_balloon_2" textType="speech">YIELD, GUARDS!
            </metadata>
        </polygon>
        <polygon points="635,132 864,132 864,160 635,160 635,132" id="MCCALL_ROBINHOOD_T31_015_line_17">
            <metadata typography="" uri="" method="" area="" fillingPcent="" rank=""
                      idBalloon="MCCALL_ROBINHOOD_T31_015_balloon_2" textType="speech">BACK, YOU ROGUES,
            </metadata>
        </polygon>
        <polygon points="646,162 812,162 812,182 646,182 646,162" id="MCCALL_ROBINHOOD_T31_015_line_18">
            <metadata typography="" uri="" method="" area="" fillingPcent="" rank=""
                      idBalloon="MCCALL_ROBINHOOD_T31_015_balloon_2" textType="speech">OR YOU FALL
            </metadata>
        </polygon>
        <polygon points="663,186 806,186 806,209 663,209 663,186" id="MCCALL_ROBINHOOD_T31_015_line_19">
            <metadata typography="" uri="" method="" area="" fillingPcent="" rank=""
                      idBalloon="MCCALL_ROBINHOOD_T31_015_balloon_2" textType="speech">UNDER OUR
            </metadata>
        </polygon>
        <polygon points="677,211 768,211 768,237 677,237 677,211" id="MCCALL_ROBINHOOD_T31_015_line_20">
            <metadata typography="" uri="" method="" area="" fillingPcent="" rank=""
                      idBalloon="MCCALL_ROBINHOOD_T31_015_balloon_2" textType="speech">STEEL!
            </metadata>
        </polygon>
        <polygon points="928,96 1412,96 1412,121 928,121 928,96" id="MCCALL_ROBINHOOD_T31_015_line_21">
            <metadata typography="" uri="" method="" area="" fillingPcent="" rank=""
                      idBalloon="MCCALL_ROBINHOOD_T31_015_balloon_3" textType="narrative">WHILE HIGH IN THE CASTLE, THE
                OTHER IN-
            </metadata>
        </polygon>
        <polygon points="930,121 1417,121 1417,145 930,145 930,121" id="MCCALL_ROBINHOOD_T31_015_line_22">
            <metadata typography="" uri="" method="" area="" fillingPcent="" rank=""
                      idBalloon="MCCALL_ROBINHOOD_T31_015_balloon_3" textType="narrative">VADING ARCHERS BATTER THE EARL
                AND
            </metadata>
        </polygon>
        <polygon points="932,145 1384,145 1384,170 932,168 932,145" id="MCCALL_ROBINHOOD_T31_015_line_23">
            <metadata typography="" uri="" method="" area="" fillingPcent="" rank=""
                      idBalloon="MCCALL_ROBINHOOD_T31_015_balloon_3" textType="narrative">HIS SWORDS DOWN THE MAIN
                STAIR...
            </metadata>
        </polygon>
        <polygon points="80,794 446,794 446,820 80,820 80,794" id="MCCALL_ROBINHOOD_T31_015_line_24">
            <metadata typography="" uri="" method="" area="" fillingPcent="" rank=""
                      idBalloon="MCCALL_ROBINHOOD_T31_015_balloon_4" textType="narrative">THE CASTLE RINGS WITH THE
            </metadata>
        </polygon>
        <polygon points="80,823 460,823 460,845 80,845 80,823" id="MCCALL_ROBINHOOD_T31_015_line_25">
            <metadata typography="" uri="" method="" area="" fillingPcent="" rank=""
                      idBalloon="MCCALL_ROBINHOOD_T31_015_balloon_4" textType="narrative">CLASH OF STEEL AND SOON THE
            </metadata>
        </polygon>
        <polygon points="83,847 416,847 416,872 83,872 83,847" id="MCCALL_ROBINHOOD_T31_015_line_26">
            <metadata typography="" uri="" method="" area="" fillingPcent="" rank=""
                      idBalloon="MCCALL_ROBINHOOD_T31_015_balloon_4" textType="narrative">EARL AND HIS FORCES ARE
            </metadata>
        </polygon>
        <polygon points="88,874 434,874 434,896 88,896 88,874" id="MCCALL_ROBINHOOD_T31_015_line_27">
            <metadata typography="" uri="" method="" area="" fillingPcent="" rank=""
                      idBalloon="MCCALL_ROBINHOOD_T31_015_balloon_4" textType="narrative">PRESSED INTO THE BANQUET
            </metadata>
        </polygon>
        <polygon points="86,894 445,894 445,919 86,919 86,894" id="MCCALL_ROBINHOOD_T31_015_line_28">
            <metadata typography="" uri="" method="" area="" fillingPcent="" rank=""
                      idBalloon="MCCALL_ROBINHOOD_T31_015_balloon_4" textType="narrative">ROOM...CAUGHT BETWEEN TWO
            </metadata>
        </polygon>
        <polygon points="90,919 287,919 287,944 90,944 90,919" id="MCCALL_ROBINHOOD_T31_015_line_29">
            <metadata typography="" uri="" method="" area="" fillingPcent="" rank=""
                      idBalloon="MCCALL_ROBINHOOD_T31_015_balloon_4" textType="narrative">OUTLAN AANKS...
            </metadata>
        </polygon>
        <polygon points="752,795 879,788 875,822 756,822 752,795" id="MCCALL_ROBINHOOD_T31_015_line_30">
            <metadata typography="" uri="" method="" area="" fillingPcent="" rank=""
                      idBalloon="MCCALL_ROBINHOOD_T31_015_balloon_5" textType="speech">WE YIELD!
            </metadata>
        </polygon>
        <polygon points="753,819 884,809 884,838 753,838 753,819" id="MCCALL_ROBINHOOD_T31_015_line_31">
            <metadata typography="" uri="" method="" area="" fillingPcent="" rank=""
                      idBalloon="MCCALL_ROBINHOOD_T31_015_balloon_5" textType="speech">WE YIELD!
            </metadata>
        </polygon>
        <polygon points="1136,769 1252,761 1252,790 1139,792 1136,769" id="MCCALL_ROBINHOOD_T31_015_line_32">
            <metadata typography="" uri="" method="" area="" fillingPcent="" rank=""
                      idBalloon="MCCALL_ROBINHOOD_T31_015_balloon_6" textType="speech">ENOUGH !
            </metadata>
        </polygon>
        <polygon points="1109,786 1317,786 1317,820 1109,820 1109,786" id="MCCALL_ROBINHOOD_T31_015_line_33">
            <metadata typography="" uri="" method="" area="" fillingPcent="" rank=""
                      idBalloon="MCCALL_ROBINHOOD_T31_015_balloon_6" textType="speech">WE SURRENDER!
            </metadata>
        </polygon>
        <polygon points="1117,814 1346,814 1346,844 1117,844 1117,814" id="MCCALL_ROBINHOOD_T31_015_line_34">
            <metadata typography="" uri="" method="" area="" fillingPcent="" rank=""
                      idBalloon="MCCALL_ROBINHOOD_T31_015_balloon_6" textType="speech">HOLD YOUR STEEL!
            </metadata>
        </polygon>
        <polygon points="756,1240 1357,1240 1357,1263 756,1263 756,1240" id="MCCALL_ROBINHOOD_T31_015_line_35">
            <metadata typography="" uri="" method="" area="" fillingPcent="" rank=""
                      idBalloon="MCCALL_ROBINHOOD_T31_015_balloon_7" textType="narrative">THE BATTLING OUTLAWS FAN OUT,
                SURROUND THE
            </metadata>
        </polygon>
        <polygon points="760,1270 1370,1270 1370,1293 760,1293 760,1270" id="MCCALL_ROBINHOOD_T31_015_line_36">
            <metadata typography="" uri="" method="" area="" fillingPcent="" rank=""
                      idBalloon="MCCALL_ROBINHOOD_T31_015_balloon_7" textType="narrative">GUARDS WITH DARTING, SWINGING
                BLADES...THEY
            </metadata>
        </polygon>
        <polygon points="759,1296 1364,1296 1364,1318 759,1318 759,1296" id="MCCALL_ROBINHOOD_T31_015_line_37">
            <metadata typography="" uri="" method="" area="" fillingPcent="" rank=""
                      idBalloon="MCCALL_ROBINHOOD_T31_015_balloon_7" textType="narrative">START TO HURL ASIDE THEIR
                WEAPONS, BEG
            </metadata>
        </polygon>
        <polygon points="759,1318 938,1318 938,1339 759,1339 759,1318" id="MCCALL_ROBINHOOD_T31_015_line_38">
            <metadata typography="" uri="" method="" area="" fillingPcent="" rank=""
                      idBalloon="MCCALL_ROBINHOOD_T31_015_balloon_7" textType="narrative">FOR MERCY...
            </metadata>
        </polygon>
        <polygon points="116,1395 195,1395 195,1417 116,1417 116,1395" id="MCCALL_ROBINHOOD_T31_015_line_39">
            <metadata typography="" uri="" method="" area="" fillingPcent="" rank=""
                      idBalloon="MCCALL_ROBINHOOD_T31_015_balloon_8" textType="speech">AH THE
            </metadata>
        </polygon>
        <polygon points="91,1411 240,1411 240,1446 91,1446 91,1411" id="MCCALL_ROBINHOOD_T31_015_line_40">
            <metadata typography="" uri="" method="" area="" fillingPcent="" rank=""
                      idBalloon="MCCALL_ROBINHOOD_T31_015_balloon_8" textType="speech">NOBLE EARL!
            </metadata>
        </polygon>
        <polygon points="80,1446 273,1446 273,1466 80,1466 80,1446" id="MCCALL_ROBINHOOD_T31_015_line_41">
            <metadata typography="" uri="" method="" area="" fillingPcent="" rank=""
                      idBalloon="MCCALL_ROBINHOOD_T31_015_balloon_8" textType="speech">STAND, EARL AND
            </metadata>
        </polygon>
        <polygon points="75,1461 286,1461 286,1493 75,1493 75,1461" id="MCCALL_ROBINHOOD_T31_015_line_42">
            <metadata typography="" uri="" method="" area="" fillingPcent="" rank=""
                      idBalloon="MCCALL_ROBINHOOD_T31_015_balloon_8" textType="speech">DEFEND YOURSELF!
            </metadata>
        </polygon>
        <polygon points="520,1416 581,1416 581,1438 520,1438 520,1416" id="MCCALL_ROBINHOOD_T31_015_line_43">
            <metadata typography="" uri="" method="" area="" fillingPcent="" rank=""
                      idBalloon="MCCALL_ROBINHOOD_T31_015_balloon_9" textType="speech">DOG...
            </metadata>
        </polygon>
        <polygon points="514,1441 589,1441 589,1468 514,1468 514,1441" id="MCCALL_ROBINHOOD_T31_015_line_44">
            <metadata typography="" uri="" method="" area="" fillingPcent="" rank=""
                      idBalloon="MCCALL_ROBINHOOD_T31_015_balloon_9" textType="speech">HERE'S
            </metadata>
        </polygon>
        <polygon points="495,1458 646,1458 646,1490 495,1490 495,1458" id="MCCALL_ROBINHOOD_T31_015_line_45">
            <metadata typography="" uri="" method="" area="" fillingPcent="" rank=""
                      idBalloon="MCCALL_ROBINHOOD_T31_015_balloon_9" textType="speech">MY ANSWER!
            </metadata>
        </polygon>
        <polygon points="74,2027 677,2027 677,2052 74,2052 74,2027" id="MCCALL_ROBINHOOD_T31_015_line_46">
            <metadata typography="" uri="" method="" area="" fillingPcent="" rank=""
                      idBalloon="MCCALL_ROBINHOOD_T31_015_balloon_10" textType="narrative">AS ROBIN ADVANCES ON THE
                EARL, THE TRERCHEROUS
            </metadata>
        </polygon>
        <polygon points="71,2050 731,2050 731,2076 71,2076 71,2050" id="MCCALL_ROBINHOOD_T31_015_line_47">
            <metadata typography="" uri="" method="" area="" fillingPcent="" rank=""
                      idBalloon="MCCALL_ROBINHOOD_T31_015_balloon_10" textType="narrative">NOBLE FLINGS HIS SWORD FULL
                AT THE OUTLAW'S HEAD...
            </metadata>
        </polygon>
        <polygon points="789,1991 1403,1991 1403,2010 789,2010 789,1991" id="MCCALL_ROBINHOOD_T31_015_line_48">
            <metadata typography="" uri="" method="" area="" fillingPcent="" rank=""
                      idBalloon="MCCALL_ROBINHOOD_T31_015_balloon_11" textType="narrative">IN A FLASH, ROBIN TWISTS
                ASIDE, LUNGES FORWARD...
            </metadata>
        </polygon>
        <polygon points="787,2013 1372,2013 1372,2038 787,2038 787,2013" id="MCCALL_ROBINHOOD_T31_015_line_49">
            <metadata typography="" uri="" method="" area="" fillingPcent="" rank=""
                      idBalloon="MCCALL_ROBINHOOD_T31_015_balloon_11" textType="narrative">HIS STEEL RIPS TROUGH THE
                EARL'S CLOTHING,PINS
            </metadata>
        </polygon>
        <polygon points="792,2043 1348,2043 1348,2063 792,2063 792,2043" id="MCCALL_ROBINHOOD_T31_015_line_50">
            <metadata typography="" uri="" method="" area="" fillingPcent="" rank=""
                      idBalloon="MCCALL_ROBINHOOD_T31_015_balloon_11" textType="narrative">HIM HELPLESSLY TO THE BACK OF
                A HEAVY
            </metadata>
        </polygon>
        <polygon points="789,2069 969,2069 969,2090 789,2090 789,2069" id="MCCALL_ROBINHOOD_T31_015_line_51">
            <metadata typography="" uri="" method="" area="" fillingPcent="" rank=""
                      idBalloon="MCCALL_ROBINHOOD_T31_015_balloon_11" textType="narrative">CHAIR BEHIND...
            </metadata>
        </polygon>
        <polygon points="1414,2058 1438,2058 1438,2083 1414,2083 1414,2058" id="MCCALL_ROBINHOOD_T31_015_line_52">
            <metadata typography="" uri="" method="" area="" fillingPcent="" rank=""
                      idBalloon="MCCALL_ROBINHOOD_T31_015_balloon_11" textType="speech">13
            </metadata>
        </polygon>
    </svg>
    <svg contentScriptType="text/ecmascript" zoomAndPan="magnify" contentStyleType="text/css" class="linkSBSC"
         preserveAspectRatio="xMidYMid meet" version="1.0">
        <polygon points="456,225 457,225 352,527 351,527 456,225" idCharacter="MCCALL_ROBINHOOD_T31_015_character_1"
                 idBalloon="MCCALL_ROBINHOOD_T31_015_balloon_1"/>
        <polygon points="735,200 736,200 443,582 442,582 735,200" idCharacter="MCCALL_ROBINHOOD_T31_015_character_0"
                 idBalloon="MCCALL_ROBINHOOD_T31_015_balloon_2"/>
        <polygon points="205,1456 206,1456 137,1787 136,1787 205,1456"
                 idCharacter="MCCALL_ROBINHOOD_T31_015_character_5" idBalloon="MCCALL_ROBINHOOD_T31_015_balloon_8"/>
        <polygon points="566,1466 567,1466 582,1801 581,1801 566,1466"
                 idCharacter="MCCALL_ROBINHOOD_T31_015_character_6" idBalloon="MCCALL_ROBINHOOD_T31_015_balloon_9"/>
    </svg>
    <metadata method="GroundTruth" lastModificationDate="Mon Jan 27 18:36:27 CET 2014" lastStepModified="Balloon_Rank"/>
</svg>