<?xml version="1.0" encoding="UTF-8" standalone="no"?>
<svg xmlns:xlink="http://www.w3.org/1999/xlink" xmlns="http://www.w3.org/2000/svg" contentScriptType="text/ecmascript"
     width="1539mm" zoomAndPan="magnify" contentStyleType="text/css" height="2098mm" viewBox="0 0 3078 4196"
     preserveAspectRatio="xMidYMid meet" version="1.0">
    <title>MCCAY_LITTLENEMO_090</title>
    <svg contentScriptType="text/ecmascript" zoomAndPan="magnify" contentStyleType="text/css" class="Page"
         preserveAspectRatio="xMidYMid meet" version="1.0">
        <image x="0" y="0" fill-opacity="0.5" width="3078" xlink:href="../Pages/MCCAY_LITTLENEMO_090.jpg"
               xlink:type="simple" xlink:actuate="onLoad" height="4196" opacity="0.5"
               preserveAspectRatio="xMidYMid meet" xlink:show="embed"/>
        <metadata collectionTitle="Little Nemo" editorName="Delcourt" doublePage="false" website=""
                  albumTitle="Little Nemo in Slumberland" drawerName="Winsor McCay" language="french" resolution="600"
                  ISBN="978-2756002729" readingDirection="leftToRight" writerName="Winsor McCay" releaseDate="1905"
                  pageNumber="90"/>
    </svg>
    <style type="text/css" xml:space="preserve">
        * { stroke-width: 0; stroke-linejoin: round; }
        .Unclassified { fill: orange; stroke: none; opacity: 1.0; visibility: hidden; }
        .Noise { fill: pink; stroke: none; opacity: 0.2; visibility: hidden; }
        .Panel { fill: red; stroke: none; opacity: 0.3; visibility: visible; image-rendering: optimizeSpeed; }
        .Line { fill: green; stroke: none; opacity: 0.5; visibility: visible; image-rendering: optimizeSpeed; }
        .TextArea { fill: grey; stroke: none; opacity: 0.2; visibility: visible; image-rendering: optimizeSpeed; }
        .Balloon { fill: cyan; stroke: none; opacity: 0.5; visibility: visible; image-rendering: optimizeSpeed; }
        .Letter { fill: blue; stroke: none; opacity: 0.2; visibility: hidden; }
        .Character { fill: yellow; stroke: none; opacity: 0.3; visibility: visible; image-rendering: optimizeSpeed; }
        .Page { fill: white; stroke: none; opacity: 0.5; visibility: visible; }
        .linkSBSC { fill: blue; stroke: none; opacity: 0.5; visibility: visible; }
        polygon:hover { stroke:red;stroke-width:2; } 
    </style>
    <svg contentScriptType="text/ecmascript" zoomAndPan="magnify" contentStyleType="text/css" class="Panel"
         preserveAspectRatio="xMidYMid meet" version="1.0">
        <polygon points="68,164 3008,150 3011,1028 73,1054 68,164" id="MCCAY_LITTLENEMO_090_panel_0">
            <metadata viewAngle="" shot="" rank="1"/>
        </polygon>
        <polygon points="79,1077 1549,1065 1555,1923 79,1944 79,1077" id="MCCAY_LITTLENEMO_090_panel_1">
            <metadata viewAngle="" shot="" rank="2"/>
        </polygon>
        <polygon points="1567,1068 3014,1048 3011,1900 1567,1918 1567,1068" id="MCCAY_LITTLENEMO_090_panel_2">
            <metadata viewAngle="" shot="" rank="3"/>
        </polygon>
        <polygon points="82,1967 1544,1949 1552,2749 91,2770 82,1967" id="MCCAY_LITTLENEMO_090_panel_3">
            <metadata viewAngle="" shot="" rank="4"/>
        </polygon>
        <polygon points="2368,3331 3018,3326 3018,4002 2368,4002 2368,3331" id="MCCAY_LITTLENEMO_090_panel_4">
            <metadata viewAngle="" shot="" rank="7"/>
        </polygon>
        <polygon points="1559,1949 3010,1929 3015,2734 1570,2750 1559,1949" id="MCCAY_LITTLENEMO_090_panel_5">
            <metadata viewAngle="" shot="" rank="5"/>
        </polygon>
        <polygon points="88,2755 3020,2755 3020,4040 88,4040 88,2755" id="MCCAY_LITTLENEMO_090_panel_6">
            <metadata viewAngle="" shot="" rank="6"/>
        </polygon>
    </svg>
    <svg contentScriptType="text/ecmascript" zoomAndPan="magnify" contentStyleType="text/css" class="TextArea"
         preserveAspectRatio="xMidYMid meet" version="1.0"/>
    <svg contentScriptType="text/ecmascript" zoomAndPan="magnify" contentStyleType="text/css" class="Balloon"
         preserveAspectRatio="xMidYMid meet" version="1.0">
        <polygon
                points="854,381 926,385 1011,387 1033,394 1040,424 1044,469 1039,490 1045,517 1045,548 1026,577 1006,588 993,593 994,604 1016,630 1000,630 989,616 987,597 964,585 930,583 881,584 843,583 822,568 812,550 815,501 814,454 814,411 821,391 854,381"
                id="MCCAY_LITTLENEMO_090_balloon_0">
            <metadata borderStyle="smooth" tailTip="1016,630" boundingBox="" tailDirection="SE" rank="1"/>
        </polygon>
        <polygon
                points="2360,288 2455,283 2514,282 2536,288 2548,308 2555,331 2558,358 2556,386 2553,434 2553,469 2552,499 2538,527 2510,536 2482,537 2441,540 2408,538 2369,537 2347,519 2341,492 2338,464 2328,445 2285,443 2293,437 2308,438 2328,435 2335,421 2336,396 2334,345 2340,311 2360,288"
                id="MCCAY_LITTLENEMO_090_balloon_1">
            <metadata borderStyle="smooth" tailTip="2285,443" boundingBox="" tailDirection="W" rank="2"/>
        </polygon>
        <polygon
                points="355,1258 404,1259 424,1257 452,1263 472,1263 496,1264 506,1269 509,1288 510,1326 513,1373 508,1402 490,1424 472,1432 452,1438 447,1448 446,1465 441,1457 441,1441 427,1439 404,1435 381,1438 361,1438 336,1432 330,1413 330,1373 328,1332 326,1281 332,1266 355,1258"
                id="MCCAY_LITTLENEMO_090_balloon_2">
            <metadata borderStyle="smooth" tailTip="446,1465" boundingBox="" tailDirection="S" rank="3"/>
        </polygon>
        <polygon
                points="955,1090 995,1083 1039,1088 1079,1092 1096,1090 1125,1093 1150,1092 1170,1091 1190,1102 1194,1126 1196,1155 1196,1196 1194,1218 1195,1249 1199,1262 1209,1269 1223,1265 1224,1273 1208,1276 1201,1282 1194,1293 1177,1299 1120,1302 1066,1303 1015,1303 974,1298 941,1282 931,1254 926,1189 926,1123 935,1097 955,1090"
                id="MCCAY_LITTLENEMO_090_balloon_3">
            <metadata borderStyle="smooth" tailTip="1223,1265" boundingBox="" tailDirection="E" rank="4"/>
        </polygon>
        <polygon
                points="1959,1121 1999,1120 2017,1118 2035,1118 2048,1121 2063,1119 2094,1120 2106,1125 2115,1131 2119,1148 2121,1161 2119,1192 2121,1219 2122,1240 2122,1258 2120,1289 2118,1308 2109,1319 2095,1326 2077,1330 2061,1337 2055,1340 2049,1349 2042,1360 2037,1360 2032,1344 2014,1339 1992,1337 1972,1335 1962,1334 1949,1324 1943,1304 1945,1249 1941,1177 1943,1139 1949,1126 1959,1121"
                id="MCCAY_LITTLENEMO_090_balloon_4">
            <metadata borderStyle="smooth" tailTip="2037,1360" boundingBox="" tailDirection="S" rank="5"/>
        </polygon>
        <polygon
                points="2466,1089 2557,1088 2612,1088 2640,1089 2658,1099 2668,1118 2675,1159 2677,1198 2676,1237 2672,1263 2680,1279 2702,1301 2690,1303 2680,1298 2661,1297 2632,1296 2577,1297 2527,1299 2489,1294 2455,1291 2439,1280 2432,1262 2425,1232 2423,1188 2430,1150 2431,1120 2438,1099 2466,1089"
                id="MCCAY_LITTLENEMO_090_balloon_5">
            <metadata borderStyle="smooth" tailTip="2702,1301" boundingBox="" tailDirection="SE" rank="6"/>
        </polygon>
        <polygon
                points="441,1970 485,1970 517,1967 543,1970 558,1988 568,2011 570,2040 571,2076 569,2107 569,2133 553,2159 531,2163 494,2169 472,2170 450,2168 429,2167 418,2164 409,2153 407,2128 400,2103 394,2101 378,2109 380,2100 388,2097 399,2094 405,2093 409,2072 407,2034 407,2007 416,1980 441,1970"
                id="MCCAY_LITTLENEMO_090_balloon_6">
            <metadata borderStyle="smooth" tailTip="378,2109" boundingBox="" tailDirection="W" rank="7"/>
        </polygon>
        <polygon
                points="959,2342 998,2345 1023,2345 1036,2355 1036,2377 1037,2400 1038,2406 1061,2408 1053,2413 1047,2415 1039,2428 1026,2430 1010,2432 992,2433 970,2433 954,2429 950,2396 948,2368 950,2348 959,2342"
                id="MCCAY_LITTLENEMO_090_balloon_7">
            <metadata borderStyle="smooth" tailTip="1061,2408" boundingBox="" tailDirection="E" rank="8"/>
        </polygon>
        <polygon
                points="1948,1959 2010,1958 2064,1956 2125,1957 2145,1964 2158,1982 2159,2004 2163,2067 2161,2102 2143,2120 2098,2130 2027,2138 2001,2136 1970,2136 1949,2134 1938,2106 1930,2085 1914,2085 1890,2086 1907,2077 1922,2065 1924,2024 1925,1984 1935,1967 1948,1959"
                id="MCCAY_LITTLENEMO_090_balloon_8">
            <metadata borderStyle="smooth" tailTip="1890,2086" boundingBox="" tailDirection="W" rank="9"/>
        </polygon>
        <polygon
                points="2324,2023 2378,2014 2397,2016 2446,2016 2466,2017 2476,2025 2484,2054 2486,2092 2490,2132 2490,2165 2477,2190 2454,2202 2419,2209 2388,2213 2379,2213 2368,2226 2363,2249 2356,2256 2357,2242 2359,2214 2354,2208 2337,2206 2317,2199 2304,2186 2303,2127 2298,2074 2301,2040 2324,2023"
                id="MCCAY_LITTLENEMO_090_balloon_9">
            <metadata borderStyle="smooth" tailTip="2356,2256" boundingBox="" tailDirection="S" rank="10"/>
        </polygon>
        <polygon
                points="2633,2158 2670,2159 2689,2158 2719,2159 2726,2171 2729,2204 2729,2245 2721,2261 2700,2268 2678,2270 2665,2270 2654,2281 2648,2272 2638,2265 2622,2266 2612,2258 2611,2230 2610,2201 2614,2174 2624,2163 2633,2158"
                id="MCCAY_LITTLENEMO_090_balloon_10">
            <metadata borderStyle="smooth" tailTip="2654,2281" boundingBox="" tailDirection="S" rank="11"/>
        </polygon>
        <polygon
                points="430,3061 463,3067 495,3068 526,3067 546,3074 552,3097 555,3131 554,3165 551,3192 545,3219 533,3234 512,3239 487,3243 475,3235 469,3247 475,3270 470,3272 466,3258 460,3234 439,3225 421,3224 405,3222 398,3211 396,3140 395,3081 410,3069 430,3061"
                id="MCCAY_LITTLENEMO_090_balloon_11">
            <metadata borderStyle="smooth" tailTip="470,3272" boundingBox="" tailDirection="S" rank="12"/>
        </polygon>
        <polygon
                points="1115,3248 1149,3247 1176,3244 1185,3262 1187,3291 1183,3324 1169,3339 1152,3340 1143,3345 1139,3359 1138,3349 1132,3344 1122,3343 1109,3340 1102,3322 1101,3272 1104,3254 1115,3248"
                id="MCCAY_LITTLENEMO_090_balloon_12">
            <metadata borderStyle="smooth" tailTip="1139,3359" boundingBox="" tailDirection="S" rank="13"/>
        </polygon>
        <polygon
                points="2770,3344 2839,3342 2883,3344 2930,3342 2960,3339 2981,3359 2990,3390 2991,3426 2988,3453 3006,3458 3021,3459 3019,3469 3010,3474 2990,3482 2985,3498 2986,3510 2985,3528 2969,3538 2935,3544 2909,3545 2870,3548 2832,3546 2808,3548 2779,3542 2759,3524 2753,3479 2754,3398 2759,3361 2770,3344"
                id="MCCAY_LITTLENEMO_090_balloon_13">
            <metadata borderStyle="smooth" tailTip="3019,3469" boundingBox="" tailDirection="W" rank="14"/>
        </polygon>
    </svg>
    <svg contentScriptType="text/ecmascript" zoomAndPan="magnify" contentStyleType="text/css" class="Character"
         preserveAspectRatio="xMidYMid meet" version="1.0">
        <polygon points="1014,553 1203,553 1203,848 1014,848 1014,553" id="MCCAY_LITTLENEMO_090_character_0">
            <metadata uri="" area="" fillingPcent=""/>
        </polygon>
        <polygon points="1306,530 1476,530 1476,823 1306,823 1306,530" id="MCCAY_LITTLENEMO_090_character_1">
            <metadata uri="" area="" fillingPcent=""/>
        </polygon>
        <polygon points="1609,538 1791,538 1791,826 1609,826 1609,538" id="MCCAY_LITTLENEMO_090_character_2">
            <metadata uri="" area="" fillingPcent=""/>
        </polygon>
        <polygon points="1979,327 2205,327 2205,786 1979,786 1979,327" id="MCCAY_LITTLENEMO_090_character_3">
            <metadata uri="" area="" fillingPcent=""/>
        </polygon>
        <polygon points="119,608 271,608 271,848 119,848 119,608" id="MCCAY_LITTLENEMO_090_character_4">
            <metadata uri="" area="" fillingPcent=""/>
        </polygon>
        <polygon points="1125,1111 1495,1111 1495,1736 1125,1736 1125,1111" id="MCCAY_LITTLENEMO_090_character_5">
            <metadata uri="" area="" fillingPcent=""/>
        </polygon>
        <polygon points="955,1374 1103,1374 1103,1695 955,1695 955,1374" id="MCCAY_LITTLENEMO_090_character_6">
            <metadata uri="" area="" fillingPcent=""/>
        </polygon>
        <polygon points="725,1418 855,1418 855,1677 725,1677 725,1418" id="MCCAY_LITTLENEMO_090_character_7">
            <metadata uri="" area="" fillingPcent=""/>
        </polygon>
        <polygon points="452,1440 663,1440 663,1688 452,1688 452,1440" id="MCCAY_LITTLENEMO_090_character_8">
            <metadata uri="" area="" fillingPcent=""/>
        </polygon>
        <polygon points="82,1414 152,1414 152,1621 82,1621 82,1414" id="MCCAY_LITTLENEMO_090_character_9">
            <metadata uri="" area="" fillingPcent=""/>
        </polygon>
        <polygon points="1898,1422 2094,1422 2094,1629 1898,1629 1898,1422" id="MCCAY_LITTLENEMO_090_character_10">
            <metadata uri="" area="" fillingPcent=""/>
        </polygon>
        <polygon points="2168,1377 2312,1377 2312,1640 2168,1640 2168,1377" id="MCCAY_LITTLENEMO_090_character_11">
            <metadata uri="" area="" fillingPcent=""/>
        </polygon>
        <polygon points="2397,1374 2571,1374 2571,1632 2397,1632 2397,1374" id="MCCAY_LITTLENEMO_090_character_12">
            <metadata uri="" area="" fillingPcent=""/>
        </polygon>
        <polygon points="2604,1085 2945,1085 2945,1629 2604,1629 2604,1085" id="MCCAY_LITTLENEMO_090_character_13">
            <metadata uri="" area="" fillingPcent=""/>
        </polygon>
        <polygon points="189,2006 433,2006 433,2372 189,2372 189,2006" id="MCCAY_LITTLENEMO_090_character_14">
            <metadata uri="" area="" fillingPcent=""/>
        </polygon>
        <polygon points="518,2258 714,2258 714,2520 518,2520 518,2258" id="MCCAY_LITTLENEMO_090_character_15">
            <metadata uri="" area="" fillingPcent=""/>
        </polygon>
        <polygon points="792,2298 922,2298 922,2542 792,2542 792,2298" id="MCCAY_LITTLENEMO_090_character_16">
            <metadata uri="" area="" fillingPcent=""/>
        </polygon>
        <polygon points="1040,2320 1214,2320 1214,2524 1040,2524 1040,2320" id="MCCAY_LITTLENEMO_090_character_17">
            <metadata uri="" area="" fillingPcent=""/>
        </polygon>
        <polygon points="1632,1947 1913,1947 1913,2372 1632,2372 1632,1947" id="MCCAY_LITTLENEMO_090_character_18">
            <metadata uri="" area="" fillingPcent=""/>
        </polygon>
        <polygon points="2020,2243 2190,2243 2190,2561 2020,2561 2020,2243" id="MCCAY_LITTLENEMO_090_character_19">
            <metadata uri="" area="" fillingPcent=""/>
        </polygon>
        <polygon points="2253,2250 2416,2250 2416,2590 2253,2590 2253,2250" id="MCCAY_LITTLENEMO_090_character_20">
            <metadata uri="" area="" fillingPcent=""/>
        </polygon>
        <polygon points="2460,2295 2689,2295 2689,2598 2460,2598 2460,2295" id="MCCAY_LITTLENEMO_090_character_21">
            <metadata uri="" area="" fillingPcent=""/>
        </polygon>
        <polygon points="215,3263 478,3263 478,3585 215,3585 215,3263" id="MCCAY_LITTLENEMO_090_character_22">
            <metadata uri="" area="" fillingPcent=""/>
        </polygon>
        <polygon points="544,3460 718,3460 718,3722 544,3722 544,3460" id="MCCAY_LITTLENEMO_090_character_23">
            <metadata uri="" area="" fillingPcent=""/>
        </polygon>
        <polygon points="803,3437 966,3437 966,3759 803,3759 803,3437" id="MCCAY_LITTLENEMO_090_character_24">
            <metadata uri="" area="" fillingPcent=""/>
        </polygon>
        <polygon points="1106,3500 1310,3500 1310,3766 1106,3766 1106,3500" id="MCCAY_LITTLENEMO_090_character_25">
            <metadata uri="" area="" fillingPcent=""/>
        </polygon>
        <polygon points="2567,3574 2726,3574 2726,3792 2567,3792 2567,3574" id="MCCAY_LITTLENEMO_090_character_26">
            <metadata uri="" area="" fillingPcent=""/>
        </polygon>
    </svg>
    <svg contentScriptType="text/ecmascript" zoomAndPan="magnify" contentStyleType="text/css" class="Line"
         preserveAspectRatio="xMidYMid meet" version="1.0">
        <polygon points="100,2804 135,2804 135,2843 100,2843 100,2804" id="MCCAY_LITTLENEMO_090_line_0">
            <metadata method="" typography="" textType="note">6</metadata>
        </polygon>
        <polygon points="405,3079 496,3079 496,3108 405,3108 405,3079" id="MCCAY_LITTLENEMO_090_line_1">
            <metadata method="" typography="" idBalloon="MCCAY_LITTLENEMO_090_balloon_11" textType="speech">OOOH!
            </metadata>
        </polygon>
        <polygon points="402,3108 551,3108 551,3145 402,3145 402,3108" id="MCCAY_LITTLENEMO_090_line_2">
            <metadata method="" typography="" idBalloon="MCCAY_LITTLENEMO_090_balloon_11" textType="speech">ARRETEZ!
            </metadata>
        </polygon>
        <polygon points="398,3145 549,3145 549,3179 398,3179 398,3145" id="MCCAY_LITTLENEMO_090_line_3">
            <metadata method="" typography="" idBalloon="MCCAY_LITTLENEMO_090_balloon_11" textType="speech">ARRETEZ!
            </metadata>
        </polygon>
        <polygon points="405,3186 508,3186 508,3223 405,3223 405,3186" id="MCCAY_LITTLENEMO_090_line_4">
            <metadata method="" typography="" idBalloon="MCCAY_LITTLENEMO_090_balloon_11" textType="speech">OOOH!
            </metadata>
        </polygon>
        <polygon points="1105,3275 1185,3275 1185,3310 1105,3310 1105,3275" id="MCCAY_LITTLENEMO_090_line_5">
            <metadata method="" typography="" idBalloon="MCCAY_LITTLENEMO_090_balloon_12" textType="speech">OUIEEE!
            </metadata>
        </polygon>
        <polygon points="2762,3358 2980,3358 2980,3385 2762,3385 2762,3358" id="MCCAY_LITTLENEMO_090_line_6">
            <metadata method="" typography="" idBalloon="MCCAY_LITTLENEMO_090_balloon_13" textType="speech">POURQUOI
                DONC
            </metadata>
        </polygon>
        <polygon points="2755,3390 2986,3390 2986,3420 2755,3420 2755,3390" id="MCCAY_LITTLENEMO_090_line_7">
            <metadata method="" typography="" idBalloon="MCCAY_LITTLENEMO_090_balloon_13" textType="speech">NEMO
                S'AGITE-T-
            </metadata>
        </polygon>
        <polygon points="2758,3424 2989,3424 2989,3452 2758,3452 2758,3424" id="MCCAY_LITTLENEMO_090_line_8">
            <metadata method="" typography="" idBalloon="MCCAY_LITTLENEMO_090_balloon_13" textType="speech">IL TANT LA
                NUIT?
            </metadata>
        </polygon>
        <polygon points="2755,3454 2975,3454 2975,3484 2755,3484 2755,3454" id="MCCAY_LITTLENEMO_090_line_9">
            <metadata method="" typography="" idBalloon="MCCAY_LITTLENEMO_090_balloon_13" textType="speech">CE SOIR IL
                NE
            </metadata>
        </polygon>
        <polygon points="2762,3486 2936,3486 2936,3516 2762,3516 2762,3486" id="MCCAY_LITTLENEMO_090_line_10">
            <metadata method="" typography="" idBalloon="MCCAY_LITTLENEMO_090_balloon_13" textType="speech">FAIT QUE
                SE
            </metadata>
        </polygon>
        <polygon points="2810,3507 2970,3507 2970,3536 2810,3536 2810,3507" id="MCCAY_LITTLENEMO_090_line_11">
            <metadata method="" typography="" idBalloon="MCCAY_LITTLENEMO_090_balloon_13" textType="speech">RETOURNER
                !
            </metadata>
        </polygon>
        <polygon points="2375,3337 2410,3337 2410,3372 2375,3372 2375,3337" id="MCCAY_LITTLENEMO_090_line_12">
            <metadata method="" typography="" textType="note">7</metadata>
        </polygon>
        <polygon points="93,4111 139,4111 139,4152 93,4152 93,4111" id="MCCAY_LITTLENEMO_090_line_13">
            <metadata method="" typography="" textType="note">90</metadata>
        </polygon>
        <polygon points="1577,1955 1609,1955 1609,1991 1577,1991 1577,1955" id="MCCAY_LITTLENEMO_090_line_14">
            <metadata method="" typography="" textType="note">5</metadata>
        </polygon>
        <polygon points="412,1987 560,1987 560,2012 412,2012 412,1987" id="MCCAY_LITTLENEMO_090_line_15">
            <metadata method="" typography="" idBalloon="MCCAY_LITTLENEMO_090_balloon_6" textType="speech">ET MAINTE-
            </metadata>
        </polygon>
        <polygon points="412,2014 560,2014 560,2046 412,2046 412,2014" id="MCCAY_LITTLENEMO_090_line_16">
            <metadata method="" typography="" idBalloon="MCCAY_LITTLENEMO_090_balloon_6" textType="speech">NANT PAR
            </metadata>
        </polygon>
        <polygon points="416,2053 476,2053 476,2081 416,2081 416,2053" id="MCCAY_LITTLENEMO_090_line_17">
            <metadata method="" typography="" idBalloon="MCCAY_LITTLENEMO_090_balloon_6" textType="speech">ICI !
            </metadata>
        </polygon>
        <polygon points="414,2083 553,2083 553,2115 414,2115 414,2083" id="MCCAY_LITTLENEMO_090_line_18">
            <metadata method="" typography="" idBalloon="MCCAY_LITTLENEMO_090_balloon_6" textType="speech">SUIVEZ-
            </metadata>
        </polygon>
        <polygon points="439,2120 526,2120 526,2149 439,2149 439,2120" id="MCCAY_LITTLENEMO_090_line_19">
            <metadata method="" typography="" idBalloon="MCCAY_LITTLENEMO_090_balloon_6" textType="speech">MOI
            </metadata>
        </polygon>
        <polygon points="1934,1964 2133,1964 2133,1994 1934,1994 1934,1964" id="MCCAY_LITTLENEMO_090_line_20">
            <metadata method="" typography="" idBalloon="MCCAY_LITTLENEMO_090_balloon_8" textType="speech">NE REGARDEZ
            </metadata>
        </polygon>
        <polygon points="1927,1996 2142,1996 2142,2026 1927,2026 1927,1996" id="MCCAY_LITTLENEMO_090_line_21">
            <metadata method="" typography="" idBalloon="MCCAY_LITTLENEMO_090_balloon_8" textType="speech">PAS CES
                SINGES
            </metadata>
        </polygon>
        <polygon points="1936,2026 2151,2026 2151,2053 1936,2053 1936,2026" id="MCCAY_LITTLENEMO_090_line_22">
            <metadata method="" typography="" idBalloon="MCCAY_LITTLENEMO_090_balloon_8" textType="speech">OU ILS VONT
                VOUS
            </metadata>
        </polygon>
        <polygon points="1943,2055 2156,2055 2156,2090 1943,2090 1943,2055" id="MCCAY_LITTLENEMO_090_line_23">
            <metadata method="" typography="" idBalloon="MCCAY_LITTLENEMO_090_balloon_8" textType="speech">BOMBARDER
                AVEC
            </metadata>
        </polygon>
        <polygon points="1952,2090 2160,2090 2160,2124 1952,2124 1952,2090" id="MCCAY_LITTLENEMO_090_line_24">
            <metadata method="" typography="" idBalloon="MCCAY_LITTLENEMO_090_balloon_8" textType="speech">DES NOIX DE
                COCO
            </metadata>
        </polygon>
        <polygon points="2316,2030 2435,2030 2435,2065 2316,2065 2316,2030" id="MCCAY_LITTLENEMO_090_line_25">
            <metadata method="" typography="" idBalloon="MCCAY_LITTLENEMO_090_balloon_9" textType="speech">NON! NE
            </metadata>
        </polygon>
        <polygon points="2309,2065 2481,2065 2481,2094 2309,2094 2309,2065" id="MCCAY_LITTLENEMO_090_line_26">
            <metadata method="" typography="" idBalloon="MCCAY_LITTLENEMO_090_balloon_9" textType="speech">FAITES PAS
            </metadata>
        </polygon>
        <polygon points="2311,2097 2462,2097 2462,2138 2311,2138 2311,2097" id="MCCAY_LITTLENEMO_090_line_27">
            <metadata method="" typography="" idBalloon="MCCAY_LITTLENEMO_090_balloon_9" textType="speech">ÇA FLIP!
            </metadata>
        </polygon>
        <polygon points="2336,2142 2426,2142 2426,2175 2336,2175 2336,2142" id="MCCAY_LITTLENEMO_090_line_28">
            <metadata method="" typography="" idBalloon="MCCAY_LITTLENEMO_090_balloon_9" textType="speech">NON!
            </metadata>
        </polygon>
        <polygon points="2620,2168 2716,2168 2716,2197 2620,2197 2620,2168" id="MCCAY_LITTLENEMO_090_line_29">
            <metadata method="" typography="" idBalloon="MCCAY_LITTLENEMO_090_balloon_10" textType="speech">VIENS
            </metadata>
        </polygon>
        <polygon points="2616,2200 2726,2200 2726,2227 2616,2227 2616,2200" id="MCCAY_LITTLENEMO_090_line_30">
            <metadata method="" typography="" idBalloon="MCCAY_LITTLENEMO_090_balloon_10" textType="speech">DONC PAR
            </metadata>
        </polygon>
        <polygon points="2616,2229 2730,2229 2730,2255 2616,2255 2616,2229" id="MCCAY_LITTLENEMO_090_line_31">
            <metadata method="" typography="" idBalloon="MCCAY_LITTLENEMO_090_balloon_10" textType="speech">ICI PETIT
            </metadata>
        </polygon>
        <polygon points="1577,1071 1611,1071 1611,1124 1577,1124 1577,1071" id="MCCAY_LITTLENEMO_090_line_32">
            <metadata method="" typography="" textType="note">3</metadata>
        </polygon>
        <polygon points="931,1106 1176,1106 1176,1135 931,1135 931,1106" id="MCCAY_LITTLENEMO_090_line_33">
            <metadata method="" typography="" idBalloon="MCCAY_LITTLENEMO_090_balloon_3" textType="speech">MON PALAIS
                EST
            </metadata>
        </polygon>
        <polygon points="936,1138 1162,1138 1162,1172 936,1172 936,1138" id="MCCAY_LITTLENEMO_090_line_34">
            <metadata method="" typography="" idBalloon="MCCAY_LITTLENEMO_090_balloon_3" textType="speech">MOINS BIEN
                QUE
            </metadata>
        </polygon>
        <polygon points="936,1177 1135,1177 1135,1206 936,1206 936,1177" id="MCCAY_LITTLENEMO_090_line_35">
            <metadata method="" typography="" idBalloon="MCCAY_LITTLENEMO_090_balloon_3" textType="speech">CELUI DU
                ROI
            </metadata>
        </polygon>
        <polygon points="938,1211 1158,1211 1158,1241 938,1241 938,1211" id="MCCAY_LITTLENEMO_090_line_36">
            <metadata method="" typography="" idBalloon="MCCAY_LITTLENEMO_090_balloon_3" textType="speech">MAIS IL EST
                JOLI
            </metadata>
        </polygon>
        <polygon points="943,1243 1117,1243 1117,1273 943,1273 943,1243" id="MCCAY_LITTLENEMO_090_line_37">
            <metadata method="" typography="" idBalloon="MCCAY_LITTLENEMO_090_balloon_3" textType="speech">IL N'EST
                PAS
            </metadata>
        </polygon>
        <polygon points="1039,1270 1126,1270 1126,1302 1039,1302 1039,1270" id="MCCAY_LITTLENEMO_090_line_38">
            <metadata method="" typography="" idBalloon="MCCAY_LITTLENEMO_090_balloon_3" textType="speech">LOIN
            </metadata>
        </polygon>
        <polygon points="336,1275 480,1275 480,1307 336,1307 336,1275" id="MCCAY_LITTLENEMO_090_line_39">
            <metadata method="" typography="" idBalloon="MCCAY_LITTLENEMO_090_balloon_2" textType="speech">VOUS ALLEZ
            </metadata>
        </polygon>
        <polygon points="334,1314 505,1314 505,1341 334,1341 334,1314" id="MCCAY_LITTLENEMO_090_line_40">
            <metadata method="" typography="" idBalloon="MCCAY_LITTLENEMO_090_balloon_2" textType="speech">AVOIR CE
                QUE
            </metadata>
        </polygon>
        <polygon points="336,1348 489,1348 489,1376 336,1376 336,1348" id="MCCAY_LITTLENEMO_090_line_41">
            <metadata method="" typography="" idBalloon="MCCAY_LITTLENEMO_090_balloon_2" textType="speech">VOUS CHER-
            </metadata>
        </polygon>
        <polygon points="329,1378 515,1378 515,1405 329,1405 329,1378" id="MCCAY_LITTLENEMO_090_line_42">
            <metadata method="" typography="" idBalloon="MCCAY_LITTLENEMO_090_balloon_2" textType="speech">CHEZ ET
                BIEN
            </metadata>
        </polygon>
        <polygon points="359,1405 478,1405 478,1435 359,1435 359,1405" id="MCCAY_LITTLENEMO_090_line_43">
            <metadata method="" typography="" idBalloon="MCCAY_LITTLENEMO_090_balloon_2" textType="speech">ENCORE
            </metadata>
        </polygon>
        <polygon points="1954,1124 2096,1124 2096,1154 1954,1154 1954,1124" id="MCCAY_LITTLENEMO_090_line_44">
            <metadata method="" typography="" idBalloon="MCCAY_LITTLENEMO_090_balloon_4" textType="speech">JE CROYAIS
            </metadata>
        </polygon>
        <polygon points="1954,1161 2114,1161 2114,1188 1954,1188 1954,1161" id="MCCAY_LITTLENEMO_090_line_45">
            <metadata method="" typography="" idBalloon="MCCAY_LITTLENEMO_090_balloon_4" textType="speech">QUE LES MA-
            </metadata>
        </polygon>
        <polygon points="1952,1193 2121,1193 2121,1222 1952,1222 1952,1193" id="MCCAY_LITTLENEMO_090_line_46">
            <metadata method="" typography="" idBalloon="MCCAY_LITTLENEMO_090_balloon_4" textType="speech">RINS
                DEVAIENT
            </metadata>
        </polygon>
        <polygon points="1952,1227 2114,1227 2114,1257 1952,1257 1952,1227" id="MCCAY_LITTLENEMO_090_line_47">
            <metadata method="" typography="" idBalloon="MCCAY_LITTLENEMO_090_balloon_4" textType="speech">NOUS
                ACCOMPA
            </metadata>
        </polygon>
        <polygon points="1956,1252 2128,1252 2128,1282 1956,1282 1956,1252" id="MCCAY_LITTLENEMO_090_line_48">
            <metadata method="" typography="" idBalloon="MCCAY_LITTLENEMO_090_balloon_4" textType="speech">GNER ? ILS
                NOUS
            </metadata>
        </polygon>
        <polygon points="1961,1280 2089,1280 2089,1312 1961,1312 1961,1280" id="MCCAY_LITTLENEMO_090_line_49">
            <metadata method="" typography="" idBalloon="MCCAY_LITTLENEMO_090_balloon_4" textType="speech">SUIVENT?
            </metadata>
        </polygon>
        <polygon points="2444,1092 2648,1092 2648,1131 2444,1131 2444,1092" id="MCCAY_LITTLENEMO_090_line_50">
            <metadata method="" typography="" idBalloon="MCCAY_LITTLENEMO_090_balloon_5" textType="speech">OUI! OUI!
                MAIS
            </metadata>
        </polygon>
        <polygon points="2439,1129 2673,1129 2673,1156 2439,1156 2439,1129" id="MCCAY_LITTLENEMO_090_line_51">
            <metadata method="" typography="" idBalloon="MCCAY_LITTLENEMO_090_balloon_5" textType="speech">VOUS N'AVEZ
                RIEN
            </metadata>
        </polygon>
        <polygon points="2435,1161 2655,1161 2655,1190 2435,1190 2435,1161" id="MCCAY_LITTLENEMO_090_line_52">
            <metadata method="" typography="" idBalloon="MCCAY_LITTLENEMO_090_balloon_5" textType="speech">À CRAINDRE
                ET
            </metadata>
        </polygon>
        <polygon points="2430,1190 2673,1190 2673,1220 2430,1220 2430,1190" id="MCCAY_LITTLENEMO_090_line_53">
            <metadata method="" typography="" idBalloon="MCCAY_LITTLENEMO_090_balloon_5" textType="speech">NE FAITES PAS
                ATTEN
            </metadata>
        </polygon>
        <polygon points="2430,1222 2675,1222 2675,1252 2430,1252 2430,1222" id="MCCAY_LITTLENEMO_090_line_54">
            <metadata method="" typography="" idBalloon="MCCAY_LITTLENEMO_090_balloon_5" textType="speech">TION À CE QUE
                VOUS
            </metadata>
        </polygon>
        <polygon points="2442,1254 2659,1254 2659,1289 2442,1289 2442,1254" id="MCCAY_LITTLENEMO_090_line_55">
            <metadata method="" typography="" idBalloon="MCCAY_LITTLENEMO_090_balloon_5" textType="speech">POURRIEZ VOIR
                !
            </metadata>
        </polygon>
        <polygon points="132,156 2989,156 2989,286 132,286 132,156" id="MCCAY_LITTLENEMO_090_line_56">
            <metadata method="" typography="" idBalloon="MCCAY_LITTLENEMO_090_balloon_1" textType="note">LITTLE NEMO IN
                SLUMBERLAND
            </metadata>
        </polygon>
        <polygon points="833,401 1036,401 1036,430 833,430 833,401" id="MCCAY_LITTLENEMO_090_line_57">
            <metadata method="" typography="" idBalloon="MCCAY_LITTLENEMO_090_balloon_0" textType="speech">SI VOUS
                TENEZ
            </metadata>
        </polygon>
        <polygon points="821,435 1034,435 1034,465 821,465 821,435" id="MCCAY_LITTLENEMO_090_line_58">
            <metadata method="" typography="" idBalloon="MCCAY_LITTLENEMO_090_balloon_0" textType="speech">À RESTER EN
            </metadata>
        </polygon>
        <polygon points="826,467 1011,467 1011,495 826,495 826,467" id="MCCAY_LITTLENEMO_090_line_59">
            <metadata method="" typography="" idBalloon="MCCAY_LITTLENEMO_090_balloon_0" textType="speech">VIE... NE
                VOUS
            </metadata>
        </polygon>
        <polygon points="821,501 986,501 986,533 821,533 821,501" id="MCCAY_LITTLENEMO_090_line_60">
            <metadata method="" typography="" idBalloon="MCCAY_LITTLENEMO_090_balloon_0" textType="speech">APPROCHEZ
            </metadata>
        </polygon>
        <polygon points="826,536 1007,536 1007,568 826,568 826,536" id="MCCAY_LITTLENEMO_090_line_61">
            <metadata method="" typography="" idBalloon="MCCAY_LITTLENEMO_090_balloon_0" textType="speech">PAS DE MOI
            </metadata>
        </polygon>
        <polygon points="2362,307 2549,307 2549,343 2362,343 2362,307" id="MCCAY_LITTLENEMO_090_line_62">
            <metadata method="" typography="" idBalloon="MCCAY_LITTLENEMO_090_balloon_1" textType="speech">MON PALAIS
            </metadata>
        </polygon>
        <polygon points="2352,346 2501,346 2501,378 2352,378 2352,346" id="MCCAY_LITTLENEMO_090_line_63">
            <metadata method="" typography="" idBalloon="MCCAY_LITTLENEMO_090_balloon_1" textType="speech">EST TOUT
            </metadata>
        </polygon>
        <polygon points="2348,385 2538,385 2538,414 2348,414 2348,385" id="MCCAY_LITTLENEMO_090_line_64">
            <metadata method="" typography="" idBalloon="MCCAY_LITTLENEMO_090_balloon_1" textType="speech">PRÈS JUSTE
            </metadata>
        </polygon>
        <polygon points="2348,419 2549,419 2549,449 2348,449 2348,419" id="MCCAY_LITTLENEMO_090_line_65">
            <metadata method="" typography="" idBalloon="MCCAY_LITTLENEMO_090_balloon_1" textType="speech">UNE PETITE
            </metadata>
        </polygon>
        <polygon points="2350,456 2533,456 2533,490 2350,490 2350,456" id="MCCAY_LITTLENEMO_090_line_66">
            <metadata method="" typography="" idBalloon="MCCAY_LITTLENEMO_090_balloon_1" textType="speech">PROMENADE
            </metadata>
        </polygon>
        <polygon points="2359,497 2547,497 2547,522 2359,522 2359,497" id="MCCAY_LITTLENEMO_090_line_67">
            <metadata method="" typography="" idBalloon="MCCAY_LITTLENEMO_090_balloon_1" textType="speech">DANS LA
                JUNGLE
            </metadata>
        </polygon>
        <polygon points="80,172 119,172 119,208 80,208 80,172" id="MCCAY_LITTLENEMO_090_line_68">
            <metadata method="" typography="" textType="note">1</metadata>
        </polygon>
        <polygon points="66,96 304,96 304,144 66,144 66,96" id="MCCAY_LITTLENEMO_090_line_69">
            <metadata method="" typography="" textType="note">19 mai 1907</metadata>
        </polygon>
        <polygon points="87,1080 135,1080 135,1133 87,1133 87,1080" id="MCCAY_LITTLENEMO_090_line_70">
            <metadata method="" typography="" textType="speech">2</metadata>
        </polygon>
    </svg>
    <svg contentScriptType="text/ecmascript" zoomAndPan="magnify" contentStyleType="text/css" class="linkSBSC"
         preserveAspectRatio="xMidYMid meet" version="1.0">
        <polygon points="928,505 929,505 1109,700 1108,700 928,505" idCharacter="MCCAY_LITTLENEMO_090_character_0"
                 idBalloon="MCCAY_LITTLENEMO_090_balloon_0"/>
        <polygon points="2421,411 2422,411 2093,556 2092,556 2421,411" idCharacter="MCCAY_LITTLENEMO_090_character_3"
                 idBalloon="MCCAY_LITTLENEMO_090_balloon_1"/>
        <polygon points="2562,1195 2563,1195 2775,1357 2774,1357 2562,1195"
                 idCharacter="MCCAY_LITTLENEMO_090_character_13" idBalloon="MCCAY_LITTLENEMO_090_balloon_5"/>
        <polygon points="2031,1239 2032,1239 1997,1525 1996,1525 2031,1239"
                 idCharacter="MCCAY_LITTLENEMO_090_character_10" idBalloon="MCCAY_LITTLENEMO_090_balloon_4"/>
        <polygon points="1075,1193 1076,1193 1311,1423 1310,1423 1075,1193"
                 idCharacter="MCCAY_LITTLENEMO_090_character_5" idBalloon="MCCAY_LITTLENEMO_090_balloon_3"/>
        <polygon points="419,1361 420,1361 558,1564 557,1564 419,1361" idCharacter="MCCAY_LITTLENEMO_090_character_8"
                 idBalloon="MCCAY_LITTLENEMO_090_balloon_2"/>
        <polygon points="474,2068 475,2068 312,2189 311,2189 474,2068" idCharacter="MCCAY_LITTLENEMO_090_character_14"
                 idBalloon="MCCAY_LITTLENEMO_090_balloon_6"/>
        <polygon points="1004,2387 1005,2387 1128,2422 1127,2422 1004,2387"
                 idCharacter="MCCAY_LITTLENEMO_090_character_17" idBalloon="MCCAY_LITTLENEMO_090_balloon_7"/>
        <polygon points="2026,2047 2027,2047 1773,2159 1772,2159 2026,2047"
                 idCharacter="MCCAY_LITTLENEMO_090_character_18" idBalloon="MCCAY_LITTLENEMO_090_balloon_8"/>
        <polygon points="2394,2135 2395,2135 2335,2420 2334,2420 2394,2135"
                 idCharacter="MCCAY_LITTLENEMO_090_character_20" idBalloon="MCCAY_LITTLENEMO_090_balloon_9"/>
        <polygon points="2669,2219 2670,2219 2575,2446 2574,2446 2669,2219"
                 idCharacter="MCCAY_LITTLENEMO_090_character_21" idBalloon="MCCAY_LITTLENEMO_090_balloon_10"/>
        <polygon points="1144,3301 1145,3301 1209,3633 1208,3633 1144,3301"
                 idCharacter="MCCAY_LITTLENEMO_090_character_25" idBalloon="MCCAY_LITTLENEMO_090_balloon_12"/>
        <polygon points="475,3166 476,3166 347,3424 346,3424 475,3166" idCharacter="MCCAY_LITTLENEMO_090_character_22"
                 idBalloon="MCCAY_LITTLENEMO_090_balloon_11"/>
    </svg>
    <metadata method="GroundTruth" lastModificationDate="Mon Feb 03 19:10:37 CET 2014" lastStepModified="Balloon_Rank"/>
</svg>