<?xml version="1.0" encoding="UTF-8" standalone="no"?>
<svg xmlns:xlink="http://www.w3.org/1999/xlink" xmlns="http://www.w3.org/2000/svg" contentScriptType="text/ecmascript"
     width="740mm" zoomAndPan="magnify" contentStyleType="text/css" height="1083mm" viewBox="0 0 1480 2166"
     preserveAspectRatio="xMidYMid meet" version="1.0">
    <title>MCCALL_ROBINHOOD_T31_010</title>
    <svg contentScriptType="text/ecmascript" zoomAndPan="magnify" contentStyleType="text/css" class="Page"
         preserveAspectRatio="xMidYMid meet" version="1.0">
        <image x="0" y="0" width="1480" xlink:href="../Pages/MCCALL_ROBINHOOD_T31_010.jpg" xlink:type="simple"
               xlink:actuate="onLoad" height="2166" preserveAspectRatio="xMidYMid meet" xlink:show="embed"/>
        <metadata ISBN="" doublePage="false" albumTitle="Robin Hood And Company 31" releaseDate="1946"
                  collectionTitle="Robin Hood And Company" readingDirection="leftToRight"
                  website="http://comicbookplus.com/?dlid=31922" drawerName="Charles Snelgrove" pageNumber="10"
                  language="english" writerName="Ted McCall" editorName="John Gordon Baker"/>
    </svg>
    <style type="text/css" xml:space="preserve">
        * { stroke-width: 0; stroke-linejoin: round; }
        .Unclassified { fill: orange; stroke: none; opacity: 1.0; visibility: hidden; }
        .Noise { fill: pink; stroke: none; opacity: 0.2; visibility: hidden; }
        .Panel { fill: red; stroke: none; opacity: 0.3; visibility: visible; image-rendering: optimizeSpeed; }
        .Line { fill: green; stroke: none; opacity: 0.5; visibility: visible; image-rendering: optimizeSpeed; }
        .TextArea { fill: grey; stroke: none; opacity: 0.2; visibility: visible; image-rendering: optimizeSpeed; }
        .Balloon { fill: cyan; stroke: none; opacity: 0.5; visibility: visible; image-rendering: optimizeSpeed; }
        .Letter { fill: blue; stroke: none; opacity: 0.2; visibility: hidden; }
        .Character { fill: yellow; stroke: none; opacity: 0.3; visibility: visible; image-rendering: optimizeSpeed; }
        .Page { fill: white; stroke: none; opacity: 0.5; visibility: visible; }
        .linkSBSC { fill: blue; stroke: none; opacity: 0.5; visibility: visible; }
        polygon:hover { stroke:red;stroke-width:2; } 
    </style>
    <svg contentScriptType="text/ecmascript" zoomAndPan="magnify" contentStyleType="text/css" class="Panel"
         preserveAspectRatio="xMidYMid meet" version="1.0">
        <polygon points="39,61 885,61 885,705 39,705 39,61" id="MCCALL_ROBINHOOD_T31_010_panel_0">
            <metadata viewAngle="" uri="" shot="" area="" rank="1" fillingPcent=""/>
        </polygon>
        <polygon points="903,72 1438,72 1438,730 903,730 903,72" id="MCCALL_ROBINHOOD_T31_010_panel_1">
            <metadata viewAngle="" uri="" shot="" area="" rank="2" fillingPcent=""/>
        </polygon>
        <polygon points="44,719 746,719 746,1341 44,1338 44,719" id="MCCALL_ROBINHOOD_T31_010_panel_2">
            <metadata viewAngle="" uri="" shot="" area="" rank="3" fillingPcent=""/>
        </polygon>
        <polygon points="760,723 1440,723 1440,1346 760,1346 760,723" id="MCCALL_ROBINHOOD_T31_010_panel_3">
            <metadata viewAngle="" uri="" shot="" area="" rank="4" fillingPcent=""/>
        </polygon>
        <polygon points="38,1347 753,1347 753,2083 38,2083 38,1347" id="MCCALL_ROBINHOOD_T31_010_panel_4">
            <metadata viewAngle="" uri="" shot="" area="" rank="5" fillingPcent=""/>
        </polygon>
        <polygon points="763,1357 1438,1357 1438,2087 763,2087 763,1357" id="MCCALL_ROBINHOOD_T31_010_panel_5">
            <metadata viewAngle="" uri="" shot="" area="" rank="6" fillingPcent=""/>
        </polygon>
    </svg>
    <svg contentScriptType="text/ecmascript" zoomAndPan="magnify" contentStyleType="text/css" class="TextArea"
         preserveAspectRatio="xMidYMid meet" version="1.0"/>
    <svg contentScriptType="text/ecmascript" zoomAndPan="magnify" contentStyleType="text/css" class="Balloon"
         preserveAspectRatio="xMidYMid meet" version="1.0">
        <polygon points="40,59 275,61 276,697 41,697 40,59" id="MCCALL_ROBINHOOD_T31_010_balloon_0">
            <metadata borderStyle="smooth" tailTip="" boundingBox="" tailDirection="none" rank="1"/>
        </polygon>
        <polygon
                points="309,92 312,85 318,75 322,72 322,64 546,68 553,75 558,85 559,89 575,98 585,116 588,134 581,153 582,161 573,172 567,175 560,188 544,203 525,214 511,217 492,215 485,224 470,230 459,233 445,228 437,224 424,226 399,228 382,223 369,217 364,213 357,215 355,214 322,247 331,232 343,207 327,208 313,195 305,180 306,170 298,165 286,148 285,123 292,106 309,92"
                id="MCCALL_ROBINHOOD_T31_010_balloon_1">
            <metadata borderStyle="wavy" tailTip="322,247" boundingBox="" tailDirection="SW" rank="2"/>
        </polygon>
        <polygon
                points="605,216 622,199 615,192 609,172 611,148 621,130 638,118 649,116 653,109 661,104 669,102 682,91 705,82 728,78 752,82 764,88 784,81 807,77 836,80 865,91 878,101 888,114 889,130 885,139 887,149 885,163 876,179 860,191 851,201 840,203 833,201 816,216 784,224 762,223 743,217 731,216 724,216 715,212 698,216 684,213 680,209 664,212 654,208 650,203 609,230 564,266 605,216"
                id="MCCALL_ROBINHOOD_T31_010_balloon_2">
            <metadata borderStyle="wavy" tailTip="564,266" boundingBox="" tailDirection="SW" rank="3"/>
        </polygon>
        <polygon
                points="892,105 907,98 907,85 908,73 1169,72 1180,78 1180,87 1190,91 1200,97 1212,114 1213,133 1208,153 1201,163 1197,176 1186,188 1170,194 1156,198 1147,200 1144,207 1133,211 1125,214 1119,217 1114,234 1103,246 1104,213 1097,212 1088,213 1082,211 1073,206 1056,213 1030,217 1010,217 988,213 973,206 972,199 955,201 929,203 911,198 899,191 890,179 885,174 882,171 882,140 890,114 892,105"
                id="MCCALL_ROBINHOOD_T31_010_balloon_3">
            <metadata borderStyle="smooth" tailTip="1103,246" boundingBox="" tailDirection="S" rank="4"/>
        </polygon>
        <polygon points="899,585 1440,594 1437,735 897,727 899,585" id="MCCALL_ROBINHOOD_T31_010_balloon_4">
            <metadata borderStyle="smooth" tailTip="" boundingBox="" tailDirection="none" rank="5"/>
        </polygon>
        <polygon points="81,1150 412,1154 406,1304 89,1313 81,1150" id="MCCALL_ROBINHOOD_T31_010_balloon_5">
            <metadata borderStyle="other" tailTip="" boundingBox="" tailDirection="none" rank="6"/>
        </polygon>
        <polygon points="765,724 957,724 960,1338 759,1339 765,724" id="MCCALL_ROBINHOOD_T31_010_balloon_6">
            <metadata borderStyle="smooth" tailTip="" boundingBox="" tailDirection="none" rank="7"/>
        </polygon>
        <polygon
                points="935,816 942,784 952,767 967,766 967,749 974,734 992,726 1006,722 1029,721 1047,721 1052,716 1062,706 1073,709 1121,696 1155,694 1188,696 1213,704 1220,703 1256,697 1281,699 1312,701 1327,705 1344,713 1357,718 1367,733 1372,742 1375,754 1371,765 1387,764 1407,771 1423,792 1431,813 1431,835 1432,842 1431,859 1422,886 1406,902 1385,906 1352,901 1341,902 1319,908 1307,911 1295,912 1283,911 1262,923 1237,928 1206,932 1175,929 1151,921 1143,920 1142,932 1132,947 1133,936 1132,916 1101,922 1073,921 1047,911 1027,916 997,912 972,898 962,876 962,866 941,850 935,816"
                id="MCCALL_ROBINHOOD_T31_010_balloon_7">
            <metadata borderStyle="wavy" tailTip="1132,947" boundingBox="" tailDirection="S" rank="8"/>
        </polygon>
        <polygon points="66,1379 371,1378 370,1502 69,1507 66,1379" id="MCCALL_ROBINHOOD_T31_010_balloon_8">
            <metadata borderStyle="smooth" tailTip="" boundingBox="" tailDirection="none" rank="9"/>
        </polygon>
        <polygon
                points="838,1360 875,1344 908,1340 952,1344 972,1352 978,1360 1003,1353 1031,1352 1060,1358 1078,1367 1092,1387 1095,1406 1094,1423 1091,1434 1098,1441 1092,1453 1095,1471 1079,1497 1050,1514 1042,1525 1009,1541 972,1550 943,1552 939,1559 936,1573 930,1586 929,1573 924,1555 908,1564 864,1563 834,1553 812,1541 808,1531 795,1527 769,1500 768,1472 760,1464 760,1448 757,1433 767,1402 813,1379 816,1378 838,1360"
                id="MCCALL_ROBINHOOD_T31_010_balloon_9">
            <metadata borderStyle="wavy" tailTip="930,1586" boundingBox="" tailDirection="S" rank="10"/>
        </polygon>
        <polygon
                points="1099,1435 1116,1409 1140,1393 1151,1392 1156,1393 1160,1390 1160,1378 1171,1360 1191,1353 1201,1352 1226,1335 1258,1325 1298,1322 1327,1326 1350,1337 1372,1349 1387,1364 1399,1376 1404,1394 1411,1398 1427,1402 1436,1412 1440,1417 1439,1530 1427,1535 1428,1541 1420,1563 1402,1579 1376,1592 1362,1593 1357,1595 1333,1607 1320,1611 1282,1621 1273,1621 1246,1613 1232,1602 1226,1603 1219,1616 1202,1636 1203,1620 1210,1597 1189,1597 1178,1597 1165,1587 1158,1588 1156,1586 1135,1584 1112,1569 1094,1545 1090,1514 1100,1482 1095,1467 1099,1435"
                id="MCCALL_ROBINHOOD_T31_010_balloon_10">
            <metadata borderStyle="wavy" tailTip="1202,1636" boundingBox="" tailDirection="SW" rank="11"/>
        </polygon>
        <polygon points="769,2010 1438,2017 1438,2086 765,2080 769,2010" id="MCCALL_ROBINHOOD_T31_010_balloon_11">
            <metadata borderStyle="smooth" tailTip="" boundingBox="" tailDirection="none" rank="12"/>
        </polygon>
    </svg>
    <svg contentScriptType="text/ecmascript" zoomAndPan="magnify" contentStyleType="text/css" class="Character"
         preserveAspectRatio="xMidYMid meet" version="1.0">
        <polygon points="272,254 401,254 401,620 272,620 272,254" id="MCCALL_ROBINHOOD_T31_010_character_0">
            <metadata uri="" area="" fillingPcent=""/>
        </polygon>
        <polygon points="607,357 840,357 840,707 607,707 607,357" id="MCCALL_ROBINHOOD_T31_010_character_1">
            <metadata uri="" area="" fillingPcent=""/>
        </polygon>
        <polygon points="375,352 599,352 599,625 375,625 375,352" id="MCCALL_ROBINHOOD_T31_010_character_2">
            <metadata uri="" area="" fillingPcent=""/>
        </polygon>
        <polygon points="1027,274 1273,274 1273,532 1027,532 1027,274" id="MCCALL_ROBINHOOD_T31_010_character_3">
            <metadata uri="" area="" fillingPcent=""/>
        </polygon>
        <polygon points="1282,234 1437,234 1437,594 1282,594 1282,234" id="MCCALL_ROBINHOOD_T31_010_character_4">
            <metadata uri="" area="" fillingPcent=""/>
        </polygon>
        <polygon points="314,782 572,782 572,1127 314,1127 314,782" id="MCCALL_ROBINHOOD_T31_010_character_5">
            <metadata uri="" area="" fillingPcent=""/>
        </polygon>
        <polygon points="952,951 1164,951 1164,1335 952,1335 952,951" id="MCCALL_ROBINHOOD_T31_010_character_6">
            <metadata uri="" area="" fillingPcent=""/>
        </polygon>
        <polygon points="1238,960 1420,960 1420,1348 1238,1348 1238,960" id="MCCALL_ROBINHOOD_T31_010_character_7">
            <metadata uri="" area="" fillingPcent=""/>
        </polygon>
        <polygon points="1091,962 1264,962 1264,1335 1091,1335 1091,962" id="MCCALL_ROBINHOOD_T31_010_character_8">
            <metadata uri="" area="" fillingPcent=""/>
        </polygon>
        <polygon points="425,1533 696,1533 696,1990 425,1990 425,1533" id="MCCALL_ROBINHOOD_T31_010_character_9">
            <metadata uri="" area="" fillingPcent=""/>
        </polygon>
        <polygon points="266,1542 567,1542 567,1936 266,1936 266,1542" id="MCCALL_ROBINHOOD_T31_010_character_10">
            <metadata uri="" area="" fillingPcent=""/>
        </polygon>
        <polygon points="778,1573 1000,1573 1000,1956 778,1956 778,1573" id="MCCALL_ROBINHOOD_T31_010_character_11">
            <metadata uri="" area="" fillingPcent=""/>
        </polygon>
        <polygon points="1069,1599 1371,1599 1371,1943 1069,1943 1069,1599" id="MCCALL_ROBINHOOD_T31_010_character_12">
            <metadata uri="" area="" fillingPcent=""/>
        </polygon>
    </svg>
    <svg contentScriptType="text/ecmascript" zoomAndPan="magnify" contentStyleType="text/css" class="Line"
         preserveAspectRatio="xMidYMid meet" version="1.0">
        <polygon points="69,193 249,193 249,234 69,234 69,193" id="MCCALL_ROBINHOOD_T31_010_line_0">
            <metadata typography="" uri="" method="" area="" fillingPcent="" rank=""
                      idBalloon="MCCALL_ROBINHOOD_T31_010_balloon_0" textType="narrative">LIKE A FLASH,
            </metadata>
        </polygon>
        <polygon points="67,234 254,234 254,256 67,256 67,234" id="MCCALL_ROBINHOOD_T31_010_line_1">
            <metadata typography="" uri="" method="" area="" fillingPcent="" rank=""
                      idBalloon="MCCALL_ROBINHOOD_T31_010_balloon_0" textType="narrative">ROBIN AND LITTLE-
            </metadata>
        </polygon>
        <polygon points="61,259 247,259 247,280 61,280 61,259" id="MCCALL_ROBINHOOD_T31_010_line_2">
            <metadata typography="" uri="" method="" area="" fillingPcent="" rank=""
                      idBalloon="MCCALL_ROBINHOOD_T31_010_balloon_0" textType="narrative">JOHN RACE FOR
            </metadata>
        </polygon>
        <polygon points="67,285 229,285 229,303 67,303 67,285" id="MCCALL_ROBINHOOD_T31_010_line_3">
            <metadata typography="" uri="" method="" area="" fillingPcent="" rank=""
                      idBalloon="MCCALL_ROBINHOOD_T31_010_balloon_0" textType="narrative">AN EXIT, THE
            </metadata>
        </polygon>
        <polygon points="66,307 231,307 231,331 66,331 66,307" id="MCCALL_ROBINHOOD_T31_010_line_4">
            <metadata typography="" uri="" method="" area="" fillingPcent="" rank=""
                      idBalloon="MCCALL_ROBINHOOD_T31_010_balloon_0" textType="narrative">GUARDS CLOSE
            </metadata>
        </polygon>
        <polygon points="62,334 232,334 232,356 62,356 62,334" id="MCCALL_ROBINHOOD_T31_010_line_5">
            <metadata typography="" uri="" method="" area="" fillingPcent="" rank=""
                      idBalloon="MCCALL_ROBINHOOD_T31_010_balloon_0" textType="narrative">ON THEIR HEELS
            </metadata>
        </polygon>
        <polygon points="67,360 236,360 236,379 67,379 67,360" id="MCCALL_ROBINHOOD_T31_010_line_6">
            <metadata typography="" uri="" method="" area="" fillingPcent="" rank=""
                      idBalloon="MCCALL_ROBINHOOD_T31_010_balloon_0" textType="narrative">...AND AT THAT
            </metadata>
        </polygon>
        <polygon points="64,384 247,384 247,406 64,406 64,384" id="MCCALL_ROBINHOOD_T31_010_line_7">
            <metadata typography="" uri="" method="" area="" fillingPcent="" rank=""
                      idBalloon="MCCALL_ROBINHOOD_T31_010_balloon_0" textType="narrative">MOMENT, LITTLE-
            </metadata>
        </polygon>
        <polygon points="72,410 212,410 212,430 72,430 72,410" id="MCCALL_ROBINHOOD_T31_010_line_8">
            <metadata typography="" uri="" method="" area="" fillingPcent="" rank=""
                      idBalloon="MCCALL_ROBINHOOD_T31_010_balloon_0" textType="narrative">JOHON'S FEET
            </metadata>
        </polygon>
        <polygon points="74,435 219,435 219,455 74,455 74,435" id="MCCALL_ROBINHOOD_T31_010_line_9">
            <metadata typography="" uri="" method="" area="" fillingPcent="" rank=""
                      idBalloon="MCCALL_ROBINHOOD_T31_010_balloon_0" textType="narrative">SLIP ON THE
            </metadata>
        </polygon>
        <polygon points="69,459 217,459 217,480 69,480 69,459" id="MCCALL_ROBINHOOD_T31_010_line_10">
            <metadata typography="" uri="" method="" area="" fillingPcent="" rank=""
                      idBalloon="MCCALL_ROBINHOOD_T31_010_balloon_0" textType="narrative">FOOD STREWIN
            </metadata>
        </polygon>
        <polygon points="91,485 176,485 176,505 91,505 91,485" id="MCCALL_ROBINHOOD_T31_010_line_11">
            <metadata typography="" uri="" method="" area="" fillingPcent="" rank=""
                      idBalloon="MCCALL_ROBINHOOD_T31_010_balloon_0" textType="narrative">ON THE
            </metadata>
        </polygon>
        <polygon points="96,510 189,510 189,529 96,529 96,510" id="MCCALL_ROBINHOOD_T31_010_line_12">
            <metadata typography="" uri="" method="" area="" fillingPcent="" rank=""
                      idBalloon="MCCALL_ROBINHOOD_T31_010_balloon_0" textType="narrative">FLOOR...
            </metadata>
        </polygon>
        <polygon points="332,79 489,79 489,110 332,110 332,79" id="MCCALL_ROBINHOOD_T31_010_line_13">
            <metadata typography="" uri="" method="" area="" fillingPcent="" rank=""
                      idBalloon="MCCALL_ROBINHOOD_T31_010_balloon_1" textType="speech">SEIZE THEM!
            </metadata>
        </polygon>
        <polygon points="314,106 536,106 536,134 314,134 314,106" id="MCCALL_ROBINHOOD_T31_010_line_14">
            <metadata typography="" uri="" method="" area="" fillingPcent="" rank=""
                      idBalloon="MCCALL_ROBINHOOD_T31_010_balloon_1" textType="speech">CUT THEM DOWN!
            </metadata>
        </polygon>
        <polygon points="327,135 538,135 538,159 327,159 327,135" id="MCCALL_ROBINHOOD_T31_010_line_15">
            <metadata typography="" uri="" method="" area="" fillingPcent="" rank=""
                      idBalloon="MCCALL_ROBINHOOD_T31_010_balloon_1" textType="speech">DONT'T LET THEM
            </metadata>
        </polygon>
        <polygon points="348,160 461,160 461,187 348,187 348,160" id="MCCALL_ROBINHOOD_T31_010_line_16">
            <metadata typography="" uri="" method="" area="" fillingPcent="" rank=""
                      idBalloon="MCCALL_ROBINHOOD_T31_010_balloon_1" textType="speech">ESCAPE !
            </metadata>
        </polygon>
        <polygon points="649,120 841,120 841,180 649,180 649,120" id="MCCALL_ROBINHOOD_T31_010_line_17">
            <metadata typography="" uri="" method="" area="" fillingPcent="" rank=""
                      idBalloon="MCCALL_ROBINHOOD_T31_010_balloon_2" textType="speech">WHOO-OOPS!
            </metadata>
        </polygon>
        <polygon points="952,84 1089,84 1089,109 952,109 952,84" id="MCCALL_ROBINHOOD_T31_010_line_18">
            <metadata typography="" uri="" method="" area="" fillingPcent="" rank=""
                      idBalloon="MCCALL_ROBINHOOD_T31_010_balloon_3" textType="speech">GO ON! GET
            </metadata>
        </polygon>
        <polygon points="922,105 1160,105 1160,134 922,134 922,105" id="MCCALL_ROBINHOOD_T31_010_line_19">
            <metadata typography="" uri="" method="" area="" fillingPcent="" rank=""
                      idBalloon="MCCALL_ROBINHOOD_T31_010_balloon_3" textType="speech">AWAY IF YOU CAN!
            </metadata>
        </polygon>
        <polygon points="936,134 1115,134 1115,154 936,154 936,134" id="MCCALL_ROBINHOOD_T31_010_line_20">
            <metadata typography="" uri="" method="" area="" fillingPcent="" rank=""
                      idBalloon="MCCALL_ROBINHOOD_T31_010_balloon_3" textType="speech">DON'T BOTHER
            </metadata>
        </polygon>
        <polygon points="947,155 1097,155 1097,186 947,186 947,155" id="MCCALL_ROBINHOOD_T31_010_line_21">
            <metadata typography="" uri="" method="" area="" fillingPcent="" rank=""
                      idBalloon="MCCALL_ROBINHOOD_T31_010_balloon_3" textType="speech">ABOUT ME!
            </metadata>
        </polygon>
        <polygon points="920,613 1416,613 1416,637 920,637 920,613" id="MCCALL_ROBINHOOD_T31_010_line_22">
            <metadata typography="" uri="" method="" area="" fillingPcent="" rank=""
                      idBalloon="MCCALL_ROBINHOOD_T31_010_balloon_4" textType="narrative">FIERCELY THE GUARDS FALL ON
                THE PRONE
            </metadata>
        </polygon>
        <polygon points="913,638 1383,638 1383,663 913,663 913,638" id="MCCALL_ROBINHOOD_T31_010_line_23">
            <metadata typography="" uri="" method="" area="" fillingPcent="" rank=""
                      idBalloon="MCCALL_ROBINHOOD_T31_010_balloon_4" textType="narrative">GIANT...AND ROBIN, ALMOST
                CLEAR OF THE
            </metadata>
        </polygon>
        <polygon points="916,665 1396,665 1396,687 916,687 916,665" id="MCCALL_ROBINHOOD_T31_010_line_24">
            <metadata typography="" uri="" method="" area="" fillingPcent="" rank=""
                      idBalloon="MCCALL_ROBINHOOD_T31_010_balloon_4" textType="narrative">ROOM, GALLANTLY TURNS BACK TO
                HELP HIS
            </metadata>
        </polygon>
        <polygon points="916,689 1019,689 1019,712 916,712 916,689" id="MCCALL_ROBINHOOD_T31_010_line_25">
            <metadata typography="" uri="" method="" area="" fillingPcent="" rank=""
                      idBalloon="MCCALL_ROBINHOOD_T31_010_balloon_4" textType="narrative">FRIENDS...
            </metadata>
        </polygon>
        <polygon points="98,1154 372,1154 372,1188 98,1188 98,1154" id="MCCALL_ROBINHOOD_T31_010_line_26">
            <metadata typography="" uri="" method="" area="" fillingPcent="" rank=""
                      idBalloon="MCCALL_ROBINHOOD_T31_010_balloon_5" textType="narrative">WITH FISTS LASHING OUT
            </metadata>
        </polygon>
        <polygon points="100,1187 386,1187 386,1208 100,1208 100,1187" id="MCCALL_ROBINHOOD_T31_010_line_27">
            <metadata typography="" uri="" method="" area="" fillingPcent="" rank=""
                      idBalloon="MCCALL_ROBINHOOD_T31_010_balloon_5" textType="narrative">RIGHT AND LEFT, THE OUT-
            </metadata>
        </polygon>
        <polygon points="100,1213 389,1213 389,1237 100,1237 100,1213" id="MCCALL_ROBINHOOD_T31_010_line_28">
            <metadata typography="" uri="" method="" area="" fillingPcent="" rank=""
                      idBalloon="MCCALL_ROBINHOOD_T31_010_balloon_5" textType="narrative">LAW CHIEF HURLS HIMSELF
            </metadata>
        </polygon>
        <polygon points="98,1236 390,1236 390,1259 98,1259 98,1236" id="MCCALL_ROBINHOOD_T31_010_line_29">
            <metadata typography="" uri="" method="" area="" fillingPcent="" rank=""
                      idBalloon="MCCALL_ROBINHOOD_T31_010_balloon_5" textType="narrative">AT THE GUARDS...BUT HE
            </metadata>
        </polygon>
        <polygon points="98,1261 365,1261 365,1285 98,1285 98,1261" id="MCCALL_ROBINHOOD_T31_010_line_30">
            <metadata typography="" uri="" method="" area="" fillingPcent="" rank=""
                      idBalloon="MCCALL_ROBINHOOD_T31_010_balloon_5" textType="narrative">KNOWS THE ODDS ARE
            </metadata>
        </polygon>
        <polygon points="100,1286 222,1286 222,1306 100,1306 100,1286" id="MCCALL_ROBINHOOD_T31_010_line_31">
            <metadata typography="" uri="" method="" area="" fillingPcent="" rank=""
                      idBalloon="MCCALL_ROBINHOOD_T31_010_balloon_5" textType="narrative">HOPELESS...
            </metadata>
        </polygon>
        <polygon points="811,847 875,847 875,881 811,881 811,847" id="MCCALL_ROBINHOOD_T31_010_line_32">
            <metadata typography="" uri="" method="" area="" fillingPcent="" rank=""
                      idBalloon="MCCALL_ROBINHOOD_T31_010_balloon_6" textType="narrative">THE
            </metadata>
        </polygon>
        <polygon points="794,884 903,884 903,909 794,909 794,884" id="MCCALL_ROBINHOOD_T31_010_line_33">
            <metadata typography="" uri="" method="" area="" fillingPcent="" rank=""
                      idBalloon="MCCALL_ROBINHOOD_T31_010_balloon_6" textType="narrative">STRUGGLE
            </metadata>
        </polygon>
        <polygon points="786,910 904,910 904,931 786,931 786,910" id="MCCALL_ROBINHOOD_T31_010_line_34">
            <metadata typography="" uri="" method="" area="" fillingPcent="" rank=""
                      idBalloon="MCCALL_ROBINHOOD_T31_010_balloon_6" textType="narrative">IS BRIEF...
            </metadata>
        </polygon>
        <polygon points="783,935 907,935 907,958 783,958 783,935" id="MCCALL_ROBINHOOD_T31_010_line_35">
            <metadata typography="" uri="" method="" area="" fillingPcent="" rank=""
                      idBalloon="MCCALL_ROBINHOOD_T31_010_balloon_6" textType="narrative">SOON THEY
            </metadata>
        </polygon>
        <polygon points="782,961 927,961 927,979 782,979 782,961" id="MCCALL_ROBINHOOD_T31_010_line_36">
            <metadata typography="" uri="" method="" area="" fillingPcent="" rank=""
                      idBalloon="MCCALL_ROBINHOOD_T31_010_balloon_6" textType="narrative">ARE HELPLESS
            </metadata>
        </polygon>
        <polygon points="784,987 918,987 918,1007 784,1007 784,987" id="MCCALL_ROBINHOOD_T31_010_line_37">
            <metadata typography="" uri="" method="" area="" fillingPcent="" rank=""
                      idBalloon="MCCALL_ROBINHOOD_T31_010_balloon_6" textType="narrative">PRISONERS.
            </metadata>
        </polygon>
        <polygon points="785,1010 937,1010 937,1039 784,1039 785,1010" id="MCCALL_ROBINHOOD_T31_010_line_38">
            <metadata typography="" uri="" method="" area="" fillingPcent="" rank=""
                      idBalloon="MCCALL_ROBINHOOD_T31_010_balloon_6" textType="narrative">AND THE ERRL,
            </metadata>
        </polygon>
        <polygon points="782,1034 917,1034 917,1056 782,1056 782,1034" id="MCCALL_ROBINHOOD_T31_010_line_39">
            <metadata typography="" uri="" method="" area="" fillingPcent="" rank=""
                      idBalloon="MCCALL_ROBINHOOD_T31_010_balloon_6" textType="narrative">DANCING IN
            </metadata>
        </polygon>
        <polygon points="787,1059 891,1059 891,1084 787,1084 787,1059" id="MCCALL_ROBINHOOD_T31_010_line_40">
            <metadata typography="" uri="" method="" area="" fillingPcent="" rank=""
                      idBalloon="MCCALL_ROBINHOOD_T31_010_balloon_6" textType="narrative">RAGE, IS
            </metadata>
        </polygon>
        <polygon points="785,1084 939,1084 939,1111 785,1111 785,1084" id="MCCALL_ROBINHOOD_T31_010_line_41">
            <metadata typography="" uri="" method="" area="" fillingPcent="" rank=""
                      idBalloon="MCCALL_ROBINHOOD_T31_010_balloon_6" textType="narrative">HEAPING ABUSE
            </metadata>
        </polygon>
        <polygon points="795,1109 922,1109 922,1130 795,1130 795,1109" id="MCCALL_ROBINHOOD_T31_010_line_42">
            <metadata typography="" uri="" method="" area="" fillingPcent="" rank=""
                      idBalloon="MCCALL_ROBINHOOD_T31_010_balloon_6" textType="narrative">ON THEM...
            </metadata>
        </polygon>
        <polygon points="1066,719 1300,719 1300,749 1066,749 1066,719" id="MCCALL_ROBINHOOD_T31_010_line_43">
            <metadata typography="" uri="" method="" area="" fillingPcent="" rank=""
                      idBalloon="MCCALL_ROBINHOOD_T31_010_balloon_7" textType="speech">WRETCHES ! DOLTS !
            </metadata>
        </polygon>
        <polygon points="997,750 1314,750 1314,772 997,772 997,750" id="MCCALL_ROBINHOOD_T31_010_line_44">
            <metadata typography="" uri="" method="" area="" fillingPcent="" rank=""
                      idBalloon="MCCALL_ROBINHOOD_T31_010_balloon_7" textType="speech">ASSASSINS ! YOU'VE MADE
            </metadata>
        </polygon>
        <polygon points="990,774 1329,774 1329,798 990,798 990,774" id="MCCALL_ROBINHOOD_T31_010_line_45">
            <metadata typography="" uri="" method="" area="" fillingPcent="" rank=""
                      idBalloon="MCCALL_ROBINHOOD_T31_010_balloon_7" textType="speech">ME THE LAUGHING STOCK OF
            </metadata>
        </polygon>
        <polygon points="984,798 1374,798 1374,825 984,825 984,798" id="MCCALL_ROBINHOOD_T31_010_line_46">
            <metadata typography="" uri="" method="" area="" fillingPcent="" rank=""
                      idBalloon="MCCALL_ROBINHOOD_T31_010_balloon_7" textType="speech">MY FRIENDS ! TO THE DUNGEONS
            </metadata>
        </polygon>
        <polygon points="987,826 1344,826 1344,847 987,847 987,826" id="MCCALL_ROBINHOOD_T31_010_line_47">
            <metadata typography="" uri="" method="" area="" fillingPcent="" rank=""
                      idBalloon="MCCALL_ROBINHOOD_T31_010_balloon_7" textType="speech">WITH THEM ! ON THE MORROW
            </metadata>
        </polygon>
        <polygon points="999,847 1302,847 1302,877 999,877 999,847" id="MCCALL_ROBINHOOD_T31_010_line_48">
            <metadata typography="" uri="" method="" area="" fillingPcent="" rank=""
                      idBalloon="MCCALL_ROBINHOOD_T31_010_balloon_7" textType="speech">THEY SUFFER FOR THIS!
            </metadata>
        </polygon>
        <polygon points="99,1402 318,1402 318,1432 99,1432 99,1402" id="MCCALL_ROBINHOOD_T31_010_line_49">
            <metadata typography="" uri="" method="" area="" fillingPcent="" rank=""
                      idBalloon="MCCALL_ROBINHOOD_T31_010_balloon_8" textType="narrative">ROUGKLY, THEY ARE
            </metadata>
        </polygon>
        <polygon points="99,1434 322,1434 322,1454 99,1454 99,1434" id="MCCALL_ROBINHOOD_T31_010_line_50">
            <metadata typography="" uri="" method="" area="" fillingPcent="" rank=""
                      idBalloon="MCCALL_ROBINHOOD_T31_010_balloon_8" textType="narrative">HURLED INTO A DUN-
            </metadata>
        </polygon>
        <polygon points="97,1457 240,1457 240,1479 97,1479 97,1457" id="MCCALL_ROBINHOOD_T31_010_line_51">
            <metadata typography="" uri="" method="" area="" fillingPcent="" rank=""
                      idBalloon="MCCALL_ROBINHOOD_T31_010_balloon_8" textType="narrative">GEON CELL...
            </metadata>
        </polygon>
        <polygon points="828,1386 1023,1386 1023,1411 828,1411 828,1386" id="MCCALL_ROBINHOOD_T31_010_line_52">
            <metadata typography="" uri="" method="" area="" fillingPcent="" rank=""
                      idBalloon="MCCALL_ROBINHOOD_T31_010_balloon_9" textType="speech">'TIS A PRETTY FIX
            </metadata>
        </polygon>
        <polygon points="808,1414 1042,1414 1042,1437 808,1437 808,1414" id="MCCALL_ROBINHOOD_T31_010_line_53">
            <metadata typography="" uri="" method="" area="" fillingPcent="" rank=""
                      idBalloon="MCCALL_ROBINHOOD_T31_010_balloon_9" textType="speech">WE'RE IN, SIRE ! WHAT
            </metadata>
        </polygon>
        <polygon points="802,1440 1032,1440 1032,1461 802,1461 802,1440" id="MCCALL_ROBINHOOD_T31_010_line_54">
            <metadata typography="" uri="" method="" area="" fillingPcent="" rank=""
                      idBalloon="MCCALL_ROBINHOOD_T31_010_balloon_9" textType="speech">IS THE PENALTY FOR
            </metadata>
        </polygon>
        <polygon points="811,1464 1003,1464 1003,1488 811,1488 811,1464" id="MCCALL_ROBINHOOD_T31_010_line_55">
            <metadata typography="" uri="" method="" area="" fillingPcent="" rank=""
                      idBalloon="MCCALL_ROBINHOOD_T31_010_balloon_9" textType="speech">SPILLING SOUP ON
            </metadata>
        </polygon>
        <polygon points="838,1487 955,1487 955,1512 838,1512 838,1487" id="MCCALL_ROBINHOOD_T31_010_line_56">
            <metadata typography="" uri="" method="" area="" fillingPcent="" rank=""
                      idBalloon="MCCALL_ROBINHOOD_T31_010_balloon_9" textType="speech">AN EARL ?
            </metadata>
        </polygon>
        <polygon points="1181,1394 1361,1394 1361,1422 1181,1422 1181,1394" id="MCCALL_ROBINHOOD_T31_010_line_57">
            <metadata typography="" uri="" method="" area="" fillingPcent="" rank=""
                      idBalloon="MCCALL_ROBINHOOD_T31_010_balloon_10" textType="speech">DIRE TORTURES, I
            </metadata>
        </polygon>
        <polygon points="1146,1418 1393,1418 1393,1447 1146,1447 1146,1418" id="MCCALL_ROBINHOOD_T31_010_line_58">
            <metadata typography="" uri="" method="" area="" fillingPcent="" rank=""
                      idBalloon="MCCALL_ROBINHOOD_T31_010_balloon_10" textType="speech">FEAR ME, LITTLEJOHON!
            </metadata>
        </polygon>
        <polygon points="1144,1447 1374,1447 1374,1473 1144,1473 1144,1447" id="MCCALL_ROBINHOOD_T31_010_line_59">
            <metadata typography="" uri="" method="" area="" fillingPcent="" rank=""
                      idBalloon="MCCALL_ROBINHOOD_T31_010_balloon_10" textType="speech">RH, WELL, I CAME TO
            </metadata>
        </polygon>
        <polygon points="1149,1472 1343,1472 1343,1498 1149,1498 1149,1472" id="MCCALL_ROBINHOOD_T31_010_line_60">
            <metadata typography="" uri="" method="" area="" fillingPcent="" rank=""
                      idBalloon="MCCALL_ROBINHOOD_T31_010_balloon_10" textType="speech">SEE THE EARL'S
            </metadata>
        </polygon>
        <polygon points="1149,1499 1367,1499 1367,1522 1149,1522 1149,1499" id="MCCALL_ROBINHOOD_T31_010_line_61">
            <metadata typography="" uri="" method="" area="" fillingPcent="" rank=""
                      idBalloon="MCCALL_ROBINHOOD_T31_010_balloon_10" textType="speech">CASTLE AND SEE IT
            </metadata>
        </polygon>
        <polygon points="1153,1526 1376,1526 1376,1550 1153,1550 1153,1526" id="MCCALL_ROBINHOOD_T31_010_line_62">
            <metadata typography="" uri="" method="" area="" fillingPcent="" rank=""
                      idBalloon="MCCALL_ROBINHOOD_T31_010_balloon_10" textType="speech">I DID...EVEN TO THE
            </metadata>
        </polygon>
        <polygon points="1200,1550 1324,1550 1324,1572 1200,1572 1200,1550" id="MCCALL_ROBINHOOD_T31_010_line_63">
            <metadata typography="" uri="" method="" area="" fillingPcent="" rank=""
                      idBalloon="MCCALL_ROBINHOOD_T31_010_balloon_10" textType="speech">DUNGEON...
            </metadata>
        </polygon>
        <polygon points="797,2029 1370,2029 1370,2055 797,2055 797,2029" id="MCCALL_ROBINHOOD_T31_010_line_64">
            <metadata typography="" uri="" method="" area="" fillingPcent="" rank=""
                      idBalloon="MCCALL_ROBINHOOD_T31_010_balloon_11" textType="narrative">RUEFULLY BUT UNDAUNTED THEY
                CONSIDER THEIR
            </metadata>
        </polygon>
        <polygon points="796,2056 896,2056 896,2076 796,2076 796,2056" id="MCCALL_ROBINHOOD_T31_010_line_65">
            <metadata typography="" uri="" method="" area="" fillingPcent="" rank=""
                      idBalloon="MCCALL_ROBINHOOD_T31_010_balloon_11" textType="narrative">PLIGHT...
            </metadata>
        </polygon>
        <polygon points="1403,2053 1423,2053 1423,2079 1403,2079 1403,2053" id="MCCALL_ROBINHOOD_T31_010_line_66">
            <metadata typography="" uri="" method="" area="" fillingPcent="" rank=""
                      idBalloon="MCCALL_ROBINHOOD_T31_010_balloon_11" textType="speech">8
            </metadata>
        </polygon>
    </svg>
    <svg contentScriptType="text/ecmascript" zoomAndPan="magnify" contentStyleType="text/css" class="linkSBSC"
         preserveAspectRatio="xMidYMid meet" version="1.0">
        <polygon points="436,155 437,155 337,437 336,437 436,155" idCharacter="MCCALL_ROBINHOOD_T31_010_character_0"
                 idBalloon="MCCALL_ROBINHOOD_T31_010_balloon_1"/>
        <polygon points="726,171 727,171 488,488 487,488 726,171" idCharacter="MCCALL_ROBINHOOD_T31_010_character_2"
                 idBalloon="MCCALL_ROBINHOOD_T31_010_balloon_2"/>
        <polygon points="1047,159 1048,159 1151,403 1150,403 1047,159"
                 idCharacter="MCCALL_ROBINHOOD_T31_010_character_3" idBalloon="MCCALL_ROBINHOOD_T31_010_balloon_3"/>
        <polygon points="1183,820 1184,820 1059,1143 1058,1143 1183,820"
                 idCharacter="MCCALL_ROBINHOOD_T31_010_character_6" idBalloon="MCCALL_ROBINHOOD_T31_010_balloon_7"/>
        <polygon points="927,1463 928,1463 890,1764 889,1764 927,1463"
                 idCharacter="MCCALL_ROBINHOOD_T31_010_character_11" idBalloon="MCCALL_ROBINHOOD_T31_010_balloon_9"/>
        <polygon points="1265,1479 1266,1479 1221,1771 1220,1771 1265,1479"
                 idCharacter="MCCALL_ROBINHOOD_T31_010_character_12" idBalloon="MCCALL_ROBINHOOD_T31_010_balloon_10"/>
    </svg>
    <metadata method="GroundTruth" lastModificationDate="Wed Feb 12 16:17:24 CET 2014" lastStepModified="Balloon_Rank"/>
</svg>