<?xml version="1.0" encoding="UTF-8" standalone="no"?>
<svg xmlns:xlink="http://www.w3.org/1999/xlink" xmlns="http://www.w3.org/2000/svg" contentScriptType="text/ecmascript"
     width="746mm" zoomAndPan="magnify" contentStyleType="text/css" height="1093mm" viewBox="0 0 1493 2186"
     preserveAspectRatio="xMidYMid meet" version="1.0">
    <title>MCCALL_ROBINHOOD_T31_020</title>
    <svg contentScriptType="text/ecmascript" zoomAndPan="magnify" contentStyleType="text/css" class="Page"
         preserveAspectRatio="xMidYMid meet" version="1.0">
        <image x="0" y="0" width="1493" xlink:href="../Pages/MCCALL_ROBINHOOD_T31_020.jpg" xlink:type="simple"
               xlink:actuate="onLoad" height="2186" preserveAspectRatio="xMidYMid meet" xlink:show="embed"/>
        <metadata ISBN="" doublePage="false" albumTitle="Robin Hood And Company 31" releaseDate="1946"
                  collectionTitle="Robin Hood And Company" readingDirection="leftToRight"
                  website="http://comicbookplus.com/?dlid=31922" drawerName="Charles Snelgrove" pageNumber="20"
                  language="english" writerName="Ted McCall" editorName="John Gordon Baker"/>
    </svg>
    <style type="text/css" xml:space="preserve">
        * { stroke-width: 0; stroke-linejoin: round; }
        .Unclassified { fill: orange; stroke: none; opacity: 1.0; visibility: hidden; }
        .Noise { fill: pink; stroke: none; opacity: 0.2; visibility: hidden; }
        .Panel { fill: red; stroke: none; opacity: 0.3; visibility: visible; image-rendering: optimizeSpeed; }
        .Line { fill: green; stroke: none; opacity: 0.5; visibility: visible; image-rendering: optimizeSpeed; }
        .TextArea { fill: grey; stroke: none; opacity: 0.2; visibility: visible; image-rendering: optimizeSpeed; }
        .Balloon { fill: cyan; stroke: none; opacity: 0.5; visibility: visible; image-rendering: optimizeSpeed; }
        .Letter { fill: blue; stroke: none; opacity: 0.2; visibility: hidden; }
        .Character { fill: yellow; stroke: none; opacity: 0.3; visibility: visible; image-rendering: optimizeSpeed; }
        .Page { fill: white; stroke: none; opacity: 0.5; visibility: visible; }
        .linkSBSC { fill: blue; stroke: none; opacity: 0.5; visibility: visible; }
        polygon:hover { stroke:red;stroke-width:2; } 
    </style>
    <svg contentScriptType="text/ecmascript" zoomAndPan="magnify" contentStyleType="text/css" class="Panel"
         preserveAspectRatio="xMidYMid meet" version="1.0">
        <polygon points="43,91 816,91 816,765 43,765 43,91" id="MCCALL_ROBINHOOD_T31_020_panel_0">
            <metadata viewAngle="" uri="" shot="" area="" rank="1" fillingPcent=""/>
        </polygon>
        <polygon points="840,95 1453,95 1453,762 840,762 840,95" id="MCCALL_ROBINHOOD_T31_020_panel_1">
            <metadata viewAngle="" uri="" shot="" area="" rank="2" fillingPcent=""/>
        </polygon>
        <polygon points="43,779 527,779 527,1472 43,1472 43,779" id="MCCALL_ROBINHOOD_T31_020_panel_2">
            <metadata viewAngle="" uri="" shot="" area="" rank="3" fillingPcent=""/>
        </polygon>
        <polygon points="531,778 931,778 931,1430 531,1430 531,778" id="MCCALL_ROBINHOOD_T31_020_panel_3">
            <metadata viewAngle="" uri="" shot="" area="" rank="4" fillingPcent=""/>
        </polygon>
        <polygon points="937,779 1453,779 1453,1428 937,1428 937,779" id="MCCALL_ROBINHOOD_T31_020_panel_4">
            <metadata viewAngle="" uri="" shot="" area="" rank="5" fillingPcent=""/>
        </polygon>
        <polygon points="41,1492 549,1492 549,2118 41,2118 41,1492" id="MCCALL_ROBINHOOD_T31_020_panel_5">
            <metadata viewAngle="" uri="" shot="" area="" rank="6" fillingPcent=""/>
        </polygon>
        <polygon points="559,1456 965,1456 965,2116 559,2116 559,1456" id="MCCALL_ROBINHOOD_T31_020_panel_6">
            <metadata viewAngle="" uri="" shot="" area="" rank="7" fillingPcent=""/>
        </polygon>
        <polygon points="970,1450 1457,1450 1457,2116 970,2116 970,1450" id="MCCALL_ROBINHOOD_T31_020_panel_7">
            <metadata viewAngle="" uri="" shot="" area="" rank="8" fillingPcent=""/>
        </polygon>
    </svg>
    <svg contentScriptType="text/ecmascript" zoomAndPan="magnify" contentStyleType="text/css" class="TextArea"
         preserveAspectRatio="xMidYMid meet" version="1.0"/>
    <svg contentScriptType="text/ecmascript" zoomAndPan="magnify" contentStyleType="text/css" class="Balloon"
         preserveAspectRatio="xMidYMid meet" version="1.0">
        <polygon points="65,116 267,143 257,628 55,653 65,116" id="MCCALL_ROBINHOOD_T31_020_balloon_0">
            <metadata borderStyle="other" tailTip="" boundingBox="" tailDirection="none" rank="1"/>
        </polygon>
        <polygon points="852,652 1445,653 1441,761 846,763 852,652" id="MCCALL_ROBINHOOD_T31_020_balloon_1">
            <metadata borderStyle="other" tailTip="" boundingBox="" tailDirection="none" rank="2"/>
        </polygon>
        <polygon points="56,1271 501,1277 496,1469 60,1459 56,1271 56,1271" id="MCCALL_ROBINHOOD_T31_020_balloon_2">
            <metadata borderStyle="other" tailTip="" boundingBox="" tailDirection="none" rank="3"/>
        </polygon>
        <polygon points="545,1282 909,1273 909,1421 538,1428 545,1282" id="MCCALL_ROBINHOOD_T31_020_balloon_3">
            <metadata borderStyle="other" tailTip="" boundingBox="" tailDirection="none" rank="4"/>
        </polygon>
        <polygon points="977,1346 1441,1351 1443,1430 962,1428 977,1346 977,1346"
                 id="MCCALL_ROBINHOOD_T31_020_balloon_4">
            <metadata borderStyle="other" tailTip="" boundingBox="" tailDirection="none" rank="5"/>
        </polygon>
        <polygon
                points="926,783 1299,777 1340,826 1343,898 1306,944 1228,976 1148,985 1092,991 1082,1013 1065,990 955,997 875,958 852,870 881,807 926,783"
                id="MCCALL_ROBINHOOD_T31_020_balloon_5">
            <metadata borderStyle="smooth" tailTip="1082,1013" boundingBox="" tailDirection="S" rank="6"/>
        </polygon>
        <polygon points="41,1492 549,1495 544,1613 45,1618 41,1492" id="MCCALL_ROBINHOOD_T31_020_balloon_6">
            <metadata borderStyle="other" tailTip="" boundingBox="" tailDirection="none" rank="7"/>
        </polygon>
        <polygon points="558,1982 959,1984 956,2120 558,2120 558,1982" id="MCCALL_ROBINHOOD_T31_020_balloon_7">
            <metadata borderStyle="other" tailTip="" boundingBox="" tailDirection="none" rank="8"/>
        </polygon>
        <polygon points="970,2001 1447,2004 1454,2129 964,2120 970,2001" id="MCCALL_ROBINHOOD_T31_020_balloon_8">
            <metadata borderStyle="other" tailTip="" boundingBox="" tailDirection="none" rank="9"/>
        </polygon>
    </svg>
    <svg contentScriptType="text/ecmascript" zoomAndPan="magnify" contentStyleType="text/css" class="Character"
         preserveAspectRatio="xMidYMid meet" version="1.0">
        <polygon points="959,178 1306,178 1306,623 959,623 959,178" id="MCCALL_ROBINHOOD_T31_020_character_0">
            <metadata uri="" area="" fillingPcent=""/>
        </polygon>
        <polygon points="84,897 241,897 241,1229 84,1229 84,897" id="MCCALL_ROBINHOOD_T31_020_character_1">
            <metadata uri="" area="" fillingPcent=""/>
        </polygon>
        <polygon points="1040,979 1429,979 1429,1260 1040,1260 1040,979" id="MCCALL_ROBINHOOD_T31_020_character_2">
            <metadata uri="" area="" fillingPcent=""/>
        </polygon>
        <polygon points="1008,1527 1313,1527 1313,1982 1008,1982 1008,1527" id="MCCALL_ROBINHOOD_T31_020_character_3">
            <metadata uri="" area="" fillingPcent=""/>
        </polygon>
        <polygon points="606,1472 781,1472 781,1609 606,1609 606,1472" id="MCCALL_ROBINHOOD_T31_020_character_4">
            <metadata uri="" area="" fillingPcent=""/>
        </polygon>
        <polygon points="51,1708 439,1708 439,2048 51,2048 51,1708" id="MCCALL_ROBINHOOD_T31_020_character_5">
            <metadata uri="" area="" fillingPcent=""/>
        </polygon>
    </svg>
    <svg contentScriptType="text/ecmascript" zoomAndPan="magnify" contentStyleType="text/css" class="Line"
         preserveAspectRatio="xMidYMid meet" version="1.0">
        <polygon points="59,262 237,262 237,322 59,322 59,262" id="MCCALL_ROBINHOOD_T31_020_line_0">
            <metadata typography="" uri="" method="" area="" fillingPcent="" rank=""
                      idBalloon="MCCALL_ROBINHOOD_T31_020_balloon_0" textType="narrative">After dark
            </metadata>
        </polygon>
        <polygon points="72,322 231,322 231,349 72,349 72,322" id="MCCALL_ROBINHOOD_T31_020_line_1">
            <metadata typography="" uri="" method="" area="" fillingPcent="" rank=""
                      idBalloon="MCCALL_ROBINHOOD_T31_020_balloon_0" textType="narrative">descends over
            </metadata>
        </polygon>
        <polygon points="73,346 222,346 222,375 73,375 73,346" id="MCCALL_ROBINHOOD_T31_020_line_2">
            <metadata typography="" uri="" method="" area="" fillingPcent="" rank=""
                      idBalloon="MCCALL_ROBINHOOD_T31_020_balloon_0" textType="narrative">the castle of
            </metadata>
        </polygon>
        <polygon points="71,378 182,378 182,406 71,406 71,378" id="MCCALL_ROBINHOOD_T31_020_line_3">
            <metadata typography="" uri="" method="" area="" fillingPcent="" rank=""
                      idBalloon="MCCALL_ROBINHOOD_T31_020_balloon_0" textType="narrative">stokes, a
            </metadata>
        </polygon>
        <polygon points="76,406 231,406 231,434 76,434 76,406" id="MCCALL_ROBINHOOD_T31_020_line_4">
            <metadata typography="" uri="" method="" area="" fillingPcent="" rank=""
                      idBalloon="MCCALL_ROBINHOOD_T31_020_balloon_0" textType="narrative">small door in
            </metadata>
        </polygon>
        <polygon points="72,437 238,437 238,469 72,469 72,437" id="MCCALL_ROBINHOOD_T31_020_line_5">
            <metadata typography="" uri="" method="" area="" fillingPcent="" rank=""
                      idBalloon="MCCALL_ROBINHOOD_T31_020_balloon_0" textType="narrative">the wall opens
            </metadata>
        </polygon>
        <polygon points="93,469 194,469 194,498 93,498 93,469" id="MCCALL_ROBINHOOD_T31_020_line_6">
            <metadata typography="" uri="" method="" area="" fillingPcent="" rank=""
                      idBalloon="MCCALL_ROBINHOOD_T31_020_balloon_0" textType="narrative">and two
            </metadata>
        </polygon>
        <polygon points="68,498 238,498 238,525 68,525 68,498" id="MCCALL_ROBINHOOD_T31_020_line_7">
            <metadata typography="" uri="" method="" area="" fillingPcent="" rank=""
                      idBalloon="MCCALL_ROBINHOOD_T31_020_balloon_0" textType="narrative">furtive figures
            </metadata>
        </polygon>
        <polygon points="79,528 218,528 218,557 79,557 79,528" id="MCCALL_ROBINHOOD_T31_020_line_8">
            <metadata typography="" uri="" method="" area="" fillingPcent="" rank=""
                      idBalloon="MCCALL_ROBINHOOD_T31_020_balloon_0" textType="narrative">steal out...
            </metadata>
        </polygon>
        <polygon points="862,668 1434,668 1434,697 862,697 862,668" id="MCCALL_ROBINHOOD_T31_020_line_9">
            <metadata typography="" uri="" method="" area="" fillingPcent="" rank=""
                      idBalloon="MCCALL_ROBINHOOD_T31_020_balloon_1" textType="narrative">BUT AS THEY VANISH INTO THE
                KIGHT, ONOTHER
            </metadata>
        </polygon>
        <polygon points="864,696 1434,696 1434,726 864,726 864,696" id="MCCALL_ROBINHOOD_T31_020_line_10">
            <metadata typography="" uri="" method="" area="" fillingPcent="" rank=""
                      idBalloon="MCCALL_ROBINHOOD_T31_020_balloon_1" textType="narrative">FORM RISES FROM THE SHADOWS
                AND FOLLOWS
            </metadata>
        </polygon>
        <polygon points="864,728 1112,728 1112,752 864,752 864,728" id="MCCALL_ROBINHOOD_T31_020_line_11">
            <metadata typography="" uri="" method="" area="" fillingPcent="" rank=""
                      idBalloon="MCCALL_ROBINHOOD_T31_020_balloon_1" textType="narrative">...IT IS ROBIN HOOD...
            </metadata>
        </polygon>
        <polygon points="65,1281 482,1281 482,1306 65,1306 65,1281" id="MCCALL_ROBINHOOD_T31_020_line_12">
            <metadata typography="" uri="" method="" area="" fillingPcent="" rank=""
                      idBalloon="MCCALL_ROBINHOOD_T31_020_balloon_2" textType="narrative">THROUGH THE DARK THE CLOAKED
            </metadata>
        </polygon>
        <polygon points="65,1307 449,1307 449,1331 65,1331 65,1307" id="MCCALL_ROBINHOOD_T31_020_line_13">
            <metadata typography="" uri="" method="" area="" fillingPcent="" rank=""
                      idBalloon="MCCALL_ROBINHOOD_T31_020_balloon_2" textType="narrative">FIGURES SNEAK TO THE SHEER
            </metadata>
        </polygon>
        <polygon points="65,1337 480,1337 480,1366 65,1366 65,1337" id="MCCALL_ROBINHOOD_T31_020_line_14">
            <metadata typography="" uri="" method="" area="" fillingPcent="" rank=""
                      idBalloon="MCCALL_ROBINHOOD_T31_020_balloon_2" textType="narrative">CLIFFS LEADING TO THE SEA FAR
            </metadata>
        </polygon>
        <polygon points="65,1366 498,1366 498,1390 65,1390 65,1366" id="MCCALL_ROBINHOOD_T31_020_line_15">
            <metadata typography="" uri="" method="" area="" fillingPcent="" rank=""
                      idBalloon="MCCALL_ROBINHOOD_T31_020_balloon_2" textType="narrative">BELOW...A QUICK CHALLENGE FROM
            </metadata>
        </polygon>
        <polygon points="65,1396 474,1396 474,1423 65,1423 65,1396" id="MCCALL_ROBINHOOD_T31_020_line_16">
            <metadata typography="" uri="" method="" area="" fillingPcent="" rank=""
                      idBalloon="MCCALL_ROBINHOOD_T31_020_balloon_2" textType="narrative">A GUARD WHO LOOMS SUDDENLY
            </metadata>
        </polygon>
        <polygon points="62,1425 406,1425 406,1451 62,1451 62,1425" id="MCCALL_ROBINHOOD_T31_020_line_17">
            <metadata typography="" uri="" method="" area="" fillingPcent="" rank=""
                      idBalloon="MCCALL_ROBINHOOD_T31_020_balloon_2" textType="narrative">INTO VIEW IS ANSWERED...
            </metadata>
        </polygon>
        <polygon points="943,813 1221,813 1221,839 943,839 943,813" id="MCCALL_ROBINHOOD_T31_020_line_18">
            <metadata typography="" uri="" method="" area="" fillingPcent="" rank=""
                      idBalloon="MCCALL_ROBINHOOD_T31_020_balloon_5" textType="speech">BY MY HILT, DO GHOSTS
            </metadata>
        </polygon>
        <polygon points="917,839 1232,839 1232,870 917,870 917,839" id="MCCALL_ROBINHOOD_T31_020_line_19">
            <metadata typography="" uri="" method="" area="" fillingPcent="" rank=""
                      idBalloon="MCCALL_ROBINHOOD_T31_020_balloon_5" textType="speech">DWELL ALONG THE SEA ?
            </metadata>
        </polygon>
        <polygon points="904,870 1262,870 1262,895 904,895 904,870" id="MCCALL_ROBINHOOD_T31_020_line_20">
            <metadata typography="" uri="" method="" area="" fillingPcent="" rank=""
                      idBalloon="MCCALL_ROBINHOOD_T31_020_balloon_5" textType="speech">SHADOWS COME AND GO AS
            </metadata>
        </polygon>
        <polygon points="909,897 1220,897 1220,922 909,922 909,897" id="MCCALL_ROBINHOOD_T31_020_line_21">
            <metadata typography="" uri="" method="" area="" fillingPcent="" rank=""
                      idBalloon="MCCALL_ROBINHOOD_T31_020_balloon_5" textType="speech">IF FROM NOWHERE AND
            </metadata>
        </polygon>
        <polygon points="923,925 1114,925 1114,959 923,959 923,925" id="MCCALL_ROBINHOOD_T31_020_line_22">
            <metadata typography="" uri="" method="" area="" fillingPcent="" rank=""
                      idBalloon="MCCALL_ROBINHOOD_T31_020_balloon_5" textType="speech">INTO...WHERE ?
            </metadata>
        </polygon>
        <polygon points="549,1283 872,1283 872,1310 549,1310 549,1283" id="MCCALL_ROBINHOOD_T31_020_line_23">
            <metadata typography="" uri="" method="" area="" fillingPcent="" rank=""
                      idBalloon="MCCALL_ROBINHOOD_T31_020_balloon_3" textType="narrative">THE GUARD DISAPPEARS AS
            </metadata>
        </polygon>
        <polygon points="552,1314 892,1314 892,1339 552,1339 552,1314" id="MCCALL_ROBINHOOD_T31_020_line_24">
            <metadata typography="" uri="" method="" area="" fillingPcent="" rank=""
                      idBalloon="MCCALL_ROBINHOOD_T31_020_balloon_3" textType="narrative">MYSTERIOUSLY AS HE CAME
            </metadata>
        </polygon>
        <polygon points="550,1343 858,1343 858,1370 550,1370 550,1343" id="MCCALL_ROBINHOOD_T31_020_line_25">
            <metadata typography="" uri="" method="" area="" fillingPcent="" rank=""
                      idBalloon="MCCALL_ROBINHOOD_T31_020_balloon_3" textType="narrative">AND THE TWO FIGURES
            </metadata>
        </polygon>
        <polygon points="552,1370 899,1370 899,1394 552,1394 552,1370" id="MCCALL_ROBINHOOD_T31_020_line_26">
            <metadata typography="" uri="" method="" area="" fillingPcent="" rank=""
                      idBalloon="MCCALL_ROBINHOOD_T31_020_balloon_3" textType="narrative">VANISH NEAR THE BRINK OF
            </metadata>
        </polygon>
        <polygon points="556,1394 787,1394 787,1420 556,1420 556,1394" id="MCCALL_ROBINHOOD_T31_020_line_27">
            <metadata typography="" uri="" method="" area="" fillingPcent="" rank=""
                      idBalloon="MCCALL_ROBINHOOD_T31_020_balloon_3" textType="narrative">THE STEEP CLIFF...
            </metadata>
        </polygon>
        <polygon points="979,1377 1430,1377 1430,1408 979,1408 979,1377" id="MCCALL_ROBINHOOD_T31_020_line_28">
            <metadata typography="" uri="" method="" area="" fillingPcent="" rank=""
                      idBalloon="MCCALL_ROBINHOOD_T31_020_balloon_4" textType="narrative">...ROBIN WATCHES IN
                AMAZEMENT...
            </metadata>
        </polygon>
        <polygon points="58,1517 525,1517 525,1548 58,1548 58,1517" id="MCCALL_ROBINHOOD_T31_020_line_29">
            <metadata typography="" uri="" method="" area="" fillingPcent="" rank=""
                      idBalloon="MCCALL_ROBINHOOD_T31_020_balloon_6" textType="narrative">THEN SILENTLY AS THE NIGHT
                ITSELF,
            </metadata>
        </polygon>
        <polygon points="63,1549 515,1549 515,1575 63,1575 63,1549" id="MCCALL_ROBINHOOD_T31_020_line_30">
            <metadata typography="" uri="" method="" area="" fillingPcent="" rank=""
                      idBalloon="MCCALL_ROBINHOOD_T31_020_balloon_6" textType="narrative">HE CRAWLS FORWARD TO THE EDGE
            </metadata>
        </polygon>
        <polygon points="62,1575 260,1575 260,1606 62,1606 62,1575" id="MCCALL_ROBINHOOD_T31_020_line_31">
            <metadata typography="" uri="" method="" area="" fillingPcent="" rank=""
                      idBalloon="MCCALL_ROBINHOOD_T31_020_balloon_6" textType="narrative">OF THE BLUFF...
            </metadata>
        </polygon>
        <polygon points="580,1998 917,1998 917,2020 580,2020 580,1998" id="MCCALL_ROBINHOOD_T31_020_line_32">
            <metadata typography="" uri="" method="" area="" fillingPcent="" rank=""
                      idBalloon="MCCALL_ROBINHOOD_T31_020_balloon_7" textType="narrative">THERE HE FINDS NARROW
            </metadata>
        </polygon>
        <polygon points="582,2028 929,2028 929,2053 582,2053 582,2028" id="MCCALL_ROBINHOOD_T31_020_line_33">
            <metadata typography="" uri="" method="" area="" fillingPcent="" rank=""
                      idBalloon="MCCALL_ROBINHOOD_T31_020_balloon_7" textType="narrative">STEPS CUT INTO THE WALL-
            </metadata>
        </polygon>
        <polygon points="585,2053 861,2053 861,2083 585,2083 585,2053" id="MCCALL_ROBINHOOD_T31_020_line_34">
            <metadata typography="" uri="" method="" area="" fillingPcent="" rank=""
                      idBalloon="MCCALL_ROBINHOOD_T31_020_balloon_7" textType="narrative">LIKE FACE OF ROCK...
            </metadata>
        </polygon>
        <polygon points="982,2023 1437,2025 1437,2052 982,2052 982,2023" id="MCCALL_ROBINHOOD_T31_020_line_35">
            <metadata typography="" uri="" method="" area="" fillingPcent="" rank=""
                      idBalloon="MCCALL_ROBINHOOD_T31_020_balloon_8" textType="narrative">NOT A SOUND BETRAYS HIM TO THE
            </metadata>
        </polygon>
        <polygon points="982,2053 1435,2053 1435,2080 982,2080 982,2053" id="MCCALL_ROBINHOOD_T31_020_line_36">
            <metadata typography="" uri="" method="" area="" fillingPcent="" rank=""
                      idBalloon="MCCALL_ROBINHOOD_T31_020_balloon_8" textType="narrative">UNSEEN GUARD ABOVE AS HE
                GLIDES
            </metadata>
        </polygon>
        <polygon points="982,2080 1377,2080 1377,2106 982,2106 982,2080" id="MCCALL_ROBINHOOD_T31_020_line_37">
            <metadata typography="" uri="" method="" area="" fillingPcent="" rank=""
                      idBalloon="MCCALL_ROBINHOOD_T31_020_balloon_8" textType="narrative">DOWN THOSE HIDDEN STAIRS...
            </metadata>
        </polygon>
        <polygon points="1411,2084 1435,2084 1435,2110 1411,2110 1411,2084" id="MCCALL_ROBINHOOD_T31_020_line_38">
            <metadata typography="" uri="" method="" area="" fillingPcent="" rank=""
                      idBalloon="MCCALL_ROBINHOOD_T31_020_balloon_8" textType="speech">4
            </metadata>
        </polygon>
    </svg>
    <svg contentScriptType="text/ecmascript" zoomAndPan="magnify" contentStyleType="text/css" class="linkSBSC"
         preserveAspectRatio="xMidYMid meet" version="1.0">
        <polygon points="1097,895 1098,895 1235,1119 1234,1119 1097,895"
                 idCharacter="MCCALL_ROBINHOOD_T31_020_character_2" idBalloon="MCCALL_ROBINHOOD_T31_020_balloon_5"/>
    </svg>
    <metadata method="GroundTruth" lastModificationDate="Sun Jan 26 17:49:17 CET 2014" lastStepModified="Balloon_Rank"/>
</svg>