<?xml version="1.0" encoding="UTF-8" standalone="no"?>
<svg xmlns:xlink="http://www.w3.org/1999/xlink" xmlns="http://www.w3.org/2000/svg" contentScriptType="text/ecmascript"
     width="1217mm" zoomAndPan="magnify" contentStyleType="text/css" height="1732mm" viewBox="0 0 2434 3465"
     preserveAspectRatio="xMidYMid meet" version="1.0">
    <title>MIDAM_KIDPADDLE7_015</title>
    <svg contentScriptType="text/ecmascript" zoomAndPan="magnify" contentStyleType="text/css" class="Page"
         preserveAspectRatio="xMidYMid meet" version="1.0">
        <image x="0" y="0" fill-opacity="0.5" width="2434" xlink:href="../Pages/MIDAM_KIDPADDLE7_015.jpg"
               xlink:type="simple" xlink:actuate="onLoad" height="3465" opacity="0.5"
               preserveAspectRatio="xMidYMid meet" xlink:show="embed"/>
        <metadata collectionTitle="Kid Paddle" editorName="Dupuis" doublePage="false" website=""
                  albumTitle="Waterminator" drawerName="Midam" language="french" resolution="600" ISBN="978-2800131115"
                  readingDirection="leftToRight" writerName="Midam" releaseDate="2001" pageNumber="15"/>
    </svg>
    <style type="text/css" xml:space="preserve">
        * { stroke-width: 0; stroke-linejoin: round; }
        .Unclassified { fill: orange; stroke: none; opacity: 1.0; visibility: hidden; }
        .Noise { fill: pink; stroke: none; opacity: 0.2; visibility: hidden; }
        .Panel { fill: red; stroke: none; opacity: 0.3; visibility: visible; image-rendering: optimizeSpeed; }
        .Line { fill: green; stroke: none; opacity: 0.5; visibility: visible; image-rendering: optimizeSpeed; }
        .TextArea { fill: grey; stroke: none; opacity: 0.2; visibility: visible; image-rendering: optimizeSpeed; }
        .Balloon { fill: cyan; stroke: none; opacity: 0.5; visibility: visible; image-rendering: optimizeSpeed; }
        .Letter { fill: blue; stroke: none; opacity: 0.2; visibility: hidden; }
        .Character { fill: yellow; stroke: none; opacity: 0.3; visibility: visible; image-rendering: optimizeSpeed; }
        .Page { fill: white; stroke: none; opacity: 0.5; visibility: visible; }
        .linkSBSC { fill: blue; stroke: none; opacity: 0.5; visibility: visible; }
        polygon:hover { stroke:red;stroke-width:2; } 
    </style>
    <svg contentScriptType="text/ecmascript" zoomAndPan="magnify" contentStyleType="text/css" class="Panel"
         preserveAspectRatio="xMidYMid meet" version="1.0">
        <polygon points="36,347 1148,347 1148,1051 36,1051 36,347" id="MIDAM_KIDPADDLE7_015_panel_0">
            <metadata viewAngle="" shot="" rank="2"/>
        </polygon>
        <polygon points="1174,356 2286,356 2286,1047 1174,1047 1174,356" id="MIDAM_KIDPADDLE7_015_panel_1">
            <metadata viewAngle="" shot="" rank="3"/>
        </polygon>
        <polygon points="44,1090 1217,1090 1217,1781 44,1781 44,1090" id="MIDAM_KIDPADDLE7_015_panel_2">
            <metadata viewAngle="" shot="" rank="4"/>
        </polygon>
        <polygon points="1238,1090 2286,1090 2286,1786 1238,1786 1238,1090" id="MIDAM_KIDPADDLE7_015_panel_3">
            <metadata viewAngle="" shot="" rank="5"/>
        </polygon>
        <polygon points="49,1829 1208,1829 1208,2516 49,2516 49,1829" id="MIDAM_KIDPADDLE7_015_panel_4">
            <metadata viewAngle="" shot="" rank="6"/>
        </polygon>
        <polygon points="1234,1829 2286,1829 2286,2511 1234,2511 1234,1829" id="MIDAM_KIDPADDLE7_015_panel_5">
            <metadata viewAngle="" shot="" rank="7"/>
        </polygon>
        <polygon points="36,25 298,25 298,300 36,300 36,25" id="MIDAM_KIDPADDLE7_015_panel_6">
            <metadata viewAngle="" shot="" rank="1"/>
        </polygon>
        <polygon points="83,2760 650,2760 650,3220 83,3220 83,2760" id="MIDAM_KIDPADDLE7_015_panel_7">
            <metadata viewAngle="" shot="" rank="8"/>
        </polygon>
        <polygon points="723,2657 1259,2657 1259,3220 723,3220 723,2657" id="MIDAM_KIDPADDLE7_015_panel_8">
            <metadata viewAngle="" shot="" rank="9"/>
        </polygon>
        <polygon points="1345,2717 1869,2717 1869,3220 1345,3220 1345,2717" id="MIDAM_KIDPADDLE7_015_panel_9">
            <metadata viewAngle="" shot="" rank="10"/>
        </polygon>
        <polygon points="1951,2589 2260,2589 2260,3258 1951,3258 1951,2589" id="MIDAM_KIDPADDLE7_015_panel_10">
            <metadata viewAngle="" shot="" rank="11"/>
        </polygon>
    </svg>
    <svg contentScriptType="text/ecmascript" zoomAndPan="magnify" contentStyleType="text/css" class="TextArea"
         preserveAspectRatio="xMidYMid meet" version="1.0"/>
    <svg contentScriptType="text/ecmascript" zoomAndPan="magnify" contentStyleType="text/css" class="Balloon"
         preserveAspectRatio="xMidYMid meet" version="1.0">
        <polygon
                points="31,452 34,350 476,347 489,366 500,388 507,405 505,418 492,446 469,476 458,486 437,490 431,503 424,514 439,528 447,540 440,554 431,563 413,578 398,576 399,569 409,567 416,567 424,564 434,555 434,546 428,542 412,535 404,528 407,518 410,504 412,489 332,492 235,494 150,497 94,493 52,476 31,452"
                id="MIDAM_KIDPADDLE7_015_balloon_0">
            <metadata borderStyle="smooth" tailTip="398,576" boundingBox="" tailDirection="SW" rank="1"/>
        </polygon>
        <polygon
                points="529,420 545,378 559,348 1084,347 1093,361 1103,380 1110,407 1114,433 1117,452 1117,473 1114,503 1111,525 1107,539 1062,551 988,563 936,569 873,575 830,578 784,575 732,569 673,567 613,560 608,594 610,621 592,624 579,624 586,639 597,650 621,650 615,661 589,656 573,640 561,622 559,598 564,595 577,598 586,602 587,556 549,546 535,524 521,484 529,420"
                id="MIDAM_KIDPADDLE7_015_balloon_1">
            <metadata borderStyle="smooth" tailTip="621,650" boundingBox="" tailDirection="SE" rank="2"/>
        </polygon>
        <polygon
                points="1173,526 1174,347 1665,346 1679,373 1687,402 1689,448 1679,490 1672,526 1645,543 1617,551 1557,557 1469,561 1404,565 1354,562 1306,564 1263,560 1260,598 1253,624 1247,630 1223,623 1223,637 1232,653 1252,654 1262,653 1262,662 1243,666 1223,655 1212,637 1208,616 1207,598 1211,585 1218,589 1227,598 1232,587 1233,556 1196,545 1176,534 1173,526"
                id="MIDAM_KIDPADDLE7_015_balloon_2">
            <metadata borderStyle="smooth" tailTip="1262,653" boundingBox="" tailDirection="E" rank="4"/>
        </polygon>
        <polygon
                points="1741,346 2285,345 2284,569 2271,582 2239,592 2192,595 2154,599 2118,599 2060,603 2003,605 1949,605 1904,605 1861,604 1824,600 1822,625 1809,666 1796,662 1777,649 1775,658 1785,675 1800,686 1809,685 1816,681 1818,690 1809,698 1795,694 1786,687 1766,656 1755,628 1757,615 1770,613 1784,618 1791,616 1793,588 1716,556 1706,511 1704,443 1719,395 1741,346"
                id="MIDAM_KIDPADDLE7_015_balloon_3">
            <metadata borderStyle="smooth" tailTip="1816,681" boundingBox="" tailDirection="E" rank="3"/>
        </polygon>
        <polygon
                points="35,1241 35,1090 546,1090 561,1105 573,1123 575,1131 564,1224 543,1231 522,1244 496,1252 461,1262 438,1268 436,1280 437,1295 451,1303 460,1312 458,1330 447,1347 436,1362 419,1372 411,1378 398,1371 399,1365 407,1369 418,1365 431,1353 443,1324 413,1313 405,1274 317,1279 235,1276 155,1276 98,1269 35,1241"
                id="MIDAM_KIDPADDLE7_015_balloon_4">
            <metadata borderStyle="smooth" tailTip="399,1365" boundingBox="" tailDirection="SW" rank="5"/>
        </polygon>
        <polygon
                points="587,1085 1219,1086 1219,1387 1205,1399 1173,1406 1126,1410 1084,1413 1052,1414 1028,1415 1021,1432 1037,1442 1042,1451 1034,1470 1016,1487 997,1501 989,1502 981,1491 987,1493 998,1488 1009,1477 1016,1464 1016,1457 996,1450 992,1439 995,1422 998,1414 965,1412 929,1403 891,1377 891,1353 895,1330 789,1331 698,1330 627,1325 576,1306 558,1262 558,1204 571,1139 587,1085"
                id="MIDAM_KIDPADDLE7_015_balloon_5">
            <metadata borderStyle="smooth" tailTip="981,1491" boundingBox="" tailDirection="SW" rank="6"/>
        </polygon>
        <polygon
                points="1238,1256 1237,1086 1657,1083 1668,1099 1679,1118 1684,1134 1692,1146 1694,1221 1681,1237 1667,1248 1641,1264 1642,1279 1658,1281 1669,1276 1679,1286 1680,1313 1674,1333 1665,1350 1641,1362 1639,1346 1652,1345 1660,1342 1664,1324 1658,1310 1639,1316 1625,1316 1617,1286 1617,1275 1558,1285 1486,1285 1410,1290 1331,1289 1298,1288 1252,1267 1238,1256"
                id="MIDAM_KIDPADDLE7_015_balloon_6">
            <metadata borderStyle="smooth" tailTip="1641,1362" boundingBox="" tailDirection="SW" rank="7"/>
        </polygon>
        <polygon
                points="1713,1083 2287,1083 2286,1229 2230,1242 2145,1256 2056,1265 2034,1266 1971,1264 1924,1263 1866,1260 1859,1283 1854,1328 1841,1328 1824,1324 1819,1332 1823,1344 1836,1352 1853,1352 1863,1351 1863,1357 1849,1363 1830,1359 1814,1347 1801,1322 1796,1299 1805,1298 1823,1303 1827,1290 1827,1266 1828,1260 1759,1253 1711,1245 1700,1241 1679,1173 1691,1130 1713,1083"
                id="MIDAM_KIDPADDLE7_015_balloon_7">
            <metadata borderStyle="smooth" tailTip="1863,1351" boundingBox="" tailDirection="E" rank="8"/>
        </polygon>
        <polygon
                points="37,1968 37,1827 724,1825 739,1845 748,1870 753,1892 751,1917 740,1942 738,1960 718,1975 669,1994 637,1999 541,2002 473,2004 396,2004 401,2012 423,2017 430,2034 426,2061 411,2085 396,2099 372,2117 353,2102 356,2096 363,2100 385,2091 400,2078 406,2050 400,2038 374,2041 369,2036 364,2018 366,2002 274,2006 175,2006 97,1994 49,1981 37,1968"
                id="MIDAM_KIDPADDLE7_015_balloon_8">
            <metadata borderStyle="smooth" tailTip="353,2102" boundingBox="" tailDirection="SW" rank="9"/>
        </polygon>
        <polygon
                points="919,1867 946,1862 968,1868 993,1873 1018,1866 1040,1862 1059,1862 1084,1870 1099,1879 1131,1882 1155,1882 1179,1899 1192,1917 1196,1943 1191,1962 1190,1993 1178,2009 1163,2020 1154,2030 1145,2041 1138,2049 1145,2051 1155,2048 1167,2049 1171,2059 1168,2075 1166,2082 1173,2079 1184,2070 1189,2066 1200,2069 1205,2077 1201,2087 1202,2090 1208,2089 1212,2097 1205,2104 1197,2110 1193,2102 1190,2087 1189,2082 1180,2094 1168,2106 1158,2106 1151,2086 1151,2074 1153,2063 1151,2061 1135,2072 1124,2068 1122,2057 1123,2041 1100,2038 1081,2042 1055,2041 1032,2030 1015,2029 998,2032 970,2028 933,2022 916,2023 901,2022 881,1998 882,1969 881,1951 876,1936 888,1922 895,1896 903,1878 919,1867"
                id="MIDAM_KIDPADDLE7_015_balloon_9">
            <metadata borderStyle="wavy" tailTip="1212,2097" boundingBox="" tailDirection="SE" rank="10"/>
        </polygon>
        <polygon
                points="1262,1870 1283,1821 1635,1822 1647,1858 1653,1891 1655,1920 1629,1949 1598,1971 1564,1985 1540,1987 1554,1994 1571,2011 1574,2027 1574,2046 1569,2072 1554,2093 1537,2100 1498,2103 1466,2103 1464,2110 1477,2114 1501,2117 1507,2133 1508,2154 1509,2166 1511,2169 1520,2166 1530,2162 1538,2166 1553,2171 1544,2183 1530,2176 1526,2174 1506,2183 1497,2188 1489,2186 1489,2167 1490,2152 1480,2142 1459,2141 1439,2140 1438,2127 1437,2105 1380,2103 1350,2083 1330,2047 1338,2024 1359,1998 1313,1992 1274,1974 1255,1909 1262,1870"
                id="MIDAM_KIDPADDLE7_015_balloon_10">
            <metadata borderStyle="smooth" tailTip="1553,2171" boundingBox="" tailDirection="E" rank="11"/>
        </polygon>
        <polygon
                points="1905,1884 1924,1856 1947,1834 2030,1830 2109,1831 2164,1833 2186,1847 2205,1873 2203,1892 2198,1920 2182,1937 2152,1956 2110,1962 2055,1970 2029,1970 2025,2000 2035,2020 2042,2036 2030,2050 2004,2067 2002,2082 1991,2093 1963,2095 1955,2091 1941,2095 1941,2081 1952,2076 1967,2079 1978,2085 1989,2079 1985,2066 1984,2055 2000,2049 2012,2039 2012,2029 2001,2023 1989,2013 1991,1997 1995,1970 1958,1970 1938,1953 1905,1900 1905,1884"
                id="MIDAM_KIDPADDLE7_015_balloon_11">
            <metadata borderStyle="smooth" tailTip="1941,2095" boundingBox="" tailDirection="W" rank="12"/>
        </polygon>
        <polygon
                points="110,2586 164,2579 209,2577 243,2584 265,2592 277,2611 280,2632 278,2662 265,2678 248,2686 212,2690 158,2694 127,2693 109,2690 100,2705 96,2712 117,2721 120,2733 109,2753 100,2771 101,2793 114,2792 127,2800 130,2807 125,2807 117,2801 107,2804 103,2807 92,2794 91,2766 98,2743 102,2733 93,2727 84,2730 77,2722 78,2705 88,2677 77,2664 72,2640 78,2619 93,2596 110,2586"
                id="MIDAM_KIDPADDLE7_015_balloon_12">
            <metadata borderStyle="smooth" tailTip="130,2807" boundingBox="" tailDirection="E" rank="13"/>
        </polygon>
        <polygon
                points="236,2691 264,2691 300,2694 335,2702 358,2715 367,2734 366,2758 361,2783 355,2795 339,2807 309,2811 273,2812 244,2812 242,2819 246,2823 258,2821 270,2827 272,2836 264,2850 258,2858 254,2868 255,2874 265,2872 272,2872 278,2881 275,2886 269,2886 264,2880 255,2882 250,2885 244,2879 246,2865 250,2847 252,2837 238,2837 223,2842 219,2831 219,2807 200,2805 180,2785 164,2757 172,2736 185,2713 202,2701 236,2691"
                id="MIDAM_KIDPADDLE7_015_balloon_13">
            <metadata borderStyle="smooth" tailTip="275,2886" boundingBox="" tailDirection="SE" rank="14"/>
        </polygon>
        <polygon
                points="394,2615 426,2561 1069,2559 1071,2571 1075,2584 1092,2576 1112,2576 1114,2584 1110,2596 1108,2599 1124,2589 1141,2584 1159,2586 1164,2593 1157,2606 1155,2619 1171,2615 1174,2621 1172,2632 1166,2637 1162,2634 1165,2624 1150,2629 1146,2624 1147,2612 1151,2602 1152,2597 1141,2593 1125,2603 1117,2613 1110,2621 1103,2622 1099,2618 1097,2610 1096,2600 1089,2602 1084,2606 1081,2618 1080,2631 1063,2654 1048,2670 1018,2702 995,2714 932,2717 814,2722 737,2718 737,2751 732,2780 709,2801 618,2811 543,2809 514,2795 478,2766 481,2749 481,2734 432,2725 399,2706 388,2667 388,2641 394,2615"
                id="MIDAM_KIDPADDLE7_015_balloon_14">
            <metadata borderStyle="smooth" tailTip="1166,2637" boundingBox="" tailDirection="S" rank="15"/>
        </polygon>
        <polygon
                points="1390,2555 1822,2555 1832,2567 1837,2581 1842,2594 1855,2587 1871,2584 1878,2593 1875,2605 1870,2620 1868,2632 1874,2634 1883,2626 1897,2618 1910,2613 1920,2619 1917,2630 1915,2640 1921,2641 1928,2646 1923,2651 1911,2650 1906,2639 1907,2629 1910,2621 1898,2625 1885,2637 1875,2650 1862,2657 1857,2654 1853,2646 1853,2630 1855,2610 1846,2613 1840,2625 1837,2637 1808,2653 1778,2668 1754,2677 1703,2681 1629,2682 1558,2683 1475,2682 1425,2678 1387,2673 1367,2648 1363,2626 1373,2593 1390,2555"
                id="MIDAM_KIDPADDLE7_015_balloon_15">
            <metadata borderStyle="smooth" tailTip="1928,2646" boundingBox="" tailDirection="E" rank="16"/>
        </polygon>
    </svg>
    <svg contentScriptType="text/ecmascript" zoomAndPan="magnify" contentStyleType="text/css" class="Character"
         preserveAspectRatio="xMidYMid meet" version="1.0">
        <polygon points="48,507 414,507 414,1053 48,1053 48,507" id="MIDAM_KIDPADDLE7_015_character_0">
            <metadata uri="" area="" fillingPcent=""/>
        </polygon>
        <polygon points="646,557 1028,557 1028,1051 646,1051 646,557" id="MIDAM_KIDPADDLE7_015_character_1">
            <metadata uri="" area="" fillingPcent=""/>
        </polygon>
        <polygon points="1173,555 1554,555 1554,1049 1173,1049 1173,555" id="MIDAM_KIDPADDLE7_015_character_2">
            <metadata uri="" area="" fillingPcent=""/>
        </polygon>
        <polygon points="1821,589 2249,589 2249,1043 1821,1043 1821,589" id="MIDAM_KIDPADDLE7_015_character_3">
            <metadata uri="" area="" fillingPcent=""/>
        </polygon>
        <polygon points="88,1280 606,1280 606,1790 88,1790 88,1280" id="MIDAM_KIDPADDLE7_015_character_4">
            <metadata uri="" area="" fillingPcent=""/>
        </polygon>
        <polygon points="715,1330 1104,1330 1104,1776 715,1776 715,1330" id="MIDAM_KIDPADDLE7_015_character_5">
            <metadata uri="" area="" fillingPcent=""/>
        </polygon>
        <polygon points="1307,1278 1745,1278 1745,1778 1307,1778 1307,1278" id="MIDAM_KIDPADDLE7_015_character_6">
            <metadata uri="" area="" fillingPcent=""/>
        </polygon>
        <polygon points="1879,1284 2269,1284 2269,1782 1879,1782 1879,1284" id="MIDAM_KIDPADDLE7_015_character_7">
            <metadata uri="" area="" fillingPcent=""/>
        </polygon>
        <polygon points="1454,1967 1871,1967 1871,2527 1454,2527 1454,1967" id="MIDAM_KIDPADDLE7_015_character_8">
            <metadata uri="" area="" fillingPcent=""/>
        </polygon>
        <polygon points="721,2069 1221,2069 1221,2511 721,2511 721,2069" id="MIDAM_KIDPADDLE7_015_character_9">
            <metadata uri="" area="" fillingPcent=""/>
        </polygon>
        <polygon points="68,2011 504,2011 504,2531 68,2531 68,2011" id="MIDAM_KIDPADDLE7_015_character_10">
            <metadata uri="" area="" fillingPcent=""/>
        </polygon>
        <polygon points="118,2916 369,2916 369,3236 118,3236 118,2916" id="MIDAM_KIDPADDLE7_015_character_11">
            <metadata uri="" area="" fillingPcent=""/>
        </polygon>
        <polygon points="992,2643 1257,2643 1257,3021 992,3021 992,2643" id="MIDAM_KIDPADDLE7_015_character_12">
            <metadata uri="" area="" fillingPcent=""/>
        </polygon>
        <polygon points="1968,2581 2247,2581 2247,3035 1968,3035 1968,2581" id="MIDAM_KIDPADDLE7_015_character_13">
            <metadata uri="" area="" fillingPcent=""/>
        </polygon>
    </svg>
    <svg contentScriptType="text/ecmascript" zoomAndPan="magnify" contentStyleType="text/css" class="Line"
         preserveAspectRatio="xMidYMid meet" version="1.0">
        <polygon points="62,373 405,373 405,406 62,406 62,373" id="MIDAM_KIDPADDLE7_015_line_0">
            <metadata method="" typography="" idBalloon="MIDAM_KIDPADDLE7_015_balloon_0" textType="speech">CINDY, VOUS
                DEVEZ
            </metadata>
        </polygon>
        <polygon points="45,406 448,406 448,442 45,442 45,406" id="MIDAM_KIDPADDLE7_015_line_1">
            <metadata method="" typography="" idBalloon="MIDAM_KIDPADDLE7_015_balloon_0" textType="speech">RENDRE CET
                ARGENT!
            </metadata>
        </polygon>
        <polygon points="586,368 1011,368 1011,404 586,404 586,368" id="MIDAM_KIDPADDLE7_015_line_2">
            <metadata method="" typography="" idBalloon="MIDAM_KIDPADDLE7_015_balloon_1" textType="speech">MAIS...STEVE!
                POURQUOI
            </metadata>
        </polygon>
        <polygon points="555,409 1032,409 1032,447 555,447 555,409" id="MIDAM_KIDPADDLE7_015_line_3">
            <metadata method="" typography="" idBalloon="MIDAM_KIDPADDLE7_015_balloon_1" textType="speech">DEVRAIS-JE
                RENDRE CET
            </metadata>
        </polygon>
        <polygon points="553,433 1066,433 1066,480 553,480 553,433" id="MIDAM_KIDPADDLE7_015_line_4">
            <metadata method="" typography="" idBalloon="MIDAM_KIDPADDLE7_015_balloon_1" textType="speech">ARGENT? ON ME
                L'A DONNE
            </metadata>
        </polygon>
        <polygon points="562,478 1047,478 1047,523 562,523 562,478" id="MIDAM_KIDPADDLE7_015_line_5">
            <metadata method="" typography="" idBalloon="MIDAM_KIDPADDLE7_015_balloon_1" textType="speech">PARCE QUE
                J'ETAIS JOLIE!
            </metadata>
        </polygon>
        <polygon points="1197,366 1653,366 1653,406 1197,406 1197,366" id="MIDAM_KIDPADDLE7_015_line_6">
            <metadata method="" typography="" idBalloon="MIDAM_KIDPADDLE7_015_balloon_2" textType="speech">ERREUR CINDY!
                ON VOUS
            </metadata>
        </polygon>
        <polygon points="1183,406 1645,406 1645,442 1183,442 1183,406" id="MIDAM_KIDPADDLE7_015_line_7">
            <metadata method="" typography="" idBalloon="MIDAM_KIDPADDLE7_015_balloon_2" textType="speech">A DONNE CET
                ARGENT EN
            </metadata>
        </polygon>
        <polygon points="1185,447 1653,447 1653,480 1185,480 1185,447" id="MIDAM_KIDPADDLE7_015_line_8">
            <metadata method="" typography="" idBalloon="MIDAM_KIDPADDLE7_015_balloon_2" textType="speech">ECHANGE DU
                PAQUET QUE
            </metadata>
        </polygon>
        <polygon points="1185,478 1540,478 1540,514 1185,514 1185,478" id="MIDAM_KIDPADDLE7_015_line_9">
            <metadata method="" typography="" idBalloon="MIDAM_KIDPADDLE7_015_balloon_2" textType="speech">VOUS AVEZ
                LIVRE !
            </metadata>
        </polygon>
        <polygon points="1758,366 2258,366 2258,402 1758,402 1758,366" id="MIDAM_KIDPADDLE7_015_line_10">
            <metadata method="" typography="" idBalloon="MIDAM_KIDPADDLE7_015_balloon_3" textType="speech">QUOI? POUR
                LES 3 KILOS DE
            </metadata>
        </polygon>
        <polygon points="1743,406 2230,406 2230,442 1743,442 1743,406" id="MIDAM_KIDPADDLE7_015_line_11">
            <metadata method="" typography="" idBalloon="MIDAM_KIDPADDLE7_015_balloon_3" textType="speech">SUCRE EN
                POUDRE ?! MAIS
            </metadata>
        </polygon>
        <polygon points="1729,442 2270,442 2270,478 1729,478 1729,442" id="MIDAM_KIDPADDLE7_015_line_12">
            <metadata method="" typography="" idBalloon="MIDAM_KIDPADDLE7_015_balloon_3" textType="speech">C'EST
                RIDICULE, STEVE ! ON NE
            </metadata>
        </polygon>
        <polygon points="1738,483 2187,483 2187,509 1738,509 1738,483" id="MIDAM_KIDPADDLE7_015_line_13">
            <metadata method="" typography="" idBalloon="MIDAM_KIDPADDLE7_015_balloon_3" textType="speech">DONNE PAS 5
                MILLIONS
            </metadata>
        </polygon>
        <polygon points="1753,514 2232,514 2232,557 1753,557 1753,514" id="MIDAM_KIDPADDLE7_015_line_14">
            <metadata method="" typography="" idBalloon="MIDAM_KIDPADDLE7_015_balloon_3" textType="speech">POUR DU
                SUCRE, VOYONS !
            </metadata>
        </polygon>
        <polygon points="59,1101 517,1101 517,1144 59,1144 59,1101" id="MIDAM_KIDPADDLE7_015_line_15">
            <metadata method="" typography="" idBalloon="MIDAM_KIDPADDLE7_015_balloon_4" textType="speech">CE N'ETAIT
                PAS DU SUCRE,
            </metadata>
        </polygon>
        <polygon points="45,1139 551,1139 551,1175 45,1175 45,1139" id="MIDAM_KIDPADDLE7_015_line_16">
            <metadata method="" typography="" idBalloon="MIDAM_KIDPADDLE7_015_balloon_4" textType="speech">CINDY! MAIS
                DE LA DROGUE!
            </metadata>
        </polygon>
        <polygon points="57,1184 417,1184 417,1232 57,1232 57,1184" id="MIDAM_KIDPADDLE7_015_line_17">
            <metadata method="" typography="" idBalloon="MIDAM_KIDPADDLE7_015_balloon_4" textType="speech">DE LA
                DROGUE!
            </metadata>
        </polygon>
        <polygon points="593,1105 1154,1105 1154,1139 593,1139 593,1105" id="MIDAM_KIDPADDLE7_015_line_18">
            <metadata method="" typography="" idBalloon="MIDAM_KIDPADDLE7_015_balloon_5" textType="speech">VOUS ME
                SURPRENEZ, STEVE !
            </metadata>
        </polygon>
        <polygon points="591,1144 1085,1144 1085,1175 591,1175 591,1144" id="MIDAM_KIDPADDLE7_015_line_19">
            <metadata method="" typography="" idBalloon="MIDAM_KIDPADDLE7_015_balloon_5" textType="speech">CES TROIS
                MESSIEURS AUX
            </metadata>
        </polygon>
        <polygon points="591,1182 1118,1182 1118,1210 591,1210 591,1182" id="MIDAM_KIDPADDLE7_015_line_20">
            <metadata method="" typography="" idBalloon="MIDAM_KIDPADDLE7_015_balloon_5" textType="speech">LUNETTES
                NOIRES SE SONT
            </metadata>
        </polygon>
        <polygon points="582,1213 1202,1213 1202,1253 582,1253 582,1213" id="MIDAM_KIDPADDLE7_015_line_21">
            <metadata method="" typography="" idBalloon="MIDAM_KIDPADDLE7_015_balloon_5" textType="speech">PRESENTES
                COMME PRODUCTEURS
            </metadata>
        </polygon>
        <polygon points="582,1253 1094,1253 1094,1291 582,1291 582,1253" id="MIDAM_KIDPADDLE7_015_line_22">
            <metadata method="" typography="" idBalloon="MIDAM_KIDPADDLE7_015_balloon_5" textType="speech">AMERICANS DE
                CINEMA...
            </metadata>
        </polygon>
        <polygon points="911,1303 1211,1303 1211,1325 911,1325 911,1303" id="MIDAM_KIDPADDLE7_015_line_23">
            <metadata method="" typography="" idBalloon="MIDAM_KIDPADDLE7_015_balloon_5" textType="speech">LEUR ACCENT
                SICILIEN
            </metadata>
        </polygon>
        <polygon points="954,1327 1183,1327 1183,1351 954,1351 954,1327" id="MIDAM_KIDPADDLE7_015_line_24">
            <metadata method="" typography="" idBalloon="MIDAM_KIDPADDLE7_015_balloon_5" textType="speech">ETAIT
                D'AILLEURS
            </metadata>
        </polygon>
        <polygon points="920,1353 1185,1353 1185,1380 920,1380 920,1353" id="MIDAM_KIDPADDLE7_015_line_25">
            <metadata method="" typography="" idBalloon="MIDAM_KIDPADDLE7_015_balloon_5" textType="speech">TRES
                SEDUISANT !
            </metadata>
        </polygon>
        <polygon points="1269,1105 1629,1105 1629,1141 1269,1141 1269,1105" id="MIDAM_KIDPADDLE7_015_line_26">
            <metadata method="" typography="" idBalloon="MIDAM_KIDPADDLE7_015_balloon_6" textType="speech">IL FAUT
                RENDRE CET
            </metadata>
        </polygon>
        <polygon points="1252,1132 1657,1132 1657,1177 1252,1177 1252,1132" id="MIDAM_KIDPADDLE7_015_line_27">
            <metadata method="" typography="" idBalloon="MIDAM_KIDPADDLE7_015_balloon_6" textType="speech">ARGENT, CES
                GENS-LA
            </metadata>
        </polygon>
        <polygon points="1249,1177 1636,1177 1636,1210 1249,1210 1249,1177" id="MIDAM_KIDPADDLE7_015_line_28">
            <metadata method="" typography="" idBalloon="MIDAM_KIDPADDLE7_015_balloon_6" textType="speech">N'ONT PAS
                L'HABITUDE
            </metadata>
        </polygon>
        <polygon points="1264,1217 1598,1217 1598,1248 1264,1248 1264,1217" id="MIDAM_KIDPADDLE7_015_line_29">
            <metadata method="" typography="" idBalloon="MIDAM_KIDPADDLE7_015_balloon_6" textType="speech">DE
                PLAISANTER...
            </metadata>
        </polygon>
        <polygon points="1767,1098 2239,1098 2239,1139 1767,1139 1767,1098" id="MIDAM_KIDPADDLE7_015_line_30">
            <metadata method="" typography="" idBalloon="MIDAM_KIDPADDLE7_015_balloon_7" textType="speech">DESOLE,
                STEVE, J'AI DEJA
            </metadata>
        </polygon>
        <polygon points="1715,1136 2275,1136 2275,1175 1715,1175 1715,1136" id="MIDAM_KIDPADDLE7_015_line_31">
            <metadata method="" typography="" idBalloon="MIDAM_KIDPADDLE7_015_balloon_7" textType="speech">TOUT DEPENSE
                EN MAGAZINES
            </metadata>
        </polygon>
        <polygon points="1758,1179 2153,1179 2153,1217 1758,1217 1758,1179" id="MIDAM_KIDPADDLE7_015_line_32">
            <metadata method="" typography="" idBalloon="MIDAM_KIDPADDLE7_015_balloon_7" textType="speech">ET EN
                MAQUILLAGE!
            </metadata>
        </polygon>
        <polygon points="52,1840 565,1840 565,1878 52,1878 52,1840" id="MIDAM_KIDPADDLE7_015_line_33">
            <metadata method="" typography="" idBalloon="MIDAM_KIDPADDLE7_015_balloon_8" textType="speech">VOUS VOUS
                ETES MISE DANS
            </metadata>
        </polygon>
        <polygon points="50,1878 722,1878 722,1919 50,1919 50,1878" id="MIDAM_KIDPADDLE7_015_line_34">
            <metadata method="" typography="" idBalloon="MIDAM_KIDPADDLE7_015_balloon_8" textType="speech">DE GALES
                DRAPS, CA M'ETONNERAIT
            </metadata>
        </polygon>
        <polygon points="52,1919 624,1919 624,1950 52,1950 52,1919" id="MIDAM_KIDPADDLE7_015_line_35">
            <metadata method="" typography="" idBalloon="MIDAM_KIDPADDLE7_015_balloon_8" textType="speech">FORT QU'ILS
                VOUS OUBLIENT...
            </metadata>
        </polygon>
        <polygon points="908,1907 1171,1907 1171,2005 908,2005 908,1907" id="MIDAM_KIDPADDLE7_015_line_36">
            <metadata method="" typography="" idBalloon="MIDAM_KIDPADDLE7_015_balloon_9" textType="speech">AU
                SEC...OUMPF
            </metadata>
        </polygon>
        <polygon points="1323,1840 1583,1840 1583,1873 1323,1873 1323,1840" id="MIDAM_KIDPADDLE7_015_line_37">
            <metadata method="" typography="" idBalloon="MIDAM_KIDPADDLE7_015_balloon_10" textType="speech">IL FAUT
                ALLER
            </metadata>
        </polygon>
        <polygon points="1278,1876 1612,1876 1612,1907 1278,1907 1278,1876" id="MIDAM_KIDPADDLE7_015_line_38">
            <metadata method="" typography="" idBalloon="MIDAM_KIDPADDLE7_015_balloon_10" textType="speech">
                IMMEDIATEMENT
            </metadata>
        </polygon>
        <polygon points="1292,1912 1562,1912 1562,1947 1292,1947 1292,1912" id="MIDAM_KIDPADDLE7_015_line_39">
            <metadata method="" typography="" idBalloon="MIDAM_KIDPADDLE7_015_balloon_10" textType="speech">A LA POL...
                ?
            </metadata>
        </polygon>
        <polygon points="1362,2024 1538,2024 1538,2057 1362,2057 1362,2024" id="MIDAM_KIDPADDLE7_015_line_40">
            <metadata method="" typography="" idBalloon="MIDAM_KIDPADDLE7_015_balloon_10" textType="speech">CINDY ?
            </metadata>
        </polygon>
        <polygon points="1953,1866 2161,1866 2161,1914 1953,1914 1953,1866" id="MIDAM_KIDPADDLE7_015_line_41">
            <metadata method="" typography="" idBalloon="MIDAM_KIDPADDLE7_015_balloon_11" textType="speech">CINDY ?
            </metadata>
        </polygon>
        <polygon points="93,2615 248,2615 248,2651 93,2651 93,2615" id="MIDAM_KIDPADDLE7_015_line_42">
            <metadata method="" typography="" idBalloon="MIDAM_KIDPADDLE7_015_balloon_12" textType="speech">CINDY ?
            </metadata>
        </polygon>
        <polygon points="186,2723 350,2723 350,2766 186,2766 186,2723" id="MIDAM_KIDPADDLE7_015_line_43">
            <metadata method="" typography="" idBalloon="MIDAM_KIDPADDLE7_015_balloon_13" textType="speech">CINDY ?
            </metadata>
        </polygon>
        <polygon points="460,2580 1044,2580 1044,2615 460,2615 460,2580" id="MIDAM_KIDPADDLE7_015_line_44">
            <metadata method="" typography="" idBalloon="MIDAM_KIDPADDLE7_015_balloon_14" textType="speech">OK, POUR
                MOI, LA PRISE EST BONNE !
            </metadata>
        </polygon>
        <polygon points="405,2620 982,2620 982,2651 405,2651 405,2620" id="MIDAM_KIDPADDLE7_015_line_45">
            <metadata method="" typography="" idBalloon="MIDAM_KIDPADDLE7_015_balloon_14" textType="speech">TU PEUX
                REMETTRE STEVE DANS
            </metadata>
        </polygon>
        <polygon points="422,2653 1013,2653 1013,2689 422,2689 422,2653" id="MIDAM_KIDPADDLE7_015_line_46">
            <metadata method="" typography="" idBalloon="MIDAM_KIDPADDLE7_015_balloon_14" textType="speech">LA CHAMBRE
                DE LA SOEUR DE KID,
            </metadata>
        </polygon>
        <polygon points="529,2713 684,2713 684,2744 529,2744 529,2713" id="MIDAM_KIDPADDLE7_015_line_47">
            <metadata method="" typography="" idBalloon="MIDAM_KIDPADDLE7_015_balloon_14" textType="speech">ON N'EN A
            </metadata>
        </polygon>
        <polygon points="517,2744 710,2744 710,2773 517,2773 517,2744" id="MIDAM_KIDPADDLE7_015_line_48">
            <metadata method="" typography="" idBalloon="MIDAM_KIDPADDLE7_015_balloon_14" textType="speech">PLUS
                BESOIN.
            </metadata>
        </polygon>
        <polygon points="1390,2565 1796,2565 1796,2611 1390,2611 1390,2565" id="MIDAM_KIDPADDLE7_015_line_49">
            <metadata method="" typography="" idBalloon="MIDAM_KIDPADDLE7_015_balloon_15" textType="speech">CINDY EST
                PRETE POUR
            </metadata>
        </polygon>
        <polygon points="1402,2608 1760,2608 1760,2644 1402,2644 1402,2608" id="MIDAM_KIDPADDLE7_015_line_50">
            <metadata method="" typography="" idBalloon="MIDAM_KIDPADDLE7_015_balloon_15" textType="speech">LA SCENE
                FINALE !
            </metadata>
        </polygon>
        <polygon points="2249,3224 2301,3224 2301,3250 2249,3250 2249,3224" id="MIDAM_KIDPADDLE7_015_line_51">
            <metadata method="" typography="" textType="note">253</metadata>
        </polygon>
        <polygon points="1137,3340 1185,3340 1185,3376 1137,3376 1137,3340" id="MIDAM_KIDPADDLE7_015_line_52">
            <metadata method="" typography="" textType="speech">15</metadata>
        </polygon>
    </svg>
    <svg contentScriptType="text/ecmascript" zoomAndPan="magnify" contentStyleType="text/css" class="linkSBSC"
         preserveAspectRatio="xMidYMid meet" version="1.0">
        <polygon points="269,462 270,462 232,780 231,780 269,462" idCharacter="MIDAM_KIDPADDLE7_015_character_0"
                 idBalloon="MIDAM_KIDPADDLE7_015_balloon_0"/>
        <polygon points="819,504 820,504 838,804 837,804 819,504" idCharacter="MIDAM_KIDPADDLE7_015_character_1"
                 idBalloon="MIDAM_KIDPADDLE7_015_balloon_1"/>
        <polygon points="1431,506 1432,506 1364,802 1363,802 1431,506" idCharacter="MIDAM_KIDPADDLE7_015_character_2"
                 idBalloon="MIDAM_KIDPADDLE7_015_balloon_2"/>
        <polygon points="1994,521 1995,521 2036,816 2035,816 1994,521" idCharacter="MIDAM_KIDPADDLE7_015_character_3"
                 idBalloon="MIDAM_KIDPADDLE7_015_balloon_3"/>
        <polygon points="305,1234 306,1234 348,1535 347,1535 305,1234" idCharacter="MIDAM_KIDPADDLE7_015_character_4"
                 idBalloon="MIDAM_KIDPADDLE7_015_balloon_4"/>
        <polygon points="888,1293 889,1293 910,1553 909,1553 888,1293" idCharacter="MIDAM_KIDPADDLE7_015_character_5"
                 idBalloon="MIDAM_KIDPADDLE7_015_balloon_5"/>
        <polygon points="1465,1222 1466,1222 1527,1528 1526,1528 1465,1222"
                 idCharacter="MIDAM_KIDPADDLE7_015_character_6" idBalloon="MIDAM_KIDPADDLE7_015_balloon_6"/>
        <polygon points="1983,1223 1984,1223 2075,1533 2074,1533 1983,1223"
                 idCharacter="MIDAM_KIDPADDLE7_015_character_7" idBalloon="MIDAM_KIDPADDLE7_015_balloon_7"/>
        <polygon points="395,1971 396,1971 287,2271 286,2271 395,1971" idCharacter="MIDAM_KIDPADDLE7_015_character_10"
                 idBalloon="MIDAM_KIDPADDLE7_015_balloon_8"/>
        <polygon points="1044,1986 1045,1986 972,2290 971,2290 1044,1986" idCharacter="MIDAM_KIDPADDLE7_015_character_9"
                 idBalloon="MIDAM_KIDPADDLE7_015_balloon_9"/>
        <polygon points="1455,2004 1456,2004 1663,2247 1662,2247 1455,2004"
                 idCharacter="MIDAM_KIDPADDLE7_015_character_8" idBalloon="MIDAM_KIDPADDLE7_015_balloon_10"/>
        <polygon points="2055,1962 2056,1962 1663,2247 1662,2247 2055,1962"
                 idCharacter="MIDAM_KIDPADDLE7_015_character_8" idBalloon="MIDAM_KIDPADDLE7_015_balloon_11"/>
        <polygon points="781,2685 782,2685 1125,2832 1124,2832 781,2685" idCharacter="MIDAM_KIDPADDLE7_015_character_12"
                 idBalloon="MIDAM_KIDPADDLE7_015_balloon_14"/>
        <polygon points="265,2788 266,2788 244,3076 243,3076 265,2788" idCharacter="MIDAM_KIDPADDLE7_015_character_11"
                 idBalloon="MIDAM_KIDPADDLE7_015_balloon_13"/>
        <polygon points="1645,2619 1646,2619 2108,2808 2107,2808 1645,2619"
                 idCharacter="MIDAM_KIDPADDLE7_015_character_13" idBalloon="MIDAM_KIDPADDLE7_015_balloon_15"/>
        <polygon points="176,2692 177,2692 244,3076 243,3076 176,2692" idCharacter="MIDAM_KIDPADDLE7_015_character_11"
                 idBalloon="MIDAM_KIDPADDLE7_015_balloon_12"/>
    </svg>
    <metadata method="GroundTruth" lastModificationDate="Wed Feb 12 18:31:58 CET 2014" lastStepModified="Balloon_Rank"/>
</svg>