<?xml version="1.0" encoding="UTF-8" standalone="no"?>
<svg xmlns:xlink="http://www.w3.org/1999/xlink" xmlns="http://www.w3.org/2000/svg" contentScriptType="text/ecmascript"
     width="1206mm" zoomAndPan="magnify" contentStyleType="text/css" height="1722mm" viewBox="0 0 2413 3445"
     preserveAspectRatio="xMidYMid meet" version="1.0">
    <title>MIDAM_GAMEOVER_T05_004</title>
    <svg contentScriptType="text/ecmascript" zoomAndPan="magnify" contentStyleType="text/css" class="Page"
         preserveAspectRatio="xMidYMid meet" version="1.0">
        <image x="0" y="0" fill-opacity="0.5" width="2413" xlink:href="../Pages/MIDAM_GAMEOVER_T05_004.jpg"
               xlink:type="simple" xlink:actuate="onLoad" height="3445" opacity="0.5"
               preserveAspectRatio="xMidYMid meet" xlink:show="embed"/>
        <metadata collectionTitle="Game Over" editorName="Dupuis" doublePage="false" website=""
                  albumTitle="Walking Blork" drawerName="Midam, Adam" language="french" resolution="600"
                  ISBN="978-2960093834" readingDirection="leftToRight" writerName="Midam" releaseDate="2010"
                  pageNumber="4"/>
    </svg>
    <style type="text/css" xml:space="preserve">
        * { stroke-width: 0; stroke-linejoin: round; }
        .Unclassified { fill: orange; stroke: none; opacity: 1.0; visibility: hidden; }
        .Noise { fill: pink; stroke: none; opacity: 0.2; visibility: hidden; }
        .Panel { fill: red; stroke: none; opacity: 0.3; visibility: visible; image-rendering: optimizeSpeed; }
        .Line { fill: green; stroke: none; opacity: 0.5; visibility: visible; image-rendering: optimizeSpeed; }
        .TextArea { fill: grey; stroke: none; opacity: 0.2; visibility: visible; image-rendering: optimizeSpeed; }
        .Balloon { fill: cyan; stroke: none; opacity: 0.5; visibility: visible; image-rendering: optimizeSpeed; }
        .Letter { fill: blue; stroke: none; opacity: 0.2; visibility: hidden; }
        .Character { fill: yellow; stroke: none; opacity: 0.3; visibility: visible; image-rendering: optimizeSpeed; }
        .Page { fill: white; stroke: none; opacity: 0.5; visibility: visible; }
        .linkSBSC { fill: blue; stroke: none; opacity: 0.5; visibility: visible; }
        polygon:hover { stroke:red;stroke-width:2; } 
    </style>
    <svg contentScriptType="text/ecmascript" zoomAndPan="magnify" contentStyleType="text/css" class="Panel"
         preserveAspectRatio="xMidYMid meet" version="1.0">
        <polygon points="83,286 771,286 771,998 83,998 83,286" id="MIDAM_GAMEOVER_T05_004_panel_0">
            <metadata viewAngle="" shot="" rank="1"/>
        </polygon>
        <polygon points="803,276 2319,276 2319,986 803,986 803,276" id="MIDAM_GAMEOVER_T05_004_panel_1">
            <metadata viewAngle="" shot="" rank="2"/>
        </polygon>
        <polygon points="85,1045 816,1045 816,1752 85,1752 85,1045" id="MIDAM_GAMEOVER_T05_004_panel_2">
            <metadata viewAngle="" shot="" rank="3"/>
        </polygon>
        <polygon points="854,1032 1598,1032 1598,1747 854,1747 854,1032" id="MIDAM_GAMEOVER_T05_004_panel_3">
            <metadata viewAngle="" shot="" rank="4"/>
        </polygon>
        <polygon points="1633,1029 2327,1029 2327,1733 1633,1733 1633,1029" id="MIDAM_GAMEOVER_T05_004_panel_4">
            <metadata viewAngle="" shot="" rank="5"/>
        </polygon>
        <polygon points="93,1795 1193,1795 1193,2496 93,2496 93,1795" id="MIDAM_GAMEOVER_T05_004_panel_5">
            <metadata viewAngle="" shot="" rank="6"/>
        </polygon>
        <polygon points="1230,1781 2337,1781 2337,2488 1230,2488 1230,1781" id="MIDAM_GAMEOVER_T05_004_panel_6">
            <metadata viewAngle="" shot="" rank="7"/>
        </polygon>
        <polygon points="104,2547 1401,2547 1401,3254 104,3254 104,2547" id="MIDAM_GAMEOVER_T05_004_panel_7">
            <metadata viewAngle="" shot="" rank="8"/>
        </polygon>
        <polygon points="1438,2536 2345,2536 2345,3249 1438,3249 1438,2536" id="MIDAM_GAMEOVER_T05_004_panel_8">
            <metadata viewAngle="" shot="" rank="9"/>
        </polygon>
    </svg>
    <svg contentScriptType="text/ecmascript" zoomAndPan="magnify" contentStyleType="text/css" class="TextArea"
         preserveAspectRatio="xMidYMid meet" version="1.0"/>
    <svg contentScriptType="text/ecmascript" zoomAndPan="magnify" contentStyleType="text/css" class="Balloon"
         preserveAspectRatio="xMidYMid meet" version="1.0">
        <polygon
                points="300,400 360,356 456,334 595,331 647,333 679,341 721,370 749,408 752,432 732,465 697,491 657,513 622,519 625,527 643,542 636,552 613,574 610,586 611,592 641,591 672,589 682,603 671,622 657,634 657,643 672,640 682,618 701,608 719,603 741,598 764,597 778,598 778,616 731,615 701,622 688,641 674,652 655,661 638,647 638,633 644,622 657,615 657,606 634,605 601,609 594,601 590,584 598,570 609,558 618,546 605,541 595,525 492,528 452,529 392,522 336,508 304,466 294,432 300,400"
                id="MIDAM_GAMEOVER_T05_004_balloon_0">
            <metadata borderStyle="smooth" tailTip="778,598" boundingBox="" tailDirection="E" rank="1"/>
        </polygon>
        <polygon
                points="1367,367 1417,339 1460,322 1517,313 1573,309 1615,310 1672,318 1702,331 1726,349 1737,363 1743,390 1733,419 1718,444 1697,469 1704,481 1712,497 1708,507 1699,518 1695,525 1707,526 1728,521 1738,500 1746,483 1754,472 1770,469 1785,469 1795,476 1797,487 1795,501 1790,510 1798,507 1815,502 1825,505 1831,512 1845,520 1841,527 1827,524 1824,518 1809,520 1790,531 1779,526 1775,515 1778,503 1785,491 1783,485 1769,484 1760,490 1750,506 1741,525 1729,534 1701,542 1684,541 1676,523 1681,510 1693,499 1676,483 1664,486 1612,498 1544,509 1488,510 1442,509 1404,503 1370,480 1354,455 1342,417 1349,385 1367,367"
                id="MIDAM_GAMEOVER_T05_004_balloon_1">
            <metadata borderStyle="smooth" tailTip="1841,527" boundingBox="" tailDirection="E" rank="2"/>
        </polygon>
    </svg>
    <svg contentScriptType="text/ecmascript" zoomAndPan="magnify" contentStyleType="text/css" class="Character"
         preserveAspectRatio="xMidYMid meet" version="1.0">
        <polygon points="260,618 501,618 501,945 260,945 260,618" id="MIDAM_GAMEOVER_T05_004_character_0">
            <metadata uri="" area="" fillingPcent=""/>
        </polygon>
        <polygon points="1284,647 1555,647 1555,943 1284,943 1284,647" id="MIDAM_GAMEOVER_T05_004_character_1">
            <metadata uri="" area="" fillingPcent=""/>
        </polygon>
        <polygon points="1734,444 2078,444 2078,967 1734,967 1734,444" id="MIDAM_GAMEOVER_T05_004_character_2">
            <metadata uri="" area="" fillingPcent=""/>
        </polygon>
        <polygon points="197,1325 380,1325 380,1634 197,1634 197,1325" id="MIDAM_GAMEOVER_T05_004_character_3">
            <metadata uri="" area="" fillingPcent=""/>
        </polygon>
        <polygon points="445,1178 649,1178 649,1730 445,1730 445,1178" id="MIDAM_GAMEOVER_T05_004_character_4">
            <metadata uri="" area="" fillingPcent=""/>
        </polygon>
        <polygon points="998,1406 1179,1406 1179,1694 998,1694 998,1406" id="MIDAM_GAMEOVER_T05_004_character_5">
            <metadata uri="" area="" fillingPcent=""/>
        </polygon>
        <polygon points="1130,1151 1488,1151 1488,1690 1130,1690 1130,1151" id="MIDAM_GAMEOVER_T05_004_character_6">
            <metadata uri="" area="" fillingPcent=""/>
        </polygon>
        <polygon points="1743,1153 1960,1153 1960,1488 1743,1488 1743,1153" id="MIDAM_GAMEOVER_T05_004_character_7">
            <metadata uri="" area="" fillingPcent=""/>
        </polygon>
        <polygon points="1790,1148 2119,1148 2119,1703 1790,1703 1790,1148" id="MIDAM_GAMEOVER_T05_004_character_8">
            <metadata uri="" area="" fillingPcent=""/>
        </polygon>
        <polygon points="470,2090 754,2090 754,2334 470,2334 470,2090" id="MIDAM_GAMEOVER_T05_004_character_9">
            <metadata uri="" area="" fillingPcent=""/>
        </polygon>
        <polygon points="519,1909 868,1909 868,2477 519,2477 519,1909" id="MIDAM_GAMEOVER_T05_004_character_10">
            <metadata uri="" area="" fillingPcent=""/>
        </polygon>
        <polygon points="1501,2155 1826,2155 1826,2444 1501,2444 1501,2155" id="MIDAM_GAMEOVER_T05_004_character_11">
            <metadata uri="" area="" fillingPcent=""/>
        </polygon>
        <polygon points="1570,1913 1980,1913 1980,2466 1570,2466 1570,1913" id="MIDAM_GAMEOVER_T05_004_character_12">
            <metadata uri="" area="" fillingPcent=""/>
        </polygon>
    </svg>
    <svg contentScriptType="text/ecmascript" zoomAndPan="magnify" contentStyleType="text/css" class="Line"
         preserveAspectRatio="xMidYMid meet" version="1.0">
        <polygon points="337,1079 462,1079 462,1165 337,1165 337,1079" id="MIDAM_GAMEOVER_T05_004_line_0">
            <metadata method="" typography="" textType="onomatopoeia">TING</metadata>
        </polygon>
        <polygon points="389,1136 488,1136 488,1221 389,1221 389,1136" id="MIDAM_GAMEOVER_T05_004_line_1">
            <metadata method="" typography="" textType="onomatopoeia">TING</metadata>
        </polygon>
        <polygon points="1109,1286 1181,1286 1181,1333 1109,1333 1109,1286" id="MIDAM_GAMEOVER_T05_004_line_2">
            <metadata method="" typography="" textType="onomatopoeia">KRRR</metadata>
        </polygon>
        <polygon points="1095,1321 1180,1321 1180,1381 1095,1381 1095,1321" id="MIDAM_GAMEOVER_T05_004_line_3">
            <metadata method="" typography="" textType="onomatopoeia">KRRRR</metadata>
        </polygon>
        <polygon points="1747,1073 1907,1073 1907,1229 1747,1229 1747,1073" id="MIDAM_GAMEOVER_T05_004_line_4">
            <metadata method="" typography="" textType="onomatopoeia">GNNNiiiiiiiiii</metadata>
        </polygon>
        <polygon points="437,1959 506,1959 506,2122 437,2122 437,1959" id="MIDAM_GAMEOVER_T05_004_line_5">
            <metadata method="" typography="" textType="onomatopoeia">GRiiiii</metadata>
        </polygon>
        <polygon points="251,2661 431,2661 431,2987 251,2987 251,2661" id="MIDAM_GAMEOVER_T05_004_line_6">
            <metadata method="" typography="" textType="onomatopoeia">BOUF</metadata>
        </polygon>
        <polygon points="871,2715 961,2715 961,2751 871,2751 871,2715" id="MIDAM_GAMEOVER_T05_004_line_7">
            <metadata method="" typography="" textType="illustrative">JUST</metadata>
        </polygon>
        <polygon points="852,2756 974,2756 974,2801 852,2801 852,2756" id="MIDAM_GAMEOVER_T05_004_line_8">
            <metadata method="" typography="" textType="illustrative">MARRIED</metadata>
        </polygon>
        <polygon points="983,3055 1386,3055 1386,3222 983,3222 983,3055" id="MIDAM_GAMEOVER_T05_004_line_9">
            <metadata method="" typography="" textType="onomatopoeia">SPROTCH</metadata>
        </polygon>
        <polygon points="343,373 680,373 680,487 343,487 343,373" id="MIDAM_GAMEOVER_T05_004_line_10">
            <metadata method="" typography="" idBalloon="MIDAM_GAMEOVER_T05_004_balloon_0" textType="speech">
                Hiiiiiiii!!
            </metadata>
        </polygon>
        <polygon points="1390,356 1699,356 1699,470 1390,470 1390,356" id="MIDAM_GAMEOVER_T05_004_line_11">
            <metadata method="" typography="" idBalloon="MIDAM_GAMEOVER_T05_004_balloon_1" textType="speech">
                Hiiiiiiiii!!
            </metadata>
        </polygon>
        <polygon points="1444,3215 1759,3215 1759,3247 1444,3247 1444,3215" id="MIDAM_GAMEOVER_T05_004_line_12">
            <metadata method="" typography="" textType="note">MPOAM - ADAM - LEROUGE</metadata>
        </polygon>
        <polygon points="1216,3312 1236,3312 1236,3339 1216,3339 1216,3312" id="MIDAM_GAMEOVER_T05_004_line_13">
            <metadata method="" typography="" textType="note">4</metadata>
        </polygon>
        <polygon points="2062,1930 2185,1930 2185,1977 2062,1977 2062,1930" id="MIDAM_GAMEOVER_T05_004_line_14">
            <metadata method="" typography="" textType="onomatopoeia">KRRRR</metadata>
        </polygon>
        <polygon points="2243,3222 2310,3222 2310,3244 2243,3244 2243,3222" id="MIDAM_GAMEOVER_T05_004_line_15">
            <metadata method="" typography="" textType="speech">G193</metadata>
        </polygon>
    </svg>
    <svg contentScriptType="text/ecmascript" zoomAndPan="magnify" contentStyleType="text/css" class="linkSBSC"
         preserveAspectRatio="xMidYMid meet" version="1.0">
        <polygon points="1593,425 1594,425 1907,705 1906,705 1593,425" idCharacter="MIDAM_GAMEOVER_T05_004_character_2"
                 idBalloon="MIDAM_GAMEOVER_T05_004_balloon_1"/>
    </svg>
    <metadata method="GroundTruth" lastModificationDate="Thu Feb 13 20:57:58 CET 2014" lastStepModified="Balloon_Rank"/>
</svg>