<?xml version="1.0" encoding="UTF-8" standalone="no"?>
<svg xmlns="http://www.w3.org/2000/svg" xmlns:xlink="http://www.w3.org/1999/xlink" contentScriptType="text/ecmascript" width="311mm" zoomAndPan="magnify" contentStyleType="text/css" height="429mm" viewBox="0 0 510 571" preserveAspectRatio="xMidYMid meet" version="1.0">
    <title>MONTAIGNE_TUMOURRASMOINSBETE_T01_030</title>
    <svg contentScriptType="text/ecmascript" zoomAndPan="magnify" contentStyleType="text/css" class="Page" preserveAspectRatio="xMidYMid meet" version="1.0">
        <image x="0" y="0" width="510" xlink:href="../Pages/MONTAIGNE_TUMOURRASMOINSBETE_T01_030.jpg" xlink:type="simple" xlink:actuate="onLoad" height="571" preserveAspectRatio="xMidYMid meet" xlink:show="embed"/>
        <metadata collectionTitle="Tu mourras moins bête" editorName="Ankama" doublePage="false" website="http://tumourrasmoinsbete.blogspot.fr/2009/11/samedi-encore-de-la-tuerie.html" albumTitle="La science, c'est pas du cinéma !" drawerName="Marion Montaigne" language="french" resolution="" ISBN="978-2359102208" readingDirection="leftToRight" writerName="Marion Montaigne" releaseDate="2011" pageNumber="30"/>
    </svg>
	<style type="text/css" xml:space="preserve">
        * { stroke-width: 0; stroke-linejoin: round; }
        .Unclassified { fill: orange; stroke: none; opacity: 1.0; visibility: hidden; }
        .Noise { fill: pink; stroke: none; opacity: 0.2; visibility: hidden; }
        .Panel { fill: red; stroke: none; opacity: 0.3; visibility: visible; image-rendering: optimizeSpeed; }
        .Line { fill: green; stroke: none; opacity: 0.5; visibility: visible; image-rendering: optimizeSpeed; }
        .TextArea { fill: grey; stroke: none; opacity: 0.2; visibility: visible; image-rendering: optimizeSpeed; }
        .Balloon { fill: cyan; stroke: none; opacity: 0.5; visibility: visible; image-rendering: optimizeSpeed; }
        .Letter { fill: blue; stroke: none; opacity: 0.2; visibility: hidden; }
        .Character { fill: yellow; stroke: none; opacity: 0.3; visibility: visible; image-rendering: optimizeSpeed; }
        .Page { fill: white; stroke: none; opacity: 0.5; visibility: visible; }
        .linkSBSC { fill: blue; stroke: none; opacity: 0.5; visibility: visible; }
        polygon:hover { stroke:red;stroke-width:2; } 
    </style><svg contentScriptType="text/ecmascript" zoomAndPan="magnify" contentStyleType="text/css" class="Panel" preserveAspectRatio="xMidYMid meet" version="1.0">
        <polygon points="3,67 495,67 495,317 3,317 3,67" id="MONTAIGNE_TUMOURRASMOINSBETE_T01_030_panel_0">
            <metadata viewAngle="" uri="" shot="" area="" rank="1" fillingPcent=""/>
        </polygon>
    </svg>
    <svg contentScriptType="text/ecmascript" zoomAndPan="magnify" contentStyleType="text/css" class="TextArea" preserveAspectRatio="xMidYMid meet" version="1.0"/>
    <svg contentScriptType="text/ecmascript" zoomAndPan="magnify" contentStyleType="text/css" class="Balloon" preserveAspectRatio="xMidYMid meet" version="1.0">
        <polygon points="2,14 347,19 340,92 2,89 2,14" id="MONTAIGNE_TUMOURRASMOINSBETE_T01_030_balloon_0">
            <metadata borderStyle="other" tailTip="" boundingBox="" tailDirection="none" rank="1"/>
        </polygon>
        <polygon points="402,82 499,80 500,117 406,118 402,82" id="MONTAIGNE_TUMOURRASMOINSBETE_T01_030_balloon_1">
            <metadata borderStyle="smooth" tailTip="" boundingBox="" tailDirection="none" rank="2"/>
        </polygon>
    </svg>
    <svg contentScriptType="text/ecmascript" zoomAndPan="magnify" contentStyleType="text/css" class="Character" preserveAspectRatio="xMidYMid meet" version="1.0">
        <polygon points="68,106 227,106 227,307 68,307 68,106" id="MONTAIGNE_TUMOURRASMOINSBETE_T01_030_character_0">
            <metadata uri="" area="" fillingPcent=""/>
        </polygon>
        <polygon points="420,133 496,133 496,221 420,221 420,133" id="MONTAIGNE_TUMOURRASMOINSBETE_T01_030_character_1">
            <metadata uri="" area="" fillingPcent=""/>
        </polygon>
    </svg>
    <svg contentScriptType="text/ecmascript" zoomAndPan="magnify" contentStyleType="text/css" class="Line" preserveAspectRatio="xMidYMid meet" version="1.0">
        <polygon points="12,23 336,23 336,40 12,40 12,23" id="MONTAIGNE_TUMOURRASMOINSBETE_T01_030_line_0">
            <metadata typography="" uri="" method="" area="" fillingPcent="" rank="" idBalloon="MONTAIGNE_TUMOURRASMOINSBETE_T01_030_balloon_0" textType="narrative">SUPER MAIS COMMENT TU VAS FAIRE</metadata>
        </polygon>
        <polygon points="10,42 324,42 324,66 10,66 10,42" id="MONTAIGNE_TUMOURRASMOINSBETE_T01_030_line_1">
            <metadata typography="" uri="" method="" area="" fillingPcent="" rank="" idBalloon="MONTAIGNE_TUMOURRASMOINSBETE_T01_030_balloon_0" textType="narrative">AVEC UN MAC 10 (BRULANT) DANS</metadata>
        </polygon>
        <polygon points="8,72 150,72 150,90 8,90 8,72" id="MONTAIGNE_TUMOURRASMOINSBETE_T01_030_line_2">
            <metadata typography="" uri="" method="" area="" fillingPcent="" rank="" idBalloon="MONTAIGNE_TUMOURRASMOINSBETE_T01_030_balloon_0" textType="narrative">CHAQUE MAIN ?</metadata>
        </polygon>
        <polygon points="361,20 450,20 450,50 361,50 361,20" id="MONTAIGNE_TUMOURRASMOINSBETE_T01_030_line_3">
            <metadata typography="" uri="" method="" area="" fillingPcent="" rank="" textType="onomatopoeia">TTRP</metadata>
        </polygon>
        <polygon points="293,54 389,54 389,90 293,90 293,54" id="MONTAIGNE_TUMOURRASMOINSBETE_T01_030_line_4">
            <metadata typography="" uri="" method="" area="" fillingPcent="" rank="" idBalloon="MONTAIGNE_TUMOURRASMOINSBETE_T01_030_balloon_0" textType="onomatopoeia">TTTTR!</metadata>
        </polygon>
        <polygon points="74,134 120,134 120,159 74,159 74,134" id="MONTAIGNE_TUMOURRASMOINSBETE_T01_030_line_5">
            <metadata typography="" uri="" method="" area="" fillingPcent="" rank="" textType="onomatopoeia">CLIC.</metadata>
        </polygon>
        <polygon points="265,107 355,107 355,132 265,132 265,107" id="MONTAIGNE_TUMOURRASMOINSBETE_T01_030_line_6">
            <metadata typography="" uri="" method="" area="" fillingPcent="" rank="" textType="onomatopoeia">TTTRR!</metadata>
        </polygon>
        <polygon points="404,83 478,83 478,105 404,105 404,83" id="MONTAIGNE_TUMOURRASMOINSBETE_T01_030_line_7">
            <metadata typography="" uri="" method="" area="" fillingPcent="" rank="" idBalloon="MONTAIGNE_TUMOURRASMOINSBETE_T01_030_balloon_1" textType="speech">FUCKING</metadata>
        </polygon>
        <polygon points="426,98 497,98 497,116 426,116 426,98" id="MONTAIGNE_TUMOURRASMOINSBETE_T01_030_line_8">
            <metadata typography="" uri="" method="" area="" fillingPcent="" rank="" idBalloon="MONTAIGNE_TUMOURRASMOINSBETE_T01_030_balloon_1" textType="speech">BASTARD!</metadata>
        </polygon>
        <polygon points="396,182 418,182 418,204 396,204 396,182" id="MONTAIGNE_TUMOURRASMOINSBETE_T01_030_line_9">
            <metadata typography="" uri="" method="" area="" fillingPcent="" rank="" textType="onomatopoeia">PA</metadata>
        </polygon>
        <polygon points="373,205 407,205 407,233 373,233 373,205" id="MONTAIGNE_TUMOURRASMOINSBETE_T01_030_line_10">
            <metadata typography="" uri="" method="" area="" fillingPcent="" rank="" textType="onomatopoeia">PA !</metadata>
        </polygon>
        <polygon points="33,383 424,383 424,409 33,409 33,383" id="MONTAIGNE_TUMOURRASMOINSBETE_T01_030_line_11">
            <metadata typography="" uri="" method="" area="" fillingPcent="" rank="" textType="narrative">DEUX MAC 10! VOUS SAVEZ COMBIEN</metadata>
        </polygon>
        <polygon points="41,415 439,415 439,448 41,448 41,415" id="MONTAIGNE_TUMOURRASMOINSBETE_T01_030_line_12">
            <metadata typography="" uri="" method="" area="" fillingPcent="" rank="" textType="narrative">PESE UN MAC 10 CHARGE ? 3,4 KG!</metadata>
        </polygon>
        <polygon points="37,450 452,450 452,478 37,478 37,450" id="MONTAIGNE_TUMOURRASMOINSBETE_T01_030_line_13">
            <metadata typography="" uri="" method="" area="" fillingPcent="" rank="" textType="narrative">3.97 Kg AVEC UN SILENCIEUX ! C'EST</metadata>
        </polygon>
        <polygon points="37,467 401,467 401,498 37,498 37,467" id="MONTAIGNE_TUMOURRASMOINSBETE_T01_030_line_14">
            <metadata typography="" uri="" method="" area="" fillingPcent="" rank="" textType="narrative">LE POIDS D'UN NOUVEAU NE ! C'EST</metadata>
        </polygon>
        <polygon points="35,496 413,496 413,525 35,525 35,496" id="MONTAIGNE_TUMOURRASMOINSBETE_T01_030_line_15">
            <metadata typography="" uri="" method="" area="" fillingPcent="" rank="" textType="narrative">COMME SI VOUS TIRIEZ AVEC UN</metadata>
        </polygon>
        <polygon points="38,529 435,529 435,555 38,555 38,529" id="MONTAIGNE_TUMOURRASMOINSBETE_T01_030_line_16">
            <metadata typography="" uri="" method="" area="" fillingPcent="" rank="" textType="speech">BEBE AU BOUT DE CHAQUE BRAS !</metadata>
        </polygon>
    </svg>
    <svg contentScriptType="text/ecmascript" zoomAndPan="magnify" contentStyleType="text/css" class="linkSBSC" preserveAspectRatio="xMidYMid meet" version="1.0">
    <polygon points="451,99 452,99 459,177 458,177 451,99" idCharacter="MONTAIGNE_TUMOURRASMOINSBETE_T01_030_character_1" idBalloon="MONTAIGNE_TUMOURRASMOINSBETE_T01_030_balloon_1"/>
    <polygon points="174,53 175,53 148,206 147,206 174,53" idCharacter="MONTAIGNE_TUMOURRASMOINSBETE_T01_030_character_0" idBalloon="MONTAIGNE_TUMOURRASMOINSBETE_T01_030_balloon_0"/>
  </svg>
<metadata method="GroundTruth" lastModificationDate="Mon Feb 03 18:52:16 CET 2014" lastStepModified="Balloon_Rank"/>
</svg>