<?xml version="1.0" encoding="UTF-8" standalone="no"?>
<svg xmlns="http://www.w3.org/2000/svg" xmlns:xlink="http://www.w3.org/1999/xlink" contentScriptType="text/ecmascript" width="311mm" zoomAndPan="magnify" contentStyleType="text/css" height="429mm" viewBox="0 0 509 772" preserveAspectRatio="xMidYMid meet" version="1.0">
    <title>MONTAIGNE_TUMOURRASMOINSBETE_T01_123</title>
    <svg contentScriptType="text/ecmascript" zoomAndPan="magnify" contentStyleType="text/css" class="Page" preserveAspectRatio="xMidYMid meet" version="1.0">
        <image x="0" y="0" width="509" xlink:href="../Pages/MONTAIGNE_TUMOURRASMOINSBETE_T01_123.jpg" xlink:type="simple" xlink:actuate="onLoad" height="772" preserveAspectRatio="xMidYMid meet" xlink:show="embed"/>
        <metadata collectionTitle="Tu mourras moins bête" editorName="Ankama" doublePage="false" website="http://tumourrasmoinsbete.blogspot.fr/2010/09/avant-de-vous-passer-des-liens-vers-des.html" albumTitle="La science, c'est pas du cinéma !" drawerName="Marion Montaigne" language="french" resolution="" ISBN="978-2359102208" readingDirection="leftToRight" writerName="Marion Montaigne" releaseDate="2011" pageNumber="123"/>
    </svg>
	<style type="text/css" xml:space="preserve">
        * { stroke-width: 0; stroke-linejoin: round; }
        .Unclassified { fill: orange; stroke: none; opacity: 1.0; visibility: hidden; }
        .Noise { fill: pink; stroke: none; opacity: 0.2; visibility: hidden; }
        .Panel { fill: red; stroke: none; opacity: 0.3; visibility: visible; image-rendering: optimizeSpeed; }
        .Line { fill: green; stroke: none; opacity: 0.5; visibility: visible; image-rendering: optimizeSpeed; }
        .TextArea { fill: grey; stroke: none; opacity: 0.2; visibility: visible; image-rendering: optimizeSpeed; }
        .Balloon { fill: cyan; stroke: none; opacity: 0.5; visibility: visible; image-rendering: optimizeSpeed; }
        .Letter { fill: blue; stroke: none; opacity: 0.2; visibility: hidden; }
        .Character { fill: yellow; stroke: none; opacity: 0.3; visibility: visible; image-rendering: optimizeSpeed; }
        .Page { fill: white; stroke: none; opacity: 0.5; visibility: visible; }
        .linkSBSC { fill: blue; stroke: none; opacity: 0.5; visibility: visible; }
        polygon:hover { stroke:red;stroke-width:2; } 
    </style><svg contentScriptType="text/ecmascript" zoomAndPan="magnify" contentStyleType="text/css" class="Panel" preserveAspectRatio="xMidYMid meet" version="1.0">
        <polygon points="36,0 456,0 456,305 36,305 36,0" id="MONTAIGNE_TUMOURRASMOINSBETE_T01_123_panel_0">
            <metadata viewAngle="" uri="" shot="" area="" rank="1" fillingPcent=""/>
        </polygon>
        <polygon points="24,414 479,414 479,714 24,714 24,414" id="MONTAIGNE_TUMOURRASMOINSBETE_T01_123_panel_1">
            <metadata viewAngle="" uri="" shot="" area="" rank="2" fillingPcent=""/>
        </polygon>
    </svg>
    <svg contentScriptType="text/ecmascript" zoomAndPan="magnify" contentStyleType="text/css" class="TextArea" preserveAspectRatio="xMidYMid meet" version="1.0"/>
    <svg contentScriptType="text/ecmascript" zoomAndPan="magnify" contentStyleType="text/css" class="Balloon" preserveAspectRatio="xMidYMid meet" version="1.0">
        <polygon points="129,34 140,40 148,39 154,45 168,41 171,44 176,43 183,44 190,43 195,47 200,48 208,55 211,65 210,77 203,86 203,90 196,99 188,100 182,102 173,100 167,103 161,101 154,103 151,122 147,114 142,111 144,106 139,99 136,101 125,99 112,88 110,79 112,70 109,67 107,49 111,42 129,34" id="MONTAIGNE_TUMOURRASMOINSBETE_T01_123_balloon_0">
            <metadata borderStyle="wavy" tailTip="151,122" boundingBox="" tailDirection="S" rank="1"/>
        </polygon>
        <polygon points="334,65 321,55 326,45 341,39 358,39 370,43 380,46 385,52 387,60 383,69 374,70 358,69 347,67 338,67 337,69 338,70 338,76 333,77 333,73 335,72 331,70 334,65" id="MONTAIGNE_TUMOURRASMOINSBETE_T01_123_balloon_1">
            <metadata borderStyle="other" tailTip="333,77" boundingBox="" tailDirection="SW" rank="2"/>
        </polygon>
        <polygon points="357,159 350,156 352,143 361,137 386,138 432,137 433,142 431,151 404,156 368,160 363,160 359,167 359,170 354,177 354,171 358,161 357,159" id="MONTAIGNE_TUMOURRASMOINSBETE_T01_123_balloon_2">
            <metadata borderStyle="other" tailTip="354,177" boundingBox="" tailDirection="SW" rank="3"/>
        </polygon>
        <polygon points="424,256 453,256 456,263 454,270 438,280 412,283 402,281 387,270 388,259 395,257 413,256 415,253 410,251 411,245 414,243 416,246 414,248 418,249 424,256" id="MONTAIGNE_TUMOURRASMOINSBETE_T01_123_balloon_3">
            <metadata borderStyle="other" tailTip="414,243" boundingBox="" tailDirection="N" rank="4"/>
        </polygon>
        <polygon points="52,331 443,339 443,416 49,413 52,331" id="MONTAIGNE_TUMOURRASMOINSBETE_T01_123_balloon_4">
            <metadata borderStyle="other" tailTip="" boundingBox="" tailDirection="none" rank="5"/>
        </polygon>
        <polygon points="170,486 147,466 141,445 158,434 213,434 252,429 267,440 254,461 225,482 188,490 181,498 182,508 174,510 174,516 167,517 169,508 173,504 171,495 175,494 175,490 170,486" id="MONTAIGNE_TUMOURRASMOINSBETE_T01_123_balloon_5">
            <metadata borderStyle="other" tailTip="174,516" boundingBox="" tailDirection="SE" rank="6"/>
        </polygon>
    </svg>
    <svg contentScriptType="text/ecmascript" zoomAndPan="magnify" contentStyleType="text/css" class="Character" preserveAspectRatio="xMidYMid meet" version="1.0">
        <polygon points="54,80 127,80 127,182 54,182 54,80" id="MONTAIGNE_TUMOURRASMOINSBETE_T01_123_character_0">
            <metadata uri="" area="" fillingPcent=""/>
        </polygon>
        <polygon points="143,118 197,118 197,190 143,190 143,118" id="MONTAIGNE_TUMOURRASMOINSBETE_T01_123_character_1">
            <metadata uri="" area="" fillingPcent=""/>
        </polygon>
        <polygon points="308,75 356,75 356,138 308,138 308,75" id="MONTAIGNE_TUMOURRASMOINSBETE_T01_123_character_2">
            <metadata uri="" area="" fillingPcent=""/>
        </polygon>
        <polygon points="293,164 373,164 373,247 293,247 293,164" id="MONTAIGNE_TUMOURRASMOINSBETE_T01_123_character_3">
            <metadata uri="" area="" fillingPcent=""/>
        </polygon>
        <polygon points="386,162 450,162 450,249 386,249 386,162" id="MONTAIGNE_TUMOURRASMOINSBETE_T01_123_character_4">
            <metadata uri="" area="" fillingPcent=""/>
        </polygon>
        <polygon points="154,517 199,517 199,567 154,567 154,517" id="MONTAIGNE_TUMOURRASMOINSBETE_T01_123_character_5">
            <metadata uri="" area="" fillingPcent=""/>
        </polygon>
    </svg>
    <svg contentScriptType="text/ecmascript" zoomAndPan="magnify" contentStyleType="text/css" class="Line" preserveAspectRatio="xMidYMid meet" version="1.0">
        <polygon points="116,53 204,53 204,73 116,73 116,53" id="MONTAIGNE_TUMOURRASMOINSBETE_T01_123_line_0">
            <metadata typography="" uri="" method="" area="" fillingPcent="" rank="" idBalloon="MONTAIGNE_TUMOURRASMOINSBETE_T01_123_balloon_0" textType="speech">TA BRAGUETTE</metadata>
        </polygon>
        <polygon points="118,69 197,69 197,91 118,91 118,69" id="MONTAIGNE_TUMOURRASMOINSBETE_T01_123_line_1">
            <metadata typography="" uri="" method="" area="" fillingPcent="" rank="" idBalloon="MONTAIGNE_TUMOURRASMOINSBETE_T01_123_balloon_0" textType="speech">LA BACTERIE.</metadata>
        </polygon>
        <polygon points="322,37 368,37 368,58 322,58 322,37" id="MONTAIGNE_TUMOURRASMOINSBETE_T01_123_line_2">
            <metadata typography="" uri="" method="" area="" fillingPcent="" rank="" idBalloon="MONTAIGNE_TUMOURRASMOINSBETE_T01_123_balloon_1" textType="speech">Vilain</metadata>
        </polygon>
        <polygon points="344,51 385,51 385,69 344,69 344,51" id="MONTAIGNE_TUMOURRASMOINSBETE_T01_123_line_3">
            <metadata typography="" uri="" method="" area="" fillingPcent="" rank="" idBalloon="MONTAIGNE_TUMOURRASMOINSBETE_T01_123_balloon_1" textType="speech">VIRUS !</metadata>
        </polygon>
        <polygon points="356,135 432,135 432,152 356,152 356,135" id="MONTAIGNE_TUMOURRASMOINSBETE_T01_123_line_4">
            <metadata typography="" uri="" method="" area="" fillingPcent="" rank="" idBalloon="MONTAIGNE_TUMOURRASMOINSBETE_T01_123_balloon_2" textType="speech">CA VA JOHN ?</metadata>
        </polygon>
        <polygon points="387,258 455,258 455,270 387,270 387,258" id="MONTAIGNE_TUMOURRASMOINSBETE_T01_123_line_5">
            <metadata typography="" uri="" method="" area="" fillingPcent="" rank="" idBalloon="MONTAIGNE_TUMOURRASMOINSBETE_T01_123_balloon_3" textType="speech">BIEN ET TOI</metadata>
        </polygon>
        <polygon points="401,269 439,269 439,286 401,286 401,269" id="MONTAIGNE_TUMOURRASMOINSBETE_T01_123_line_6">
            <metadata typography="" uri="" method="" area="" fillingPcent="" rank="" idBalloon="MONTAIGNE_TUMOURRASMOINSBETE_T01_123_balloon_3" textType="speech">JOHN ?</metadata>
        </polygon>
        <polygon points="62,335 395,335 395,359 62,359 62,335" id="MONTAIGNE_TUMOURRASMOINSBETE_T01_123_line_7">
            <metadata typography="" uri="" method="" area="" fillingPcent="" rank="" idBalloon="MONTAIGNE_TUMOURRASMOINSBETE_T01_123_balloon_4" textType="narrative">ET LA SOUDAIN, PENDANT VOTRE</metadata>
        </polygon>
        <polygon points="58,359 436,359 436,385 58,385 58,359" id="MONTAIGNE_TUMOURRASMOINSBETE_T01_123_line_8">
            <metadata typography="" uri="" method="" area="" fillingPcent="" rank="" idBalloon="MONTAIGNE_TUMOURRASMOINSBETE_T01_123_balloon_4" textType="narrative">RONDE, VOUS TOMBEZ SUR LA GREFFE,</metadata>
        </polygon>
        <polygon points="51,378 408,378 408,398 51,398 51,378" id="MONTAIGNE_TUMOURRASMOINSBETE_T01_123_line_9">
            <metadata typography="" uri="" method="" area="" fillingPcent="" rank="" idBalloon="MONTAIGNE_TUMOURRASMOINSBETE_T01_123_balloon_4" textType="narrative">LE MONDE TOTALEMENT INCONNU !</metadata>
        </polygon>
        <polygon points="104,394 296,394 296,413 104,413 104,394" id="MONTAIGNE_TUMOURRASMOINSBETE_T01_123_line_10">
            <metadata typography="" uri="" method="" area="" fillingPcent="" rank="" idBalloon="MONTAIGNE_TUMOURRASMOINSBETE_T01_123_balloon_4" textType="narrative">C'EST LA PANIQUE !</metadata>
        </polygon>
        <polygon points="53,416 105,416 105,462 53,462 53,416" id="MONTAIGNE_TUMOURRASMOINSBETE_T01_123_line_11">
            <metadata typography="" uri="" method="" area="" fillingPcent="" rank="" textType="speech">AAAAH !</metadata>
        </polygon>
        <polygon points="144,436 266,436 266,463 144,463 144,436" id="MONTAIGNE_TUMOURRASMOINSBETE_T01_123_line_12">
            <metadata typography="" uri="" method="" area="" fillingPcent="" rank="" idBalloon="MONTAIGNE_TUMOURRASMOINSBETE_T01_123_balloon_5" textType="speech">AAH! QUI C'EST</metadata>
        </polygon>
        <polygon points="183,460 232,460 232,486 183,486 183,460" id="MONTAIGNE_TUMOURRASMOINSBETE_T01_123_line_13">
            <metadata typography="" uri="" method="" area="" fillingPcent="" rank="" idBalloon="MONTAIGNE_TUMOURRASMOINSBETE_T01_123_balloon_5" textType="speech">CA ?!</metadata>
        </polygon>
        <polygon points="338,452 437,452 437,471 338,471 338,452" id="MONTAIGNE_TUMOURRASMOINSBETE_T01_123_line_14">
            <metadata typography="" uri="" method="" area="" fillingPcent="" rank="" textType="narrative">CELLULES DE</metadata>
        </polygon>
        <polygon points="338,464 459,464 459,486 338,486 338,464" id="MONTAIGNE_TUMOURRASMOINSBETE_T01_123_line_15">
            <metadata typography="" uri="" method="" area="" fillingPcent="" rank="" textType="speech">LA GREFFE (CASTOR)</metadata>
        </polygon>
    </svg>
    <svg contentScriptType="text/ecmascript" zoomAndPan="magnify" contentStyleType="text/css" class="linkSBSC" preserveAspectRatio="xMidYMid meet" version="1.0">
    <polygon points="159,78 160,78 171,154 170,154 159,78" idCharacter="MONTAIGNE_TUMOURRASMOINSBETE_T01_123_character_1" idBalloon="MONTAIGNE_TUMOURRASMOINSBETE_T01_123_balloon_0"/>
    <polygon points="354,58 355,58 333,106 332,106 354,58" idCharacter="MONTAIGNE_TUMOURRASMOINSBETE_T01_123_character_2" idBalloon="MONTAIGNE_TUMOURRASMOINSBETE_T01_123_balloon_1"/>
    <polygon points="391,157 392,157 334,205 333,205 391,157" idCharacter="MONTAIGNE_TUMOURRASMOINSBETE_T01_123_character_3" idBalloon="MONTAIGNE_TUMOURRASMOINSBETE_T01_123_balloon_2"/>
    <polygon points="421,263 422,263 419,205 418,205 421,263" idCharacter="MONTAIGNE_TUMOURRASMOINSBETE_T01_123_character_4" idBalloon="MONTAIGNE_TUMOURRASMOINSBETE_T01_123_balloon_3"/>
    <polygon points="204,473 205,473 177,542 176,542 204,473" idCharacter="MONTAIGNE_TUMOURRASMOINSBETE_T01_123_character_5" idBalloon="MONTAIGNE_TUMOURRASMOINSBETE_T01_123_balloon_5"/>
  </svg>
<metadata method="GroundTruth" lastModificationDate="Sun Feb 09 12:23:05 CET 2014" lastStepModified="Balloon_Rank"/>
</svg>