<?xml version="1.0" encoding="UTF-8" standalone="no"?>
<svg xmlns="http://www.w3.org/2000/svg" xmlns:xlink="http://www.w3.org/1999/xlink" contentScriptType="text/ecmascript" width="311mm" zoomAndPan="magnify" contentStyleType="text/css" height="429mm" viewBox="0 0 509 671" preserveAspectRatio="xMidYMid meet" version="1.0">
    <title>MONTAIGNE_TUMOURRASMOINSBETE_T01_082</title>
    <svg contentScriptType="text/ecmascript" zoomAndPan="magnify" contentStyleType="text/css" class="Page" preserveAspectRatio="xMidYMid meet" version="1.0">
        <image x="0" y="0" width="509" xlink:href="../Pages/MONTAIGNE_TUMOURRASMOINSBETE_T01_082.jpg" xlink:type="simple" xlink:actuate="onLoad" height="671" preserveAspectRatio="xMidYMid meet" xlink:show="embed"/>
        <metadata collectionTitle="Tu mourras moins bête" editorName="Ankama" doublePage="false" website="http://tumourrasmoinsbete.blogspot.fr/2010/05/mardi-cest-branchies.html" albumTitle="La science, c'est pas du cinéma !" drawerName="Marion Montaigne" language="french" resolution="" ISBN="978-2359102208" readingDirection="leftToRight" writerName="Marion Montaigne" releaseDate="2011" pageNumber="82"/>
    </svg>
	<style type="text/css" xml:space="preserve">
        * { stroke-width: 0; stroke-linejoin: round; }
        .Unclassified { fill: orange; stroke: none; opacity: 1.0; visibility: hidden; }
        .Noise { fill: pink; stroke: none; opacity: 0.2; visibility: hidden; }
        .Panel { fill: red; stroke: none; opacity: 0.3; visibility: visible; image-rendering: optimizeSpeed; }
        .Line { fill: green; stroke: none; opacity: 0.5; visibility: visible; image-rendering: optimizeSpeed; }
        .TextArea { fill: grey; stroke: none; opacity: 0.2; visibility: visible; image-rendering: optimizeSpeed; }
        .Balloon { fill: cyan; stroke: none; opacity: 0.5; visibility: visible; image-rendering: optimizeSpeed; }
        .Letter { fill: blue; stroke: none; opacity: 0.2; visibility: hidden; }
        .Character { fill: yellow; stroke: none; opacity: 0.3; visibility: visible; image-rendering: optimizeSpeed; }
        .Page { fill: white; stroke: none; opacity: 0.5; visibility: visible; }
        .linkSBSC { fill: blue; stroke: none; opacity: 0.5; visibility: visible; }
        polygon:hover { stroke:red;stroke-width:2; } 
    </style><svg contentScriptType="text/ecmascript" zoomAndPan="magnify" contentStyleType="text/css" class="Panel" preserveAspectRatio="xMidYMid meet" version="1.0">
        <polygon points="15,150 454,150 454,316 15,316 15,150" id="MONTAIGNE_TUMOURRASMOINSBETE_T01_082_panel_0">
            <metadata viewAngle="" uri="" shot="" area="" rank="1" fillingPcent=""/>
        </polygon>
        <polygon points="75,483 324,483 324,658 75,658 75,483" id="MONTAIGNE_TUMOURRASMOINSBETE_T01_082_panel_1">
            <metadata viewAngle="" uri="" shot="" area="" rank="2" fillingPcent=""/>
        </polygon>
    </svg>
    <svg contentScriptType="text/ecmascript" zoomAndPan="magnify" contentStyleType="text/css" class="TextArea" preserveAspectRatio="xMidYMid meet" version="1.0"/>
    <svg contentScriptType="text/ecmascript" zoomAndPan="magnify" contentStyleType="text/css" class="Balloon" preserveAspectRatio="xMidYMid meet" version="1.0">
        <polygon points="72,152 72,127 78,125 308,122 328,139 326,161 267,171 184,177 169,177 135,174 122,174 100,171 95,177 84,181 88,175 87,174 80,170 73,160 72,152" id="MONTAIGNE_TUMOURRASMOINSBETE_T01_082_balloon_0">
            <metadata borderStyle="other" tailTip="84,181" boundingBox="" tailDirection="SW" rank="1"/>
        </polygon>
        <polygon points="103,293 119,289 131,288 155,291 166,283 165,290 165,299 165,314 163,322 152,338 139,345 121,350 100,349 87,342 81,332 82,315 86,304 97,294 103,293" id="MONTAIGNE_TUMOURRASMOINSBETE_T01_082_balloon_1">
            <metadata borderStyle="smooth" tailTip="166,283" boundingBox="" tailDirection="N" rank="2"/>
        </polygon>
        <polygon points="334,490 355,479 371,476 387,474 401,475 411,481 418,495 421,510 424,527 424,542 422,549 412,557 406,559 397,562 394,561 386,566 366,569 349,564 340,554 338,546 335,531 335,529 333,533 328,535 323,526 328,525 332,523 329,517 330,513 332,512 330,500 334,490" id="MONTAIGNE_TUMOURRASMOINSBETE_T01_082_balloon_2">
            <metadata borderStyle="smooth" tailTip="323,526" boundingBox="" tailDirection="W" rank="3"/>
        </polygon>
    </svg>
    <svg contentScriptType="text/ecmascript" zoomAndPan="magnify" contentStyleType="text/css" class="Character" preserveAspectRatio="xMidYMid meet" version="1.0">
        <polygon points="283,136 449,136 449,304 283,304 283,136" id="MONTAIGNE_TUMOURRASMOINSBETE_T01_082_character_0">
            <metadata uri="" area="" fillingPcent=""/>
        </polygon>
        <polygon points="118,175 233,175 233,282 118,282 118,175" id="MONTAIGNE_TUMOURRASMOINSBETE_T01_082_character_1">
            <metadata uri="" area="" fillingPcent=""/>
        </polygon>
        <polygon points="11,150 104,150 104,278 11,278 11,150" id="MONTAIGNE_TUMOURRASMOINSBETE_T01_082_character_2">
            <metadata uri="" area="" fillingPcent=""/>
        </polygon>
        <polygon points="49,541 155,541 155,681 49,681 49,541" id="MONTAIGNE_TUMOURRASMOINSBETE_T01_082_character_3">
            <metadata uri="" area="" fillingPcent=""/>
        </polygon>
        <polygon points="221,474 343,474 343,640 221,640 221,474" id="MONTAIGNE_TUMOURRASMOINSBETE_T01_082_character_4">
            <metadata uri="" area="" fillingPcent=""/>
        </polygon>
    </svg>
    <svg contentScriptType="text/ecmascript" zoomAndPan="magnify" contentStyleType="text/css" class="Line" preserveAspectRatio="xMidYMid meet" version="1.0">
        <polygon points="21,6 432,6 432,30 21,30 21,6" id="MONTAIGNE_TUMOURRASMOINSBETE_T01_082_line_0">
            <metadata typography="" uri="" method="" area="" fillingPcent="" rank="" textType="narrative">POUR PLONGER TRÈS PROFOND, LES MECS, ILS</metadata>
        </polygon>
        <polygon points="4,28 507,28 507,52 4,52 4,28" id="MONTAIGNE_TUMOURRASMOINSBETE_T01_082_line_1">
            <metadata typography="" uri="" method="" area="" fillingPcent="" rank="" textType="narrative">ONT UNE SORTE DE LIQUIDE AMIOTIQUE RESPIRABLE</metadata>
        </polygon>
        <polygon points="4,48 446,48 446,76 4,76 4,48" id="MONTAIGNE_TUMOURRASMOINSBETE_T01_082_line_2">
            <metadata typography="" uri="" method="" area="" fillingPcent="" rank="" textType="narrative">DANS LEUR SCAPHANDRE.. A UN MOMENT, ILS</metadata>
        </polygon>
        <polygon points="7,70 479,70 479,93 7,93 7,70" id="MONTAIGNE_TUMOURRASMOINSBETE_T01_082_line_3">
            <metadata typography="" uri="" method="" area="" fillingPcent="" rank="" textType="narrative">S'AMUSENT A PLONGER UN RAT DANS LE LIQUIDE EN</metadata>
        </polygon>
        <polygon points="3,97 96,97 96,116 3,116 3,97" id="MONTAIGNE_TUMOURRASMOINSBETE_T01_082_line_4">
            <metadata typography="" uri="" method="" area="" fillingPcent="" rank="" textType="narrative">QUESTION.</metadata>
        </polygon>
        <polygon points="78,125 303,125 303,142 78,142 78,125" id="MONTAIGNE_TUMOURRASMOINSBETE_T01_082_line_5">
            <metadata typography="" uri="" method="" area="" fillingPcent="" rank="" idBalloon="MONTAIGNE_TUMOURRASMOINSBETE_T01_082_balloon_0" textType="speech">REMARQUEZ COMME ED HARRIS</metadata>
        </polygon>
        <polygon points="79,135 326,135 326,163 79,163 79,135" id="MONTAIGNE_TUMOURRASMOINSBETE_T01_082_line_6">
            <metadata typography="" uri="" method="" area="" fillingPcent="" rank="" idBalloon="MONTAIGNE_TUMOURRASMOINSBETE_T01_082_balloon_0" textType="speech">JOUE SUPER BIEN LE MEC EPATE !</metadata>
        </polygon>
        <polygon points="93,303 151,303 151,320 93,320 93,303" id="MONTAIGNE_TUMOURRASMOINSBETE_T01_082_line_7">
            <metadata typography="" uri="" method="" area="" fillingPcent="" rank="" idBalloon="MONTAIGNE_TUMOURRASMOINSBETE_T01_082_balloon_1" textType="speech">WHAT A</metadata>
        </polygon>
        <polygon points="93,319 142,319 142,342 93,342 93,319" id="MONTAIGNE_TUMOURRASMOINSBETE_T01_082_line_8">
            <metadata typography="" uri="" method="" area="" fillingPcent="" rank="" idBalloon="MONTAIGNE_TUMOURRASMOINSBETE_T01_082_balloon_1" textType="speech">FUCK!</metadata>
        </polygon>
        <polygon points="13,373 482,373 482,410 13,410 13,373" id="MONTAIGNE_TUMOURRASMOINSBETE_T01_082_line_9">
            <metadata typography="" uri="" method="" area="" fillingPcent="" rank="" textType="narrative">IL PEUT L'ETRE PARCE QUE CETTE SCENE EST VRAIE,</metadata>
        </polygon>
        <polygon points="13,405 500,405 500,430 13,430 13,405" id="MONTAIGNE_TUMOURRASMOINSBETE_T01_082_line_10">
            <metadata typography="" uri="" method="" area="" fillingPcent="" rank="" textType="narrative">C'EST UN VRAI RAT QUI RESPIRE DU VRAI LIQUIDE :</metadata>
        </polygon>
        <polygon points="8,433 237,433 237,456 8,456 8,433" id="MONTAIGNE_TUMOURRASMOINSBETE_T01_082_line_11">
            <metadata typography="" uri="" method="" area="" fillingPcent="" rank="" textType="narrative">DU PERFLUOROCARBONE.</metadata>
        </polygon>
        <polygon points="347,489 390,489 390,511 347,511 347,489" id="MONTAIGNE_TUMOURRASMOINSBETE_T01_082_line_12">
            <metadata typography="" uri="" method="" area="" fillingPcent="" rank="" idBalloon="MONTAIGNE_TUMOURRASMOINSBETE_T01_082_balloon_2" textType="speech">À TON</metadata>
        </polygon>
        <polygon points="348,510 386,510 386,528 348,528 348,510" id="MONTAIGNE_TUMOURRASMOINSBETE_T01_082_line_13">
            <metadata typography="" uri="" method="" area="" fillingPcent="" rank="" idBalloon="MONTAIGNE_TUMOURRASMOINSBETE_T01_082_balloon_2" textType="speech">TOUR</metadata>
        </polygon>
        <polygon points="353,522 410,522 410,548 353,548 353,522" id="MONTAIGNE_TUMOURRASMOINSBETE_T01_082_line_14">
            <metadata typography="" uri="" method="" area="" fillingPcent="" rank="" idBalloon="MONTAIGNE_TUMOURRASMOINSBETE_T01_082_balloon_2" textType="speech">BUDDY!</metadata>
        </polygon>
        <polygon points="158,536 189,536 189,561 158,561 158,536" id="MONTAIGNE_TUMOURRASMOINSBETE_T01_082_line_15">
            <metadata typography="" uri="" method="" area="" fillingPcent="" rank="" textType="onomatopoeia">Keuf</metadata>
        </polygon>
        <polygon points="157,558 181,558 181,583 157,583 157,558" id="MONTAIGNE_TUMOURRASMOINSBETE_T01_082_line_16">
            <metadata typography="" uri="" method="" area="" fillingPcent="" rank="" textType="speech">Keuf</metadata>
        </polygon>
    </svg>
    <svg contentScriptType="text/ecmascript" zoomAndPan="magnify" contentStyleType="text/css" class="linkSBSC" preserveAspectRatio="xMidYMid meet" version="1.0">
    <polygon points="200,151 201,151 58,214 57,214 200,151" idCharacter="MONTAIGNE_TUMOURRASMOINSBETE_T01_082_character_2" idBalloon="MONTAIGNE_TUMOURRASMOINSBETE_T01_082_balloon_0"/>
    <polygon points="123,316 124,316 176,228 175,228 123,316" idCharacter="MONTAIGNE_TUMOURRASMOINSBETE_T01_082_character_1" idBalloon="MONTAIGNE_TUMOURRASMOINSBETE_T01_082_balloon_1"/>
    <polygon points="373,521 374,521 283,557 282,557 373,521" idCharacter="MONTAIGNE_TUMOURRASMOINSBETE_T01_082_character_4" idBalloon="MONTAIGNE_TUMOURRASMOINSBETE_T01_082_balloon_2"/>
  </svg>
<metadata method="GroundTruth" lastModificationDate="Thu Feb 13 21:25:33 CET 2014" lastStepModified="Balloon_Rank"/>
</svg>