<?xml version="1.0" encoding="UTF-8" standalone="no"?>
<svg xmlns="http://www.w3.org/2000/svg" xmlns:xlink="http://www.w3.org/1999/xlink" contentScriptType="text/ecmascript" width="311mm" zoomAndPan="magnify" contentStyleType="text/css" height="429mm" viewBox="0 0 509 824" preserveAspectRatio="xMidYMid meet" version="1.0">
    <title>MONTAIGNE_TUMOURRASMOINSBETE_T01_084</title>
    <svg contentScriptType="text/ecmascript" zoomAndPan="magnify" contentStyleType="text/css" class="Page" preserveAspectRatio="xMidYMid meet" version="1.0">
        <image x="0" y="0" width="509" xlink:href="../Pages/MONTAIGNE_TUMOURRASMOINSBETE_T01_084.jpg" xlink:type="simple" xlink:actuate="onLoad" height="824" preserveAspectRatio="xMidYMid meet" xlink:show="embed"/>
        <metadata collectionTitle="Tu mourras moins bête" editorName="Ankama" doublePage="false" website="http://tumourrasmoinsbete.blogspot.fr/2010/05/mardi-cest-branchies.html" albumTitle="La science, c'est pas du cinéma !" drawerName="Marion Montaigne" language="french" resolution="" ISBN="978-2359102208" readingDirection="leftToRight" writerName="Marion Montaigne" releaseDate="2011" pageNumber="84"/>
    </svg>
	<style type="text/css" xml:space="preserve">
        * { stroke-width: 0; stroke-linejoin: round; }
        .Unclassified { fill: orange; stroke: none; opacity: 1.0; visibility: hidden; }
        .Noise { fill: pink; stroke: none; opacity: 0.2; visibility: hidden; }
        .Panel { fill: red; stroke: none; opacity: 0.3; visibility: visible; image-rendering: optimizeSpeed; }
        .Line { fill: green; stroke: none; opacity: 0.5; visibility: visible; image-rendering: optimizeSpeed; }
        .TextArea { fill: grey; stroke: none; opacity: 0.2; visibility: visible; image-rendering: optimizeSpeed; }
        .Balloon { fill: cyan; stroke: none; opacity: 0.5; visibility: visible; image-rendering: optimizeSpeed; }
        .Letter { fill: blue; stroke: none; opacity: 0.2; visibility: hidden; }
        .Character { fill: yellow; stroke: none; opacity: 0.3; visibility: visible; image-rendering: optimizeSpeed; }
        .Page { fill: white; stroke: none; opacity: 0.5; visibility: visible; }
        .linkSBSC { fill: blue; stroke: none; opacity: 0.5; visibility: visible; }
        polygon:hover { stroke:red;stroke-width:2; } 
    </style><svg contentScriptType="text/ecmascript" zoomAndPan="magnify" contentStyleType="text/css" class="Panel" preserveAspectRatio="xMidYMid meet" version="1.0">
        <polygon points="97,185 338,185 338,368 97,368 97,185" id="MONTAIGNE_TUMOURRASMOINSBETE_T01_084_panel_0">
            <metadata viewAngle="" uri="" shot="" area="" rank="1" fillingPcent=""/>
        </polygon>
        <polygon points="131,409 267,409 267,564 131,564 131,409" id="MONTAIGNE_TUMOURRASMOINSBETE_T01_084_panel_1">
            <metadata viewAngle="" uri="" shot="" area="" rank="2" fillingPcent=""/>
        </polygon>
        <polygon points="68,597 385,597 385,813 68,813 68,597" id="MONTAIGNE_TUMOURRASMOINSBETE_T01_084_panel_2">
            <metadata viewAngle="" uri="" shot="" area="" rank="3" fillingPcent=""/>
        </polygon>
    </svg>
    <svg contentScriptType="text/ecmascript" zoomAndPan="magnify" contentStyleType="text/css" class="TextArea" preserveAspectRatio="xMidYMid meet" version="1.0"/>
    <svg contentScriptType="text/ecmascript" zoomAndPan="magnify" contentStyleType="text/css" class="Balloon" preserveAspectRatio="xMidYMid meet" version="1.0">
        <polygon points="164,162 161,147 169,143 185,140 203,137 223,136 242,134 284,130 292,143 285,153 266,163 265,173 249,175 228,179 209,180 191,180 182,178 176,176 172,178 169,177 171,179 173,184 170,188 162,188 165,183 168,181 162,179 166,170 170,169 172,171 164,162" id="MONTAIGNE_TUMOURRASMOINSBETE_T01_084_balloon_0">
            <metadata borderStyle="other" tailTip="162,188" boundingBox="" tailDirection="SW" rank="1"/>
        </polygon>
        <polygon points="306,173 321,169 336,167 352,165 361,167 376,165 384,168 393,166 402,162 412,162 421,163 429,166 437,187 431,201 415,207 398,210 381,211 367,213 355,213 338,215 326,216 319,214 303,214 297,219 291,216 288,226 283,232 277,238 275,245 264,251 269,239 272,227 274,224 276,213 284,206 281,199 284,186 306,173" id="MONTAIGNE_TUMOURRASMOINSBETE_T01_084_balloon_1">
            <metadata borderStyle="smooth" tailTip="264,251" boundingBox="" tailDirection="SW" rank="2"/>
        </polygon>
        <polygon points="227,439 233,428 245,427 272,425 289,424 311,422 319,430 321,439 313,445 294,446 271,448 250,450 234,449 225,448 216,453 210,452 215,447 227,439" id="MONTAIGNE_TUMOURRASMOINSBETE_T01_084_balloon_2">
            <metadata borderStyle="other" tailTip="210,452" boundingBox="" tailDirection="W" rank="3"/>
        </polygon>
        <polygon points="102,633 70,626 60,612 55,592 59,580 80,578 104,580 141,581 166,578 170,593 165,602 153,608 143,613 140,619 133,622 122,625 114,627 112,630 114,636 116,642 121,643 113,645 106,642 102,633" id="MONTAIGNE_TUMOURRASMOINSBETE_T01_084_balloon_3">
            <metadata borderStyle="other" tailTip="121,643" boundingBox="" tailDirection="SE" rank="4"/>
        </polygon>
        <polygon points="225,628 224,617 228,613 234,610 246,609 252,609 256,616 257,621 249,625 243,630 241,633 237,637 240,639 240,645 235,647 238,651 235,653 231,649 231,643 234,642 232,640 231,637 232,632 225,628" id="MONTAIGNE_TUMOURRASMOINSBETE_T01_084_balloon_4">
            <metadata borderStyle="other" tailTip="238,651" boundingBox="" tailDirection="E" rank="5"/>
        </polygon>
        <polygon id="MONTAIGNE_TUMOURRASMOINSBETE_T01_084_balloon_5" points="293,679 295,671 303,669 318,670 330,670 342,672 351,678 362,689 362,699 358,704 355,705 348,707 336,707 325,708 316,707 309,706 303,706 294,705 289,700 289,691 287,690 279,686 286,685 290,684 293,681 293,679">
            <metadata borderStyle="other" tailTip="279,686" boundingBox="" tailDirection="W" rank="6"/>
        </polygon>
    </svg>
    <svg contentScriptType="text/ecmascript" zoomAndPan="magnify" contentStyleType="text/css" class="Character" preserveAspectRatio="xMidYMid meet" version="1.0">
        <polygon points="253,223 341,223 341,369 253,369 253,223" id="MONTAIGNE_TUMOURRASMOINSBETE_T01_084_character_0">
            <metadata uri="" area="" fillingPcent=""/>
        </polygon>
        <polygon points="158,224 262,224 262,355 158,355 158,224" id="MONTAIGNE_TUMOURRASMOINSBETE_T01_084_character_1">
            <metadata uri="" area="" fillingPcent=""/>
        </polygon>
        <polygon points="92,188 169,188 169,353 92,353 92,188" id="MONTAIGNE_TUMOURRASMOINSBETE_T01_084_character_2">
            <metadata uri="" area="" fillingPcent=""/>
        </polygon>
        <polygon points="161,488 282,488 282,585 161,585 161,488" id="MONTAIGNE_TUMOURRASMOINSBETE_T01_084_character_3">
            <metadata uri="" area="" fillingPcent=""/>
        </polygon>
        <polygon points="126,391 225,391 225,561 126,561 126,391" id="MONTAIGNE_TUMOURRASMOINSBETE_T01_084_character_4">
            <metadata uri="" area="" fillingPcent=""/>
        </polygon>
        <polygon points="317,592 389,592 389,797 317,797 317,592" id="MONTAIGNE_TUMOURRASMOINSBETE_T01_084_character_5">
            <metadata uri="" area="" fillingPcent=""/>
        </polygon>
        <polygon points="198,638 283,638 283,791 198,791 198,638" id="MONTAIGNE_TUMOURRASMOINSBETE_T01_084_character_6">
            <metadata uri="" area="" fillingPcent=""/>
        </polygon>
        <polygon points="112,622 190,622 190,784 112,784 112,622" id="MONTAIGNE_TUMOURRASMOINSBETE_T01_084_character_7">
            <metadata uri="" area="" fillingPcent=""/>
        </polygon>
    </svg>
    <svg contentScriptType="text/ecmascript" zoomAndPan="magnify" contentStyleType="text/css" class="Line" preserveAspectRatio="xMidYMid meet" version="1.0">
        <polygon points="11,9 495,9 495,35 11,35 11,9" id="MONTAIGNE_TUMOURRASMOINSBETE_T01_084_line_0">
            <metadata typography="" uri="" method="" area="" fillingPcent="" rank="" textType="narrative">BINGO ! RETOUR AU DUFFYNARIUM. AVANT TOUTE</metadata>
        </polygon>
        <polygon points="1,39 491,39 491,62 1,62 1,39" id="MONTAIGNE_TUMOURRASMOINSBETE_T01_084_line_1">
            <metadata typography="" uri="" method="" area="" fillingPcent="" rank="" textType="narrative">CHOSE, IL N'Y A PAS QUE LES POUMONS QU'IL FAUT</metadata>
        </polygon>
        <polygon points="5,59 471,59 471,89 5,89 5,59" id="MONTAIGNE_TUMOURRASMOINSBETE_T01_084_line_2">
            <metadata typography="" uri="" method="" area="" fillingPcent="" rank="" textType="narrative">REMPLIR DE LIQUIDE, IL Y A TOUS LES PETITS</metadata>
        </polygon>
        <polygon points="10,82 468,82 468,106 10,106 10,82" id="MONTAIGNE_TUMOURRASMOINSBETE_T01_084_line_3">
            <metadata typography="" uri="" method="" area="" fillingPcent="" rank="" textType="narrative">COINS OU SE TROUVE L'AIR... SURTOUT POUR UNE</metadata>
        </polygon>
        <polygon points="2,102 338,102 338,129 2,129 2,102" id="MONTAIGNE_TUMOURRASMOINSBETE_T01_084_line_4">
            <metadata typography="" uri="" method="" area="" fillingPcent="" rank="" textType="narrative">PLONGEE EN GRANDE PROFONDEUR...</metadata>
        </polygon>
        <polygon points="0,130 100,130 100,153 0,153 0,130" id="MONTAIGNE_TUMOURRASMOINSBETE_T01_084_line_5">
            <metadata typography="" uri="" method="" area="" fillingPcent="" rank="" textType="narrative">1_LES OREILLES</metadata>
        </polygon>
        <polygon points="161,135 290,135 290,163 161,163 161,135" id="MONTAIGNE_TUMOURRASMOINSBETE_T01_084_line_6">
            <metadata typography="" uri="" method="" area="" fillingPcent="" rank="" idBalloon="MONTAIGNE_TUMOURRASMOINSBETE_T01_084_balloon_0" textType="speech">TENEZ LE BIEN</metadata>
        </polygon>
        <polygon points="183,157 266,157 266,181 183,181 183,157" id="MONTAIGNE_TUMOURRASMOINSBETE_T01_084_line_7">
            <metadata typography="" uri="" method="" area="" fillingPcent="" rank="" idBalloon="MONTAIGNE_TUMOURRASMOINSBETE_T01_084_balloon_0" textType="speech">KYLSTRA</metadata>
        </polygon>
        <polygon points="293,175 422,175 422,204 293,204 293,175" id="MONTAIGNE_TUMOURRASMOINSBETE_T01_084_line_8">
            <metadata typography="" uri="" method="" area="" fillingPcent="" rank="" idBalloon="MONTAIGNE_TUMOURRASMOINSBETE_T01_084_balloon_1" textType="speech">MES CHEVEUX !</metadata>
        </polygon>
        <polygon points="23,402 53,402 53,426 23,426 23,402" id="MONTAIGNE_TUMOURRASMOINSBETE_T01_084_line_9">
            <metadata typography="" uri="" method="" area="" fillingPcent="" rank="" textType="note">2_</metadata>
        </polygon>
        <polygon points="227,424 320,424 320,451 227,451 227,424" id="MONTAIGNE_TUMOURRASMOINSBETE_T01_084_line_10">
            <metadata typography="" uri="" method="" area="" fillingPcent="" rank="" idBalloon="MONTAIGNE_TUMOURRASMOINSBETE_T01_084_balloon_2" textType="speech">LES SINUS.</metadata>
        </polygon>
        <polygon points="15,566 34,566 34,583 15,583 15,566" id="MONTAIGNE_TUMOURRASMOINSBETE_T01_084_line_11">
            <metadata typography="" uri="" method="" area="" fillingPcent="" rank="" textType="note">3_</metadata>
        </polygon>
        <polygon points="57,578 165,578 165,601 57,601 57,578" id="MONTAIGNE_TUMOURRASMOINSBETE_T01_084_line_12">
            <metadata typography="" uri="" method="" area="" fillingPcent="" rank="" idBalloon="MONTAIGNE_TUMOURRASMOINSBETE_T01_084_balloon_3" textType="speech">RETOURNE-TOI</metadata>
        </polygon>
        <polygon points="69,599 140,599 140,621 69,621 69,599" id="MONTAIGNE_TUMOURRASMOINSBETE_T01_084_line_13">
            <metadata typography="" uri="" method="" area="" fillingPcent="" rank="" idBalloon="MONTAIGNE_TUMOURRASMOINSBETE_T01_084_balloon_3" textType="speech">PATRICK !</metadata>
        </polygon>
        <polygon points="226,609 256,609 256,627 226,627 226,609" id="MONTAIGNE_TUMOURRASMOINSBETE_T01_084_line_14">
            <metadata typography="" uri="" method="" area="" fillingPcent="" rank="" idBalloon="MONTAIGNE_TUMOURRASMOINSBETE_T01_084_balloon_4" textType="speech">NON..</metadata>
        </polygon>
        <polygon points="296,672 336,672 336,688 296,688 296,672" id="MONTAIGNE_TUMOURRASMOINSBETE_T01_084_line_15">
            <metadata typography="" uri="" method="" area="" fillingPcent="" rank="" idBalloon="MONTAIGNE_TUMOURRASMOINSBETE_T01_084_balloon_5" textType="speech">PAS LE</metadata>
        </polygon>
        <polygon points="296,688 359,688 359,706 296,706 296,688" id="MONTAIGNE_TUMOURRASMOINSBETE_T01_084_line_16">
            <metadata typography="" uri="" method="" area="" fillingPcent="" rank="" idBalloon="MONTAIGNE_TUMOURRASMOINSBETE_T01_084_balloon_5" textType="speech">HUM-HUM!</metadata>
        </polygon>
    </svg>
    <svg contentScriptType="text/ecmascript" zoomAndPan="magnify" contentStyleType="text/css" class="linkSBSC" preserveAspectRatio="xMidYMid meet" version="1.0">
    <polygon points="226,159 227,159 131,270 130,270 226,159" idCharacter="MONTAIGNE_TUMOURRASMOINSBETE_T01_084_character_2" idBalloon="MONTAIGNE_TUMOURRASMOINSBETE_T01_084_balloon_0"/>
    <polygon points="350,206 351,206 211,289 210,289 350,206" idCharacter="MONTAIGNE_TUMOURRASMOINSBETE_T01_084_character_1" idBalloon="MONTAIGNE_TUMOURRASMOINSBETE_T01_084_balloon_1"/>
    <polygon points="265,437 266,437 176,476 175,476 265,437" idCharacter="MONTAIGNE_TUMOURRASMOINSBETE_T01_084_character_4" idBalloon="MONTAIGNE_TUMOURRASMOINSBETE_T01_084_balloon_2"/>
    <polygon points="112,611 113,611 152,703 151,703 112,611" idCharacter="MONTAIGNE_TUMOURRASMOINSBETE_T01_084_character_7" idBalloon="MONTAIGNE_TUMOURRASMOINSBETE_T01_084_balloon_3"/>
    <polygon points="240,631 241,631 241,714 240,714 240,631" idCharacter="MONTAIGNE_TUMOURRASMOINSBETE_T01_084_character_6" idBalloon="MONTAIGNE_TUMOURRASMOINSBETE_T01_084_balloon_4"/>
    <polygon points="320,688 321,688 241,714 240,714 320,688" idCharacter="MONTAIGNE_TUMOURRASMOINSBETE_T01_084_character_6" idBalloon="MONTAIGNE_TUMOURRASMOINSBETE_T01_084_balloon_5"/>
  </svg>
<metadata method="GroundTruth" lastModificationDate="Wed Jan 29 19:16:20 CET 2014" lastStepModified="Balloon_Rank"/>
</svg>