<?xml version="1.0" encoding="UTF-8" standalone="no"?>
<svg xmlns="http://www.w3.org/2000/svg" xmlns:xlink="http://www.w3.org/1999/xlink" contentScriptType="text/ecmascript" width="311mm" zoomAndPan="magnify" contentStyleType="text/css" height="429mm" viewBox="0 0 1480 2236" preserveAspectRatio="xMidYMid meet" version="1.0">
    <title>PIKE_BOYLOVEGIRLS_T41_012</title>
    <svg contentScriptType="text/ecmascript" zoomAndPan="magnify" contentStyleType="text/css" class="Page" preserveAspectRatio="xMidYMid meet" version="1.0">
        <image x="0" y="0" width="1480" xlink:href="../Pages/PIKE_BOYLOVEGIRLS_T41_012.jpg" xlink:type="simple" xlink:actuate="onLoad" height="2236" preserveAspectRatio="xMidYMid meet" xlink:show="embed"/>
        <metadata collectionTitle="Boy Love Girls" editorName="Lev Gleason" doublePage="false" website="http://comicbookplus.com/?dlid=31803" albumTitle="Boy Love Girls 41" drawerName="Jay Scott Pike" language="english" resolution="" ISBN="" readingDirection="leftToRight" writerName="Jay Scott Pike" releaseDate="" pageNumber="12"/>
    </svg>
	<style type="text/css" xml:space="preserve">
        * { stroke-width: 0; stroke-linejoin: round; }
        .Unclassified { fill: orange; stroke: none; opacity: 1.0; visibility: hidden; }
        .Noise { fill: pink; stroke: none; opacity: 0.2; visibility: hidden; }
        .Panel { fill: red; stroke: none; opacity: 0.3; visibility: visible; image-rendering: optimizeSpeed; }
        .Line { fill: green; stroke: none; opacity: 0.5; visibility: visible; image-rendering: optimizeSpeed; }
        .TextArea { fill: grey; stroke: none; opacity: 0.2; visibility: visible; image-rendering: optimizeSpeed; }
        .Balloon { fill: cyan; stroke: none; opacity: 0.5; visibility: visible; image-rendering: optimizeSpeed; }
        .Letter { fill: blue; stroke: none; opacity: 0.2; visibility: hidden; }
        .Character { fill: yellow; stroke: none; opacity: 0.3; visibility: visible; image-rendering: optimizeSpeed; }
        .Page { fill: white; stroke: none; opacity: 0.5; visibility: visible; }
        .linkSBSC { fill: blue; stroke: none; opacity: 0.5; visibility: visible; }
        polygon:hover { stroke:red;stroke-width:2; } 
    </style><svg contentScriptType="text/ecmascript" zoomAndPan="magnify" contentStyleType="text/css" class="Panel" preserveAspectRatio="xMidYMid meet" version="1.0">
        <polygon points="35,94 482,92 480,776 34,778 35,94" id="PIKE_BOYLOVEGIRLS_T41_012_panel_0">
            <metadata viewAngle="" uri="" shot="" area="" rank="1" fillingPcent=""/>
        </polygon>
        <polygon points="506,146 943,144 945,775 506,776 506,146" id="PIKE_BOYLOVEGIRLS_T41_012_panel_1">
            <metadata viewAngle="" uri="" shot="" area="" rank="2" fillingPcent=""/>
        </polygon>
        <polygon points="970,91 1416,89 1421,773 969,773 970,91" id="PIKE_BOYLOVEGIRLS_T41_012_panel_2">
            <metadata viewAngle="" uri="" shot="" area="" rank="3" fillingPcent=""/>
        </polygon>
        <polygon points="33,800 303,799 305,1471 33,1473 33,800" id="PIKE_BOYLOVEGIRLS_T41_012_panel_3">
            <metadata viewAngle="" uri="" shot="" area="" rank="4" fillingPcent=""/>
        </polygon>
        <polygon points="332,800 1421,795 1424,1462 333,1470 332,800" id="PIKE_BOYLOVEGIRLS_T41_012_panel_4">
            <metadata viewAngle="" uri="" shot="" area="" rank="5" fillingPcent=""/>
        </polygon>
        <polygon points="34,1526 811,1523 815,2177 31,2183 34,1526" id="PIKE_BOYLOVEGIRLS_T41_012_panel_5">
            <metadata viewAngle="" uri="" shot="" area="" rank="6" fillingPcent=""/>
        </polygon>
        <polygon points="836,1493 1426,1488 1431,2170 839,2180 836,1493" id="PIKE_BOYLOVEGIRLS_T41_012_panel_6">
            <metadata viewAngle="" uri="" shot="" area="" rank="7" fillingPcent=""/>
        </polygon>
    </svg>
    <svg contentScriptType="text/ecmascript" zoomAndPan="magnify" contentStyleType="text/css" class="TextArea" preserveAspectRatio="xMidYMid meet" version="1.0"/>
    <svg contentScriptType="text/ecmascript" zoomAndPan="magnify" contentStyleType="text/css" class="Balloon" preserveAspectRatio="xMidYMid meet" version="1.0">
        <polygon points="33,114 54,92 229,92 239,107 253,128 258,147 258,166 251,194 229,220 205,236 174,244 167,245 156,286 150,257 146,250 93,244 57,232 32,211 33,114" id="PIKE_BOYLOVEGIRLS_T41_012_balloon_0">
            <metadata borderStyle="smooth" tailTip="156,286" boundingBox="" tailDirection="S" rank="1"/>
        </polygon>
        <polygon points="245,115 272,90 470,92 486,105 484,222 461,241 396,260 346,261 321,260 316,274 317,285 305,275 302,259 273,245 255,233 241,211 245,115" id="PIKE_BOYLOVEGIRLS_T41_012_balloon_1">
            <metadata borderStyle="smooth" tailTip="317,285" boundingBox="" tailDirection="S" rank="2"/>
        </polygon>
        <polygon points="515,89 924,89 921,132 516,138 515,89" id="PIKE_BOYLOVEGIRLS_T41_012_balloon_2">
            <metadata borderStyle="other" tailTip="" boundingBox="" tailDirection="none" rank="3"/>
        </polygon>
        <polygon points="505,157 525,141 920,143 948,164 944,245 931,247 913,245 909,264 886,286 863,293 856,292 839,325 840,313 834,292 779,296 671,297 607,294 539,283 512,269 506,261 505,157" id="PIKE_BOYLOVEGIRLS_T41_012_balloon_3">
            <metadata borderStyle="smooth" tailTip="839,325" boundingBox="" tailDirection="S" rank="4"/>
        </polygon>
        <polygon points="971,89 1421,89 1420,206 969,207 971,89" id="PIKE_BOYLOVEGIRLS_T41_012_balloon_4">
            <metadata borderStyle="smooth" tailTip="" boundingBox="" tailDirection="none" rank="5"/>
        </polygon>
        <polygon points="995,244 1002,224 1017,207 1026,202 1329,201 1349,213 1365,231 1370,248 1369,274 1358,296 1339,312 1308,326 1291,330 1277,333 1277,347 1276,360 1282,378 1268,365 1255,343 1251,337 1179,338 1110,337 1055,325 1021,303 995,266 995,244" id="PIKE_BOYLOVEGIRLS_T41_012_balloon_5">
            <metadata borderStyle="smooth" tailTip="1282,378" boundingBox="" tailDirection="SE" rank="6"/>
        </polygon>
        <polygon points="37,847 294,855 291,1198 43,1195 37,847" id="PIKE_BOYLOVEGIRLS_T41_012_balloon_6">
            <metadata borderStyle="other" tailTip="" boundingBox="" tailDirection="none" rank="7"/>
        </polygon>
        <polygon points="697,821 714,793 874,794 888,803 896,818 897,837 888,863 868,879 841,887 818,891 789,891 775,889 735,936 746,902 751,883 718,874 699,849 697,821" id="PIKE_BOYLOVEGIRLS_T41_012_balloon_7">
            <metadata borderStyle="smooth" tailTip="735,936" boundingBox="" tailDirection="SW" rank="8"/>
        </polygon>
        <polygon points="920,849 926,819 938,804 948,794 1367,791 1377,798 1389,805 1392,815 1388,819 1400,818 1417,825 1424,833 1421,862 1404,878 1371,891 1299,896 1246,898 1193,897 1145,889 1135,902 1110,918 1070,926 1040,923 997,921 984,915 968,939 965,922 966,909 943,896 926,870 920,849" id="PIKE_BOYLOVEGIRLS_T41_012_balloon_8">
            <metadata borderStyle="smooth" tailTip="968,939" boundingBox="" tailDirection="S" rank="9"/>
        </polygon>
        <polygon points="1094,942 1095,921 1144,888 1377,888 1395,897 1403,907 1409,923 1405,945 1393,961 1370,974 1337,983 1313,987 1287,989 1292,1025 1297,1066 1302,1106 1289,1076 1275,1036 1267,1004 1263,987 1205,983 1147,977 1115,966 1097,951 1094,942" id="PIKE_BOYLOVEGIRLS_T41_012_balloon_9">
            <metadata borderStyle="smooth" tailTip="1302,1106" boundingBox="" tailDirection="SE" rank="10"/>
        </polygon>
        <polygon points="174,1492 656,1492 660,1519 178,1517 174,1492" id="PIKE_BOYLOVEGIRLS_T41_012_balloon_10">
            <metadata borderStyle="other" tailTip="" boundingBox="" tailDirection="none" rank="11"/>
        </polygon>
        <polygon points="29,1552 58,1526 310,1526 324,1541 335,1567 338,1587 335,1618 319,1645 299,1661 274,1676 244,1683 239,1716 222,1779 223,1758 215,1688 161,1687 103,1681 54,1666 31,1648 29,1552" id="PIKE_BOYLOVEGIRLS_T41_012_balloon_11">
            <metadata borderStyle="smooth" tailTip="222,1779" boundingBox="" tailDirection="S" rank="12"/>
        </polygon>
        <polygon points="319,1536 333,1524 815,1521 813,1597 772,1622 709,1631 639,1631 582,1629 552,1624 548,1646 518,1673 478,1683 462,1685 465,1742 479,1798 469,1785 451,1754 438,1711 432,1687 392,1681 350,1670 323,1654 316,1644 319,1536" id="PIKE_BOYLOVEGIRLS_T41_012_balloon_12">
            <metadata borderStyle="smooth" tailTip="479,1798" boundingBox="" tailDirection="S" rank="13"/>
        </polygon>
        <polygon points="495,1690 498,1681 549,1621 755,1625 767,1630 770,1636 772,1646 781,1646 795,1645 809,1651 814,1654 813,1708 787,1734 751,1746 709,1750 662,1752 622,1752 625,1779 630,1801 646,1827 620,1809 601,1773 593,1754 547,1744 505,1721 495,1690" id="PIKE_BOYLOVEGIRLS_T41_012_balloon_13">
            <metadata borderStyle="smooth" tailTip="646,1827" boundingBox="" tailDirection="SE" rank="14"/>
        </polygon>
        <polygon points="836,1656 834,1491 1085,1487 1107,1501 1125,1529 1132,1559 1126,1591 1112,1613 1096,1622 1085,1622 1091,1633 1080,1662 1048,1682 1003,1691 955,1692 919,1689 889,1721 855,1749 837,1757 837,1743 865,1717 882,1692 889,1682 854,1670 836,1656" id="PIKE_BOYLOVEGIRLS_T41_012_balloon_14">
            <metadata borderStyle="smooth" tailTip="837,1757" boundingBox="" tailDirection="SW" rank="15"/>
        </polygon>
        <polygon points="1121,1517 1132,1501 1154,1487 1350,1487 1371,1499 1386,1522 1390,1542 1381,1566 1359,1586 1341,1598 1307,1614 1275,1616 1245,1614 1239,1622 1225,1623 1216,1631 1188,1679 1192,1647 1190,1628 1158,1619 1135,1607 1121,1597 1121,1517" id="PIKE_BOYLOVEGIRLS_T41_012_balloon_15">
            <metadata borderStyle="smooth" tailTip="1188,1679" boundingBox="" tailDirection="S" rank="16"/>
        </polygon>
        <polygon points="1362,1592 1410,1605 1429,1618 1430,1691 1408,1707 1375,1713 1351,1715 1340,1717 1341,1734 1351,1757 1368,1782 1346,1768 1326,1744 1315,1718 1278,1712 1244,1683 1236,1650 1243,1624 1252,1615 1362,1592 1362,1592 1362,1592" id="PIKE_BOYLOVEGIRLS_T41_012_balloon_16">
            <metadata borderStyle="smooth" tailTip="1368,1782" boundingBox="" tailDirection="SW" rank="17"/>
        </polygon>
    </svg>
    <svg contentScriptType="text/ecmascript" zoomAndPan="magnify" contentStyleType="text/css" class="Character" preserveAspectRatio="xMidYMid meet" version="1.0">
        <polygon points="275,269 460,269 460,778 275,778 275,269" id="PIKE_BOYLOVEGIRLS_T41_012_character_0">
            <metadata uri="" area="" fillingPcent=""/>
        </polygon>
        <polygon points="27,284 193,284 193,782 27,782 27,284" id="PIKE_BOYLOVEGIRLS_T41_012_character_1">
            <metadata uri="" area="" fillingPcent=""/>
        </polygon>
        <polygon points="501,351 730,351 730,727 501,727 501,351" id="PIKE_BOYLOVEGIRLS_T41_012_character_2">
            <metadata uri="" area="" fillingPcent=""/>
        </polygon>
        <polygon points="646,316 873,316 873,609 646,609 646,316" id="PIKE_BOYLOVEGIRLS_T41_012_character_3">
            <metadata uri="" area="" fillingPcent=""/>
        </polygon>
        <polygon points="1027,355 1213,355 1213,532 1027,532 1027,355" id="PIKE_BOYLOVEGIRLS_T41_012_character_4">
            <metadata uri="" area="" fillingPcent=""/>
        </polygon>
        <polygon points="1247,391 1412,391 1412,543 1247,543 1247,391" id="PIKE_BOYLOVEGIRLS_T41_012_character_5">
            <metadata uri="" area="" fillingPcent=""/>
        </polygon>
        <polygon points="33,1217 260,1217 260,1469 33,1469 33,1217" id="PIKE_BOYLOVEGIRLS_T41_012_character_6">
            <metadata uri="" area="" fillingPcent=""/>
        </polygon>
        <polygon points="324,800 585,800 585,1475 324,1475 324,800" id="PIKE_BOYLOVEGIRLS_T41_012_character_7">
            <metadata uri="" area="" fillingPcent=""/>
        </polygon>
        <polygon points="484,924 726,924 726,1477 484,1477 484,924" id="PIKE_BOYLOVEGIRLS_T41_012_character_8">
            <metadata uri="" area="" fillingPcent=""/>
        </polygon>
        <polygon points="871,941 1155,941 1155,1473 871,1473 871,941" id="PIKE_BOYLOVEGIRLS_T41_012_character_9">
            <metadata uri="" area="" fillingPcent=""/>
        </polygon>
        <polygon points="1211,1148 1427,1148 1427,1469 1211,1469 1211,1148" id="PIKE_BOYLOVEGIRLS_T41_012_character_10">
            <metadata uri="" area="" fillingPcent=""/>
        </polygon>
        <polygon points="993,1685 1256,1685 1256,2178 993,2178 993,1685" id="PIKE_BOYLOVEGIRLS_T41_012_character_11">
            <metadata uri="" area="" fillingPcent=""/>
        </polygon>
        <polygon points="636,1744 817,1744 817,2183 636,2183 636,1744" id="PIKE_BOYLOVEGIRLS_T41_012_character_12">
            <metadata uri="" area="" fillingPcent=""/>
        </polygon>
        <polygon points="420,1834 634,1834 634,2180 420,2180 420,1834" id="PIKE_BOYLOVEGIRLS_T41_012_character_13">
            <metadata uri="" area="" fillingPcent=""/>
        </polygon>
        <polygon points="247,1834 478,1834 478,2181 247,2181 247,1834" id="PIKE_BOYLOVEGIRLS_T41_012_character_14">
            <metadata uri="" area="" fillingPcent=""/>
        </polygon>
        <polygon points="29,1794 277,1794 277,2187 29,2187 29,1794" id="PIKE_BOYLOVEGIRLS_T41_012_character_15">
            <metadata uri="" area="" fillingPcent=""/>
        </polygon>
    </svg>
    <svg contentScriptType="text/ecmascript" zoomAndPan="magnify" contentStyleType="text/css" class="Line" preserveAspectRatio="xMidYMid meet" version="1.0">
        <polygon points="71,108 222,108 222,130 71,130 71,108" id="PIKE_BOYLOVEGIRLS_T41_012_line_0">
            <metadata typography="" uri="" method="" area="" fillingPcent="" rank="" idBalloon="PIKE_BOYLOVEGIRLS_T41_012_balloon_0" textType="speech">CURT! OH...</metadata>
        </polygon>
        <polygon points="48,135 230,135 230,153 48,153 48,135" id="PIKE_BOYLOVEGIRLS_T41_012_line_1">
            <metadata typography="" uri="" method="" area="" fillingPcent="" rank="" idBalloon="PIKE_BOYLOVEGIRLS_T41_012_balloon_0" textType="speech">I FORGOT WE</metadata>
        </polygon>
        <polygon points="50,157 217,157 217,176 50,176 50,157" id="PIKE_BOYLOVEGIRLS_T41_012_line_2">
            <metadata typography="" uri="" method="" area="" fillingPcent="" rank="" idBalloon="PIKE_BOYLOVEGIRLS_T41_012_balloon_0" textType="speech">WERE GOING</metadata>
        </polygon>
        <polygon points="78,180 195,180 195,199 78,199 78,180" id="PIKE_BOYLOVEGIRLS_T41_012_line_3">
            <metadata typography="" uri="" method="" area="" fillingPcent="" rank="" idBalloon="PIKE_BOYLOVEGIRLS_T41_012_balloon_0" textType="speech">TO PLAY</metadata>
        </polygon>
        <polygon points="84,200 188,200 188,223 84,223 84,200" id="PIKE_BOYLOVEGIRLS_T41_012_line_4">
            <metadata typography="" uri="" method="" area="" fillingPcent="" rank="" idBalloon="PIKE_BOYLOVEGIRLS_T41_012_balloon_0" textType="speech">TENNIS!</metadata>
        </polygon>
        <polygon points="285,108 452,108 452,130 285,130 285,108" id="PIKE_BOYLOVEGIRLS_T41_012_line_5">
            <metadata typography="" uri="" method="" area="" fillingPcent="" rank="" idBalloon="PIKE_BOYLOVEGIRLS_T41_012_balloon_1" textType="speech">WELL... OKAY,</metadata>
        </polygon>
        <polygon points="288,130 436,130 436,153 288,153 288,130" id="PIKE_BOYLOVEGIRLS_T41_012_line_6">
            <metadata typography="" uri="" method="" area="" fillingPcent="" rank="" idBalloon="PIKE_BOYLOVEGIRLS_T41_012_balloon_1" textType="speech">HONEY! I'D</metadata>
        </polygon>
        <polygon points="271,155 460,155 460,176 271,176 271,155" id="PIKE_BOYLOVEGIRLS_T41_012_line_7">
            <metadata typography="" uri="" method="" area="" fillingPcent="" rank="" idBalloon="PIKE_BOYLOVEGIRLS_T41_012_balloon_1" textType="speech">JUST AS SOON</metadata>
        </polygon>
        <polygon points="294,178 433,178 433,197 294,197 294,178" id="PIKE_BOYLOVEGIRLS_T41_012_line_8">
            <metadata typography="" uri="" method="" area="" fillingPcent="" rank="" idBalloon="PIKE_BOYLOVEGIRLS_T41_012_balloon_1" textType="speech">GO FOR A</metadata>
        </polygon>
        <polygon points="322,202 408,202 408,223 322,223 322,202" id="PIKE_BOYLOVEGIRLS_T41_012_line_9">
            <metadata typography="" uri="" method="" area="" fillingPcent="" rank="" idBalloon="PIKE_BOYLOVEGIRLS_T41_012_balloon_1" textType="speech">DRIVE,</metadata>
        </polygon>
        <polygon points="309,220 427,220 427,244 309,244 309,220" id="PIKE_BOYLOVEGIRLS_T41_012_line_10">
            <metadata typography="" uri="" method="" area="" fillingPcent="" rank="" idBalloon="PIKE_BOYLOVEGIRLS_T41_012_balloon_1" textType="speech">ANYWAY!</metadata>
        </polygon>
        <polygon points="521,92 916,92 916,111 521,111 521,92" id="PIKE_BOYLOVEGIRLS_T41_012_line_11">
            <metadata typography="" uri="" method="" area="" fillingPcent="" rank="" idBalloon="PIKE_BOYLOVEGIRLS_T41_012_balloon_2" textType="narrative">I WAS IN A BAD MOOD, AND CURT SENSED IT</metadata>
        </polygon>
        <polygon points="522,115 676,115 676,132 522,132 522,115" id="PIKE_BOYLOVEGIRLS_T41_012_line_12">
            <metadata typography="" uri="" method="" area="" fillingPcent="" rank="" idBalloon="PIKE_BOYLOVEGIRLS_T41_012_balloon_2" textType="narrative">IMMEDIATELY...</metadata>
        </polygon>
        <polygon points="527,157 922,157 922,177 527,177 527,157" id="PIKE_BOYLOVEGIRLS_T41_012_line_13">
            <metadata typography="" uri="" method="" area="" fillingPcent="" rank="" idBalloon="PIKE_BOYLOVEGIRLS_T41_012_balloon_3" textType="speech">YOU'VE SEEMED SO UNHAPPY</metadata>
        </polygon>
        <polygon points="519,178 926,178 926,205 519,205 519,178" id="PIKE_BOYLOVEGIRLS_T41_012_line_14">
            <metadata typography="" uri="" method="" area="" fillingPcent="" rank="" idBalloon="PIKE_BOYLOVEGIRLS_T41_012_balloon_3" textType="speech">LATELY, CUNTHY! I WISH THERE</metadata>
        </polygon>
        <polygon points="526,204 924,204 924,225 526,225 526,204" id="PIKE_BOYLOVEGIRLS_T41_012_line_15">
            <metadata typography="" uri="" method="" area="" fillingPcent="" rank="" idBalloon="PIKE_BOYLOVEGIRLS_T41_012_balloon_3" textType="speech">WAS SOMETHING I COULD DO!</metadata>
        </polygon>
        <polygon points="538,226 889,226 889,248 538,248 538,226" id="PIKE_BOYLOVEGIRLS_T41_012_line_16">
            <metadata typography="" uri="" method="" area="" fillingPcent="" rank="" idBalloon="PIKE_BOYLOVEGIRLS_T41_012_balloon_3" textType="speech">I WISH YOU'D LET ME TRY</metadata>
        </polygon>
        <polygon points="559,249 879,249 879,270 559,270 559,249" id="PIKE_BOYLOVEGIRLS_T41_012_line_17">
            <metadata typography="" uri="" method="" area="" fillingPcent="" rank="" idBalloon="PIKE_BOYLOVEGIRLS_T41_012_balloon_3" textType="speech">AND MAKE YOU HAPPY!</metadata>
        </polygon>
        <polygon points="996,119 1394,119 1394,138 996,138 996,119" id="PIKE_BOYLOVEGIRLS_T41_012_line_18">
            <metadata typography="" uri="" method="" area="" fillingPcent="" rank="" idBalloon="PIKE_BOYLOVEGIRLS_T41_012_balloon_4" textType="narrative">I KNEW WHAT WAS COMING, BUT I DIDN'T WANT</metadata>
        </polygon>
        <polygon points="994,140 1392,140 1392,158 994,158 994,140" id="PIKE_BOYLOVEGIRLS_T41_012_line_19">
            <metadata typography="" uri="" method="" area="" fillingPcent="" rank="" idBalloon="PIKE_BOYLOVEGIRLS_T41_012_balloon_4" textType="narrative">TO GIVE HIM AN ANSWER... NOT THEN. I</metadata>
        </polygon>
        <polygon points="993,162 1257,162 1257,181 993,181 993,162" id="PIKE_BOYLOVEGIRLS_T41_012_line_20">
            <metadata typography="" uri="" method="" area="" fillingPcent="" rank="" idBalloon="PIKE_BOYLOVEGIRLS_T41_012_balloon_4" textType="narrative">TRIED TO CHANGE THE MOOD!</metadata>
        </polygon>
        <polygon points="1030,226 1318,226 1318,250 1030,250 1030,226" id="PIKE_BOYLOVEGIRLS_T41_012_line_21">
            <metadata typography="" uri="" method="" area="" fillingPcent="" rank="" idBalloon="PIKE_BOYLOVEGIRLS_T41_012_balloon_5" textType="speech">GOODNESS, CURT, YOU</metadata>
        </polygon>
        <polygon points="1027,249 1340,249 1340,271 1027,271 1027,249" id="PIKE_BOYLOVEGIRLS_T41_012_line_22">
            <metadata typography="" uri="" method="" area="" fillingPcent="" rank="" idBalloon="PIKE_BOYLOVEGIRLS_T41_012_balloon_5" textType="speech">WORRY ABOUT ME TOO</metadata>
        </polygon>
        <polygon points="1038,273 1337,273 1337,297 1038,297 1038,273" id="PIKE_BOYLOVEGIRLS_T41_012_line_23">
            <metadata typography="" uri="" method="" area="" fillingPcent="" rank="" idBalloon="PIKE_BOYLOVEGIRLS_T41_012_balloon_5" textType="speech">MUCH! C'MON, LET'S GO</metadata>
        </polygon>
        <polygon points="1095,294 1279,294 1279,318 1095,318 1095,294" id="PIKE_BOYLOVEGIRLS_T41_012_line_24">
            <metadata typography="" uri="" method="" area="" fillingPcent="" rank="" idBalloon="PIKE_BOYLOVEGIRLS_T41_012_balloon_5" textType="speech">FOR A SWIM!</metadata>
        </polygon>
        <polygon points="62,860 280,860 280,881 62,881 62,860" id="PIKE_BOYLOVEGIRLS_T41_012_line_25">
            <metadata typography="" uri="" method="" area="" fillingPcent="" rank="" idBalloon="PIKE_BOYLOVEGIRLS_T41_012_balloon_6" textType="narrative">I LIKED CURT BUT I</metadata>
        </polygon>
        <polygon points="62,890 280,890 280,913 62,913 62,890" id="PIKE_BOYLOVEGIRLS_T41_012_line_26">
            <metadata typography="" uri="" method="" area="" fillingPcent="" rank="" idBalloon="PIKE_BOYLOVEGIRLS_T41_012_balloon_6" textType="narrative">DIDN'T LOVE HIM, AND I</metadata>
        </polygon>
        <polygon points="63,921 278,921 278,938 63,938 63,921" id="PIKE_BOYLOVEGIRLS_T41_012_line_27">
            <metadata typography="" uri="" method="" area="" fillingPcent="" rank="" idBalloon="PIKE_BOYLOVEGIRLS_T41_012_balloon_6" textType="narrative">KNEW THAT MARRYING</metadata>
        </polygon>
        <polygon points="63,948 279,948 279,966 63,966 63,948" id="PIKE_BOYLOVEGIRLS_T41_012_line_28">
            <metadata typography="" uri="" method="" area="" fillingPcent="" rank="" idBalloon="PIKE_BOYLOVEGIRLS_T41_012_balloon_6" textType="narrative">HIM WOULD ONLY BE A</metadata>
        </polygon>
        <polygon points="62,977 281,977 281,995 62,995 62,977" id="PIKE_BOYLOVEGIRLS_T41_012_line_29">
            <metadata typography="" uri="" method="" area="" fillingPcent="" rank="" idBalloon="PIKE_BOYLOVEGIRLS_T41_012_balloon_6" textType="narrative">SURRENDER TO MY</metadata>
        </polygon>
        <polygon points="61,1006 279,1006 279,1025 61,1025 61,1006" id="PIKE_BOYLOVEGIRLS_T41_012_line_30">
            <metadata typography="" uri="" method="" area="" fillingPcent="" rank="" idBalloon="PIKE_BOYLOVEGIRLS_T41_012_balloon_6" textType="narrative">PARENTS. I HAD TO LICK</metadata>
        </polygon>
        <polygon points="61,1031 279,1031 279,1053 61,1053 61,1031" id="PIKE_BOYLOVEGIRLS_T41_012_line_31">
            <metadata typography="" uri="" method="" area="" fillingPcent="" rank="" idBalloon="PIKE_BOYLOVEGIRLS_T41_012_balloon_6" textType="narrative">THIS PROBLEM MYSELF</metadata>
        </polygon>
        <polygon points="59,1061 279,1061 279,1079 59,1079 59,1061" id="PIKE_BOYLOVEGIRLS_T41_012_line_32">
            <metadata typography="" uri="" method="" area="" fillingPcent="" rank="" idBalloon="PIKE_BOYLOVEGIRLS_T41_012_balloon_6" textType="narrative">... NOT GIVE IN TO IT!</metadata>
        </polygon>
        <polygon points="60,1089 281,1089 281,1110 60,1110 60,1089" id="PIKE_BOYLOVEGIRLS_T41_012_line_33">
            <metadata typography="" uri="" method="" area="" fillingPcent="" rank="" idBalloon="PIKE_BOYLOVEGIRLS_T41_012_balloon_6" textType="narrative">LATER THAT EVENING,</metadata>
        </polygon>
        <polygon points="59,1117 281,1117 281,1135 59,1135 59,1117" id="PIKE_BOYLOVEGIRLS_T41_012_line_34">
            <metadata typography="" uri="" method="" area="" fillingPcent="" rank="" idBalloon="PIKE_BOYLOVEGIRLS_T41_012_balloon_6" textType="narrative">WE DROPPED IN AT</metadata>
        </polygon>
        <polygon points="54,1144 280,1144 280,1163 54,1163 54,1144" id="PIKE_BOYLOVEGIRLS_T41_012_line_35">
            <metadata typography="" uri="" method="" area="" fillingPcent="" rank="" idBalloon="PIKE_BOYLOVEGIRLS_T41_012_balloon_6" textType="narrative">GLORIA'S. EVERYBODY</metadata>
        </polygon>
        <polygon points="61,1172 281,1172 281,1191 61,1191 61,1172" id="PIKE_BOYLOVEGIRLS_T41_012_line_36">
            <metadata typography="" uri="" method="" area="" fillingPcent="" rank="" idBalloon="PIKE_BOYLOVEGIRLS_T41_012_balloon_6" textType="narrative">GATHERED AT GLORIA'S..</metadata>
        </polygon>
        <polygon points="736,807 856,807 856,834 736,834 736,807" id="PIKE_BOYLOVEGIRLS_T41_012_line_37">
            <metadata typography="" uri="" method="" area="" fillingPcent="" rank="" idBalloon="PIKE_BOYLOVEGIRLS_T41_012_balloon_7" textType="speech">HI, KIDS!</metadata>
        </polygon>
        <polygon points="743,831 848,831 848,854 743,854 743,831" id="PIKE_BOYLOVEGIRLS_T41_012_line_38">
            <metadata typography="" uri="" method="" area="" fillingPcent="" rank="" idBalloon="PIKE_BOYLOVEGIRLS_T41_012_balloon_7" textType="speech">WHAT'S</metadata>
        </polygon>
        <polygon points="773,854 832,854 832,879 773,879 773,854" id="PIKE_BOYLOVEGIRLS_T41_012_line_39">
            <metadata typography="" uri="" method="" area="" fillingPcent="" rank="" idBalloon="PIKE_BOYLOVEGIRLS_T41_012_balloon_7" textType="speech">UP?</metadata>
        </polygon>
        <polygon points="960,809 1334,809 1334,830 960,830 960,809" id="PIKE_BOYLOVEGIRLS_T41_012_line_40">
            <metadata typography="" uri="" method="" area="" fillingPcent="" rank="" idBalloon="PIKE_BOYLOVEGIRLS_T41_012_balloon_8" textType="speech">SPARKLING WIT... BRILLIANT</metadata>
        </polygon>
        <polygon points="954,833 1369,833 1369,853 954,853 954,833" id="PIKE_BOYLOVEGIRLS_T41_012_line_41">
            <metadata typography="" uri="" method="" area="" fillingPcent="" rank="" idBalloon="PIKE_BOYLOVEGIRLS_T41_012_balloon_8" textType="speech">CONVERSATION... PENETRATING</metadata>
        </polygon>
        <polygon points="978,854 1330,854 1330,877 978,877 978,854" id="PIKE_BOYLOVEGIRLS_T41_012_line_42">
            <metadata typography="" uri="" method="" area="" fillingPcent="" rank="" idBalloon="PIKE_BOYLOVEGIRLS_T41_012_balloon_8" textType="speech">THOUGHT... WHAT DID YOU</metadata>
        </polygon>
        <polygon points="999,879 1116,879 1116,901 999,901 999,879" id="PIKE_BOYLOVEGIRLS_T41_012_line_43">
            <metadata typography="" uri="" method="" area="" fillingPcent="" rank="" idBalloon="PIKE_BOYLOVEGIRLS_T41_012_balloon_8" textType="speech">EXPECT?</metadata>
        </polygon>
        <polygon points="1165,901 1366,901 1366,925 1165,925 1165,901" id="PIKE_BOYLOVEGIRLS_T41_012_line_44">
            <metadata typography="" uri="" method="" area="" fillingPcent="" rank="" idBalloon="PIKE_BOYLOVEGIRLS_T41_012_balloon_9" textType="speech">HE MEANS IT'S</metadata>
        </polygon>
        <polygon points="1150,926 1381,926 1381,950 1150,950 1150,926" id="PIKE_BOYLOVEGIRLS_T41_012_line_45">
            <metadata typography="" uri="" method="" area="" fillingPcent="" rank="" idBalloon="PIKE_BOYLOVEGIRLS_T41_012_balloon_9" textType="speech">THE USUAL DULL</metadata>
        </polygon>
        <polygon points="1202,946 1329,946 1329,971 1202,971 1202,946" id="PIKE_BOYLOVEGIRLS_T41_012_line_46">
            <metadata typography="" uri="" method="" area="" fillingPcent="" rank="" idBalloon="PIKE_BOYLOVEGIRLS_T41_012_balloon_9" textType="speech">EVENING!</metadata>
        </polygon>
        <polygon points="181,1495 648,1495 648,1515 181,1515 181,1495" id="PIKE_BOYLOVEGIRLS_T41_012_line_47">
            <metadata typography="" uri="" method="" area="" fillingPcent="" rank="" idBalloon="PIKE_BOYLOVEGIRLS_T41_012_balloon_10" textType="narrative">THE CONVERSATION WANDERED ON AIMLESSLY.....</metadata>
        </polygon>
        <polygon points="76,1542 310,1542 310,1565 76,1565 76,1542" id="PIKE_BOYLOVEGIRLS_T41_012_line_48">
            <metadata typography="" uri="" method="" area="" fillingPcent="" rank="" idBalloon="PIKE_BOYLOVEGIRLS_T41_012_balloon_11" textType="speech">MY OLD MAN SAYS</metadata>
        </polygon>
        <polygon points="55,1566 297,1566 297,1587 55,1587 55,1566" id="PIKE_BOYLOVEGIRLS_T41_012_line_49">
            <metadata typography="" uri="" method="" area="" fillingPcent="" rank="" idBalloon="PIKE_BOYLOVEGIRLS_T41_012_balloon_11" textType="speech">I'M GOING TO HAVE</metadata>
        </polygon>
        <polygon points="78,1590 274,1590 274,1610 78,1610 78,1590" id="PIKE_BOYLOVEGIRLS_T41_012_line_50">
            <metadata typography="" uri="" method="" area="" fillingPcent="" rank="" idBalloon="PIKE_BOYLOVEGIRLS_T41_012_balloon_11" textType="speech">TO TAKE THAT</metadata>
        </polygon>
        <polygon points="64,1614 290,1614 290,1636 64,1636 64,1614" id="PIKE_BOYLOVEGIRLS_T41_012_line_51">
            <metadata typography="" uri="" method="" area="" fillingPcent="" rank="" idBalloon="PIKE_BOYLOVEGIRLS_T41_012_balloon_11" textType="speech">ADVERTISING JOB</metadata>
        </polygon>
        <polygon points="81,1635 265,1635 265,1658 81,1658 81,1635" id="PIKE_BOYLOVEGIRLS_T41_012_line_52">
            <metadata typography="" uri="" method="" area="" fillingPcent="" rank="" idBalloon="PIKE_BOYLOVEGIRLS_T41_012_balloon_11" textType="speech">IN NEW YORK!</metadata>
        </polygon>
        <polygon points="342,1537 799,1537 799,1566 342,1566 342,1537" id="PIKE_BOYLOVEGIRLS_T41_012_line_53">
            <metadata typography="" uri="" method="" area="" fillingPcent="" rank="" idBalloon="PIKE_BOYLOVEGIRLS_T41_012_balloon_12" textType="speech">YEAH, ME, TOO! HE'LL TAKE ME ON</metadata>
        </polygon>
        <polygon points="347,1561 774,1561 774,1588 347,1588 347,1561" id="PIKE_BOYLOVEGIRLS_T41_012_line_54">
            <metadata typography="" uri="" method="" area="" fillingPcent="" rank="" idBalloon="PIKE_BOYLOVEGIRLS_T41_012_balloon_12" textType="speech">AT THE BANK, BUT I THINK I'D</metadata>
        </polygon>
        <polygon points="353,1587 762,1587 762,1610 353,1610 353,1587" id="PIKE_BOYLOVEGIRLS_T41_012_line_55">
            <metadata typography="" uri="" method="" area="" fillingPcent="" rank="" idBalloon="PIKE_BOYLOVEGIRLS_T41_012_balloon_12" textType="speech">RATHER WORK IN MY UNCLE'S</metadata>
        </polygon>
        <polygon points="366,1612 526,1612 526,1635 366,1635 366,1612" id="PIKE_BOYLOVEGIRLS_T41_012_line_56">
            <metadata typography="" uri="" method="" area="" fillingPcent="" rank="" idBalloon="PIKE_BOYLOVEGIRLS_T41_012_balloon_12" textType="speech">PUBLISHING</metadata>
        </polygon>
        <polygon points="383,1634 487,1634 487,1658 383,1658 383,1634" id="PIKE_BOYLOVEGIRLS_T41_012_line_57">
            <metadata typography="" uri="" method="" area="" fillingPcent="" rank="" idBalloon="PIKE_BOYLOVEGIRLS_T41_012_balloon_12" textType="speech">HOUSE!</metadata>
        </polygon>
        <polygon points="571,1634 734,1634 734,1656 571,1656 571,1634" id="PIKE_BOYLOVEGIRLS_T41_012_line_58">
            <metadata typography="" uri="" method="" area="" fillingPcent="" rank="" idBalloon="PIKE_BOYLOVEGIRLS_T41_012_balloon_13" textType="speech">DIT IT EVER</metadata>
        </polygon>
        <polygon points="543,1659 751,1659 751,1682 543,1682 543,1659" id="PIKE_BOYLOVEGIRLS_T41_012_line_59">
            <metadata typography="" uri="" method="" area="" fillingPcent="" rank="" idBalloon="PIKE_BOYLOVEGIRLS_T41_012_balloon_13" textType="speech">OCCUR TO YOU</metadata>
        </polygon>
        <polygon points="521,1683 792,1683 792,1705 521,1705 521,1683" id="PIKE_BOYLOVEGIRLS_T41_012_line_60">
            <metadata typography="" uri="" method="" area="" fillingPcent="" rank="" idBalloon="PIKE_BOYLOVEGIRLS_T41_012_balloon_13" textType="speech">THAT YOU'RE LUCKY</metadata>
        </polygon>
        <polygon points="555,1704 752,1704 752,1728 555,1728 555,1704" id="PIKE_BOYLOVEGIRLS_T41_012_line_61">
            <metadata typography="" uri="" method="" area="" fillingPcent="" rank="" idBalloon="PIKE_BOYLOVEGIRLS_T41_012_balloon_13" textType="speech">TO GET JOBS?</metadata>
        </polygon>
        <polygon points="864,1504 1079,1504 1079,1527 864,1527 864,1504" id="PIKE_BOYLOVEGIRLS_T41_012_line_62">
            <metadata typography="" uri="" method="" area="" fillingPcent="" rank="" idBalloon="PIKE_BOYLOVEGIRLS_T41_012_balloon_14" textType="speech">LUCKY? MY OLD</metadata>
        </polygon>
        <polygon points="851,1527 1103,1527 1103,1549 851,1549 851,1527" id="PIKE_BOYLOVEGIRLS_T41_012_line_63">
            <metadata typography="" uri="" method="" area="" fillingPcent="" rank="" idBalloon="PIKE_BOYLOVEGIRLS_T41_012_balloon_14" textType="speech">MAN'S GOT ENOUGH</metadata>
        </polygon>
        <polygon points="848,1551 1114,1551 1114,1574 848,1574 848,1551" id="PIKE_BOYLOVEGIRLS_T41_012_line_64">
            <metadata typography="" uri="" method="" area="" fillingPcent="" rank="" idBalloon="PIKE_BOYLOVEGIRLS_T41_012_balloon_14" textType="speech">DOUGH TO SUPPORT</metadata>
        </polygon>
        <polygon points="865,1573 1096,1573 1096,1597 865,1597 865,1573" id="PIKE_BOYLOVEGIRLS_T41_012_line_65">
            <metadata typography="" uri="" method="" area="" fillingPcent="" rank="" idBalloon="PIKE_BOYLOVEGIRLS_T41_012_balloon_14" textType="speech">HALF THIS TOWN!</metadata>
        </polygon>
        <polygon points="874,1598 1053,1598 1053,1621 874,1621 874,1598" id="PIKE_BOYLOVEGIRLS_T41_012_line_66">
            <metadata typography="" uri="" method="" area="" fillingPcent="" rank="" idBalloon="PIKE_BOYLOVEGIRLS_T41_012_balloon_14" textType="speech">WHY SHOULD</metadata>
        </polygon>
        <polygon points="877,1623 1033,1623 1033,1643 877,1643 877,1623" id="PIKE_BOYLOVEGIRLS_T41_012_line_67">
            <metadata typography="" uri="" method="" area="" fillingPcent="" rank="" idBalloon="PIKE_BOYLOVEGIRLS_T41_012_balloon_14" textType="speech">I WANT TO</metadata>
        </polygon>
        <polygon points="907,1644 1008,1644 1008,1667 907,1667 907,1644" id="PIKE_BOYLOVEGIRLS_T41_012_line_68">
            <metadata typography="" uri="" method="" area="" fillingPcent="" rank="" idBalloon="PIKE_BOYLOVEGIRLS_T41_012_balloon_14" textType="speech">WORK?</metadata>
        </polygon>
        <polygon points="1163,1499 1341,1499 1341,1525 1163,1525 1163,1499" id="PIKE_BOYLOVEGIRLS_T41_012_line_69">
            <metadata typography="" uri="" method="" area="" fillingPcent="" rank="" idBalloon="PIKE_BOYLOVEGIRLS_T41_012_balloon_15" textType="speech">IF YOU DON'T</metadata>
        </polygon>
        <polygon points="1153,1525 1349,1525 1349,1552 1153,1552 1153,1525" id="PIKE_BOYLOVEGIRLS_T41_012_line_70">
            <metadata typography="" uri="" method="" area="" fillingPcent="" rank="" idBalloon="PIKE_BOYLOVEGIRLS_T41_012_balloon_15" textType="speech">KNOW, I'M NOT</metadata>
        </polygon>
        <polygon points="1172,1550 1306,1550 1306,1573 1172,1573 1172,1550" id="PIKE_BOYLOVEGIRLS_T41_012_line_71">
            <metadata typography="" uri="" method="" area="" fillingPcent="" rank="" idBalloon="PIKE_BOYLOVEGIRLS_T41_012_balloon_15" textType="speech">GOING TO</metadata>
        </polygon>
        <polygon points="1167,1568 1306,1568 1306,1596 1167,1596 1167,1568" id="PIKE_BOYLOVEGIRLS_T41_012_line_72">
            <metadata typography="" uri="" method="" area="" fillingPcent="" rank="" idBalloon="PIKE_BOYLOVEGIRLS_T41_012_balloon_15" textType="speech">TELL YOU!</metadata>
        </polygon>
        <polygon points="1273,1619 1394,1619 1394,1642 1273,1642 1273,1619" id="PIKE_BOYLOVEGIRLS_T41_012_line_73">
            <metadata typography="" uri="" method="" area="" fillingPcent="" rank="" idBalloon="PIKE_BOYLOVEGIRLS_T41_012_balloon_16" textType="speech">ARE YOU</metadata>
        </polygon>
        <polygon points="1273,1643 1410,1643 1410,1664 1273,1664 1273,1643" id="PIKE_BOYLOVEGIRLS_T41_012_line_74">
            <metadata typography="" uri="" method="" area="" fillingPcent="" rank="" idBalloon="PIKE_BOYLOVEGIRLS_T41_012_balloon_16" textType="speech">SPEAKING</metadata>
        </polygon>
        <polygon points="1287,1665 1397,1665 1397,1688 1287,1688 1287,1665" id="PIKE_BOYLOVEGIRLS_T41_012_line_75">
            <metadata typography="" uri="" method="" area="" fillingPcent="" rank="" idBalloon="PIKE_BOYLOVEGIRLS_T41_012_balloon_16" textType="speech">TO ME?</metadata>
        </polygon>
    </svg>
    <svg contentScriptType="text/ecmascript" zoomAndPan="magnify" contentStyleType="text/css" class="linkSBSC" preserveAspectRatio="xMidYMid meet" version="1.0">
    <polygon points="145,189 146,189 111,533 110,533 145,189" idCharacter="PIKE_BOYLOVEGIRLS_T41_012_character_1" idBalloon="PIKE_BOYLOVEGIRLS_T41_012_balloon_0"/>
    <polygon points="363,187 364,187 368,523 367,523 363,187" idCharacter="PIKE_BOYLOVEGIRLS_T41_012_character_0" idBalloon="PIKE_BOYLOVEGIRLS_T41_012_balloon_1"/>
    <polygon points="726,233 727,233 760,462 759,462 726,233" idCharacter="PIKE_BOYLOVEGIRLS_T41_012_character_3" idBalloon="PIKE_BOYLOVEGIRLS_T41_012_balloon_3"/>
    <polygon points="1182,289 1183,289 1330,467 1329,467 1182,289" idCharacter="PIKE_BOYLOVEGIRLS_T41_012_character_5" idBalloon="PIKE_BOYLOVEGIRLS_T41_012_balloon_5"/>
    <polygon points="797,864 798,864 606,1200 605,1200 797,864" idCharacter="PIKE_BOYLOVEGIRLS_T41_012_character_8" idBalloon="PIKE_BOYLOVEGIRLS_T41_012_balloon_7"/>
    <polygon points="1172,865 1173,865 1014,1207 1013,1207 1172,865" idCharacter="PIKE_BOYLOVEGIRLS_T41_012_character_9" idBalloon="PIKE_BOYLOVEGIRLS_T41_012_balloon_8"/>
    <polygon points="1251,997 1252,997 1320,1308 1319,1308 1251,997" idCharacter="PIKE_BOYLOVEGIRLS_T41_012_character_10" idBalloon="PIKE_BOYLOVEGIRLS_T41_012_balloon_9"/>
    <polygon points="183,1652 184,1652 154,1990 153,1990 183,1652" idCharacter="PIKE_BOYLOVEGIRLS_T41_012_character_15" idBalloon="PIKE_BOYLOVEGIRLS_T41_012_balloon_11"/>
    <polygon points="565,1659 566,1659 528,2007 527,2007 565,1659" idCharacter="PIKE_BOYLOVEGIRLS_T41_012_character_13" idBalloon="PIKE_BOYLOVEGIRLS_T41_012_balloon_12"/>
    <polygon points="654,1724 655,1724 727,1963 726,1963 654,1724" idCharacter="PIKE_BOYLOVEGIRLS_T41_012_character_12" idBalloon="PIKE_BOYLOVEGIRLS_T41_012_balloon_13"/>
    <polygon points="1255,1583 1256,1583 1125,1931 1124,1931 1255,1583" idCharacter="PIKE_BOYLOVEGIRLS_T41_012_character_11" idBalloon="PIKE_BOYLOVEGIRLS_T41_012_balloon_15"/>
  </svg>
<metadata method="GroundTruth" lastModificationDate="Sun Feb 09 11:16:15 CET 2014" lastStepModified="Balloon_Rank"/>
</svg>