<?xml version="1.0" encoding="UTF-8" standalone="no"?>
<svg xmlns="http://www.w3.org/2000/svg" xmlns:xlink="http://www.w3.org/1999/xlink" contentScriptType="text/ecmascript" width="967mm" zoomAndPan="magnify" contentStyleType="text/css" height="1355mm" viewBox="0 0 1935 2710" preserveAspectRatio="xMidYMid meet" version="1.0">
    <title>ROUDIER_LESTERRESCREUSEES_022</title>
    <svg contentScriptType="text/ecmascript" zoomAndPan="magnify" contentStyleType="text/css" class="Page" preserveAspectRatio="xMidYMid meet" version="1.0">
        <image x="0" y="0" fill-opacity="0.5" width="1935" xlink:href="../Pages/ROUDIER_LESTERRESCREUSEES_022.jpg" xlink:type="simple" xlink:actuate="onLoad" height="2710" opacity="0.5" preserveAspectRatio="xMidYMid meet" xlink:show="embed"/>
        <metadata collectionTitle="Actes Sud BD" editorName="Actes Sud" doublePage="false" website="" albumTitle="Les Terres Creusées" drawerName="Nicolas Roudier" language="french" resolution="600" ISBN="978-2742795611" readingDirection="leftToRight" writerName="Nicolas Roudier" releaseDate="2011" pageNumber="22"/>
    </svg>
	<style type="text/css" xml:space="preserve">
        * { stroke-width: 0; stroke-linejoin: round; }
        .Unclassified { fill: orange; stroke: none; opacity: 1.0; visibility: hidden; }
        .Noise { fill: pink; stroke: none; opacity: 0.2; visibility: hidden; }
        .Panel { fill: red; stroke: none; opacity: 0.3; visibility: visible; image-rendering: optimizeSpeed; }
        .Line { fill: green; stroke: none; opacity: 0.5; visibility: visible; image-rendering: optimizeSpeed; }
        .TextArea { fill: grey; stroke: none; opacity: 0.2; visibility: visible; image-rendering: optimizeSpeed; }
        .Balloon { fill: cyan; stroke: none; opacity: 0.5; visibility: visible; image-rendering: optimizeSpeed; }
        .Letter { fill: blue; stroke: none; opacity: 0.2; visibility: hidden; }
        .Character { fill: yellow; stroke: none; opacity: 0.3; visibility: visible; image-rendering: optimizeSpeed; }
        .Page { fill: white; stroke: none; opacity: 0.5; visibility: visible; }
        .linkSBSC { fill: blue; stroke: none; opacity: 0.5; visibility: visible; }
        polygon:hover { stroke:red;stroke-width:2; } 
    </style><svg contentScriptType="text/ecmascript" zoomAndPan="magnify" contentStyleType="text/css" class="Panel" preserveAspectRatio="xMidYMid meet" version="1.0">
        <polygon points="117,57 1931,57 1931,2689 117,2689 117,57" id="ROUDIER_LESTERRESCREUSEES_022_panel_0">
            <metadata viewAngle="" shot="" rank="1"/>
        </polygon>
    </svg>
    <svg contentScriptType="text/ecmascript" zoomAndPan="magnify" contentStyleType="text/css" class="TextArea" preserveAspectRatio="xMidYMid meet" version="1.0"/>
    <svg contentScriptType="text/ecmascript" zoomAndPan="magnify" contentStyleType="text/css" class="Balloon" preserveAspectRatio="xMidYMid meet" version="1.0">
        <polygon points="336,581 391,580 458,583 531,595 569,613 578,630 583,658 581,678 574,699 586,707 606,714 622,715 610,722 575,722 561,718 550,727 510,738 477,738 437,738 409,738 369,738 322,727 282,711 263,674 261,632 279,602 336,581" id="ROUDIER_LESTERRESCREUSEES_022_balloon_0">
            <metadata borderStyle="smooth" tailTip="622,715" boundingBox="" tailDirection="E" rank="1"/>
        </polygon>
        <polygon points="1556,57 1627,55 1693,57 1740,73 1767,98 1775,127 1772,155 1760,180 1714,196 1642,200 1585,202 1514,204 1468,204 1461,225 1450,243 1427,261 1404,273 1427,247 1436,234 1433,202 1402,194 1367,167 1355,136 1360,104 1384,75 1414,59 1457,58 1556,57" id="ROUDIER_LESTERRESCREUSEES_022_balloon_1">
            <metadata borderStyle="smooth" tailTip="1404,273" boundingBox="" tailDirection="SW" rank="2"/>
        </polygon>
        <polygon points="1402,686 1497,686 1551,691 1598,711 1617,731 1639,770 1635,810 1612,845 1597,859 1545,871 1499,877 1415,877 1360,879 1305,884 1244,882 1195,876 1146,844 1132,798 1134,749 1159,717 1195,699 1230,690 1369,688 1375,639 1364,603 1356,581 1357,560 1364,569 1375,599 1390,618 1396,637 1400,684 1402,686" id="ROUDIER_LESTERRESCREUSEES_022_balloon_2">
            <metadata borderStyle="smooth" tailTip="1357,560" boundingBox="" tailDirection="N" rank="3"/>
        </polygon>
        <polygon points="378,1115 515,1102 572,1102 626,1111 687,1133 712,1161 728,1211 730,1259 729,1370 832,1392 951,1407 1040,1384 1093,1371 1174,1351 1225,1334 1196,1358 1129,1381 1080,1392 1005,1416 939,1429 881,1426 816,1417 754,1411 724,1412 695,1453 609,1492 483,1513 359,1506 267,1473 205,1408 174,1300 185,1189 223,1133 276,1114 316,1111 378,1115" id="ROUDIER_LESTERRESCREUSEES_022_balloon_3">
            <metadata borderStyle="smooth" tailTip="1225,1334" boundingBox="" tailDirection="E" rank="4"/>
        </polygon>
        <polygon points="589,1614 673,1611 707,1619 730,1641 735,1665 729,1701 712,1723 676,1743 669,1755 665,1776 654,1792 636,1804 619,1820 618,1811 634,1793 647,1773 644,1755 637,1745 604,1747 563,1744 510,1726 493,1705 486,1674 497,1650 513,1633 529,1623 552,1614 589,1614" id="ROUDIER_LESTERRESCREUSEES_022_balloon_4">
            <metadata borderStyle="smooth" tailTip="619,1820" boundingBox="" tailDirection="SW" rank="5"/>
        </polygon>
        <polygon points="793,1841 887,1837 1008,1841 1098,1841 1169,1843 1234,1845 1272,1856 1293,1877 1305,1901 1305,1929 1295,1959 1271,1988 1238,2009 1188,2028 1145,2032 1103,2035 1068,2036 1026,2033 1018,2040 1007,2086 997,2118 975,2139 939,2156 958,2138 983,2110 982,2077 982,2054 982,2030 931,2032 870,2034 809,2031 756,2027 710,2011 673,1980 654,1941 651,1896 672,1867 696,1848 793,1841" id="ROUDIER_LESTERRESCREUSEES_022_balloon_5">
            <metadata borderStyle="smooth" tailTip="939,2156" boundingBox="" tailDirection="SW" rank="6"/>
        </polygon>
        <polygon points="348,2420 513,2415 649,2413 774,2413 842,2414 867,2425 898,2394 929,2347 928,2307 880,2258 887,2254 900,2273 930,2296 944,2323 946,2356 940,2378 920,2428 906,2447 930,2473 941,2515 946,2543 936,2578 902,2612 875,2628 819,2632 687,2635 448,2644 260,2634 171,2601 138,2547 136,2494 167,2458 205,2435 247,2427 348,2420" id="ROUDIER_LESTERRESCREUSEES_022_balloon_6">
            <metadata borderStyle="smooth" tailTip="880,2258" boundingBox="" tailDirection="NW" rank="7"/>
        </polygon>
        <polygon points="1716,2061 1782,2072 1823,2089 1836,2118 1847,2138 1849,2184 1822,2226 1721,2247 1594,2241 1541,2207 1527,2143 1542,2101 1586,2073 1636,2067 1682,2065 1691,1967 1705,1857 1716,1777 1724,1698 1730,1656 1734,1656 1726,1718 1718,1799 1716,1863 1716,2061" id="ROUDIER_LESTERRESCREUSEES_022_balloon_7">
            <metadata borderStyle="smooth" tailTip="1730,1656" boundingBox="" tailDirection="N" rank="8"/>
        </polygon>
        <polygon points="1665,2374 1786,2377 1848,2393 1889,2418 1910,2456 1911,2493 1902,2519 1883,2544 1844,2561 1714,2563 1598,2568 1477,2564 1429,2546 1402,2516 1396,2478 1405,2440 1431,2404 1461,2386 1497,2379 1534,2375 1582,2374 1608,2373 1603,2333 1582,2309 1559,2304 1527,2307 1503,2309 1474,2303 1458,2292 1463,2287 1478,2292 1504,2299 1528,2295 1559,2288 1577,2288 1600,2296 1612,2306 1626,2328 1638,2353 1649,2368 1665,2374" id="ROUDIER_LESTERRESCREUSEES_022_balloon_8">
            <metadata borderStyle="smooth" tailTip="1458,2292" boundingBox="" tailDirection="W" rank="9"/>
        </polygon>
    </svg>
    <svg contentScriptType="text/ecmascript" zoomAndPan="magnify" contentStyleType="text/css" class="Character" preserveAspectRatio="xMidYMid meet" version="1.0">
        <polygon points="203,274 402,274 402,527 203,527 203,274" id="ROUDIER_LESTERRESCREUSEES_022_character_0">
            <metadata uri="" area="" fillingPcent=""/>
        </polygon>
        <polygon points="604,671 849,671 849,1056 604,1056 604,671" id="ROUDIER_LESTERRESCREUSEES_022_character_1">
            <metadata uri="" area="" fillingPcent=""/>
        </polygon>
        <polygon points="694,593 898,593 898,831 694,831 694,593" id="ROUDIER_LESTERRESCREUSEES_022_character_2">
            <metadata uri="" area="" fillingPcent=""/>
        </polygon>
        <polygon points="931,667 1091,667 1091,1001 931,1001 931,667" id="ROUDIER_LESTERRESCREUSEES_022_character_3">
            <metadata uri="" area="" fillingPcent=""/>
        </polygon>
        <polygon points="985,133 1503,133 1503,729 985,729 985,133" id="ROUDIER_LESTERRESCREUSEES_022_character_4">
            <metadata uri="" area="" fillingPcent=""/>
        </polygon>
        <polygon points="1435,208 1765,208 1765,633 1435,633 1435,208" id="ROUDIER_LESTERRESCREUSEES_022_character_5">
            <metadata uri="" area="" fillingPcent=""/>
        </polygon>
        <polygon points="1673,244 1945,244 1945,599 1673,599 1673,244" id="ROUDIER_LESTERRESCREUSEES_022_character_6">
            <metadata uri="" area="" fillingPcent=""/>
        </polygon>
        <polygon points="769,931 1536,931 1536,1763 769,1763 769,931" id="ROUDIER_LESTERRESCREUSEES_022_character_7">
            <metadata uri="" area="" fillingPcent=""/>
        </polygon>
        <polygon points="813,996 1332,996 1332,1781 813,1781 813,996" id="ROUDIER_LESTERRESCREUSEES_022_character_8">
            <metadata uri="" area="" fillingPcent=""/>
        </polygon>
        <polygon points="309,1754 606,1754 606,2243 309,2243 309,1754" id="ROUDIER_LESTERRESCREUSEES_022_character_9">
            <metadata uri="" area="" fillingPcent=""/>
        </polygon>
        <polygon points="153,1754 590,1754 590,2301 153,2301 153,1754" id="ROUDIER_LESTERRESCREUSEES_022_character_10">
            <metadata uri="" area="" fillingPcent=""/>
        </polygon>
        <polygon points="314,2142 1109,2142 1109,2693 314,2693 314,2142" id="ROUDIER_LESTERRESCREUSEES_022_character_11">
            <metadata uri="" area="" fillingPcent=""/>
        </polygon>
        <polygon points="537,2011 1107,2011 1107,2439 537,2439 537,2011" id="ROUDIER_LESTERRESCREUSEES_022_character_12">
            <metadata uri="" area="" fillingPcent=""/>
        </polygon>
        <polygon points="1187,2337 1798,2337 1798,2705 1187,2705 1187,2337" id="ROUDIER_LESTERRESCREUSEES_022_character_13">
            <metadata uri="" area="" fillingPcent=""/>
        </polygon>
        <polygon points="1090,2048 1483,2048 1483,2565 1090,2565 1090,2048" id="ROUDIER_LESTERRESCREUSEES_022_character_14">
            <metadata uri="" area="" fillingPcent=""/>
        </polygon>
        <polygon points="1568,1474 1824,1474 1824,1706 1568,1706 1568,1474" id="ROUDIER_LESTERRESCREUSEES_022_character_15">
            <metadata uri="" area="" fillingPcent=""/>
        </polygon>
    </svg>
    <svg contentScriptType="text/ecmascript" zoomAndPan="magnify" contentStyleType="text/css" class="Line" preserveAspectRatio="xMidYMid meet" version="1.0">
        <polygon points="1465,81 1665,81 1665,117 1465,117 1465,81" id="ROUDIER_LESTERRESCREUSEES_022_line_0">
            <metadata method="" typography="" idBalloon="ROUDIER_LESTERRESCREUSEES_022_balloon_1" textType="speech">Mes enfants</metadata>
        </polygon>
        <polygon points="1405,126 1723,126 1723,171 1405,171 1405,126" id="ROUDIER_LESTERRESCREUSEES_022_line_1">
            <metadata method="" typography="" idBalloon="ROUDIER_LESTERRESCREUSEES_022_balloon_1" textType="speech">c'est vous, Lecreux.</metadata>
        </polygon>
        <polygon points="1218,724 1547,724 1547,768 1218,771 1218,724" id="ROUDIER_LESTERRESCREUSEES_022_line_2">
            <metadata method="" typography="" idBalloon="ROUDIER_LESTERRESCREUSEES_022_balloon_2" textType="speech">Vous, Mademoiselle,</metadata>
        </polygon>
        <polygon points="1193,773 1571,773 1571,817 1193,817 1193,773" id="ROUDIER_LESTERRESCREUSEES_022_line_3">
            <metadata method="" typography="" idBalloon="ROUDIER_LESTERRESCREUSEES_022_balloon_2" textType="speech">et tous les gens comme</metadata>
        </polygon>
        <polygon points="1340,830 1423,830 1423,854 1340,854 1340,830" id="ROUDIER_LESTERRESCREUSEES_022_line_4">
            <metadata method="" typography="" idBalloon="ROUDIER_LESTERRESCREUSEES_022_balloon_2" textType="speech">vous.</metadata>
        </polygon>
        <polygon points="298,620 556,620 556,666 298,666 298,620" id="ROUDIER_LESTERRESCREUSEES_022_line_5">
            <metadata method="" typography="" idBalloon="ROUDIER_LESTERRESCREUSEES_022_balloon_0" textType="speech">Vous me parliez</metadata>
        </polygon>
        <polygon points="297,665 553,665 553,704 297,704 297,665" id="ROUDIER_LESTERRESCREUSEES_022_line_6">
            <metadata method="" typography="" idBalloon="ROUDIER_LESTERRESCREUSEES_022_balloon_0" textType="speech">de mes enfants.</metadata>
        </polygon>
        <polygon points="262,1155 652,1155 652,1188 262,1190 262,1155" id="ROUDIER_LESTERRESCREUSEES_022_line_7">
            <metadata method="" typography="" idBalloon="ROUDIER_LESTERRESCREUSEES_022_balloon_3" textType="speech">J'ai tracé votre avenir et</metadata>
        </polygon>
        <polygon points="230,1200 682,1200 682,1246 230,1246 230,1200" id="ROUDIER_LESTERRESCREUSEES_022_line_8">
            <metadata method="" typography="" idBalloon="ROUDIER_LESTERRESCREUSEES_022_balloon_3" textType="speech">vous ai protégés. Protégés de</metadata>
        </polygon>
        <polygon points="233,1247 681,1247 681,1289 233,1288 233,1247" id="ROUDIER_LESTERRESCREUSEES_022_line_9">
            <metadata method="" typography="" idBalloon="ROUDIER_LESTERRESCREUSEES_022_balloon_3" textType="speech">vous-mêmes. Car chez vous,</metadata>
        </polygon>
        <polygon points="224,1296 691,1296 691,1336 224,1336 224,1296" id="ROUDIER_LESTERRESCREUSEES_022_line_10">
            <metadata method="" typography="" idBalloon="ROUDIER_LESTERRESCREUSEES_022_balloon_3" textType="speech">on s'entretue par passion, par</metadata>
        </polygon>
        <polygon points="236,1341 678,1341 678,1383 236,1383 236,1341" id="ROUDIER_LESTERRESCREUSEES_022_line_11">
            <metadata method="" typography="" idBalloon="ROUDIER_LESTERRESCREUSEES_022_balloon_3" textType="speech">arrivisme, par cupidité. Vous</metadata>
        </polygon>
        <polygon points="266,1386 650,1386 650,1420 266,1420 266,1386" id="ROUDIER_LESTERRESCREUSEES_022_line_12">
            <metadata method="" typography="" idBalloon="ROUDIER_LESTERRESCREUSEES_022_balloon_3" textType="speech">n'avez aucune idée de la</metadata>
        </polygon>
        <polygon points="340,1433 574,1433 574,1476 340,1476 340,1433" id="ROUDIER_LESTERRESCREUSEES_022_line_13">
            <metadata method="" typography="" idBalloon="ROUDIER_LESTERRESCREUSEES_022_balloon_3" textType="speech">chose publique.</metadata>
        </polygon>
        <polygon points="532,1640 697,1640 697,1674 532,1674 532,1640" id="ROUDIER_LESTERRESCREUSEES_022_line_14">
            <metadata method="" typography="" idBalloon="ROUDIER_LESTERRESCREUSEES_022_balloon_4" textType="speech">Seulement</metadata>
        </polygon>
        <polygon points="544,1684 697,1684 697,1719 544,1719 544,1684" id="ROUDIER_LESTERRESCREUSEES_022_line_15">
            <metadata method="" typography="" idBalloon="ROUDIER_LESTERRESCREUSEES_022_balloon_4" textType="speech">des rêves.</metadata>
        </polygon>
        <polygon points="756,1870 1190,1870 1190,1916 756,1916 756,1870" id="ROUDIER_LESTERRESCREUSEES_022_line_16">
            <metadata method="" typography="" idBalloon="ROUDIER_LESTERRESCREUSEES_022_balloon_5" textType="speech">Vous comprendrez un jour,</metadata>
        </polygon>
        <polygon points="711,1915 1233,1916 1233,1960 711,1960 711,1915" id="ROUDIER_LESTERRESCREUSEES_022_line_17">
            <metadata method="" typography="" idBalloon="ROUDIER_LESTERRESCREUSEES_022_balloon_5" textType="speech">Lecreux, que le mieux pour tous</metadata>
        </polygon>
        <polygon points="714,1961 1231,1961 1231,2006 714,2007 714,1961" id="ROUDIER_LESTERRESCREUSEES_022_line_18">
            <metadata method="" typography="" idBalloon="ROUDIER_LESTERRESCREUSEES_022_balloon_5" textType="speech">est que chacun reste à sa place.</metadata>
        </polygon>
        <polygon points="1597,2094 1781,2094 1781,2137 1597,2137 1597,2094" id="ROUDIER_LESTERRESCREUSEES_022_line_19">
            <metadata method="" typography="" idBalloon="ROUDIER_LESTERRESCREUSEES_022_balloon_7" textType="speech">Il est beau,</metadata>
        </polygon>
        <polygon points="1587,2136 1791,2136 1791,2181 1587,2181 1587,2136" id="ROUDIER_LESTERRESCREUSEES_022_line_20">
            <metadata method="" typography="" idBalloon="ROUDIER_LESTERRESCREUSEES_022_balloon_7" textType="speech">le monarque</metadata>
        </polygon>
        <polygon points="1577,2177 1813,2177 1813,2212 1577,2212 1577,2177" id="ROUDIER_LESTERRESCREUSEES_022_line_21">
            <metadata method="" typography="" idBalloon="ROUDIER_LESTERRESCREUSEES_022_balloon_7" textType="speech">dans son trou.</metadata>
        </polygon>
        <polygon points="1456,2415 1861,2415 1861,2461 1456,2461 1456,2415" id="ROUDIER_LESTERRESCREUSEES_022_line_22">
            <metadata method="" typography="" idBalloon="ROUDIER_LESTERRESCREUSEES_022_balloon_8" textType="speech">Vous êtes jeune, Lecreux.</metadata>
        </polygon>
        <polygon points="1441,2456 1878,2456 1878,2501 1441,2502 1441,2456" id="ROUDIER_LESTERRESCREUSEES_022_line_23">
            <metadata method="" typography="" idBalloon="ROUDIER_LESTERRESCREUSEES_022_balloon_8" textType="speech">Reprenons du vin, la soirée</metadata>
        </polygon>
        <polygon points="1473,2499 1846,2499 1846,2544 1473,2544 1473,2499" id="ROUDIER_LESTERRESCREUSEES_022_line_24">
            <metadata method="" typography="" idBalloon="ROUDIER_LESTERRESCREUSEES_022_balloon_8" textType="speech">commence à me plaire.</metadata>
        </polygon>
        <polygon points="258,2454 829,2448 829,2493 258,2493 258,2454" id="ROUDIER_LESTERRESCREUSEES_022_line_25">
            <metadata method="" typography="" idBalloon="ROUDIER_LESTERRESCREUSEES_022_balloon_6" textType="speech">Toutes les sociétés sont ainsi faites,</metadata>
        </polygon>
        <polygon points="225,2491 864,2491 864,2538 225,2540 225,2491" id="ROUDIER_LESTERRESCREUSEES_022_line_26">
            <metadata method="" typography="" idBalloon="ROUDIER_LESTERRESCREUSEES_022_balloon_6" textType="speech">le reste n'est plus qu'histoire de nomen-</metadata>
        </polygon>
        <polygon points="219,2532 873,2532 873,2579 219,2582 219,2532" id="ROUDIER_LESTERRESCREUSEES_022_line_27">
            <metadata method="" typography="" idBalloon="ROUDIER_LESTERRESCREUSEES_022_balloon_6" textType="speech">clature, général, roi ou même président.</metadata>
        </polygon>
        <polygon points="352,2578 740,2578 740,2624 352,2624 352,2578" id="ROUDIER_LESTERRESCREUSEES_022_line_28">
            <metadata method="" typography="" idBalloon="ROUDIER_LESTERRESCREUSEES_022_balloon_6" textType="speech">Qu'importe l'emballage.</metadata>
        </polygon>
    </svg>
    <svg contentScriptType="text/ecmascript" zoomAndPan="magnify" contentStyleType="text/css" class="linkSBSC" preserveAspectRatio="xMidYMid meet" version="1.0">
    <polygon points="1565,164 1566,164 1245,431 1244,431 1565,164" idCharacter="ROUDIER_LESTERRESCREUSEES_022_character_4" idBalloon="ROUDIER_LESTERRESCREUSEES_022_balloon_1"/>
    <polygon points="441,659 442,659 727,863 726,863 441,659" idCharacter="ROUDIER_LESTERRESCREUSEES_022_character_1" idBalloon="ROUDIER_LESTERRESCREUSEES_022_balloon_0"/>
    <polygon points="1385,722 1386,722 1245,431 1244,431 1385,722" idCharacter="ROUDIER_LESTERRESCREUSEES_022_character_4" idBalloon="ROUDIER_LESTERRESCREUSEES_022_balloon_2"/>
    <polygon points="699,1307 700,1307 1153,1347 1152,1347 699,1307" idCharacter="ROUDIER_LESTERRESCREUSEES_022_character_7" idBalloon="ROUDIER_LESTERRESCREUSEES_022_balloon_3"/>
    <polygon points="610,1715 611,1715 458,1998 457,1998 610,1715" idCharacter="ROUDIER_LESTERRESCREUSEES_022_character_9" idBalloon="ROUDIER_LESTERRESCREUSEES_022_balloon_4"/>
    <polygon points="978,1996 979,1996 823,2225 822,2225 978,1996" idCharacter="ROUDIER_LESTERRESCREUSEES_022_character_12" idBalloon="ROUDIER_LESTERRESCREUSEES_022_balloon_5"/>
    <polygon points="1653,2427 1654,2427 1287,2306 1286,2306 1653,2427" idCharacter="ROUDIER_LESTERRESCREUSEES_022_character_14" idBalloon="ROUDIER_LESTERRESCREUSEES_022_balloon_8"/>
    <polygon points="1688,1951 1689,1951 1697,1590 1696,1590 1688,1951" idCharacter="ROUDIER_LESTERRESCREUSEES_022_character_15" idBalloon="ROUDIER_LESTERRESCREUSEES_022_balloon_7"/>
    <polygon points="541,2449 542,2449 823,2225 822,2225 541,2449" idCharacter="ROUDIER_LESTERRESCREUSEES_022_character_12" idBalloon="ROUDIER_LESTERRESCREUSEES_022_balloon_6"/>
  </svg>
<metadata method="GroundTruth" lastModificationDate="Sun Feb 09 10:51:48 CET 2014" lastStepModified="Balloon_Rank"/>
</svg>