<?xml version="1.0" encoding="UTF-8" standalone="no"?>
<svg xmlns="http://www.w3.org/2000/svg" xmlns:xlink="http://www.w3.org/1999/xlink" contentScriptType="text/ecmascript" width="1230mm" zoomAndPan="magnify" contentStyleType="text/css" height="1739mm" viewBox="0 0 2461 3479" preserveAspectRatio="xMidYMid meet" version="1.0">
    <title>SAINTOGAN_ZIGPUCE_ET_ALFRED_025</title>
    <svg contentScriptType="text/ecmascript" zoomAndPan="magnify" contentStyleType="text/css" class="Page" preserveAspectRatio="xMidYMid meet" version="1.0">
        <image x="0" y="0" fill-opacity="0.5" width="2461" xlink:href="../Pages/SAINTOGAN_ZIGPUCE_ET_ALFRED_025.jpg" xlink:type="simple" xlink:actuate="onLoad" height="3479" opacity="0.5" preserveAspectRatio="xMidYMid meet" xlink:show="embed"/>
        <metadata collectionTitle="Zig Et Puce" editorName="Hachette" doublePage="false" website="http://collections.citebd.org/saintogan/www/fonds.php" albumTitle="Zig, Puce et Alfred" drawerName="Alain Saint Ogan" language="french" resolution="600" ISBN="" readingDirection="leftToRight" writerName="Alain Saint Ogan" releaseDate="1952" pageNumber="25"/>
    </svg>
	<style type="text/css" xml:space="preserve">
        * { stroke-width: 0; stroke-linejoin: round; }
        .Unclassified { fill: orange; stroke: none; opacity: 1.0; visibility: hidden; }
        .Noise { fill: pink; stroke: none; opacity: 0.2; visibility: hidden; }
        .Panel { fill: red; stroke: none; opacity: 0.3; visibility: visible; image-rendering: optimizeSpeed; }
        .Line { fill: green; stroke: none; opacity: 0.5; visibility: visible; image-rendering: optimizeSpeed; }
        .TextArea { fill: grey; stroke: none; opacity: 0.2; visibility: visible; image-rendering: optimizeSpeed; }
        .Balloon { fill: cyan; stroke: none; opacity: 0.5; visibility: visible; image-rendering: optimizeSpeed; }
        .Letter { fill: blue; stroke: none; opacity: 0.2; visibility: hidden; }
        .Character { fill: yellow; stroke: none; opacity: 0.3; visibility: visible; image-rendering: optimizeSpeed; }
        .Page { fill: white; stroke: none; opacity: 0.5; visibility: visible; }
        .linkSBSC { fill: blue; stroke: none; opacity: 0.5; visibility: visible; }
        polygon:hover { stroke:red;stroke-width:2; } 
    </style><svg contentScriptType="text/ecmascript" zoomAndPan="magnify" contentStyleType="text/css" class="Panel" preserveAspectRatio="xMidYMid meet" version="1.0">
        <polygon points="113,112 2336,79 2338,355 113,405 113,112" id="SAINTOGAN_ZIGPUCE_ET_ALFRED_025_panel_0">
            <metadata viewAngle="" shot="" rank="1"/>
        </polygon>
        <polygon points="874,418 1594,418 1594,1092 874,1092 874,418" id="SAINTOGAN_ZIGPUCE_ET_ALFRED_025_panel_1">
            <metadata viewAngle="" shot="" rank="4"/>
        </polygon>
        <polygon points="1630,398 2349,398 2349,1071 1640,1071 1630,398" id="SAINTOGAN_ZIGPUCE_ET_ALFRED_025_panel_2">
            <metadata viewAngle="" shot="" rank="5"/>
        </polygon>
        <polygon points="123,1141 851,1131 851,1802 129,1802 123,1141" id="SAINTOGAN_ZIGPUCE_ET_ALFRED_025_panel_3">
            <metadata viewAngle="" shot="" rank="6"/>
        </polygon>
        <polygon points="889,1120 1607,1120 1607,1793 889,1793 889,1120" id="SAINTOGAN_ZIGPUCE_ET_ALFRED_025_panel_4">
            <metadata viewAngle="" shot="" rank="7"/>
        </polygon>
        <polygon points="1646,1110 2353,1110 2353,1778 1646,1778 1646,1110" id="SAINTOGAN_ZIGPUCE_ET_ALFRED_025_panel_5">
            <metadata viewAngle="" shot="" rank="8"/>
        </polygon>
        <polygon points="139,1840 2365,1809 2368,2480 139,2522 139,1840" id="SAINTOGAN_ZIGPUCE_ET_ALFRED_025_panel_6">
            <metadata viewAngle="" shot="" rank="9"/>
        </polygon>
        <polygon points="144,2554 872,2554 872,3254 144,3254 144,2554" id="SAINTOGAN_ZIGPUCE_ET_ALFRED_025_panel_7">
            <metadata viewAngle="" shot="" rank="10"/>
        </polygon>
        <polygon points="911,2543 1633,2543 1633,3239 911,3239 911,2543" id="SAINTOGAN_ZIGPUCE_ET_ALFRED_025_panel_8">
            <metadata viewAngle="" shot="" rank="11"/>
        </polygon>
        <polygon points="1665,2524 2379,2524 2379,3221 1670,3231 1665,2524" id="SAINTOGAN_ZIGPUCE_ET_ALFRED_025_panel_9">
            <metadata viewAngle="" shot="" rank="12"/>
        </polygon>
        <polygon points="113,435 279,435 279,592 113,592 113,435" id="SAINTOGAN_ZIGPUCE_ET_ALFRED_025_panel_10">
            <metadata viewAngle="" shot="" rank="2"/>
        </polygon>
        <polygon points="116,711 844,711 844,1105 116,1105 116,711" id="SAINTOGAN_ZIGPUCE_ET_ALFRED_025_panel_11">
            <metadata viewAngle="" shot="" rank="3"/>
        </polygon>
    </svg>
    <svg contentScriptType="text/ecmascript" zoomAndPan="magnify" contentStyleType="text/css" class="TextArea" preserveAspectRatio="xMidYMid meet" version="1.0"/>
    <svg contentScriptType="text/ecmascript" zoomAndPan="magnify" contentStyleType="text/css" class="Balloon" preserveAspectRatio="xMidYMid meet" version="1.0">
        <polygon points="874,551 874,413 1415,403 1423,433 1407,457 1384,494 1381,518 1393,548 1380,594 1352,609 1320,609 1284,606 1262,606 1243,627 1222,649 1193,652 1215,632 1222,613 1231,605 1193,610 1176,607 1075,557 1026,557 952,564 899,566 875,563 874,551" id="SAINTOGAN_ZIGPUCE_ET_ALFRED_025_balloon_0">
            <metadata borderStyle="smooth" tailTip="1193,652" boundingBox="" tailDirection="SW" rank="1"/>
        </polygon>
        <polygon points="1640,388 1668,388 1699,389 1747,393 1810,390 1848,391 1885,387 1938,390 1950,419 1943,469 1931,496 1883,510 1844,507 1803,503 1772,501 1756,504 1758,517 1745,527 1754,532 1756,551 1757,567 1731,564 1730,548 1716,541 1725,509 1697,508 1648,505 1617,493 1619,456 1622,418 1628,393 1640,388" id="SAINTOGAN_ZIGPUCE_ET_ALFRED_025_balloon_1">
            <metadata borderStyle="smooth" tailTip="1757,567" boundingBox="" tailDirection="SE" rank="2"/>
        </polygon>
        <polygon points="1978,379 2053,376 2120,379 2202,375 2254,374 2303,373 2337,371 2347,383 2347,503 2322,513 2248,515 2173,515 2118,520 2082,502 2049,457 2028,442 2009,446 1991,470 1979,484 1962,519 1955,483 1969,458 1974,446 1965,442 1972,388 1978,379" id="SAINTOGAN_ZIGPUCE_ET_ALFRED_025_balloon_2">
            <metadata borderStyle="smooth" tailTip="1962,519" boundingBox="" tailDirection="S" rank="3"/>
        </polygon>
        <polygon points="151,1118 278,1115 289,1137 290,1156 287,1171 307,1168 322,1177 336,1208 318,1204 305,1193 286,1193 289,1225 279,1256 247,1268 220,1268 198,1268 156,1276 133,1266 123,1242 133,1189 136,1171 130,1147 133,1124 151,1118" id="SAINTOGAN_ZIGPUCE_ET_ALFRED_025_balloon_3">
            <metadata borderStyle="smooth" tailTip="336,1208" boundingBox="" tailDirection="SE" rank="4"/>
        </polygon>
        <polygon points="893,1137 940,1129 985,1129 1028,1126 1077,1126 1104,1124 1156,1124 1196,1124 1223,1128 1233,1149 1229,1192 1227,1239 1234,1287 1237,1349 1220,1384 1193,1389 1165,1387 1142,1396 1119,1384 1108,1389 1111,1406 1111,1423 1103,1436 1081,1455 1079,1437 1087,1412 1081,1398 1081,1381 1028,1389 984,1385 949,1389 914,1381 894,1365 884,1318 890,1258 884,1176 893,1137" id="SAINTOGAN_ZIGPUCE_ET_ALFRED_025_balloon_4">
            <metadata borderStyle="smooth" tailTip="1081,1455" boundingBox="" tailDirection="S" rank="5"/>
        </polygon>
        <polygon points="1297,1323 1374,1323 1407,1318 1426,1318 1446,1322 1476,1320 1509,1317 1529,1313 1558,1321 1566,1340 1572,1357 1567,1410 1566,1442 1566,1465 1573,1497 1560,1527 1519,1536 1455,1529 1390,1530 1317,1537 1276,1537 1250,1528 1240,1503 1226,1509 1208,1519 1195,1533 1182,1554 1177,1531 1188,1499 1212,1487 1236,1476 1230,1442 1227,1418 1236,1385 1232,1368 1243,1330 1264,1324 1297,1323" id="SAINTOGAN_ZIGPUCE_ET_ALFRED_025_balloon_5">
            <metadata borderStyle="smooth" tailTip="1182,1554" boundingBox="" tailDirection="S" rank="6"/>
        </polygon>
        <polygon points="1661,1137 1689,1120 1720,1129 1760,1126 1812,1125 1851,1125 1879,1122 1894,1124 1929,1123 1974,1123 2014,1126 2059,1122 2100,1115 2133,1131 2141,1166 2140,1235 2142,1277 2143,1336 2126,1382 2088,1405 2018,1413 1969,1414 1932,1409 1892,1409 1877,1412 1875,1429 1877,1451 1875,1468 1853,1476 1844,1491 1835,1506 1828,1483 1834,1465 1848,1451 1852,1402 1827,1396 1811,1376 1669,1366 1651,1338 1655,1187 1653,1149 1661,1137" id="SAINTOGAN_ZIGPUCE_ET_ALFRED_025_balloon_6">
            <metadata borderStyle="smooth" tailTip="1835,1506" boundingBox="" tailDirection="S" rank="7"/>
        </polygon>
        <polygon points="155,1876 186,1870 208,1873 235,1876 262,1873 275,1872 300,1889 303,1931 300,1961 302,1990 301,2039 303,2072 278,2095 250,2097 217,2098 227,2119 214,2142 223,2159 214,2171 220,2177 210,2207 204,2189 192,2178 200,2159 184,2143 201,2125 185,2109 184,2100 157,2100 145,2085 140,2053 142,1966 142,1918 149,1889 155,1876" id="SAINTOGAN_ZIGPUCE_ET_ALFRED_025_balloon_7">
            <metadata borderStyle="smooth" tailTip="210,2207" boundingBox="" tailDirection="S" rank="8"/>
        </polygon>
        <polygon points="295,2089 323,2075 336,2066 335,2042 329,2017 335,1996 330,1970 332,1936 338,1914 340,1900 340,1869 349,1855 358,1850 383,1837 403,1834 430,1837 445,1839 455,1842 474,1831 494,1825 515,1828 533,1831 547,1833 557,1839 571,1843 580,1845 598,1849 615,1851 635,1849 658,1842 674,1837 698,1832 714,1831 723,1830 741,1832 752,1833 764,1837 777,1844 785,1846 794,1847 807,1848 817,1849 826,1849 839,1848 856,1843 874,1841 891,1837 900,1832 959,1831 988,1837 1009,1841 1050,1828 1074,1824 1110,1821 1127,1821 1141,1821 1151,1824 1157,1824 1173,1821 1190,1818 1210,1816 1223,1813 1235,1814 1252,1818 1267,1823 1285,1818 1308,1818 1331,1817 1366,1815 1410,1815 1446,1812 1468,1808 1483,1805 1497,1804 1510,1802 1525,1803 1548,1806 1562,1807 1574,1810 1607,1807 1645,1799 1660,1796 1674,1794 1686,1794 1701,1795 1720,1803 1722,1804 1725,1805 1735,1800 1749,1795 1767,1790 1776,1788 1785,1789 1792,1793 1802,1798 1808,1804 1816,1809 1823,1811 1839,1807 1850,1808 1853,1814 1859,1818 1872,1818 1892,1815 1917,1813 1930,1818 1944,1820 1953,1826 1959,1831 1966,1832 1968,1828 1982,1819 1993,1808 2017,1802 2036,1800 2052,1801 2063,1799 2079,1804 2092,1808 2104,1812 2124,1814 2141,1814 2139,1811 2145,1810 2156,1810 2168,1809 2177,1809 2187,1813 2197,1813 2212,1805 2227,1804 2245,1802 2270,1799 2288,1798 2328,1805 2347,1816 2360,1838 2361,1864 2353,1892 2363,1908 2367,1947 2350,1966 2351,1966 2358,2001 2360,2027 2350,2047 2356,2062 2360,2083 2370,2100 2383,2150 2366,2187 2367,2217 2363,2275 2360,2319 2336,2363 2302,2402 2258,2431 2220,2431 2199,2453 2171,2458 2140,2444 2110,2459 2084,2449 2070,2468 2037,2473 2012,2465 2016,2464 1991,2475 1961,2471 1944,2465 1912,2492 1860,2503 1812,2499 1769,2466 1750,2488 1687,2503 1656,2501 1622,2482 1603,2493 1573,2490 1564,2482 1539,2499 1513,2515 1484,2515 1456,2501 1436,2511 1406,2511 1398,2506 1388,2507 1344,2505 1321,2491 1299,2473 1264,2489 1215,2498 1164,2490 1142,2476 1124,2489 1083,2497 1048,2489 1026,2492 1000,2499 986,2498 949,2505 925,2491 896,2507 870,2513 852,2518 824,2518 810,2521 786,2505 754,2509 708,2503 674,2480 649,2447 636,2416 639,2393 644,2378 602,2377 578,2361 546,2328 541,2305 543,2291 497,2277 483,2254 471,2229 469,2207 438,2203 403,2171 394,2152 388,2138 353,2123 344,2110 340,2102 311,2109 297,2121 278,2134 272,2145 269,2128 274,2104 295,2089" id="SAINTOGAN_ZIGPUCE_ET_ALFRED_025_balloon_8">
            <metadata borderStyle="wavy" tailTip="278,2134" boundingBox="" tailDirection="S" rank="9"/>
        </polygon>
        <polygon points="173,2539 241,2534 319,2533 378,2532 424,2533 466,2531 502,2541 499,2576 497,2634 493,2681 497,2718 495,2757 490,2781 448,2785 451,2804 432,2825 413,2826 416,2842 429,2856 474,2875 439,2884 390,2857 377,2817 344,2823 204,2828 160,2801 155,2668 159,2617 161,2548 173,2539" id="SAINTOGAN_ZIGPUCE_ET_ALFRED_025_balloon_9">
            <metadata borderStyle="smooth" tailTip="474,2875" boundingBox="" tailDirection="SE" rank="10"/>
        </polygon>
        <polygon points="557,2528 679,2521 744,2522 802,2522 871,2521 890,2557 868,2584 821,2591 784,2588 782,2611 771,2641 749,2659 731,2668 726,2699 717,2670 691,2667 671,2652 659,2614 657,2593 614,2587 571,2587 545,2574 546,2545 557,2528" id="SAINTOGAN_ZIGPUCE_ET_ALFRED_025_balloon_10">
            <metadata borderStyle="smooth" tailTip="726,2699" boundingBox="" tailDirection="S" rank="11"/>
        </polygon>
        <polygon points="1652,2513 1697,2513 1755,2513 1816,2509 1882,2509 1908,2511 1957,2507 1998,2502 2026,2516 2022,2540 2028,2591 2026,2609 2020,2649 1983,2662 1950,2655 1897,2662 1857,2662 1818,2659 1808,2659 1807,2675 1815,2692 1808,2712 1808,2720 1797,2750 1785,2734 1789,2718 1774,2703 1783,2684 1771,2661 1724,2659 1678,2647 1636,2655 1610,2634 1627,2587 1614,2565 1614,2533 1652,2513" id="SAINTOGAN_ZIGPUCE_ET_ALFRED_025_balloon_11">
            <metadata borderStyle="smooth" tailTip="1797,2750" boundingBox="" tailDirection="S" rank="12"/>
        </polygon>
        <polygon points="2057,2494 2086,2489 2106,2491 2132,2497 2156,2495 2201,2492 2221,2485 2255,2486 2279,2489 2300,2490 2319,2488 2333,2484 2356,2485 2376,2495 2383,2736 2364,2770 2338,2777 2314,2780 2289,2773 2268,2772 2246,2774 2213,2777 2182,2777 2147,2781 2153,2796 2146,2814 2146,2827 2150,2842 2151,2859 2146,2875 2136,2861 2124,2836 2119,2817 2125,2787 2126,2778 2058,2778 2039,2757 2049,2684 2036,2637 2049,2575 2044,2526 2057,2494" id="SAINTOGAN_ZIGPUCE_ET_ALFRED_025_balloon_12">
            <metadata borderStyle="smooth" tailTip="2146,2875" boundingBox="" tailDirection="S" rank="13"/>
        </polygon>
        <polygon id="SAINTOGAN_ZIGPUCE_ET_ALFRED_025_balloon_13" points="1882,2820 1950,2813 2006,2816 2059,2814 2111,2827 2131,2862 2130,2905 2102,2936 2072,2942 2038,2942 2014,2946 1978,2946 1967,2947 1941,2965 1945,2979 1937,3012 1925,2993 1907,2977 1907,2954 1920,2944 1883,2941 1862,2911 1861,2860 1882,2820">
            <metadata borderStyle="smooth" tailTip="1937,3012" boundingBox="" tailDirection="S" rank="14"/>
        </polygon>
    </svg>
    <svg contentScriptType="text/ecmascript" zoomAndPan="magnify" contentStyleType="text/css" class="Character" preserveAspectRatio="xMidYMid meet" version="1.0">
        <polygon points="886,534 1243,534 1243,1057 886,1057 886,534" id="SAINTOGAN_ZIGPUCE_ET_ALFRED_025_character_0">
            <metadata uri="" area="" fillingPcent=""/>
        </polygon>
        <polygon points="1314,434 1600,434 1600,1055 1314,1055 1314,434" id="SAINTOGAN_ZIGPUCE_ET_ALFRED_025_character_1">
            <metadata uri="" area="" fillingPcent=""/>
        </polygon>
        <polygon points="1673,503 2035,503 2035,969 1673,969 1673,503" id="SAINTOGAN_ZIGPUCE_ET_ALFRED_025_character_2">
            <metadata uri="" area="" fillingPcent=""/>
        </polygon>
        <polygon points="1940,443 2284,443 2284,984 1940,984 1940,443" id="SAINTOGAN_ZIGPUCE_ET_ALFRED_025_character_3">
            <metadata uri="" area="" fillingPcent=""/>
        </polygon>
        <polygon points="194,1133 482,1133 482,1572 194,1572 194,1133" id="SAINTOGAN_ZIGPUCE_ET_ALFRED_025_character_4">
            <metadata uri="" area="" fillingPcent=""/>
        </polygon>
        <polygon points="513,1241 735,1241 735,1701 513,1701 513,1241" id="SAINTOGAN_ZIGPUCE_ET_ALFRED_025_character_5">
            <metadata uri="" area="" fillingPcent=""/>
        </polygon>
        <polygon points="620,1168 839,1168 839,1716 620,1716 620,1168" id="SAINTOGAN_ZIGPUCE_ET_ALFRED_025_character_6">
            <metadata uri="" area="" fillingPcent=""/>
        </polygon>
        <polygon points="145,1537 535,1537 535,1703 145,1703 145,1537" id="SAINTOGAN_ZIGPUCE_ET_ALFRED_025_character_7">
            <metadata uri="" area="" fillingPcent=""/>
        </polygon>
        <polygon points="886,1399 1125,1399 1125,1807 886,1807 886,1399" id="SAINTOGAN_ZIGPUCE_ET_ALFRED_025_character_8">
            <metadata uri="" area="" fillingPcent=""/>
        </polygon>
        <polygon points="1097,1514 1338,1514 1338,1794 1097,1794 1097,1514" id="SAINTOGAN_ZIGPUCE_ET_ALFRED_025_character_9">
            <metadata uri="" area="" fillingPcent=""/>
        </polygon>
        <polygon points="1203,1525 1500,1525 1500,1792 1203,1792 1203,1525" id="SAINTOGAN_ZIGPUCE_ET_ALFRED_025_character_10">
            <metadata uri="" area="" fillingPcent=""/>
        </polygon>
        <polygon points="1645,1386 1878,1386 1878,1792 1645,1792 1645,1386" id="SAINTOGAN_ZIGPUCE_ET_ALFRED_025_character_11">
            <metadata uri="" area="" fillingPcent=""/>
        </polygon>
        <polygon points="1884,1523 2059,1523 2059,1781 1884,1781 1884,1523" id="SAINTOGAN_ZIGPUCE_ET_ALFRED_025_character_12">
            <metadata uri="" area="" fillingPcent=""/>
        </polygon>
        <polygon points="1900,1497 2146,1497 2146,1787 1900,1787 1900,1497" id="SAINTOGAN_ZIGPUCE_ET_ALFRED_025_character_13">
            <metadata uri="" area="" fillingPcent=""/>
        </polygon>
        <polygon points="2199,1348 2357,1348 2357,1783 2199,1783 2199,1348" id="SAINTOGAN_ZIGPUCE_ET_ALFRED_025_character_14">
            <metadata uri="" area="" fillingPcent=""/>
        </polygon>
        <polygon points="229,2120 573,2120 573,2506 229,2506 229,2120" id="SAINTOGAN_ZIGPUCE_ET_ALFRED_025_character_15">
            <metadata uri="" area="" fillingPcent=""/>
        </polygon>
        <polygon points="160,2196 473,2196 473,2519 160,2519 160,2196" id="SAINTOGAN_ZIGPUCE_ET_ALFRED_025_character_16">
            <metadata uri="" area="" fillingPcent=""/>
        </polygon>
        <polygon points="389,2750 742,2750 742,3258 389,3258 389,2750" id="SAINTOGAN_ZIGPUCE_ET_ALFRED_025_character_17">
            <metadata uri="" area="" fillingPcent=""/>
        </polygon>
        <polygon points="626,2661 877,2661 877,3245 626,3245 626,2661" id="SAINTOGAN_ZIGPUCE_ET_ALFRED_025_character_18">
            <metadata uri="" area="" fillingPcent=""/>
        </polygon>
        <polygon points="915,2759 1125,2759 1125,3249 915,3249 915,2759" id="SAINTOGAN_ZIGPUCE_ET_ALFRED_025_character_19">
            <metadata uri="" area="" fillingPcent=""/>
        </polygon>
        <polygon points="1323,2775 1589,2775 1589,3238 1323,3238 1323,2775" id="SAINTOGAN_ZIGPUCE_ET_ALFRED_025_character_20">
            <metadata uri="" area="" fillingPcent=""/>
        </polygon>
        <polygon points="1154,2781 1330,2781 1330,3112 1154,3112 1154,2781" id="SAINTOGAN_ZIGPUCE_ET_ALFRED_025_character_21">
            <metadata uri="" area="" fillingPcent=""/>
        </polygon>
        <polygon points="1882,2934 2071,2934 2071,3225 1882,3225 1882,2934" id="SAINTOGAN_ZIGPUCE_ET_ALFRED_025_character_22">
            <metadata uri="" area="" fillingPcent=""/>
        </polygon>
        <polygon points="1665,2739 1842,2739 1842,3167 1665,3167 1665,2739" id="SAINTOGAN_ZIGPUCE_ET_ALFRED_025_character_23">
            <metadata uri="" area="" fillingPcent=""/>
        </polygon>
        <polygon points="2133,2764 2379,2764 2379,3214 2133,3214 2133,2764" id="SAINTOGAN_ZIGPUCE_ET_ALFRED_025_character_24">
            <metadata uri="" area="" fillingPcent=""/>
        </polygon>
    </svg>
    <svg contentScriptType="text/ecmascript" zoomAndPan="magnify" contentStyleType="text/css" class="Line" preserveAspectRatio="xMidYMid meet" version="1.0">
        <polygon points="619,122 1768,122 1768,252 619,252 619,122" id="SAINTOGAN_ZIGPUCE_ET_ALFRED_025_line_0">
            <metadata method="" typography="" textType="note">ZIG et PUCE</metadata>
        </polygon>
        <polygon points="561,263 1775,263 1775,357 561,357 561,263" id="SAINTOGAN_ZIGPUCE_ET_ALFRED_025_line_1">
            <metadata method="" typography="" textType="note">ALFRED REVIENT A LA VIE</metadata>
        </polygon>
        <polygon points="136,453 271,453 271,572 136,572 136,453" id="SAINTOGAN_ZIGPUCE_ET_ALFRED_025_line_2">
            <metadata method="" typography="" textType="narrative">A</metadata>
        </polygon>
        <polygon points="315,425 833,418 833,456 315,466 315,425" id="SAINTOGAN_ZIGPUCE_ET_ALFRED_025_line_3">
            <metadata method="" typography="" textType="narrative">LFRED NE VA PAS</metadata>
        </polygon>
        <polygon points="320,462 558,462 558,506 320,506 320,462" id="SAINTOGAN_ZIGPUCE_ET_ALFRED_025_line_4">
            <metadata method="" typography="" textType="narrative">MIEUX.</metadata>
        </polygon>
        <polygon points="362,505 833,499 833,544 362,560 362,505" id="SAINTOGAN_ZIGPUCE_ET_ALFRED_025_line_5">
            <metadata method="" typography="" textType="narrative">TRISTEMENT, LE</metadata>
        </polygon>
        <polygon points="323,550 836,545 836,593 323,599 323,550" id="SAINTOGAN_ZIGPUCE_ET_ALFRED_025_line_6">
            <metadata method="" typography="" textType="narrative">YATCH DE ZIG ET</metadata>
        </polygon>
        <polygon points="123,607 835,607 835,661 123,661 123,607" id="SAINTOGAN_ZIGPUCE_ET_ALFRED_025_line_7">
            <metadata method="" typography="" textType="narrative">PUCE REMONTE VERS L'AUS</metadata>
        </polygon>
        <polygon points="118,658 364,658 364,710 118,710 118,658" id="SAINTOGAN_ZIGPUCE_ET_ALFRED_025_line_8">
            <metadata method="" typography="" textType="narrative">TRALIE.</metadata>
        </polygon>
        <polygon points="894,417 1412,417 1412,453 894,453 894,417" id="SAINTOGAN_ZIGPUCE_ET_ALFRED_025_line_9">
            <metadata method="" typography="" idBalloon="SAINTOGAN_ZIGPUCE_ET_ALFRED_025_balloon_0" textType="speech">ZIG ! ZIG !..VIENS VITE..</metadata>
        </polygon>
        <polygon points="890,462 1354,462 1354,493 890,493 890,462" id="SAINTOGAN_ZIGPUCE_ET_ALFRED_025_line_10">
            <metadata method="" typography="" idBalloon="SAINTOGAN_ZIGPUCE_ET_ALFRED_025_balloon_0" textType="speech">ALFRED, NOTRE CHER</metadata>
        </polygon>
        <polygon points="893,500 1371,500 1371,533 893,533 893,500" id="SAINTOGAN_ZIGPUCE_ET_ALFRED_025_line_11">
            <metadata method="" typography="" idBalloon="SAINTOGAN_ZIGPUCE_ET_ALFRED_025_balloon_0" textType="speech">PETIT ALFRED NE BOU</metadata>
        </polygon>
        <polygon points="1177,539 1379,539 1379,581 1177,581 1177,539" id="SAINTOGAN_ZIGPUCE_ET_ALFRED_025_line_12">
            <metadata method="" typography="" idBalloon="SAINTOGAN_ZIGPUCE_ET_ALFRED_025_balloon_0" textType="speech">GE PLUS !...</metadata>
        </polygon>
        <polygon points="1634,399 1932,399 1932,437 1634,437 1634,399" id="SAINTOGAN_ZIGPUCE_ET_ALFRED_025_line_13">
            <metadata method="" typography="" idBalloon="SAINTOGAN_ZIGPUCE_ET_ALFRED_025_balloon_1" textType="speech">AH !.. MON DIEU,</metadata>
        </polygon>
        <polygon points="1643,440 1899,440 1899,469 1643,469 1643,440" id="SAINTOGAN_ZIGPUCE_ET_ALFRED_025_line_14">
            <metadata method="" typography="" idBalloon="SAINTOGAN_ZIGPUCE_ET_ALFRED_025_balloon_1" textType="speech">MON DIEU !..</metadata>
        </polygon>
        <polygon points="1987,386 2338,386 2338,419 1987,419 1987,386" id="SAINTOGAN_ZIGPUCE_ET_ALFRED_025_line_15">
            <metadata method="" typography="" idBalloon="SAINTOGAN_ZIGPUCE_ET_ALFRED_025_balloon_2" textType="speech">MAIS PARLE DONC</metadata>
        </polygon>
        <polygon points="2069,422 2338,422 2338,454 2069,459 2069,422" id="SAINTOGAN_ZIGPUCE_ET_ALFRED_025_line_16">
            <metadata method="" typography="" idBalloon="SAINTOGAN_ZIGPUCE_ET_ALFRED_025_balloon_2" textType="speech">PUCE !.. IL VA</metadata>
        </polygon>
        <polygon points="2081,456 2335,456 2335,505 2081,505 2081,456" id="SAINTOGAN_ZIGPUCE_ET_ALFRED_025_line_17">
            <metadata method="" typography="" idBalloon="SAINTOGAN_ZIGPUCE_ET_ALFRED_025_balloon_2" textType="speech">PLUS MAL ?..</metadata>
        </polygon>
        <polygon points="145,1127 276,1127 276,1170 145,1170 145,1127" id="SAINTOGAN_ZIGPUCE_ET_ALFRED_025_line_18">
            <metadata method="" typography="" idBalloon="SAINTOGAN_ZIGPUCE_ET_ALFRED_025_balloon_3" textType="speech">IL EST</metadata>
        </polygon>
        <polygon points="146,1170 243,1170 243,1203 146,1203 146,1170" id="SAINTOGAN_ZIGPUCE_ET_ALFRED_025_line_19">
            <metadata method="" typography="" idBalloon="SAINTOGAN_ZIGPUCE_ET_ALFRED_025_balloon_3" textType="speech">BIEN</metadata>
        </polygon>
        <polygon points="150,1215 268,1215 268,1244 150,1244 150,1215" id="SAINTOGAN_ZIGPUCE_ET_ALFRED_025_line_20">
            <metadata method="" typography="" idBalloon="SAINTOGAN_ZIGPUCE_ET_ALFRED_025_balloon_3" textType="speech">MORT.</metadata>
        </polygon>
        <polygon points="902,1140 1211,1140 1211,1174 902,1174 902,1140" id="SAINTOGAN_ZIGPUCE_ET_ALFRED_025_line_21">
            <metadata method="" typography="" idBalloon="SAINTOGAN_ZIGPUCE_ET_ALFRED_025_balloon_4" textType="speech">JE VAIS LE FAI-</metadata>
        </polygon>
        <polygon points="901,1181 1209,1181 1209,1211 901,1211 901,1181" id="SAINTOGAN_ZIGPUCE_ET_ALFRED_025_line_22">
            <metadata method="" typography="" idBalloon="SAINTOGAN_ZIGPUCE_ET_ALFRED_025_balloon_4" textType="speech">RE JETER A LA</metadata>
        </polygon>
        <polygon points="905,1221 1211,1221 1211,1253 905,1253 905,1221" id="SAINTOGAN_ZIGPUCE_ET_ALFRED_025_line_23">
            <metadata method="" typography="" idBalloon="SAINTOGAN_ZIGPUCE_ET_ALFRED_025_balloon_4" textType="speech">MER... C'EST TOU-</metadata>
        </polygon>
        <polygon points="901,1262 1225,1262 1225,1290 901,1290 901,1262" id="SAINTOGAN_ZIGPUCE_ET_ALFRED_025_line_24">
            <metadata method="" typography="" idBalloon="SAINTOGAN_ZIGPUCE_ET_ALFRED_025_balloon_4" textType="speech">JOURS COMME CE-</metadata>
        </polygon>
        <polygon points="900,1295 1203,1295 1203,1333 900,1333 900,1295" id="SAINTOGAN_ZIGPUCE_ET_ALFRED_025_line_25">
            <metadata method="" typography="" idBalloon="SAINTOGAN_ZIGPUCE_ET_ALFRED_025_balloon_4" textType="speech">LA DANS LA MA-</metadata>
        </polygon>
        <polygon points="908,1337 1016,1337 1016,1370 908,1370 908,1337" id="SAINTOGAN_ZIGPUCE_ET_ALFRED_025_line_26">
            <metadata method="" typography="" idBalloon="SAINTOGAN_ZIGPUCE_ET_ALFRED_025_balloon_4" textType="speech">RINE.</metadata>
        </polygon>
        <polygon points="1257,1335 1543,1335 1543,1375 1257,1375 1257,1335" id="SAINTOGAN_ZIGPUCE_ET_ALFRED_025_line_27">
            <metadata method="" typography="" idBalloon="SAINTOGAN_ZIGPUCE_ET_ALFRED_025_balloon_5" textType="speech">OH!.. NON...NON,</metadata>
        </polygon>
        <polygon points="1252,1380 1550,1382 1550,1413 1252,1415 1252,1380" id="SAINTOGAN_ZIGPUCE_ET_ALFRED_025_line_28">
            <metadata method="" typography="" idBalloon="SAINTOGAN_ZIGPUCE_ET_ALFRED_025_balloon_5" textType="speech">CAPITAINE...NOUS</metadata>
        </polygon>
        <polygon points="1251,1416 1547,1416 1547,1444 1251,1444 1251,1416" id="SAINTOGAN_ZIGPUCE_ET_ALFRED_025_line_29">
            <metadata method="" typography="" idBalloon="SAINTOGAN_ZIGPUCE_ET_ALFRED_025_balloon_5" textType="speech">LE RAMENERONS</metadata>
        </polygon>
        <polygon points="1250,1450 1546,1450 1546,1484 1250,1484 1250,1450" id="SAINTOGAN_ZIGPUCE_ET_ALFRED_025_line_30">
            <metadata method="" typography="" idBalloon="SAINTOGAN_ZIGPUCE_ET_ALFRED_025_balloon_5" textType="speech">EN FRANCE POUR</metadata>
        </polygon>
        <polygon points="1257,1488 1542,1488 1542,1518 1257,1518 1257,1488" id="SAINTOGAN_ZIGPUCE_ET_ALFRED_025_line_31">
            <metadata method="" typography="" idBalloon="SAINTOGAN_ZIGPUCE_ET_ALFRED_025_balloon_5" textType="speech">L'ENTERRER...</metadata>
        </polygon>
        <polygon points="1679,1136 2095,1136 2095,1183 1679,1183 1679,1136" id="SAINTOGAN_ZIGPUCE_ET_ALFRED_025_line_32">
            <metadata method="" typography="" idBalloon="SAINTOGAN_ZIGPUCE_ET_ALFRED_025_balloon_6" textType="speech">ECOUTEZ, POUR VOUS</metadata>
        </polygon>
        <polygon points="1683,1186 2109,1186 2109,1227 1683,1227 1683,1186" id="SAINTOGAN_ZIGPUCE_ET_ALFRED_025_line_33">
            <metadata method="" typography="" idBalloon="SAINTOGAN_ZIGPUCE_ET_ALFRED_025_balloon_6" textType="speech">FAIRE PLAISIR, NOUS</metadata>
        </polygon>
        <polygon points="1676,1226 2103,1226 2103,1262 1676,1262 1676,1226" id="SAINTOGAN_ZIGPUCE_ET_ALFRED_025_line_34">
            <metadata method="" typography="" idBalloon="SAINTOGAN_ZIGPUCE_ET_ALFRED_025_balloon_6" textType="speech">POUVONS PEUT-ETRE</metadata>
        </polygon>
        <polygon points="1674,1274 2129,1274 2129,1305 1674,1305 1674,1274" id="SAINTOGAN_ZIGPUCE_ET_ALFRED_025_line_35">
            <metadata method="" typography="" idBalloon="SAINTOGAN_ZIGPUCE_ET_ALFRED_025_balloon_6" textType="speech">ESSAYER DE LE CONSER-</metadata>
        </polygon>
        <polygon points="1674,1320 2114,1320 2114,1354 1674,1354 1674,1320" id="SAINTOGAN_ZIGPUCE_ET_ALFRED_025_line_36">
            <metadata method="" typography="" idBalloon="SAINTOGAN_ZIGPUCE_ET_ALFRED_025_balloon_6" textType="speech">VER DANS LE FRIGO-</metadata>
        </polygon>
        <polygon points="1849,1355 2035,1355 2035,1396 1849,1396 1849,1355" id="SAINTOGAN_ZIGPUCE_ET_ALFRED_025_line_37">
            <metadata method="" typography="" idBalloon="SAINTOGAN_ZIGPUCE_ET_ALFRED_025_balloon_6" textType="speech">RIFIQUE.</metadata>
        </polygon>
        <polygon points="155,1903 278,1903 278,1934 155,1934 155,1903" id="SAINTOGAN_ZIGPUCE_ET_ALFRED_025_line_38">
            <metadata method="" typography="" idBalloon="SAINTOGAN_ZIGPUCE_ET_ALFRED_025_balloon_7" textType="speech">NOTRE</metadata>
        </polygon>
        <polygon points="155,1946 283,1946 283,1974 155,1974 155,1946" id="SAINTOGAN_ZIGPUCE_ET_ALFRED_025_line_39">
            <metadata method="" typography="" idBalloon="SAINTOGAN_ZIGPUCE_ET_ALFRED_025_balloon_7" textType="speech">PAUVRE</metadata>
        </polygon>
        <polygon points="154,1981 263,1981 263,2015 154,2015 154,1981" id="SAINTOGAN_ZIGPUCE_ET_ALFRED_025_line_40">
            <metadata method="" typography="" idBalloon="SAINTOGAN_ZIGPUCE_ET_ALFRED_025_balloon_7" textType="speech">PETIT</metadata>
        </polygon>
        <polygon points="149,2018 287,2018 287,2047 149,2047 149,2018" id="SAINTOGAN_ZIGPUCE_ET_ALFRED_025_line_41">
            <metadata method="" typography="" idBalloon="SAINTOGAN_ZIGPUCE_ET_ALFRED_025_balloon_7" textType="speech">PINGOU-</metadata>
        </polygon>
        <polygon points="155,2047 244,2047 244,2084 155,2084 155,2047" id="SAINTOGAN_ZIGPUCE_ET_ALFRED_025_line_42">
            <metadata method="" typography="" idBalloon="SAINTOGAN_ZIGPUCE_ET_ALFRED_025_balloon_7" textType="speech">IN !..</metadata>
        </polygon>
        <polygon points="371,1879 570,1879 570,1915 371,1915 371,1879" id="SAINTOGAN_ZIGPUCE_ET_ALFRED_025_line_43">
            <metadata method="" typography="" idBalloon="SAINTOGAN_ZIGPUCE_ET_ALFRED_025_balloon_8" textType="speech">IL EST AU</metadata>
        </polygon>
        <polygon points="396,1921 564,1921 564,1955 396,1955 396,1921" id="SAINTOGAN_ZIGPUCE_ET_ALFRED_025_line_44">
            <metadata method="" typography="" idBalloon="SAINTOGAN_ZIGPUCE_ET_ALFRED_025_balloon_8" textType="speech">PARADIS</metadata>
        </polygon>
        <polygon points="370,1962 602,1962 602,2004 370,2004 370,1962" id="SAINTOGAN_ZIGPUCE_ET_ALFRED_025_line_45">
            <metadata method="" typography="" idBalloon="SAINTOGAN_ZIGPUCE_ET_ALFRED_025_balloon_8" textType="speech">DES BETES.</metadata>
        </polygon>
        <polygon points="176,2545 487,2545 487,2588 176,2588 176,2545" id="SAINTOGAN_ZIGPUCE_ET_ALFRED_025_line_46">
            <metadata method="" typography="" idBalloon="SAINTOGAN_ZIGPUCE_ET_ALFRED_025_balloon_9" textType="speech">C'EST CURIEUX,</metadata>
        </polygon>
        <polygon points="177,2588 470,2588 470,2627 177,2627 177,2588" id="SAINTOGAN_ZIGPUCE_ET_ALFRED_025_line_47">
            <metadata method="" typography="" idBalloon="SAINTOGAN_ZIGPUCE_ET_ALFRED_025_balloon_9" textType="speech">IL ME SEMBLE</metadata>
        </polygon>
        <polygon points="176,2639 470,2639 470,2675 176,2675 176,2639" id="SAINTOGAN_ZIGPUCE_ET_ALFRED_025_line_48">
            <metadata method="" typography="" idBalloon="SAINTOGAN_ZIGPUCE_ET_ALFRED_025_balloon_9" textType="speech">QUE QUELQUE</metadata>
        </polygon>
        <polygon points="182,2681 471,2681 471,2717 182,2717 182,2681" id="SAINTOGAN_ZIGPUCE_ET_ALFRED_025_line_49">
            <metadata method="" typography="" idBalloon="SAINTOGAN_ZIGPUCE_ET_ALFRED_025_balloon_9" textType="speech">CHOSE REMUE</metadata>
        </polygon>
        <polygon points="184,2724 471,2724 471,2755 184,2755 184,2724" id="SAINTOGAN_ZIGPUCE_ET_ALFRED_025_line_50">
            <metadata method="" typography="" idBalloon="SAINTOGAN_ZIGPUCE_ET_ALFRED_025_balloon_9" textType="speech">DANS LE FRI-</metadata>
        </polygon>
        <polygon points="183,2764 424,2764 424,2802 183,2802 183,2764" id="SAINTOGAN_ZIGPUCE_ET_ALFRED_025_line_51">
            <metadata method="" typography="" idBalloon="SAINTOGAN_ZIGPUCE_ET_ALFRED_025_balloon_9" textType="speech">GORIFIQUE.</metadata>
        </polygon>
        <polygon points="496,2652 575,2652 575,2690 496,2690 496,2652" id="SAINTOGAN_ZIGPUCE_ET_ALFRED_025_line_52">
            <metadata method="" typography="" textType="illustrative">IQUE</metadata>
        </polygon>
        <polygon points="573,2537 861,2537 861,2572 573,2572 573,2537" id="SAINTOGAN_ZIGPUCE_ET_ALFRED_025_line_53">
            <metadata method="" typography="" idBalloon="SAINTOGAN_ZIGPUCE_ET_ALFRED_025_balloon_10" textType="speech">FAUDRAIT VOIR</metadata>
        </polygon>
        <polygon points="689,2572 747,2572 747,2655 689,2655 689,2572" id="SAINTOGAN_ZIGPUCE_ET_ALFRED_025_line_54">
            <metadata method="" typography="" idBalloon="SAINTOGAN_ZIGPUCE_ET_ALFRED_025_balloon_10" textType="speech">?</metadata>
        </polygon>
        <polygon points="1125,2634 1366,2634 1366,2675 1125,2675 1125,2634" id="SAINTOGAN_ZIGPUCE_ET_ALFRED_025_line_55">
            <metadata method="" typography="" textType="illustrative">FRIGORIFIQUE</metadata>
        </polygon>
        <polygon points="999,2563 1043,2563 1043,2732 999,2732 999,2563" id="SAINTOGAN_ZIGPUCE_ET_ALFRED_025_line_56">
            <metadata method="" typography="" textType="onomatopoeia">!</metadata>
        </polygon>
        <polygon points="1487,2569 1531,2569 1531,2744 1487,2744 1487,2569" id="SAINTOGAN_ZIGPUCE_ET_ALFRED_025_line_57">
            <metadata method="" typography="" textType="onomatopoeia">!</metadata>
        </polygon>
        <polygon points="1640,2518 1982,2518 1982,2568 1640,2570 1640,2518" id="SAINTOGAN_ZIGPUCE_ET_ALFRED_025_line_58">
            <metadata method="" typography="" idBalloon="SAINTOGAN_ZIGPUCE_ET_ALFRED_025_balloon_11" textType="speech">EST-CE POSSIBLE ?</metadata>
        </polygon>
        <polygon points="1646,2581 1981,2581 1981,2634 1646,2634 1646,2581" id="SAINTOGAN_ZIGPUCE_ET_ALFRED_025_line_59">
            <metadata method="" typography="" idBalloon="SAINTOGAN_ZIGPUCE_ET_ALFRED_025_balloon_11" textType="speech">C'EST ALFRED</metadata>
        </polygon>
        <polygon points="1978,2525 2009,2525 2009,2630 1978,2630 1978,2525" id="SAINTOGAN_ZIGPUCE_ET_ALFRED_025_line_60">
            <metadata method="" typography="" idBalloon="SAINTOGAN_ZIGPUCE_ET_ALFRED_025_balloon_11" textType="speech">!</metadata>
        </polygon>
        <polygon points="2067,2508 2343,2508 2343,2557 2067,2557 2067,2508" id="SAINTOGAN_ZIGPUCE_ET_ALFRED_025_line_61">
            <metadata method="" typography="" idBalloon="SAINTOGAN_ZIGPUCE_ET_ALFRED_025_balloon_12" textType="speech">VIVANT !.. IL</metadata>
        </polygon>
        <polygon points="2067,2558 2351,2558 2351,2596 2067,2596 2067,2558" id="SAINTOGAN_ZIGPUCE_ET_ALFRED_025_line_62">
            <metadata method="" typography="" idBalloon="SAINTOGAN_ZIGPUCE_ET_ALFRED_025_balloon_12" textType="speech">EST VIVANT !..</metadata>
        </polygon>
        <polygon points="2070,2598 2354,2598 2354,2638 2070,2638 2070,2598" id="SAINTOGAN_ZIGPUCE_ET_ALFRED_025_line_63">
            <metadata method="" typography="" idBalloon="SAINTOGAN_ZIGPUCE_ET_ALFRED_025_balloon_12" textType="speech">IL N'ETAIT PAS</metadata>
        </polygon>
        <polygon points="2059,2641 2374,2641 2374,2679 2059,2679 2059,2641" id="SAINTOGAN_ZIGPUCE_ET_ALFRED_025_line_64">
            <metadata method="" typography="" idBalloon="SAINTOGAN_ZIGPUCE_ET_ALFRED_025_balloon_12" textType="speech">TOUT A FAIT MORT</metadata>
        </polygon>
        <polygon points="2069,2679 2349,2679 2349,2718 2069,2718 2069,2679" id="SAINTOGAN_ZIGPUCE_ET_ALFRED_025_line_65">
            <metadata method="" typography="" idBalloon="SAINTOGAN_ZIGPUCE_ET_ALFRED_025_balloon_12" textType="speech">LE FROID L'A</metadata>
        </polygon>
        <polygon points="2066,2712 2210,2712 2210,2763 2066,2763 2066,2712" id="SAINTOGAN_ZIGPUCE_ET_ALFRED_025_line_66">
            <metadata method="" typography="" idBalloon="SAINTOGAN_ZIGPUCE_ET_ALFRED_025_balloon_12" textType="speech">GUERI.</metadata>
        </polygon>
        <polygon points="1892,2831 2130,2831 2130,2869 1892,2869 1892,2831" id="SAINTOGAN_ZIGPUCE_ET_ALFRED_025_line_67">
            <metadata method="" typography="" idBalloon="SAINTOGAN_ZIGPUCE_ET_ALFRED_025_balloon_13" textType="speech">CA VA BEAU-</metadata>
        </polygon>
        <polygon points="1880,2878 2121,2878 2121,2913 1880,2913 1880,2878" id="SAINTOGAN_ZIGPUCE_ET_ALFRED_025_line_68">
            <metadata method="" typography="" idBalloon="SAINTOGAN_ZIGPUCE_ET_ALFRED_025_balloon_13" textType="speech">COUP MIEUX!</metadata>
        </polygon>
        <polygon points="1211,3293 1256,3293 1256,3332 1211,3332 1211,3293" id="SAINTOGAN_ZIGPUCE_ET_ALFRED_025_line_69">
            <metadata method="" typography="" textType="speech">25</metadata>
        </polygon>
    </svg>
    <svg contentScriptType="text/ecmascript" zoomAndPan="magnify" contentStyleType="text/css" class="linkSBSC" preserveAspectRatio="xMidYMid meet" version="1.0">
    <polygon points="1148,527 1149,527 1065,795 1064,795 1148,527" idCharacter="SAINTOGAN_ZIGPUCE_ET_ALFRED_025_character_0" idBalloon="SAINTOGAN_ZIGPUCE_ET_ALFRED_025_balloon_0"/>
    <polygon points="1783,477 1784,477 1855,736 1854,736 1783,477" idCharacter="SAINTOGAN_ZIGPUCE_ET_ALFRED_025_character_2" idBalloon="SAINTOGAN_ZIGPUCE_ET_ALFRED_025_balloon_1"/>
    <polygon points="2151,445 2152,445 2113,713 2112,713 2151,445" idCharacter="SAINTOGAN_ZIGPUCE_ET_ALFRED_025_character_3" idBalloon="SAINTOGAN_ZIGPUCE_ET_ALFRED_025_balloon_2"/>
    <polygon points="229,1195 230,1195 339,1352 338,1352 229,1195" idCharacter="SAINTOGAN_ZIGPUCE_ET_ALFRED_025_character_4" idBalloon="SAINTOGAN_ZIGPUCE_ET_ALFRED_025_balloon_3"/>
    <polygon points="1060,1289 1061,1289 1006,1603 1005,1603 1060,1289" idCharacter="SAINTOGAN_ZIGPUCE_ET_ALFRED_025_character_8" idBalloon="SAINTOGAN_ZIGPUCE_ET_ALFRED_025_balloon_4"/>
    <polygon points="1375,1433 1376,1433 1218,1654 1217,1654 1375,1433" idCharacter="SAINTOGAN_ZIGPUCE_ET_ALFRED_025_character_9" idBalloon="SAINTOGAN_ZIGPUCE_ET_ALFRED_025_balloon_5"/>
    <polygon points="1897,1310 1898,1310 1762,1589 1761,1589 1897,1310" idCharacter="SAINTOGAN_ZIGPUCE_ET_ALFRED_025_character_11" idBalloon="SAINTOGAN_ZIGPUCE_ET_ALFRED_025_balloon_6"/>
    <polygon points="221,2038 222,2038 317,2357 316,2357 221,2038" idCharacter="SAINTOGAN_ZIGPUCE_ET_ALFRED_025_character_16" idBalloon="SAINTOGAN_ZIGPUCE_ET_ALFRED_025_balloon_7"/>
    <polygon points="1326,2154 1327,2154 402,2313 401,2313 1326,2154" idCharacter="SAINTOGAN_ZIGPUCE_ET_ALFRED_025_character_15" idBalloon="SAINTOGAN_ZIGPUCE_ET_ALFRED_025_balloon_8"/>
    <polygon points="717,2610 718,2610 752,2953 751,2953 717,2610" idCharacter="SAINTOGAN_ZIGPUCE_ET_ALFRED_025_character_18" idBalloon="SAINTOGAN_ZIGPUCE_ET_ALFRED_025_balloon_10"/>
    <polygon points="328,2707 329,2707 566,3004 565,3004 328,2707" idCharacter="SAINTOGAN_ZIGPUCE_ET_ALFRED_025_character_17" idBalloon="SAINTOGAN_ZIGPUCE_ET_ALFRED_025_balloon_9"/>
    <polygon points="1819,2626 1820,2626 1754,2953 1753,2953 1819,2626" idCharacter="SAINTOGAN_ZIGPUCE_ET_ALFRED_025_character_23" idBalloon="SAINTOGAN_ZIGPUCE_ET_ALFRED_025_balloon_11"/>
    <polygon points="1996,2912 1997,2912 1977,3079 1976,3079 1996,2912" idCharacter="SAINTOGAN_ZIGPUCE_ET_ALFRED_025_character_22" idBalloon="SAINTOGAN_ZIGPUCE_ET_ALFRED_025_balloon_13"/>
    <polygon points="2209,2679 2210,2679 2257,2989 2256,2989 2209,2679" idCharacter="SAINTOGAN_ZIGPUCE_ET_ALFRED_025_character_24" idBalloon="SAINTOGAN_ZIGPUCE_ET_ALFRED_025_balloon_12"/>
  </svg>
<metadata method="GroundTruth" lastModificationDate="Wed Jan 29 19:36:59 CET 2014" lastStepModified="Balloon_Rank"/>
</svg>