<?xml version="1.0" encoding="UTF-8" standalone="no"?>
<svg xmlns="http://www.w3.org/2000/svg" xmlns:xlink="http://www.w3.org/1999/xlink" contentScriptType="text/ecmascript" width="2660mm" zoomAndPan="magnify" contentStyleType="text/css" height="1816mm" viewBox="0 0 5320 3632" preserveAspectRatio="xMidYMid meet" version="1.0">
    <title>SAINTOGAN_PROSPER_ET_LE_MONSTRE_MARIN_036</title>
    <svg contentScriptType="text/ecmascript" zoomAndPan="magnify" contentStyleType="text/css" class="Page" preserveAspectRatio="xMidYMid meet" version="1.0">
        <image x="0" y="0" fill-opacity="0.5" width="5320" xlink:href="../Pages/SAINTOGAN_PROSPER_ET_LE_MONSTRE_MARIN_036.jpg" xlink:type="simple" xlink:actuate="onLoad" height="3632" opacity="0.5" preserveAspectRatio="xMidYMid meet" xlink:show="embed"/>
        <metadata collectionTitle="Zig Et Puce" editorName="Hachette" doublePage="true" website="http://collections.citebd.org/saintogan/www/fonds.php" albumTitle="Prosper Et Le Monstre Marin" drawerName="Alain Saint Ogan" language="french" resolution="600" ISBN="" readingDirection="leftToRight" writerName="Alain Saint Ogan" releaseDate="1934" pageNumber="36"/>
    </svg>
	<style type="text/css" xml:space="preserve">
        * { stroke-width: 0; stroke-linejoin: round; }
        .Unclassified { fill: orange; stroke: none; opacity: 1.0; visibility: hidden; }
        .Noise { fill: pink; stroke: none; opacity: 0.2; visibility: hidden; }
        .Panel { fill: red; stroke: none; opacity: 0.3; visibility: visible; image-rendering: optimizeSpeed; }
        .Line { fill: green; stroke: none; opacity: 0.5; visibility: visible; image-rendering: optimizeSpeed; }
        .TextArea { fill: grey; stroke: none; opacity: 0.2; visibility: visible; image-rendering: optimizeSpeed; }
        .Balloon { fill: cyan; stroke: none; opacity: 0.5; visibility: visible; image-rendering: optimizeSpeed; }
        .Letter { fill: blue; stroke: none; opacity: 0.2; visibility: hidden; }
        .Character { fill: yellow; stroke: none; opacity: 0.3; visibility: visible; image-rendering: optimizeSpeed; }
        .Page { fill: white; stroke: none; opacity: 0.5; visibility: visible; }
        .linkSBSC { fill: blue; stroke: none; opacity: 0.5; visibility: visible; }
        polygon:hover { stroke:red;stroke-width:2; } 
    </style><svg contentScriptType="text/ecmascript" zoomAndPan="magnify" contentStyleType="text/css" class="Panel" preserveAspectRatio="xMidYMid meet" version="1.0">
        <polygon points="400,463 958,472 945,1431 396,1426 400,463" id="SAINTOGAN_PROSPER_ET_LE_MONSTRE_MARIN_036_panel_0">
            <metadata viewAngle="" shot="" rank="1"/>
        </polygon>
        <polygon points="769,274 1440,274 1440,967 769,967 769,274" id="SAINTOGAN_PROSPER_ET_LE_MONSTRE_MARIN_036_panel_1">
            <metadata viewAngle="" shot="" rank="2"/>
        </polygon>
        <polygon points="837,283 2551,283 2551,1827 837,1827 837,283" id="SAINTOGAN_PROSPER_ET_LE_MONSTRE_MARIN_036_panel_2">
            <metadata viewAngle="" shot="" rank="3"/>
        </polygon>
        <polygon points="2880,301 5040,310 5036,1413 2885,1413 2880,301" id="SAINTOGAN_PROSPER_ET_LE_MONSTRE_MARIN_036_panel_3">
            <metadata viewAngle="" shot="" rank="6"/>
        </polygon>
        <polygon points="3546,1417 4397,1417 4397,2421 3542,2407 3546,1417" id="SAINTOGAN_PROSPER_ET_LE_MONSTRE_MARIN_036_panel_4">
            <metadata viewAngle="" shot="" rank="8"/>
        </polygon>
        <polygon points="3735,1417 5031,1417 5031,3262 3735,3262 3735,1417" id="SAINTOGAN_PROSPER_ET_LE_MONSTRE_MARIN_036_panel_5">
            <metadata viewAngle="" shot="" rank="9"/>
        </polygon>
        <polygon points="387,1791 1534,1813 1512,2807 378,2785 387,1791" id="SAINTOGAN_PROSPER_ET_LE_MONSTRE_MARIN_036_panel_6">
            <metadata viewAngle="" shot="" rank="4"/>
        </polygon>
        <polygon points="2533,2110 2529,3321 985,3307 1044,2092 2533,2110" id="SAINTOGAN_PROSPER_ET_LE_MONSTRE_MARIN_036_panel_7">
            <metadata viewAngle="" shot="" rank="5"/>
        </polygon>
        <polygon points="2885,1597 3735,1597 3735,3145 2885,3145 2885,1597" id="SAINTOGAN_PROSPER_ET_LE_MONSTRE_MARIN_036_panel_8">
            <metadata viewAngle="" shot="" rank="7"/>
        </polygon>
    </svg>
    <svg contentScriptType="text/ecmascript" zoomAndPan="magnify" contentStyleType="text/css" class="TextArea" preserveAspectRatio="xMidYMid meet" version="1.0"/>
    <svg contentScriptType="text/ecmascript" zoomAndPan="magnify" contentStyleType="text/css" class="Balloon" preserveAspectRatio="xMidYMid meet" version="1.0">
        <polygon points="400,1425 850,1430 850,1808 390,1803 400,1425" id="SAINTOGAN_PROSPER_ET_LE_MONSTRE_MARIN_036_balloon_0">
            <metadata borderStyle="smooth" tailTip="" boundingBox="" tailDirection="none" rank="1"/>
        </polygon>
        <polygon points="1534,1805 2546,1827 2542,2122 1530,2104 1534,1805 1534,1805" id="SAINTOGAN_PROSPER_ET_LE_MONSTRE_MARIN_036_balloon_1">
            <metadata borderStyle="smooth" tailTip="" boundingBox="" tailDirection="none" rank="2"/>
        </polygon>
        <polygon points="380,2781 1009,2790 1006,3317 365,3301 380,2781" id="SAINTOGAN_PROSPER_ET_LE_MONSTRE_MARIN_036_balloon_2">
            <metadata borderStyle="smooth" tailTip="" boundingBox="" tailDirection="none" rank="3"/>
        </polygon>
        <polygon points="1474,3196 2319,3203 2309,3323 1468,3309 1474,3196" id="SAINTOGAN_PROSPER_ET_LE_MONSTRE_MARIN_036_balloon_3">
            <metadata borderStyle="smooth" tailTip="" boundingBox="" tailDirection="none" rank="4"/>
        </polygon>
        <polygon points="2882,1410 3554,1415 3552,1612 2876,1606 2882,1410" id="SAINTOGAN_PROSPER_ET_LE_MONSTRE_MARIN_036_balloon_4">
            <metadata borderStyle="smooth" tailTip="" boundingBox="" tailDirection="none" rank="5"/>
        </polygon>
        <polygon points="3756,2434 4227,2436 4228,2498 3756,2497 3756,2434 3756,2434" id="SAINTOGAN_PROSPER_ET_LE_MONSTRE_MARIN_036_balloon_5">
            <metadata borderStyle="smooth" tailTip="" boundingBox="" tailDirection="none" rank="6"/>
        </polygon>
        <polygon points="2910,3167 3734,3168 3734,3335 2905,3329 2910,3167" id="SAINTOGAN_PROSPER_ET_LE_MONSTRE_MARIN_036_balloon_6">
            <metadata borderStyle="smooth" tailTip="" boundingBox="" tailDirection="none" rank="7"/>
        </polygon>
        <polygon points="3901,3257 4864,3261 4872,3337 3908,3333 3901,3257" id="SAINTOGAN_PROSPER_ET_LE_MONSTRE_MARIN_036_balloon_7">
            <metadata borderStyle="smooth" tailTip="" boundingBox="" tailDirection="none" rank="8"/>
        </polygon>
    </svg>
    <svg contentScriptType="text/ecmascript" zoomAndPan="magnify" contentStyleType="text/css" class="Character" preserveAspectRatio="xMidYMid meet" version="1.0">
        <polygon points="446,581 821,581 821,1200 446,1200 446,581" id="SAINTOGAN_PROSPER_ET_LE_MONSTRE_MARIN_036_character_0">
            <metadata uri="" area="" fillingPcent=""/>
        </polygon>
        <polygon points="975,310 1394,310 1394,951 975,951 975,310" id="SAINTOGAN_PROSPER_ET_LE_MONSTRE_MARIN_036_character_1">
            <metadata uri="" area="" fillingPcent=""/>
        </polygon>
        <polygon points="964,1115 1405,1115 1405,1723 964,1723 964,1115" id="SAINTOGAN_PROSPER_ET_LE_MONSTRE_MARIN_036_character_2">
            <metadata uri="" area="" fillingPcent=""/>
        </polygon>
        <polygon points="1391,970 1799,970 1799,1671 1391,1671 1391,970" id="SAINTOGAN_PROSPER_ET_LE_MONSTRE_MARIN_036_character_3">
            <metadata uri="" area="" fillingPcent=""/>
        </polygon>
        <polygon points="909,2255 1194,2255 1194,2583 909,2583 909,2255" id="SAINTOGAN_PROSPER_ET_LE_MONSTRE_MARIN_036_character_4">
            <metadata uri="" area="" fillingPcent=""/>
        </polygon>
        <polygon points="662,2255 890,2255 890,2622 662,2622 662,2255" id="SAINTOGAN_PROSPER_ET_LE_MONSTRE_MARIN_036_character_5">
            <metadata uri="" area="" fillingPcent=""/>
        </polygon>
        <polygon points="520,1858 1161,1858 1161,2334 520,2334 520,1858" id="SAINTOGAN_PROSPER_ET_LE_MONSTRE_MARIN_036_character_6">
            <metadata uri="" area="" fillingPcent=""/>
        </polygon>
        <polygon points="1210,2143 2045,2143 2045,3074 1210,3074 1210,2143" id="SAINTOGAN_PROSPER_ET_LE_MONSTRE_MARIN_036_character_7">
            <metadata uri="" area="" fillingPcent=""/>
        </polygon>
        <polygon points="1985,2633 2188,2633 2188,3038 1985,3038 1985,2633" id="SAINTOGAN_PROSPER_ET_LE_MONSTRE_MARIN_036_character_8">
            <metadata uri="" area="" fillingPcent=""/>
        </polygon>
        <polygon points="3897,2835 4193,2835 4193,3222 3897,3222 3897,2835" id="SAINTOGAN_PROSPER_ET_LE_MONSTRE_MARIN_036_character_9">
            <metadata uri="" area="" fillingPcent=""/>
        </polygon>
        <polygon points="4283,1567 4957,1567 4957,3202 4283,3202 4283,1567" id="SAINTOGAN_PROSPER_ET_LE_MONSTRE_MARIN_036_character_10">
            <metadata uri="" area="" fillingPcent=""/>
        </polygon>
        <polygon points="3407,2466 3705,2466 3705,2814 3407,2814 3407,2466" id="SAINTOGAN_PROSPER_ET_LE_MONSTRE_MARIN_036_character_11">
            <metadata uri="" area="" fillingPcent=""/>
        </polygon>
        <polygon points="3538,1526 3941,1526 3941,2405 3538,2405 3538,1526" id="SAINTOGAN_PROSPER_ET_LE_MONSTRE_MARIN_036_character_12">
            <metadata uri="" area="" fillingPcent=""/>
        </polygon>
        <polygon points="3837,1551 4294,1551 4294,2162 3837,2162 3837,1551" id="SAINTOGAN_PROSPER_ET_LE_MONSTRE_MARIN_036_character_13">
            <metadata uri="" area="" fillingPcent=""/>
        </polygon>
        <polygon points="4209,570 4530,570 4530,1209 4209,1209 4209,570" id="SAINTOGAN_PROSPER_ET_LE_MONSTRE_MARIN_036_character_14">
            <metadata uri="" area="" fillingPcent=""/>
        </polygon>
        <polygon points="4601,688 4938,688 4938,1272 4601,1272 4601,688" id="SAINTOGAN_PROSPER_ET_LE_MONSTRE_MARIN_036_character_15">
            <metadata uri="" area="" fillingPcent=""/>
        </polygon>
        <polygon points="2963,1759 3524,1759 3524,2970 2963,2970 2963,1759" id="SAINTOGAN_PROSPER_ET_LE_MONSTRE_MARIN_036_character_16">
            <metadata uri="" area="" fillingPcent=""/>
        </polygon>
    </svg>
    <svg contentScriptType="text/ecmascript" zoomAndPan="magnify" contentStyleType="text/css" class="Line" preserveAspectRatio="xMidYMid meet" version="1.0">
        <polygon points="400,1476 828,1476 828,1521 400,1521 400,1476" id="SAINTOGAN_PROSPER_ET_LE_MONSTRE_MARIN_036_line_0">
            <metadata method="" typography="" idBalloon="SAINTOGAN_PROSPER_ET_LE_MONSTRE_MARIN_036_balloon_0" textType="speech">Prosper. - Avec la</metadata>
        </polygon>
        <polygon points="441,1530 832,1530 832,1570 441,1570 441,1530" id="SAINTOGAN_PROSPER_ET_LE_MONSTRE_MARIN_036_line_1">
            <metadata method="" typography="" idBalloon="SAINTOGAN_PROSPER_ET_LE_MONSTRE_MARIN_036_balloon_0" textType="speech">prime que j'ai tou-</metadata>
        </polygon>
        <polygon points="436,1575 832,1575 832,1611 436,1611 436,1575" id="SAINTOGAN_PROSPER_ET_LE_MONSTRE_MARIN_036_line_2">
            <metadata method="" typography="" idBalloon="SAINTOGAN_PROSPER_ET_LE_MONSTRE_MARIN_036_balloon_0" textType="speech">chée pour la cap-</metadata>
        </polygon>
        <polygon points="441,1620 832,1620 832,1651 441,1651 441,1620" id="SAINTOGAN_PROSPER_ET_LE_MONSTRE_MARIN_036_line_3">
            <metadata method="" typography="" idBalloon="SAINTOGAN_PROSPER_ET_LE_MONSTRE_MARIN_036_balloon_0" textType="speech">ture du monstre</metadata>
        </polygon>
        <polygon points="436,1660 828,1660 828,1696 436,1696 436,1660" id="SAINTOGAN_PROSPER_ET_LE_MONSTRE_MARIN_036_line_4">
            <metadata method="" typography="" idBalloon="SAINTOGAN_PROSPER_ET_LE_MONSTRE_MARIN_036_balloon_0" textType="speech">du Loch Ness, me</metadata>
        </polygon>
        <polygon points="499,1705 778,1705 778,1741 499,1741 499,1705" id="SAINTOGAN_PROSPER_ET_LE_MONSTRE_MARIN_036_line_5">
            <metadata method="" typography="" idBalloon="SAINTOGAN_PROSPER_ET_LE_MONSTRE_MARIN_036_balloon_0" textType="speech">voici à l'aise</metadata>
        </polygon>
        <polygon points="1557,1899 2529,1899 2529,1953 1557,1953 1557,1899" id="SAINTOGAN_PROSPER_ET_LE_MONSTRE_MARIN_036_line_6">
            <metadata method="" typography="" idBalloon="SAINTOGAN_PROSPER_ET_LE_MONSTRE_MARIN_036_balloon_1" textType="speech">Prosper. - évidemment je peux pas le</metadata>
        </polygon>
        <polygon points="1606,1957 2529,1957 2529,1998 1606,1998 1606,1957" id="SAINTOGAN_PROSPER_ET_LE_MONSTRE_MARIN_036_line_7">
            <metadata method="" typography="" idBalloon="SAINTOGAN_PROSPER_ET_LE_MONSTRE_MARIN_036_balloon_1" textType="speech">laisser dans l'état où il est, ce pauvre</metadata>
        </polygon>
        <polygon points="1692,2002 2434,2002 2434,2038 1692,2038 1692,2002" id="SAINTOGAN_PROSPER_ET_LE_MONSTRE_MARIN_036_line_8">
            <metadata method="" typography="" idBalloon="SAINTOGAN_PROSPER_ET_LE_MONSTRE_MARIN_036_balloon_1" textType="speech">monstre... Il lui faut un vêtement.</metadata>
        </polygon>
        <polygon points="2214,2529 2466,2452 2470,2587 2218,2587 2214,2529" id="SAINTOGAN_PROSPER_ET_LE_MONSTRE_MARIN_036_line_9">
            <metadata method="" typography="" textType="illustrative">AEIOU</metadata>
        </polygon>
        <polygon points="382,2835 985,2835 985,2875 382,2875 382,2835" id="SAINTOGAN_PROSPER_ET_LE_MONSTRE_MARIN_036_line_10">
            <metadata method="" typography="" idBalloon="SAINTOGAN_PROSPER_ET_LE_MONSTRE_MARIN_036_balloon_2" textType="speech">Prosper. - Monsieur, je</metadata>
        </polygon>
        <polygon points="427,2875 981,2875 981,2925 427,2925 427,2875" id="SAINTOGAN_PROSPER_ET_LE_MONSTRE_MARIN_036_line_11">
            <metadata method="" typography="" idBalloon="SAINTOGAN_PROSPER_ET_LE_MONSTRE_MARIN_036_balloon_2" textType="speech">voudrais que vous fissiez</metadata>
        </polygon>
        <polygon points="423,2920 981,2920 981,2965 423,2965 423,2920" id="SAINTOGAN_PROSPER_ET_LE_MONSTRE_MARIN_036_line_12">
            <metadata method="" typography="" idBalloon="SAINTOGAN_PROSPER_ET_LE_MONSTRE_MARIN_036_balloon_2" textType="speech">un complet pour un de mes</metadata>
        </polygon>
        <polygon points="427,2970 981,2970 981,3010 427,3010 427,2970" id="SAINTOGAN_PROSPER_ET_LE_MONSTRE_MARIN_036_line_13">
            <metadata method="" typography="" idBalloon="SAINTOGAN_PROSPER_ET_LE_MONSTRE_MARIN_036_balloon_2" textType="speech">amis...seulement, je vous</metadata>
        </polygon>
        <polygon points="427,3010 985,3010 985,3055 427,3055 427,3010" id="SAINTOGAN_PROSPER_ET_LE_MONSTRE_MARIN_036_line_14">
            <metadata method="" typography="" idBalloon="SAINTOGAN_PROSPER_ET_LE_MONSTRE_MARIN_036_balloon_2" textType="speech">préviens, il est gros.</metadata>
        </polygon>
        <polygon points="373,3055 976,3055 976,3100 373,3100 373,3055" id="SAINTOGAN_PROSPER_ET_LE_MONSTRE_MARIN_036_line_15">
            <metadata method="" typography="" idBalloon="SAINTOGAN_PROSPER_ET_LE_MONSTRE_MARIN_036_balloon_2" textType="speech">Le tailleur. - Oh! j'ai la</metadata>
        </polygon>
        <polygon points="418,3100 981,3100 981,3141 418,3141 418,3100" id="SAINTOGAN_PROSPER_ET_LE_MONSTRE_MARIN_036_line_16">
            <metadata method="" typography="" idBalloon="SAINTOGAN_PROSPER_ET_LE_MONSTRE_MARIN_036_balloon_2" textType="speech">clientèle de plusieurs mes-</metadata>
        </polygon>
        <polygon points="423,3141 976,3141 976,3186 423,3186 423,3141" id="SAINTOGAN_PROSPER_ET_LE_MONSTRE_MARIN_036_line_17">
            <metadata method="" typography="" idBalloon="SAINTOGAN_PROSPER_ET_LE_MONSTRE_MARIN_036_balloon_2" textType="speech">sieurs Eléphants!... Où</metadata>
        </polygon>
        <polygon points="405,3195 985,3195 985,3235 405,3235 405,3195" id="SAINTOGAN_PROSPER_ET_LE_MONSTRE_MARIN_036_line_18">
            <metadata method="" typography="" idBalloon="SAINTOGAN_PROSPER_ET_LE_MONSTRE_MARIN_036_balloon_2" textType="speech">est-il. Monsieur votre</metadata>
        </polygon>
        <polygon points="490,3231 895,3231 895,3276 490,3276 490,3231" id="SAINTOGAN_PROSPER_ET_LE_MONSTRE_MARIN_036_line_19">
            <metadata method="" typography="" idBalloon="SAINTOGAN_PROSPER_ET_LE_MONSTRE_MARIN_036_balloon_2" textType="speech">ami? - Le voici.</metadata>
        </polygon>
        <polygon points="1485,3204 2304,3204 2304,3244 1485,3244 1485,3204" id="SAINTOGAN_PROSPER_ET_LE_MONSTRE_MARIN_036_line_20">
            <metadata method="" typography="" idBalloon="SAINTOGAN_PROSPER_ET_LE_MONSTRE_MARIN_036_balloon_3" textType="narrative">En attendant son costume, le monstre</metadata>
        </polygon>
        <polygon points="1521,3244 2259,3244 2259,3298 1521,3298 1521,3244" id="SAINTOGAN_PROSPER_ET_LE_MONSTRE_MARIN_036_line_21">
            <metadata method="" typography="" idBalloon="SAINTOGAN_PROSPER_ET_LE_MONSTRE_MARIN_036_balloon_3" textType="narrative">du Loch Ness apprend ses lettres.</metadata>
        </polygon>
        <polygon points="3474,751 3807,751 3807,864 3474,864 3474,751" id="SAINTOGAN_PROSPER_ET_LE_MONSTRE_MARIN_036_line_22">
            <metadata method="" typography="" textType="illustrative">SAÏGA</metadata>
        </polygon>
        <polygon points="3452,801 3717,859 3677,895 3425,850 3452,801" id="SAINTOGAN_PROSPER_ET_LE_MONSTRE_MARIN_036_line_23">
            <metadata method="" typography="" textType="illustrative">TAILLEUR</metadata>
        </polygon>
        <polygon points="2907,1453 3510,1453 3510,1498 2907,1498 2907,1453" id="SAINTOGAN_PROSPER_ET_LE_MONSTRE_MARIN_036_line_24">
            <metadata method="" typography="" idBalloon="SAINTOGAN_PROSPER_ET_LE_MONSTRE_MARIN_036_balloon_4" textType="speech">Le tailleur. - Voilà le cos-</metadata>
        </polygon>
        <polygon points="2952,1507 3515,1507 3515,1543 2952,1543 2952,1507" id="SAINTOGAN_PROSPER_ET_LE_MONSTRE_MARIN_036_line_25">
            <metadata method="" typography="" idBalloon="SAINTOGAN_PROSPER_ET_LE_MONSTRE_MARIN_036_balloon_4" textType="speech">tume de Monsieur de Loch</metadata>
        </polygon>
        <polygon points="3159,1548 3294,1548 3294,1597 3159,1597 3159,1548" id="SAINTOGAN_PROSPER_ET_LE_MONSTRE_MARIN_036_line_26">
            <metadata method="" typography="" idBalloon="SAINTOGAN_PROSPER_ET_LE_MONSTRE_MARIN_036_balloon_4" textType="speech">Ness.</metadata>
        </polygon>
        <polygon points="3762,2434 4221,2434 4221,2488 3762,2488 3762,2434" id="SAINTOGAN_PROSPER_ET_LE_MONSTRE_MARIN_036_line_27">
            <metadata method="" typography="" idBalloon="SAINTOGAN_PROSPER_ET_LE_MONSTRE_MARIN_036_balloon_5" textType="narrative">Le salon de coiffure.</metadata>
        </polygon>
        <polygon points="3906,3267 4865,3267 4865,3321 3906,3321 3906,3267" id="SAINTOGAN_PROSPER_ET_LE_MONSTRE_MARIN_036_line_28">
            <metadata method="" typography="" idBalloon="SAINTOGAN_PROSPER_ET_LE_MONSTRE_MARIN_036_balloon_7" textType="narrative">M. du Loch Ness (ex-monstre) gentleman!</metadata>
        </polygon>
        <polygon points="2907,3168 3726,3168 3726,3222 2907,3222 2907,3168" id="SAINTOGAN_PROSPER_ET_LE_MONSTRE_MARIN_036_line_29">
            <metadata method="" typography="" idBalloon="SAINTOGAN_PROSPER_ET_LE_MONSTRE_MARIN_036_balloon_6" textType="speech">Prosper. - Il est indispensable que</metadata>
        </polygon>
        <polygon points="2943,3226 3731,3226 3731,3271 2943,3271 2943,3226" id="SAINTOGAN_PROSPER_ET_LE_MONSTRE_MARIN_036_line_30">
            <metadata method="" typography="" idBalloon="SAINTOGAN_PROSPER_ET_LE_MONSTRE_MARIN_036_balloon_6" textType="speech">vous marchiez sur deux pieds,</metadata>
        </polygon>
        <polygon points="3065,3267 3605,3267 3605,3312 3065,3312 3065,3267" id="SAINTOGAN_PROSPER_ET_LE_MONSTRE_MARIN_036_line_31">
            <metadata method="" typography="" idBalloon="SAINTOGAN_PROSPER_ET_LE_MONSTRE_MARIN_036_balloon_6" textType="speech">comme tout le monde!</metadata>
        </polygon>
        <polygon points="373,153 1008,153 1008,220 373,220 373,153" id="SAINTOGAN_PROSPER_ET_LE_MONSTRE_MARIN_036_line_32">
            <metadata method="" typography="" textType="note">COMPLET SUR MESURE</metadata>
        </polygon>
        <polygon points="4410,193 5076,193 5076,252 4410,252 4410,193" id="SAINTOGAN_PROSPER_ET_LE_MONSTRE_MARIN_036_line_33">
            <metadata method="" typography="" textType="note">À LA DERNIÈRE MODE!</metadata>
        </polygon>
        <polygon points="1422,3400 1474,3400 1474,3448 1422,3448 1422,3400" id="SAINTOGAN_PROSPER_ET_LE_MONSTRE_MARIN_036_line_34">
            <metadata method="" typography="" textType="note">36</metadata>
        </polygon>
        <polygon points="3960,3420 4008,3420 4008,3468 3960,3468 3960,3420" id="SAINTOGAN_PROSPER_ET_LE_MONSTRE_MARIN_036_line_35">
            <metadata method="" typography="" textType="speech">37</metadata>
        </polygon>
    </svg>
    <svg contentScriptType="text/ecmascript" zoomAndPan="magnify" contentStyleType="text/css" class="linkSBSC" preserveAspectRatio="xMidYMid meet" version="1.0"/>
<metadata method="GroundTruth" lastModificationDate="Sun Jan 26 13:12:57 CET 2014" lastStepModified="Balloon_Rank"/>
</svg>