<?xml version="1.0" encoding="UTF-8" standalone="no"?>
<svg xmlns="http://www.w3.org/2000/svg" xmlns:xlink="http://www.w3.org/1999/xlink" contentScriptType="text/ecmascript" width="2632mm" zoomAndPan="magnify" contentStyleType="text/css" height="1818mm" viewBox="0 0 5265 3637" preserveAspectRatio="xMidYMid meet" version="1.0">
    <title>SAINTOGAN_PROSPER_ET_LE_MONSTRE_MARIN_006</title>
    <svg contentScriptType="text/ecmascript" zoomAndPan="magnify" contentStyleType="text/css" class="Page" preserveAspectRatio="xMidYMid meet" version="1.0">
        <image x="0" y="0" fill-opacity="0.5" width="5265" xlink:href="../Pages/SAINTOGAN_PROSPER_ET_LE_MONSTRE_MARIN_006.jpg" xlink:type="simple" xlink:actuate="onLoad" height="3637" opacity="0.5" preserveAspectRatio="xMidYMid meet" xlink:show="embed"/>
        <metadata collectionTitle="Zig Et Puce" editorName="Hachette" doublePage="true" website="http://collections.citebd.org/saintogan/www/fonds.php" albumTitle="Prosper Et Le Monstre Marin" drawerName="Alain Saint Ogan" language="french" resolution="600" ISBN="" readingDirection="leftToRight" writerName="Alain Saint Ogan" releaseDate="1934" pageNumber="6"/>
    </svg>
	<style type="text/css" xml:space="preserve">
        * { stroke-width: 0; stroke-linejoin: round; }
        .Unclassified { fill: orange; stroke: none; opacity: 1.0; visibility: hidden; }
        .Noise { fill: pink; stroke: none; opacity: 0.2; visibility: hidden; }
        .Panel { fill: red; stroke: none; opacity: 0.3; visibility: visible; image-rendering: optimizeSpeed; }
        .Line { fill: green; stroke: none; opacity: 0.5; visibility: visible; image-rendering: optimizeSpeed; }
        .TextArea { fill: grey; stroke: none; opacity: 0.2; visibility: visible; image-rendering: optimizeSpeed; }
        .Balloon { fill: cyan; stroke: none; opacity: 0.5; visibility: visible; image-rendering: optimizeSpeed; }
        .Letter { fill: blue; stroke: none; opacity: 0.2; visibility: hidden; }
        .Character { fill: yellow; stroke: none; opacity: 0.3; visibility: visible; image-rendering: optimizeSpeed; }
        .Page { fill: white; stroke: none; opacity: 0.5; visibility: visible; }
        .linkSBSC { fill: blue; stroke: none; opacity: 0.5; visibility: visible; }
        polygon:hover { stroke:red;stroke-width:2; } 
    </style><svg contentScriptType="text/ecmascript" zoomAndPan="magnify" contentStyleType="text/css" class="Panel" preserveAspectRatio="xMidYMid meet" version="1.0">
        <polygon points="337,331 2500,331 2500,1409 337,1409 337,331" id="SAINTOGAN_PROSPER_ET_LE_MONSTRE_MARIN_006_panel_0">
            <metadata viewAngle="" shot="" rank="1"/>
        </polygon>
        <polygon points="329,1526 2490,1526 2490,2352 328,2348 329,1526" id="SAINTOGAN_PROSPER_ET_LE_MONSTRE_MARIN_006_panel_1">
            <metadata viewAngle="" shot="" rank="2"/>
        </polygon>
        <polygon points="323,2422 1319,2422 1319,3204 323,3204 323,2422" id="SAINTOGAN_PROSPER_ET_LE_MONSTRE_MARIN_006_panel_2">
            <metadata viewAngle="" shot="" rank="3"/>
        </polygon>
        <polygon points="1360,2430 2484,2430 2484,3210 1360,3210 1360,2430" id="SAINTOGAN_PROSPER_ET_LE_MONSTRE_MARIN_006_panel_3">
            <metadata viewAngle="" shot="" rank="4"/>
        </polygon>
        <polygon points="2795,266 4992,266 4992,3353 2795,3353 2795,266" id="SAINTOGAN_PROSPER_ET_LE_MONSTRE_MARIN_006_panel_4">
            <metadata viewAngle="" shot="" rank="5"/>
        </polygon>
    </svg>
    <svg contentScriptType="text/ecmascript" zoomAndPan="magnify" contentStyleType="text/css" class="TextArea" preserveAspectRatio="xMidYMid meet" version="1.0"/>
    <svg contentScriptType="text/ecmascript" zoomAndPan="magnify" contentStyleType="text/css" class="Balloon" preserveAspectRatio="xMidYMid meet" version="1.0">
        <polygon points="325,1419 2500,1424 2508,1525 330,1512 325,1419" id="SAINTOGAN_PROSPER_ET_LE_MONSTRE_MARIN_006_balloon_0">
            <metadata borderStyle="other" tailTip="" boundingBox="" tailDirection="none" rank="1"/>
        </polygon>
        <polygon points="614,2356 2213,2362 2213,2417 625,2410 614,2356" id="SAINTOGAN_PROSPER_ET_LE_MONSTRE_MARIN_006_balloon_1">
            <metadata borderStyle="other" tailTip="" boundingBox="" tailDirection="none" rank="2"/>
        </polygon>
        <polygon points="317,3233 1337,3241 1326,3363 312,3355 317,3233" id="SAINTOGAN_PROSPER_ET_LE_MONSTRE_MARIN_006_balloon_2">
            <metadata borderStyle="other" tailTip="" boundingBox="" tailDirection="none" rank="3"/>
        </polygon>
        <polygon points="1358,3222 2489,3214 2478,3373 1347,3363 1358,3222" id="SAINTOGAN_PROSPER_ET_LE_MONSTRE_MARIN_006_balloon_3">
            <metadata borderStyle="other" tailTip="" boundingBox="" tailDirection="none" rank="4"/>
        </polygon>
        <polygon points="2804,944 3473,931 3463,1079 2825,1094 2804,944" id="SAINTOGAN_PROSPER_ET_LE_MONSTRE_MARIN_006_balloon_4">
            <metadata borderStyle="other" tailTip="" boundingBox="" tailDirection="none" rank="5"/>
        </polygon>
        <polygon points="3861,1054 4971,1065 4973,1219 3921,1221 3861,1054 3861,1054" id="SAINTOGAN_PROSPER_ET_LE_MONSTRE_MARIN_006_balloon_5">
            <metadata borderStyle="other" tailTip="" boundingBox="" tailDirection="none" rank="6"/>
        </polygon>
        <polygon id="SAINTOGAN_PROSPER_ET_LE_MONSTRE_MARIN_006_balloon_6" points="3761,2076 4976,2061 4958,2196 3793,2196 3761,2076">
            <metadata borderStyle="other" tailTip="" boundingBox="" tailDirection="none" rank="7"/>
        </polygon>
        <polygon points="2797,3218 4961,3218 4976,3356 2799,3341 2797,3218" id="SAINTOGAN_PROSPER_ET_LE_MONSTRE_MARIN_006_balloon_7">
            <metadata borderStyle="other" tailTip="" boundingBox="" tailDirection="none" rank="8"/>
        </polygon>
    </svg>
    <svg contentScriptType="text/ecmascript" zoomAndPan="magnify" contentStyleType="text/css" class="Character" preserveAspectRatio="xMidYMid meet" version="1.0">
        <polygon points="436,573 838,573 838,1447 436,1447 436,573" id="SAINTOGAN_PROSPER_ET_LE_MONSTRE_MARIN_006_character_0">
            <metadata uri="" area="" fillingPcent=""/>
        </polygon>
        <polygon points="889,689 1607,689 1607,1161 889,1161 889,689" id="SAINTOGAN_PROSPER_ET_LE_MONSTRE_MARIN_006_character_1">
            <metadata uri="" area="" fillingPcent=""/>
        </polygon>
        <polygon points="1397,472 2242,472 2242,1240 1397,1240 1397,472" id="SAINTOGAN_PROSPER_ET_LE_MONSTRE_MARIN_006_character_2">
            <metadata uri="" area="" fillingPcent=""/>
        </polygon>
        <polygon points="2031,896 2423,896 2423,1360 2031,1360 2031,896" id="SAINTOGAN_PROSPER_ET_LE_MONSTRE_MARIN_006_character_3">
            <metadata uri="" area="" fillingPcent=""/>
        </polygon>
        <polygon points="385,1911 610,1911 610,2281 385,2281 385,1911" id="SAINTOGAN_PROSPER_ET_LE_MONSTRE_MARIN_006_character_4">
            <metadata uri="" area="" fillingPcent=""/>
        </polygon>
        <polygon points="1321,1737 1683,1737 1683,2314 1321,2314 1321,1737" id="SAINTOGAN_PROSPER_ET_LE_MONSTRE_MARIN_006_character_5">
            <metadata uri="" area="" fillingPcent=""/>
        </polygon>
        <polygon points="1694,1560 2122,1560 2122,2343 1694,2343 1694,1560" id="SAINTOGAN_PROSPER_ET_LE_MONSTRE_MARIN_006_character_6">
            <metadata uri="" area="" fillingPcent=""/>
        </polygon>
        <polygon points="849,2502 1223,2502 1223,3177 849,3177 849,2502" id="SAINTOGAN_PROSPER_ET_LE_MONSTRE_MARIN_006_character_7">
            <metadata uri="" area="" fillingPcent=""/>
        </polygon>
        <polygon points="519,2720 824,2720 824,3151 519,3151 519,2720" id="SAINTOGAN_PROSPER_ET_LE_MONSTRE_MARIN_006_character_8">
            <metadata uri="" area="" fillingPcent=""/>
        </polygon>
        <polygon points="1578,2477 2000,2477 1864,3119 1578,3119 1578,2477" id="SAINTOGAN_PROSPER_ET_LE_MONSTRE_MARIN_006_character_9">
            <metadata uri="" area="" fillingPcent=""/>
        </polygon>
        <polygon points="2071,2796 2419,2796 2419,3075 2071,3075 2071,2796" id="SAINTOGAN_PROSPER_ET_LE_MONSTRE_MARIN_006_character_10">
            <metadata uri="" area="" fillingPcent=""/>
        </polygon>
        <polygon points="2898,417 3184,417 3184,911 2898,911 2898,417" id="SAINTOGAN_PROSPER_ET_LE_MONSTRE_MARIN_006_character_11">
            <metadata uri="" area="" fillingPcent=""/>
        </polygon>
        <polygon points="3130,653 3355,653 3355,903 3130,903 3130,653" id="SAINTOGAN_PROSPER_ET_LE_MONSTRE_MARIN_006_character_12">
            <metadata uri="" area="" fillingPcent=""/>
        </polygon>
        <polygon points="3561,530 3898,530 3898,940 3561,940 3561,530" id="SAINTOGAN_PROSPER_ET_LE_MONSTRE_MARIN_006_character_13">
            <metadata uri="" area="" fillingPcent=""/>
        </polygon>
        <polygon points="3739,508 4178,508 4178,911 3739,911 3739,508" id="SAINTOGAN_PROSPER_ET_LE_MONSTRE_MARIN_006_character_14">
            <metadata uri="" area="" fillingPcent=""/>
        </polygon>
        <polygon points="4127,642 4377,642 4377,925 4127,925 4127,642" id="SAINTOGAN_PROSPER_ET_LE_MONSTRE_MARIN_006_character_15">
            <metadata uri="" area="" fillingPcent=""/>
        </polygon>
        <polygon points="2945,1190 3384,1190 3384,1574 2945,1574 2945,1190" id="SAINTOGAN_PROSPER_ET_LE_MONSTRE_MARIN_006_character_16">
            <metadata uri="" area="" fillingPcent=""/>
        </polygon>
        <polygon points="3246,1146 3753,1146 3753,1534 3246,1534 3246,1146" id="SAINTOGAN_PROSPER_ET_LE_MONSTRE_MARIN_006_character_17">
            <metadata uri="" area="" fillingPcent=""/>
        </polygon>
        <polygon points="3554,1255 3935,1255 3935,1621 3554,1621 3554,1255" id="SAINTOGAN_PROSPER_ET_LE_MONSTRE_MARIN_006_character_18">
            <metadata uri="" area="" fillingPcent=""/>
        </polygon>
        <polygon points="3786,1531 4145,1531 4145,1857 3786,1857 3786,1531" id="SAINTOGAN_PROSPER_ET_LE_MONSTRE_MARIN_006_character_19">
            <metadata uri="" area="" fillingPcent=""/>
        </polygon>
        <polygon points="2814,2031 3108,2031 3108,2303 2814,2303 2814,2031" id="SAINTOGAN_PROSPER_ET_LE_MONSTRE_MARIN_006_character_20">
            <metadata uri="" area="" fillingPcent=""/>
        </polygon>
        <polygon points="3884,2992 4007,2992 4007,3104 3884,3104 3884,2992" id="SAINTOGAN_PROSPER_ET_LE_MONSTRE_MARIN_006_character_21">
            <metadata uri="" area="" fillingPcent=""/>
        </polygon>
        <polygon points="4054,2455 4953,2455 4953,3097 4054,3097 4054,2455" id="SAINTOGAN_PROSPER_ET_LE_MONSTRE_MARIN_006_character_22">
            <metadata uri="" area="" fillingPcent=""/>
        </polygon>
    </svg>
    <svg contentScriptType="text/ecmascript" zoomAndPan="magnify" contentStyleType="text/css" class="Line" preserveAspectRatio="xMidYMid meet" version="1.0">
        <polygon points="317,218 848,218 848,255 317,255 317,218" id="SAINTOGAN_PROSPER_ET_LE_MONSTRE_MARIN_006_line_0">
            <metadata method="" typography="" textType="note">PROSPER SE CACHE</metadata>
        </polygon>
        <polygon points="335,1423 2502,1423 2502,1464 335,1464 335,1423" id="SAINTOGAN_PROSPER_ET_LE_MONSTRE_MARIN_006_line_1">
            <metadata method="" typography="" idBalloon="SAINTOGAN_PROSPER_ET_LE_MONSTRE_MARIN_006_balloon_0" textType="speech">Toutes, ensemble, - Oh! Monsieur le Président, un simple petit mot : admirez mes griffes.</metadata>
        </polygon>
        <polygon points="867,1468 1964,1468 1964,1510 867,1510 867,1468" id="SAINTOGAN_PROSPER_ET_LE_MONSTRE_MARIN_006_line_2">
            <metadata method="" typography="" idBalloon="SAINTOGAN_PROSPER_ET_LE_MONSTRE_MARIN_006_balloon_0" textType="speech">Monsieur le Président, je tiens à vous dire que..</metadata>
        </polygon>
        <polygon points="634,2363 2197,2363 2197,2409 634,2409 634,2363" id="SAINTOGAN_PROSPER_ET_LE_MONSTRE_MARIN_006_line_3">
            <metadata method="" typography="" idBalloon="SAINTOGAN_PROSPER_ET_LE_MONSTRE_MARIN_006_balloon_1" textType="narrative">La magnifique coupe resplendit : les membres du Jury sont rassemblés.</metadata>
        </polygon>
        <polygon points="314,3248 1326,3248 1326,3289 314,3289 314,3248" id="SAINTOGAN_PROSPER_ET_LE_MONSTRE_MARIN_006_line_4">
            <metadata method="" typography="" idBalloon="SAINTOGAN_PROSPER_ET_LE_MONSTRE_MARIN_006_balloon_2" textType="speech">Le Chat borgne. - Où est donc le Prési -</metadata>
        </polygon>
        <polygon points="765,3311 886,3311 886,3343 765,3343 765,3311" id="SAINTOGAN_PROSPER_ET_LE_MONSTRE_MARIN_006_line_5">
            <metadata method="" typography="" idBalloon="SAINTOGAN_PROSPER_ET_LE_MONSTRE_MARIN_006_balloon_2" textType="speech">dent ?</metadata>
        </polygon>
        <polygon points="1363,3226 2365,3227 2364,3263 1363,3263 1363,3226" id="SAINTOGAN_PROSPER_ET_LE_MONSTRE_MARIN_006_line_6">
            <metadata method="" typography="" idBalloon="SAINTOGAN_PROSPER_ET_LE_MONSTRE_MARIN_006_balloon_3" textType="speech">Toutoune. - Que faites-vous dans ce tonneau ?</metadata>
        </polygon>
        <polygon points="1360,3272 2475,3272 2475,3312 1360,3312 1360,3272" id="SAINTOGAN_PROSPER_ET_LE_MONSTRE_MARIN_006_line_7">
            <metadata method="" typography="" idBalloon="SAINTOGAN_PROSPER_ET_LE_MONSTRE_MARIN_006_balloon_3" textType="speech">Prosper. - Oh ! Toutoune, dites que je suis ma -</metadata>
        </polygon>
        <polygon points="1423,3316 2425,3316 2425,3357 1423,3357 1423,3316" id="SAINTOGAN_PROSPER_ET_LE_MONSTRE_MARIN_006_line_8">
            <metadata method="" typography="" idBalloon="SAINTOGAN_PROSPER_ET_LE_MONSTRE_MARIN_006_balloon_3" textType="speech">malade !... ou que je viens encore d'être enlevé.</metadata>
        </polygon>
        <polygon points="1321,3432 1488,3432 1488,3470 1321,3470 1321,3432" id="SAINTOGAN_PROSPER_ET_LE_MONSTRE_MARIN_006_line_9">
            <metadata method="" typography="" textType="note">- 6 -</metadata>
        </polygon>
        <polygon points="2818,945 3458,945 3458,987 2818,987 2818,945" id="SAINTOGAN_PROSPER_ET_LE_MONSTRE_MARIN_006_line_10">
            <metadata method="" typography="" idBalloon="SAINTOGAN_PROSPER_ET_LE_MONSTRE_MARIN_006_balloon_4" textType="speech">Toutoune. - Voyons, Prosper,</metadata>
        </polygon>
        <polygon points="2861,996 3458,996 3458,1032 2861,1032 2861,996" id="SAINTOGAN_PROSPER_ET_LE_MONSTRE_MARIN_006_line_11">
            <metadata method="" typography="" idBalloon="SAINTOGAN_PROSPER_ET_LE_MONSTRE_MARIN_006_balloon_4" textType="speech">vous ne pouvez pas rester</metadata>
        </polygon>
        <polygon points="2973,1038 3337,1038 3337,1070 2973,1070 2973,1038" id="SAINTOGAN_PROSPER_ET_LE_MONSTRE_MARIN_006_line_12">
            <metadata method="" typography="" idBalloon="SAINTOGAN_PROSPER_ET_LE_MONSTRE_MARIN_006_balloon_4" textType="speech">dans ce tonneau.</metadata>
        </polygon>
        <polygon points="3883,1083 4952,1083 4952,1124 3883,1124 3883,1083" id="SAINTOGAN_PROSPER_ET_LE_MONSTRE_MARIN_006_line_13">
            <metadata method="" typography="" idBalloon="SAINTOGAN_PROSPER_ET_LE_MONSTRE_MARIN_006_balloon_5" textType="speech">Toutes, ensemble. - Monsieur Prosper, c'est moi</metadata>
        </polygon>
        <polygon points="4054,1129 4948,1129 4948,1171 4054,1171 4054,1129" id="SAINTOGAN_PROSPER_ET_LE_MONSTRE_MARIN_006_line_14">
            <metadata method="" typography="" idBalloon="SAINTOGAN_PROSPER_ET_LE_MONSTRE_MARIN_006_balloon_5" textType="speech">la plus jolie !... Donnez-moi la coupe ! La</metadata>
        </polygon>
        <polygon points="4054,1176 4948,1176 4948,1215 4054,1215 4054,1176" id="SAINTOGAN_PROSPER_ET_LE_MONSTRE_MARIN_006_line_15">
            <metadata method="" typography="" idBalloon="SAINTOGAN_PROSPER_ET_LE_MONSTRE_MARIN_006_balloon_5" textType="speech">coupe doit me revenir en toute justice.</metadata>
        </polygon>
        <polygon points="3775,2087 4948,2087 4948,2129 3775,2129 3775,2087" id="SAINTOGAN_PROSPER_ET_LE_MONSTRE_MARIN_006_line_16">
            <metadata method="" typography="" idBalloon="SAINTOGAN_PROSPER_ET_LE_MONSTRE_MARIN_006_balloon_6" textType="speech">A moi! - Mais regardez-moi, Prosper ! - La coupe</metadata>
        </polygon>
        <polygon points="3925,2134 4797,2134 4797,2173 3925,2173 3925,2134" id="SAINTOGAN_PROSPER_ET_LE_MONSTRE_MARIN_006_line_17">
            <metadata method="" typography="" idBalloon="SAINTOGAN_PROSPER_ET_LE_MONSTRE_MARIN_006_balloon_6" textType="speech">est pour moi ! - Prosper, cher Prosper !</metadata>
        </polygon>
        <polygon points="2811,3234 4944,3234 4946,3278 2811,3277 2811,3234" id="SAINTOGAN_PROSPER_ET_LE_MONSTRE_MARIN_006_line_18">
            <metadata method="" typography="" idBalloon="SAINTOGAN_PROSPER_ET_LE_MONSTRE_MARIN_006_balloon_7" textType="speech">Mme de la Baleine. - Oh ! que je suis contente de vous voir, Prosper, vous venez m'annoncer</metadata>
        </polygon>
        <polygon points="3444,3280 4298,3281 4298,3325 3444,3325 3444,3280" id="SAINTOGAN_PROSPER_ET_LE_MONSTRE_MARIN_006_line_19">
            <metadata method="" typography="" idBalloon="SAINTOGAN_PROSPER_ET_LE_MONSTRE_MARIN_006_balloon_7" textType="speech">que j'ai gagné la coupe, n'est-ce pas ?</metadata>
        </polygon>
        <polygon points="3792,3427 3967,3427 3967,3467 3792,3467 3792,3427" id="SAINTOGAN_PROSPER_ET_LE_MONSTRE_MARIN_006_line_20">
            <metadata method="" typography="" textType="note">- 7 -</metadata>
        </polygon>
        <polygon points="4207,178 4987,178 4987,216 4207,216 4207,178" id="SAINTOGAN_PROSPER_ET_LE_MONSTRE_MARIN_006_line_21">
            <metadata method="" typography="" textType="speech">PAS UN INSTANT DE REPOS !</metadata>
        </polygon>
    </svg>
    <svg contentScriptType="text/ecmascript" zoomAndPan="magnify" contentStyleType="text/css" class="linkSBSC" preserveAspectRatio="xMidYMid meet" version="1.0"/>
<metadata method="GroundTruth" lastModificationDate="Wed Feb 12 18:38:26 CET 2014" lastStepModified="Balloon_Rank"/>
</svg>