<?xml version="1.0" encoding="UTF-8" standalone="no"?>
<svg xmlns="http://www.w3.org/2000/svg" xmlns:xlink="http://www.w3.org/1999/xlink" contentScriptType="text/ecmascript" width="1244mm" zoomAndPan="magnify" contentStyleType="text/css" height="1753mm" viewBox="0 0 2488 3506" preserveAspectRatio="xMidYMid meet" version="1.0">
    <title>SAINTOGAN_ZIGPUCE_MILLIONAIRES_010</title>
    <svg contentScriptType="text/ecmascript" zoomAndPan="magnify" contentStyleType="text/css" class="Page" preserveAspectRatio="xMidYMid meet" version="1.0">
        <image x="0" y="0" fill-opacity="0.5" width="2488" xlink:href="../Pages/SAINTOGAN_ZIGPUCE_MILLIONAIRES_010.jpg" xlink:type="simple" xlink:actuate="onLoad" height="3506" opacity="0.5" preserveAspectRatio="xMidYMid meet" xlink:show="embed"/>
        <metadata collectionTitle="Zig Et Puce" editorName="Hachette" doublePage="false" website="http://collections.citebd.org/saintogan/www/fonds.php" albumTitle="Zig Et Puce Millionnaires" drawerName="Alain Saint Ogan" language="french" resolution="600" ISBN="" readingDirection="leftToRight" writerName="Alain Saint Ogan" releaseDate="1928" pageNumber="10"/>
    </svg>
	<style type="text/css" xml:space="preserve">
        * { stroke-width: 0; stroke-linejoin: round; }
        .Unclassified { fill: orange; stroke: none; opacity: 1.0; visibility: hidden; }
        .Noise { fill: pink; stroke: none; opacity: 0.2; visibility: hidden; }
        .Panel { fill: red; stroke: none; opacity: 0.3; visibility: visible; image-rendering: optimizeSpeed; }
        .Line { fill: green; stroke: none; opacity: 0.5; visibility: visible; image-rendering: optimizeSpeed; }
        .TextArea { fill: grey; stroke: none; opacity: 0.2; visibility: visible; image-rendering: optimizeSpeed; }
        .Balloon { fill: cyan; stroke: none; opacity: 0.5; visibility: visible; image-rendering: optimizeSpeed; }
        .Letter { fill: blue; stroke: none; opacity: 0.2; visibility: hidden; }
        .Character { fill: yellow; stroke: none; opacity: 0.3; visibility: visible; image-rendering: optimizeSpeed; }
        .Page { fill: white; stroke: none; opacity: 0.5; visibility: visible; }
        .linkSBSC { fill: blue; stroke: none; opacity: 0.5; visibility: visible; }
        polygon:hover { stroke:red;stroke-width:2; } 
    </style><svg contentScriptType="text/ecmascript" zoomAndPan="magnify" contentStyleType="text/css" class="Panel" preserveAspectRatio="xMidYMid meet" version="1.0">
        <polygon points="98,140 2344,114 2348,415 101,443 98,140" id="SAINTOGAN_ZIGPUCE_MILLIONAIRES_010_panel_0">
            <metadata viewAngle="" shot="" rank="1"/>
        </polygon>
        <polygon points="117,1156 854,1150 860,447 105,457 117,1156" id="SAINTOGAN_ZIGPUCE_MILLIONAIRES_010_panel_1">
            <metadata viewAngle="" shot="" rank="2"/>
        </polygon>
        <polygon points="881,1147 1603,1140 1595,429 863,437 881,1147" id="SAINTOGAN_ZIGPUCE_MILLIONAIRES_010_panel_2">
            <metadata viewAngle="" shot="" rank="3"/>
        </polygon>
        <polygon points="1634,1138 2360,1128 2348,461 1620,465 1634,1138" id="SAINTOGAN_ZIGPUCE_MILLIONAIRES_010_panel_3">
            <metadata viewAngle="" shot="" rank="4"/>
        </polygon>
        <polygon points="120,1201 853,1189 859,1865 129,1872 120,1201" id="SAINTOGAN_ZIGPUCE_MILLIONAIRES_010_panel_4">
            <metadata viewAngle="" shot="" rank="5"/>
        </polygon>
        <polygon points="881,1189 1605,1180 1613,1857 891,1865 881,1189" id="SAINTOGAN_ZIGPUCE_MILLIONAIRES_010_panel_5">
            <metadata viewAngle="" shot="" rank="6"/>
        </polygon>
        <polygon points="1636,1180 2360,1175 2372,1843 1643,1854 1636,1180" id="SAINTOGAN_ZIGPUCE_MILLIONAIRES_010_panel_6">
            <metadata viewAngle="" shot="" rank="7"/>
        </polygon>
        <polygon points="866,2579 136,2589 127,1881 889,1874 866,2579" id="SAINTOGAN_ZIGPUCE_MILLIONAIRES_010_panel_7">
            <metadata viewAngle="" shot="" rank="8"/>
        </polygon>
        <polygon points="896,2576 1625,2569 1615,1894 888,1900 896,2576" id="SAINTOGAN_ZIGPUCE_MILLIONAIRES_010_panel_8">
            <metadata viewAngle="" shot="" rank="9"/>
        </polygon>
        <polygon points="1657,2570 2386,2561 2372,1861 1639,1871 1657,2570" id="SAINTOGAN_ZIGPUCE_MILLIONAIRES_010_panel_9">
            <metadata viewAngle="" shot="" rank="10"/>
        </polygon>
        <polygon points="2388,3281 2382,2597 1653,2610 1669,3291 2388,3281" id="SAINTOGAN_ZIGPUCE_MILLIONAIRES_010_panel_10">
            <metadata viewAngle="" shot="" rank="13"/>
        </polygon>
        <polygon points="1631,3287 1624,2609 896,2607 905,3300 1631,3287" id="SAINTOGAN_ZIGPUCE_MILLIONAIRES_010_panel_11">
            <metadata viewAngle="" shot="" rank="12"/>
        </polygon>
        <polygon points="141,3310 877,3297 870,2614 136,2616 141,3310" id="SAINTOGAN_ZIGPUCE_MILLIONAIRES_010_panel_12">
            <metadata viewAngle="" shot="" rank="11"/>
        </polygon>
    </svg>
    <svg contentScriptType="text/ecmascript" zoomAndPan="magnify" contentStyleType="text/css" class="TextArea" preserveAspectRatio="xMidYMid meet" version="1.0"/>
    <svg contentScriptType="text/ecmascript" zoomAndPan="magnify" contentStyleType="text/css" class="Balloon" preserveAspectRatio="xMidYMid meet" version="1.0">
        <polygon points="151,453 241,454 321,453 394,454 460,453 493,452 515,459 512,490 515,527 511,576 507,609 515,639 505,653 478,657 473,673 479,693 470,716 442,730 424,731 447,710 456,687 452,677 458,648 407,653 316,717 232,722 204,723 136,723 128,698 133,661 126,634 129,609 126,581 126,534 122,484 132,458 151,453" id="SAINTOGAN_ZIGPUCE_MILLIONAIRES_010_balloon_0">
            <metadata borderStyle="smooth" tailTip="424,731" boundingBox="" tailDirection="SW" rank="1"/>
        </polygon>
        <polygon points="529,452 606,453 652,449 708,450 757,453 805,452 834,447 855,448 860,464 858,493 859,515 862,541 860,581 861,615 861,638 830,644 758,642 724,642 694,642 656,642 635,661 623,680 624,707 612,690 613,661 623,645 571,642 523,641 513,625 520,584 516,566 522,544 517,510 521,489 522,464 529,452" id="SAINTOGAN_ZIGPUCE_MILLIONAIRES_010_balloon_1">
            <metadata borderStyle="smooth" tailTip="624,707" boundingBox="" tailDirection="S" rank="2"/>
        </polygon>
        <polygon points="896,526 940,525 975,526 1015,527 1071,524 1103,525 1141,526 1184,523 1199,532 1200,551 1194,577 1198,632 1202,677 1198,690 1166,697 1148,693 1114,695 1056,693 986,693 974,688 973,702 970,715 969,731 1000,737 964,737 952,721 954,704 953,690 901,693 888,688 883,663 883,633 880,606 888,583 881,554 885,536 896,526" id="SAINTOGAN_ZIGPUCE_MILLIONAIRES_010_balloon_2">
            <metadata borderStyle="smooth" tailTip="1000,737" boundingBox="" tailDirection="W" rank="3"/>
        </polygon>
        <polygon points="1182,432 1246,432 1287,430 1322,431 1354,431 1377,435 1389,431 1416,433 1460,431 1490,428 1506,427 1530,431 1549,434 1569,429 1582,431 1585,449 1582,469 1579,482 1579,510 1581,531 1575,549 1553,551 1541,553 1469,553 1453,549 1459,560 1470,568 1484,557 1483,572 1468,578 1450,573 1435,560 1429,550 1354,549 1256,550 1214,550 1199,542 1204,518 1187,516 1168,511 1168,481 1165,442 1182,432" id="SAINTOGAN_ZIGPUCE_MILLIONAIRES_010_balloon_3">
            <metadata borderStyle="smooth" tailTip="1484,557" boundingBox="" tailDirection="NW" rank="4"/>
        </polygon>
        <polygon points="1329,567 1355,570 1393,570 1417,567 1435,567 1458,581 1459,601 1460,633 1459,652 1446,660 1426,660 1411,659 1390,663 1376,659 1361,659 1343,660 1314,661 1314,648 1305,645 1301,634 1308,636 1314,635 1313,620 1312,595 1313,576 1329,567" id="SAINTOGAN_ZIGPUCE_MILLIONAIRES_010_balloon_4">
            <metadata borderStyle="smooth" tailTip="1301,634" boundingBox="" tailDirection="NW" rank="5"/>
        </polygon>
        <polygon points="2018,1253 2044,1230 2059,1228 2083,1238 2103,1256 2107,1264 2140,1275 2162,1299 2166,1331 2162,1352 2150,1381 2134,1391 2144,1414 2137,1441 2124,1457 2106,1467 2085,1468 2072,1463 2080,1480 2088,1503 2083,1533 2080,1554 2084,1573 2087,1587 2088,1615 2084,1635 2079,1621 2076,1593 2078,1577 2072,1558 2066,1544 2072,1513 2068,1499 2050,1479 2052,1467 2034,1477 2024,1473 2010,1466 2010,1460 1987,1461 1966,1450 1956,1429 1954,1412 1960,1406 1949,1404 1931,1387 1924,1355 1933,1321 1948,1305 1970,1299 1978,1281 1987,1258 2004,1251 2018,1253" id="SAINTOGAN_ZIGPUCE_MILLIONAIRES_010_balloon_5">
            <metadata borderStyle="wavy" tailTip="2084,1635" boundingBox="" tailDirection="S" rank="6"/>
        </polygon>
        <polygon points="473,1880 518,1879 590,1876 645,1880 686,1884 737,1878 791,1882 847,1876 877,1875 884,1895 885,1917 883,1938 880,1977 888,2017 885,2043 879,2057 881,2069 864,2072 833,2071 778,2081 695,2074 624,2080 525,2074 456,2072 452,2054 460,2032 453,2021 459,1999 456,1992 441,2000 396,2015 370,2032 351,2059 360,2096 344,2073 349,2036 383,2004 424,1986 449,1976 446,1949 455,1925 452,1896 473,1880" id="SAINTOGAN_ZIGPUCE_MILLIONAIRES_010_balloon_6">
            <metadata borderStyle="smooth" tailTip="360,2096" boundingBox="" tailDirection="S" rank="7"/>
        </polygon>
        <polygon points="1252,1955 1261,1933 1273,1918 1289,1912 1310,1916 1321,1907 1337,1902 1351,1900 1368,1907 1379,1916 1385,1921 1402,1926 1410,1933 1421,1948 1424,1960 1420,1975 1417,1986 1423,2007 1424,2030 1412,2052 1389,2074 1371,2080 1341,2080 1331,2081 1327,2093 1331,2099 1323,2101 1311,2093 1314,2085 1299,2087 1285,2088 1279,2083 1276,2076 1275,2070 1264,2069 1251,2062 1246,2047 1248,2023 1241,2019 1229,2007 1229,1991 1236,1975 1252,1955" id="SAINTOGAN_ZIGPUCE_MILLIONAIRES_010_balloon_7">
            <metadata borderStyle="wavy" tailTip="1331,2099" boundingBox="" tailDirection="S" rank="8"/>
        </polygon>
        <polygon points="1879,1876 1922,1866 1969,1874 2016,1867 2055,1870 2084,1865 2110,1870 2152,1866 2172,1871 2209,1864 2231,1864 2246,1861 2265,1866 2274,1888 2268,1904 2274,1925 2271,1937 2273,1943 2271,1964 2274,1994 2269,2020 2244,2028 2216,2027 2178,2031 2138,2025 2107,2030 2075,2028 2041,2033 2022,2027 1994,2036 1958,2029 1922,2034 1906,2030 1880,2033 1862,2030 1850,2055 1847,2077 1824,2100 1831,2063 1836,2052 1831,2030 1844,2010 1842,1998 1831,1980 1837,1951 1828,1930 1832,1910 1828,1888 1842,1871 1879,1876" id="SAINTOGAN_ZIGPUCE_MILLIONAIRES_010_balloon_8">
            <metadata borderStyle="smooth" tailTip="1824,2100" boundingBox="" tailDirection="SW" rank="9"/>
        </polygon>
        <polygon points="1021,2600 1057,2585 1077,2599 1116,2586 1141,2594 1151,2601 1172,2590 1195,2589 1224,2598 1239,2608 1257,2603 1271,2603 1292,2606 1299,2614 1304,2623 1319,2623 1334,2626 1347,2634 1358,2648 1361,2669 1361,2683 1341,2672 1317,2664 1309,2661 1299,2674 1282,2675 1265,2678 1258,2698 1236,2711 1219,2715 1206,2715 1191,2726 1177,2730 1166,2727 1150,2734 1136,2739 1122,2734 1109,2731 1109,2730 1092,2739 1079,2746 1068,2746 1046,2741 1035,2733 1027,2727 1014,2734 992,2738 967,2728 950,2708 948,2700 934,2696 927,2678 930,2656 940,2640 952,2626 963,2626 968,2612 990,2599 1002,2597 1021,2600" id="SAINTOGAN_ZIGPUCE_MILLIONAIRES_010_balloon_9">
            <metadata borderStyle="wavy" tailTip="1361,2683" boundingBox="" tailDirection="SE" rank="10"/>
        </polygon>
        <polygon points="2154,2718 2368,2708 2376,2824 2370,2949 2344,2949 2313,2944 2258,2949 2239,2948 2233,2961 2239,2977 2243,2999 2230,2982 2218,2970 2216,2952 2222,2945 2144,2947 2147,2722 2154,2718" id="SAINTOGAN_ZIGPUCE_MILLIONAIRES_010_balloon_10">
            <metadata borderStyle="smooth" tailTip="2243,2999" boundingBox="" tailDirection="S" rank="11"/>
        </polygon>
    </svg>
    <svg contentScriptType="text/ecmascript" zoomAndPan="magnify" contentStyleType="text/css" class="Character" preserveAspectRatio="xMidYMid meet" version="1.0">
        <polygon points="212,618 442,618 442,1055 212,1055 212,618" id="SAINTOGAN_ZIGPUCE_MILLIONAIRES_010_character_0">
            <metadata uri="" area="" fillingPcent=""/>
        </polygon>
        <polygon points="437,634 724,634 724,978 437,978 437,634" id="SAINTOGAN_ZIGPUCE_MILLIONAIRES_010_character_1">
            <metadata uri="" area="" fillingPcent=""/>
        </polygon>
        <polygon points="630,900 779,900 779,1157 630,1157 630,900" id="SAINTOGAN_ZIGPUCE_MILLIONAIRES_010_character_2">
            <metadata uri="" area="" fillingPcent=""/>
        </polygon>
        <polygon points="879,855 1031,855 1031,1090 879,1090 879,855" id="SAINTOGAN_ZIGPUCE_MILLIONAIRES_010_character_3">
            <metadata uri="" area="" fillingPcent=""/>
        </polygon>
        <polygon points="974,674 1159,674 1159,1014 974,1014 974,674" id="SAINTOGAN_ZIGPUCE_MILLIONAIRES_010_character_4">
            <metadata uri="" area="" fillingPcent=""/>
        </polygon>
        <polygon points="1188,548 1326,548 1326,807 1188,807 1188,548" id="SAINTOGAN_ZIGPUCE_MILLIONAIRES_010_character_5">
            <metadata uri="" area="" fillingPcent=""/>
        </polygon>
        <polygon points="1464,502 1608,502 1608,905 1464,905 1464,502" id="SAINTOGAN_ZIGPUCE_MILLIONAIRES_010_character_6">
            <metadata uri="" area="" fillingPcent=""/>
        </polygon>
        <polygon points="1738,633 1864,633 1864,849 1738,849 1738,633" id="SAINTOGAN_ZIGPUCE_MILLIONAIRES_010_character_7">
            <metadata uri="" area="" fillingPcent=""/>
        </polygon>
        <polygon points="383,1431 511,1431 511,1612 383,1612 383,1431" id="SAINTOGAN_ZIGPUCE_MILLIONAIRES_010_character_8">
            <metadata uri="" area="" fillingPcent=""/>
        </polygon>
        <polygon points="1254,1581 1373,1581 1373,1754 1254,1754 1254,1581" id="SAINTOGAN_ZIGPUCE_MILLIONAIRES_010_character_9">
            <metadata uri="" area="" fillingPcent=""/>
        </polygon>
        <polygon points="339,2026 664,2026 664,2457 339,2457 339,2026" id="SAINTOGAN_ZIGPUCE_MILLIONAIRES_010_character_10">
            <metadata uri="" area="" fillingPcent=""/>
        </polygon>
        <polygon points="1075,2072 1466,2072 1466,2523 1075,2523 1075,2072" id="SAINTOGAN_ZIGPUCE_MILLIONAIRES_010_character_11">
            <metadata uri="" area="" fillingPcent=""/>
        </polygon>
        <polygon points="1689,2055 2067,2055 2067,2462 1689,2462 1689,2055" id="SAINTOGAN_ZIGPUCE_MILLIONAIRES_010_character_12">
            <metadata uri="" area="" fillingPcent=""/>
        </polygon>
        <polygon points="209,2634 479,2634 479,2939 209,2939 209,2634" id="SAINTOGAN_ZIGPUCE_MILLIONAIRES_010_character_13">
            <metadata uri="" area="" fillingPcent=""/>
        </polygon>
        <polygon points="1157,2654 1553,2654 1553,3102 1157,3102 1157,2654" id="SAINTOGAN_ZIGPUCE_MILLIONAIRES_010_character_14">
            <metadata uri="" area="" fillingPcent=""/>
        </polygon>
        <polygon points="1994,2863 2177,2863 2177,3268 1994,3268 1994,2863" id="SAINTOGAN_ZIGPUCE_MILLIONAIRES_010_character_15">
            <metadata uri="" area="" fillingPcent=""/>
        </polygon>
        <polygon points="2174,2924 2379,2924 2379,3264 2174,3264 2174,2924" id="SAINTOGAN_ZIGPUCE_MILLIONAIRES_010_character_16">
            <metadata uri="" area="" fillingPcent=""/>
        </polygon>
        <polygon points="2066,2614 2325,2614 2325,2806 2066,2806 2066,2614" id="SAINTOGAN_ZIGPUCE_MILLIONAIRES_010_character_17">
            <metadata uri="" area="" fillingPcent=""/>
        </polygon>
    </svg>
    <svg contentScriptType="text/ecmascript" zoomAndPan="magnify" contentStyleType="text/css" class="Line" preserveAspectRatio="xMidYMid meet" version="1.0">
        <polygon points="608,156 1798,143 1798,290 608,305 608,156" id="SAINTOGAN_ZIGPUCE_MILLIONAIRES_010_line_0">
            <metadata method="" typography="" textType="note">ZIG et PUCE</metadata>
        </polygon>
        <polygon points="486,308 1948,305 1948,404 486,415 486,308" id="SAINTOGAN_ZIGPUCE_MILLIONAIRES_010_line_1">
            <metadata method="" typography="" textType="note">ALFRED FAIT DES SOTTISES</metadata>
        </polygon>
        <polygon points="136,463 501,463 501,493 136,493 136,463" id="SAINTOGAN_ZIGPUCE_MILLIONAIRES_010_line_2">
            <metadata method="" typography="" idBalloon="SAINTOGAN_ZIGPUCE_MILLIONAIRES_010_balloon_0" textType="speech">JE NE SUIS PAS ME-</metadata>
        </polygon>
        <polygon points="135,502 501,502 501,533 135,533 135,502" id="SAINTOGAN_ZIGPUCE_MILLIONAIRES_010_line_3">
            <metadata method="" typography="" idBalloon="SAINTOGAN_ZIGPUCE_MILLIONAIRES_010_balloon_0" textType="speech">CONTENT DE MON SE-</metadata>
        </polygon>
        <polygon points="134,529 479,529 479,566 134,566 134,529" id="SAINTOGAN_ZIGPUCE_MILLIONAIRES_010_line_4">
            <metadata method="" typography="" idBalloon="SAINTOGAN_ZIGPUCE_MILLIONAIRES_010_balloon_0" textType="speech">JOUR ICI ... CA</metadata>
        </polygon>
        <polygon points="142,573 482,573 482,599 142,599 142,573" id="SAINTOGAN_ZIGPUCE_MILLIONAIRES_010_line_5">
            <metadata method="" typography="" idBalloon="SAINTOGAN_ZIGPUCE_MILLIONAIRES_010_balloon_0" textType="speech">ME FAIT UN PEU DE</metadata>
        </polygon>
        <polygon points="142,600 492,600 492,634 142,634 142,600" id="SAINTOGAN_ZIGPUCE_MILLIONAIRES_010_line_6">
            <metadata method="" typography="" idBalloon="SAINTOGAN_ZIGPUCE_MILLIONAIRES_010_balloon_0" textType="speech">PEINE DE QUITTER</metadata>
        </polygon>
        <polygon points="142,640 317,644 316,667 142,666 142,640" id="SAINTOGAN_ZIGPUCE_MILLIONAIRES_010_line_7">
            <metadata method="" typography="" idBalloon="SAINTOGAN_ZIGPUCE_MILLIONAIRES_010_balloon_0" textType="speech">CE BRAVE</metadata>
        </polygon>
        <polygon points="141,675 319,677 315,701 139,702 141,675" id="SAINTOGAN_ZIGPUCE_MILLIONAIRES_010_line_8">
            <metadata method="" typography="" idBalloon="SAINTOGAN_ZIGPUCE_MILLIONAIRES_010_balloon_0" textType="speech">PRESIDENT</metadata>
        </polygon>
        <polygon points="534,455 844,455 844,490 534,490 534,455" id="SAINTOGAN_ZIGPUCE_MILLIONAIRES_010_line_9">
            <metadata method="" typography="" idBalloon="SAINTOGAN_ZIGPUCE_MILLIONAIRES_010_balloon_1" textType="speech">IL FAUT ETRE SE</metadata>
        </polygon>
        <polygon points="529,494 846,494 846,535 529,535 529,494" id="SAINTOGAN_ZIGPUCE_MILLIONAIRES_010_line_10">
            <metadata method="" typography="" idBalloon="SAINTOGAN_ZIGPUCE_MILLIONAIRES_010_balloon_1" textType="speech">RIEUX, LE BATEAU</metadata>
        </polygon>
        <polygon points="530,538 825,538 825,564 530,564 530,538" id="SAINTOGAN_ZIGPUCE_MILLIONAIRES_010_line_11">
            <metadata method="" typography="" idBalloon="SAINTOGAN_ZIGPUCE_MILLIONAIRES_010_balloon_1" textType="speech">POUR NEW-YORK</metadata>
        </polygon>
        <polygon points="531,565 847,565 847,599 531,599 531,565" id="SAINTOGAN_ZIGPUCE_MILLIONAIRES_010_line_12">
            <metadata method="" typography="" idBalloon="SAINTOGAN_ZIGPUCE_MILLIONAIRES_010_balloon_1" textType="speech">VA PARTIR ... DE</metadata>
        </polygon>
        <polygon points="525,604 833,604 833,633 525,633 525,604" id="SAINTOGAN_ZIGPUCE_MILLIONAIRES_010_line_13">
            <metadata method="" typography="" idBalloon="SAINTOGAN_ZIGPUCE_MILLIONAIRES_010_balloon_1" textType="speech">PECHONS-NOUS ...</metadata>
        </polygon>
        <polygon points="896,534 1187,534 1187,567 896,567 896,534" id="SAINTOGAN_ZIGPUCE_MILLIONAIRES_010_line_14">
            <metadata method="" typography="" idBalloon="SAINTOGAN_ZIGPUCE_MILLIONAIRES_010_balloon_2" textType="speech">SURTOUT NE FAIS</metadata>
        </polygon>
        <polygon points="896,575 1179,575 1179,600 896,600 896,575" id="SAINTOGAN_ZIGPUCE_MILLIONAIRES_010_line_15">
            <metadata method="" typography="" idBalloon="SAINTOGAN_ZIGPUCE_MILLIONAIRES_010_balloon_2" textType="speech">PAS DE SOTTISES</metadata>
        </polygon>
        <polygon points="891,596 1181,596 1181,636 891,636 891,596" id="SAINTOGAN_ZIGPUCE_MILLIONAIRES_010_line_16">
            <metadata method="" typography="" idBalloon="SAINTOGAN_ZIGPUCE_MILLIONAIRES_010_balloon_2" textType="speech">ALFRED ... NOUS</metadata>
        </polygon>
        <polygon points="894,640 1183,640 1183,671 894,671 894,640" id="SAINTOGAN_ZIGPUCE_MILLIONAIRES_010_line_17">
            <metadata method="" typography="" idBalloon="SAINTOGAN_ZIGPUCE_MILLIONAIRES_010_balloon_2" textType="speech">ALLONS PARTIR</metadata>
        </polygon>
        <polygon points="1180,440 1573,440 1573,473 1180,473 1180,440" id="SAINTOGAN_ZIGPUCE_MILLIONAIRES_010_line_18">
            <metadata method="" typography="" idBalloon="SAINTOGAN_ZIGPUCE_MILLIONAIRES_010_balloon_3" textType="speech">Li PRESIDENT Li DEMAN</metadata>
        </polygon>
        <polygon points="1178,471 1557,471 1557,505 1178,505 1178,471" id="SAINTOGAN_ZIGPUCE_MILLIONAIRES_010_line_19">
            <metadata method="" typography="" idBalloon="SAINTOGAN_ZIGPUCE_MILLIONAIRES_010_balloon_3" textType="speech">DE CiMiSSiES POUR</metadata>
        </polygon>
        <polygon points="1216,502 1469,502 1469,538 1216,538 1216,502" id="SAINTOGAN_ZIGPUCE_MILLIONAIRES_010_line_20">
            <metadata method="" typography="" idBalloon="SAINTOGAN_ZIGPUCE_MILLIONAIRES_010_balloon_3" textType="speech">DiRE ADiEU ...</metadata>
        </polygon>
        <polygon points="1322,582 1437,582 1437,605 1322,605 1322,582" id="SAINTOGAN_ZIGPUCE_MILLIONAIRES_010_line_21">
            <metadata method="" typography="" idBalloon="SAINTOGAN_ZIGPUCE_MILLIONAIRES_010_balloon_4" textType="speech">NOUS Y</metadata>
        </polygon>
        <polygon points="1322,615 1441,615 1441,638 1322,638 1322,615" id="SAINTOGAN_ZIGPUCE_MILLIONAIRES_010_line_22">
            <metadata method="" typography="" idBalloon="SAINTOGAN_ZIGPUCE_MILLIONAIRES_010_balloon_4" textType="speech">ALLONS</metadata>
        </polygon>
        <polygon points="2036,1263 2072,1263 2072,1414 2036,1414 2036,1263" id="SAINTOGAN_ZIGPUCE_MILLIONAIRES_010_line_23">
            <metadata method="" typography="" idBalloon="SAINTOGAN_ZIGPUCE_MILLIONAIRES_010_balloon_5" textType="speech">!</metadata>
        </polygon>
        <polygon points="468,1889 851,1889 851,1926 468,1926 468,1889" id="SAINTOGAN_ZIGPUCE_MILLIONAIRES_010_line_24">
            <metadata method="" typography="" idBalloon="SAINTOGAN_ZIGPUCE_MILLIONAIRES_010_balloon_6" textType="speech">Li PETiTS BLANCS</metadata>
        </polygon>
        <polygon points="460,1930 872,1930 872,1973 460,1973 460,1930" id="SAINTOGAN_ZIGPUCE_MILLIONAIRES_010_line_25">
            <metadata method="" typography="" idBalloon="SAINTOGAN_ZIGPUCE_MILLIONAIRES_010_balloon_6" textType="speech">AVOIR FINI VALISES</metadata>
        </polygon>
        <polygon points="469,1976 851,1976 851,2010 469,2010 469,1976" id="SAINTOGAN_ZIGPUCE_MILLIONAIRES_010_line_26">
            <metadata method="" typography="" idBalloon="SAINTOGAN_ZIGPUCE_MILLIONAIRES_010_balloon_6" textType="speech">LI PORTER BAGA-</metadata>
        </polygon>
        <polygon points="471,2023 834,2023 834,2054 471,2054 471,2023" id="SAINTOGAN_ZIGPUCE_MILLIONAIRES_010_line_27">
            <metadata method="" typography="" idBalloon="SAINTOGAN_ZIGPUCE_MILLIONAIRES_010_balloon_6" textType="speech">GAS AU BATEAU ...</metadata>
        </polygon>
        <polygon points="1269,1914 1396,1914 1396,2076 1269,2076 1269,1914" id="SAINTOGAN_ZIGPUCE_MILLIONAIRES_010_line_28">
            <metadata method="" typography="" idBalloon="SAINTOGAN_ZIGPUCE_MILLIONAIRES_010_balloon_7" textType="speech">?</metadata>
        </polygon>
        <polygon points="1857,1882 2250,1882 2250,1916 1857,1916 1857,1882" id="SAINTOGAN_ZIGPUCE_MILLIONAIRES_010_line_29">
            <metadata method="" typography="" idBalloon="SAINTOGAN_ZIGPUCE_MILLIONAIRES_010_balloon_8" textType="speech">LI DIABLE EST DANS</metadata>
        </polygon>
        <polygon points="1858,1917 2263,1917 2263,1958 1858,1958 1858,1917" id="SAINTOGAN_ZIGPUCE_MILLIONAIRES_010_line_30">
            <metadata method="" typography="" idBalloon="SAINTOGAN_ZIGPUCE_MILLIONAIRES_010_balloon_8" textType="speech">LA VALISE !. li DIA</metadata>
        </polygon>
        <polygon points="1861,1963 2238,1963 2238,2007 1861,2007 1861,1963" id="SAINTOGAN_ZIGPUCE_MILLIONAIRES_010_line_31">
            <metadata method="" typography="" idBalloon="SAINTOGAN_ZIGPUCE_MILLIONAIRES_010_balloon_8" textType="speech">BLE !.. LI DIABLE !..</metadata>
        </polygon>
        <polygon points="979,2601 1221,2601 1221,2636 979,2636 979,2601" id="SAINTOGAN_ZIGPUCE_MILLIONAIRES_010_line_32">
            <metadata method="" typography="" idBalloon="SAINTOGAN_ZIGPUCE_MILLIONAIRES_010_balloon_9" textType="speech">LI DIABLE !..</metadata>
        </polygon>
        <polygon points="947,2639 1245,2639 1245,2677 947,2677 947,2639" id="SAINTOGAN_ZIGPUCE_MILLIONAIRES_010_line_33">
            <metadata method="" typography="" idBalloon="SAINTOGAN_ZIGPUCE_MILLIONAIRES_010_balloon_9" textType="speech">Y'A PAS BON !...</metadata>
        </polygon>
        <polygon points="976,2677 1251,2677 1251,2712 976,2712 976,2677" id="SAINTOGAN_ZIGPUCE_MILLIONAIRES_010_line_34">
            <metadata method="" typography="" idBalloon="SAINTOGAN_ZIGPUCE_MILLIONAIRES_010_balloon_9" textType="speech">Y'A PAS BON!..</metadata>
        </polygon>
        <polygon points="2157,2727 2367,2727 2367,2765 2157,2765 2157,2727" id="SAINTOGAN_ZIGPUCE_MILLIONAIRES_010_line_35">
            <metadata method="" typography="" idBalloon="SAINTOGAN_ZIGPUCE_MILLIONAIRES_010_balloon_10" textType="speech">HUM !.. IL M'A</metadata>
        </polygon>
        <polygon points="2155,2766 2363,2766 2363,2801 2155,2801 2155,2766" id="SAINTOGAN_ZIGPUCE_MILLIONAIRES_010_line_36">
            <metadata method="" typography="" idBalloon="SAINTOGAN_ZIGPUCE_MILLIONAIRES_010_balloon_10" textType="speech">L'AIR D'Y A.</metadata>
        </polygon>
        <polygon points="2152,2808 2360,2808 2360,2847 2152,2847 2152,2808" id="SAINTOGAN_ZIGPUCE_MILLIONAIRES_010_line_37">
            <metadata method="" typography="" idBalloon="SAINTOGAN_ZIGPUCE_MILLIONAIRES_010_balloon_10" textType="speech">VOIR DE L'</metadata>
        </polygon>
        <polygon points="2152,2843 2354,2843 2354,2885 2152,2885 2152,2843" id="SAINTOGAN_ZIGPUCE_MILLIONAIRES_010_line_38">
            <metadata method="" typography="" idBalloon="SAINTOGAN_ZIGPUCE_MILLIONAIRES_010_balloon_10" textType="speech">ALFRED LA</metadata>
        </polygon>
        <polygon points="2156,2885 2357,2885 2357,2930 2156,2930 2156,2885" id="SAINTOGAN_ZIGPUCE_MILLIONAIRES_010_line_39">
            <metadata method="" typography="" idBalloon="SAINTOGAN_ZIGPUCE_MILLIONAIRES_010_balloon_10" textType="speech">DESSOUS !..</metadata>
        </polygon>
        <polygon points="1289,3362 1325,3362 1325,3396 1289,3396 1289,3362" id="SAINTOGAN_ZIGPUCE_MILLIONAIRES_010_line_40">
            <metadata method="" typography="" textType="speech">10</metadata>
        </polygon>
    </svg>
    <svg contentScriptType="text/ecmascript" zoomAndPan="magnify" contentStyleType="text/css" class="linkSBSC" preserveAspectRatio="xMidYMid meet" version="1.0">
    <polygon points="318,591 319,591 328,836 327,836 318,591" idCharacter="SAINTOGAN_ZIGPUCE_MILLIONAIRES_010_character_0" idBalloon="SAINTOGAN_ZIGPUCE_MILLIONAIRES_010_balloon_0"/>
    <polygon points="687,577 688,577 581,806 580,806 687,577" idCharacter="SAINTOGAN_ZIGPUCE_MILLIONAIRES_010_character_1" idBalloon="SAINTOGAN_ZIGPUCE_MILLIONAIRES_010_balloon_1"/>
    <polygon points="1041,630 1042,630 1067,844 1066,844 1041,630" idCharacter="SAINTOGAN_ZIGPUCE_MILLIONAIRES_010_character_4" idBalloon="SAINTOGAN_ZIGPUCE_MILLIONAIRES_010_balloon_2"/>
    <polygon points="1375,502 1376,502 1537,703 1536,703 1375,502" idCharacter="SAINTOGAN_ZIGPUCE_MILLIONAIRES_010_character_6" idBalloon="SAINTOGAN_ZIGPUCE_MILLIONAIRES_010_balloon_3"/>
    <polygon points="1375,612 1376,613 1246,703 1245,703 1375,612" idCharacter="SAINTOGAN_ZIGPUCE_MILLIONAIRES_010_character_5" idBalloon="SAINTOGAN_ZIGPUCE_MILLIONAIRES_010_balloon_4"/>
    <polygon points="616,1985 617,1985 502,2241 501,2241 616,1985" idCharacter="SAINTOGAN_ZIGPUCE_MILLIONAIRES_010_character_10" idBalloon="SAINTOGAN_ZIGPUCE_MILLIONAIRES_010_balloon_6"/>
    <polygon points="1326,2000 1327,2000 1271,2297 1270,2297 1326,2000" idCharacter="SAINTOGAN_ZIGPUCE_MILLIONAIRES_010_character_11" idBalloon="SAINTOGAN_ZIGPUCE_MILLIONAIRES_010_balloon_7"/>
    <polygon points="2049,1980 2050,1980 1879,2258 1878,2258 2049,1980" idCharacter="SAINTOGAN_ZIGPUCE_MILLIONAIRES_010_character_12" idBalloon="SAINTOGAN_ZIGPUCE_MILLIONAIRES_010_balloon_8"/>
    <polygon points="1144,2665 1145,2665 1356,2878 1355,2878 1144,2665" idCharacter="SAINTOGAN_ZIGPUCE_MILLIONAIRES_010_character_14" idBalloon="SAINTOGAN_ZIGPUCE_MILLIONAIRES_010_balloon_9"/>
    <polygon points="2260,2853 2261,2853 2277,3094 2276,3094 2260,2853" idCharacter="SAINTOGAN_ZIGPUCE_MILLIONAIRES_010_character_16" idBalloon="SAINTOGAN_ZIGPUCE_MILLIONAIRES_010_balloon_10"/>
  </svg>
<metadata method="GroundTruth" lastModificationDate="Sun Feb 02 15:44:34 CET 2014" lastStepModified="Balloon_Rank"/>
</svg>