<?xml version="1.0" encoding="UTF-8" standalone="no"?>
<svg xmlns="http://www.w3.org/2000/svg" xmlns:xlink="http://www.w3.org/1999/xlink" contentScriptType="text/ecmascript" width="1240mm" zoomAndPan="magnify" contentStyleType="text/css" height="1746mm" viewBox="0 0 2481 3492" preserveAspectRatio="xMidYMid meet" version="1.0">
    <title>SAINTOGAN_ZIGPUCE_ET_ALFRED_020</title>
    <svg contentScriptType="text/ecmascript" zoomAndPan="magnify" contentStyleType="text/css" class="Page" preserveAspectRatio="xMidYMid meet" version="1.0">
        <image x="0" y="0" fill-opacity="0.5" width="2481" xlink:href="../Pages/SAINTOGAN_ZIGPUCE_ET_ALFRED_020.jpg" xlink:type="simple" xlink:actuate="onLoad" height="3492" opacity="0.5" preserveAspectRatio="xMidYMid meet" xlink:show="embed"/>
        <metadata collectionTitle="Zig Et Puce" editorName="Hachette" doublePage="false" website="http://collections.citebd.org/saintogan/www/fonds.php" albumTitle="Zig, Puce et Alfred" drawerName="Alain Saint Ogan" language="french" resolution="600" ISBN="" readingDirection="leftToRight" writerName="Alain Saint Ogan" releaseDate="1952" pageNumber="20"/>
    </svg>
	<style type="text/css" xml:space="preserve">
        * { stroke-width: 0; stroke-linejoin: round; }
        .Unclassified { fill: orange; stroke: none; opacity: 1.0; visibility: hidden; }
        .Noise { fill: pink; stroke: none; opacity: 0.2; visibility: hidden; }
        .Panel { fill: red; stroke: none; opacity: 0.3; visibility: visible; image-rendering: optimizeSpeed; }
        .Line { fill: green; stroke: none; opacity: 0.5; visibility: visible; image-rendering: optimizeSpeed; }
        .TextArea { fill: grey; stroke: none; opacity: 0.2; visibility: visible; image-rendering: optimizeSpeed; }
        .Balloon { fill: cyan; stroke: none; opacity: 0.5; visibility: visible; image-rendering: optimizeSpeed; }
        .Letter { fill: blue; stroke: none; opacity: 0.2; visibility: hidden; }
        .Character { fill: yellow; stroke: none; opacity: 0.3; visibility: visible; image-rendering: optimizeSpeed; }
        .Page { fill: white; stroke: none; opacity: 0.5; visibility: visible; }
        .linkSBSC { fill: blue; stroke: none; opacity: 0.5; visibility: visible; }
        polygon:hover { stroke:red;stroke-width:2; } 
    </style><svg contentScriptType="text/ecmascript" zoomAndPan="magnify" contentStyleType="text/css" class="Panel" preserveAspectRatio="xMidYMid meet" version="1.0">
        <polygon points="124,67 2360,94 2356,396 120,341 124,67" id="SAINTOGAN_ZIGPUCE_ET_ALFRED_020_panel_0">
            <metadata viewAngle="" shot="" rank="1"/>
        </polygon>
        <polygon points="124,381 857,381 857,1066 124,1066 124,381" id="SAINTOGAN_ZIGPUCE_ET_ALFRED_020_panel_1">
            <metadata viewAngle="" shot="" rank="2"/>
        </polygon>
        <polygon points="888,396 1602,396 1602,1076 888,1076 888,396" id="SAINTOGAN_ZIGPUCE_ET_ALFRED_020_panel_2">
            <metadata viewAngle="" shot="" rank="3"/>
        </polygon>
        <polygon points="1630,404 2356,404 2356,1091 1630,1091 1630,404" id="SAINTOGAN_ZIGPUCE_ET_ALFRED_020_panel_3">
            <metadata viewAngle="" shot="" rank="4"/>
        </polygon>
        <polygon points="114,1078 1596,1078 1596,1784 114,1784 114,1078" id="SAINTOGAN_ZIGPUCE_ET_ALFRED_020_panel_4">
            <metadata viewAngle="" shot="" rank="5"/>
        </polygon>
        <polygon points="1619,1103 2348,1103 2348,1796 1619,1796 1619,1103" id="SAINTOGAN_ZIGPUCE_ET_ALFRED_020_panel_5">
            <metadata viewAngle="" shot="" rank="6"/>
        </polygon>
        <polygon points="103,1782 842,1782 842,2470 103,2470 103,1782" id="SAINTOGAN_ZIGPUCE_ET_ALFRED_020_panel_6">
            <metadata viewAngle="" shot="" rank="7"/>
        </polygon>
        <polygon points="857,1798 1581,1798 1581,2487 857,2487 857,1798" id="SAINTOGAN_ZIGPUCE_ET_ALFRED_020_panel_7">
            <metadata viewAngle="" shot="" rank="8"/>
        </polygon>
        <polygon points="1611,1815 2344,1815 2344,2506 1611,2506 1611,1815" id="SAINTOGAN_ZIGPUCE_ET_ALFRED_020_panel_8">
            <metadata viewAngle="" shot="" rank="9"/>
        </polygon>
        <polygon points="91,2487 823,2487 823,3203 91,3203 91,2487" id="SAINTOGAN_ZIGPUCE_ET_ALFRED_020_panel_9">
            <metadata viewAngle="" shot="" rank="10"/>
        </polygon>
        <polygon points="855,2510 2335,2540 2341,3222 849,3205 855,2510" id="SAINTOGAN_ZIGPUCE_ET_ALFRED_020_panel_10">
            <metadata viewAngle="" shot="" rank="11"/>
        </polygon>
    </svg>
    <svg contentScriptType="text/ecmascript" zoomAndPan="magnify" contentStyleType="text/css" class="TextArea" preserveAspectRatio="xMidYMid meet" version="1.0"/>
    <svg contentScriptType="text/ecmascript" zoomAndPan="magnify" contentStyleType="text/css" class="Balloon" preserveAspectRatio="xMidYMid meet" version="1.0">
        <polygon points="150,394 214,391 325,396 383,392 517,401 634,399 753,399 837,412 853,460 848,549 836,674 807,696 725,682 575,683 469,678 379,662 359,649 363,679 363,705 351,722 350,741 341,780 289,790 316,776 330,748 323,714 327,678 323,637 326,618 211,619 135,600 138,416 150,394" id="SAINTOGAN_ZIGPUCE_ET_ALFRED_020_balloon_0">
            <metadata borderStyle="smooth" tailTip="289,790" boundingBox="" tailDirection="SW" rank="1"/>
        </polygon>
        <polygon points="1008,430 1074,432 1155,432 1253,434 1284,449 1282,488 1275,535 1279,585 1272,635 1236,646 1220,647 1218,662 1238,685 1242,710 1243,725 1249,743 1259,761 1253,780 1250,797 1235,809 1234,777 1229,752 1210,734 1213,707 1195,676 1171,653 1171,639 1103,639 1019,637 962,626 950,588 961,517 956,467 963,438 1008,430" id="SAINTOGAN_ZIGPUCE_ET_ALFRED_020_balloon_1">
            <metadata borderStyle="smooth" tailTip="1235,809" boundingBox="" tailDirection="S" rank="2"/>
        </polygon>
        <polygon points="1386,449 1422,457 1441,463 1470,463 1490,492 1515,501 1532,512 1548,538 1566,567 1576,593 1571,617 1559,634 1536,648 1529,652 1501,650 1486,653 1469,669 1443,664 1422,659 1394,663 1394,672 1378,686 1369,702 1366,725 1366,738 1350,712 1346,692 1360,659 1371,652 1346,651 1310,655 1286,644 1281,627 1288,610 1285,591 1288,566 1300,546 1310,524 1308,496 1317,469 1339,455 1386,449" id="SAINTOGAN_ZIGPUCE_ET_ALFRED_020_balloon_2">
            <metadata borderStyle="wavy" tailTip="1366,738" boundingBox="" tailDirection="S" rank="3"/>
        </polygon>
        <polygon points="2038,448 2116,449 2182,453 2310,454 2339,480 2337,596 2336,691 2332,801 2329,911 2305,941 2274,942 2239,947 2177,943 2138,939 2133,962 2115,972 2087,973 2104,959 2120,948 2117,930 2109,904 2065,904 2038,904 2001,885 2009,700 2021,622 2007,588 2020,520 2018,453 2038,448" id="SAINTOGAN_ZIGPUCE_ET_ALFRED_020_balloon_3">
            <metadata borderStyle="smooth" tailTip="2087,973" boundingBox="" tailDirection="SW" rank="4"/>
        </polygon>
        <polygon points="236,1516 278,1511 350,1516 380,1531 383,1560 378,1595 373,1624 339,1629 292,1632 279,1631 261,1642 236,1663 230,1644 235,1634 253,1621 233,1625 213,1623 203,1601 208,1557 220,1527 236,1516" id="SAINTOGAN_ZIGPUCE_ET_ALFRED_020_balloon_4">
            <metadata borderStyle="smooth" tailTip="236,1663" boundingBox="" tailDirection="S" rank="5"/>
        </polygon>
        <polygon points="507,1421 579,1424 652,1426 737,1424 793,1421 813,1440 816,1485 816,1542 816,1588 810,1613 755,1617 696,1614 626,1617 595,1612 546,1612 511,1613 492,1650 460,1669 405,1669 441,1662 467,1650 482,1633 487,1614 460,1601 451,1569 454,1524 454,1489 456,1457 458,1421 507,1421" id="SAINTOGAN_ZIGPUCE_ET_ALFRED_020_balloon_5">
            <metadata borderStyle="other" tailTip="405,1669" boundingBox="" tailDirection="W" rank="6"/>
        </polygon>
        <polygon points="2028,1127 2102,1125 2173,1133 2234,1142 2292,1142 2328,1165 2321,1217 2324,1268 2323,1322 2317,1365 2263,1384 2215,1383 2166,1380 2139,1380 2120,1385 2105,1394 2106,1413 2091,1409 2093,1382 2100,1374 2059,1380 2022,1369 1996,1346 1986,1321 1995,1264 1989,1230 2003,1179 2009,1136 2028,1127" id="SAINTOGAN_ZIGPUCE_ET_ALFRED_020_balloon_6">
            <metadata borderStyle="smooth" tailTip="2106,1413" boundingBox="" tailDirection="S" rank="7"/>
        </polygon>
        <polygon points="615,1882 634,1879 649,1883 654,1895 662,1891 682,1904 684,1933 676,1942 683,1961 677,1978 658,1984 655,1999 640,2008 630,2009 630,2019 621,2031 612,2033 612,2022 605,2015 599,2010 574,2012 555,2003 549,1979 555,1966 562,1962 554,1950 551,1936 555,1919 570,1909 575,1905 579,1890 595,1882 615,1882" id="SAINTOGAN_ZIGPUCE_ET_ALFRED_020_balloon_7">
            <metadata borderStyle="wavy" tailTip="621,2031" boundingBox="" tailDirection="S" rank="8"/>
        </polygon>
        <polygon points="662,2308 691,2295 709,2295 734,2300 759,2306 771,2304 789,2307 796,2319 816,2333 828,2347 832,2374 826,2396 824,2405 826,2419 814,2433 788,2440 781,2441 786,2456 798,2471 760,2470 760,2460 741,2451 730,2440 705,2450 680,2450 665,2441 635,2446 590,2453 555,2444 536,2424 525,2381 539,2349 558,2335 579,2332 596,2312 620,2303 662,2308" id="SAINTOGAN_ZIGPUCE_ET_ALFRED_020_balloon_8">
            <metadata borderStyle="wavy" tailTip="798,2471" boundingBox="" tailDirection="S" rank="9"/>
        </polygon>
        <polygon points="940,1808 1006,1806 1064,1810 1171,1812 1249,1813 1310,1812 1433,1816 1491,1821 1493,1843 1499,1874 1496,1904 1480,1930 1463,1950 1448,1964 1436,1994 1423,2018 1406,2030 1379,2040 1312,2033 1249,2033 1222,2033 1217,2049 1211,2074 1195,2081 1186,2097 1178,2083 1178,2063 1195,2050 1187,2036 1192,2026 1165,2027 1139,2016 1103,1979 1057,1961 992,1966 948,1963 909,1961 890,1929 894,1894 887,1872 893,1846 894,1812 940,1808" id="SAINTOGAN_ZIGPUCE_ET_ALFRED_020_balloon_9">
            <metadata borderStyle="smooth" tailTip="1186,2097" boundingBox="" tailDirection="S" rank="10"/>
        </polygon>
        <polygon points="1459,1943 1466,1952 1474,1944 1500,1942 1519,1954 1521,1974 1529,1982 1538,1998 1546,2018 1535,2036 1530,2043 1539,2060 1547,2076 1547,2091 1538,2105 1528,2113 1511,2117 1504,2121 1501,2135 1493,2144 1479,2147 1468,2147 1459,2149 1454,2167 1448,2145 1434,2141 1418,2149 1402,2144 1396,2128 1388,2130 1376,2124 1369,2110 1366,2097 1379,2076 1370,2063 1372,2047 1376,2031 1459,1943" id="SAINTOGAN_ZIGPUCE_ET_ALFRED_020_balloon_10">
            <metadata borderStyle="wavy" tailTip="1454,2167" boundingBox="" tailDirection="S" rank="11"/>
        </polygon>
        <polygon points="1803,1825 1847,1824 1910,1830 2002,1838 2066,1845 2148,1843 2207,1842 2241,1869 2243,1910 2233,1949 2236,1980 2236,2010 2215,2036 2190,2043 2193,2071 2205,2103 2208,2121 2220,2157 2207,2162 2205,2139 2187,2121 2186,2099 2172,2080 2167,2058 2164,2042 2118,2043 2069,2046 2008,2048 1941,2041 1894,2038 1854,2042 1797,2043 1772,2022 1778,1939 1779,1837 1803,1825" id="SAINTOGAN_ZIGPUCE_ET_ALFRED_020_balloon_11">
            <metadata borderStyle="smooth" tailTip="2207,2162" boundingBox="" tailDirection="S" rank="12"/>
        </polygon>
        <polygon points="498,2601 525,2599 539,2592 568,2590 595,2596 639,2597 680,2599 714,2603 776,2600 808,2622 810,2665 803,2707 805,2737 807,2762 790,2782 755,2788 718,2785 691,2781 672,2775 645,2778 629,2782 600,2776 598,2793 598,2809 599,2825 590,2841 581,2854 581,2867 583,2875 578,2892 570,2901 567,2905 575,2918 573,2931 569,2942 559,2953 552,2950 554,2932 542,2907 543,2882 556,2871 554,2855 556,2828 569,2803 564,2779 544,2783 534,2778 510,2782 484,2782 459,2770 459,2739 469,2708 464,2686 468,2669 470,2622 498,2601" id="SAINTOGAN_ZIGPUCE_ET_ALFRED_020_balloon_12">
            <metadata borderStyle="smooth" tailTip="559,2953" boundingBox="" tailDirection="S" rank="13"/>
        </polygon>
        <polygon points="879,2514 949,2517 1016,2521 1082,2518 1146,2516 1208,2520 1209,2553 1209,2582 1210,2621 1197,2640 1171,2643 1136,2640 1081,2640 1048,2643 1048,2664 1061,2694 1067,2724 1067,2741 1093,2761 1100,2795 1099,2815 1080,2787 1066,2773 1032,2753 1030,2729 1034,2706 1008,2687 1006,2656 1009,2642 966,2640 940,2634 914,2639 881,2637 867,2622 873,2590 866,2565 871,2549 863,2524 879,2514" id="SAINTOGAN_ZIGPUCE_ET_ALFRED_020_balloon_13">
            <metadata borderStyle="smooth" tailTip="1099,2815" boundingBox="" tailDirection="SE" rank="14"/>
        </polygon>
        <polygon points="1242,2526 1269,2524 1300,2530 1317,2530 1337,2522 1369,2525 1381,2529 1420,2529 1449,2534 1467,2542 1475,2578 1466,2596 1468,2612 1472,2627 1475,2647 1469,2663 1459,2677 1475,2678 1496,2681 1519,2698 1529,2708 1541,2728 1544,2746 1540,2763 1537,2774 1526,2782 1511,2791 1511,2771 1514,2752 1507,2732 1478,2714 1452,2707 1430,2705 1422,2703 1408,2718 1394,2727 1358,2737 1322,2736 1314,2730 1282,2739 1256,2737 1251,2727 1232,2724 1203,2719 1196,2699 1197,2667 1187,2642 1190,2616 1206,2596 1218,2585 1218,2558 1225,2539 1242,2526" id="SAINTOGAN_ZIGPUCE_ET_ALFRED_020_balloon_14">
            <metadata borderStyle="wavy" tailTip="1511,2791" boundingBox="" tailDirection="S" rank="15"/>
        </polygon>
        <polygon points="1615,2531 1653,2532 1663,2536 1690,2536 1710,2530 1734,2535 1741,2543 1766,2538 1796,2538 1825,2543 1850,2561 1856,2593 1857,2613 1858,2631 1860,2648 1857,2678 1856,2691 1856,2704 1858,2719 1857,2735 1848,2755 1844,2767 1844,2787 1840,2798 1822,2819 1793,2836 1767,2842 1748,2852 1731,2854 1710,2850 1694,2844 1676,2834 1667,2824 1653,2813 1648,2794 1633,2792 1600,2792 1580,2795 1555,2805 1539,2810 1532,2817 1527,2828 1522,2838 1520,2841 1508,2836 1514,2804 1528,2789 1546,2781 1541,2769 1552,2756 1539,2732 1538,2705 1518,2685 1507,2667 1512,2641 1505,2613 1511,2584 1523,2572 1533,2552 1542,2530 1571,2526 1615,2531" id="SAINTOGAN_ZIGPUCE_ET_ALFRED_020_balloon_15">
            <metadata borderStyle="wavy" tailTip="1520,2841" boundingBox="" tailDirection="S" rank="16"/>
        </polygon>
        <polygon points="1892,2541 1928,2537 1962,2534 1993,2537 2023,2539 2061,2533 2119,2533 2126,2536 2145,2536 2183,2536 2209,2536 2238,2540 2266,2541 2300,2543 2324,2544 2326,2571 2327,2595 2327,2609 2324,2627 2323,2643 2324,2661 2322,2682 2314,2692 2289,2700 2242,2698 2230,2697 2221,2711 2227,2735 2237,2747 2251,2772 2257,2793 2256,2815 2250,2828 2239,2836 2227,2835 2224,2823 2226,2808 2224,2787 2204,2758 2155,2741 2101,2735 2063,2744 2046,2757 2045,2769 2045,2785 2044,2795 2040,2808 2050,2820 2049,2844 2034,2853 2017,2860 1997,2869 1979,2872 1962,2868 1945,2864 1930,2873 1890,2877 1869,2861 1858,2837 1870,2797 1864,2766 1875,2744 1882,2683 1872,2637 1881,2601 1892,2541" id="SAINTOGAN_ZIGPUCE_ET_ALFRED_020_balloon_16">
            <metadata borderStyle="smooth" tailTip="2227,2835" boundingBox="" tailDirection="SW" rank="17"/>
        </polygon>
    </svg>
    <svg contentScriptType="text/ecmascript" zoomAndPan="magnify" contentStyleType="text/css" class="Character" preserveAspectRatio="xMidYMid meet" version="1.0">
        <polygon points="127,658 285,658 285,1047 127,1047 127,658" id="SAINTOGAN_ZIGPUCE_ET_ALFRED_020_character_0">
            <metadata ID="" rank=""/>
        </polygon>
        <polygon points="302,930 403,930 403,1047 302,1047 302,930" id="SAINTOGAN_ZIGPUCE_ET_ALFRED_020_character_1">
            <metadata ID="" rank=""/>
        </polygon>
        <polygon points="406,744 542,744 542,1051 406,1051 406,744" id="SAINTOGAN_ZIGPUCE_ET_ALFRED_020_character_2">
            <metadata ID="" rank=""/>
        </polygon>
        <polygon points="531,783 640,783 640,1049 531,1049 531,783" id="SAINTOGAN_ZIGPUCE_ET_ALFRED_020_character_3">
            <metadata ID="" rank=""/>
        </polygon>
        <polygon points="614,825 807,825 807,1058 614,1058 614,825" id="SAINTOGAN_ZIGPUCE_ET_ALFRED_020_character_4">
            <metadata ID="" rank=""/>
        </polygon>
        <polygon points="1174,825 1387,825 1387,1068 1174,1068 1174,825" id="SAINTOGAN_ZIGPUCE_ET_ALFRED_020_character_5">
            <metadata ID="" rank=""/>
        </polygon>
        <polygon points="1347,753 1496,753 1496,1073 1347,1073 1347,753" id="SAINTOGAN_ZIGPUCE_ET_ALFRED_020_character_6">
            <metadata ID="" rank=""/>
        </polygon>
        <polygon points="1955,900 2104,900 2104,1088 1955,1088 1955,900" id="SAINTOGAN_ZIGPUCE_ET_ALFRED_020_character_7">
            <metadata ID="" rank=""/>
        </polygon>
        <polygon points="2159,998 2240,998 2240,1088 2159,1088 2159,998" id="SAINTOGAN_ZIGPUCE_ET_ALFRED_020_character_8">
            <metadata ID="" rank=""/>
        </polygon>
        <polygon points="2139,974 2194,974 2194,1082 2139,1082 2139,974" id="SAINTOGAN_ZIGPUCE_ET_ALFRED_020_character_9">
            <metadata ID="" rank=""/>
        </polygon>
        <polygon points="2117,1396 2223,1396 2223,1619 2117,1619 2117,1396" id="SAINTOGAN_ZIGPUCE_ET_ALFRED_020_character_10">
            <metadata ID="" rank=""/>
        </polygon>
        <polygon points="344,1641 412,1641 412,1753 344,1753 344,1641" id="SAINTOGAN_ZIGPUCE_ET_ALFRED_020_character_11">
            <metadata ID="" rank=""/>
        </polygon>
        <polygon points="206,1655 258,1655 258,1755 206,1755 206,1655" id="SAINTOGAN_ZIGPUCE_ET_ALFRED_020_character_12">
            <metadata ID="" rank=""/>
        </polygon>
        <polygon points="278,1666 326,1666 326,1755 278,1755 278,1666" id="SAINTOGAN_ZIGPUCE_ET_ALFRED_020_character_13">
            <metadata ID="" rank=""/>
        </polygon>
        <polygon points="603,2025 834,2025 834,2274 603,2274 603,2025" id="SAINTOGAN_ZIGPUCE_ET_ALFRED_020_character_14">
            <metadata ID="" rank=""/>
        </polygon>
        <polygon points="976,2100 1231,2100 1231,2484 976,2484 976,2100" id="SAINTOGAN_ZIGPUCE_ET_ALFRED_020_character_15">
            <metadata ID="" rank=""/>
        </polygon>
        <polygon points="1369,2146 1582,2146 1582,2488 1369,2488 1369,2146" id="SAINTOGAN_ZIGPUCE_ET_ALFRED_020_character_16">
            <metadata ID="" rank=""/>
        </polygon>
        <polygon points="2225,2181 2344,2181 2344,2499 2225,2499 2225,2181" id="SAINTOGAN_ZIGPUCE_ET_ALFRED_020_character_17">
            <metadata ID="" rank=""/>
        </polygon>
        <polygon points="129,2675 274,2675 274,2973 129,2973 129,2675" id="SAINTOGAN_ZIGPUCE_ET_ALFRED_020_character_18">
            <metadata ID="" rank=""/>
        </polygon>
        <polygon points="221,2826 502,2826 502,3140 221,3140 221,2826" id="SAINTOGAN_ZIGPUCE_ET_ALFRED_020_character_19">
            <metadata ID="" rank=""/>
        </polygon>
        <polygon points="592,2860 821,2860 818,3149 592,3149 592,2860" id="SAINTOGAN_ZIGPUCE_ET_ALFRED_020_character_20">
            <metadata ID="" rank=""/>
        </polygon>
        <polygon points="1005,2761 1297,2761 1297,3217 1005,3217 1005,2761" id="SAINTOGAN_ZIGPUCE_ET_ALFRED_020_character_21">
            <metadata ID="" rank=""/>
        </polygon>
        <polygon points="1374,2734 1488,2734 1488,3215 1374,3215 1374,2734" id="SAINTOGAN_ZIGPUCE_ET_ALFRED_020_character_22">
            <metadata ID="" rank=""/>
        </polygon>
        <polygon points="1224,2780 1409,2780 1409,3134 1224,3134 1224,2780" id="SAINTOGAN_ZIGPUCE_ET_ALFRED_020_character_23">
            <metadata ID="" rank=""/>
        </polygon>
        <polygon points="1531,2802 1744,2802 1744,3222 1531,3222 1531,2802" id="SAINTOGAN_ZIGPUCE_ET_ALFRED_020_character_24">
            <metadata ID="" rank=""/>
        </polygon>
        <polygon points="1866,2697 2232,2697 2232,3217 1864,3217 1866,2697" id="SAINTOGAN_ZIGPUCE_ET_ALFRED_020_character_25">
            <metadata ID="" rank=""/>
        </polygon>
    </svg>
    <svg contentScriptType="text/ecmascript" zoomAndPan="magnify" contentStyleType="text/css" class="Line" preserveAspectRatio="xMidYMid meet" version="1.0">
        <polygon points="578,96 1727,96 1727,233 578,233 578,96" id="SAINTOGAN_ZIGPUCE_ET_ALFRED_020_line_0">
            <metadata method="" typography="" textType="note">ZIG et PUCE</metadata>
        </polygon>
        <polygon points="441,243 1774,243 1774,347 441,347 441,243" id="SAINTOGAN_ZIGPUCE_ET_ALFRED_020_line_1">
            <metadata method="" typography="" textType="note">LA MACHINE à CONSERVES</metadata>
        </polygon>
        <polygon points="162,405 810,405 810,458 162,458 162,405" id="SAINTOGAN_ZIGPUCE_ET_ALFRED_020_line_2">
            <metadata method="" typography="" idBalloon="SAINTOGAN_ZIGPUCE_ET_ALFRED_020_balloon_0" textType="speech">MES ENFANTS, JE VAIS VOUS</metadata>
        </polygon>
        <polygon points="169,453 826,453 826,497 169,497 169,453" id="SAINTOGAN_ZIGPUCE_ET_ALFRED_020_line_3">
            <metadata method="" typography="" idBalloon="SAINTOGAN_ZIGPUCE_ET_ALFRED_020_balloon_0" textType="speech">FAIRE VISITER MES USINES.</metadata>
        </polygon>
        <polygon points="156,502 831,502 831,544 156,544 156,502" id="SAINTOGAN_ZIGPUCE_ET_ALFRED_020_line_4">
            <metadata method="" typography="" idBalloon="SAINTOGAN_ZIGPUCE_ET_ALFRED_020_balloon_0" textType="speech">VOUS VERREZ LA MERVEILLEU-</metadata>
        </polygon>
        <polygon points="159,545 798,545 798,602 159,602 159,545" id="SAINTOGAN_ZIGPUCE_ET_ALFRED_020_line_5">
            <metadata method="" typography="" idBalloon="SAINTOGAN_ZIGPUCE_ET_ALFRED_020_balloon_0" textType="speech">SE MACHINE à FAIRE LES</metadata>
        </polygon>
        <polygon points="394,613 633,613 633,643 394,643 394,613" id="SAINTOGAN_ZIGPUCE_ET_ALFRED_020_line_6">
            <metadata method="" typography="" idBalloon="SAINTOGAN_ZIGPUCE_ET_ALFRED_020_balloon_0" textType="speech">CONSERVES.</metadata>
        </polygon>
        <polygon points="985,452 1256,452 1256,481 985,481 985,452" id="SAINTOGAN_ZIGPUCE_ET_ALFRED_020_line_7">
            <metadata method="" typography="" idBalloon="SAINTOGAN_ZIGPUCE_ET_ALFRED_020_balloon_1" textType="speech">CETTE BIELLE</metadata>
        </polygon>
        <polygon points="982,494 1263,494 1263,529 982,529 982,494" id="SAINTOGAN_ZIGPUCE_ET_ALFRED_020_line_8">
            <metadata method="" typography="" idBalloon="SAINTOGAN_ZIGPUCE_ET_ALFRED_020_balloon_1" textType="speech">EST FENDUE.</metadata>
        </polygon>
        <polygon points="972,530 1217,530 1217,573 972,573 972,530" id="SAINTOGAN_ZIGPUCE_ET_ALFRED_020_line_9">
            <metadata method="" typography="" idBalloon="SAINTOGAN_ZIGPUCE_ET_ALFRED_020_balloon_1" textType="speech">IL FAUDRAIT</metadata>
        </polygon>
        <polygon points="979,583 1263,583 1263,623 979,623 979,583" id="SAINTOGAN_ZIGPUCE_ET_ALFRED_020_line_10">
            <metadata method="" typography="" idBalloon="SAINTOGAN_ZIGPUCE_ET_ALFRED_020_balloon_1" textType="speech">LA REMPLACER</metadata>
        </polygon>
        <polygon points="1344,472 1439,472 1439,504 1344,504 1344,472" id="SAINTOGAN_ZIGPUCE_ET_ALFRED_020_line_11">
            <metadata method="" typography="" idBalloon="SAINTOGAN_ZIGPUCE_ET_ALFRED_020_balloon_2" textType="speech">BAH !</metadata>
        </polygon>
        <polygon points="1330,510 1519,510 1519,546 1330,546 1330,510" id="SAINTOGAN_ZIGPUCE_ET_ALFRED_020_line_12">
            <metadata method="" typography="" idBalloon="SAINTOGAN_ZIGPUCE_ET_ALFRED_020_balloon_2" textType="speech">ELLE IRA</metadata>
        </polygon>
        <polygon points="1303,561 1559,561 1559,590 1303,590 1303,561" id="SAINTOGAN_ZIGPUCE_ET_ALFRED_020_line_13">
            <metadata method="" typography="" idBalloon="SAINTOGAN_ZIGPUCE_ET_ALFRED_020_balloon_2" textType="speech">ENCORE BIEN</metadata>
        </polygon>
        <polygon points="1309,597 1541,597 1541,629 1309,629 1309,597" id="SAINTOGAN_ZIGPUCE_ET_ALFRED_020_line_14">
            <metadata method="" typography="" idBalloon="SAINTOGAN_ZIGPUCE_ET_ALFRED_020_balloon_2" textType="speech">AUJOURD'HUI</metadata>
        </polygon>
        <polygon points="2031,461 2316,461 2316,499 2031,499 2031,461" id="SAINTOGAN_ZIGPUCE_ET_ALFRED_020_line_15">
            <metadata method="" typography="" idBalloon="SAINTOGAN_ZIGPUCE_ET_ALFRED_020_balloon_3" textType="speech">VOILA LA FA-</metadata>
        </polygon>
        <polygon points="2029,512 2317,512 2317,543 2029,543 2029,512" id="SAINTOGAN_ZIGPUCE_ET_ALFRED_020_line_16">
            <metadata method="" typography="" idBalloon="SAINTOGAN_ZIGPUCE_ET_ALFRED_020_balloon_3" textType="speech">MEUSE MACHI-</metadata>
        </polygon>
        <polygon points="2033,555 2326,555 2326,580 2033,580 2033,555" id="SAINTOGAN_ZIGPUCE_ET_ALFRED_020_line_17">
            <metadata method="" typography="" idBalloon="SAINTOGAN_ZIGPUCE_ET_ALFRED_020_balloon_3" textType="speech">NE... ELLE SORT</metadata>
        </polygon>
        <polygon points="2028,584 2310,584 2310,620 2028,620 2028,584" id="SAINTOGAN_ZIGPUCE_ET_ALFRED_020_line_18">
            <metadata method="" typography="" idBalloon="SAINTOGAN_ZIGPUCE_ET_ALFRED_020_balloon_3" textType="speech">10.000 BOîTES</metadata>
        </polygon>
        <polygon points="2035,628 2312,628 2312,660 2035,660 2035,628" id="SAINTOGAN_ZIGPUCE_ET_ALFRED_020_line_19">
            <metadata method="" typography="" idBalloon="SAINTOGAN_ZIGPUCE_ET_ALFRED_020_balloon_3" textType="speech">DE CONSERVES</metadata>
        </polygon>
        <polygon points="2023,661 2322,661 2322,697 2023,697 2023,661" id="SAINTOGAN_ZIGPUCE_ET_ALFRED_020_line_20">
            <metadata method="" typography="" idBalloon="SAINTOGAN_ZIGPUCE_ET_ALFRED_020_balloon_3" textType="speech">à L'HEURE .. NOUS</metadata>
        </polygon>
        <polygon points="2020,702 2331,702 2331,733 2020,733 2020,702" id="SAINTOGAN_ZIGPUCE_ET_ALFRED_020_line_21">
            <metadata method="" typography="" idBalloon="SAINTOGAN_ZIGPUCE_ET_ALFRED_020_balloon_3" textType="speech">AVONS UNE GROS-</metadata>
        </polygon>
        <polygon points="2022,747 2303,747 2303,770 2022,770 2022,747" id="SAINTOGAN_ZIGPUCE_ET_ALFRED_020_line_22">
            <metadata method="" typography="" idBalloon="SAINTOGAN_ZIGPUCE_ET_ALFRED_020_balloon_3" textType="speech">SE COMMANDE</metadata>
        </polygon>
        <polygon points="2018,783 2308,783 2308,809 2018,809 2018,783" id="SAINTOGAN_ZIGPUCE_ET_ALFRED_020_line_23">
            <metadata method="" typography="" idBalloon="SAINTOGAN_ZIGPUCE_ET_ALFRED_020_balloon_3" textType="speech">DU GOUVERNE-</metadata>
        </polygon>
        <polygon points="2020,822 2313,822 2313,851 2020,851 2020,822" id="SAINTOGAN_ZIGPUCE_ET_ALFRED_020_line_24">
            <metadata method="" typography="" idBalloon="SAINTOGAN_ZIGPUCE_ET_ALFRED_020_balloon_3" textType="speech">MENT JAPONAIS</metadata>
        </polygon>
        <polygon points="2015,853 2306,853 2306,887 2015,887 2015,853" id="SAINTOGAN_ZIGPUCE_ET_ALFRED_020_line_25">
            <metadata method="" typography="" idBalloon="SAINTOGAN_ZIGPUCE_ET_ALFRED_020_balloon_3" textType="speech">à EXPéDIER CE</metadata>
        </polygon>
        <polygon points="2150,898 2273,898 2273,929 2150,929 2150,898" id="SAINTOGAN_ZIGPUCE_ET_ALFRED_020_line_26">
            <metadata method="" typography="" idBalloon="SAINTOGAN_ZIGPUCE_ET_ALFRED_020_balloon_3" textType="speech">SOIR ...</metadata>
        </polygon>
        <polygon points="231,1529 364,1529 364,1557 231,1557 231,1529" id="SAINTOGAN_ZIGPUCE_ET_ALFRED_020_line_27">
            <metadata method="" typography="" idBalloon="SAINTOGAN_ZIGPUCE_ET_ALFRED_020_balloon_4" textType="speech">ALFRED.</metadata>
        </polygon>
        <polygon points="218,1561 370,1561 370,1582 218,1582 218,1561" id="SAINTOGAN_ZIGPUCE_ET_ALFRED_020_line_28">
            <metadata method="" typography="" idBalloon="SAINTOGAN_ZIGPUCE_ET_ALFRED_020_balloon_4" textType="speech">NE T'ELOI-</metadata>
        </polygon>
        <polygon points="214,1592 345,1592 345,1611 214,1611 214,1592" id="SAINTOGAN_ZIGPUCE_ET_ALFRED_020_line_29">
            <metadata method="" typography="" idBalloon="SAINTOGAN_ZIGPUCE_ET_ALFRED_020_balloon_4" textType="speech">GNE PAS</metadata>
        </polygon>
        <polygon points="463,1434 793,1434 793,1469 463,1469 463,1434" id="SAINTOGAN_ZIGPUCE_ET_ALFRED_020_line_30">
            <metadata method="" typography="" idBalloon="SAINTOGAN_ZIGPUCE_ET_ALFRED_020_balloon_5" textType="speech">VOUS VOYEZ, LES</metadata>
        </polygon>
        <polygon points="465,1475 796,1475 796,1504 465,1504 465,1475" id="SAINTOGAN_ZIGPUCE_ET_ALFRED_020_line_31">
            <metadata method="" typography="" idBalloon="SAINTOGAN_ZIGPUCE_ET_ALFRED_020_balloon_5" textType="speech">LAPINS ENTRENT</metadata>
        </polygon>
        <polygon points="466,1507 807,1507 807,1539 466,1539 466,1507" id="SAINTOGAN_ZIGPUCE_ET_ALFRED_020_line_32">
            <metadata method="" typography="" idBalloon="SAINTOGAN_ZIGPUCE_ET_ALFRED_020_balloon_5" textType="speech">PAR ICI ... Les BOî-</metadata>
        </polygon>
        <polygon points="468,1545 812,1545 812,1575 468,1575 468,1545" id="SAINTOGAN_ZIGPUCE_ET_ALFRED_020_line_33">
            <metadata method="" typography="" idBalloon="SAINTOGAN_ZIGPUCE_ET_ALFRED_020_balloon_5" textType="speech">TES DE CONSERVES SOR-</metadata>
        </polygon>
        <polygon points="468,1583 808,1583 808,1608 468,1608 468,1583" id="SAINTOGAN_ZIGPUCE_ET_ALFRED_020_line_34">
            <metadata method="" typography="" idBalloon="SAINTOGAN_ZIGPUCE_ET_ALFRED_020_balloon_5" textType="speech">TENT DE L'AUTRE COTé</metadata>
        </polygon>
        <polygon points="2011,1146 2304,1146 2304,1185 2011,1185 2011,1146" id="SAINTOGAN_ZIGPUCE_ET_ALFRED_020_line_35">
            <metadata method="" typography="" idBalloon="SAINTOGAN_ZIGPUCE_ET_ALFRED_020_balloon_6" textType="speech">JE NE SUIS PAS</metadata>
        </polygon>
        <polygon points="2018,1185 2310,1185 2310,1222 2018,1222 2018,1185" id="SAINTOGAN_ZIGPUCE_ET_ALFRED_020_line_36">
            <metadata method="" typography="" idBalloon="SAINTOGAN_ZIGPUCE_ET_ALFRED_020_balloon_6" textType="speech">TRANQUILLE...</metadata>
        </polygon>
        <polygon points="2013,1219 2310,1219 2310,1253 2013,1253 2013,1219" id="SAINTOGAN_ZIGPUCE_ET_ALFRED_020_line_37">
            <metadata method="" typography="" idBalloon="SAINTOGAN_ZIGPUCE_ET_ALFRED_020_balloon_6" textType="speech">SI CETTE BIELLE</metadata>
        </polygon>
        <polygon points="2005,1261 2307,1261 2307,1304 2005,1304 2005,1261" id="SAINTOGAN_ZIGPUCE_ET_ALFRED_020_line_38">
            <metadata method="" typography="" idBalloon="SAINTOGAN_ZIGPUCE_ET_ALFRED_020_balloon_6" textType="speech">CéDAIT, çA ARRê-</metadata>
        </polygon>
        <polygon points="2004,1303 2314,1303 2314,1340 2004,1340 2004,1303" id="SAINTOGAN_ZIGPUCE_ET_ALFRED_020_line_39">
            <metadata method="" typography="" idBalloon="SAINTOGAN_ZIGPUCE_ET_ALFRED_020_balloon_6" textType="speech">TERAIT TOUTE LA</metadata>
        </polygon>
        <polygon points="2045,1339 2226,1339 2226,1366 2045,1366 2045,1339" id="SAINTOGAN_ZIGPUCE_ET_ALFRED_020_line_40">
            <metadata method="" typography="" idBalloon="SAINTOGAN_ZIGPUCE_ET_ALFRED_020_balloon_6" textType="speech">MACHINE.</metadata>
        </polygon>
        <polygon points="580,1897 649,1897 649,1997 580,1997 580,1897" id="SAINTOGAN_ZIGPUCE_ET_ALFRED_020_line_41">
            <metadata method="" typography="" idBalloon="SAINTOGAN_ZIGPUCE_ET_ALFRED_020_balloon_7" textType="speech">?</metadata>
        </polygon>
        <polygon points="602,2316 792,2316 792,2346 602,2346 602,2316" id="SAINTOGAN_ZIGPUCE_ET_ALFRED_020_line_42">
            <metadata method="" typography="" idBalloon="SAINTOGAN_ZIGPUCE_ET_ALFRED_020_balloon_8" textType="speech">FAIS ATTEN-</metadata>
        </polygon>
        <polygon points="562,2345 819,2345 819,2378 562,2378 562,2345" id="SAINTOGAN_ZIGPUCE_ET_ALFRED_020_line_43">
            <metadata method="" typography="" idBalloon="SAINTOGAN_ZIGPUCE_ET_ALFRED_020_balloon_8" textType="speech">TION... ALFRED,</metadata>
        </polygon>
        <polygon points="533,2378 819,2378 819,2407 533,2407 533,2378" id="SAINTOGAN_ZIGPUCE_ET_ALFRED_020_line_44">
            <metadata method="" typography="" idBalloon="SAINTOGAN_ZIGPUCE_ET_ALFRED_020_balloon_8" textType="speech">TU POURRAIS TOM-</metadata>
        </polygon>
        <polygon points="552,2409 672,2409 672,2435 552,2435 552,2409" id="SAINTOGAN_ZIGPUCE_ET_ALFRED_020_line_45">
            <metadata method="" typography="" idBalloon="SAINTOGAN_ZIGPUCE_ET_ALFRED_020_balloon_8" textType="speech">BER...</metadata>
        </polygon>
        <polygon points="924,1817 1433,1817 1433,1863 924,1863 924,1817" id="SAINTOGAN_ZIGPUCE_ET_ALFRED_020_line_46">
            <metadata method="" typography="" idBalloon="SAINTOGAN_ZIGPUCE_ET_ALFRED_020_balloon_9" textType="speech">çA Y EST !.. MON DIEU'...</metadata>
        </polygon>
        <polygon points="910,1856 1474,1856 1474,1910 910,1910 910,1856" id="SAINTOGAN_ZIGPUCE_ET_ALFRED_020_line_47">
            <metadata method="" typography="" idBalloon="SAINTOGAN_ZIGPUCE_ET_ALFRED_020_balloon_9" textType="speech">MON DIEU !.. ALFRED VIENT</metadata>
        </polygon>
        <polygon points="907,1910 1424,1910 1424,1958 907,1958 907,1910" id="SAINTOGAN_ZIGPUCE_ET_ALFRED_020_line_48">
            <metadata method="" typography="" idBalloon="SAINTOGAN_ZIGPUCE_ET_ALFRED_020_balloon_9" textType="speech">DE TOMBER DANS LA</metadata>
        </polygon>
        <polygon points="1121,1962 1385,1962 1385,2020 1121,2020 1121,1962" id="SAINTOGAN_ZIGPUCE_ET_ALFRED_020_line_49">
            <metadata method="" typography="" idBalloon="SAINTOGAN_ZIGPUCE_ET_ALFRED_020_balloon_9" textType="speech">MACHINE !</metadata>
        </polygon>
        <polygon points="1432,1970 1476,1970 1476,2124 1432,2124 1432,1970" id="SAINTOGAN_ZIGPUCE_ET_ALFRED_020_line_50">
            <metadata method="" typography="" idBalloon="SAINTOGAN_ZIGPUCE_ET_ALFRED_020_balloon_10" textType="speech">!</metadata>
        </polygon>
        <polygon points="1810,1845 2215,1845 2215,1893 1810,1893 1810,1845" id="SAINTOGAN_ZIGPUCE_ET_ALFRED_020_line_51">
            <metadata method="" typography="" idBalloon="SAINTOGAN_ZIGPUCE_ET_ALFRED_020_balloon_11" textType="speech">C'éTAIT FATAL !.. LA</metadata>
        </polygon>
        <polygon points="1799,1892 2220,1892 2220,1932 1799,1932 1799,1892" id="SAINTOGAN_ZIGPUCE_ET_ALFRED_020_line_52">
            <metadata method="" typography="" idBalloon="SAINTOGAN_ZIGPUCE_ET_ALFRED_020_balloon_11" textType="speech">BIELLE EST CASSéE...</metadata>
        </polygon>
        <polygon points="1794,1935 2209,1935 2209,1975 1794,1975 1794,1935" id="SAINTOGAN_ZIGPUCE_ET_ALFRED_020_line_53">
            <metadata method="" typography="" idBalloon="SAINTOGAN_ZIGPUCE_ET_ALFRED_020_balloon_11" textType="speech">VOILà LA MACHINE</metadata>
        </polygon>
        <polygon points="1803,1980 2028,1980 2028,2017 1803,2017 1803,1980" id="SAINTOGAN_ZIGPUCE_ET_ALFRED_020_line_54">
            <metadata method="" typography="" idBalloon="SAINTOGAN_ZIGPUCE_ET_ALFRED_020_balloon_11" textType="speech">BLOQUéE !</metadata>
        </polygon>
        <polygon points="494,2622 795,2622 795,2665 494,2665 494,2622" id="SAINTOGAN_ZIGPUCE_ET_ALFRED_020_line_55">
            <metadata method="" typography="" idBalloon="SAINTOGAN_ZIGPUCE_ET_ALFRED_020_balloon_12" textType="speech">JE CROIS QU'IL</metadata>
        </polygon>
        <polygon points="485,2669 767,2669 767,2713 485,2713 485,2669" id="SAINTOGAN_ZIGPUCE_ET_ALFRED_020_line_56">
            <metadata method="" typography="" idBalloon="SAINTOGAN_ZIGPUCE_ET_ALFRED_020_balloon_12" textType="speech">EST ENCORE</metadata>
        </polygon>
        <polygon points="491,2712 691,2712 691,2752 491,2752 491,2712" id="SAINTOGAN_ZIGPUCE_ET_ALFRED_020_line_57">
            <metadata method="" typography="" idBalloon="SAINTOGAN_ZIGPUCE_ET_ALFRED_020_balloon_12" textType="speech">VIVANT !</metadata>
        </polygon>
        <polygon points="875,2527 1179,2527 1179,2563 875,2563 875,2527" id="SAINTOGAN_ZIGPUCE_ET_ALFRED_020_line_58">
            <metadata method="" typography="" idBalloon="SAINTOGAN_ZIGPUCE_ET_ALFRED_020_balloon_13" textType="speech">DANS QUEL é-</metadata>
        </polygon>
        <polygon points="881,2565 1158,2565 1158,2608 881,2608 881,2565" id="SAINTOGAN_ZIGPUCE_ET_ALFRED_020_line_59">
            <metadata method="" typography="" idBalloon="SAINTOGAN_ZIGPUCE_ET_ALFRED_020_balloon_13" textType="speech">TAT IL EST !</metadata>
        </polygon>
        <polygon points="1234,2549 1449,2549 1449,2582 1234,2582 1234,2549" id="SAINTOGAN_ZIGPUCE_ET_ALFRED_020_line_60">
            <metadata method="" typography="" idBalloon="SAINTOGAN_ZIGPUCE_ET_ALFRED_020_balloon_14" textType="speech">AVEC DES</metadata>
        </polygon>
        <polygon points="1237,2586 1425,2586 1425,2622 1237,2622 1237,2586" id="SAINTOGAN_ZIGPUCE_ET_ALFRED_020_line_61">
            <metadata method="" typography="" idBalloon="SAINTOGAN_ZIGPUCE_ET_ALFRED_020_balloon_14" textType="speech">SOINS IL</metadata>
        </polygon>
        <polygon points="1215,2630 1446,2630 1446,2664 1215,2664 1215,2630" id="SAINTOGAN_ZIGPUCE_ET_ALFRED_020_line_62">
            <metadata method="" typography="" idBalloon="SAINTOGAN_ZIGPUCE_ET_ALFRED_020_balloon_14" textType="speech">SE REMET-</metadata>
        </polygon>
        <polygon points="1234,2677 1358,2677 1358,2708 1234,2708 1234,2677" id="SAINTOGAN_ZIGPUCE_ET_ALFRED_020_line_63">
            <metadata method="" typography="" idBalloon="SAINTOGAN_ZIGPUCE_ET_ALFRED_020_balloon_14" textType="speech">TRA...</metadata>
        </polygon>
        <polygon points="1559,2544 1835,2544 1835,2579 1559,2579 1559,2544" id="SAINTOGAN_ZIGPUCE_ET_ALFRED_020_line_64">
            <metadata method="" typography="" idBalloon="SAINTOGAN_ZIGPUCE_ET_ALFRED_020_balloon_15" textType="speech">QUEL BONHEUR</metadata>
        </polygon>
        <polygon points="1543,2583 1822,2583 1822,2618 1543,2618 1543,2583" id="SAINTOGAN_ZIGPUCE_ET_ALFRED_020_line_65">
            <metadata method="" typography="" idBalloon="SAINTOGAN_ZIGPUCE_ET_ALFRED_020_balloon_15" textType="speech">GRâCE à CET</metadata>
        </polygon>
        <polygon points="1553,2625 1832,2625 1832,2660 1553,2660 1553,2625" id="SAINTOGAN_ZIGPUCE_ET_ALFRED_020_line_66">
            <metadata method="" typography="" idBalloon="SAINTOGAN_ZIGPUCE_ET_ALFRED_020_balloon_15" textType="speech">HEUREUX AC-</metadata>
        </polygon>
        <polygon points="1557,2666 1797,2666 1797,2699 1557,2699 1557,2666" id="SAINTOGAN_ZIGPUCE_ET_ALFRED_020_line_67">
            <metadata method="" typography="" idBalloon="SAINTOGAN_ZIGPUCE_ET_ALFRED_020_balloon_15" textType="speech">CIDENT DE</metadata>
        </polygon>
        <polygon points="1571,2705 1837,2705 1837,2734 1571,2734 1571,2705" id="SAINTOGAN_ZIGPUCE_ET_ALFRED_020_line_68">
            <metadata method="" typography="" idBalloon="SAINTOGAN_ZIGPUCE_ET_ALFRED_020_balloon_15" textType="speech">MACHINE AL-</metadata>
        </polygon>
        <polygon points="1569,2746 1836,2746 1836,2779 1569,2779 1569,2746" id="SAINTOGAN_ZIGPUCE_ET_ALFRED_020_line_69">
            <metadata method="" typography="" idBalloon="SAINTOGAN_ZIGPUCE_ET_ALFRED_020_balloon_15" textType="speech">FRED EST SAU-</metadata>
        </polygon>
        <polygon points="1673,2785 1766,2785 1766,2823 1673,2823 1673,2785" id="SAINTOGAN_ZIGPUCE_ET_ALFRED_020_line_70">
            <metadata method="" typography="" idBalloon="SAINTOGAN_ZIGPUCE_ET_ALFRED_020_balloon_15" textType="speech">Vé !..</metadata>
        </polygon>
        <polygon points="1901,2547 2309,2547 2309,2588 1901,2588 1901,2547" id="SAINTOGAN_ZIGPUCE_ET_ALFRED_020_line_71">
            <metadata method="" typography="" idBalloon="SAINTOGAN_ZIGPUCE_ET_ALFRED_020_balloon_16" textType="speech">QUELLE TRISTESSE !</metadata>
        </polygon>
        <polygon points="1897,2585 2296,2585 2296,2622 1897,2622 1897,2585" id="SAINTOGAN_ZIGPUCE_ET_ALFRED_020_line_72">
            <metadata method="" typography="" idBalloon="SAINTOGAN_ZIGPUCE_ET_ALFRED_020_balloon_16" textType="speech">à CAUSE DE CE MAL-</metadata>
        </polygon>
        <polygon points="1890,2631 2300,2631 2300,2666 1890,2666 1890,2631" id="SAINTOGAN_ZIGPUCE_ET_ALFRED_020_line_73">
            <metadata method="" typography="" idBalloon="SAINTOGAN_ZIGPUCE_ET_ALFRED_020_balloon_16" textType="speech">HEUREUX ACCIDENT</metadata>
        </polygon>
        <polygon points="1893,2673 2150,2673 2150,2707 1893,2707 1893,2673" id="SAINTOGAN_ZIGPUCE_ET_ALFRED_020_line_74">
            <metadata method="" typography="" idBalloon="SAINTOGAN_ZIGPUCE_ET_ALFRED_020_balloon_16" textType="speech">DE MACHINE.</metadata>
        </polygon>
        <polygon points="1884,2710 2064,2710 2064,2745 1884,2745 1884,2710" id="SAINTOGAN_ZIGPUCE_ET_ALFRED_020_line_75">
            <metadata method="" typography="" idBalloon="SAINTOGAN_ZIGPUCE_ET_ALFRED_020_balloon_16" textType="speech">MA COM-</metadata>
        </polygon>
        <polygon points="1884,2750 2019,2750 2019,2785 1884,2785 1884,2750" id="SAINTOGAN_ZIGPUCE_ET_ALFRED_020_line_76">
            <metadata method="" typography="" idBalloon="SAINTOGAN_ZIGPUCE_ET_ALFRED_020_balloon_16" textType="speech">MANDE</metadata>
        </polygon>
        <polygon points="1897,2784 1976,2784 1976,2814 1897,2814 1897,2784" id="SAINTOGAN_ZIGPUCE_ET_ALFRED_020_line_77">
            <metadata method="" typography="" idBalloon="SAINTOGAN_ZIGPUCE_ET_ALFRED_020_balloon_16" textType="speech">EST</metadata>
        </polygon>
        <polygon points="1880,2811 2029,2811 2029,2853 1880,2853 1880,2811" id="SAINTOGAN_ZIGPUCE_ET_ALFRED_020_line_78">
            <metadata method="" typography="" idBalloon="SAINTOGAN_ZIGPUCE_ET_ALFRED_020_balloon_16" textType="speech">RATéE !.</metadata>
        </polygon>
        <polygon points="1170,3277 1217,3277 1217,3308 1170,3308 1170,3277" id="SAINTOGAN_ZIGPUCE_ET_ALFRED_020_line_79">
            <metadata method="" typography="" textType="speech">20</metadata>
        </polygon>
    </svg>
    <svg contentScriptType="text/ecmascript" zoomAndPan="magnify" contentStyleType="text/css" class="linkSBSC" preserveAspectRatio="xMidYMid meet" version="1.0">
    <polygon points="494,590 495,590 207,852 206,852 494,590" idCharacter="SAINTOGAN_ZIGPUCE_ET_ALFRED_020_character_0" idBalloon="SAINTOGAN_ZIGPUCE_ET_ALFRED_020_balloon_0"/>
    <polygon points="1117,619 1118,619 1281,946 1280,946 1117,619" idCharacter="SAINTOGAN_ZIGPUCE_ET_ALFRED_020_character_5" idBalloon="SAINTOGAN_ZIGPUCE_ET_ALFRED_020_balloon_1"/>
    <polygon points="1428,593 1429,593 1422,913 1421,913 1428,593" idCharacter="SAINTOGAN_ZIGPUCE_ET_ALFRED_020_character_6" idBalloon="SAINTOGAN_ZIGPUCE_ET_ALFRED_020_balloon_2"/>
    <polygon points="2170,710 2171,710 2030,994 2029,994 2170,710" idCharacter="SAINTOGAN_ZIGPUCE_ET_ALFRED_020_character_7" idBalloon="SAINTOGAN_ZIGPUCE_ET_ALFRED_020_balloon_3"/>
    <polygon points="2157,1269 2158,1269 2171,1507 2170,1507 2157,1269" idCharacter="SAINTOGAN_ZIGPUCE_ET_ALFRED_020_character_10" idBalloon="SAINTOGAN_ZIGPUCE_ET_ALFRED_020_balloon_6"/>
    <polygon points="610,1545 611,1545 379,1697 378,1697 610,1545" idCharacter="SAINTOGAN_ZIGPUCE_ET_ALFRED_020_character_11" idBalloon="SAINTOGAN_ZIGPUCE_ET_ALFRED_020_balloon_5"/>
    <polygon points="293,1587 294,1587 233,1705 232,1705 293,1587" idCharacter="SAINTOGAN_ZIGPUCE_ET_ALFRED_020_character_12" idBalloon="SAINTOGAN_ZIGPUCE_ET_ALFRED_020_balloon_4"/>
    <polygon points="616,1956 617,1956 719,2149 718,2149 616,1956" idCharacter="SAINTOGAN_ZIGPUCE_ET_ALFRED_020_character_14" idBalloon="SAINTOGAN_ZIGPUCE_ET_ALFRED_020_balloon_7"/>
    <polygon points="1193,1951 1194,1951 1104,2292 1103,2292 1193,1951" idCharacter="SAINTOGAN_ZIGPUCE_ET_ALFRED_020_character_15" idBalloon="SAINTOGAN_ZIGPUCE_ET_ALFRED_020_balloon_9"/>
    <polygon points="1456,2054 1457,2054 1476,2317 1475,2317 1456,2054" idCharacter="SAINTOGAN_ZIGPUCE_ET_ALFRED_020_character_16" idBalloon="SAINTOGAN_ZIGPUCE_ET_ALFRED_020_balloon_10"/>
    <polygon points="2007,1993 2008,1993 2285,2340 2284,2340 2007,1993" idCharacter="SAINTOGAN_ZIGPUCE_ET_ALFRED_020_character_17" idBalloon="SAINTOGAN_ZIGPUCE_ET_ALFRED_020_balloon_11"/>
    <polygon points="634,2771 635,2771 707,3004 706,3004 634,2771" idCharacter="SAINTOGAN_ZIGPUCE_ET_ALFRED_020_character_20" idBalloon="SAINTOGAN_ZIGPUCE_ET_ALFRED_020_balloon_12"/>
    <polygon points="1036,2664 1037,2664 1152,2989 1151,2989 1036,2664" idCharacter="SAINTOGAN_ZIGPUCE_ET_ALFRED_020_character_21" idBalloon="SAINTOGAN_ZIGPUCE_ET_ALFRED_020_balloon_13"/>
    <polygon points="1365,2656 1366,2656 1432,2974 1431,2974 1365,2656" idCharacter="SAINTOGAN_ZIGPUCE_ET_ALFRED_020_character_22" idBalloon="SAINTOGAN_ZIGPUCE_ET_ALFRED_020_balloon_14"/>
    <polygon points="1682,2690 1683,2690 1638,3012 1637,3012 1682,2690" idCharacter="SAINTOGAN_ZIGPUCE_ET_ALFRED_020_character_24" idBalloon="SAINTOGAN_ZIGPUCE_ET_ALFRED_020_balloon_15"/>
    <polygon points="2092,2705 2093,2705 2049,2957 2048,2957 2092,2705" idCharacter="SAINTOGAN_ZIGPUCE_ET_ALFRED_020_character_25" idBalloon="SAINTOGAN_ZIGPUCE_ET_ALFRED_020_balloon_16"/>
  </svg>
<metadata method="GroundTruth" lastModificationDate="Mon Mar 31 19:01:00 CEST 2014" lastStepModified="Object_Metadata"/>
</svg>