<?xml version="1.0" encoding="UTF-8" standalone="no"?>
<svg xmlns="http://www.w3.org/2000/svg" xmlns:xlink="http://www.w3.org/1999/xlink" contentScriptType="text/ecmascript" width="2656mm" zoomAndPan="magnify" contentStyleType="text/css" height="1816mm" viewBox="0 0 5313 3633" preserveAspectRatio="xMidYMid meet" version="1.0">
    <title>SAINTOGAN_PROSPER_ET_LE_MONSTRE_MARIN_046</title>
    <svg contentScriptType="text/ecmascript" zoomAndPan="magnify" contentStyleType="text/css" class="Page" preserveAspectRatio="xMidYMid meet" version="1.0">
        <image x="0" y="0" fill-opacity="0.5" width="5313" xlink:href="../Pages/SAINTOGAN_PROSPER_ET_LE_MONSTRE_MARIN_046.jpg" xlink:type="simple" xlink:actuate="onLoad" height="3633" opacity="0.5" preserveAspectRatio="xMidYMid meet" xlink:show="embed"/>
        <metadata collectionTitle="Zig Et Puce" editorName="Hachette" doublePage="true" website="http://collections.citebd.org/saintogan/www/fonds.php" albumTitle="Prosper Et Le Monstre Marin" drawerName="Alain Saint Ogan" language="french" resolution="600" ISBN="" readingDirection="leftToRight" writerName="Alain Saint Ogan" releaseDate="1934" pageNumber="46"/>
    </svg>
	<style type="text/css" xml:space="preserve">
        * { stroke-width: 0; stroke-linejoin: round; }
        .Unclassified { fill: orange; stroke: none; opacity: 1.0; visibility: hidden; }
        .Noise { fill: pink; stroke: none; opacity: 0.2; visibility: hidden; }
        .Panel { fill: red; stroke: none; opacity: 0.3; visibility: visible; image-rendering: optimizeSpeed; }
        .Line { fill: green; stroke: none; opacity: 0.5; visibility: visible; image-rendering: optimizeSpeed; }
        .TextArea { fill: grey; stroke: none; opacity: 0.2; visibility: visible; image-rendering: optimizeSpeed; }
        .Balloon { fill: cyan; stroke: none; opacity: 0.5; visibility: visible; image-rendering: optimizeSpeed; }
        .Letter { fill: blue; stroke: none; opacity: 0.2; visibility: hidden; }
        .Character { fill: yellow; stroke: none; opacity: 0.3; visibility: visible; image-rendering: optimizeSpeed; }
        .Page { fill: white; stroke: none; opacity: 0.5; visibility: visible; }
        .linkSBSC { fill: blue; stroke: none; opacity: 0.5; visibility: visible; }
        polygon:hover { stroke:red;stroke-width:2; } 
    </style><svg contentScriptType="text/ecmascript" zoomAndPan="magnify" contentStyleType="text/css" class="Panel" preserveAspectRatio="xMidYMid meet" version="1.0">
        <polygon points="413,316 1297,316 1297,1268 413,1268 413,316" id="SAINTOGAN_PROSPER_ET_LE_MONSTRE_MARIN_046_panel_0">
            <metadata viewAngle="" shot="" rank="1"/>
        </polygon>
        <polygon points="1218,298 2179,298 2179,830 1218,830 1218,298" id="SAINTOGAN_PROSPER_ET_LE_MONSTRE_MARIN_046_panel_1">
            <metadata viewAngle="" shot="" rank="2"/>
        </polygon>
        <polygon points="1186,663 2596,663 2596,1981 1186,1981 1186,663" id="SAINTOGAN_PROSPER_ET_LE_MONSTRE_MARIN_046_panel_2">
            <metadata viewAngle="" shot="" rank="3"/>
        </polygon>
        <polygon points="429,1347 1380,1347 1380,2238 429,2238 429,1347" id="SAINTOGAN_PROSPER_ET_LE_MONSTRE_MARIN_046_panel_3">
            <metadata viewAngle="" shot="" rank="4"/>
        </polygon>
        <polygon points="445,2133 1543,2133 1543,3193 445,3193 445,2133" id="SAINTOGAN_PROSPER_ET_LE_MONSTRE_MARIN_046_panel_4">
            <metadata viewAngle="" shot="" rank="5"/>
        </polygon>
        <polygon points="1457,2172 2602,2172 2602,3241 1457,3241 1457,2172" id="SAINTOGAN_PROSPER_ET_LE_MONSTRE_MARIN_046_panel_5">
            <metadata viewAngle="" shot="" rank="6"/>
        </polygon>
        <polygon points="2887,301 4259,303 4263,1347 2888,1342 2887,301" id="SAINTOGAN_PROSPER_ET_LE_MONSTRE_MARIN_046_panel_6">
            <metadata viewAngle="" shot="" rank="7"/>
        </polygon>
        <polygon points="4296,304 5041,305 5040,1352 4301,1348 4296,304" id="SAINTOGAN_PROSPER_ET_LE_MONSTRE_MARIN_046_panel_7">
            <metadata viewAngle="" shot="" rank="8"/>
        </polygon>
        <polygon points="2889,1502 3745,1508 3739,2232 2889,2227 2889,1502" id="SAINTOGAN_PROSPER_ET_LE_MONSTRE_MARIN_046_panel_8">
            <metadata viewAngle="" shot="" rank="9"/>
        </polygon>
        <polygon points="3781,1510 4276,1515 4277,2234 3778,2232 3781,1510" id="SAINTOGAN_PROSPER_ET_LE_MONSTRE_MARIN_046_panel_9">
            <metadata viewAngle="" shot="" rank="10"/>
        </polygon>
        <polygon points="4315,1517 5040,1527 5038,2241 4314,2237 4315,1517" id="SAINTOGAN_PROSPER_ET_LE_MONSTRE_MARIN_046_panel_10">
            <metadata viewAngle="" shot="" rank="11"/>
        </polygon>
        <polygon points="2886,2311 3630,2312 3629,3238 2885,3236 2886,2311" id="SAINTOGAN_PROSPER_ET_LE_MONSTRE_MARIN_046_panel_11">
            <metadata viewAngle="" shot="" rank="12"/>
        </polygon>
        <polygon points="3669,2313 5039,2319 5033,3243 3664,3237 3669,2313" id="SAINTOGAN_PROSPER_ET_LE_MONSTRE_MARIN_046_panel_12">
            <metadata viewAngle="" shot="" rank="13"/>
        </polygon>
    </svg>
    <svg contentScriptType="text/ecmascript" zoomAndPan="magnify" contentStyleType="text/css" class="TextArea" preserveAspectRatio="xMidYMid meet" version="1.0"/>
    <svg contentScriptType="text/ecmascript" zoomAndPan="magnify" contentStyleType="text/css" class="Balloon" preserveAspectRatio="xMidYMid meet" version="1.0">
        <polygon points="2161,455 2570,461 2565,691 2160,692 2161,455" id="SAINTOGAN_PROSPER_ET_LE_MONSTRE_MARIN_046_balloon_0">
            <metadata borderStyle="other" tailTip="" boundingBox="" tailDirection="none" rank="1"/>
        </polygon>
        <polygon points="427,1274 1150,1258 1157,1435 416,1433 427,1274" id="SAINTOGAN_PROSPER_ET_LE_MONSTRE_MARIN_046_balloon_1">
            <metadata borderStyle="other" tailTip="" boundingBox="" tailDirection="none" rank="2"/>
        </polygon>
        <polygon points="1443,2013 2587,2004 2592,2256 1439,2251 1443,2013" id="SAINTOGAN_PROSPER_ET_LE_MONSTRE_MARIN_046_balloon_2">
            <metadata borderStyle="other" tailTip="" boundingBox="" tailDirection="none" rank="3"/>
        </polygon>
        <polygon points="451,3201 1432,3197 1448,3344 443,3353 451,3201" id="SAINTOGAN_PROSPER_ET_LE_MONSTRE_MARIN_046_balloon_3">
            <metadata borderStyle="other" tailTip="" boundingBox="" tailDirection="none" rank="4"/>
        </polygon>
        <polygon points="1462,3222 2585,3213 2594,3321 1469,3330 1462,3222" id="SAINTOGAN_PROSPER_ET_LE_MONSTRE_MARIN_046_balloon_4">
            <metadata borderStyle="other" tailTip="" boundingBox="" tailDirection="none" rank="5"/>
        </polygon>
        <polygon points="2878,1342 4275,1355 4273,1506 2887,1493 2878,1342" id="SAINTOGAN_PROSPER_ET_LE_MONSTRE_MARIN_046_balloon_5">
            <metadata borderStyle="other" tailTip="" boundingBox="" tailDirection="none" rank="6"/>
        </polygon>
        <polygon points="4293,1357 5050,1360 5041,1509 4284,1488 4293,1357" id="SAINTOGAN_PROSPER_ET_LE_MONSTRE_MARIN_046_balloon_6">
            <metadata borderStyle="other" tailTip="" boundingBox="" tailDirection="none" rank="7"/>
        </polygon>
        <polygon points="2887,2236 3718,2239 3723,2304 2891,2288 2887,2236" id="SAINTOGAN_PROSPER_ET_LE_MONSTRE_MARIN_046_balloon_7">
            <metadata borderStyle="other" tailTip="" boundingBox="" tailDirection="none" rank="8"/>
        </polygon>
        <polygon points="3815,2239 4162,2239 4156,2300 3820,2304 3815,2239" id="SAINTOGAN_PROSPER_ET_LE_MONSTRE_MARIN_046_balloon_8">
            <metadata borderStyle="other" tailTip="" boundingBox="" tailDirection="none" rank="9"/>
        </polygon>
        <polygon points="4453,2248 4951,2261 4951,2300 4451,2297 4453,2248" id="SAINTOGAN_PROSPER_ET_LE_MONSTRE_MARIN_046_balloon_9">
            <metadata borderStyle="other" tailTip="" boundingBox="" tailDirection="none" rank="10"/>
        </polygon>
        <polygon points="2954,3250 3569,3250 3571,3339 2962,3331 2954,3250" id="SAINTOGAN_PROSPER_ET_LE_MONSTRE_MARIN_046_balloon_10">
            <metadata borderStyle="other" tailTip="" boundingBox="" tailDirection="none" rank="11"/>
        </polygon>
        <polygon points="3823,3250 4898,3255 4888,3339 3818,3338 3823,3250" id="SAINTOGAN_PROSPER_ET_LE_MONSTRE_MARIN_046_balloon_11">
            <metadata borderStyle="other" tailTip="" boundingBox="" tailDirection="none" rank="12"/>
        </polygon>
    </svg>
    <svg contentScriptType="text/ecmascript" zoomAndPan="magnify" contentStyleType="text/css" class="Character" preserveAspectRatio="xMidYMid meet" version="1.0">
        <polygon points="481,487 745,487 745,761 481,761 481,487" id="SAINTOGAN_PROSPER_ET_LE_MONSTRE_MARIN_046_character_0">
            <metadata uri="" area="" fillingPcent=""/>
        </polygon>
        <polygon points="608,657 875,657 875,1061 608,1061 608,657" id="SAINTOGAN_PROSPER_ET_LE_MONSTRE_MARIN_046_character_1">
            <metadata uri="" area="" fillingPcent=""/>
        </polygon>
        <polygon points="1449,451 1619,451 1619,667 1449,667 1449,451" id="SAINTOGAN_PROSPER_ET_LE_MONSTRE_MARIN_046_character_2">
            <metadata uri="" area="" fillingPcent=""/>
        </polygon>
        <polygon points="1612,490 1756,490 1756,711 1612,711 1612,490" id="SAINTOGAN_PROSPER_ET_LE_MONSTRE_MARIN_046_character_3">
            <metadata uri="" area="" fillingPcent=""/>
        </polygon>
        <polygon points="1594,974 1922,974 1922,1491 1594,1491 1594,974" id="SAINTOGAN_PROSPER_ET_LE_MONSTRE_MARIN_046_character_4">
            <metadata uri="" area="" fillingPcent=""/>
        </polygon>
        <polygon points="1518,1198 1745,1198 1745,1567 1518,1567 1518,1198" id="SAINTOGAN_PROSPER_ET_LE_MONSTRE_MARIN_046_character_5">
            <metadata uri="" area="" fillingPcent=""/>
        </polygon>
        <polygon points="1341,1119 1522,1119 1522,1473 1341,1473 1341,1119" id="SAINTOGAN_PROSPER_ET_LE_MONSTRE_MARIN_046_character_6">
            <metadata uri="" area="" fillingPcent=""/>
        </polygon>
        <polygon points="936,1437 1280,1437 1280,2152 936,2152 936,1437" id="SAINTOGAN_PROSPER_ET_LE_MONSTRE_MARIN_046_character_7">
            <metadata uri="" area="" fillingPcent=""/>
        </polygon>
        <polygon points="727,1672 936,1672 936,2170 727,2170 727,1672" id="SAINTOGAN_PROSPER_ET_LE_MONSTRE_MARIN_046_character_8">
            <metadata uri="" area="" fillingPcent=""/>
        </polygon>
        <polygon points="507,1718 752,1718 752,2206 507,2206 507,1718" id="SAINTOGAN_PROSPER_ET_LE_MONSTRE_MARIN_046_character_9">
            <metadata uri="" area="" fillingPcent=""/>
        </polygon>
        <polygon points="1572,2470 2013,2470 2013,3098 1572,3098 1572,2470" id="SAINTOGAN_PROSPER_ET_LE_MONSTRE_MARIN_046_character_10">
            <metadata uri="" area="" fillingPcent=""/>
        </polygon>
        <polygon points="1987,2549 2305,2549 2305,3069 1987,3069 1987,2549" id="SAINTOGAN_PROSPER_ET_LE_MONSTRE_MARIN_046_character_11">
            <metadata uri="" area="" fillingPcent=""/>
        </polygon>
        <polygon points="2273,2733 2562,2733 2562,3113 2273,3113 2273,2733" id="SAINTOGAN_PROSPER_ET_LE_MONSTRE_MARIN_046_character_12">
            <metadata uri="" area="" fillingPcent=""/>
        </polygon>
        <polygon points="1196,2639 1384,2639 1384,2874 1196,2874 1196,2639" id="SAINTOGAN_PROSPER_ET_LE_MONSTRE_MARIN_046_character_13">
            <metadata uri="" area="" fillingPcent=""/>
        </polygon>
        <polygon points="1164,2434 1399,2434 1399,2712 1164,2712 1164,2434" id="SAINTOGAN_PROSPER_ET_LE_MONSTRE_MARIN_046_character_14">
            <metadata uri="" area="" fillingPcent=""/>
        </polygon>
        <polygon points="3541,552 3754,552 3754,913 3541,913 3541,552" id="SAINTOGAN_PROSPER_ET_LE_MONSTRE_MARIN_046_character_15">
            <metadata uri="" area="" fillingPcent=""/>
        </polygon>
        <polygon points="3764,512 4071,512 4071,964 3764,964 3764,512" id="SAINTOGAN_PROSPER_ET_LE_MONSTRE_MARIN_046_character_16">
            <metadata uri="" area="" fillingPcent=""/>
        </polygon>
        <polygon points="3208,888 3389,888 3389,1115 3208,1115 3208,888" id="SAINTOGAN_PROSPER_ET_LE_MONSTRE_MARIN_046_character_17">
            <metadata uri="" area="" fillingPcent=""/>
        </polygon>
        <polygon points="4400,675 4779,675 4779,1126 4400,1126 4400,675" id="SAINTOGAN_PROSPER_ET_LE_MONSTRE_MARIN_046_character_18">
            <metadata uri="" area="" fillingPcent=""/>
        </polygon>
        <polygon points="4754,891 4891,891 4891,1173 4754,1173 4754,891" id="SAINTOGAN_PROSPER_ET_LE_MONSTRE_MARIN_046_character_19">
            <metadata uri="" area="" fillingPcent=""/>
        </polygon>
        <polygon points="3183,1693 3526,1693 3526,2101 3183,2101 3183,1693" id="SAINTOGAN_PROSPER_ET_LE_MONSTRE_MARIN_046_character_20">
            <metadata uri="" area="" fillingPcent=""/>
        </polygon>
        <polygon points="3508,1816 3689,1816 3689,2090 3508,2090 3508,1816" id="SAINTOGAN_PROSPER_ET_LE_MONSTRE_MARIN_046_character_21">
            <metadata uri="" area="" fillingPcent=""/>
        </polygon>
        <polygon points="3887,1737 4191,1737 4191,2192 3887,2192 3887,1737" id="SAINTOGAN_PROSPER_ET_LE_MONSTRE_MARIN_046_character_22">
            <metadata uri="" area="" fillingPcent=""/>
        </polygon>
        <polygon points="3840,1581 4082,1581 4082,1787 3840,1787 3840,1581" id="SAINTOGAN_PROSPER_ET_LE_MONSTRE_MARIN_046_character_23">
            <metadata uri="" area="" fillingPcent=""/>
        </polygon>
        <polygon points="4465,1715 4750,1715 4750,2159 4465,2159 4465,1715" id="SAINTOGAN_PROSPER_ET_LE_MONSTRE_MARIN_046_character_24">
            <metadata uri="" area="" fillingPcent=""/>
        </polygon>
        <polygon points="4461,1610 4768,1610 4768,1769 4461,1769 4461,1610" id="SAINTOGAN_PROSPER_ET_LE_MONSTRE_MARIN_046_character_25">
            <metadata uri="" area="" fillingPcent=""/>
        </polygon>
        <polygon points="3331,2484 3584,2484 3584,2863 3331,2863 3331,2484" id="SAINTOGAN_PROSPER_ET_LE_MONSTRE_MARIN_046_character_26">
            <metadata uri="" area="" fillingPcent=""/>
        </polygon>
        <polygon points="3338,2849 3616,2849 3616,3066 3338,3066 3338,2849" id="SAINTOGAN_PROSPER_ET_LE_MONSTRE_MARIN_046_character_27">
            <metadata uri="" area="" fillingPcent=""/>
        </polygon>
        <polygon points="2890,2694 3313,2694 3313,2993 2890,2993 2890,2694" id="SAINTOGAN_PROSPER_ET_LE_MONSTRE_MARIN_046_character_28">
            <metadata uri="" area="" fillingPcent=""/>
        </polygon>
        <polygon points="4292,2733 4599,2733 4599,2936 4292,2936 4292,2733" id="SAINTOGAN_PROSPER_ET_LE_MONSTRE_MARIN_046_character_29">
            <metadata uri="" area="" fillingPcent=""/>
        </polygon>
        <polygon points="4035,2694 4508,2694 4508,3152 4035,3152 4035,2694" id="SAINTOGAN_PROSPER_ET_LE_MONSTRE_MARIN_046_character_30">
            <metadata uri="" area="" fillingPcent=""/>
        </polygon>
        <polygon points="4624,2473 4949,2473 4949,2874 4624,2874 4624,2473" id="SAINTOGAN_PROSPER_ET_LE_MONSTRE_MARIN_046_character_31">
            <metadata uri="" area="" fillingPcent=""/>
        </polygon>
    </svg>
    <svg contentScriptType="text/ecmascript" zoomAndPan="magnify" contentStyleType="text/css" class="Line" preserveAspectRatio="xMidYMid meet" version="1.0">
        <polygon points="389,207 1041,207 1041,256 389,256 389,207" id="SAINTOGAN_PROSPER_ET_LE_MONSTRE_MARIN_046_line_0">
            <metadata method="" typography="" textType="note">CHAMPION MALGRE LUI</metadata>
        </polygon>
        <polygon points="2176,474 2550,474 2550,510 2176,510 2176,474" id="SAINTOGAN_PROSPER_ET_LE_MONSTRE_MARIN_046_line_1">
            <metadata method="" typography="" idBalloon="SAINTOGAN_PROSPER_ET_LE_MONSTRE_MARIN_046_balloon_0" textType="speech">Toutoune. - En -</metadata>
        </polygon>
        <polygon points="2215,516 2550,516 2550,554 2215,554 2215,516" id="SAINTOGAN_PROSPER_ET_LE_MONSTRE_MARIN_046_line_2">
            <metadata method="" typography="" idBalloon="SAINTOGAN_PROSPER_ET_LE_MONSTRE_MARIN_046_balloon_0" textType="speech">trons ici... Ils</metadata>
        </polygon>
        <polygon points="2215,562 2551,562 2551,605 2215,605 2215,562" id="SAINTOGAN_PROSPER_ET_LE_MONSTRE_MARIN_046_line_3">
            <metadata method="" typography="" idBalloon="SAINTOGAN_PROSPER_ET_LE_MONSTRE_MARIN_046_balloon_0" textType="speech">n'auront pas</metadata>
        </polygon>
        <polygon points="2217,607 2551,607 2551,642 2218,642 2217,607" id="SAINTOGAN_PROSPER_ET_LE_MONSTRE_MARIN_046_line_4">
            <metadata method="" typography="" idBalloon="SAINTOGAN_PROSPER_ET_LE_MONSTRE_MARIN_046_balloon_0" textType="speech">l'idee de nous</metadata>
        </polygon>
        <polygon points="2253,651 2522,651 2522,689 2253,689 2253,651" id="SAINTOGAN_PROSPER_ET_LE_MONSTRE_MARIN_046_line_5">
            <metadata method="" typography="" idBalloon="SAINTOGAN_PROSPER_ET_LE_MONSTRE_MARIN_046_balloon_0" textType="speech">chercher la !</metadata>
        </polygon>
        <polygon points="430,1287 1124,1287 1124,1328 430,1328 430,1287" id="SAINTOGAN_PROSPER_ET_LE_MONSTRE_MARIN_046_line_6">
            <metadata method="" typography="" idBalloon="SAINTOGAN_PROSPER_ET_LE_MONSTRE_MARIN_046_balloon_1" textType="speech">Toutoune. - Nous avons seme</metadata>
        </polygon>
        <polygon points="473,1332 1122,1332 1122,1379 473,1379 473,1332" id="SAINTOGAN_PROSPER_ET_LE_MONSTRE_MARIN_046_line_7">
            <metadata method="" typography="" idBalloon="SAINTOGAN_PROSPER_ET_LE_MONSTRE_MARIN_046_balloon_1" textType="speech">les policiers, mais ils pour-</metadata>
        </polygon>
        <polygon points="501,1373 1097,1373 1097,1419 501,1419 501,1373" id="SAINTOGAN_PROSPER_ET_LE_MONSTRE_MARIN_046_line_8">
            <metadata method="" typography="" idBalloon="SAINTOGAN_PROSPER_ET_LE_MONSTRE_MARIN_046_balloon_1" textType="speech">raient bien nous rattraper !</metadata>
        </polygon>
        <polygon points="1447,2041 2571,2028 2571,2068 1447,2081 1447,2041" id="SAINTOGAN_PROSPER_ET_LE_MONSTRE_MARIN_046_line_9">
            <metadata method="" typography="" idBalloon="SAINTOGAN_PROSPER_ET_LE_MONSTRE_MARIN_046_balloon_2" textType="speech">Le controleur. - Eh la !... on n'entre pas sans billet.</metadata>
        </polygon>
        <polygon points="1453,2086 2569,2076 2571,2111 1453,2125 1453,2086" id="SAINTOGAN_PROSPER_ET_LE_MONSTRE_MARIN_046_line_10">
            <metadata method="" typography="" idBalloon="SAINTOGAN_PROSPER_ET_LE_MONSTRE_MARIN_046_balloon_2" textType="speech">Toutoune. - Je vais vous dire... Hum... Voila... mon</metadata>
        </polygon>
        <polygon points="1931,2128 2571,2120 2571,2155 1931,2163 1931,2128" id="SAINTOGAN_PROSPER_ET_LE_MONSTRE_MARIN_046_line_11">
            <metadata method="" typography="" idBalloon="SAINTOGAN_PROSPER_ET_LE_MONSTRE_MARIN_046_balloon_2" textType="speech">ami ours est lutteur... oui...</metadata>
        </polygon>
        <polygon points="1931,2171 2573,2165 2574,2205 1931,2214 1931,2171" id="SAINTOGAN_PROSPER_ET_LE_MONSTRE_MARIN_046_line_12">
            <metadata method="" typography="" idBalloon="SAINTOGAN_PROSPER_ET_LE_MONSTRE_MARIN_046_balloon_2" textType="speech">champion de jiu-jitsu... et</metadata>
        </polygon>
        <polygon points="1968,2218 2540,2210 2541,2249 1968,2258 1968,2218" id="SAINTOGAN_PROSPER_ET_LE_MONSTRE_MARIN_046_line_13">
            <metadata method="" typography="" idBalloon="SAINTOGAN_PROSPER_ET_LE_MONSTRE_MARIN_046_balloon_2" textType="speech">moi, je suis son soigneur...</metadata>
        </polygon>
        <polygon points="1760,404 1964,404 1964,505 1760,505 1760,404" id="SAINTOGAN_PROSPER_ET_LE_MONSTRE_MARIN_046_line_14">
            <metadata method="" typography="" textType="illustrative">LUTTES</metadata>
        </polygon>
        <polygon points="1746,465 1925,465 1925,549 1746,549 1746,465" id="SAINTOGAN_PROSPER_ET_LE_MONSTRE_MARIN_046_line_15">
            <metadata method="" typography="" textType="illustrative">LiBRES</metadata>
        </polygon>
        <polygon points="2090,1098 2562,1098 2562,1395 2090,1395 2090,1098" id="SAINTOGAN_PROSPER_ET_LE_MONSTRE_MARIN_046_line_16">
            <metadata method="" typography="" textType="illustrative">PANCRACE</metadata>
        </polygon>
        <polygon points="4479,199 5067,199 5067,255 4479,255 4479,199" id="SAINTOGAN_PROSPER_ET_LE_MONSTRE_MARIN_046_line_17">
            <metadata method="" typography="" textType="note">PROSPER VAINQUEUR</metadata>
        </polygon>
        <polygon points="2887,1350 4264,1350 4264,1401 2887,1401 2887,1350" id="SAINTOGAN_PROSPER_ET_LE_MONSTRE_MARIN_046_line_18">
            <metadata method="" typography="" idBalloon="SAINTOGAN_PROSPER_ET_LE_MONSTRE_MARIN_046_balloon_5" textType="speech">L'arbitre. - Mesdames et Messieurs, le match de lutte libre</metadata>
        </polygon>
        <polygon points="2930,1396 4131,1396 4131,1443 2930,1443 2930,1396" id="SAINTOGAN_PROSPER_ET_LE_MONSTRE_MARIN_046_line_19">
            <metadata method="" typography="" idBalloon="SAINTOGAN_PROSPER_ET_LE_MONSTRE_MARIN_046_balloon_5" textType="speech">entre l'hippopotqme et l'ours Prosper est commence !</metadata>
        </polygon>
        <polygon points="2896,1439 3581,1439 3581,1486 2896,1486 2896,1439" id="SAINTOGAN_PROSPER_ET_LE_MONSTRE_MARIN_046_line_20">
            <metadata method="" typography="" idBalloon="SAINTOGAN_PROSPER_ET_LE_MONSTRE_MARIN_046_balloon_5" textType="speech">Toutoune. - Courage, Prosper !</metadata>
        </polygon>
        <polygon points="4299,1363 5045,1363 5045,1415 4299,1415 4299,1363" id="SAINTOGAN_PROSPER_ET_LE_MONSTRE_MARIN_046_line_21">
            <metadata method="" typography="" idBalloon="SAINTOGAN_PROSPER_ET_LE_MONSTRE_MARIN_046_balloon_6" textType="speech">L'hippopotqme. - Ou allez-vous,</metadata>
        </polygon>
        <polygon points="4339,1410 5044,1410 5044,1454 4339,1454 4339,1410" id="SAINTOGAN_PROSPER_ET_LE_MONSTRE_MARIN_046_line_22">
            <metadata method="" typography="" idBalloon="SAINTOGAN_PROSPER_ET_LE_MONSTRE_MARIN_046_balloon_6" textType="speech">jeune ours ? - Prosper. - Je ne</metadata>
        </polygon>
        <polygon points="4342,1457 4974,1457 4974,1499 4342,1499 4342,1457" id="SAINTOGAN_PROSPER_ET_LE_MONSTRE_MARIN_046_line_23">
            <metadata method="" typography="" idBalloon="SAINTOGAN_PROSPER_ET_LE_MONSTRE_MARIN_046_balloon_6" textType="speech">vous parle pas, laissez - moi !</metadata>
        </polygon>
        <polygon points="2889,2242 3698,2242 3698,2286 2889,2286 2889,2242" id="SAINTOGAN_PROSPER_ET_LE_MONSTRE_MARIN_046_line_24">
            <metadata method="" typography="" idBalloon="SAINTOGAN_PROSPER_ET_LE_MONSTRE_MARIN_046_balloon_7" textType="speech">L'hippopotqme. - Tu es a ma merci !</metadata>
        </polygon>
        <polygon points="3833,2248 4140,2248 4140,2288 3833,2288 3833,2248" id="SAINTOGAN_PROSPER_ET_LE_MONSTRE_MARIN_046_line_25">
            <metadata method="" typography="" idBalloon="SAINTOGAN_PROSPER_ET_LE_MONSTRE_MARIN_046_balloon_8" textType="speech">Hop ! la-haut !</metadata>
        </polygon>
        <polygon points="4459,2252 4936,2252 4936,2296 4459,2296 4459,2252" id="SAINTOGAN_PROSPER_ET_LE_MONSTRE_MARIN_046_line_26">
            <metadata method="" typography="" idBalloon="SAINTOGAN_PROSPER_ET_LE_MONSTRE_MARIN_046_balloon_9" textType="speech">Retombe maintenant !</metadata>
        </polygon>
        <polygon points="2978,3244 3549,3244 3549,3288 2978,3288 2978,3244" id="SAINTOGAN_PROSPER_ET_LE_MONSTRE_MARIN_046_line_27">
            <metadata method="" typography="" idBalloon="SAINTOGAN_PROSPER_ET_LE_MONSTRE_MARIN_046_balloon_10" textType="speech">Ah ! Ah ! Ah ! Tu es mort !</metadata>
        </polygon>
        <polygon points="2980,3290 3454,3290 3454,3333 2980,3333 2980,3290" id="SAINTOGAN_PROSPER_ET_LE_MONSTRE_MARIN_046_line_28">
            <metadata method="" typography="" idBalloon="SAINTOGAN_PROSPER_ET_LE_MONSTRE_MARIN_046_balloon_10" textType="speech">Toutoune. - Victoire !</metadata>
        </polygon>
        <polygon points="3842,3251 4873,3251 4873,3293 3842,3293 3842,3251" id="SAINTOGAN_PROSPER_ET_LE_MONSTRE_MARIN_046_line_29">
            <metadata method="" typography="" idBalloon="SAINTOGAN_PROSPER_ET_LE_MONSTRE_MARIN_046_balloon_11" textType="speech">La foule, en delire. - A l'ecole, l'hippopotame !...</metadata>
        </polygon>
        <polygon points="4121,3295 4603,3295 4603,3335 4121,3335 4121,3295" id="SAINTOGAN_PROSPER_ET_LE_MONSTRE_MARIN_046_line_30">
            <metadata method="" typography="" idBalloon="SAINTOGAN_PROSPER_ET_LE_MONSTRE_MARIN_046_balloon_11" textType="speech">Brqvo ! Vive Prosper !</metadata>
        </polygon>
        <polygon points="3914,3439 3972,3439 3972,3487 3914,3487 3914,3439" id="SAINTOGAN_PROSPER_ET_LE_MONSTRE_MARIN_046_line_31">
            <metadata method="" typography="" textType="note">47</metadata>
        </polygon>
        <polygon points="445,3209 1420,3197 1421,3240 445,3253 445,3209" id="SAINTOGAN_PROSPER_ET_LE_MONSTRE_MARIN_046_line_32">
            <metadata method="" typography="" idBalloon="SAINTOGAN_PROSPER_ET_LE_MONSTRE_MARIN_046_balloon_3" textType="speech">L'arbitre. - Mesdames, Messieurs, je vous</metadata>
        </polygon>
        <polygon points="491,3261 1416,3245 1418,3284 491,3302 491,3261" id="SAINTOGAN_PROSPER_ET_LE_MONSTRE_MARIN_046_line_33">
            <metadata method="" typography="" idBalloon="SAINTOGAN_PROSPER_ET_LE_MONSTRE_MARIN_046_balloon_3" textType="speech">presente un champion de jiu-jitsu qui va</metadata>
        </polygon>
        <polygon points="491,3306 1418,3290 1420,3331 491,3346 491,3306" id="SAINTOGAN_PROSPER_ET_LE_MONSTRE_MARIN_046_line_34">
            <metadata method="" typography="" idBalloon="SAINTOGAN_PROSPER_ET_LE_MONSTRE_MARIN_046_balloon_3" textType="speech">se mesurer avec notre champion national.</metadata>
        </polygon>
        <polygon points="1469,3242 2585,3232 2587,3278 1469,3287 1469,3242" id="SAINTOGAN_PROSPER_ET_LE_MONSTRE_MARIN_046_line_35">
            <metadata method="" typography="" idBalloon="SAINTOGAN_PROSPER_ET_LE_MONSTRE_MARIN_046_balloon_4" textType="speech">Prosper. - Ah ! mais non, j'ai,e encore mieux re-</metadata>
        </polygon>
        <polygon points="1819,3287 2232,3280 2233,3322 1823,3329 1819,3287" id="SAINTOGAN_PROSPER_ET_LE_MONSTRE_MARIN_046_line_36">
            <metadata method="" typography="" idBalloon="SAINTOGAN_PROSPER_ET_LE_MONSTRE_MARIN_046_balloon_4" textType="speech">tourner en prison !</metadata>
        </polygon>
        <polygon points="1498,3438 1555,3438 1555,3495 1498,3495 1498,3438" id="SAINTOGAN_PROSPER_ET_LE_MONSTRE_MARIN_046_line_37">
            <metadata method="" typography="" textType="note">46</metadata>
        </polygon>
        <polygon points="2338,2388 2601,2372 2601,2501 2340,2503 2338,2388" id="SAINTOGAN_PROSPER_ET_LE_MONSTRE_MARIN_046_line_38">
            <metadata method="" typography="" textType="speech">jiu-j</metadata>
        </polygon>
    </svg>
    <svg contentScriptType="text/ecmascript" zoomAndPan="magnify" contentStyleType="text/css" class="linkSBSC" preserveAspectRatio="xMidYMid meet" version="1.0"/>
<metadata method="GroundTruth" lastModificationDate="Mon Feb 03 18:40:03 CET 2014" lastStepModified="Balloon_Rank"/>
</svg>