<?xml version="1.0" encoding="UTF-8" standalone="no"?>
<svg xmlns="http://www.w3.org/2000/svg" xmlns:xlink="http://www.w3.org/1999/xlink" contentScriptType="text/ecmascript" width="1250mm" zoomAndPan="magnify" contentStyleType="text/css" height="1753mm" viewBox="0 0 2501 3506" preserveAspectRatio="xMidYMid meet" version="1.0">
    <title>SAINTOGAN_ZIGPUCE_MILLIONAIRES_020</title>
    <svg contentScriptType="text/ecmascript" zoomAndPan="magnify" contentStyleType="text/css" class="Page" preserveAspectRatio="xMidYMid meet" version="1.0">
        <image x="0" y="0" fill-opacity="0.5" width="2501" xlink:href="../Pages/SAINTOGAN_ZIGPUCE_MILLIONAIRES_020.jpg" xlink:type="simple" xlink:actuate="onLoad" height="3506" opacity="0.5" preserveAspectRatio="xMidYMid meet" xlink:show="embed"/>
        <metadata collectionTitle="Zig Et Puce" editorName="Hachette" doublePage="false" website="http://collections.citebd.org/saintogan/www/fonds.php" albumTitle="Zig Et Puce Millionnaires" drawerName="Alain Saint Ogan" language="french" resolution="600" ISBN="" readingDirection="leftToRight" writerName="Alain Saint Ogan" releaseDate="1928" pageNumber="20"/>
    </svg>
	<style type="text/css" xml:space="preserve">
        * { stroke-width: 0; stroke-linejoin: round; }
        .Unclassified { fill: orange; stroke: none; opacity: 1.0; visibility: hidden; }
        .Noise { fill: pink; stroke: none; opacity: 0.2; visibility: hidden; }
        .Panel { fill: red; stroke: none; opacity: 0.3; visibility: visible; image-rendering: optimizeSpeed; }
        .Line { fill: green; stroke: none; opacity: 0.5; visibility: visible; image-rendering: optimizeSpeed; }
        .TextArea { fill: grey; stroke: none; opacity: 0.2; visibility: visible; image-rendering: optimizeSpeed; }
        .Balloon { fill: cyan; stroke: none; opacity: 0.5; visibility: visible; image-rendering: optimizeSpeed; }
        .Letter { fill: blue; stroke: none; opacity: 0.2; visibility: hidden; }
        .Character { fill: yellow; stroke: none; opacity: 0.3; visibility: visible; image-rendering: optimizeSpeed; }
        .Page { fill: white; stroke: none; opacity: 0.5; visibility: visible; }
        .linkSBSC { fill: blue; stroke: none; opacity: 0.5; visibility: visible; }
        polygon:hover { stroke:red;stroke-width:2; } 
    </style><svg contentScriptType="text/ecmascript" zoomAndPan="magnify" contentStyleType="text/css" class="Panel" preserveAspectRatio="xMidYMid meet" version="1.0">
        <polygon id="SAINTOGAN_ZIGPUCE_MILLIONAIRES_020_panel_0" points="128,104 2381,118 2379,438 126,418 128,104">
            <metadata viewAngle="" shot="" rank="1"/>
        </polygon>
        <polygon points="126,464 861,469 845,1132 122,1128 126,464" id="SAINTOGAN_ZIGPUCE_MILLIONAIRES_020_panel_1">
            <metadata viewAngle="" shot="" rank="2"/>
        </polygon>
        <polygon points="886,470 1619,475 1611,1141 884,1134 886,470" id="SAINTOGAN_ZIGPUCE_MILLIONAIRES_020_panel_2">
            <metadata viewAngle="" shot="" rank="3"/>
        </polygon>
        <polygon points="1652,477 2379,485 2375,1147 1652,1143 1652,477" id="SAINTOGAN_ZIGPUCE_MILLIONAIRES_020_panel_3">
            <metadata viewAngle="" shot="" rank="4"/>
        </polygon>
        <polygon points="118,1167 847,1177 847,1843 118,1833 118,1167" id="SAINTOGAN_ZIGPUCE_MILLIONAIRES_020_panel_4">
            <metadata viewAngle="" shot="" rank="5"/>
        </polygon>
        <polygon points="886,1177 1609,1183 1607,1851 884,1845 886,1177" id="SAINTOGAN_ZIGPUCE_MILLIONAIRES_020_panel_5">
            <metadata viewAngle="" shot="" rank="6"/>
        </polygon>
        <polygon points="1648,1181 2375,1187 2370,1862 1649,1853 1648,1181" id="SAINTOGAN_ZIGPUCE_MILLIONAIRES_020_panel_6">
            <metadata viewAngle="" shot="" rank="7"/>
        </polygon>
        <polygon points="120,1882 847,1888 841,2558 114,2550 120,1882" id="SAINTOGAN_ZIGPUCE_MILLIONAIRES_020_panel_7">
            <metadata viewAngle="" shot="" rank="8"/>
        </polygon>
        <polygon points="884,1888 1607,1898 1603,2574 884,2560 884,1888" id="SAINTOGAN_ZIGPUCE_MILLIONAIRES_020_panel_8">
            <metadata viewAngle="" shot="" rank="9"/>
        </polygon>
        <polygon points="1645,1896 2370,1904 2366,2580 1645,2570 1645,1896" id="SAINTOGAN_ZIGPUCE_MILLIONAIRES_020_panel_9">
            <metadata viewAngle="" shot="" rank="10"/>
        </polygon>
        <polygon points="116,2584 839,2601 839,3267 110,3261 116,2584" id="SAINTOGAN_ZIGPUCE_MILLIONAIRES_020_panel_10">
            <metadata viewAngle="" shot="" rank="11"/>
        </polygon>
        <polygon points="878,2601 1601,2615 1603,3281 880,3271 878,2601" id="SAINTOGAN_ZIGPUCE_MILLIONAIRES_020_panel_11">
            <metadata viewAngle="" shot="" rank="12"/>
        </polygon>
        <polygon points="1641,2609 2364,2623 2366,3290 1645,3282 1641,2609" id="SAINTOGAN_ZIGPUCE_MILLIONAIRES_020_panel_12">
            <metadata viewAngle="" shot="" rank="13"/>
        </polygon>
    </svg>
    <svg contentScriptType="text/ecmascript" zoomAndPan="magnify" contentStyleType="text/css" class="TextArea" preserveAspectRatio="xMidYMid meet" version="1.0"/>
    <svg contentScriptType="text/ecmascript" zoomAndPan="magnify" contentStyleType="text/css" class="Balloon" preserveAspectRatio="xMidYMid meet" version="1.0">
        <polygon points="145,427 211,424 274,428 388,433 459,434 534,430 660,438 738,429 787,435 834,427 875,447 875,492 873,567 871,648 871,724 846,740 777,740 713,735 645,737 594,731 534,687 496,592 470,595 433,596 436,622 431,646 400,676 406,650 409,629 409,610 405,595 340,593 261,590 177,593 167,583 146,587 131,563 132,484 128,446 145,427" id="SAINTOGAN_ZIGPUCE_MILLIONAIRES_020_balloon_0">
            <metadata borderStyle="smooth" tailTip="400,676" boundingBox="" tailDirection="S" rank="1"/>
        </polygon>
        <polygon points="901,433 956,430 992,432 1069,433 1151,433 1210,435 1277,430 1368,439 1432,438 1471,436 1558,440 1624,436 1635,459 1632,498 1622,555 1635,602 1621,656 1629,708 1620,749 1628,793 1599,822 1544,827 1459,829 1354,815 1330,780 1331,698 1338,650 1330,579 1291,543 1264,545 1240,547 1227,562 1225,584 1222,608 1222,622 1198,629 1206,609 1197,586 1188,562 1196,544 1184,535 1131,544 1082,544 1041,543 987,536 945,553 904,538 886,500 888,445 901,433" id="SAINTOGAN_ZIGPUCE_MILLIONAIRES_020_balloon_1">
            <metadata borderStyle="smooth" tailTip="1198,629" boundingBox="" tailDirection="SW" rank="2"/>
        </polygon>
        <polygon points="1712,444 1781,438 1848,442 1888,439 1993,447 2053,445 2124,451 2186,447 2244,445 2288,450 2350,445 2371,459 2368,482 2372,506 2369,533 2367,579 2362,604 2363,628 2366,660 2367,686 2354,717 2337,731 2312,728 2260,738 2220,729 2179,725 2150,728 2124,726 2096,723 2076,720 2048,728 1999,726 1966,688 1939,688 1919,694 1885,700 1875,714 1872,737 1856,723 1858,696 1871,678 1899,670 1925,663 1882,665 1860,671 1826,663 1785,663 1741,666 1715,660 1683,660 1658,634 1660,590 1659,541 1656,490 1659,442 1673,434 1712,444" id="SAINTOGAN_ZIGPUCE_MILLIONAIRES_020_balloon_2">
            <metadata borderStyle="smooth" tailTip="1872,737" boundingBox="" tailDirection="S" rank="3"/>
        </polygon>
        <polygon points="254,1148 300,1154 329,1151 372,1159 434,1159 500,1158 537,1165 596,1151 631,1149 674,1156 713,1156 763,1161 802,1154 826,1169 833,1210 836,1247 835,1293 822,1312 761,1313 723,1309 677,1308 638,1310 600,1310 583,1312 557,1300 535,1303 462,1346 421,1346 369,1346 322,1343 318,1344 322,1363 318,1394 331,1413 334,1435 334,1461 304,1442 314,1415 287,1392 287,1357 270,1339 218,1344 192,1334 149,1339 129,1326 132,1276 134,1207 133,1159 144,1140 254,1148" id="SAINTOGAN_ZIGPUCE_MILLIONAIRES_020_balloon_3">
            <metadata borderStyle="smooth" tailTip="334,1461" boundingBox="" tailDirection="SE" rank="4"/>
        </polygon>
        <polygon points="1168,1164 1236,1166 1326,1164 1384,1162 1435,1161 1477,1168 1552,1165 1598,1172 1594,1199 1591,1224 1587,1275 1583,1299 1584,1336 1570,1356 1517,1356 1466,1353 1405,1348 1357,1344 1346,1343 1346,1364 1346,1391 1319,1405 1325,1381 1312,1360 1317,1343 1262,1353 1193,1350 1128,1354 1104,1346 1093,1282 1102,1238 1099,1204 1109,1155 1123,1152 1168,1164" id="SAINTOGAN_ZIGPUCE_MILLIONAIRES_020_balloon_4">
            <metadata borderStyle="smooth" tailTip="1319,1405" boundingBox="" tailDirection="SW" rank="5"/>
        </polygon>
        <polygon points="1775,1190 1797,1193 1821,1207 1864,1213 1874,1231 1884,1404 1877,1428 1864,1428 1855,1450 1836,1463 1812,1464 1812,1478 1800,1487 1812,1498 1805,1516 1820,1531 1802,1549 1786,1549 1797,1529 1781,1518 1789,1504 1772,1484 1789,1459 1766,1459 1704,1440 1690,1411 1696,1356 1704,1320 1696,1276 1709,1243 1738,1224 1775,1190" id="SAINTOGAN_ZIGPUCE_MILLIONAIRES_020_balloon_5">
            <metadata borderStyle="wavy" tailTip="1786,1549" boundingBox="" tailDirection="SW" rank="6"/>
        </polygon>
        <polygon points="1931,1188 1970,1201 1997,1203 2014,1206 2032,1212 2046,1244 2038,1274 2041,1294 2052,1326 2039,1353 2020,1385 2015,1406 2019,1431 2018,1454 2010,1473 1992,1482 1976,1484 1964,1475 1961,1483 1967,1502 1970,1520 1965,1538 1971,1554 1963,1569 1954,1576 1950,1557 1942,1542 1948,1512 1933,1493 1937,1472 1913,1473 1900,1466 1891,1449 1884,1410 1866,1385 1858,1363 1853,1350 1859,1316 1847,1279 1847,1249 1866,1222 1887,1201 1931,1188" id="SAINTOGAN_ZIGPUCE_MILLIONAIRES_020_balloon_6">
            <metadata borderStyle="wavy" tailTip="1954,1576" boundingBox="" tailDirection="S" rank="7"/>
        </polygon>
        <polygon points="210,1888 250,1883 270,1885 304,1882 329,1888 356,1881 398,1890 432,1885 477,1891 535,1887 575,1886 591,1904 588,1932 585,1954 590,1984 584,2012 583,2050 586,2081 587,2116 590,2158 570,2173 524,2166 484,2173 447,2166 422,2169 388,2162 374,2171 367,2194 354,2224 328,2222 335,2206 351,2196 354,2167 336,2164 319,2160 273,2161 248,2160 216,2159 194,2158 164,2165 136,2157 131,2114 132,2079 125,2044 132,2018 125,1979 130,1941 132,1894 160,1881 210,1888" id="SAINTOGAN_ZIGPUCE_MILLIONAIRES_020_balloon_7">
            <metadata borderStyle="smooth" tailTip="328,2222" boundingBox="" tailDirection="SW" rank="8"/>
        </polygon>
        <polygon points="2019,1883 2049,1872 2078,1873 2114,1876 2144,1883 2173,1882 2198,1880 2220,1882 2229,1885 2272,1887 2312,1880 2346,1883 2367,1904 2366,1936 2365,1971 2362,2018 2362,2052 2355,2085 2364,2107 2365,2147 2358,2171 2337,2181 2305,2184 2274,2184 2249,2179 2225,2185 2228,2194 2238,2211 2229,2227 2237,2241 2225,2255 2207,2255 2211,2245 2194,2235 2196,2220 2208,2214 2191,2202 2201,2174 2188,2167 2132,2167 2082,2157 2032,2164 1982,2171 1928,2162 1921,2130 1924,2086 1921,2057 1932,2032 1921,2008 1929,1969 1922,1940 1929,1916 1938,1882 1960,1874 2019,1883" id="SAINTOGAN_ZIGPUCE_MILLIONAIRES_020_balloon_8">
            <metadata borderStyle="smooth" tailTip="2207,2255" boundingBox="" tailDirection="SW" rank="9"/>
        </polygon>
        <polygon points="282,2568 323,2560 356,2564 392,2565 417,2561 466,2569 510,2560 555,2570 579,2565 624,2566 656,2567 694,2567 714,2566 750,2565 768,2591 756,2618 762,2652 765,2677 757,2710 735,2729 701,2728 679,2728 649,2732 613,2726 596,2742 602,2765 607,2795 602,2820 599,2842 584,2868 561,2872 518,2886 475,2884 431,2879 387,2871 358,2873 332,2875 314,2875 295,2898 258,2897 280,2887 283,2873 258,2867 247,2850 254,2833 219,2834 194,2836 170,2835 138,2835 112,2826 114,2793 122,2763 119,2733 123,2708 114,2687 119,2660 124,2636 131,2617 118,2584 128,2562 180,2559 233,2565 282,2568" id="SAINTOGAN_ZIGPUCE_MILLIONAIRES_020_balloon_9">
            <metadata borderStyle="wavy" tailTip="258,2897" boundingBox="" tailDirection="W" rank="10"/>
        </polygon>
        <polygon points="1674,2589 1719,2585 1775,2589 1812,2586 1839,2583 1891,2587 1932,2591 1980,2585 2006,2585 2045,2590 2096,2590 2121,2597 2124,2635 2123,2662 2126,2686 2122,2709 2121,2730 2119,2770 2112,2791 2085,2801 2063,2815 2045,2843 2021,2856 2014,2879 1996,2883 1985,2859 1948,2856 1922,2858 1907,2864 1892,2877 1895,2899 1886,2929 1862,2938 1825,2940 1797,2943 1758,2944 1706,2945 1662,2945 1634,2932 1630,2898 1642,2869 1634,2835 1638,2802 1629,2758 1634,2722 1629,2691 1639,2665 1633,2645 1639,2626 1634,2592 1674,2589" id="SAINTOGAN_ZIGPUCE_MILLIONAIRES_020_balloon_10">
            <metadata borderStyle="smooth" tailTip="1996,2883" boundingBox="" tailDirection="S" rank="11"/>
        </polygon>
        <polygon points="2183,2590 2217,2583 2243,2586 2282,2586 2312,2585 2341,2584 2364,2600 2359,2618 2364,2639 2362,2663 2363,2684 2364,2705 2361,2742 2361,2770 2366,2790 2367,2814 2363,2850 2364,2870 2365,2900 2365,2930 2346,2947 2315,2956 2269,2957 2227,2951 2211,2941 2209,2923 2204,2896 2190,2881 2195,2854 2191,2842 2168,2851 2143,2863 2134,2877 2120,2887 2117,2866 2132,2843 2158,2836 2140,2835 2117,2826 2111,2806 2122,2778 2126,2753 2129,2730 2126,2695 2127,2664 2124,2641 2130,2625 2130,2594 2143,2587 2183,2590" id="SAINTOGAN_ZIGPUCE_MILLIONAIRES_020_balloon_11">
            <metadata borderStyle="smooth" tailTip="2120,2887" boundingBox="" tailDirection="S" rank="12"/>
        </polygon>
    </svg>
    <svg contentScriptType="text/ecmascript" zoomAndPan="magnify" contentStyleType="text/css" class="Character" preserveAspectRatio="xMidYMid meet" version="1.0">
        <polygon points="217,619 468,619 468,1083 217,1083 217,619" id="SAINTOGAN_ZIGPUCE_MILLIONAIRES_020_character_0">
            <metadata uri="" area="" fillingPcent=""/>
        </polygon>
        <polygon points="489,551 663,551 663,1069 489,1069 489,551" id="SAINTOGAN_ZIGPUCE_MILLIONAIRES_020_character_1">
            <metadata uri="" area="" fillingPcent=""/>
        </polygon>
        <polygon points="603,814 721,814 721,1132 603,1132 603,814" id="SAINTOGAN_ZIGPUCE_MILLIONAIRES_020_character_2">
            <metadata uri="" area="" fillingPcent=""/>
        </polygon>
        <polygon points="1040,570 1200,570 1200,1030 1040,1030 1040,570" id="SAINTOGAN_ZIGPUCE_MILLIONAIRES_020_character_3">
            <metadata uri="" area="" fillingPcent=""/>
        </polygon>
        <polygon points="1177,544 1363,544 1363,1056 1177,1056 1177,544" id="SAINTOGAN_ZIGPUCE_MILLIONAIRES_020_character_4">
            <metadata uri="" area="" fillingPcent=""/>
        </polygon>
        <polygon points="1351,837 1495,837 1495,1130 1351,1130 1351,837" id="SAINTOGAN_ZIGPUCE_MILLIONAIRES_020_character_5">
            <metadata uri="" area="" fillingPcent=""/>
        </polygon>
        <polygon points="1665,672 1783,672 1783,1142 1665,1142 1665,672" id="SAINTOGAN_ZIGPUCE_MILLIONAIRES_020_character_6">
            <metadata uri="" area="" fillingPcent=""/>
        </polygon>
        <polygon points="1827,712 2060,712 2060,1144 1827,1144 1827,712" id="SAINTOGAN_ZIGPUCE_MILLIONAIRES_020_character_7">
            <metadata uri="" area="" fillingPcent=""/>
        </polygon>
        <polygon points="2041,874 2178,874 2178,1155 2041,1155 2041,874" id="SAINTOGAN_ZIGPUCE_MILLIONAIRES_020_character_8">
            <metadata uri="" area="" fillingPcent=""/>
        </polygon>
        <polygon points="456,1262 698,1262 698,1636 491,1636 456,1262" id="SAINTOGAN_ZIGPUCE_MILLIONAIRES_020_character_9">
            <metadata uri="" area="" fillingPcent=""/>
        </polygon>
        <polygon points="343,1418 633,1418 633,1799 343,1799 343,1418" id="SAINTOGAN_ZIGPUCE_MILLIONAIRES_020_character_10">
            <metadata uri="" area="" fillingPcent=""/>
        </polygon>
        <polygon points="192,1620 357,1620 357,1780 192,1780 192,1620" id="SAINTOGAN_ZIGPUCE_MILLIONAIRES_020_character_11">
            <metadata uri="" area="" fillingPcent=""/>
        </polygon>
        <polygon points="972,1302 1100,1302 1100,1827 972,1827 972,1302" id="SAINTOGAN_ZIGPUCE_MILLIONAIRES_020_character_12">
            <metadata uri="" area="" fillingPcent=""/>
        </polygon>
        <polygon points="1163,1392 1391,1392 1391,1845 1163,1845 1163,1392" id="SAINTOGAN_ZIGPUCE_MILLIONAIRES_020_character_13">
            <metadata uri="" area="" fillingPcent=""/>
        </polygon>
        <polygon points="1918,1578 2067,1578 2067,1804 1918,1804 1918,1578" id="SAINTOGAN_ZIGPUCE_MILLIONAIRES_020_character_14">
            <metadata uri="" area="" fillingPcent=""/>
        </polygon>
        <polygon points="1769,1543 1934,1543 1934,1815 1769,1815 1769,1543" id="SAINTOGAN_ZIGPUCE_MILLIONAIRES_020_character_15">
            <metadata uri="" area="" fillingPcent=""/>
        </polygon>
        <polygon points="1621,1743 1730,1743 1730,1871 1621,1871 1621,1743" id="SAINTOGAN_ZIGPUCE_MILLIONAIRES_020_character_16">
            <metadata uri="" area="" fillingPcent=""/>
        </polygon>
        <polygon points="2148,1295 2341,1295 2341,1567 2148,1567 2148,1295" id="SAINTOGAN_ZIGPUCE_MILLIONAIRES_020_character_17">
            <metadata uri="" area="" fillingPcent=""/>
        </polygon>
        <polygon points="708,2078 863,2078 863,2296 708,2296 708,2078" id="SAINTOGAN_ZIGPUCE_MILLIONAIRES_020_character_18">
            <metadata uri="" area="" fillingPcent=""/>
        </polygon>
        <polygon points="482,2180 680,2180 680,2528 482,2528 482,2180" id="SAINTOGAN_ZIGPUCE_MILLIONAIRES_020_character_19">
            <metadata uri="" area="" fillingPcent=""/>
        </polygon>
        <polygon points="255,2143 424,2143 424,2552 255,2552 255,2143" id="SAINTOGAN_ZIGPUCE_MILLIONAIRES_020_character_20">
            <metadata uri="" area="" fillingPcent=""/>
        </polygon>
        <polygon points="115,2257 171,2257 171,2377 115,2377 115,2257" id="SAINTOGAN_ZIGPUCE_MILLIONAIRES_020_character_21">
            <metadata uri="" area="" fillingPcent=""/>
        </polygon>
        <polygon points="1312,2092 1544,2092 1544,2556 1312,2556 1312,2092" id="SAINTOGAN_ZIGPUCE_MILLIONAIRES_020_character_22">
            <metadata uri="" area="" fillingPcent=""/>
        </polygon>
        <polygon points="1999,2208 2097,2208 2097,2515 1999,2515 1999,2208" id="SAINTOGAN_ZIGPUCE_MILLIONAIRES_020_character_23">
            <metadata uri="" area="" fillingPcent=""/>
        </polygon>
        <polygon points="2169,2236 2313,2236 2313,2510 2169,2510 2169,2236" id="SAINTOGAN_ZIGPUCE_MILLIONAIRES_020_character_24">
            <metadata uri="" area="" fillingPcent=""/>
        </polygon>
        <polygon points="1774,1971 1897,1971 1897,2180 1774,2180 1774,1971" id="SAINTOGAN_ZIGPUCE_MILLIONAIRES_020_character_25">
            <metadata uri="" area="" fillingPcent=""/>
        </polygon>
        <polygon points="608,2740 861,2740 861,3144 608,3144 608,2740" id="SAINTOGAN_ZIGPUCE_MILLIONAIRES_020_character_26">
            <metadata uri="" area="" fillingPcent=""/>
        </polygon>
        <polygon points="155,2826 392,2826 392,3209 155,3209 155,2826" id="SAINTOGAN_ZIGPUCE_MILLIONAIRES_020_character_27">
            <metadata uri="" area="" fillingPcent=""/>
        </polygon>
        <polygon points="1137,2772 1497,2772 1497,3230 1137,3230 1137,2772" id="SAINTOGAN_ZIGPUCE_MILLIONAIRES_020_character_28">
            <metadata uri="" area="" fillingPcent=""/>
        </polygon>
        <polygon points="1874,2847 2060,2847 2060,3223 1874,3223 1874,2847" id="SAINTOGAN_ZIGPUCE_MILLIONAIRES_020_character_29">
            <metadata uri="" area="" fillingPcent=""/>
        </polygon>
        <polygon points="2139,2844 2306,2844 2306,3279 2139,3279 2139,2844" id="SAINTOGAN_ZIGPUCE_MILLIONAIRES_020_character_30">
            <metadata uri="" area="" fillingPcent=""/>
        </polygon>
        <polygon points="2115,3077 2301,3077 2301,3293 2115,3293 2115,3077" id="SAINTOGAN_ZIGPUCE_MILLIONAIRES_020_character_31">
            <metadata uri="" area="" fillingPcent=""/>
        </polygon>
    </svg>
    <svg contentScriptType="text/ecmascript" zoomAndPan="magnify" contentStyleType="text/css" class="Line" preserveAspectRatio="xMidYMid meet" version="1.0">
        <polygon points="684,133 1831,133 1831,290 684,290 684,133" id="SAINTOGAN_ZIGPUCE_MILLIONAIRES_020_line_0">
            <metadata method="" typography="" textType="note">ZIG et PUCE</metadata>
        </polygon>
        <polygon points="471,309 1790,309 1790,407 471,407 471,309" id="SAINTOGAN_ZIGPUCE_MILLIONAIRES_020_line_1">
            <metadata method="" typography="" textType="note">VAINQUEURS DU GORILLE</metadata>
        </polygon>
        <polygon points="149,436 855,436 855,486 149,486 149,436" id="SAINTOGAN_ZIGPUCE_MILLIONAIRES_020_line_2">
            <metadata method="" typography="" idBalloon="SAINTOGAN_ZIGPUCE_MILLIONAIRES_020_balloon_0" textType="speech">QUELLE FATALITE !.. NOUS ALLIONS</metadata>
        </polygon>
        <polygon points="151,489 819,489 819,527 151,527 151,489" id="SAINTOGAN_ZIGPUCE_MILLIONAIRES_020_line_3">
            <metadata method="" typography="" idBalloon="SAINTOGAN_ZIGPUCE_MILLIONAIRES_020_balloon_0" textType="speech">NOUS ENVOLER VERS NEW-YORK</metadata>
        </polygon>
        <polygon points="582,584 869,584 869,621 582,621 582,584" id="SAINTOGAN_ZIGPUCE_MILLIONAIRES_020_line_4">
            <metadata method="" typography="" idBalloon="SAINTOGAN_ZIGPUCE_MILLIONAIRES_020_balloon_0" textType="speech">CELLE SE PER-</metadata>
        </polygon>
        <polygon points="580,632 821,632 821,669 580,669 580,632" id="SAINTOGAN_ZIGPUCE_MILLIONAIRES_020_line_5">
            <metadata method="" typography="" idBalloon="SAINTOGAN_ZIGPUCE_MILLIONAIRES_020_balloon_0" textType="speech">CE ET NOUS</metadata>
        </polygon>
        <polygon points="605,673 869,673 869,716 605,716 605,673" id="SAINTOGAN_ZIGPUCE_MILLIONAIRES_020_line_6">
            <metadata method="" typography="" idBalloon="SAINTOGAN_ZIGPUCE_MILLIONAIRES_020_balloon_0" textType="speech">RESTONS LA...</metadata>
        </polygon>
        <polygon points="906,447 1607,447 1607,488 906,488 906,447" id="SAINTOGAN_ZIGPUCE_MILLIONAIRES_020_line_7">
            <metadata method="" typography="" idBalloon="SAINTOGAN_ZIGPUCE_MILLIONAIRES_020_balloon_1" textType="speech">OUI, JE SAIS MON PETIT ZIG... TU</metadata>
        </polygon>
        <polygon points="914,482 1618,482 1618,532 914,532 914,482" id="SAINTOGAN_ZIGPUCE_MILLIONAIRES_020_line_8">
            <metadata method="" typography="" idBalloon="SAINTOGAN_ZIGPUCE_MILLIONAIRES_020_balloon_1" textType="speech">ES TRISTE PARCE QUE MISS DOL</metadata>
        </polygon>
        <polygon points="1354,532 1623,532 1623,566 1354,566 1354,532" id="SAINTOGAN_ZIGPUCE_MILLIONAIRES_020_line_9">
            <metadata method="" typography="" idBalloon="SAINTOGAN_ZIGPUCE_MILLIONAIRES_020_balloon_1" textType="speech">LY N'EST PLUS</metadata>
        </polygon>
        <polygon points="1352,575 1614,575 1614,605 1352,605 1352,575" id="SAINTOGAN_ZIGPUCE_MILLIONAIRES_020_line_10">
            <metadata method="" typography="" idBalloon="SAINTOGAN_ZIGPUCE_MILLIONAIRES_020_balloon_1" textType="speech">AVEC NOUS...</metadata>
        </polygon>
        <polygon points="1354,609 1587,609 1587,644 1354,644 1354,609" id="SAINTOGAN_ZIGPUCE_MILLIONAIRES_020_line_11">
            <metadata method="" typography="" idBalloon="SAINTOGAN_ZIGPUCE_MILLIONAIRES_020_balloon_1" textType="speech">MAIS TU LA</metadata>
        </polygon>
        <polygon points="1350,643 1584,643 1584,680 1350,680 1350,643" id="SAINTOGAN_ZIGPUCE_MILLIONAIRES_020_line_12">
            <metadata method="" typography="" idBalloon="SAINTOGAN_ZIGPUCE_MILLIONAIRES_020_balloon_1" textType="speech">REVERRAS...</metadata>
        </polygon>
        <polygon points="1356,687 1600,687 1600,719 1356,719 1356,687" id="SAINTOGAN_ZIGPUCE_MILLIONAIRES_020_line_13">
            <metadata method="" typography="" idBalloon="SAINTOGAN_ZIGPUCE_MILLIONAIRES_020_balloon_1" textType="speech">QUAND NOUS</metadata>
        </polygon>
        <polygon points="1368,726 1593,726 1593,757 1368,757 1368,726" id="SAINTOGAN_ZIGPUCE_MILLIONAIRES_020_line_14">
            <metadata method="" typography="" idBalloon="SAINTOGAN_ZIGPUCE_MILLIONAIRES_020_balloon_1" textType="speech">SERONS EN</metadata>
        </polygon>
        <polygon points="1373,760 1610,760 1610,803 1373,803 1373,760" id="SAINTOGAN_ZIGPUCE_MILLIONAIRES_020_line_15">
            <metadata method="" typography="" idBalloon="SAINTOGAN_ZIGPUCE_MILLIONAIRES_020_balloon_1" textType="speech">AMERIQUE !</metadata>
        </polygon>
        <polygon points="1678,447 2357,447 2357,504 1678,504 1678,447" id="SAINTOGAN_ZIGPUCE_MILLIONAIRES_020_line_16">
            <metadata method="" typography="" idBalloon="SAINTOGAN_ZIGPUCE_MILLIONAIRES_020_balloon_2" textType="speech">ALLONS !.. VIENS ... J'AI FAIM...DANS</metadata>
        </polygon>
        <polygon points="1680,507 2339,507 2339,546 1680,546 1680,507" id="SAINTOGAN_ZIGPUCE_MILLIONAIRES_020_line_17">
            <metadata method="" typography="" idBalloon="SAINTOGAN_ZIGPUCE_MILLIONAIRES_020_balloon_2" textType="speech">CE QUI RESTE DE LA NACELLE ,</metadata>
        </polygon>
        <polygon points="1675,550 2345,550 2345,600 1675,600 1675,550" id="SAINTOGAN_ZIGPUCE_MILLIONAIRES_020_line_18">
            <metadata method="" typography="" idBalloon="SAINTOGAN_ZIGPUCE_MILLIONAIRES_020_balloon_2" textType="speech">IL Y A UNE CAISSE ...PEUT-ETRE</metadata>
        </polygon>
        <polygon points="1671,607 2357,607 2357,649 1671,649 1671,607" id="SAINTOGAN_ZIGPUCE_MILLIONAIRES_020_line_19">
            <metadata method="" typography="" idBalloon="SAINTOGAN_ZIGPUCE_MILLIONAIRES_020_balloon_2" textType="speech">Y A-T-IL DEDANS QUELQUES PRO-</metadata>
        </polygon>
        <polygon points="1994,650 2277,650 2277,702 1994,702 1994,650" id="SAINTOGAN_ZIGPUCE_MILLIONAIRES_020_line_20">
            <metadata method="" typography="" idBalloon="SAINTOGAN_ZIGPUCE_MILLIONAIRES_020_balloon_2" textType="speech">VISIONS ?...</metadata>
        </polygon>
        <polygon points="356,1174 805,1174 805,1222 356,1222 356,1174" id="SAINTOGAN_ZIGPUCE_MILLIONAIRES_020_line_21">
            <metadata method="" typography="" idBalloon="SAINTOGAN_ZIGPUCE_MILLIONAIRES_020_balloon_3" textType="speech">RIEN A MANGER... IL</metadata>
        </polygon>
        <polygon points="145,1213 815,1213 815,1268 145,1268 145,1213" id="SAINTOGAN_ZIGPUCE_MILLIONAIRES_020_line_22">
            <metadata method="" typography="" idBalloon="SAINTOGAN_ZIGPUCE_MILLIONAIRES_020_balloon_3" textType="speech">N'Y A QU'UNE LONGUE-VUE ET</metadata>
        </polygon>
        <polygon points="143,1277 457,1277 457,1315 143,1315 143,1277" id="SAINTOGAN_ZIGPUCE_MILLIONAIRES_020_line_23">
            <metadata method="" typography="" idBalloon="SAINTOGAN_ZIGPUCE_MILLIONAIRES_020_balloon_3" textType="speech">UN COUTEAU...</metadata>
        </polygon>
        <polygon points="1115,1176 1573,1176 1573,1226 1115,1226 1115,1176" id="SAINTOGAN_ZIGPUCE_MILLIONAIRES_020_line_24">
            <metadata method="" typography="" idBalloon="SAINTOGAN_ZIGPUCE_MILLIONAIRES_020_balloon_4" textType="speech">DIRIGEONS NOUS VERS</metadata>
        </polygon>
        <polygon points="1115,1215 1573,1215 1573,1256 1115,1256 1115,1215" id="SAINTOGAN_ZIGPUCE_MILLIONAIRES_020_line_25">
            <metadata method="" typography="" idBalloon="SAINTOGAN_ZIGPUCE_MILLIONAIRES_020_balloon_4" textType="speech">LA FORET, NOUS MAN-</metadata>
        </polygon>
        <polygon points="1119,1265 1568,1265 1568,1300 1119,1300 1119,1265" id="SAINTOGAN_ZIGPUCE_MILLIONAIRES_020_line_26">
            <metadata method="" typography="" idBalloon="SAINTOGAN_ZIGPUCE_MILLIONAIRES_020_balloon_4" textType="speech">GERONS DES NOIX DE</metadata>
        </polygon>
        <polygon points="1126,1302 1270,1302 1270,1333 1126,1333 1126,1302" id="SAINTOGAN_ZIGPUCE_MILLIONAIRES_020_line_27">
            <metadata method="" typography="" idBalloon="SAINTOGAN_ZIGPUCE_MILLIONAIRES_020_balloon_4" textType="speech">COCO...</metadata>
        </polygon>
        <polygon points="1769,1233 1815,1233 1815,1423 1769,1423 1769,1233" id="SAINTOGAN_ZIGPUCE_MILLIONAIRES_020_line_28">
            <metadata method="" typography="" idBalloon="SAINTOGAN_ZIGPUCE_MILLIONAIRES_020_balloon_5" textType="speech">!</metadata>
        </polygon>
        <polygon points="1928,1215 1978,1215 1978,1443 1928,1443 1928,1215" id="SAINTOGAN_ZIGPUCE_MILLIONAIRES_020_line_29">
            <metadata method="" typography="" idBalloon="SAINTOGAN_ZIGPUCE_MILLIONAIRES_020_balloon_6" textType="speech">!</metadata>
        </polygon>
        <polygon points="154,1898 557,1898 557,1939 154,1939 154,1898" id="SAINTOGAN_ZIGPUCE_MILLIONAIRES_020_line_30">
            <metadata method="" typography="" idBalloon="SAINTOGAN_ZIGPUCE_MILLIONAIRES_020_balloon_7" textType="speech">L'AFFREUSE BETE !</metadata>
        </polygon>
        <polygon points="154,1935 562,1935 562,1978 154,1978 154,1935" id="SAINTOGAN_ZIGPUCE_MILLIONAIRES_020_line_31">
            <metadata method="" typography="" idBalloon="SAINTOGAN_ZIGPUCE_MILLIONAIRES_020_balloon_7" textType="speech">ELLE NOUS BOUCHE</metadata>
        </polygon>
        <polygon points="151,1976 564,1976 564,2024 151,2024 151,1976" id="SAINTOGAN_ZIGPUCE_MILLIONAIRES_020_line_32">
            <metadata method="" typography="" idBalloon="SAINTOGAN_ZIGPUCE_MILLIONAIRES_020_balloon_7" textType="speech">LE CHEMIN... TU VAS</metadata>
        </polygon>
        <polygon points="151,2015 568,2015 568,2062 151,2062 151,2015" id="SAINTOGAN_ZIGPUCE_MILLIONAIRES_020_line_33">
            <metadata method="" typography="" idBalloon="SAINTOGAN_ZIGPUCE_MILLIONAIRES_020_balloon_7" textType="speech">VOIR SI JE LA DELO-</metadata>
        </polygon>
        <polygon points="147,2056 552,2056 552,2103 147,2103 147,2056" id="SAINTOGAN_ZIGPUCE_MILLIONAIRES_020_line_34">
            <metadata method="" typography="" idBalloon="SAINTOGAN_ZIGPUCE_MILLIONAIRES_020_balloon_7" textType="speech">GE DE LA !.. JE COU-</metadata>
        </polygon>
        <polygon points="147,2094 568,2094 568,2152 147,2152 147,2094" id="SAINTOGAN_ZIGPUCE_MILLIONAIRES_020_line_35">
            <metadata method="" typography="" idBalloon="SAINTOGAN_ZIGPUCE_MILLIONAIRES_020_balloon_7" textType="speech">PE UN BON BATON...</metadata>
        </polygon>
        <polygon points="1942,1892 2345,1892 2345,1924 1942,1924 1942,1892" id="SAINTOGAN_ZIGPUCE_MILLIONAIRES_020_line_36">
            <metadata method="" typography="" idBalloon="SAINTOGAN_ZIGPUCE_MILLIONAIRES_020_balloon_8" textType="speech">TU N'AURAS PAS LE DES-</metadata>
        </polygon>
        <polygon points="1940,1921 2347,1921 2347,1960 1940,1960 1940,1921" id="SAINTOGAN_ZIGPUCE_MILLIONAIRES_020_line_37">
            <metadata method="" typography="" idBalloon="SAINTOGAN_ZIGPUCE_MILLIONAIRES_020_balloon_8" textType="speech">SUS, ZIG... MAIS NE TE</metadata>
        </polygon>
        <polygon points="1946,1956 2368,1956 2368,1996 1946,1996 1946,1956" id="SAINTOGAN_ZIGPUCE_MILLIONAIRES_020_line_38">
            <metadata method="" typography="" idBalloon="SAINTOGAN_ZIGPUCE_MILLIONAIRES_020_balloon_8" textType="speech">FATIGUE PAS ... J'AI UNE</metadata>
        </polygon>
        <polygon points="1946,1988 2320,1988 2320,2037 1946,2037 1946,1988" id="SAINTOGAN_ZIGPUCE_MILLIONAIRES_020_line_39">
            <metadata method="" typography="" idBalloon="SAINTOGAN_ZIGPUCE_MILLIONAIRES_020_balloon_8" textType="speech">IDEE...PASSE MOI LE</metadata>
        </polygon>
        <polygon points="1944,2037 2357,2037 2357,2079 1944,2079 1944,2037" id="SAINTOGAN_ZIGPUCE_MILLIONAIRES_020_line_40">
            <metadata method="" typography="" idBalloon="SAINTOGAN_ZIGPUCE_MILLIONAIRES_020_balloon_8" textType="speech">COUTEAU ... JE VAIS AL-</metadata>
        </polygon>
        <polygon points="1942,2070 2341,2070 2341,2120 1942,2120 1942,2070" id="SAINTOGAN_ZIGPUCE_MILLIONAIRES_020_line_41">
            <metadata method="" typography="" idBalloon="SAINTOGAN_ZIGPUCE_MILLIONAIRES_020_balloon_8" textType="speech">LER LE POSER PRES</metadata>
        </polygon>
        <polygon points="1940,2111 2211,2111 2211,2149 1940,2149 1940,2111" id="SAINTOGAN_ZIGPUCE_MILLIONAIRES_020_line_42">
            <metadata method="" typography="" idBalloon="SAINTOGAN_ZIGPUCE_MILLIONAIRES_020_balloon_8" textType="speech">DU GORILLE...</metadata>
        </polygon>
        <polygon points="136,2571 733,2571 733,2625 136,2625 136,2571" id="SAINTOGAN_ZIGPUCE_MILLIONAIRES_020_line_43">
            <metadata method="" typography="" idBalloon="SAINTOGAN_ZIGPUCE_MILLIONAIRES_020_balloon_9" textType="speech">PARFAIT ... IL RAMASSE LE</metadata>
        </polygon>
        <polygon points="138,2612 753,2612 753,2662 138,2662 138,2612" id="SAINTOGAN_ZIGPUCE_MILLIONAIRES_020_line_44">
            <metadata method="" typography="" idBalloon="SAINTOGAN_ZIGPUCE_MILLIONAIRES_020_balloon_9" textType="speech">COUTEAU ... COMME LES SIN-</metadata>
        </polygon>
        <polygon points="133,2650 732,2650 732,2700 133,2700 133,2650" id="SAINTOGAN_ZIGPUCE_MILLIONAIRES_020_line_45">
            <metadata method="" typography="" idBalloon="SAINTOGAN_ZIGPUCE_MILLIONAIRES_020_balloon_9" textType="speech">GES FONT SE QU'ILS VOIENT</metadata>
        </polygon>
        <polygon points="135,2698 561,2698 561,2744 135,2744 135,2698" id="SAINTOGAN_ZIGPUCE_MILLIONAIRES_020_line_46">
            <metadata method="" typography="" idBalloon="SAINTOGAN_ZIGPUCE_MILLIONAIRES_020_balloon_9" textType="speech">FAIRE, JE VAIS ME</metadata>
        </polygon>
        <polygon points="131,2737 578,2737 578,2780 131,2780 131,2737" id="SAINTOGAN_ZIGPUCE_MILLIONAIRES_020_line_47">
            <metadata method="" typography="" idBalloon="SAINTOGAN_ZIGPUCE_MILLIONAIRES_020_balloon_9" textType="speech">FRAPPER LA POITRINE</metadata>
        </polygon>
        <polygon points="129,2782 575,2782 575,2830 129,2830 129,2782" id="SAINTOGAN_ZIGPUCE_MILLIONAIRES_020_line_48">
            <metadata method="" typography="" idBalloon="SAINTOGAN_ZIGPUCE_MILLIONAIRES_020_balloon_9" textType="speech">AVEC LA LONGUE-VUE</metadata>
        </polygon>
        <polygon points="268,2816 561,2816 561,2864 268,2864 268,2816" id="SAINTOGAN_ZIGPUCE_MILLIONAIRES_020_line_49">
            <metadata method="" typography="" idBalloon="SAINTOGAN_ZIGPUCE_MILLIONAIRES_020_balloon_9" textType="speech">A COULISSE....</metadata>
        </polygon>
        <polygon points="1657,2605 2113,2605 2113,2659 1657,2659 1657,2605" id="SAINTOGAN_ZIGPUCE_MILLIONAIRES_020_line_50">
            <metadata method="" typography="" idBalloon="SAINTOGAN_ZIGPUCE_MILLIONAIRES_020_balloon_10" textType="speech">CA A TRES BIEN REUSSI</metadata>
        </polygon>
        <polygon points="1657,2641 2097,2641 2097,2684 1657,2684 1657,2641" id="SAINTOGAN_ZIGPUCE_MILLIONAIRES_020_line_51">
            <metadata method="" typography="" idBalloon="SAINTOGAN_ZIGPUCE_MILLIONAIRES_020_balloon_10" textType="speech">POUR FAIRE COMME</metadata>
        </polygon>
        <polygon points="1653,2680 2102,2680 2102,2726 1653,2726 1653,2680" id="SAINTOGAN_ZIGPUCE_MILLIONAIRES_020_line_52">
            <metadata method="" typography="" idBalloon="SAINTOGAN_ZIGPUCE_MILLIONAIRES_020_balloon_10" textType="speech">MOI, IL S'EST DONNE</metadata>
        </polygon>
        <polygon points="1651,2719 2102,2719 2102,2767 1651,2767 1651,2719" id="SAINTOGAN_ZIGPUCE_MILLIONAIRES_020_line_53">
            <metadata method="" typography="" idBalloon="SAINTOGAN_ZIGPUCE_MILLIONAIRES_020_balloon_10" textType="speech">UN COUP DANS LA POI-</metadata>
        </polygon>
        <polygon points="1653,2760 2069,2760 2069,2803 1653,2803 1653,2760" id="SAINTOGAN_ZIGPUCE_MILLIONAIRES_020_line_54">
            <metadata method="" typography="" idBalloon="SAINTOGAN_ZIGPUCE_MILLIONAIRES_020_balloon_10" textType="speech">TRINE, MAIS LUI, IL</metadata>
        </polygon>
        <polygon points="1651,2803 2024,2803 2024,2842 1651,2842 1651,2803" id="SAINTOGAN_ZIGPUCE_MILLIONAIRES_020_line_55">
            <metadata method="" typography="" idBalloon="SAINTOGAN_ZIGPUCE_MILLIONAIRES_020_balloon_10" textType="speech">AVAIT UN COUTEAU</metadata>
        </polygon>
        <polygon points="1657,2842 1883,2842 1883,2883 1657,2883 1657,2842" id="SAINTOGAN_ZIGPUCE_MILLIONAIRES_020_line_56">
            <metadata method="" typography="" idBalloon="SAINTOGAN_ZIGPUCE_MILLIONAIRES_020_balloon_10" textType="speech">ET IL S'EST</metadata>
        </polygon>
        <polygon points="1655,2889 1785,2889 1785,2922 1655,2922 1655,2889" id="SAINTOGAN_ZIGPUCE_MILLIONAIRES_020_line_57">
            <metadata method="" typography="" idBalloon="SAINTOGAN_ZIGPUCE_MILLIONAIRES_020_balloon_10" textType="speech">TUE...</metadata>
        </polygon>
        <polygon points="2138,2602 2323,2602 2323,2635 2138,2635 2138,2602" id="SAINTOGAN_ZIGPUCE_MILLIONAIRES_020_line_58">
            <metadata method="" typography="" idBalloon="SAINTOGAN_ZIGPUCE_MILLIONAIRES_020_balloon_11" textType="speech">VOILA DE</metadata>
        </polygon>
        <polygon points="2140,2639 2350,2639 2350,2673 2140,2673 2140,2639" id="SAINTOGAN_ZIGPUCE_MILLIONAIRES_020_line_59">
            <metadata method="" typography="" idBalloon="SAINTOGAN_ZIGPUCE_MILLIONAIRES_020_balloon_11" textType="speech">QUOI MAN-</metadata>
        </polygon>
        <polygon points="2142,2678 2334,2678 2334,2709 2142,2709 2142,2678" id="SAINTOGAN_ZIGPUCE_MILLIONAIRES_020_line_60">
            <metadata method="" typography="" idBalloon="SAINTOGAN_ZIGPUCE_MILLIONAIRES_020_balloon_11" textType="speech">GER!.. DU</metadata>
        </polygon>
        <polygon points="2145,2709 2347,2709 2347,2744 2145,2744 2145,2709" id="SAINTOGAN_ZIGPUCE_MILLIONAIRES_020_line_61">
            <metadata method="" typography="" idBalloon="SAINTOGAN_ZIGPUCE_MILLIONAIRES_020_balloon_11" textType="speech">SINGE.. IL</metadata>
        </polygon>
        <polygon points="2131,2748 2338,2748 2338,2787 2131,2787 2131,2748" id="SAINTOGAN_ZIGPUCE_MILLIONAIRES_020_line_62">
            <metadata method="" typography="" idBalloon="SAINTOGAN_ZIGPUCE_MILLIONAIRES_020_balloon_11" textType="speech">PARAIT QUE</metadata>
        </polygon>
        <polygon points="2129,2783 2363,2783 2363,2819 2129,2819 2129,2783" id="SAINTOGAN_ZIGPUCE_MILLIONAIRES_020_line_63">
            <metadata method="" typography="" idBalloon="SAINTOGAN_ZIGPUCE_MILLIONAIRES_020_balloon_11" textType="speech">LES SOLDATS</metadata>
        </polygon>
        <polygon points="2202,2821 2352,2821 2352,2860 2202,2860 2202,2821" id="SAINTOGAN_ZIGPUCE_MILLIONAIRES_020_line_64">
            <metadata method="" typography="" idBalloon="SAINTOGAN_ZIGPUCE_MILLIONAIRES_020_balloon_11" textType="speech">EN MAN-</metadata>
        </polygon>
        <polygon points="2206,2858 2357,2858 2357,2896 2206,2896 2206,2858" id="SAINTOGAN_ZIGPUCE_MILLIONAIRES_020_line_65">
            <metadata method="" typography="" idBalloon="SAINTOGAN_ZIGPUCE_MILLIONAIRES_020_balloon_11" textType="speech">GENT SOU</metadata>
        </polygon>
        <polygon points="2215,2905 2350,2905 2350,2933 2215,2933 2215,2905" id="SAINTOGAN_ZIGPUCE_MILLIONAIRES_020_line_66">
            <metadata method="" typography="" idBalloon="SAINTOGAN_ZIGPUCE_MILLIONAIRES_020_balloon_11" textType="speech">VENT...</metadata>
        </polygon>
        <polygon points="1208,3357 1256,3357 1256,3407 1208,3407 1208,3357" id="SAINTOGAN_ZIGPUCE_MILLIONAIRES_020_line_67">
            <metadata method="" typography="" textType="note">20</metadata>
        </polygon>
        <polygon points="151,527 475,527 475,571 151,571 151,527" id="SAINTOGAN_ZIGPUCE_MILLIONAIRES_020_line_68">
            <metadata method="" typography="" idBalloon="SAINTOGAN_ZIGPUCE_MILLIONAIRES_020_balloon_0" textType="speech">EN DIRIGEABLE</metadata>
        </polygon>
        <polygon points="575,534 846,534 846,571 575,571 575,534" id="SAINTOGAN_ZIGPUCE_MILLIONAIRES_020_line_69">
            <metadata method="" typography="" idBalloon="SAINTOGAN_ZIGPUCE_MILLIONAIRES_020_balloon_0" textType="speech">CRAC !.. LA NA-</metadata>
        </polygon>
    </svg>
    <svg contentScriptType="text/ecmascript" zoomAndPan="magnify" contentStyleType="text/css" class="linkSBSC" preserveAspectRatio="xMidYMid meet" version="1.0">
    <polygon points="501,582 502,582 343,851 342,851 501,582" idCharacter="SAINTOGAN_ZIGPUCE_MILLIONAIRES_020_character_0" idBalloon="SAINTOGAN_ZIGPUCE_MILLIONAIRES_020_balloon_0"/>
    <polygon points="1260,629 1261,629 1121,800 1120,800 1260,629" idCharacter="SAINTOGAN_ZIGPUCE_MILLIONAIRES_020_character_3" idBalloon="SAINTOGAN_ZIGPUCE_MILLIONAIRES_020_balloon_1"/>
    <polygon points="2014,586 2015,586 1944,928 1943,928 2014,586" idCharacter="SAINTOGAN_ZIGPUCE_MILLIONAIRES_020_character_7" idBalloon="SAINTOGAN_ZIGPUCE_MILLIONAIRES_020_balloon_2"/>
    <polygon points="1949,1382 1950,1382 1993,1691 1992,1691 1949,1382" idCharacter="SAINTOGAN_ZIGPUCE_MILLIONAIRES_020_character_14" idBalloon="SAINTOGAN_ZIGPUCE_MILLIONAIRES_020_balloon_6"/>
    <polygon points="1787,1369 1788,1369 1852,1679 1851,1679 1787,1369" idCharacter="SAINTOGAN_ZIGPUCE_MILLIONAIRES_020_character_15" idBalloon="SAINTOGAN_ZIGPUCE_MILLIONAIRES_020_balloon_5"/>
    <polygon points="1345,1278 1346,1278 1278,1618 1277,1618 1345,1278" idCharacter="SAINTOGAN_ZIGPUCE_MILLIONAIRES_020_character_13" idBalloon="SAINTOGAN_ZIGPUCE_MILLIONAIRES_020_balloon_4"/>
    <polygon points="482,1300 483,1300 489,1608 488,1608 482,1300" idCharacter="SAINTOGAN_ZIGPUCE_MILLIONAIRES_020_character_10" idBalloon="SAINTOGAN_ZIGPUCE_MILLIONAIRES_020_balloon_3"/>
    <polygon points="358,2052 359,2052 340,2347 339,2347 358,2052" idCharacter="SAINTOGAN_ZIGPUCE_MILLIONAIRES_020_character_20" idBalloon="SAINTOGAN_ZIGPUCE_MILLIONAIRES_020_balloon_7"/>
    <polygon points="2144,2063 2145,2063 2242,2373 2241,2373 2144,2063" idCharacter="SAINTOGAN_ZIGPUCE_MILLIONAIRES_020_character_24" idBalloon="SAINTOGAN_ZIGPUCE_MILLIONAIRES_020_balloon_8"/>
    <polygon points="440,2728 441,2728 274,3017 273,3017 440,2728" idCharacter="SAINTOGAN_ZIGPUCE_MILLIONAIRES_020_character_27" idBalloon="SAINTOGAN_ZIGPUCE_MILLIONAIRES_020_balloon_9"/>
    <polygon points="1877,2764 1878,2764 1968,3035 1967,3035 1877,2764" idCharacter="SAINTOGAN_ZIGPUCE_MILLIONAIRES_020_character_29" idBalloon="SAINTOGAN_ZIGPUCE_MILLIONAIRES_020_balloon_10"/>
    <polygon points="2239,2770 2240,2770 2223,3061 2222,3061 2239,2770" idCharacter="SAINTOGAN_ZIGPUCE_MILLIONAIRES_020_character_30" idBalloon="SAINTOGAN_ZIGPUCE_MILLIONAIRES_020_balloon_11"/>
  </svg>
<metadata method="GroundTruth" lastModificationDate="Mon Jan 27 17:53:13 CET 2014" lastStepModified="Balloon_Polygons"/>
</svg>