<?xml version="1.0" encoding="UTF-8" standalone="no"?>
<svg xmlns="http://www.w3.org/2000/svg" xmlns:xlink="http://www.w3.org/1999/xlink" contentScriptType="text/ecmascript" width="2655mm" zoomAndPan="magnify" contentStyleType="text/css" height="1813mm" viewBox="0 0 5311 3627" preserveAspectRatio="xMidYMid meet" version="1.0">
    <title>SAINTOGAN_PROSPER_ET_LE_MONSTRE_MARIN_016</title>
    <svg contentScriptType="text/ecmascript" zoomAndPan="magnify" contentStyleType="text/css" class="Page" preserveAspectRatio="xMidYMid meet" version="1.0">
        <image x="0" y="0" fill-opacity="0.5" width="5311" xlink:href="../Pages/SAINTOGAN_PROSPER_ET_LE_MONSTRE_MARIN_016.jpg" xlink:type="simple" xlink:actuate="onLoad" height="3627" opacity="0.5" preserveAspectRatio="xMidYMid meet" xlink:show="embed"/>
        <metadata collectionTitle="Zig Et Puce" editorName="Hachette" doublePage="true" website="http://collections.citebd.org/saintogan/www/fonds.php" albumTitle="Prosper Et Le Monstre Marin" drawerName="Alain Saint Ogan" language="french" resolution="600" ISBN="" readingDirection="leftToRight" writerName="Alain Saint Ogan" releaseDate="1934" pageNumber="16"/>
    </svg>
    <style type="text/css" xml:space="preserve">
        * { stroke-width: 0; stroke-linejoin: round; }
        .Unclassified { fill: orange; stroke: none; opacity: 1.0; visibility: hidden; }
        .Noise { fill: pink; stroke: none; opacity: 0.2; visibility: hidden; }
        .Panel { fill: red; stroke: none; opacity: 0.3; visibility: visible; image-rendering: optimizeSpeed; }
        .Line { fill: green; stroke: none; opacity: 0.5; visibility: visible; image-rendering: optimizeSpeed; }
        .TextArea { fill: grey; stroke: none; opacity: 0.2; visibility: visible; image-rendering: optimizeSpeed; }
        .Balloon { fill: cyan; stroke: none; opacity: 0.5; visibility: visible; image-rendering: optimizeSpeed; }
        .Letter { fill: blue; stroke: none; opacity: 0.2; visibility: hidden; }
        .Character { fill: yellow; stroke: none; opacity: 0.3; visibility: visible; image-rendering: optimizeSpeed; }
        .Page { fill: white; stroke: none; opacity: 0.5; visibility: visible; }
        .linkSBSC { fill: blue; stroke: none; opacity: 0.5; visibility: visible; }
        polygon:hover { stroke:red;stroke-width:2; } 
    </style><svg contentScriptType="text/ecmascript" zoomAndPan="magnify" contentStyleType="text/css" class="Panel" preserveAspectRatio="xMidYMid meet" version="1.0">
        <polygon points="348,303 1380,303 1380,980 348,980 348,303" id="SAINTOGAN_PROSPER_ET_LE_MONSTRE_MARIN_016_panel_0">
            <metadata viewAngle="" shot="" rank="1"/>
        </polygon>
        <polygon points="1414,303 2516,303 2516,973 1414,973 1414,303" id="SAINTOGAN_PROSPER_ET_LE_MONSTRE_MARIN_016_panel_1">
            <metadata viewAngle="" shot="" rank="2"/>
        </polygon>
        <polygon points="355,1133 955,1133 955,1694 355,1694 355,1133" id="SAINTOGAN_PROSPER_ET_LE_MONSTRE_MARIN_016_panel_2">
            <metadata viewAngle="" shot="" rank="3"/>
        </polygon>
        <polygon points="986,1131 1781,1131 1781,1695 986,1695 986,1131" id="SAINTOGAN_PROSPER_ET_LE_MONSTRE_MARIN_016_panel_3">
            <metadata viewAngle="" shot="" rank="4"/>
        </polygon>
        <polygon points="1818,1130 2516,1130 2516,1697 1818,1697 1818,1130" id="SAINTOGAN_PROSPER_ET_LE_MONSTRE_MARIN_016_panel_4">
            <metadata viewAngle="" shot="" rank="5"/>
        </polygon>
        <polygon points="357,1855 1435,1855 1435,2441 357,2441 357,1855" id="SAINTOGAN_PROSPER_ET_LE_MONSTRE_MARIN_016_panel_5">
            <metadata viewAngle="" shot="" rank="6"/>
        </polygon>
        <polygon points="1471,1850 2521,1850 2521,2440 1471,2440 1471,1850" id="SAINTOGAN_PROSPER_ET_LE_MONSTRE_MARIN_016_panel_6">
            <metadata viewAngle="" shot="" rank="7"/>
        </polygon>
        <polygon points="361,2551 1273,2551 1273,3238 361,3238 361,2551" id="SAINTOGAN_PROSPER_ET_LE_MONSTRE_MARIN_016_panel_7">
            <metadata viewAngle="" shot="" rank="8"/>
        </polygon>
        <polygon points="1309,2549 1979,2549 1979,3237 1309,3237 1309,2549" id="SAINTOGAN_PROSPER_ET_LE_MONSTRE_MARIN_016_panel_8">
            <metadata viewAngle="" shot="" rank="9"/>
        </polygon>
        <polygon points="2015,2547 2524,2547 2524,3236 2015,3236 2015,2547" id="SAINTOGAN_PROSPER_ET_LE_MONSTRE_MARIN_016_panel_9">
            <metadata viewAngle="" shot="" rank="10"/>
        </polygon>
        <polygon points="2844,303 3923,303 3923,1203 2844,1203 2844,303" id="SAINTOGAN_PROSPER_ET_LE_MONSTRE_MARIN_016_panel_10">
            <metadata viewAngle="" shot="" rank="11"/>
        </polygon>
        <polygon points="3956,305 5004,305 5004,1203 3956,1203 3956,305" id="SAINTOGAN_PROSPER_ET_LE_MONSTRE_MARIN_016_panel_11">
            <metadata viewAngle="" shot="" rank="12"/>
        </polygon>
        <polygon points="2842,1354 3906,1354 3906,2198 2842,2198 2842,1354" id="SAINTOGAN_PROSPER_ET_LE_MONSTRE_MARIN_016_panel_12">
            <metadata viewAngle="" shot="" rank="13"/>
        </polygon>
        <polygon points="3949,1360 4997,1363 4997,2202 3948,2198 3949,1360" id="SAINTOGAN_PROSPER_ET_LE_MONSTRE_MARIN_016_panel_13">
            <metadata viewAngle="" shot="" rank="14"/>
        </polygon>
        <polygon points="2839,2349 3902,2349 3902,3239 2839,3239 2839,2349" id="SAINTOGAN_PROSPER_ET_LE_MONSTRE_MARIN_016_panel_14">
            <metadata viewAngle="" shot="" rank="15"/>
        </polygon>
        <polygon points="3939,2358 4989,2358 4989,3243 3939,3243 3939,2358" id="SAINTOGAN_PROSPER_ET_LE_MONSTRE_MARIN_016_panel_15">
            <metadata viewAngle="" shot="" rank="16"/>
        </polygon>
    </svg>
    <svg contentScriptType="text/ecmascript" zoomAndPan="magnify" contentStyleType="text/css" class="TextArea" preserveAspectRatio="xMidYMid meet" version="1.0"/>
    <svg contentScriptType="text/ecmascript" zoomAndPan="magnify" contentStyleType="text/css" class="Balloon" preserveAspectRatio="xMidYMid meet" version="1.0">
        <polygon points="357,990 1402,988 1395,1119 345,1121 357,990" id="SAINTOGAN_PROSPER_ET_LE_MONSTRE_MARIN_016_balloon_0">
            <metadata borderStyle="other" tailTip="" boundingBox="" tailDirection="none" rank="1"/>
        </polygon>
        <polygon points="1411,981 2531,985 2521,1113 1411,1110 1411,981" id="SAINTOGAN_PROSPER_ET_LE_MONSTRE_MARIN_016_balloon_1">
            <metadata borderStyle="other" tailTip="" boundingBox="" tailDirection="none" rank="2"/>
        </polygon>
        <polygon points="353,1710 973,1701 962,1840 349,1836 353,1710" id="SAINTOGAN_PROSPER_ET_LE_MONSTRE_MARIN_016_balloon_2">
            <metadata borderStyle="other" tailTip="" boundingBox="" tailDirection="none" rank="3"/>
        </polygon>
        <polygon points="985,1705 1808,1710 1796,1842 985,1844 985,1705" id="SAINTOGAN_PROSPER_ET_LE_MONSTRE_MARIN_016_balloon_3">
            <metadata borderStyle="other" tailTip="" boundingBox="" tailDirection="none" rank="4"/>
        </polygon>
        <polygon points="1815,1705 2533,1712 2524,1842 1815,1831 1815,1705" id="SAINTOGAN_PROSPER_ET_LE_MONSTRE_MARIN_016_balloon_4">
            <metadata borderStyle="other" tailTip="" boundingBox="" tailDirection="none" rank="5"/>
        </polygon>
        <polygon points="355,2456 1447,2450 1453,2538 357,2540 355,2456" id="SAINTOGAN_PROSPER_ET_LE_MONSTRE_MARIN_016_balloon_5">
            <metadata borderStyle="other" tailTip="" boundingBox="" tailDirection="none" rank="6"/>
        </polygon>
        <polygon points="1470,2454 2335,2452 2331,2531 1464,2533 1470,2454" id="SAINTOGAN_PROSPER_ET_LE_MONSTRE_MARIN_016_balloon_6">
            <metadata borderStyle="other" tailTip="" boundingBox="" tailDirection="none" rank="7"/>
        </polygon>
        <polygon points="359,3250 1293,3246 1299,3339 355,3333 359,3250" id="SAINTOGAN_PROSPER_ET_LE_MONSTRE_MARIN_016_balloon_7">
            <metadata borderStyle="other" tailTip="" boundingBox="" tailDirection="none" rank="8"/>
        </polygon>
        <polygon points="1309,3244 2001,3246 1998,3341 1301,3327 1309,3244" id="SAINTOGAN_PROSPER_ET_LE_MONSTRE_MARIN_016_balloon_8">
            <metadata borderStyle="other" tailTip="" boundingBox="" tailDirection="none" rank="9"/>
        </polygon>
        <polygon points="2023,3246 2525,3244 2528,3343 2021,3339 2023,3246" id="SAINTOGAN_PROSPER_ET_LE_MONSTRE_MARIN_016_balloon_9">
            <metadata borderStyle="other" tailTip="" boundingBox="" tailDirection="none" rank="10"/>
        </polygon>
        <polygon points="2833,1208 3925,1208 3922,1339 2839,1339 2833,1208" id="SAINTOGAN_PROSPER_ET_LE_MONSTRE_MARIN_016_balloon_10">
            <metadata borderStyle="other" tailTip="" boundingBox="" tailDirection="none" rank="11"/>
        </polygon>
        <polygon points="3949,1208 5012,1217 5010,1353 3963,1341 3949,1208" id="SAINTOGAN_PROSPER_ET_LE_MONSTRE_MARIN_016_balloon_11">
            <metadata borderStyle="other" tailTip="" boundingBox="" tailDirection="none" rank="12"/>
        </polygon>
        <polygon points="2824,2196 3928,2205 3914,2354 2819,2339 2824,2196" id="SAINTOGAN_PROSPER_ET_LE_MONSTRE_MARIN_016_balloon_12">
            <metadata borderStyle="other" tailTip="" boundingBox="" tailDirection="none" rank="13"/>
        </polygon>
        <polygon points="3936,2207 5018,2207 5010,2363 3928,2334 3936,2207" id="SAINTOGAN_PROSPER_ET_LE_MONSTRE_MARIN_016_balloon_13">
            <metadata borderStyle="other" tailTip="" boundingBox="" tailDirection="none" rank="14"/>
        </polygon>
        <polygon points="2822,3239 3915,3246 3921,3325 2818,3328 2822,3239" id="SAINTOGAN_PROSPER_ET_LE_MONSTRE_MARIN_016_balloon_14">
            <metadata borderStyle="other" tailTip="" boundingBox="" tailDirection="none" rank="15"/>
        </polygon>
        <polygon points="3936,3246 5008,3254 4985,3353 3932,3326 3936,3246" id="SAINTOGAN_PROSPER_ET_LE_MONSTRE_MARIN_016_balloon_15">
            <metadata borderStyle="other" tailTip="" boundingBox="" tailDirection="none" rank="16"/>
        </polygon>
    </svg>
    <svg contentScriptType="text/ecmascript" zoomAndPan="magnify" contentStyleType="text/css" class="Character" preserveAspectRatio="xMidYMid meet" version="1.0">
        <polygon points="553,1156 902,1156 902,1649 553,1649 553,1156" id="SAINTOGAN_PROSPER_ET_LE_MONSTRE_MARIN_016_character_0">
            <metadata uri="" area="" fillingPcent=""/>
        </polygon>
        <polygon points="360,1420 520,1420 520,1589 360,1589 360,1420" id="SAINTOGAN_PROSPER_ET_LE_MONSTRE_MARIN_016_character_1">
            <metadata uri="" area="" fillingPcent=""/>
        </polygon>
        <polygon points="1024,463 1197,463 1197,747 1024,747 1024,463" id="SAINTOGAN_PROSPER_ET_LE_MONSTRE_MARIN_016_character_2">
            <metadata uri="" area="" fillingPcent=""/>
        </polygon>
        <polygon points="1464,392 1830,392 1830,863 1464,863 1464,392" id="SAINTOGAN_PROSPER_ET_LE_MONSTRE_MARIN_016_character_3">
            <metadata uri="" area="" fillingPcent=""/>
        </polygon>
        <polygon points="1013,1265 1575,1265 1575,1635 1013,1635 1013,1265" id="SAINTOGAN_PROSPER_ET_LE_MONSTRE_MARIN_016_character_4">
            <metadata uri="" area="" fillingPcent=""/>
        </polygon>
        <polygon points="1595,1271 1781,1271 1781,1471 1595,1471 1595,1271" id="SAINTOGAN_PROSPER_ET_LE_MONSTRE_MARIN_016_character_5">
            <metadata uri="" area="" fillingPcent=""/>
        </polygon>
        <polygon points="1821,1400 1994,1400 1994,1609 1821,1609 1821,1400" id="SAINTOGAN_PROSPER_ET_LE_MONSTRE_MARIN_016_character_6">
            <metadata uri="" area="" fillingPcent=""/>
        </polygon>
        <polygon points="2012,1240 2514,1240 2514,1578 2012,1578 2012,1240" id="SAINTOGAN_PROSPER_ET_LE_MONSTRE_MARIN_016_character_7">
            <metadata uri="" area="" fillingPcent=""/>
        </polygon>
        <polygon points="527,1973 1006,1973 1006,2326 527,2326 527,1973" id="SAINTOGAN_PROSPER_ET_LE_MONSTRE_MARIN_016_character_8">
            <metadata uri="" area="" fillingPcent=""/>
        </polygon>
        <polygon points="944,2159 1137,2159 1137,2361 944,2361 944,2159" id="SAINTOGAN_PROSPER_ET_LE_MONSTRE_MARIN_016_character_9">
            <metadata uri="" area="" fillingPcent=""/>
        </polygon>
        <polygon points="1144,2135 1311,2135 1311,2286 1144,2286 1144,2135" id="SAINTOGAN_PROSPER_ET_LE_MONSTRE_MARIN_016_character_10">
            <metadata uri="" area="" fillingPcent=""/>
        </polygon>
        <polygon points="1812,1891 2398,1891 2398,2312 1812,2312 1812,1891" id="SAINTOGAN_PROSPER_ET_LE_MONSTRE_MARIN_016_character_11">
            <metadata uri="" area="" fillingPcent=""/>
        </polygon>
        <polygon points="1606,2239 1741,2239 1741,2426 1606,2426 1606,2239" id="SAINTOGAN_PROSPER_ET_LE_MONSTRE_MARIN_016_character_12">
            <metadata uri="" area="" fillingPcent=""/>
        </polygon>
        <polygon points="1002,2980 1198,2980 1198,3145 1002,3145 1002,2980" id="SAINTOGAN_PROSPER_ET_LE_MONSTRE_MARIN_016_character_13">
            <metadata uri="" area="" fillingPcent=""/>
        </polygon>
        <polygon points="423,2806 890,2806 890,3190 423,3190 423,2806" id="SAINTOGAN_PROSPER_ET_LE_MONSTRE_MARIN_016_character_14">
            <metadata uri="" area="" fillingPcent=""/>
        </polygon>
        <polygon points="436,2601 625,2601 625,2742 436,2742 436,2601" id="SAINTOGAN_PROSPER_ET_LE_MONSTRE_MARIN_016_character_15">
            <metadata uri="" area="" fillingPcent=""/>
        </polygon>
        <polygon points="1399,3000 1557,3000 1557,3170 1399,3170 1399,3000" id="SAINTOGAN_PROSPER_ET_LE_MONSTRE_MARIN_016_character_16">
            <metadata uri="" area="" fillingPcent=""/>
        </polygon>
        <polygon points="1581,2857 1746,2857 1746,3046 1581,3046 1581,2857" id="SAINTOGAN_PROSPER_ET_LE_MONSTRE_MARIN_016_character_17">
            <metadata uri="" area="" fillingPcent=""/>
        </polygon>
        <polygon points="2126,2807 2215,2807 2215,2911 2126,2911 2126,2807" id="SAINTOGAN_PROSPER_ET_LE_MONSTRE_MARIN_016_character_18">
            <metadata uri="" area="" fillingPcent=""/>
        </polygon>
        <polygon points="2083,2916 2182,2916 2182,2985 2083,2985 2083,2916" id="SAINTOGAN_PROSPER_ET_LE_MONSTRE_MARIN_016_character_19">
            <metadata uri="" area="" fillingPcent=""/>
        </polygon>
        <polygon points="2099,2985 2176,2985 2176,3060 2099,3060 2099,2985" id="SAINTOGAN_PROSPER_ET_LE_MONSTRE_MARIN_016_character_20">
            <metadata uri="" area="" fillingPcent=""/>
        </polygon>
        <polygon points="2060,3067 2171,3067 2171,3169 2060,3169 2060,3067" id="SAINTOGAN_PROSPER_ET_LE_MONSTRE_MARIN_016_character_21">
            <metadata uri="" area="" fillingPcent=""/>
        </polygon>
        <polygon points="3515,464 3849,464 3849,1131 3515,1131 3515,464" id="SAINTOGAN_PROSPER_ET_LE_MONSTRE_MARIN_016_character_22">
            <metadata uri="" area="" fillingPcent=""/>
        </polygon>
        <polygon points="3034,521 3461,521 3461,1136 3034,1136 3034,521" id="SAINTOGAN_PROSPER_ET_LE_MONSTRE_MARIN_016_character_23">
            <metadata uri="" area="" fillingPcent=""/>
        </polygon>
        <polygon points="4202,464 4501,464 4501,1068 4202,1068 4202,464" id="SAINTOGAN_PROSPER_ET_LE_MONSTRE_MARIN_016_character_24">
            <metadata uri="" area="" fillingPcent=""/>
        </polygon>
        <polygon points="4513,436 4729,436 4729,1068 4513,1068 4513,436" id="SAINTOGAN_PROSPER_ET_LE_MONSTRE_MARIN_016_character_25">
            <metadata uri="" area="" fillingPcent=""/>
        </polygon>
        <polygon points="3424,1450 3686,1450 3686,2085 3424,2085 3424,1450" id="SAINTOGAN_PROSPER_ET_LE_MONSTRE_MARIN_016_character_26">
            <metadata uri="" area="" fillingPcent=""/>
        </polygon>
        <polygon points="3025,1456 3413,1456 3413,2105 3025,2105 3025,1456" id="SAINTOGAN_PROSPER_ET_LE_MONSTRE_MARIN_016_character_27">
            <metadata uri="" area="" fillingPcent=""/>
        </polygon>
        <polygon points="4319,1487 4641,1487 4641,2136 4319,2136 4319,1487" id="SAINTOGAN_PROSPER_ET_LE_MONSTRE_MARIN_016_character_28">
            <metadata uri="" area="" fillingPcent=""/>
        </polygon>
        <polygon points="4578,1481 4894,1481 4894,2165 4578,2165 4578,1481" id="SAINTOGAN_PROSPER_ET_LE_MONSTRE_MARIN_016_character_29">
            <metadata uri="" area="" fillingPcent=""/>
        </polygon>
        <polygon points="3065,2683 3299,2683 3299,3131 3065,3131 3065,2683" id="SAINTOGAN_PROSPER_ET_LE_MONSTRE_MARIN_016_character_30">
            <metadata uri="" area="" fillingPcent=""/>
        </polygon>
        <polygon points="2820,2646 3045,2646 3045,3088 2820,3088 2820,2646" id="SAINTOGAN_PROSPER_ET_LE_MONSTRE_MARIN_016_character_31">
            <metadata uri="" area="" fillingPcent=""/>
        </polygon>
        <polygon points="3923,2490 4308,2490 4308,3162 3923,3162 3923,2490" id="SAINTOGAN_PROSPER_ET_LE_MONSTRE_MARIN_016_character_32">
            <metadata uri="" area="" fillingPcent=""/>
        </polygon>
        <polygon points="4345,2552 4666,2552 4666,3202 4345,3202 4345,2552" id="SAINTOGAN_PROSPER_ET_LE_MONSTRE_MARIN_016_character_33">
            <metadata uri="" area="" fillingPcent=""/>
        </polygon>
        <polygon points="4686,2384 4957,2384 4957,3136 4686,3136 4686,2384" id="SAINTOGAN_PROSPER_ET_LE_MONSTRE_MARIN_016_character_34">
            <metadata uri="" area="" fillingPcent=""/>
        </polygon>
    </svg>
    <svg contentScriptType="text/ecmascript" zoomAndPan="magnify" contentStyleType="text/css" class="Line" preserveAspectRatio="xMidYMid meet" version="1.0">
        <polygon points="325,200 558,200 558,243 325,243 325,200" id="SAINTOGAN_PROSPER_ET_LE_MONSTRE_MARIN_016_line_0">
            <metadata method="" typography="" textType="note">EVASION</metadata>
        </polygon>
        <polygon points="358,991 1381,991 1381,1032 358,1032 358,991" id="SAINTOGAN_PROSPER_ET_LE_MONSTRE_MARIN_016_line_1">
            <metadata method="" typography="" idBalloon="SAINTOGAN_PROSPER_ET_LE_MONSTRE_MARIN_016_balloon_0" textType="speech">M. le Rat. - A présent, mes chers amis, il</metadata>
        </polygon>
        <polygon points="417,1034 1383,1034 1383,1072 417,1072 417,1034" id="SAINTOGAN_PROSPER_ET_LE_MONSTRE_MARIN_016_line_2">
            <metadata method="" typography="" idBalloon="SAINTOGAN_PROSPER_ET_LE_MONSTRE_MARIN_016_balloon_0" textType="speech">faut délivrer Prosper l'ours et Toutoune qui</metadata>
        </polygon>
        <polygon points="476,1083 1314,1083 1314,1121 476,1121 476,1083" id="SAINTOGAN_PROSPER_ET_LE_MONSTRE_MARIN_016_line_3">
            <metadata method="" typography="" idBalloon="SAINTOGAN_PROSPER_ET_LE_MONSTRE_MARIN_016_balloon_0" textType="speech">sont injustement retenus en prison.</metadata>
        </polygon>
        <polygon points="1414,985 2515,985 2515,1021 1414,1021 1414,985" id="SAINTOGAN_PROSPER_ET_LE_MONSTRE_MARIN_016_line_4">
            <metadata method="" typography="" idBalloon="SAINTOGAN_PROSPER_ET_LE_MONSTRE_MARIN_016_balloon_1" textType="speech">Ce sont de très braves gens ; nous devons faire</metadata>
        </polygon>
        <polygon points="1471,1033 2513,1033 2513,1072 1471,1072 1471,1033" id="SAINTOGAN_PROSPER_ET_LE_MONSTRE_MARIN_016_line_5">
            <metadata method="" typography="" idBalloon="SAINTOGAN_PROSPER_ET_LE_MONSTRE_MARIN_016_balloon_1" textType="speech">quelque chose pour eux. Allons prendre la clef</metadata>
        </polygon>
        <polygon points="1538,1077 2429,1077 2429,1117 1538,1117 1538,1077" id="SAINTOGAN_PROSPER_ET_LE_MONSTRE_MARIN_016_line_6">
            <metadata method="" typography="" idBalloon="SAINTOGAN_PROSPER_ET_LE_MONSTRE_MARIN_016_balloon_1" textType="speech">de la cellule chez le geôlier... En avant !</metadata>
        </polygon>
        <polygon points="360,1706 950,1706 950,1745 360,1745 360,1706" id="SAINTOGAN_PROSPER_ET_LE_MONSTRE_MARIN_016_line_7">
            <metadata method="" typography="" idBalloon="SAINTOGAN_PROSPER_ET_LE_MONSTRE_MARIN_016_balloon_2" textType="speech">Le Geôlier.-Ces rats infes-</metadata>
        </polygon>
        <polygon points="423,1753 948,1753 948,1796 423,1796 423,1753" id="SAINTOGAN_PROSPER_ET_LE_MONSTRE_MARIN_016_line_8">
            <metadata method="" typography="" idBalloon="SAINTOGAN_PROSPER_ET_LE_MONSTRE_MARIN_016_balloon_2" textType="speech">tent le prison. Je vais</metadata>
        </polygon>
        <polygon points="545,1800 827,1800 827,1841 545,1841 545,1800" id="SAINTOGAN_PROSPER_ET_LE_MONSTRE_MARIN_016_line_9">
            <metadata method="" typography="" idBalloon="SAINTOGAN_PROSPER_ET_LE_MONSTRE_MARIN_016_balloon_2" textType="speech">signaler ça...</metadata>
        </polygon>
        <polygon points="985,1704 1786,1704 1786,1751 985,1751 985,1704" id="SAINTOGAN_PROSPER_ET_LE_MONSTRE_MARIN_016_line_10">
            <metadata method="" typography="" idBalloon="SAINTOGAN_PROSPER_ET_LE_MONSTRE_MARIN_016_balloon_3" textType="speech">Les rats.- Bisque, bisque, rage !</metadata>
        </polygon>
        <polygon points="989,1757 1786,1757 1786,1792 989,1792 989,1757" id="SAINTOGAN_PROSPER_ET_LE_MONSTRE_MARIN_016_line_11">
            <metadata method="" typography="" idBalloon="SAINTOGAN_PROSPER_ET_LE_MONSTRE_MARIN_016_balloon_3" textType="speech">Le Geôlier. - Quelle audace !... Me</metadata>
        </polygon>
        <polygon points="1152,1796 1612,1796 1612,1843 1152,1843 1152,1796" id="SAINTOGAN_PROSPER_ET_LE_MONSTRE_MARIN_016_line_12">
            <metadata method="" typography="" idBalloon="SAINTOGAN_PROSPER_ET_LE_MONSTRE_MARIN_016_balloon_3" textType="speech">manquer de respect!</metadata>
        </polygon>
        <polygon points="1816,1704 2513,1704 2513,1753 1816,1753 1816,1704" id="SAINTOGAN_PROSPER_ET_LE_MONSTRE_MARIN_016_line_13">
            <metadata method="" typography="" idBalloon="SAINTOGAN_PROSPER_ET_LE_MONSTRE_MARIN_016_balloon_4" textType="speech">A moi le geôlier ! A moi le maître</metadata>
        </polygon>
        <polygon points="1871,1753 2511,1753 2511,1798 1871,1798 1871,1753" id="SAINTOGAN_PROSPER_ET_LE_MONSTRE_MARIN_016_line_14">
            <metadata method="" typography="" idBalloon="SAINTOGAN_PROSPER_ET_LE_MONSTRE_MARIN_016_balloon_4" textType="speech">de cette prison ! Attendez un</metadata>
        </polygon>
        <polygon points="2002,1792 2390,1792 2390,1841 2002,1841 2002,1792" id="SAINTOGAN_PROSPER_ET_LE_MONSTRE_MARIN_016_line_15">
            <metadata method="" typography="" idBalloon="SAINTOGAN_PROSPER_ET_LE_MONSTRE_MARIN_016_balloon_4" textType="speech">peu, garnements !</metadata>
        </polygon>
        <polygon points="362,2449 1434,2449 1434,2492 362,2492 362,2449" id="SAINTOGAN_PROSPER_ET_LE_MONSTRE_MARIN_016_line_16">
            <metadata method="" typography="" idBalloon="SAINTOGAN_PROSPER_ET_LE_MONSTRE_MARIN_016_balloon_5" textType="speech">Oh !... ce qu'il m'agace, celui-là, à agiter son</metadata>
        </polygon>
        <polygon points="364,2498 1436,2498 1436,2541 364,2541 364,2498" id="SAINTOGAN_PROSPER_ET_LE_MONSTRE_MARIN_016_line_17">
            <metadata method="" typography="" idBalloon="SAINTOGAN_PROSPER_ET_LE_MONSTRE_MARIN_016_balloon_5" textType="speech">mouchoir rouge; c'est une couleur que je déteste !</metadata>
        </polygon>
        <polygon points="1473,2449 2323,2449 2323,2498 1473,2498 1473,2449" id="SAINTOGAN_PROSPER_ET_LE_MONSTRE_MARIN_016_line_18">
            <metadata method="" typography="" idBalloon="SAINTOGAN_PROSPER_ET_LE_MONSTRE_MARIN_016_balloon_6" textType="speech">M. le Rat. - Tu ne m'attraperas pas !</metadata>
        </polygon>
        <polygon points="1473,2496 2161,2496 2161,2543 1473,2543 1473,2496" id="SAINTOGAN_PROSPER_ET_LE_MONSTRE_MARIN_016_line_19">
            <metadata method="" typography="" idBalloon="SAINTOGAN_PROSPER_ET_LE_MONSTRE_MARIN_016_balloon_6" textType="speech">Le Geôlier. - Tu vas voir ça !</metadata>
        </polygon>
        <polygon points="362,3250 1275,3250 1275,3285 362,3285 362,3250" id="SAINTOGAN_PROSPER_ET_LE_MONSTRE_MARIN_016_line_20">
            <metadata method="" typography="" idBalloon="SAINTOGAN_PROSPER_ET_LE_MONSTRE_MARIN_016_balloon_7" textType="speech">M. le Rat - Et voila le travail ! Saisis-</metadata>
        </polygon>
        <polygon points="574,3291 1060,3291 1060,3336 574,3336 574,3291" id="SAINTOGAN_PROSPER_ET_LE_MONSTRE_MARIN_016_line_21">
            <metadata method="" typography="" idBalloon="SAINTOGAN_PROSPER_ET_LE_MONSTRE_MARIN_016_balloon_7" textType="speech">sons-nous de la clef.</metadata>
        </polygon>
        <polygon points="1314,3246 1980,3246 1980,3291 1314,3291 1314,3246" id="SAINTOGAN_PROSPER_ET_LE_MONSTRE_MARIN_016_line_22">
            <metadata method="" typography="" idBalloon="SAINTOGAN_PROSPER_ET_LE_MONSTRE_MARIN_016_balloon_8" textType="speech">Faisons vite avant qu'il ne</metadata>
        </polygon>
        <polygon points="1314,3294 1988,3294 1988,3336 1314,3336 1314,3294" id="SAINTOGAN_PROSPER_ET_LE_MONSTRE_MARIN_016_line_23">
            <metadata method="" typography="" idBalloon="SAINTOGAN_PROSPER_ET_LE_MONSTRE_MARIN_016_balloon_8" textType="speech">dégage ses cornes du mur...</metadata>
        </polygon>
        <polygon points="2023,3246 2525,3246 2525,3289 2023,3289 2023,3246" id="SAINTOGAN_PROSPER_ET_LE_MONSTRE_MARIN_016_line_24">
            <metadata method="" typography="" idBalloon="SAINTOGAN_PROSPER_ET_LE_MONSTRE_MARIN_016_balloon_9" textType="speech">C'est nous, Toutoune ;</metadata>
        </polygon>
        <polygon points="2018,3296 2527,3297 2527,3344 2018,3344 2018,3296" id="SAINTOGAN_PROSPER_ET_LE_MONSTRE_MARIN_016_line_25">
            <metadata method="" typography="" idBalloon="SAINTOGAN_PROSPER_ET_LE_MONSTRE_MARIN_016_balloon_9" textType="speech">nous ouvrons la porte.</metadata>
        </polygon>
        <polygon points="1424,3426 1475,3426 1475,3469 1424,3469 1424,3426" id="SAINTOGAN_PROSPER_ET_LE_MONSTRE_MARIN_016_line_26">
            <metadata method="" typography="" textType="note">16</metadata>
        </polygon>
        <polygon points="4057,198 5032,198 5032,247 4057,247 4057,198" id="SAINTOGAN_PROSPER_ET_LE_MONSTRE_MARIN_016_line_27">
            <metadata method="" typography="" textType="note">RETOUR AU CHATEAU DE PROSPER</metadata>
        </polygon>
        <polygon points="2844,507 3019,488 3026,541 2854,549 2844,507" id="SAINTOGAN_PROSPER_ET_LE_MONSTRE_MARIN_016_line_28">
            <metadata method="" typography="" textType="illustrative">PRISON</metadata>
        </polygon>
        <polygon points="2836,1211 3910,1211 3910,1248 2836,1248 2836,1211" id="SAINTOGAN_PROSPER_ET_LE_MONSTRE_MARIN_016_line_29">
            <metadata method="" typography="" idBalloon="SAINTOGAN_PROSPER_ET_LE_MONSTRE_MARIN_016_balloon_10" textType="speech">Toutouns. - Grâce à l'intervention de ces bons</metadata>
        </polygon>
        <polygon points="2919,1254 3906,1254 3906,1295 2919,1295 2919,1254" id="SAINTOGAN_PROSPER_ET_LE_MONSTRE_MARIN_016_line_30">
            <metadata method="" typography="" idBalloon="SAINTOGAN_PROSPER_ET_LE_MONSTRE_MARIN_016_balloon_10" textType="speech">rats nous sommes sortis de la prison. Mainte-</metadata>
        </polygon>
        <polygon points="3113,1297 3726,1297 3726,1340 3113,1340 3113,1297" id="SAINTOGAN_PROSPER_ET_LE_MONSTRE_MARIN_016_line_31">
            <metadata method="" typography="" idBalloon="SAINTOGAN_PROSPER_ET_LE_MONSTRE_MARIN_016_balloon_10" textType="speech">nant nous sommes sauvés !...</metadata>
        </polygon>
        <polygon points="3953,1215 5007,1215 5007,1262 3953,1262 3953,1215" id="SAINTOGAN_PROSPER_ET_LE_MONSTRE_MARIN_016_line_32">
            <metadata method="" typography="" idBalloon="SAINTOGAN_PROSPER_ET_LE_MONSTRE_MARIN_016_balloon_11" textType="speech">Propser. - Mais vous savez, Toutoune, que les</metadata>
        </polygon>
        <polygon points="4008,1267 5003,1267 5003,1303 4008,1303 4008,1267" id="SAINTOGAN_PROSPER_ET_LE_MONSTRE_MARIN_016_line_33">
            <metadata method="" typography="" idBalloon="SAINTOGAN_PROSPER_ET_LE_MONSTRE_MARIN_016_balloon_11" textType="speech">choses ne vont pas se passer comme ça ! Je</metadata>
        </polygon>
        <polygon points="4161,1303 4848,1303 4848,1348 4161,1348 4161,1303" id="SAINTOGAN_PROSPER_ET_LE_MONSTRE_MARIN_016_line_34">
            <metadata method="" typography="" idBalloon="SAINTOGAN_PROSPER_ET_LE_MONSTRE_MARIN_016_balloon_11" textType="speech">vais aller me plaindre au roi...</metadata>
        </polygon>
        <polygon points="2836,2206 3910,2206 3910,2253 2836,2253 2836,2206" id="SAINTOGAN_PROSPER_ET_LE_MONSTRE_MARIN_016_line_35">
            <metadata method="" typography="" idBalloon="SAINTOGAN_PROSPER_ET_LE_MONSTRE_MARIN_016_balloon_12" textType="speech">Il est inadmissible qu'on m'ait arrêté, moi,</metadata>
        </polygon>
        <polygon points="2895,2247 3906,2247 3906,2290 2895,2290 2895,2247" id="SAINTOGAN_PROSPER_ET_LE_MONSTRE_MARIN_016_line_36">
            <metadata method="" typography="" idBalloon="SAINTOGAN_PROSPER_ET_LE_MONSTRE_MARIN_016_balloon_12" textType="speech">Prosper, le milliardaire décoré de l'ordre de</metadata>
        </polygon>
        <polygon points="3214,2296 3561,2296 3561,2343 3214,2343 3214,2296" id="SAINTOGAN_PROSPER_ET_LE_MONSTRE_MARIN_016_line_37">
            <metadata method="" typography="" idBalloon="SAINTOGAN_PROSPER_ET_LE_MONSTRE_MARIN_016_balloon_12" textType="speech">Griffe d'argent !</metadata>
        </polygon>
        <polygon points="3947,2210 4825,2210 4825,2257 3947,2257 3947,2210" id="SAINTOGAN_PROSPER_ET_LE_MONSTRE_MARIN_016_line_38">
            <metadata method="" typography="" idBalloon="SAINTOGAN_PROSPER_ET_LE_MONSTRE_MARIN_016_balloon_13" textType="speech">Toutoune. - Ne soyez pas trop violent.</metadata>
        </polygon>
        <polygon points="3945,2257 4995,2257 4995,2299 3945,2301 3945,2257" id="SAINTOGAN_PROSPER_ET_LE_MONSTRE_MARIN_016_line_39">
            <metadata method="" typography="" idBalloon="SAINTOGAN_PROSPER_ET_LE_MONSTRE_MARIN_016_balloon_13" textType="speech">Prosper. - N'ayez aucune crainte ; je saurai</metadata>
        </polygon>
        <polygon points="4192,2300 4754,2300 4754,2345 4192,2345 4192,2300" id="SAINTOGAN_PROSPER_ET_LE_MONSTRE_MARIN_016_line_40">
            <metadata method="" typography="" idBalloon="SAINTOGAN_PROSPER_ET_LE_MONSTRE_MARIN_016_balloon_13" textType="speech">contenir ma juste colère.</metadata>
        </polygon>
        <polygon points="2829,3242 3904,3242 3904,3291 2829,3291 2829,3242" id="SAINTOGAN_PROSPER_ET_LE_MONSTRE_MARIN_016_line_41">
            <metadata method="" typography="" idBalloon="SAINTOGAN_PROSPER_ET_LE_MONSTRE_MARIN_016_balloon_14" textType="speech">Ah !... voici mon château... ça me fait plaisir de</metadata>
        </polygon>
        <polygon points="3269,3287 3532,3287 3532,3328 3269,3328 3269,3287" id="SAINTOGAN_PROSPER_ET_LE_MONSTRE_MARIN_016_line_42">
            <metadata method="" typography="" idBalloon="SAINTOGAN_PROSPER_ET_LE_MONSTRE_MARIN_016_balloon_14" textType="speech">de le revoir.</metadata>
        </polygon>
        <polygon points="3939,3244 4991,3244 4991,3293 3939,3293 3939,3244" id="SAINTOGAN_PROSPER_ET_LE_MONSTRE_MARIN_016_line_43">
            <metadata method="" typography="" idBalloon="SAINTOGAN_PROSPER_ET_LE_MONSTRE_MARIN_016_balloon_15" textType="speech">Toutoune. - Voici un de vos gens, il porte votre</metadata>
        </polygon>
        <polygon points="3988,3295 4948,3295 4948,3338 3988,3338 3988,3295" id="SAINTOGAN_PROSPER_ET_LE_MONSTRE_MARIN_016_line_44">
            <metadata method="" typography="" idBalloon="SAINTOGAN_PROSPER_ET_LE_MONSTRE_MARIN_016_balloon_15" textType="speech">livrée. - Prosper.- Mais oui... Eh! l'ami !</metadata>
        </polygon>
        <polygon points="2829,3428 3242,3428 3242,3461 2829,3461 2829,3428" id="SAINTOGAN_PROSPER_ET_LE_MONSTRE_MARIN_016_line_45">
            <metadata method="" typography="" textType="note">Prosper et le Monstre marin,</metadata>
        </polygon>
        <polygon points="3890,3430 3941,3430 3941,3479 3890,3479 3890,3430" id="SAINTOGAN_PROSPER_ET_LE_MONSTRE_MARIN_016_line_46">
            <metadata method="" typography="" textType="note">17</metadata>
        </polygon>
        <polygon points="4956,3450 4981,3450 4981,3473 4956,3473 4956,3450" id="SAINTOGAN_PROSPER_ET_LE_MONSTRE_MARIN_016_line_47">
            <metadata method="" typography="" textType="speech">3</metadata>
        </polygon>
    </svg>
    <svg contentScriptType="text/ecmascript" zoomAndPan="magnify" contentStyleType="text/css" class="linkSBSC" preserveAspectRatio="xMidYMid meet" version="1.0"/>
<metadata method="GroundTruth" lastModificationDate="Mon Feb 03 19:17:57 CET 2014" lastStepModified="Balloon_Rank"/>
</svg>