<?xml version="1.0" encoding="UTF-8" standalone="no"?>
<svg xmlns:xlink="http://www.w3.org/1999/xlink" xmlns="http://www.w3.org/2000/svg" contentScriptType="text/ecmascript"
     width="1237mm" zoomAndPan="magnify" contentStyleType="text/css" height="1726mm" viewBox="0 0 2474 3452"
     preserveAspectRatio="xMidYMid meet" version="1.0">
    <title>SAINTOGAN_ZIGPUCE_ET_ALFRED_005</title>
    <svg contentScriptType="text/ecmascript" zoomAndPan="magnify" contentStyleType="text/css" class="Page"
         preserveAspectRatio="xMidYMid meet" version="1.0">
        <image x="0" y="0" width="2474" xlink:href="../Pages/SAINTOGAN_ZIGPUCE_ET_ALFRED_005.jpg" xlink:type="simple"
               xlink:actuate="onLoad" height="3452" preserveAspectRatio="xMidYMid meet" xlink:show="embed"/>
        <metadata collectionTitle="Zig Et Puce" editorName="Hachette" doublePage="false"
                  website="http://collections.citebd.org/saintogan/www/fonds.php" albumTitle="Zig, Puce et Alfred"
                  drawerName="Alain Saint Ogan" language="french" resolution="600" ISBN=""
                  readingDirection="leftToRight" writerName="Alain Saint Ogan" releaseDate="1952" pageNumber="5"/>
    </svg>
    <style type="text/css" xml:space="preserve">
        * { stroke-width: 0; stroke-linejoin: round; }
        .Unclassified { fill: orange; stroke: none; opacity: 1.0; visibility: hidden; }
        .Noise { fill: pink; stroke: none; opacity: 0.2; visibility: hidden; }
        .Panel { fill: red; stroke: none; opacity: 0.3; visibility: visible; image-rendering: optimizeSpeed; }
        .Line { fill: green; stroke: none; opacity: 0.5; visibility: visible; image-rendering: optimizeSpeed; }
        .TextArea { fill: grey; stroke: none; opacity: 0.2; visibility: visible; image-rendering: optimizeSpeed; }
        .Balloon { fill: cyan; stroke: none; opacity: 0.5; visibility: visible; image-rendering: optimizeSpeed; }
        .Letter { fill: blue; stroke: none; opacity: 0.2; visibility: hidden; }
        .Character { fill: yellow; stroke: none; opacity: 0.3; visibility: visible; image-rendering: optimizeSpeed; }
        .Page { fill: white; stroke: none; opacity: 0.5; visibility: visible; }
        .linkSBSC { fill: blue; stroke: none; opacity: 0.5; visibility: visible; }
        polygon:hover { stroke:red;stroke-width:2; } 
    </style>
    <svg contentScriptType="text/ecmascript" zoomAndPan="magnify" contentStyleType="text/css" class="Panel"
         preserveAspectRatio="xMidYMid meet" version="1.0">
        <polygon points="109,458 821,457 817,1119 110,1119 109,458" id="SAINTOGAN_ZIGPUCE_ET_ALFRED_005_panel_0">
            <metadata viewAngle="" shot="" rank="1"/>
        </polygon>
        <polygon points="857,451 2357,445 2359,1111 864,1121 857,451" id="SAINTOGAN_ZIGPUCE_ET_ALFRED_005_panel_1">
            <metadata viewAngle="" shot="" rank="2"/>
        </polygon>
        <polygon points="110,1161 819,1160 823,1826 120,1827 110,1161" id="SAINTOGAN_ZIGPUCE_ET_ALFRED_005_panel_2">
            <metadata viewAngle="" shot="" rank="3"/>
        </polygon>
        <polygon points="863,1160 1573,1160 1573,1825 863,1826 863,1160" id="SAINTOGAN_ZIGPUCE_ET_ALFRED_005_panel_3">
            <metadata viewAngle="" shot="" rank="4"/>
        </polygon>
        <polygon points="1612,1160 2361,1155 2364,1828 1611,1827 1612,1160"
                 id="SAINTOGAN_ZIGPUCE_ET_ALFRED_005_panel_4">
            <metadata viewAngle="" shot="" rank="5"/>
        </polygon>
        <polygon points="121,1868 827,1868 828,2544 124,2544 121,1868" id="SAINTOGAN_ZIGPUCE_ET_ALFRED_005_panel_5">
            <metadata viewAngle="" shot="" rank="6"/>
        </polygon>
        <polygon points="864,1869 1571,1870 1572,2541 860,2545 864,1869" id="SAINTOGAN_ZIGPUCE_ET_ALFRED_005_panel_6">
            <metadata viewAngle="" shot="" rank="7"/>
        </polygon>
        <polygon points="1612,1869 2365,1871 2363,2546 1607,2544 1612,1869"
                 id="SAINTOGAN_ZIGPUCE_ET_ALFRED_005_panel_7">
            <metadata viewAngle="" shot="" rank="8"/>
        </polygon>
        <polygon points="126,2586 829,2585 832,3263 130,3268 126,2586" id="SAINTOGAN_ZIGPUCE_ET_ALFRED_005_panel_8">
            <metadata viewAngle="" shot="" rank="9"/>
        </polygon>
        <polygon points="865,2582 1571,2585 1574,3263 869,3266 865,2582" id="SAINTOGAN_ZIGPUCE_ET_ALFRED_005_panel_9">
            <metadata viewAngle="" shot="" rank="10"/>
        </polygon>
        <polygon points="1611,2588 2360,2583 2369,3262 1612,3264 1611,2588"
                 id="SAINTOGAN_ZIGPUCE_ET_ALFRED_005_panel_10">
            <metadata viewAngle="" shot="" rank="11"/>
        </polygon>
    </svg>
    <svg contentScriptType="text/ecmascript" zoomAndPan="magnify" contentStyleType="text/css" class="TextArea"
         preserveAspectRatio="xMidYMid meet" version="1.0"/>
    <svg contentScriptType="text/ecmascript" zoomAndPan="magnify" contentStyleType="text/css" class="Balloon"
         preserveAspectRatio="xMidYMid meet" version="1.0">
        <polygon
                points="124,468 214,467 297,466 345,462 451,460 468,485 457,536 457,560 463,618 440,650 394,643 350,654 313,643 314,660 377,692 426,721 446,760 433,774 410,738 375,717 318,691 282,661 280,646 223,651 155,657 117,649 109,616 114,571 114,497 124,468"
                id="SAINTOGAN_ZIGPUCE_ET_ALFRED_005_balloon_0">
            <metadata borderStyle="smooth" tailTip="433,774" boundingBox="" tailDirection="S" rank="1"/>
        </polygon>
        <polygon
                points="877,459 924,462 1022,461 1129,465 1217,461 1283,460 1308,482 1298,566 1290,682 1296,748 1289,797 1218,808 1168,808 1166,827 1180,846 1177,866 1170,891 1165,912 1141,925 1152,901 1156,865 1159,850 1139,835 1146,804 1101,804 998,806 967,790 963,726 959,689 935,684 887,687 865,673 868,611 866,565 866,523 872,506 868,470 877,459"
                id="SAINTOGAN_ZIGPUCE_ET_ALFRED_005_balloon_1">
            <metadata borderStyle="smooth" tailTip="1141,925" boundingBox="" tailDirection="SW" rank="2"/>
        </polygon>
        <polygon
                points="1328,476 1383,466 1465,466 1630,468 1806,467 1987,465 2133,462 2205,462 2285,454 2329,470 2331,567 2330,707 2326,845 2328,867 2325,952 2329,1017 2331,1075 2306,1127 2260,1146 2207,1138 2159,1139 2122,1131 2077,1140 2023,1128 1975,1135 1896,1131 1881,1121 1835,1136 1780,1131 1727,1141 1668,1126 1617,1125 1563,1126 1541,1097 1533,1034 1499,908 1503,865 1482,799 1463,712 1434,707 1395,705 1367,706 1350,704 1346,744 1317,774 1307,814 1302,768 1319,735 1324,712 1319,655 1317,620 1322,545 1328,476"
                id="SAINTOGAN_ZIGPUCE_ET_ALFRED_005_balloon_2">
            <metadata borderStyle="smooth" tailTip="1307,814" boundingBox="" tailDirection="S" rank="3"/>
        </polygon>
        <polygon
                points="532,1123 562,1114 585,1115 612,1140 621,1159 641,1178 649,1197 642,1229 618,1246 606,1251 610,1273 595,1289 563,1304 557,1312 561,1324 541,1357 547,1328 536,1322 544,1304 529,1303 518,1293 499,1292 483,1281 483,1266 459,1248 453,1227 456,1194 484,1166 494,1140 529,1125 532,1123 532,1123 532,1123"
                id="SAINTOGAN_ZIGPUCE_ET_ALFRED_005_balloon_3">
            <metadata borderStyle="wavy" tailTip="541,1357" boundingBox="" tailDirection="S" rank="4"/>
        </polygon>
        <polygon
                points="1961,1161 1986,1167 2011,1162 2026,1163 2063,1161 2090,1166 2118,1160 2151,1164 2163,1185 2156,1209 2153,1223 2164,1247 2159,1279 2147,1288 2147,1306 2136,1318 2120,1321 2117,1327 2126,1341 2135,1352 2130,1372 2133,1383 2143,1391 2146,1401 2140,1419 2128,1432 2124,1404 2111,1390 2110,1371 2099,1352 2083,1341 2087,1316 2061,1320 2043,1319 2019,1311 1988,1315 1960,1312 1950,1281 1937,1266 1947,1236 1933,1214 1941,1192 1944,1170 1961,1161"
                id="SAINTOGAN_ZIGPUCE_ET_ALFRED_005_balloon_4">
            <metadata borderStyle="wavy" tailTip="2128,1432" boundingBox="" tailDirection="S" rank="5"/>
        </polygon>
        <polygon
                points="248,1923 275,1925 293,1919 309,1899 327,1890 345,1885 361,1889 377,1897 390,1899 412,1893 433,1893 442,1901 450,1907 463,1909 488,1907 506,1920 512,1938 513,1952 497,1968 476,1975 453,1970 446,1983 428,1987 424,1987 423,2010 421,2022 415,2036 405,2048 388,2057 396,2064 418,2072 443,2093 421,2092 387,2083 364,2073 357,2078 338,2091 321,2094 306,2096 293,2101 271,2106 257,2104 245,2093 224,2095 200,2084 190,2064 191,2040 203,2012 198,1980 205,1956 248,1923"
                id="SAINTOGAN_ZIGPUCE_ET_ALFRED_005_balloon_5">
            <metadata borderStyle="wavy" tailTip="443,2093" boundingBox="" tailDirection="SW" rank="6"/>
        </polygon>
        <polygon
                points="736,1857 764,1860 781,1868 784,1882 809,1883 822,1894 826,1919 825,1940 817,1950 819,1956 826,1974 821,2002 812,2013 802,2021 794,2025 798,2040 795,2054 788,2068 777,2071 764,2076 750,2075 740,2072 740,2074 732,2088 718,2087 708,2075 703,2078 699,2084 701,2090 707,2096 711,2102 712,2112 707,2117 703,2120 705,2126 706,2129 708,2139 704,2148 694,2165 697,2139 689,2132 690,2114 686,2100 676,2084 691,2069 669,2071 655,2066 649,2055 651,2043 642,2043 629,2037 620,2026 619,2009 623,1997 610,1986 605,1966 612,1944 634,1925 637,1911 642,1895 649,1884 664,1878 680,1875 700,1873 736,1857"
                id="SAINTOGAN_ZIGPUCE_ET_ALFRED_005_balloon_6">
            <metadata borderStyle="wavy" tailTip="694,2165" boundingBox="" tailDirection="S" rank="7"/>
        </polygon>
        <polygon
                points="984,2565 1024,2568 1042,2566 1042,2565 1057,2565 1067,2568 1077,2570 1090,2570 1104,2565 1120,2564 1142,2564 1155,2568 1176,2566 1190,2561 1204,2561 1223,2563 1229,2572 1234,2591 1231,2610 1235,2629 1236,2647 1228,2664 1212,2674 1194,2677 1175,2678 1153,2678 1148,2688 1146,2703 1134,2718 1115,2727 1089,2726 1063,2721 1050,2721 1044,2727 1041,2736 1035,2744 1029,2750 1026,2762 1028,2771 1037,2787 1020,2783 1009,2770 1009,2746 1014,2725 994,2727 962,2730 941,2720 925,2694 930,2672 934,2661 932,2632 942,2621 933,2590 937,2574 953,2564 984,2565"
                id="SAINTOGAN_ZIGPUCE_ET_ALFRED_005_balloon_7">
            <metadata borderStyle="wavy" tailTip="1037,2787" boundingBox="" tailDirection="SE" rank="8"/>
        </polygon>
        <polygon
                points="1516,2762 1541,2767 1553,2778 1553,2783 1565,2784 1574,2787 1583,2794 1587,2806 1586,2813 1586,2824 1586,2836 1580,2843 1573,2847 1577,2856 1579,2865 1578,2869 1572,2879 1560,2883 1557,2884 1556,2898 1551,2904 1546,2905 1534,2909 1524,2907 1517,2925 1515,2905 1495,2907 1483,2898 1478,2882 1483,2874 1465,2868 1456,2857 1455,2838 1461,2821 1474,2811 1473,2800 1479,2782 1495,2770 1516,2762"
                id="SAINTOGAN_ZIGPUCE_ET_ALFRED_005_balloon_8">
            <metadata borderStyle="wavy" tailTip="1517,2925" boundingBox="" tailDirection="S" rank="9"/>
        </polygon>
        <polygon
                points="1631,2554 1670,2557 1744,2555 1783,2556 1827,2552 1882,2559 1908,2560 1975,2554 2024,2553 2071,2557 2115,2555 2161,2555 2184,2553 2224,2551 2248,2557 2255,2576 2249,2598 2253,2615 2249,2629 2205,2644 2126,2633 2075,2638 2034,2637 2012,2636 1984,2634 1956,2638 1920,2642 1918,2665 1917,2695 1914,2720 1900,2746 1892,2761 1882,2779 1884,2801 1887,2823 1878,2848 1838,2890 1860,2850 1870,2823 1867,2790 1866,2758 1879,2738 1894,2713 1893,2686 1885,2664 1894,2642 1844,2644 1799,2638 1766,2637 1711,2638 1685,2633 1637,2636 1613,2623 1620,2597 1615,2575 1631,2554"
                id="SAINTOGAN_ZIGPUCE_ET_ALFRED_005_balloon_9">
            <metadata borderStyle="wavy" tailTip="1838,2890" boundingBox="" tailDirection="SW" rank="10"/>
        </polygon>
        <polygon
                points="1620,2636 1636,2637 1654,2638 1676,2638 1687,2641 1714,2641 1747,2641 1757,2644 1790,2640 1817,2645 1831,2645 1866,2643 1875,2658 1872,2679 1879,2692 1880,2709 1874,2730 1863,2741 1859,2748 1856,2767 1841,2783 1807,2784 1786,2778 1757,2786 1736,2777 1720,2786 1715,2807 1693,2823 1672,2839 1685,2817 1690,2806 1700,2796 1702,2779 1725,2765 1717,2753 1717,2724 1697,2720 1678,2719 1665,2716 1639,2722 1619,2719 1611,2698 1617,2674 1613,2650 1620,2636"
                id="SAINTOGAN_ZIGPUCE_ET_ALFRED_005_balloon_10">
            <metadata borderStyle="wavy" tailTip="1672,2839" boundingBox="" tailDirection="SW" rank="11"/>
        </polygon>
        <polygon
                points="2044,2715 2058,2724 2084,2717 2093,2725 2115,2718 2119,2725 2134,2724 2148,2725 2152,2718 2177,2730 2195,2714 2204,2722 2234,2718 2239,2721 2299,2731 2302,2746 2297,2756 2301,2770 2296,2774 2298,2783 2296,2792 2299,2801 2297,2809 2299,2822 2292,2829 2295,2838 2290,2849 2296,2858 2290,2867 2278,2872 2268,2876 2247,2875 2234,2879 2210,2884 2194,2876 2179,2882 2164,2875 2153,2883 2139,2873 2123,2874 2118,2885 2118,2891 2112,2901 2117,2908 2110,2917 2117,2927 2105,2941 2108,2953 2099,2958 2100,2973 2093,2976 2093,2984 2089,2989 2087,2995 2081,3004 2076,3029 2064,3002 2072,2988 2074,2977 2077,2968 2080,2954 2084,2944 2083,2937 2089,2927 2084,2913 2088,2907 2081,2894 2090,2879 2087,2876 2071,2877 2067,2872 2054,2878 2041,2871 2030,2880 2022,2868 2013,2873 2001,2873 1986,2875 1978,2859 1973,2852 1978,2837 1974,2832 1977,2818 1969,2810 1977,2794 1968,2783 1975,2774 1970,2765 1973,2749 1968,2737 1981,2718 1990,2724 2006,2718 2014,2724 2034,2723 2044,2715"
                id="SAINTOGAN_ZIGPUCE_ET_ALFRED_005_balloon_11">
            <metadata borderStyle="wavy" tailTip="2076,3029" boundingBox="" tailDirection="S" rank="12"/>
        </polygon>
    </svg>
    <svg contentScriptType="text/ecmascript" zoomAndPan="magnify" contentStyleType="text/css" class="Character"
         preserveAspectRatio="xMidYMid meet" version="1.0">
        <polygon points="437,803 456,803 456,842 437,842 437,803" id="SAINTOGAN_ZIGPUCE_ET_ALFRED_005_character_0">
            <metadata ID="" rank=""/>
        </polygon>
        <polygon points="970,819 1210,819 1210,1117 970,1117 970,819" id="SAINTOGAN_ZIGPUCE_ET_ALFRED_005_character_1">
            <metadata ID="" rank=""/>
        </polygon>
        <polygon points="1300,743 1527,743 1527,1123 1300,1123 1300,743"
                 id="SAINTOGAN_ZIGPUCE_ET_ALFRED_005_character_2">
            <metadata ID="" rank=""/>
        </polygon>
        <polygon points="861,685 981,685 981,1123 861,1123 861,685" id="SAINTOGAN_ZIGPUCE_ET_ALFRED_005_character_3">
            <metadata ID="" rank=""/>
        </polygon>
        <polygon points="487,1308 825,1308 825,1766 487,1766 487,1308" id="SAINTOGAN_ZIGPUCE_ET_ALFRED_005_character_4">
            <metadata ID="" rank=""/>
        </polygon>
        <polygon points="334,1522 490,1522 490,1837 334,1837 334,1522" id="SAINTOGAN_ZIGPUCE_ET_ALFRED_005_character_5">
            <metadata ID="" rank=""/>
        </polygon>
        <polygon points="1464,1159 1577,1159 1577,1783 1464,1783 1464,1159"
                 id="SAINTOGAN_ZIGPUCE_ET_ALFRED_005_character_6">
            <metadata ID="" rank=""/>
        </polygon>
        <polygon points="1201,1327 1454,1327 1454,1671 1201,1671 1201,1327"
                 id="SAINTOGAN_ZIGPUCE_ET_ALFRED_005_character_7">
            <metadata ID="" rank=""/>
        </polygon>
        <polygon points="2086,1470 2251,1470 2251,1728 2086,1728 2086,1470"
                 id="SAINTOGAN_ZIGPUCE_ET_ALFRED_005_character_8">
            <metadata ID="" rank=""/>
        </polygon>
        <polygon points="1802,1338 2167,1338 2167,1821 1802,1821 1802,1338"
                 id="SAINTOGAN_ZIGPUCE_ET_ALFRED_005_character_9">
            <metadata ID="" rank=""/>
        </polygon>
        <polygon points="1636,1472 1810,1472 1810,1630 1636,1630 1636,1472"
                 id="SAINTOGAN_ZIGPUCE_ET_ALFRED_005_character_10">
            <metadata ID="" rank=""/>
        </polygon>
        <polygon points="438,1972 578,1972 578,2125 438,2125 438,1972"
                 id="SAINTOGAN_ZIGPUCE_ET_ALFRED_005_character_11">
            <metadata ID="" rank=""/>
        </polygon>
        <polygon points="280,2104 608,2104 608,2324 280,2324 280,2104"
                 id="SAINTOGAN_ZIGPUCE_ET_ALFRED_005_character_12">
            <metadata ID="" rank=""/>
        </polygon>
        <polygon points="674,2161 818,2161 818,2474 674,2474 674,2161"
                 id="SAINTOGAN_ZIGPUCE_ET_ALFRED_005_character_13">
            <metadata ID="" rank=""/>
        </polygon>
        <polygon points="1037,2127 1371,2127 1371,2388 1037,2388 1037,2127"
                 id="SAINTOGAN_ZIGPUCE_ET_ALFRED_005_character_14">
            <metadata ID="" rank=""/>
        </polygon>
        <polygon points="1042,1964 1218,1964 1218,2174 1042,2174 1042,1964"
                 id="SAINTOGAN_ZIGPUCE_ET_ALFRED_005_character_15">
            <metadata ID="" rank=""/>
        </polygon>
        <polygon points="1279,1870 1423,1870 1423,1922 1279,1922 1279,1870"
                 id="SAINTOGAN_ZIGPUCE_ET_ALFRED_005_character_16">
            <metadata ID="" rank=""/>
        </polygon>
        <polygon points="1396,2272 1554,2272 1554,2492 1396,2492 1396,2272"
                 id="SAINTOGAN_ZIGPUCE_ET_ALFRED_005_character_17">
            <metadata ID="" rank=""/>
        </polygon>
        <polygon points="1954,2418 2005,2418 2005,2451 1954,2451 1954,2418"
                 id="SAINTOGAN_ZIGPUCE_ET_ALFRED_005_character_18">
            <metadata ID="" rank=""/>
        </polygon>
        <polygon points="1784,2124 1858,2124 1858,2174 1784,2174 1784,2124"
                 id="SAINTOGAN_ZIGPUCE_ET_ALFRED_005_character_19">
            <metadata ID="" rank=""/>
        </polygon>
        <polygon points="185,2739 475,2739 475,3018 185,3018 185,2739"
                 id="SAINTOGAN_ZIGPUCE_ET_ALFRED_005_character_20">
            <metadata ID="" rank=""/>
        </polygon>
        <polygon points="603,2695 817,2695 817,2813 603,2813 603,2695"
                 id="SAINTOGAN_ZIGPUCE_ET_ALFRED_005_character_21">
            <metadata ID="" rank=""/>
        </polygon>
        <polygon points="492,3013 657,3013 657,3137 492,3137 492,3013"
                 id="SAINTOGAN_ZIGPUCE_ET_ALFRED_005_character_22">
            <metadata ID="" rank=""/>
        </polygon>
        <polygon points="1050,2772 1282,2772 1282,3199 1050,3199 1050,2772"
                 id="SAINTOGAN_ZIGPUCE_ET_ALFRED_005_character_23">
            <metadata ID="" rank=""/>
        </polygon>
        <polygon points="1181,2697 1383,2697 1383,3179 1181,3179 1181,2697"
                 id="SAINTOGAN_ZIGPUCE_ET_ALFRED_005_character_24">
            <metadata ID="" rank=""/>
        </polygon>
        <polygon points="1477,2922 1574,2922 1574,3214 1477,3214 1477,2922"
                 id="SAINTOGAN_ZIGPUCE_ET_ALFRED_005_character_25">
            <metadata ID="" rank=""/>
        </polygon>
        <polygon points="1608,2715 1709,2715 1709,2877 1608,2877 1608,2715"
                 id="SAINTOGAN_ZIGPUCE_ET_ALFRED_005_character_26">
            <metadata ID="" rank=""/>
        </polygon>
        <polygon points="1610,2813 1857,2813 1857,3213 1610,3213 1610,2813"
                 id="SAINTOGAN_ZIGPUCE_ET_ALFRED_005_character_27">
            <metadata ID="" rank=""/>
        </polygon>
        <polygon points="2089,3051 2327,3051 2327,3261 2089,3261 2089,3051"
                 id="SAINTOGAN_ZIGPUCE_ET_ALFRED_005_character_28">
            <metadata ID="" rank=""/>
        </polygon>
    </svg>
    <svg contentScriptType="text/ecmascript" zoomAndPan="magnify" contentStyleType="text/css" class="Line"
         preserveAspectRatio="xMidYMid meet" version="1.0">
        <polygon points="706,149 1797,149 1797,287 706,287 706,149" id="SAINTOGAN_ZIGPUCE_ET_ALFRED_005_line_0">
            <metadata method="" typography="" textType="note">ZIG et PUCE</metadata>
        </polygon>
        <polygon points="690,288 1773,288 1773,389 690,389 690,288" id="SAINTOGAN_ZIGPUCE_ET_ALFRED_005_line_1">
            <metadata method="" typography="" textType="note">UNE MUTINERIE A BORD</metadata>
        </polygon>
        <polygon points="126,471 439,471 439,504 126,504 126,471" id="SAINTOGAN_ZIGPUCE_ET_ALFRED_005_line_2">
            <metadata method="" typography="" idBalloon="SAINTOGAN_ZIGPUCE_ET_ALFRED_005_balloon_0" textType="speech">
                ZIG CE QUI NOUS
            </metadata>
        </polygon>
        <polygon points="128,504 450,504 450,530 128,530 128,504" id="SAINTOGAN_ZIGPUCE_ET_ALFRED_005_line_3">
            <metadata method="" typography="" idBalloon="SAINTOGAN_ZIGPUCE_ET_ALFRED_005_balloon_0" textType="speech">
                ARRIVE EST EXTRA
            </metadata>
        </polygon>
        <polygon points="123,527 445,527 445,563 123,563 123,527" id="SAINTOGAN_ZIGPUCE_ET_ALFRED_005_line_4">
            <metadata method="" typography="" idBalloon="SAINTOGAN_ZIGPUCE_ET_ALFRED_005_balloon_0" textType="speech">
                ORDINAIRE !.. NOUS
            </metadata>
        </polygon>
        <polygon points="126,567 430,567 430,597 126,597 126,567" id="SAINTOGAN_ZIGPUCE_ET_ALFRED_005_line_5">
            <metadata method="" typography="" idBalloon="SAINTOGAN_ZIGPUCE_ET_ALFRED_005_balloon_0" textType="speech">
                VOILA EN PLEINE
            </metadata>
        </polygon>
        <polygon points="129,599 254,599 254,634 129,634 129,599" id="SAINTOGAN_ZIGPUCE_ET_ALFRED_005_line_6">
            <metadata method="" typography="" idBalloon="SAINTOGAN_ZIGPUCE_ET_ALFRED_005_balloon_0" textType="speech">
                MER!..
            </metadata>
        </polygon>
        <polygon points="890,480 1254,480 1254,513 890,513 890,480" id="SAINTOGAN_ZIGPUCE_ET_ALFRED_005_line_7">
            <metadata method="" typography="" idBalloon="SAINTOGAN_ZIGPUCE_ET_ALFRED_005_balloon_1" textType="speech">JE
                T'AVOUE QUE
            </metadata>
        </polygon>
        <polygon points="883,523 1267,525 1267,554 883,554 883,523" id="SAINTOGAN_ZIGPUCE_ET_ALFRED_005_line_8">
            <metadata method="" typography="" idBalloon="SAINTOGAN_ZIGPUCE_ET_ALFRED_005_balloon_1" textType="speech">JE
                NE COMPRENDS
            </metadata>
        </polygon>
        <polygon points="886,566 1281,566 1281,592 886,592 886,566" id="SAINTOGAN_ZIGPUCE_ET_ALFRED_005_line_9">
            <metadata method="" typography="" idBalloon="SAINTOGAN_ZIGPUCE_ET_ALFRED_005_balloon_1" textType="speech">
                PAS COMMENT NOUS
            </metadata>
        </polygon>
        <polygon points="888,607 1281,607 1281,635 888,635 888,607" id="SAINTOGAN_ZIGPUCE_ET_ALFRED_005_line_10">
            <metadata method="" typography="" idBalloon="SAINTOGAN_ZIGPUCE_ET_ALFRED_005_balloon_1" textType="speech">
                NOUS TROUVONS SUR
            </metadata>
        </polygon>
        <polygon points="890,642 1251,642 1251,676 890,676 890,642" id="SAINTOGAN_ZIGPUCE_ET_ALFRED_005_line_11">
            <metadata method="" typography="" idBalloon="SAINTOGAN_ZIGPUCE_ET_ALFRED_005_balloon_1" textType="speech">CE
                BAC ... AVEC UN
            </metadata>
        </polygon>
        <polygon points="978,686 1281,686 1281,715 979,715 978,686" id="SAINTOGAN_ZIGPUCE_ET_ALFRED_005_line_12">
            <metadata method="" typography="" idBalloon="SAINTOGAN_ZIGPUCE_ET_ALFRED_005_balloon_1" textType="speech">
                CHEVAL ET UNE
            </metadata>
        </polygon>
        <polygon points="979,724 1279,724 1280,754 979,753 979,724" id="SAINTOGAN_ZIGPUCE_ET_ALFRED_005_line_13">
            <metadata method="" typography="" idBalloon="SAINTOGAN_ZIGPUCE_ET_ALFRED_005_balloon_1" textType="speech">
                CHARRETTE DE
            </metadata>
        </polygon>
        <polygon points="993,753 1149,753 1149,791 993,791 993,753" id="SAINTOGAN_ZIGPUCE_ET_ALFRED_005_line_14">
            <metadata method="" typography="" idBalloon="SAINTOGAN_ZIGPUCE_ET_ALFRED_005_balloon_1" textType="speech">
                FOIN !..
            </metadata>
        </polygon>
        <polygon points="1346,479 2318,479 2318,521 1346,520 1346,479" id="SAINTOGAN_ZIGPUCE_ET_ALFRED_005_line_15">
            <metadata method="" typography="" idBalloon="SAINTOGAN_ZIGPUCE_ET_ALFRED_005_balloon_2" textType="speech">
                MON CHER PUCE A MON AVIS, VOILA CE QUI S'EST
            </metadata>
        </polygon>
        <polygon points="1339,521 2295,521 2295,555 1339,555 1339,521" id="SAINTOGAN_ZIGPUCE_ET_ALFRED_005_line_16">
            <metadata method="" typography="" idBalloon="SAINTOGAN_ZIGPUCE_ET_ALFRED_005_balloon_2" textType="speech">
                PASSE ... NOUS AVONS EU UN ACCIDENT D'AUTO;
            </metadata>
        </polygon>
        <polygon points="1339,561 2292,561 2292,595 1339,595 1339,561" id="SAINTOGAN_ZIGPUCE_ET_ALFRED_005_line_17">
            <metadata method="" typography="" idBalloon="SAINTOGAN_ZIGPUCE_ET_ALFRED_005_balloon_2" textType="speech">
                NOUS NOUS SOMMES EVANOUIS... ALORS NOUS
            </metadata>
        </polygon>
        <polygon points="1341,604 2317,602 2318,637 1341,637 1341,604" id="SAINTOGAN_ZIGPUCE_ET_ALFRED_005_line_18">
            <metadata method="" typography="" idBalloon="SAINTOGAN_ZIGPUCE_ET_ALFRED_005_balloon_2" textType="speech">
                AVONS DU ETRE RECUEILLIS PAR UN CHARRE-
            </metadata>
        </polygon>
        <polygon points="1345,640 2320,642 2320,679 1345,679 1345,640" id="SAINTOGAN_ZIGPUCE_ET_ALFRED_005_line_19">
            <metadata method="" typography="" idBalloon="SAINTOGAN_ZIGPUCE_ET_ALFRED_005_balloon_2" textType="speech">
                TIER QUI NOUS A MIS DANS SA VOITURE ET IL
            </metadata>
        </polygon>
        <polygon points="1502,680 2297,680 2297,721 1502,721 1502,680" id="SAINTOGAN_ZIGPUCE_ET_ALFRED_005_line_20">
            <metadata method="" typography="" idBalloon="SAINTOGAN_ZIGPUCE_ET_ALFRED_005_balloon_2" textType="speech">A
                CONTINUE SON CHEMIN ... IL AVAIT
            </metadata>
        </polygon>
        <polygon points="1511,731 2290,731 2290,767 1511,767 1511,731" id="SAINTOGAN_ZIGPUCE_ET_ALFRED_005_line_21">
            <metadata method="" typography="" idBalloon="SAINTOGAN_ZIGPUCE_ET_ALFRED_005_balloon_2" textType="speech">
                UNE RIVIERE A TREVERSER ... IL A
            </metadata>
        </polygon>
        <polygon points="1521,778 2256,778 2256,817 1521,817 1521,778" id="SAINTOGAN_ZIGPUCE_ET_ALFRED_005_line_22">
            <metadata method="" typography="" idBalloon="SAINTOGAN_ZIGPUCE_ET_ALFRED_005_balloon_2" textType="speech">
                FAIT MONTER SA CHARRETTE DANS
            </metadata>
        </polygon>
        <polygon points="1530,826 2276,824 2276,857 1530,857 1530,826" id="SAINTOGAN_ZIGPUCE_ET_ALFRED_005_line_23">
            <metadata method="" typography="" idBalloon="SAINTOGAN_ZIGPUCE_ET_ALFRED_005_balloon_2" textType="speech">CE
                BAC ... POUR UNE RAISON
            </metadata>
        </polygon>
        <polygon points="1526,870 2301,870 2301,904 1526,904 1526,870" id="SAINTOGAN_ZIGPUCE_ET_ALFRED_005_line_24">
            <metadata method="" typography="" idBalloon="SAINTOGAN_ZIGPUCE_ET_ALFRED_005_balloon_2" textType="speech">
                QUELCONQUE, LE BAC S'EST DETA-
            </metadata>
        </polygon>
        <polygon points="1531,904 2295,904 2295,945 1531,945 1531,904" id="SAINTOGAN_ZIGPUCE_ET_ALFRED_005_line_25">
            <metadata method="" typography="" idBalloon="SAINTOGAN_ZIGPUCE_ET_ALFRED_005_balloon_2" textType="speech">
                CHE DU PONTON OU IL ETAIT AMAR-
            </metadata>
        </polygon>
        <polygon points="1541,944 2290,944 2290,984 1541,984 1541,944" id="SAINTOGAN_ZIGPUCE_ET_ALFRED_005_line_26">
            <metadata method="" typography="" idBalloon="SAINTOGAN_ZIGPUCE_ET_ALFRED_005_balloon_2" textType="speech">RE
                ET IL EST PARTI TOUT SEUL A LA
            </metadata>
        </polygon>
        <polygon points="1547,990 2316,990 2316,1030 1547,1029 1547,990" id="SAINTOGAN_ZIGPUCE_ET_ALFRED_005_line_27">
            <metadata method="" typography="" idBalloon="SAINTOGAN_ZIGPUCE_ET_ALFRED_005_balloon_2" textType="speech">
                DERIVE ... TOUTE LA NUIT LE COURANT
            </metadata>
        </polygon>
        <polygon points="1553,1031 2298,1031 2298,1068 1553,1068 1553,1031"
                 id="SAINTOGAN_ZIGPUCE_ET_ALFRED_005_line_28">
            <metadata method="" typography="" idBalloon="SAINTOGAN_ZIGPUCE_ET_ALFRED_005_balloon_2" textType="speech">
                NOUS A POUSS2S ET CE MATIN NOUS
            </metadata>
        </polygon>
        <polygon points="1559,1074 2238,1074 2238,1109 1559,1109 1559,1074"
                 id="SAINTOGAN_ZIGPUCE_ET_ALFRED_005_line_29">
            <metadata method="" typography="" idBalloon="SAINTOGAN_ZIGPUCE_ET_ALFRED_005_balloon_2" textType="speech">
                VOILA AU MILIEU DE LA MER...
            </metadata>
        </polygon>
        <polygon points="1955,1175 2134,1175 2134,1199 1955,1199 1955,1175"
                 id="SAINTOGAN_ZIGPUCE_ET_ALFRED_005_line_30">
            <metadata method="" typography="" idBalloon="SAINTOGAN_ZIGPUCE_ET_ALFRED_005_balloon_4" textType="speech">
                VOULEZ
            </metadata>
        </polygon>
        <polygon points="1955,1199 2148,1199 2148,1234 1955,1234 1955,1199"
                 id="SAINTOGAN_ZIGPUCE_ET_ALFRED_005_line_31">
            <metadata method="" typography="" idBalloon="SAINTOGAN_ZIGPUCE_ET_ALFRED_005_balloon_4" textType="speech">
                VOUS FI-
            </metadata>
        </polygon>
        <polygon points="1960,1230 2154,1236 2154,1262 1960,1262 1960,1230"
                 id="SAINTOGAN_ZIGPUCE_ET_ALFRED_005_line_32">
            <metadata method="" typography="" idBalloon="SAINTOGAN_ZIGPUCE_ET_ALFRED_005_balloon_4" textType="speech">
                NIR ... SALES
            </metadata>
        </polygon>
        <polygon points="1965,1265 2102,1265 2102,1302 1965,1302 1965,1265"
                 id="SAINTOGAN_ZIGPUCE_ET_ALFRED_005_line_33">
            <metadata method="" typography="" idBalloon="SAINTOGAN_ZIGPUCE_ET_ALFRED_005_balloon_4" textType="speech">
                BETES!
            </metadata>
        </polygon>
        <polygon points="508,1142 603,1142 603,1282 508,1282 508,1142" id="SAINTOGAN_ZIGPUCE_ET_ALFRED_005_line_34">
            <metadata method="" typography="" idBalloon="SAINTOGAN_ZIGPUCE_ET_ALFRED_005_balloon_3" textType="speech">
                ?
            </metadata>
        </polygon>
        <polygon points="222,1905 435,1905 435,1970 222,1970 222,1905" id="SAINTOGAN_ZIGPUCE_ET_ALFRED_005_line_35">
            <metadata method="" typography="" idBalloon="SAINTOGAN_ZIGPUCE_ET_ALFRED_005_balloon_5" textType="speech">TU
                VAS VOIR
            </metadata>
        </polygon>
        <polygon points="214,1923 497,1923 497,2008 214,2008 214,1923" id="SAINTOGAN_ZIGPUCE_ET_ALFRED_005_line_36">
            <metadata method="" typography="" idBalloon="SAINTOGAN_ZIGPUCE_ET_ALFRED_005_balloon_5" textType="speech">SI
                TU CONTINUES
            </metadata>
        </polygon>
        <polygon points="215,1994 358,1994 358,2051 215,2051 215,1994" id="SAINTOGAN_ZIGPUCE_ET_ALFRED_005_line_37">
            <metadata method="" typography="" idBalloon="SAINTOGAN_ZIGPUCE_ET_ALFRED_005_balloon_5" textType="speech">
                ALFRED
            </metadata>
        </polygon>
        <polygon points="365,1979 387,1979 387,2045 365,2045 365,1979" id="SAINTOGAN_ZIGPUCE_ET_ALFRED_005_line_38">
            <metadata method="" typography="" idBalloon="SAINTOGAN_ZIGPUCE_ET_ALFRED_005_balloon_5" textType="speech">
                !
            </metadata>
        </polygon>
        <polygon points="656,1898 796,1898 796,1926 656,1926 656,1898" id="SAINTOGAN_ZIGPUCE_ET_ALFRED_005_line_39">
            <metadata method="" typography="" idBalloon="SAINTOGAN_ZIGPUCE_ET_ALFRED_005_balloon_6" textType="speech">
                ALFRED
            </metadata>
        </polygon>
        <polygon points="798,1877 808,1877 808,1930 798,1930 798,1877" id="SAINTOGAN_ZIGPUCE_ET_ALFRED_005_line_40">
            <metadata method="" typography="" idBalloon="SAINTOGAN_ZIGPUCE_ET_ALFRED_005_balloon_6" textType="speech">
                !
            </metadata>
        </polygon>
        <polygon points="637,1940 780,1940 780,1964 637,1964 637,1940" id="SAINTOGAN_ZIGPUCE_ET_ALFRED_005_line_41">
            <metadata method="" typography="" idBalloon="SAINTOGAN_ZIGPUCE_ET_ALFRED_005_balloon_6" textType="speech">
                VEUX-TU
            </metadata>
        </polygon>
        <polygon points="643,1965 795,1965 795,1998 643,1998 643,1965" id="SAINTOGAN_ZIGPUCE_ET_ALFRED_005_line_42">
            <metadata method="" typography="" idBalloon="SAINTOGAN_ZIGPUCE_ET_ALFRED_005_balloon_6" textType="speech">
                LAISSER
            </metadata>
        </polygon>
        <polygon points="693,2001 729,2001 729,2021 693,2021 693,2001" id="SAINTOGAN_ZIGPUCE_ET_ALFRED_005_line_43">
            <metadata method="" typography="" idBalloon="SAINTOGAN_ZIGPUCE_ET_ALFRED_005_balloon_6" textType="speech">
                LE
            </metadata>
        </polygon>
        <polygon points="661,2027 774,2027 774,2050 661,2050 661,2027" id="SAINTOGAN_ZIGPUCE_ET_ALFRED_005_line_44">
            <metadata method="" typography="" idBalloon="SAINTOGAN_ZIGPUCE_ET_ALFRED_005_balloon_6" textType="speech">
                CHEVAL
            </metadata>
        </polygon>
        <polygon points="776,2014 783,2014 783,2054 776,2054 776,2014" id="SAINTOGAN_ZIGPUCE_ET_ALFRED_005_line_45">
            <metadata method="" typography="" idBalloon="SAINTOGAN_ZIGPUCE_ET_ALFRED_005_balloon_6" textType="speech">
                !
            </metadata>
        </polygon>
        <polygon points="1633,2565 2207,2565 2207,2598 1633,2598 1633,2565"
                 id="SAINTOGAN_ZIGPUCE_ET_ALFRED_005_line_46">
            <metadata method="" typography="" idBalloon="SAINTOGAN_ZIGPUCE_ET_ALFRED_005_balloon_9" textType="speech">
                VENEZ UN PEU ICI ... OISEAU
            </metadata>
        </polygon>
        <polygon points="1639,2598 1896,2598 1896,2628 1639,2628 1639,2598"
                 id="SAINTOGAN_ZIGPUCE_ET_ALFRED_005_line_47">
            <metadata method="" typography="" idBalloon="SAINTOGAN_ZIGPUCE_ET_ALFRED_005_balloon_9" textType="speech">
                MAL ELEVE !
            </metadata>
        </polygon>
        <polygon points="1628,2651 1855,2651 1855,2681 1628,2681 1628,2651"
                 id="SAINTOGAN_ZIGPUCE_ET_ALFRED_005_line_48">
            <metadata method="" typography="" idBalloon="SAINTOGAN_ZIGPUCE_ET_ALFRED_005_balloon_10" textType="speech">
                NE LE GRONDE
            </metadata>
        </polygon>
        <polygon points="1629,2685 1872,2685 1872,2710 1629,2710 1629,2685"
                 id="SAINTOGAN_ZIGPUCE_ET_ALFRED_005_line_49">
            <metadata method="" typography="" idBalloon="SAINTOGAN_ZIGPUCE_ET_ALFRED_005_balloon_10" textType="speech">
                PAS TROP ... IL NE
            </metadata>
        </polygon>
        <polygon points="1737,2714 1855,2714 1855,2738 1737,2738 1737,2714"
                 id="SAINTOGAN_ZIGPUCE_ET_ALFRED_005_line_50">
            <metadata method="" typography="" idBalloon="SAINTOGAN_ZIGPUCE_ET_ALFRED_005_balloon_10" textType="speech">
                LE FERA
            </metadata>
        </polygon>
        <polygon points="1738,2742 1832,2742 1832,2770 1738,2770 1738,2742"
                 id="SAINTOGAN_ZIGPUCE_ET_ALFRED_005_line_51">
            <metadata method="" typography="" idBalloon="SAINTOGAN_ZIGPUCE_ET_ALFRED_005_balloon_10" textType="speech">
                PLUS !..
            </metadata>
        </polygon>
        <polygon points="1995,2733 2262,2733 2262,2768 1995,2771 1995,2733"
                 id="SAINTOGAN_ZIGPUCE_ET_ALFRED_005_line_52">
            <metadata method="" typography="" idBalloon="SAINTOGAN_ZIGPUCE_ET_ALFRED_005_balloon_11" textType="speech">
                IL AVAIT ETE
            </metadata>
        </polygon>
        <polygon points="1996,2775 2275,2775 2275,2809 1996,2809 1996,2775"
                 id="SAINTOGAN_ZIGPUCE_ET_ALFRED_005_line_53">
            <metadata method="" typography="" idBalloon="SAINTOGAN_ZIGPUCE_ET_ALFRED_005_balloon_11" textType="speech">
                INSOLENT A-
            </metadata>
        </polygon>
        <polygon points="1999,2816 2192,2816 2192,2848 1999,2848 1999,2816"
                 id="SAINTOGAN_ZIGPUCE_ET_ALFRED_005_line_54">
            <metadata method="" typography="" idBalloon="SAINTOGAN_ZIGPUCE_ET_ALFRED_005_balloon_11" textType="speech">
                VEC MOI...
            </metadata>
        </polygon>
        <polygon points="1484,2796 1549,2796 1549,2893 1484,2893 1484,2796"
                 id="SAINTOGAN_ZIGPUCE_ET_ALFRED_005_line_55">
            <metadata method="" typography="" idBalloon="SAINTOGAN_ZIGPUCE_ET_ALFRED_005_balloon_8" textType="speech">
                ?
            </metadata>
        </polygon>
        <polygon points="947,2584 1201,2584 1201,2629 947,2629 947,2584" id="SAINTOGAN_ZIGPUCE_ET_ALFRED_005_line_56">
            <metadata method="" typography="" idBalloon="SAINTOGAN_ZIGPUCE_ET_ALFRED_005_balloon_7" textType="speech">
                ALFRED? J'AI
            </metadata>
        </polygon>
        <polygon points="947,2626 1213,2626 1213,2661 947,2661 947,2626" id="SAINTOGAN_ZIGPUCE_ET_ALFRED_005_line_57">
            <metadata method="" typography="" idBalloon="SAINTOGAN_ZIGPUCE_ET_ALFRED_005_balloon_7" textType="speech">
                DEUX MOTS A
            </metadata>
        </polygon>
        <polygon points="945,2668 1133,2668 1133,2703 945,2703 945,2668" id="SAINTOGAN_ZIGPUCE_ET_ALFRED_005_line_58">
            <metadata method="" typography="" idBalloon="SAINTOGAN_ZIGPUCE_ET_ALFRED_005_balloon_7" textType="speech">TE
                DIRE ...
            </metadata>
        </polygon>
        <polygon points="228,3348 485,3348 486,3368 228,3368 228,3348" id="SAINTOGAN_ZIGPUCE_ET_ALFRED_005_line_59">
            <metadata method="" typography="" textType="note">PUCE ET ALFRED</metadata>
        </polygon>
        <polygon points="663,3161 747,3161 747,3203 663,3203 663,3161" id="SAINTOGAN_ZIGPUCE_ET_ALFRED_005_line_60">
            <metadata method="" typography="" textType="note">ALAIN</metadata>
        </polygon>
        <polygon points="688,3182 827,3182 827,3232 688,3232 688,3182" id="SAINTOGAN_ZIGPUCE_ET_ALFRED_005_line_61">
            <metadata method="" typography="" textType="note">SAINT ONAN</metadata>
        </polygon>
        <polygon points="1227,3329 1247,3329 1247,3366 1227,3366 1227,3329"
                 id="SAINTOGAN_ZIGPUCE_ET_ALFRED_005_line_62">
            <metadata method="" typography="" textType="note">5</metadata>
        </polygon>
        <polygon points="2301,3324 2317,3324 2317,3351 2301,3351 2301,3324"
                 id="SAINTOGAN_ZIGPUCE_ET_ALFRED_005_line_63">
            <metadata method="" typography="" textType="speech">2</metadata>
        </polygon>
    </svg>
    <svg contentScriptType="text/ecmascript" zoomAndPan="magnify" contentStyleType="text/css" class="linkSBSC"
         preserveAspectRatio="xMidYMid meet" version="1.0">
        <polygon points="288,617 289,617 447,822 446,822 288,617"
                 idCharacter="SAINTOGAN_ZIGPUCE_ET_ALFRED_005_character_0"
                 idBalloon="SAINTOGAN_ZIGPUCE_ET_ALFRED_005_balloon_0"/>
        <polygon points="1086,692 1087,692 1091,968 1090,968 1086,692"
                 idCharacter="SAINTOGAN_ZIGPUCE_ET_ALFRED_005_character_1"
                 idBalloon="SAINTOGAN_ZIGPUCE_ET_ALFRED_005_balloon_1"/>
        <polygon points="1816,800 1817,800 1414,933 1413,933 1816,800"
                 idCharacter="SAINTOGAN_ZIGPUCE_ET_ALFRED_005_character_2"
                 idBalloon="SAINTOGAN_ZIGPUCE_ET_ALFRED_005_balloon_2"/>
        <polygon points="551,1235 552,1235 657,1537 656,1537 551,1235"
                 idCharacter="SAINTOGAN_ZIGPUCE_ET_ALFRED_005_character_4"
                 idBalloon="SAINTOGAN_ZIGPUCE_ET_ALFRED_005_balloon_3"/>
        <polygon points="2048,1296 2049,1296 2169,1599 2168,1599 2048,1296"
                 idCharacter="SAINTOGAN_ZIGPUCE_ET_ALFRED_005_character_8"
                 idBalloon="SAINTOGAN_ZIGPUCE_ET_ALFRED_005_balloon_4"/>
        <polygon points="351,1995 352,1995 509,2048 508,2048 351,1995"
                 idCharacter="SAINTOGAN_ZIGPUCE_ET_ALFRED_005_character_11"
                 idBalloon="SAINTOGAN_ZIGPUCE_ET_ALFRED_005_balloon_5"/>
        <polygon points="715,2011 716,2011 747,2317 746,2317 715,2011"
                 idCharacter="SAINTOGAN_ZIGPUCE_ET_ALFRED_005_character_13"
                 idBalloon="SAINTOGAN_ZIGPUCE_ET_ALFRED_005_balloon_6"/>
        <polygon points="1080,2674 1081,2674 1167,2985 1166,2985 1080,2674"
                 idCharacter="SAINTOGAN_ZIGPUCE_ET_ALFRED_005_character_23"
                 idBalloon="SAINTOGAN_ZIGPUCE_ET_ALFRED_005_balloon_7"/>
        <polygon points="1521,2843 1522,2843 1526,3068 1525,3068 1521,2843"
                 idCharacter="SAINTOGAN_ZIGPUCE_ET_ALFRED_005_character_25"
                 idBalloon="SAINTOGAN_ZIGPUCE_ET_ALFRED_005_balloon_8"/>
        <polygon points="1745,2737 1746,2737 1659,2796 1658,2796 1745,2737"
                 idCharacter="SAINTOGAN_ZIGPUCE_ET_ALFRED_005_character_26"
                 idBalloon="SAINTOGAN_ZIGPUCE_ET_ALFRED_005_balloon_10"/>
        <polygon points="1934,2720 1935,2720 1734,3013 1733,3013 1934,2720"
                 idCharacter="SAINTOGAN_ZIGPUCE_ET_ALFRED_005_character_27"
                 idBalloon="SAINTOGAN_ZIGPUCE_ET_ALFRED_005_balloon_9"/>
        <polygon points="2135,2871 2136,2871 2209,3156 2208,3156 2135,2871"
                 idCharacter="SAINTOGAN_ZIGPUCE_ET_ALFRED_005_character_28"
                 idBalloon="SAINTOGAN_ZIGPUCE_ET_ALFRED_005_balloon_11"/>
    </svg>
    <metadata method="GroundTruth" lastModificationDate="Mon Mar 31 19:01:27 CEST 2014" lastStepModified="Page_Ended"/>
</svg>